#N canvas 28 41 1159 442 10;
#X obj 81 58 inlet~;
#X obj 81 341 outlet~;
#X obj 179 97 inlet~;
#X obj 179 341 outlet~;
#X obj 276 58 inlet~;
#X obj 276 341 outlet~;
#X obj 81 245 ../generics/line_mul~ 0 20;
#X obj 179 287 ../generics/line_mul~ 0 20;
#X obj 276 245 ../generics/line_mul~ 0 20;
#X obj 374 97 inlet~;
#X obj 374 341 outlet~;
#X obj 545 341 outlet;
#X obj 637 58 inlet;
#X obj 500 58 inlet;
#X text 637 38 route parameters;
#X obj 837 341 outlet;
#X text 836 359 rejected parameters;
#X obj 710 341 outlet;
#X text 844 163 parameters will be passed through.;
#X text 842 35 This abstraction handles the parameters;
#X text 844 53 of the class module (active) and;
#X text 844 70 switches on and off the DSP performance;
#X text 844 90 of the whole parent module.;
#X text 842 123 Init-bang will be passed through.;
#X text 844 142 Active will be routed here \, other;
#X text 819 189 1.) initial argument: <float> parent unique number
;
#X obj 637 97 route active;
#X text 848 227 Thomas Musil \, 11.11.2009;
#X obj 500 97 t b b;
#N canvas 0 23 438 380 handle_active 0;
#X obj 225 231 del 20;
#X msg 225 256 0;
#X msg 338 256 1;
#X msg 110 256 0;
#X msg 173 256 1;
#X obj 225 341 outlet;
#X obj 225 297 spigot;
#X msg 258 256 0;
#X msg 302 256 1;
#X obj 91 113 t b b b;
#X obj 91 70 sel 0 1;
#X obj 173 113 t b b b;
#X obj 110 341 outlet;
#X obj 91 31 inlet;
#X connect 0 0 1 0;
#X connect 1 0 6 0;
#X connect 2 0 5 0;
#X connect 3 0 12 0;
#X connect 4 0 12 0;
#X connect 6 0 5 0;
#X connect 7 0 6 1;
#X connect 8 0 6 1;
#X connect 9 0 0 0;
#X connect 9 1 3 0;
#X connect 9 2 8 0;
#X connect 10 0 9 0;
#X connect 10 1 11 0;
#X connect 11 0 4 0;
#X connect 11 1 2 0;
#X connect 11 2 7 0;
#X connect 13 0 10 0;
#X restore 637 166 pd handle_active;
#X obj 374 287 ../generics/line_mul~ 1 20;
#X text 537 359 to object switch~;
#X text 704 359 to next init-bang;
#X text 843 203 it's like a pd module ID;
#X text 494 38 from prev init-bang;
#X text 133 78 from post-processor 2;
#X text 48 38 from post-processor 1;
#X text 339 78 from post-processor 4;
#X text 246 38 from post-processor 3;
#X text 80 359 signal out 1;
#X text 178 359 signal out 2;
#X text 273 359 signal out 3;
#X text 374 359 signal out 4;
#X connect 0 0 6 0;
#X connect 2 0 7 0;
#X connect 4 0 8 0;
#X connect 6 0 1 0;
#X connect 7 0 3 0;
#X connect 8 0 5 0;
#X connect 9 0 30 0;
#X connect 12 0 26 0;
#X connect 13 0 28 0;
#X connect 26 0 29 0;
#X connect 26 1 15 0;
#X connect 28 0 17 0;
#X connect 28 1 30 3;
#X connect 28 1 8 3;
#X connect 28 1 7 3;
#X connect 28 1 6 3;
#X connect 29 0 30 1;
#X connect 29 0 8 1;
#X connect 29 0 7 1;
#X connect 29 0 6 1;
#X connect 29 1 11 0;
#X connect 30 0 10 0;
