#N canvas 86 52 1031 384 10;
#X obj 518 58 inlet;
#X obj 204 58 inlet~;
#X obj 293 279 outlet~;
#X obj 419 58 inlet;
#X obj 204 279 outlet~;
#X obj 518 140 clip 0 4;
#X text 516 37 route parameters;
#X obj 593 279 outlet;
#X text 591 300 rejected parameters;
#X obj 419 279 outlet;
#X text 204 299 bypass path;
#X text 482 140 range;
#X text 677 64 of parameters of the class processor;
#X text 674 83 (in-level) and splits up the incoming;
#X text 678 101 signal into dry path and effect path.;
#X text 676 48 This abstraction handles the first part;
#X text 680 136 Init-bang will be passed through.;
#X text 680 155 In-level will be routed here \, other;
#X text 681 176 parameters will be passed through.;
#X text 654 209 1.) initial argument: <float> parent unique number
;
#X text 696 264 Thomas Musil \, 11.11.2009;
#X obj 518 104 route inLevel;
#X obj 293 222 ../generics/line_mul~ 1 20;
#X obj 419 104 t b b;
#X text 418 299 to next init-bang;
#X text 679 223 it's like a pd module ID;
#X text 394 37 from init-bang;
#X obj 19 57 inlet~;
#X obj 117 278 outlet~;
#X obj 19 278 outlet~;
#X text 13 299 bypass path;
#X obj 117 222 ../generics/line_mul~ 1 20;
#X text 12 36 signal in left;
#X text 197 37 signal in right;
#X text 12 315 dry path left;
#X text 109 299 to effect left;
#X text 203 315 dry path right;
#X text 285 299 to effect right;
#X text 126 238 in-level-gain left;
#X text 305 238 in-level-gain right;
#X connect 0 0 21 0;
#X connect 1 0 4 0;
#X connect 1 0 22 0;
#X connect 3 0 23 0;
#X connect 5 0 22 1;
#X connect 5 0 31 1;
#X connect 21 0 5 0;
#X connect 21 1 7 0;
#X connect 22 0 2 0;
#X connect 23 0 9 0;
#X connect 23 1 22 3;
#X connect 23 1 31 3;
#X connect 27 0 29 0;
#X connect 27 0 31 0;
#X connect 31 0 28 0;
