#N canvas 0 41 1092 482 10;
#X obj 242 396 outlet~;
#X obj 242 363 +~;
#X text 88 308 out-level-gain;
#X obj 458 59 inlet;
#X text 143 346 bypass path;
#X obj 301 60 inlet~;
#X obj 242 60 inlet~;
#X obj 553 59 inlet;
#X text 550 43 route parameters;
#X text 727 415 rejected parameters;
#X obj 730 396 outlet;
#X obj 458 396 outlet;
#X text 760 64 of parameters of the class processor;
#X text 761 135 Init-bang will be passed through.;
#X obj 98 266 clip 0 4;
#X text 237 44 dry path;
#X text 759 48 This abstraction handles the second part;
#X text 762 100 and merges the signals of dry path and;
#X text 762 117 effect path together.;
#X text 763 154 Out-level will be routed here \,;
#X text 764 170 mix will be routed here \,;
#X text 763 188 also mute and bypass are routed here \,;
#X text 764 207 bypass overrules mute. !!!!!;
#X text 765 227 Other parameters will be passed through.;
#X text 740 255 1.) initial argument: <float> parent unique number
;
#X obj 553 88 route mix mute bypass outLevel;
#X text 768 305 Thomas Musil \, 11.11.2009;
#X obj 242 292 ../generics/line_mul~ 1 20;
#X obj 293 330 ../generics/line_mul~ 0 20;
#X obj 242 225 ../generics/line_mul~ 1 20;
#X obj 458 88 t b b;
#X text 759 83 (mix \, mute \, bypass \, out-level);
#X text 765 272 it's like a pd module ID;
#X text 420 43 from prev init-bang;
#X text 456 415 to next init-bang;
#N canvas 313 178 593 497 mix________________________ 0;
#X obj 111 430 outlet~;
#X obj 133 43 inlet~;
#X obj 61 43 inlet~;
#X text 134 25 wet;
#X text 59 25 dry;
#X text 121 447 mix;
#X obj 249 43 inlet;
#X obj 281 185 sin;
#X obj 294 131 expr 2*atan(1);
#X obj 223 184 cos;
#X obj 281 211 clip 0 1;
#X obj 223 211 clip 0 1;
#X obj 249 155 * 1.5708;
#X obj 112 391 +~;
#X text 225 25 0..dry \, 1..wet;
#X text 282 352 mix-gain wet;
#X text 88 353 mix-gain dry;
#X text 263 132 pi/2;
#X obj 230 336 ../generics/line_mul~ 1 20;
#X obj 61 336 ../generics/line_mul~ 0 20;
#X obj 444 43 inlet;
#X text 440 25 init-bang;
#X obj 444 79 t b b;
#X text 179 385 The signal will be mixed by multiplying with the first
quarter of a sine resp. cosine wave. That means in the middle (with
0.5) both wet and ond dry signals will be -3dB.;
#X obj 249 79 clip 0 1;
#X text 212 78 range;
#X connect 1 0 18 0;
#X connect 2 0 19 0;
#X connect 6 0 24 0;
#X connect 7 0 10 0;
#X connect 8 0 12 1;
#X connect 9 0 11 0;
#X connect 10 0 18 1;
#X connect 11 0 19 1;
#X connect 12 0 7 0;
#X connect 12 0 9 0;
#X connect 13 0 0 0;
#X connect 18 0 13 1;
#X connect 19 0 13 0;
#X connect 20 0 22 0;
#X connect 22 0 8 0;
#X connect 22 1 18 3;
#X connect 22 1 19 3;
#X connect 24 0 12 0;
#X restore 242 173 pd mix________________________;
#X obj 47 396 outlet~;
#X obj 47 363 +~;
#X obj 106 60 inlet~;
#X obj 47 60 inlet~;
#X text 42 44 dry path;
#X obj 47 292 ../generics/line_mul~ 1 20;
#X obj 98 330 ../generics/line_mul~ 0 20;
#X obj 47 225 ../generics/line_mul~ 1 20;
#N canvas 313 178 593 497 mix________________________ 0;
#X obj 111 430 outlet~;
#X obj 133 43 inlet~;
#X obj 61 43 inlet~;
#X text 134 25 wet;
#X text 59 25 dry;
#X text 121 447 mix;
#X obj 249 43 inlet;
#X obj 281 185 sin;
#X obj 294 131 expr 2*atan(1);
#X obj 223 184 cos;
#X obj 281 211 clip 0 1;
#X obj 223 211 clip 0 1;
#X obj 249 155 * 1.5708;
#X obj 112 391 +~;
#X text 225 25 0..dry \, 1..wet;
#X text 282 352 mix-gain wet;
#X text 88 353 mix-gain dry;
#X text 263 132 pi/2;
#X obj 230 336 ../generics/line_mul~ 1 20;
#X obj 61 336 ../generics/line_mul~ 0 20;
#X obj 444 43 inlet;
#X text 440 25 init-bang;
#X obj 444 79 t b b;
#X text 179 385 The signal will be mixed by multiplying with the first
quarter of a sine resp. cosine wave. That means in the middle (with
0.5) both wet and ond dry signals will be -3dB.;
#X obj 249 79 clip 0 1;
#X text 212 78 range;
#X connect 1 0 18 0;
#X connect 2 0 19 0;
#X connect 6 0 24 0;
#X connect 7 0 10 0;
#X connect 8 0 12 1;
#X connect 9 0 11 0;
#X connect 10 0 18 1;
#X connect 11 0 19 1;
#X connect 12 0 7 0;
#X connect 12 0 9 0;
#X connect 13 0 0 0;
#X connect 18 0 13 1;
#X connect 19 0 13 0;
#X connect 20 0 22 0;
#X connect 22 0 8 0;
#X connect 22 1 18 3;
#X connect 22 1 19 3;
#X connect 24 0 12 0;
#X restore 47 173 pd mix________________________;
#N canvas 743 273 450 390 bypass__ 0;
#X msg 282 239 0;
#X obj 282 45 sel 0;
#X obj 320 72 t b;
#X msg 75 148 1;
#X msg 320 239 1;
#X text 195 149 inverted bypass path;
#X msg 171 149 0;
#X msg 141 149 1;
#X obj 141 182 t b f;
#X obj 75 239 * 1;
#X obj 75 210 f 1;
#X msg 106 148 0;
#X obj 75 45 sel 0;
#X obj 106 72 t b;
#X text 102 240 multiply mute and inv bypass;
#X obj 75 8 inlet;
#X obj 282 9 inlet;
#X obj 75 276 outlet;
#X obj 282 276 outlet;
#X connect 0 0 18 0;
#X connect 1 0 0 0;
#X connect 1 0 7 0;
#X connect 1 1 2 0;
#X connect 2 0 4 0;
#X connect 2 0 6 0;
#X connect 3 0 10 0;
#X connect 4 0 18 0;
#X connect 6 0 8 0;
#X connect 7 0 8 0;
#X connect 8 0 10 0;
#X connect 8 1 9 1;
#X connect 9 0 17 0;
#X connect 10 0 9 0;
#X connect 11 0 10 0;
#X connect 12 0 3 0;
#X connect 12 1 13 0;
#X connect 13 0 11 0;
#X connect 15 0 12 0;
#X connect 16 0 1 0;
#X restore 597 173 pd bypass__;
#X text 341 347 bypass path;
#X text 283 307 out-level-gain;
#X text 236 240 mute-gain and inv bypass path;
#X text 41 241 mute-gain and inv bypass path;
#X text 43 415 to active-module left;
#X text 237 415 to active-module right;
#X text 102 44 from effect left;
#X text 297 44 from effect right;
#X text 42 31 bypass path left;
#X text 237 31 bypass path right;
#X text 130 189 mix left;
#X text 323 189 mix right;
#X text 156 266 range of out-level-gain;
#X connect 1 0 0 0;
#X connect 3 0 30 0;
#X connect 5 0 35 1;
#X connect 6 0 35 0;
#X connect 6 0 28 0;
#X connect 7 0 25 0;
#X connect 14 0 27 1;
#X connect 14 0 41 1;
#X connect 25 0 35 2;
#X connect 25 0 44 2;
#X connect 25 1 45 0;
#X connect 25 2 45 1;
#X connect 25 3 14 0;
#X connect 25 4 10 0;
#X connect 27 0 1 0;
#X connect 28 0 1 1;
#X connect 29 0 27 0;
#X connect 30 0 11 0;
#X connect 30 1 28 3;
#X connect 30 1 27 3;
#X connect 30 1 29 3;
#X connect 30 1 35 3;
#X connect 30 1 41 3;
#X connect 30 1 43 3;
#X connect 30 1 42 3;
#X connect 30 1 44 3;
#X connect 35 0 29 0;
#X connect 37 0 36 0;
#X connect 38 0 44 1;
#X connect 39 0 44 0;
#X connect 39 0 42 0;
#X connect 41 0 37 0;
#X connect 42 0 37 1;
#X connect 43 0 41 0;
#X connect 44 0 43 0;
#X connect 45 0 43 1;
#X connect 45 0 29 1;
#X connect 45 1 42 1;
#X connect 45 1 28 1;
