#N canvas 50 45 295 294 10;
#X obj 59 142 cnv 10 135 10 empty empty empty 20 12 0 14 -261682 -66577
0;
#X obj 58 88 inlet~;
#X obj 107 88 handlers/ntg_receive \$1;
#X obj 58 184 handlers/ntg_send \$1;
#N canvas 423 121 441 371 mono_processor________ 1;
#X obj 44 39 inlet~;
#X obj 89 312 switch~;
#X obj 132 39 inlet;
#X obj 267 39 inlet;
#X text 265 19 named parameter-messages;
#X text 126 19 init-bang;
#X obj 197 39 inlet;
#X text 195 19 fini-bang;
#X obj 244 312 outlet;
#X obj 44 110 handlers/mono_pre_processor \$0;
#X obj 44 248 handlers/mono_module \$0;
#N canvas 274 263 828 299 module_implementation 0;
#X obj 396 32 inlet;
#X obj 18 32 inlet~;
#X obj 160 32 inlet;
#X obj 513 232 outlet;
#X text 396 12 route parameters;
#X text 509 252 rejected parameters;
#X text 17 12 from pre-processor;
#X obj 161 232 outlet;
#X obj 160 126 t b b;
#X obj 310 32 inlet;
#X text 304 12 fini-bang;
#X obj 654 232 outlet;
#X text 650 252 outgoing parameters;
#X obj 396 79 route parameter here;
#X obj 654 194 list prepend parameter;
#X text 155 12 from prev init-bang;
#X text 158 252 to next init-bang;
#X connect 0 0 13 0;
#X connect 2 0 8 0;
#X connect 8 0 7 0;
#X connect 13 2 3 0;
#X connect 14 0 11 0;
#X restore 103 177 pd module_implementation;
#X connect 0 0 9 0;
#X connect 2 0 9 1;
#X connect 3 0 9 2;
#X connect 6 0 11 2;
#X connect 9 0 10 0;
#X connect 9 1 11 0;
#X connect 9 2 11 1;
#X connect 9 3 11 3;
#X connect 10 1 1 0;
#X connect 11 0 10 1;
#X connect 11 1 10 2;
#X connect 11 2 8 0;
#X restore 58 139 pd mono_processor________;
#X connect 1 0 4 0;
#X connect 2 0 4 1;
#X connect 2 1 4 2;
#X connect 2 2 4 3;
#X connect 4 0 3 0;
