#N canvas 474 164 353 237 10;
#X obj 89 26 handlers/ntg_receive \$1;
#X obj 89 187 outlet~;
#X obj 224 185 outlet~;
#N canvas 525 129 442 380 stereo_generator____ 0;
#X obj 28 30 inlet;
#X obj 28 326 outlet~;
#X obj 271 32 inlet;
#X text 271 13 named parameter-messages;
#X text 25 13 init-bang;
#X obj 132 275 switch~;
#X obj 149 31 inlet;
#X text 146 13 fini-bang;
#X obj 270 275 handlers/ntg_send \$1;
#X obj 79 326 outlet~;
#X obj 28 222 handlers/stereo_module \$0 _________;
#N canvas 331 66 790 405 module_implementation_________________ 0;
#X obj 65 339 outlet~;
#X obj 362 36 inlet;
#X obj 216 36 inlet;
#X text 213 18 init-bang;
#X text 359 18 named parameters;
#X obj 362 79 route parameters here;
#X obj 483 339 outlet;
#X text 481 357 rejected parameters;
#X obj 616 339 outlet;
#X text 612 357 outgoing parameters;
#X obj 616 312 list prepend parameter;
#X text 62 369 to post-processor;
#X obj 217 339 outlet;
#X obj 216 78 t b b;
#X obj 285 36 inlet;
#X text 282 18 fini-bang;
#X obj 127 339 outlet~;
#X text 213 357 to next init-bang;
#X text 64 357 left;
#X text 126 357 right;
#X connect 1 0 5 0;
#X connect 2 0 13 0;
#X connect 5 2 6 0;
#X connect 10 0 8 0;
#X connect 13 0 12 0;
#X restore 28 138 pd module_implementation_________________;
#X obj 28 179 handlers/stereo_generator \$0_______;
#X connect 0 0 11 0;
#X connect 2 0 11 2;
#X connect 6 0 11 1;
#X connect 10 0 1 0;
#X connect 10 1 9 0;
#X connect 10 2 5 0;
#X connect 11 0 12 0;
#X connect 11 1 12 1;
#X connect 11 2 12 2;
#X connect 11 3 12 3;
#X connect 11 4 8 0;
#X connect 12 0 10 0;
#X connect 12 1 10 1;
#X connect 12 2 10 2;
#X connect 12 3 10 3;
#X restore 89 94 pd stereo_generator____;
#X connect 0 0 3 0;
#X connect 0 1 3 1;
#X connect 0 2 3 2;
#X connect 3 0 1 0;
#X connect 3 1 2 0;
