#N canvas 375 39 475 221 10;
#X obj 80 43 inlet~;
#X obj 136 152 outlet~;
#X obj 24 43 inlet~;
#X obj 24 154 outlet~;
#X obj 136 43 handlers/ntg_receive \$1;
#N canvas 580 67 494 405 stereo_processor___________________ 1;
#X obj 54 34 inlet~;
#X obj 54 348 outlet~;
#X obj 157 299 switch~;
#X obj 105 348 outlet~;
#X obj 123 34 inlet~;
#X obj 191 34 inlet;
#X obj 330 34 inlet;
#X text 323 15 named parameter-messages;
#X text 182 15 init-bang;
#X obj 54 107 handlers/stereo_pre_processor \$0 __;
#X obj 54 201 handlers/stereo_post_processor \$0 _;
#X obj 54 245 handlers/stereo_module \$0 _________;
#X obj 259 34 inlet;
#X text 252 15 fini-bang;
#X obj 301 348 outlet;
#N canvas 122 66 859 347 edit_implementation_here_ 0;
#X obj 416 55 inlet;
#X obj 36 57 inlet~;
#X obj 36 252 outlet~;
#X obj 196 55 inlet;
#X obj 533 251 outlet;
#X text 416 38 route parameters;
#X text 529 269 rejected parameters;
#X text 40 27 from pre-processor;
#X text 44 281 to post-processor;
#X obj 197 251 outlet;
#X obj 196 162 t b b;
#X obj 332 55 inlet;
#X text 329 38 fini-bang;
#X obj 691 251 outlet;
#X text 687 269 outgoing parameters;
#X obj 416 87 route parameter here;
#X obj 691 215 list prepend parameter;
#X text 192 38 from prev init-bang;
#X text 193 269 to next init-bang;
#X obj 107 55 inlet~;
#X obj 107 251 outlet~;
#X text 41 40 left;
#X text 113 39 right;
#X text 40 269 left;
#X text 112 269 right;
#X connect 0 0 15 0;
#X connect 3 0 10 0;
#X connect 10 0 9 0;
#X connect 15 2 4 0;
#X connect 16 0 13 0;
#X restore 136 154 pd edit_implementation_here_;
#X connect 0 0 9 0;
#X connect 4 0 9 1;
#X connect 5 0 9 2;
#X connect 6 0 9 3;
#X connect 9 0 10 0;
#X connect 9 1 10 1;
#X connect 9 2 15 0;
#X connect 9 3 15 1;
#X connect 9 4 15 2;
#X connect 9 5 15 4;
#X connect 10 0 11 0;
#X connect 10 1 11 1;
#X connect 10 2 11 2;
#X connect 10 3 11 3;
#X connect 11 0 1 0;
#X connect 11 1 3 0;
#X connect 11 2 2 0;
#X connect 12 0 15 3;
#X connect 15 0 10 2;
#X connect 15 1 10 3;
#X connect 15 2 10 4;
#X connect 15 3 10 5;
#X connect 15 4 14 0;
#X restore 24 98 pd stereo_processor___________________;
#X obj 249 152 handlers/ntg_send \$1;
#X connect 0 0 5 1;
#X connect 2 0 5 0;
#X connect 4 0 5 2;
#X connect 4 1 5 3;
#X connect 4 2 5 4;
#X connect 5 0 3 0;
#X connect 5 1 1 0;
#X connect 5 2 6 0;
