#N canvas 118 22 1144 666 10;
#X obj 147 39 inlet;
#X obj 266 39 inlet;
#X obj 272 239 clip -40 40;
#X obj 152 239 clip -40 40;
#X obj 387 38 inlet;
#X obj 392 238 clip -40 40;
#X obj 507 38 inlet;
#X obj 512 238 clip -40 40;
#X obj 625 38 inlet;
#X obj 631 238 clip -40 40;
#X text 252 18 band_125_Hz;
#X text 503 21 band_2_kHz;
#X text 383 15 band_500_Hz;
#X text 616 21 band_8_kHz;
#X text 142 17 band_31_Hz;
#X obj 40 39 inlet~;
#X obj 39 597 outlet~;
#X obj 152 212 f \$1;
#X obj 632 212 f \$5;
#X obj 512 212 f \$4;
#X obj 392 212 f \$3;
#X obj 272 212 f \$2;
#N canvas 0 22 692 804 hml_shelv_control 0;
#X obj 188 327 clip 1e-20 1.57079;
#X obj 189 349 expr cos($f1)/sin($f1);
#X text 351 349 l;
#X obj 173 682 pack 0 0 0 0 0;
#X text 150 237 mf;
#X text 309 236 rf;
#X obj 173 163 expr $f1 \; $f2*$f4 \; $f3 \; $f4/$f2 \; $f5;
#X obj 218 237 clip 1 10000;
#X text 245 212 lg mf mg rf hg;
#X text 270 373 lg l mg rf hg;
#X obj 174 374 expr $f1 \; $f3 \; $f5 \; $f2*$f4 \; $f2/$f4 \; $f2*$f2*$f5
\; $f2*$f2/$f5;
#X text 271 448 lg mg hg k1 k2 k4 k5;
#X text 375 513 k6;
#X text 375 526 k7;
#X text 375 539 k8;
#X text 375 552 k9;
#X text 375 500 k5;
#X text 375 477 lg;
#X obj 173 479 expr $f1 \; $f6 \; $f7 \; 1/$f1 + $f7 \; $f4/$f2 + $f5*$f2/($f1*$f3)
\; $f1 + $f6 \; $f4*$f2 + $f5*$f1*$f3/$f2 \;;
#X text 375 489 k4;
#X obj 173 586 expr 2*($f3-1/$f1)/($f4+$f5) \; ($f5-$f4)/($f4+$f5)
\; ($f6+$f7)/($f4+$f5) \; 2*($f1-$f2)/($f4+$f5) \; ($f6-$f7)/($f4+$f5)
;
#X obj 173 712 outlet;
#X obj 173 33 inlet;
#X obj 187 53 inlet;
#X obj 203 73 inlet;
#X obj 217 93 inlet;
#X obj 233 113 inlet;
#X obj 457 153 inlet;
#X obj 396 152 inlet;
#X obj 187 299 * 7.12e-05;
#X connect 0 0 1 0;
#X connect 1 0 10 1;
#X connect 3 0 21 0;
#X connect 6 0 10 0;
#X connect 6 1 29 0;
#X connect 6 2 10 2;
#X connect 6 3 7 0;
#X connect 6 4 10 4;
#X connect 7 0 10 3;
#X connect 10 0 18 0;
#X connect 10 1 18 1;
#X connect 10 2 18 2;
#X connect 10 3 18 3;
#X connect 10 4 18 4;
#X connect 10 5 18 5;
#X connect 10 6 18 6;
#X connect 18 0 20 0;
#X connect 18 1 20 1;
#X connect 18 2 20 2;
#X connect 18 3 20 3;
#X connect 18 4 20 4;
#X connect 18 5 20 5;
#X connect 18 6 20 6;
#X connect 20 0 3 0;
#X connect 20 1 3 1;
#X connect 20 2 3 2;
#X connect 20 3 3 3;
#X connect 20 4 3 4;
#X connect 22 0 6 0;
#X connect 23 0 6 1;
#X connect 24 0 6 2;
#X connect 25 0 6 3;
#X connect 26 0 6 4;
#X connect 27 0 0 2;
#X connect 28 0 29 1;
#X connect 29 0 0 0;
#X restore 297 536 pd hml_shelv_control;
#X obj 38 550 biquad~;
#N canvas 0 22 692 804 hml_shelv_control 0;
#X obj 188 327 clip 1e-20 1.57079;
#X obj 189 349 expr cos($f1)/sin($f1);
#X text 351 349 l;
#X obj 173 678 pack 0 0 0 0 0;
#X text 150 237 mf;
#X text 309 236 rf;
#X obj 173 163 expr $f1 \; $f2*$f4 \; $f3 \; $f4/$f2 \; $f5;
#X obj 218 237 clip 1 10000;
#X text 245 212 lg mf mg rf hg;
#X text 270 373 lg l mg rf hg;
#X obj 174 374 expr $f1 \; $f3 \; $f5 \; $f2*$f4 \; $f2/$f4 \; $f2*$f2*$f5
\; $f2*$f2/$f5;
#X text 271 448 lg mg hg k1 k2 k4 k5;
#X text 375 513 k6;
#X text 375 526 k7;
#X text 375 539 k8;
#X text 375 552 k9;
#X text 375 500 k5;
#X text 375 477 lg;
#X obj 173 479 expr $f1 \; $f6 \; $f7 \; 1/$f1 + $f7 \; $f4/$f2 + $f5*$f2/($f1*$f3)
\; $f1 + $f6 \; $f4*$f2 + $f5*$f1*$f3/$f2 \;;
#X text 375 489 k4;
#X obj 173 582 expr 2*($f3-1/$f1)/($f4+$f5) \; ($f5-$f4)/($f4+$f5)
\; ($f6+$f7)/($f4+$f5) \; 2*($f1-$f2)/($f4+$f5) \; ($f6-$f7)/($f4+$f5)
;
#X obj 173 708 outlet;
#X obj 173 33 inlet;
#X obj 187 53 inlet;
#X obj 203 73 inlet;
#X obj 217 93 inlet;
#X obj 233 113 inlet;
#X obj 461 190 inlet;
#X obj 547 191 inlet;
#X obj 189 302 * 7.12e-05;
#X connect 0 0 1 0;
#X connect 1 0 10 1;
#X connect 3 0 21 0;
#X connect 6 0 10 0;
#X connect 6 1 29 0;
#X connect 6 2 10 2;
#X connect 6 3 7 0;
#X connect 6 4 10 4;
#X connect 7 0 10 3;
#X connect 10 0 18 0;
#X connect 10 1 18 1;
#X connect 10 2 18 2;
#X connect 10 3 18 3;
#X connect 10 4 18 4;
#X connect 10 5 18 5;
#X connect 10 6 18 6;
#X connect 18 0 20 0;
#X connect 18 1 20 1;
#X connect 18 2 20 2;
#X connect 18 3 20 3;
#X connect 18 4 20 4;
#X connect 18 5 20 5;
#X connect 18 6 20 6;
#X connect 20 0 3 0;
#X connect 20 1 3 1;
#X connect 20 2 3 2;
#X connect 20 3 3 3;
#X connect 20 4 3 4;
#X connect 22 0 6 0;
#X connect 23 0 6 1;
#X connect 24 0 6 2;
#X connect 25 0 6 3;
#X connect 26 0 6 4;
#X connect 27 0 29 1;
#X connect 28 0 0 2;
#X connect 29 0 0 0;
#X restore 505 539 pd hml_shelv_control;
#X obj 38 573 biquad~;
#X obj 283 448 dbtorms;
#X obj 284 422 + 100;
#X obj 282 470 sqrt;
#X obj 359 447 dbtorms;
#X obj 360 423 + 100;
#X obj 358 469 sqrt;
#X obj 422 446 dbtorms;
#X obj 422 424 + 100;
#X obj 421 468 sqrt;
#X obj 744 269 sqrt;
#X obj 785 270 sqrt;
#X obj 545 427 dbtorms;
#X obj 546 406 + 100;
#X obj 545 450 sqrt;
#X obj 603 425 dbtorms;
#X obj 603 403 + 100;
#X obj 603 448 sqrt;
#X obj 850 270 sqrt;
#X obj 889 271 sqrt;
#X obj 929 353 expr 4*atan(1)/$f1;
#X obj 929 329 samplerate~;
#X obj 956 379 expr 2*atan(1);
#X obj 956 401 - 1e-07;
#X obj 433 293 * -1;
#X obj 546 381 +;
#X obj 604 379 +;
#X obj 392 267 t f f;
#X obj 769 111 t b b b b b b b b b b b;
#X obj 625 62 t b f;
#X obj 100 118 del 0;
#X obj 507 62 t b f;
#X obj 387 62 t b f;
#X obj 265 62 t b f;
#X obj 147 62 t b f;
#X msg 505 465 1;
#X msg 850 247 1000;
#X msg 889 248 4000;
#X msg 785 247 250;
#X msg 744 246 62.5;
#X obj 100 140 t b b b b b b;
#X obj 842 35 inlet;
#X text 841 16 init-bang;
#X obj 843 65 t b b;
#X obj 770 88 del 10;
#X obj 56 164 del 10;
#X connect 0 0 59 0;
#X connect 1 0 58 0;
#X connect 2 0 30 0;
#X connect 3 0 27 0;
#X connect 4 0 57 0;
#X connect 5 0 52 0;
#X connect 6 0 56 0;
#X connect 7 0 50 1;
#X connect 8 0 54 0;
#X connect 9 0 51 1;
#X connect 15 0 23 0;
#X connect 17 0 3 0;
#X connect 18 0 9 0;
#X connect 19 0 7 0;
#X connect 20 0 5 0;
#X connect 21 0 2 0;
#X connect 22 0 23 0;
#X connect 23 0 25 0;
#X connect 24 0 25 0;
#X connect 25 0 16 0;
#X connect 26 0 28 0;
#X connect 27 0 26 0;
#X connect 28 0 22 0;
#X connect 29 0 31 0;
#X connect 30 0 29 0;
#X connect 31 0 22 2;
#X connect 32 0 34 0;
#X connect 33 0 32 0;
#X connect 34 0 22 4;
#X connect 35 0 22 1;
#X connect 36 0 22 3;
#X connect 37 0 39 0;
#X connect 38 0 37 0;
#X connect 39 0 24 2;
#X connect 40 0 42 0;
#X connect 41 0 40 0;
#X connect 42 0 24 4;
#X connect 43 0 24 1;
#X connect 44 0 24 3;
#X connect 45 0 22 5;
#X connect 45 0 24 5;
#X connect 46 0 45 0;
#X connect 47 0 48 0;
#X connect 48 0 22 6;
#X connect 48 0 24 6;
#X connect 49 0 50 0;
#X connect 49 0 51 0;
#X connect 50 0 38 0;
#X connect 51 0 41 0;
#X connect 52 0 33 0;
#X connect 52 1 49 0;
#X connect 53 0 17 0;
#X connect 53 1 64 0;
#X connect 53 2 21 0;
#X connect 53 3 63 0;
#X connect 53 4 60 0;
#X connect 53 5 20 0;
#X connect 53 6 61 0;
#X connect 53 7 19 0;
#X connect 53 8 62 0;
#X connect 53 9 18 0;
#X connect 53 10 46 0;
#X connect 53 10 47 0;
#X connect 54 0 55 0;
#X connect 54 1 18 1;
#X connect 55 0 65 0;
#X connect 55 0 70 0;
#X connect 56 0 55 0;
#X connect 56 1 19 1;
#X connect 57 0 55 0;
#X connect 57 1 20 1;
#X connect 58 0 55 0;
#X connect 58 1 21 1;
#X connect 59 0 55 0;
#X connect 59 1 17 1;
#X connect 60 0 24 0;
#X connect 61 0 43 0;
#X connect 62 0 44 0;
#X connect 63 0 36 0;
#X connect 64 0 35 0;
#X connect 65 0 17 0;
#X connect 65 1 21 0;
#X connect 65 2 20 0;
#X connect 65 3 60 0;
#X connect 65 4 19 0;
#X connect 65 5 18 0;
#X connect 66 0 68 0;
#X connect 68 0 69 0;
#X connect 68 1 53 0;
#X connect 69 0 53 0;
#X connect 70 0 65 0;
