#N canvas 755 71 451 434 10;
#X obj 80 348 biquad~;
#X obj 149 56 inlet;
#X text 151 38 freq;
#X obj 288 55 inlet;
#X text 290 37 Q;
#X obj 149 138 expr $f1*$f1+1 \; $f1*$f2;
#X text 128 163 l2;
#X text 259 166 al;
#X obj 161 175 expr $f1 \; $f2 \; 1/($f1+$f2);
#X text 124 217 l2;
#X text 210 217 al;
#X text 279 217 rcp;
#X obj 81 56 inlet~;
#X obj 80 369 outlet~;
#X text 365 108 l a;
#X obj 149 108 ../generics/fq_transform \$1 \$2;
#X obj 149 318 pack 0 0 0 0 1;
#X text 29 21 all_pass_2p~ : all-pass filter;
#X obj 375 54 inlet;
#X text 377 36 init-bang;
#X obj 314 249 expr 2*$f3*($f1-2) \; $f3*($f2-$f1) \; $f3*($f1-$f2)
\; 2*$f3*(2-$f1);
#X obj 144 294 * -1;
#X obj 228 294 * -1;
#X obj 144 270 t f f;
#X obj 227 270 t f f;
#X obj 138 233 expr 2*$f3*(2-$f1) \; $f3*($f1-$f2);
#X connect 0 0 13 0;
#X connect 1 0 15 0;
#X connect 3 0 15 1;
#X connect 5 0 8 0;
#X connect 5 1 8 1;
#X connect 8 0 25 0;
#X connect 8 1 25 1;
#X connect 8 2 25 2;
#X connect 12 0 0 0;
#X connect 15 0 5 0;
#X connect 16 0 0 0;
#X connect 18 0 15 2;
#X connect 21 0 16 0;
#X connect 22 0 16 1;
#X connect 23 0 21 0;
#X connect 23 1 16 3;
#X connect 24 0 22 0;
#X connect 24 1 16 2;
#X connect 25 0 23 0;
#X connect 25 1 24 0;
