#N canvas 155 55 477 445 10;
#X obj 78 329 biquad~;
#X obj 146 52 inlet;
#X text 148 34 freq;
#X obj 296 51 inlet;
#X text 298 33 Q;
#X obj 146 129 expr $f1*$f1+1 \; $f1*$f2;
#X text 125 154 l2;
#X text 256 157 al;
#X obj 158 166 expr $f1 \; $f2 \; 1/($f1+$f2);
#X text 121 208 l2;
#X text 207 208 al;
#X text 276 208 rcp;
#X obj 79 52 inlet~;
#X obj 78 350 outlet~;
#X obj 135 224 expr 2*$f3*($f1-2) \; $f3*($f2-$f1) \; $f3*$f2 \; -$f3*$f2
;
#X obj 146 299 pack 0 0 0 0 0;
#X text 362 103 l a;
#X obj 146 103 ../generics/fq_transform \$1 \$2;
#X text 26 17 band_pass_2p~ : band-pass filter;
#X obj 375 54 inlet;
#X text 377 36 init-bang;
#X connect 0 0 13 0;
#X connect 1 0 17 0;
#X connect 3 0 17 1;
#X connect 5 0 8 0;
#X connect 5 1 8 1;
#X connect 8 0 14 0;
#X connect 8 1 14 1;
#X connect 8 2 14 2;
#X connect 12 0 0 0;
#X connect 14 0 15 0;
#X connect 14 1 15 1;
#X connect 14 2 15 2;
#X connect 14 3 15 4;
#X connect 15 0 0 0;
#X connect 17 0 5 0;
#X connect 19 0 17 2;
