#N canvas 155 55 445 509 10;
#X obj 77 359 biquad~;
#X obj 143 52 inlet;
#X text 145 34 freq;
#X obj 270 51 inlet;
#X text 272 33 Q;
#X obj 143 129 expr $f1*$f1+1 \; $f1*$f2;
#X text 122 154 l2;
#X text 253 157 al;
#X obj 155 166 expr $f1 \; $f2 \; 1/($f1+$f2);
#X text 118 208 l2;
#X text 204 208 al;
#X text 273 208 rcp;
#X obj 131 224 expr -2*$f3*(2-$f1) \; $f3*($f2-$f1) \; $f3*$f1 \; 2*$f3*(2-$f1)
\; $f3*$f1;
#X obj 142 325 pack 0 0 0 0 0;
#X obj 78 52 inlet~;
#X obj 77 380 outlet~;
#X text 359 100 l a;
#X obj 143 100 ../generics/fq_transform \$1 \$2;
#X text 26 17 band_stop_2p~ : notch filter;
#X obj 375 54 inlet;
#X text 377 36 init-bang;
#X connect 0 0 15 0;
#X connect 1 0 17 0;
#X connect 3 0 17 1;
#X connect 5 0 8 0;
#X connect 5 1 8 1;
#X connect 8 0 12 0;
#X connect 8 1 12 1;
#X connect 8 2 12 2;
#X connect 12 0 13 0;
#X connect 12 1 13 1;
#X connect 12 2 13 2;
#X connect 12 3 13 3;
#X connect 12 4 13 4;
#X connect 13 0 0 0;
#X connect 14 0 0 0;
#X connect 17 0 5 0;
#X connect 19 0 17 2;
