#N canvas 183 49 450 300 10;
#X obj 265 230 dac~ 1;
#X obj 52 231 stdout;
#X obj 51 49 r hexter;
#X msg 321 92 \; pd dsp 1;
#X obj 318 56 loadbang;
#X obj 344 181 print;
#X msg 349 152 dx7_instance;
#X connect 2 0 5 0;
#X connect 4 0 3 0;
#X connect 4 0 6 0;
#X connect 6 0 5 0;
