#N canvas 60 164 860 634 12;
#X obj 55 472 +~;
#X obj 55 505 outlet~;
#X obj 59 48 inlet~;
#X obj 280 60 inlet;
#X obj 280 216 pack 0.1 20;
#X text 151 196 frequency in Hz;
#X text 150 179 Modulation;
#X text 490 178 Modulation;
#X text 491 195 depth 0 .. 1;
#X obj 423 186 clip 0 1;
#X obj 679 46 inlet;
#X text 678 27 init-bang;
#X obj 280 274 osc~;
#X obj 280 246 line~ 0.1;
#X obj 280 189 clip 1e-05 1000;
#X text 60 28 sig.in;
#X text 54 531 sig.out;
#X text 279 37 parameter;
#X obj 280 90 route modulationFrequency modulationDepth;
#X text 664 508 rejected parameter;
#N canvas 0 22 450 300 delwrite 0;
#X obj 86 26 inlet~;
#X obj 84 175 outlet~;
#X obj 101 66 delwrite~ \$0-flangerdel 500;
#X connect 0 0 2 0;
#X connect 0 0 1 0;
#X restore 77 99 pd delwrite;
#N canvas 0 22 450 300 delread 0;
#X obj 86 26 inlet~;
#X obj 84 175 outlet~;
#X obj 114 131 vd~ \$0-flangerdel;
#X obj 233 25 inlet~;
#X connect 2 0 1 0;
#X connect 3 0 2 0;
#X restore 77 140 pd delread;
#X text 21 3 flanger~;
#X obj 698 481 outlet;
#X obj 256 366 max~ 0;
#X obj 330 366 min~ 0;
#X text 220 365 pos;
#X text 395 365 neg;
#X obj 256 418 sqrt~;
#X obj 330 420 *~;
#X obj 256 393 +~ 1;
#X obj 330 393 -~ 1;
#X obj 256 444 sqrt~;
#X obj 329 449 *~;
#X obj 256 469 sqrt~;
#X obj 330 474 *~;
#X obj 256 495 sqrt~;
#X obj 329 498 *~;
#X obj 280 301 ../generics/line_mul~ 1 20;
#X obj 256 523 *~ -47.52;
#X obj 328 523 *~ 0.185625;
#X obj 283 583 +~ 48.2074;
#X obj 283 556 +~;
#X obj 280 331 *~ 0.3367;
#X connect 0 0 1 0;
#X connect 2 0 0 0;
#X connect 2 0 20 0;
#X connect 3 0 18 0;
#X connect 4 0 13 0;
#X connect 9 0 38 1;
#X connect 10 0 38 3;
#X connect 12 0 38 0;
#X connect 13 0 12 0;
#X connect 14 0 4 0;
#X connect 18 0 14 0;
#X connect 18 1 9 0;
#X connect 18 2 23 0;
#X connect 20 0 21 0;
#X connect 21 0 0 1;
#X connect 24 0 30 0;
#X connect 25 0 31 0;
#X connect 28 0 32 0;
#X connect 29 0 33 0;
#X connect 29 0 33 1;
#X connect 30 0 28 0;
#X connect 31 0 29 0;
#X connect 31 0 29 1;
#X connect 32 0 34 0;
#X connect 33 0 35 0;
#X connect 33 0 35 1;
#X connect 34 0 36 0;
#X connect 35 0 37 0;
#X connect 35 0 37 1;
#X connect 36 0 39 0;
#X connect 37 0 40 0;
#X connect 38 0 43 0;
#X connect 39 0 42 0;
#X connect 40 0 42 1;
#X connect 41 0 21 1;
#X connect 42 0 41 0;
#X connect 43 0 24 0;
#X connect 43 0 25 0;
