#N canvas 0 53 1525 847 10;
#X obj 239 602 +~ 0;
#X obj 238 575 line~;
#X msg 237 551 0 \, \$1 \$2;
#X obj 238 529 pack 0 0;
#X obj 243 30 inlet;
#X msg 627 405 set \$1;
#X text 449 162 <symbol> array-name of source;
#X text 741 422 Initial Arguments:;
#N canvas 615 111 876 628 grain.envelope 0;
#X obj 81 428 tabread4~ \$0-hann1;
#X obj 81 396 line~;
#X msg 81 351 1 \, 512 \$1;
#X msg 231 353 512 \, 1 \$1;
#X obj 231 326 f 20;
#X obj 81 326 f 20;
#X obj 231 298 del 40;
#X text 278 294 grain.size - release.time;
#X text 266 323 release.time;
#X text 116 324 attack.time;
#X msg 207 152 stop;
#X obj 67 451 *~;
#X obj 596 481 table \$0-hann1 515;
#N canvas 0 22 391 615 init 0;
#X obj 107 209 t f f b;
#X obj 107 135 t l l;
#X obj 107 159 -;
#X obj 107 181 * -1;
#X obj 87 321 +;
#X msg 236 258 \$1;
#X obj 86 265 until;
#X obj 86 240 + 1;
#X msg 107 99 1 513;
#X obj 169 351 s \$0-hann1;
#X msg 169 327 0 0 \, 513 1 1;
#X obj 90 352 t f f;
#X obj 93 517 tabwrite \$0-hann1;
#X obj 90 379 - 1;
#X obj 90 402 / 512;
#X obj 187 97 expr atan(1);
#X obj 90 449 sin;
#X obj 91 472 t f f;
#X obj 93 494 *;
#X obj 187 123 * 2;
#X obj 90 426 * 1.57;
#X obj 137 69 t b b;
#X obj 87 292 ../generics/counter 10;
#X obj 136 33 inlet;
#X connect 0 0 7 0;
#X connect 0 1 22 1;
#X connect 0 2 22 2;
#X connect 1 0 2 0;
#X connect 1 1 5 0;
#X connect 2 0 3 0;
#X connect 3 0 0 0;
#X connect 4 0 11 0;
#X connect 5 0 4 1;
#X connect 6 0 22 0;
#X connect 7 0 6 0;
#X connect 8 0 1 0;
#X connect 10 0 9 0;
#X connect 11 0 13 0;
#X connect 11 1 12 1;
#X connect 13 0 14 0;
#X connect 14 0 20 0;
#X connect 15 0 19 0;
#X connect 16 0 17 0;
#X connect 17 0 18 0;
#X connect 17 1 18 1;
#X connect 18 0 12 0;
#X connect 19 0 20 1;
#X connect 20 0 16 0;
#X connect 21 0 8 0;
#X connect 21 1 15 0;
#X connect 22 0 4 0;
#X connect 22 1 10 0;
#X connect 23 0 21 0;
#X restore 606 457 pd init hann1;
#X obj 66 92 inlet~;
#X obj 66 492 outlet~;
#X obj 139 95 inlet;
#X text 140 75 grain.size;
#X obj 409 95 inlet;
#X text 409 74 attack.time;
#X obj 511 98 inlet;
#X text 510 74 release.time;
#X obj 264 250 -;
#X obj 264 272 max 0;
#X text 276 379 grain size in ms \; line~ in attack.time von 1 auf
512 \; at the same time \; start a del with grainsize - release.time
\; this del starts a message to line~ \; 512 to 1 in release.time;
#X obj 409 130 * 0.01;
#X obj 511 134 * 0.01;
#X obj 139 119 t b f b f f;
#X obj 496 164 *;
#X obj 394 170 *;
#X text 451 56 [percent of grain.size];
#X text 406 40 [percent of grain.size];
#X text 153 61 [ms];
#X obj 682 99 inlet;
#X text 684 80 init;
#X connect 0 0 11 1;
#X connect 1 0 0 0;
#X connect 2 0 1 0;
#X connect 3 0 1 0;
#X connect 4 0 3 0;
#X connect 5 0 2 0;
#X connect 6 0 4 0;
#X connect 10 0 6 0;
#X connect 10 0 1 0;
#X connect 11 0 15 0;
#X connect 14 0 11 0;
#X connect 16 0 27 0;
#X connect 18 0 25 0;
#X connect 20 0 26 0;
#X connect 22 0 23 0;
#X connect 23 0 6 1;
#X connect 25 0 29 1;
#X connect 26 0 28 1;
#X connect 27 0 5 0;
#X connect 27 0 6 0;
#X connect 27 1 22 0;
#X connect 27 2 10 0;
#X connect 27 3 29 0;
#X connect 27 4 28 0;
#X connect 28 0 4 1;
#X connect 28 0 22 1;
#X connect 29 0 5 1;
#X connect 33 0 13 0;
#X restore 331 649 pd grain.envelope;
#N canvas 202 30 424 260 spat.ctrl 0;
#X obj 220 52 inlet;
#X obj 123 174 outlet;
#X text 218 31 deviation;
#X obj 123 49 inlet;
#X text 121 31 expectation;
#X obj 123 74 t b f;
#X obj 123 122 ../generics/gauss_distribute 0 0 0;
#X obj 313 49 inlet;
#X text 311 28 init;
#N canvas 525 135 382 330 wrap 0;
#X obj 97 42 inlet;
#X obj 107 182 outlet;
#X obj 107 156 -;
#X obj 98 66 t f f;
#X obj 126 100 i;
#X obj 71 100 moses 0;
#X obj 71 124 + 1;
#X connect 0 0 3 0;
#X connect 2 0 1 0;
#X connect 3 0 5 0;
#X connect 3 1 4 0;
#X connect 4 0 2 1;
#X connect 5 0 6 0;
#X connect 5 1 2 0;
#X connect 6 0 2 0;
#X restore 123 149 pd wrap;
#X text 226 149 should be changed to wrap (since pd-0.42);
#X connect 0 0 6 2;
#X connect 3 0 5 0;
#X connect 5 0 6 0;
#X connect 5 1 6 1;
#X connect 6 0 9 0;
#X connect 7 0 6 4;
#X connect 9 0 1 0;
#X restore 523 406 pd spat.ctrl;
#X text 581 518 -1.) temporal.cloud.density [0...MAXOL];
#X text 597 530 -2.) density.deviation [-];
#X text 616 503 OUTSIDE in granular-synthesis-cloud~;
#X text 204 234 -2.) cluster.position.deviation [sec];
#X text 187 222 -1.) rel.cluster.position in sample [0...1];
#N canvas 202 30 410 326 grain.size.ctrl 0;
#X obj 208 49 inlet;
#X obj 123 234 outlet;
#X text 206 28 deviation;
#X obj 123 49 inlet;
#X text 121 31 expectation;
#X obj 123 134 t b f;
#X obj 123 207 * 1000;
#X text 212 16 [sec];
#X text 127 17 [sec];
#X text 124 256 [ms];
#X obj 123 182 ../generics/gauss_distribute 0 0 0;
#X obj 313 49 inlet;
#X text 311 28 init;
#X connect 0 0 10 2;
#X connect 3 0 5 0;
#X connect 5 0 10 0;
#X connect 5 1 10 1;
#X connect 6 0 1 0;
#X connect 10 0 6 0;
#X connect 11 0 10 4;
#X restore 238 407 pd grain.size.ctrl;
#X text 246 425 grain.size in ms;
#N canvas 250 469 862 332 cluster.position.ctrl 0;
#X obj 208 49 inlet;
#X obj 123 272 outlet;
#X text 206 28 deviation;
#X obj 123 49 inlet;
#X text 108 30 expectation;
#X obj 123 93 t b f;
#X obj 415 187 expr size("$s1");
#X obj 415 48 inlet;
#X text 461 45 <symbol> array-name of source;
#X obj 123 208 clip 0 1;
#X obj 123 243 *;
#X obj 305 50 inlet;
#X text 303 29 nr. quants;
#X text 118 16 [0...1];
#X text 212 16 [sec];
#X obj 208 112 * 44100;
#X obj 208 140 / 88200;
#X obj 710 29 inlet;
#X text 703 6 init;
#X obj 123 176 ../generics/gauss_distribute 0 0 0;
#X obj 247 90 samplerate~;
#X obj 710 54 t b b;
#X connect 0 0 15 0;
#X connect 3 0 5 0;
#X connect 5 0 19 0;
#X connect 5 1 19 1;
#X connect 6 0 10 1;
#X connect 6 0 16 1;
#X connect 7 0 6 0;
#X connect 9 0 10 0;
#X connect 10 0 1 0;
#X connect 11 0 19 3;
#X connect 15 0 16 0;
#X connect 16 0 19 2;
#X connect 17 0 21 0;
#X connect 19 0 9 0;
#X connect 20 0 15 1;
#X connect 21 0 20 0;
#X connect 21 1 19 4;
#X restore 42 406 pd cluster.position.ctrl;
#X text 356 346 -11.) spatial.deviation [-];
#X text 339 334 -10.) rel.spatial.cloud.position [0...1];
#X text 322 320 -9.) pitch.deviation [cents];
#X text 305 308 -8.) pitch.transposition [cents];
#X text 288 296 -7.) percental.release.time of grain.time [%];
#X text 271 284 -6.) percental.attack.time of grain.time [%];
#X text 254 272 -5.) grain.size.deviation [sec];
#X text 237 260 -4.) grain.size [sec];
#X text 220 248 -3.) cluster.position.quantization [-];
#X text 661 582 -6.) grain.size [sec];
#X text 677 594 -7.) grain.size.deviation [sec];
#X text 693 606 -8.) percental.attack.time of grain.time [%];
#X text 709 618 -9.) percental.release.time of grain.time [%];
#X text 725 630 -10.) pitch.transposition [cents];
#X text 741 642 -11.) pitch.deviation [cents];
#X text 757 656 -12.) rel.spatial.cloud.position [0...1];
#X text 773 668 -13.) spatial.deviation [-];
#N canvas 591 22 757 282 transposition.ctrl 0;
#X obj 151 36 inlet;
#X obj 151 229 outlet;
#X obj 151 164 + 69;
#X obj 151 185 mtof;
#X obj 151 206 / 440;
#X obj 151 142 * 0.01;
#X obj 151 69 t b f;
#X obj 278 35 inlet;
#X text 272 14 [cents];
#X text 148 15 [cents];
#X text 148 249 [ratio];
#X floatatom 298 93 5 0 0 0 - - -;
#X obj 151 117 ../generics/gauss_distribute 0 0 0;
#X obj 397 30 inlet;
#X text 395 9 init;
#X connect 0 0 6 0;
#X connect 2 0 3 0;
#X connect 3 0 4 0;
#X connect 4 0 1 0;
#X connect 5 0 2 0;
#X connect 6 0 12 0;
#X connect 6 1 12 1;
#X connect 7 0 12 2;
#X connect 11 0 12 3;
#X connect 12 0 5 0;
#X connect 13 0 12 4;
#X restore 376 407 pd transposition.ctrl;
#X obj 238 479 *;
#X obj 238 505 * 44.1;
#X obj 238 445 t f f f;
#X text 58 422 cluster.position in smpl;
#N canvas 239 134 884 597 grain.spatialization______________ 0;
#X obj 76 53 inlet~;
#X obj 280 62 inlet;
#X msg 255 451 set \$1;
#X msg 386 454 set \$1;
#X obj 386 382 + 1;
#X text 281 42 rel.spatial.cloud.position;
#X obj 529 66 inlet;
#X text 522 43 Nr.max.ch;
#X obj 280 154 t f f;
#X obj 339 184 int;
#X obj 339 208 t f f;
#X text 35 530 n-th channel;
#X text 138 530 (n+1)-th channel;
#X obj 44 425 *~ 0;
#X obj 133 427 *~ 0;
#X obj 152 278 expr atan(1);
#X obj 152 304 * 2;
#X obj 104 325 * 1.57;
#X obj 155 381 sin;
#X obj 65 374 cos;
#X obj 104 349 t f f;
#X obj 65 396 clip 0 1;
#X obj 155 404 clip 0 1;
#X obj 536 211 max 1;
#X obj 280 119 * 1;
#X obj 41 511 throw~ \$2-0;
#X obj 130 512 throw~ \$2-0;
#X obj 255 429 makefilename \$2-%d;
#X obj 386 430 makefilename \$2-%d;
#X obj 536 187 f \$3;
#X obj 255 408 mod \$3;
#X obj 386 407 mod \$3;
#X obj 653 65 inlet;
#X text 655 42 init;
#X obj 653 90 t b b;
#N canvas 525 135 382 330 wrap 0;
#X obj 97 42 inlet;
#X obj 107 182 outlet;
#X obj 107 156 -;
#X obj 98 66 t f f;
#X obj 126 100 i;
#X obj 71 100 moses 0;
#X obj 71 124 + 1;
#X connect 0 0 3 0;
#X connect 2 0 1 0;
#X connect 3 0 5 0;
#X connect 3 1 4 0;
#X connect 4 0 2 1;
#X connect 5 0 6 0;
#X connect 5 1 2 0;
#X connect 6 0 2 0;
#X restore 280 89 pd wrap;
#X text 375 88 should be changed to wrap (since pd-0.42);
#N canvas 525 135 382 330 wrap 0;
#X obj 97 42 inlet;
#X obj 107 182 outlet;
#X obj 107 156 -;
#X obj 98 66 t f f;
#X obj 126 100 i;
#X obj 71 100 moses 0;
#X obj 71 124 + 1;
#X connect 0 0 3 0;
#X connect 2 0 1 0;
#X connect 3 0 5 0;
#X connect 3 1 4 0;
#X connect 4 0 2 1;
#X connect 5 0 6 0;
#X connect 5 1 2 0;
#X connect 6 0 2 0;
#X restore 131 243 pd wrap;
#X text 234 243 should be changed to wrap (since pd-0.42);
#X connect 0 0 13 0;
#X connect 0 0 14 0;
#X connect 1 0 35 0;
#X connect 2 0 25 0;
#X connect 3 0 26 0;
#X connect 4 0 31 0;
#X connect 6 0 29 0;
#X connect 6 0 30 1;
#X connect 6 0 31 1;
#X connect 8 0 37 0;
#X connect 8 1 9 0;
#X connect 9 0 10 0;
#X connect 10 0 30 0;
#X connect 10 1 4 0;
#X connect 13 0 25 0;
#X connect 14 0 26 0;
#X connect 15 0 16 0;
#X connect 16 0 17 1;
#X connect 17 0 20 0;
#X connect 18 0 22 0;
#X connect 19 0 21 0;
#X connect 20 0 19 0;
#X connect 20 1 18 0;
#X connect 21 0 13 1;
#X connect 22 0 14 1;
#X connect 23 0 24 1;
#X connect 24 0 8 0;
#X connect 27 0 2 0;
#X connect 28 0 3 0;
#X connect 29 0 23 0;
#X connect 30 0 27 0;
#X connect 31 0 28 0;
#X connect 32 0 34 0;
#X connect 34 0 29 0;
#X connect 34 1 15 0;
#X connect 35 0 24 0;
#X connect 37 0 17 0;
#X restore 239 679 pd grain.spatialization______________;
#X text 648 569 -5.) cluster.position.quantization [-];
#X text 613 544 -3.) rel.cluster.position in sample [0...1];
#X text 629 556 -4.) cluster.position.deviation [sec];
#X text 695 434 1.arg: <sym> source-sample-table-name;
#X text 695 458 3.arg: <int> max. number of output channels = loadspeakers
;
#X text 695 446 2.arg: <sym> throw-object-trunk-name for output channels
;
#X text 479 107 init;
#X obj 243 54 route list bang init;
#X obj 414 47 inlet;
#X text 416 29 init-bang;
#X obj 393 443 samplerate~;
#X obj 393 468 * 0.001;
#X obj 409 108 t b b b b;
#X text 1023 600 ??? <int> max. number of grains played at the same
time;
#X text 503 68 this loadbang message will be generated manually from
outside;
#X text 367 360 -12.) playback table index [1...5];
#X obj 188 202 unpack 0 0 0 0 0 0 0 0 0 0 0 0;
#X obj 640 310 makefilename \$1-%d;
#X msg 640 211 1;
#X obj 640 249 f;
#X obj 238 626 tabread4~ \$1-1;
#X connect 0 0 61 0;
#X connect 1 0 0 0;
#X connect 2 0 1 0;
#X connect 3 0 2 0;
#X connect 4 0 48 0;
#X connect 5 0 61 0;
#X connect 8 0 40 0;
#X connect 9 0 40 1;
#X connect 15 0 38 0;
#X connect 17 0 0 1;
#X connect 35 0 36 1;
#X connect 36 0 37 0;
#X connect 37 0 3 0;
#X connect 38 0 36 0;
#X connect 38 1 3 1;
#X connect 38 2 8 1;
#X connect 48 0 57 0;
#X connect 48 1 60 0;
#X connect 48 2 53 0;
#X connect 49 0 53 0;
#X connect 51 0 52 0;
#X connect 52 0 37 1;
#X connect 53 0 8 4;
#X connect 53 0 40 3;
#X connect 53 0 15 2;
#X connect 53 0 35 2;
#X connect 53 0 9 2;
#X connect 53 0 17 4;
#X connect 53 3 51 0;
#X connect 53 3 59 0;
#X connect 57 0 17 0;
#X connect 57 1 17 1;
#X connect 57 2 17 2;
#X connect 57 3 15 0;
#X connect 57 4 15 1;
#X connect 57 5 8 2;
#X connect 57 6 8 3;
#X connect 57 7 35 0;
#X connect 57 8 35 1;
#X connect 57 9 9 0;
#X connect 57 10 9 1;
#X connect 57 11 60 0;
#X connect 58 0 5 0;
#X connect 58 0 17 3;
#X connect 59 0 60 0;
#X connect 60 0 58 0;
#X connect 61 0 8 0;
