#N canvas 52 22 983 686 10;
#X obj 510 39 inlet;
#X obj 28 41 inlet~;
#X obj 182 658 outlet~;
#X obj 259 41 inlet;
#X obj 630 645 outlet;
#X text 253 25 init-bang;
#X text 510 23 route parameters;
#X text 626 664 rejected parameters;
#X text 26 25 from pre-processor;
#X text 27 699 to post-processor;
#X obj 504 644 outlet;
#X text 493 679 init-bang;
#X text 254 13 from prev.;
#X text 500 665 to next;
#X obj 49 69 noise~;
#X obj 49 90 *~ 1e-14;
#X text 110 70 dithering-noise against denormal floatingpoint numbers
(SSE2-Register);
#X obj 259 93 t b b;
#X text 724 80 transp in cents <int> (-2400 <= 2400 );
#X text 883 102 wsize ms <int> (n >= 1);
#X obj 297 605 *~;
#X obj 26 277 mtof;
#X obj 182 590 *~;
#X obj 182 623 +~;
#X obj 210 435 phasor~;
#X obj 210 413 line~;
#X obj 477 440 wrap~;
#X obj 477 417 +~ 0.5;
#X obj 477 470 *~ 512;
#X obj 477 493 +~ 1;
#X obj 195 482 *~ 512;
#X obj 195 505 +~ 1;
#X text 69 232 cents to midi;
#X text 63 275 midi to freq.;
#X obj 26 231 * 0.01;
#X obj 26 254 + 69;
#X text 60 256 "a1" in midi;
#X text 35 318 "a1" in Hz;
#X obj 26 299 - 440;
#X obj 210 347 * 1;
#X obj 236 300 /;
#X obj 218 194 t b b f;
#X obj 477 515 tabread4~ \$0_win;
#X obj 195 545 tabread4~ \$0_win;
#X obj 182 568 vd~ \$0_harmdel;
#X obj 297 585 vd~ \$0_harmdel;
#X obj 210 391 pack 1.3e-05 50;
#X text 1081 113 delay ms <int> (n >= 1);
#X obj 210 368 clip -4000 4000;
#X obj 509 67 route pitch windowSize;
#X floatatom 23 346 5 0 0 0 - - -;
#X floatatom 166 361 5 0 0 0 - - -;
#X floatatom 156 393 5 0 0 0 - - -;
#X obj 224 278 /;
#X floatatom 380 146 5 0 0 0 - - -;
#X floatatom 31 175 5 0 0 0 - - -;
#X floatatom 310 321 5 0 0 0 - - -;
#X msg 777 222 \; \$1 0 -0.00308228 0 0.00308228 0.00619507 0.0093689
0.0125427 0.0157776 0.0190735 0.0223694 0.0257263 0.0291138 0.0325317
0.0359802 0.0394592 0.0429993 0.0465698 0.0501709 0.0538025 0.0574646
0.0611572 0.0649109 0.0686951 0.0724792 0.0763245 0.0802002 0.0841064
0.0880432 0.092041 0.0960388 0.100067 0.104156 0.108246 0.112396 0.116547
0.120758 0.124969 0.129242 0.133545 0.137848 0.142212 0.146576 0.151001
0.155426 0.159882 0.164398 0.168915 0.173462 0.17804 0.182617 0.187256
0.191895 0.196594 0.201294 0.206024 0.210785 0.215546 0.220337 0.225159
0.230011 0.234894 0.239777 0.24469 0.249634 0.254578 0.259552 0.264526
0.269562 0.274597 0.279633 0.284698 0.289795 0.294891 0.300018 0.305145
0.310303 0.31546 0.320648 0.325867 0.331055 0.336304 0.341522 0.346771
0.352051 0.35733 0.36261 0.367889 0.373199 0.37851 0.38385 0.38916
0.394501 0.399872 0.405212 0.410583 0.415955 0.421326 0.426697 0.432098
0.437469 0.442871 0.448242 0.453644 0.459045 0.464447 0.469849 0.47525
0.480652 0.486053 0.491455 0.496826 0.502228 0.507629 0.513 0.518402
0.523773 0.529144 0.534515 0.539886 0.545227 0.550568 0.555908 0.561249
0.566559 0.571869 0.577179 0.582458 0.587738 0.593018 0.598267 0.603516
0.608765 0.613953 0.619171 0.624359 0.629517 0.634674 0.639832 0.644958
0.650055 0.655121 0.660217 0.665253 0.670288 0.675293 0.680267 0.685242
0.690186 0.695099 0.700012 0.704895 0.709747 0.714569 0.71936 0.724152
0.728882 0.733612 0.738312 0.742981 0.74762 0.752228 0.756805 0.761353
0.7659 0.770386 0.774841 0.779266 0.783661 0.788055 0.792358 0.796661
0.800934 0.805176 0.809357 0.813538 0.817657 0.821747 0.825806 0.829803
0.833801 0.837738 0.841644 0.84549 0.849304 0.853088 0.856842 0.860565
0.864227 0.867828 0.871429 0.874939 0.878448 0.881897 0.885315 0.888672
0.891998 0.895264 0.898499 0.901703 0.904846 0.907928 0.91098 0.913971
0.916931 0.919861 0.922699 0.925537 0.928284 0.931 0.933685 0.936279
0.938873 0.941376 0.943848 0.946289 0.948639 0.950958 0.953247 0.955444
0.957611 0.959717 0.961792 0.963806 0.965759 0.967651 0.969513 0.971313
0.973053 0.974762 0.976379 0.977966 0.979523 0.980988 0.982422 0.983765
0.985077 0.986359 0.987549 0.988708 0.989807 0.990845 0.991821 0.992737
0.993622 0.994415 0.995178 0.99588 0.996552 0.997131 0.997681 0.998138
0.998566 0.998932 0.999237 0.999512 0.999695 0.999847 0.999939 0.999939
0.999939 0.999847 0.999695 0.999512 0.999237 0.998932 0.998566 0.998138
0.997681 0.997131 0.996552 0.99588 0.995178 0.994415 0.993622 0.992737
0.991821 0.990845 0.989807 0.988708 0.987549 0.986359 0.985077 0.983765
0.982422 0.980988 0.979523 0.977966 0.97641 0.974762 0.973053 0.971313
0.969513 0.967682 0.965759 0.963806 0.961792 0.959717 0.957611 0.955444
0.953247 0.950958 0.948639 0.946289 0.943848 0.941376 0.938873 0.936279
0.933685 0.931 0.928284 0.925537 0.922699 0.919861 0.916931 0.913971
0.91098 0.907928 0.904846 0.901703 0.898499 0.895264 0.891998 0.888672
0.885315 0.881897 0.878448 0.874939 0.871429 0.867828 0.864227 0.860565
0.856842 0.853119 0.849335 0.84549 0.841644 0.837738 0.833801 0.829803
0.825806 0.821747 0.817657 0.813538 0.809357 0.805176 0.800934 0.796661
0.792389 0.788055 0.783691 0.779266 0.774841 0.770386 0.7659 0.761383
0.756805 0.752228 0.74762 0.742981 0.738312 0.733612 0.728882 0.724152
0.71936 0.714569 0.709747 0.704895 0.700012 0.695099 0.690186 0.685242
0.680267 0.675293 0.670288 0.665253 0.660217 0.655151 0.650055 0.644958
0.639832 0.634674 0.629517 0.624359 0.619171 0.613983 0.608765 0.603516
0.598267 0.593018 0.587738 0.582458 0.577179 0.571869 0.566559 0.561249
0.555908 0.550568 0.545227 0.539886 0.534515 0.529144 0.523773 0.518402
0.513 0.507629 0.502228 0.496857 0.491455 0.486053 0.480652 0.47525
0.469849 0.464447 0.459045 0.453644 0.448273 0.442871 0.437469 0.432098
0.426697 0.421326 0.415955 0.410583 0.405212 0.399872 0.394531 0.389191
0.38385 0.37851 0.373199 0.367889 0.36261 0.35733 0.352051 0.346771
0.341522 0.336304 0.331055 0.325867 0.320648 0.315491 0.310303 0.305145
0.300018 0.294891 0.289795 0.284698 0.279633 0.274597 0.269562 0.264557
0.259552 0.254578 0.249634 0.24469 0.239777 0.234894 0.230011 0.225159
0.220337 0.215546 0.210785 0.206024 0.201294 0.196594 0.191895 0.187256
0.182617 0.17804 0.173462 0.168915 0.164398 0.159882 0.155426 0.151001
0.146576 0.142212 0.137848 0.133545 0.129242 0.125 0.120758 0.116547
0.112396 0.108246 0.104156 0.100067 0.0960388 0.092041 0.0880432 0.0841064
0.0802002 0.0763245 0.0724792 0.0686951 0.0649109 0.0611572 0.0574646
0.0538025 0.0501709 0.0465698 0.0429993 0.0394592 0.0359802 0.0325317
0.0291138 0.0257263 0.0223694 0.0190735 0.0158081 0.0125427 0.0093689
0.00619507 0.00308228 -0.00619507 -0.0093689;
#X obj 777 196 symbol \$0_win;
#X obj 792 170 bng 15 250 50 0 empty empty empty 17 7 0 10 -262144
-1 -1;
#X obj 816 170 table \$0_win 515;
#X obj 533 128 * 1000;
#X obj 296 508 +~ 2;
#X obj 16 519 +~ 2;
#X obj 28 113 delwrite~ \$0_harmdel 4000;
#X obj 534 103 clip 0.001 2;
#X msg 224 256 -1000 440;
#X obj 26 206 clip -2400 2400;
#X floatatom 141 217 5 0 0 0 - - -;
#X floatatom 528 199 5 0 0 0 - - -;
#X floatatom 404 271 0 0 0 0 - - -;
#X floatatom 90 381 5 0 0 0 - - -;
#X obj 296 484 ../generics/line_mul~ 50 50;
#X obj 16 487 ../generics/line_mul~ 50 50;
#X text 691 21 !!!!!!!! not yet ready !!!!!!!;
#X connect 0 0 49 0;
#X connect 1 0 64 0;
#X connect 3 0 17 0;
#X connect 14 0 15 0;
#X connect 15 0 64 0;
#X connect 17 0 10 0;
#X connect 17 1 58 0;
#X connect 20 0 23 1;
#X connect 21 0 38 0;
#X connect 22 0 23 0;
#X connect 23 0 2 0;
#X connect 24 0 27 0;
#X connect 24 0 30 0;
#X connect 24 0 73 0;
#X connect 25 0 24 0;
#X connect 26 0 28 0;
#X connect 26 0 72 0;
#X connect 27 0 26 0;
#X connect 28 0 29 0;
#X connect 29 0 42 0;
#X connect 30 0 31 0;
#X connect 31 0 43 0;
#X connect 34 0 35 0;
#X connect 34 0 68 0;
#X connect 35 0 21 0;
#X connect 38 0 39 0;
#X connect 38 0 50 0;
#X connect 39 0 48 0;
#X connect 39 0 51 0;
#X connect 40 0 56 0;
#X connect 40 0 39 1;
#X connect 41 0 39 0;
#X connect 41 1 66 0;
#X connect 41 2 40 1;
#X connect 42 0 20 1;
#X connect 43 0 22 1;
#X connect 44 0 22 0;
#X connect 45 0 20 0;
#X connect 46 0 25 0;
#X connect 48 0 46 0;
#X connect 48 0 52 0;
#X connect 49 0 67 0;
#X connect 49 1 65 0;
#X connect 49 2 4 0;
#X connect 53 0 40 0;
#X connect 53 0 70 0;
#X connect 54 0 65 0;
#X connect 55 0 67 0;
#X connect 58 0 57 0;
#X connect 59 0 58 0;
#X connect 61 0 41 0;
#X connect 61 0 69 0;
#X connect 61 0 72 1;
#X connect 61 0 73 1;
#X connect 62 0 45 0;
#X connect 63 0 44 0;
#X connect 65 0 61 0;
#X connect 66 0 53 0;
#X connect 67 0 34 0;
#X connect 71 0 46 0;
#X connect 72 0 62 0;
#X connect 73 0 63 0;
