#N canvas 58 56 416 408 10;
#X obj 79 327 biquad~;
#X obj 147 53 inlet;
#X text 149 35 freq;
#X obj 257 53 inlet;
#X text 259 35 Q;
#X obj 147 127 expr $f1*$f1+1 \; $f1*$f2;
#X text 126 152 l2;
#X text 257 155 al;
#X obj 159 164 expr $f1 \; $f2 \; 1/($f1+$f2);
#X text 122 206 l2;
#X text 208 206 al;
#X text 277 206 rcp;
#X obj 80 53 inlet~;
#X obj 79 348 outlet~;
#X obj 147 297 pack 0 0 0 0 0;
#X obj 136 222 expr 2*$f3*($f1-2) \; $f3*($f2-$f1) \; $f3*($f1-1) \;
-2*$f3*($f1-1) \; $f3*($f1-1);
#X text 349 94 l a;
#X obj 147 95 ../generics/fq_transform \$1 \$2;
#X text 28 18 high_pass_2p~ : high-pass filter;
#X obj 328 55 inlet;
#X text 330 37 init-bang;
#X connect 0 0 13 0;
#X connect 1 0 17 0;
#X connect 3 0 17 1;
#X connect 5 0 8 0;
#X connect 5 1 8 1;
#X connect 8 0 15 0;
#X connect 8 1 15 1;
#X connect 8 2 15 2;
#X connect 12 0 0 0;
#X connect 14 0 0 0;
#X connect 15 0 14 0;
#X connect 15 1 14 1;
#X connect 15 2 14 2;
#X connect 15 3 14 3;
#X connect 15 4 14 4;
#X connect 17 0 5 0;
#X connect 19 0 17 2;
