#N canvas 91 45 1286 803 10;
#X obj 145 63 inlet;
#X obj 332 66 inlet;
#X text 139 46 init-bang;
#X obj 32 59 inlet~;
#X obj 319 739 outlet~;
#X obj 709 745 outlet;
#X text 32 38 sig in;
#X text 318 46 parameter in;
#X text 705 769 rejected para out;
#X obj 853 738 outlet;
#X text 849 762 outgoing messages;
#X obj 237 62 inlet;
#X text 231 45 fini-bang;
#X text 318 765 sig out1;
#X obj 400 741 outlet~;
#X obj 481 742 outlet~;
#X obj 562 744 outlet~;
#X text 400 767 sig out2;
#X text 481 768 sig out3;
#X text 563 770 sig out4;
#N canvas 30 26 1210 658 play_file_1 0;
#X obj 91 27 inlet;
#X obj 88 561 outlet~;
#X obj 1078 36 inlet;
#X text 1077 14 init-bang;
#X obj 424 497 outlet;
#X obj 88 532 ../generics/line_mul~ 0 100;
#X obj 880 41 inlet;
#X obj 918 460 outlet;
#X obj 76 474 readsf~ 1;
#X msg 60 394 1;
#X msg 108 394 0;
#X text 131 28 play-cmd 0/1;
#X obj 266 28 inlet;
#X text 306 29 fade_in_time_in_ms;
#X obj 459 26 inlet;
#X text 499 27 fade_out_time_in_ms;
#X text 16 11 player_1;
#X obj 660 28 inlet;
#X text 700 29 pause_0/1;
#X msg 201 353 1;
#X obj 90 71 sel 1 0;
#X obj 97 315 pack 1 50;
#X msg 98 292 1;
#X msg 167 291 0;
#X obj 255 315 del 50;
#X text 15 28 !!!!!!!!!!;
#X text 229 353 !!!!!!!!!!;
#X obj 671 137 switch~;
#X msg 667 111 1;
#X msg 700 111 0;
#X obj 661 53 sel 1 0;
#X obj 700 89 del 20;
#X text 879 19 rec cmd 0/1;
#X obj 881 67 sel 1;
#X text 917 481 time;
#X obj 936 209 &&;
#X obj 44 442 t f;
#X obj 726 137 t b f;
#X obj 936 232 change -1;
#X text 422 520 play state;
#X obj 42 245 del 20;
#X obj 63 94 t b;
#X msg 146 99 stop;
#X msg 262 286 stop;
#X msg 599 72 stop;
#X msg 492 289 1 20;
#X msg 538 287 0 20;
#X obj 538 227 f 0;
#X obj 494 229 f 0;
#X obj 538 260 sel 1;
#X obj 492 263 sel 1;
#X text 565 227 readsf state;
#X obj 841 222 t f f;
#X obj 918 400 ../generics/counter 1e+09;
#X obj 34 149 del 50;
#X obj 80 149 + 2;
#X msg 881 94 0;
#X obj 166 314 pack 0 50;
#X obj 460 103 t f;
#X obj 140 341 t l;
#X text 31 268 1;
#X text 260 335 0;
#X obj 267 93 t f;
#X obj 923 62 print rec_cmd_1;
#X obj 961 153 print pause_cmd_1;
#X obj 918 423 * 0.1;
#X obj 918 378 metro 100;
#X obj 167 52 print play1_cmd;
#X obj 960 265 print play1_state;
#X msg 867 420 0;
#X obj 867 246 sel 1;
#X obj 43 593 print rsf1_state;
#X obj 43 217 del 20;
#X obj 200 397 ../generics/tempdir;
#X obj 201 443 pack s s;
#X obj 201 375 t b f;
#X obj 232 418 makefilename lichtweiss_\$1_temp_%d.wav;
#X msg 201 464 open \$1/\$2;
#X connect 0 0 20 0;
#X connect 2 0 5 3;
#X connect 5 0 1 0;
#X connect 6 0 33 0;
#X connect 8 0 5 0;
#X connect 8 1 46 0;
#X connect 8 1 10 0;
#X connect 9 0 8 0;
#X connect 9 0 36 0;
#X connect 10 0 8 0;
#X connect 10 0 36 0;
#X connect 12 0 62 0;
#X connect 14 0 58 0;
#X connect 17 0 30 0;
#X connect 19 0 75 0;
#X connect 20 0 41 0;
#X connect 20 1 23 0;
#X connect 20 1 24 0;
#X connect 20 1 42 0;
#X connect 21 0 59 0;
#X connect 22 0 21 0;
#X connect 23 0 57 0;
#X connect 24 0 10 0;
#X connect 28 0 27 0;
#X connect 28 0 37 0;
#X connect 29 0 27 0;
#X connect 29 0 37 0;
#X connect 30 0 28 0;
#X connect 30 0 44 0;
#X connect 30 0 48 0;
#X connect 30 1 31 0;
#X connect 30 1 47 0;
#X connect 31 0 29 0;
#X connect 33 0 56 0;
#X connect 35 0 38 0;
#X connect 36 0 48 1;
#X connect 36 0 47 1;
#X connect 36 0 52 0;
#X connect 37 0 35 0;
#X connect 37 1 35 1;
#X connect 38 0 4 0;
#X connect 38 0 66 0;
#X connect 40 0 9 0;
#X connect 40 0 22 0;
#X connect 41 0 43 0;
#X connect 41 0 54 0;
#X connect 41 0 23 0;
#X connect 42 0 40 0;
#X connect 42 0 54 0;
#X connect 42 0 72 0;
#X connect 43 0 24 0;
#X connect 44 0 31 0;
#X connect 45 0 5 1;
#X connect 46 0 5 1;
#X connect 47 0 49 0;
#X connect 48 0 50 0;
#X connect 49 0 46 0;
#X connect 50 0 45 0;
#X connect 52 0 35 0;
#X connect 52 1 70 0;
#X connect 53 0 65 0;
#X connect 54 0 72 0;
#X connect 54 0 10 0;
#X connect 55 0 54 1;
#X connect 56 0 20 0;
#X connect 57 0 59 0;
#X connect 58 0 24 1;
#X connect 58 0 57 1;
#X connect 58 0 55 0;
#X connect 59 0 5 1;
#X connect 62 0 21 1;
#X connect 65 0 7 0;
#X connect 66 0 53 0;
#X connect 69 0 7 0;
#X connect 70 0 53 2;
#X connect 70 0 69 0;
#X connect 72 0 40 0;
#X connect 72 0 19 0;
#X connect 73 0 74 0;
#X connect 74 0 77 0;
#X connect 75 0 73 0;
#X connect 75 1 76 0;
#X connect 76 0 74 1;
#X connect 77 0 8 0;
#X restore 317 309 pd play_file_1;
#X obj 319 715 +~;
#X obj 334 693 +~;
#X obj 349 670 +~;
#X obj 400 715 +~;
#X obj 415 693 +~;
#X obj 430 670 +~;
#X obj 481 715 +~;
#X obj 496 693 +~;
#X obj 511 670 +~;
#X obj 562 715 +~;
#X obj 577 693 +~;
#X obj 592 670 +~;
#N canvas 137 22 1070 407 spat_1->4_4___________________________ 0
;
#X obj 50 376 outlet~;
#X obj 112 378 outlet~;
#X obj 173 379 outlet~;
#X obj 235 381 outlet~;
#X obj 48 24 inlet~;
#X obj 149 87 ../generics/urn 4;
#X obj 623 152 ../generics/urn 3;
#X obj 623 173 sel 0 1 2;
#X msg 620 199 5;
#X msg 655 199 7;
#X msg 690 198 11;
#X obj 621 223 * 1000;
#X text 652 21 init;
#X obj 595 285 del 1000;
#X obj 621 115 del 100;
#X msg 402 107 0;
#X obj 148 111 sel 0 1 2 3;
#X msg 72 139 1;
#X msg 167 140 1;
#X msg 256 149 1;
#X msg 345 149 1;
#X obj 235 354 ../generics/line_mul~ 0 20;
#X obj 173 327 ../generics/line_mul~ 0 20;
#X obj 113 296 ../generics/line_mul~ 0 20;
#X obj 50 264 ../generics/line_mul~ 0 20;
#X obj 69 196 line 0 20;
#X obj 70 173 pack 0 1000;
#X obj 165 197 line 0 20;
#X obj 166 174 pack 0 1000;
#X obj 255 199 line 0 20;
#X obj 256 176 pack 0 1000;
#X obj 343 199 line 0 20;
#X obj 344 176 pack 0 1000;
#X obj 526 35 inlet;
#X text 525 18 fini;
#X obj 524 63 t b;
#X msg 524 84 stop;
#X floatatom 667 269 9 0 0 0 - - -;
#X obj 303 48 t b b b b;
#X obj 70 240 sin;
#X obj 895 99 expr 2*atan(1);
#X obj 69 218 * 1.57;
#X obj 166 242 sin;
#X obj 165 220 * 1.57;
#X obj 257 246 sin;
#X obj 256 224 * 1.57;
#X obj 346 249 sin;
#X obj 345 227 * 1.57;
#X floatatom 256 114 5 0 0 0 - - -;
#X obj 648 79 t b;
#X obj 650 36 inlet;
#X obj 650 58 t b b;
#X msg 738 58 seed 24;
#X msg 168 51 seed 34;
#X connect 4 0 21 0;
#X connect 4 0 22 0;
#X connect 4 0 23 0;
#X connect 4 0 24 0;
#X connect 5 0 16 0;
#X connect 5 0 48 0;
#X connect 6 0 7 0;
#X connect 7 0 8 0;
#X connect 7 1 9 0;
#X connect 7 2 10 0;
#X connect 8 0 11 0;
#X connect 9 0 11 0;
#X connect 10 0 11 0;
#X connect 11 0 13 1;
#X connect 11 0 26 1;
#X connect 11 0 32 1;
#X connect 11 0 30 1;
#X connect 11 0 28 1;
#X connect 11 0 37 0;
#X connect 13 0 38 0;
#X connect 14 0 13 0;
#X connect 15 0 32 0;
#X connect 15 0 30 0;
#X connect 15 0 28 0;
#X connect 15 0 26 0;
#X connect 16 0 17 0;
#X connect 16 1 18 0;
#X connect 16 2 19 0;
#X connect 16 3 20 0;
#X connect 17 0 26 0;
#X connect 18 0 28 0;
#X connect 19 0 30 0;
#X connect 20 0 32 0;
#X connect 21 0 3 0;
#X connect 22 0 2 0;
#X connect 23 0 1 0;
#X connect 24 0 0 0;
#X connect 25 0 41 0;
#X connect 26 0 25 0;
#X connect 27 0 43 0;
#X connect 28 0 27 0;
#X connect 29 0 45 0;
#X connect 30 0 29 0;
#X connect 31 0 47 0;
#X connect 32 0 31 0;
#X connect 33 0 35 0;
#X connect 35 0 36 0;
#X connect 36 0 14 0;
#X connect 36 0 13 0;
#X connect 36 0 31 0;
#X connect 36 0 29 0;
#X connect 36 0 27 0;
#X connect 36 0 25 0;
#X connect 38 0 13 0;
#X connect 38 1 5 0;
#X connect 38 2 15 0;
#X connect 38 3 6 0;
#X connect 39 0 24 1;
#X connect 40 0 41 1;
#X connect 40 0 43 1;
#X connect 40 0 45 1;
#X connect 40 0 47 1;
#X connect 41 0 39 0;
#X connect 42 0 23 1;
#X connect 43 0 42 0;
#X connect 44 0 22 1;
#X connect 45 0 44 0;
#X connect 46 0 21 1;
#X connect 47 0 46 0;
#X connect 49 0 5 2;
#X connect 49 0 6 2;
#X connect 49 0 14 0;
#X connect 49 0 21 3;
#X connect 49 0 22 3;
#X connect 49 0 23 3;
#X connect 49 0 24 3;
#X connect 49 0 40 0;
#X connect 50 0 51 0;
#X connect 51 0 52 0;
#X connect 51 0 53 0;
#X connect 51 1 49 0;
#X connect 52 0 6 0;
#X connect 53 0 5 0;
#X restore 364 597 pd spat_1->4_4___________________________;
#N canvas 137 22 1070 407 spat_1->4_3___________________________ 0
;
#X obj 50 376 outlet~;
#X obj 112 378 outlet~;
#X obj 173 379 outlet~;
#X obj 235 381 outlet~;
#X obj 48 24 inlet~;
#X obj 149 87 ../generics/urn 4;
#X obj 623 152 ../generics/urn 3;
#X obj 623 173 sel 0 1 2;
#X msg 620 199 5;
#X msg 655 199 7;
#X msg 690 198 11;
#X obj 621 223 * 1000;
#X text 652 21 init;
#X obj 595 285 del 1000;
#X obj 621 115 del 100;
#X msg 402 107 0;
#X obj 148 111 sel 0 1 2 3;
#X msg 72 139 1;
#X msg 167 140 1;
#X msg 256 149 1;
#X msg 345 149 1;
#X obj 235 354 ../generics/line_mul~ 0 20;
#X obj 173 327 ../generics/line_mul~ 0 20;
#X obj 113 296 ../generics/line_mul~ 0 20;
#X obj 50 264 ../generics/line_mul~ 0 20;
#X obj 69 196 line 0 20;
#X obj 70 173 pack 0 1000;
#X obj 165 197 line 0 20;
#X obj 166 174 pack 0 1000;
#X obj 255 199 line 0 20;
#X obj 256 176 pack 0 1000;
#X obj 343 199 line 0 20;
#X obj 344 176 pack 0 1000;
#X obj 526 35 inlet;
#X text 525 18 fini;
#X obj 524 63 t b;
#X msg 524 84 stop;
#X floatatom 667 269 9 0 0 0 - - -;
#X obj 303 48 t b b b b;
#X obj 70 240 sin;
#X obj 895 99 expr 2*atan(1);
#X obj 69 218 * 1.57;
#X obj 166 242 sin;
#X obj 165 220 * 1.57;
#X obj 257 246 sin;
#X obj 256 224 * 1.57;
#X obj 346 249 sin;
#X obj 345 227 * 1.57;
#X floatatom 256 114 5 0 0 0 - - -;
#X obj 665 84 t b;
#X obj 653 39 inlet;
#X obj 653 61 t b b;
#X msg 741 62 seed 23;
#X msg 171 54 seed 33;
#X connect 4 0 21 0;
#X connect 4 0 22 0;
#X connect 4 0 23 0;
#X connect 4 0 24 0;
#X connect 5 0 16 0;
#X connect 5 0 48 0;
#X connect 6 0 7 0;
#X connect 7 0 8 0;
#X connect 7 1 9 0;
#X connect 7 2 10 0;
#X connect 8 0 11 0;
#X connect 9 0 11 0;
#X connect 10 0 11 0;
#X connect 11 0 13 1;
#X connect 11 0 26 1;
#X connect 11 0 32 1;
#X connect 11 0 30 1;
#X connect 11 0 28 1;
#X connect 11 0 37 0;
#X connect 13 0 38 0;
#X connect 14 0 13 0;
#X connect 15 0 32 0;
#X connect 15 0 30 0;
#X connect 15 0 28 0;
#X connect 15 0 26 0;
#X connect 16 0 17 0;
#X connect 16 1 18 0;
#X connect 16 2 19 0;
#X connect 16 3 20 0;
#X connect 17 0 26 0;
#X connect 18 0 28 0;
#X connect 19 0 30 0;
#X connect 20 0 32 0;
#X connect 21 0 3 0;
#X connect 22 0 2 0;
#X connect 23 0 1 0;
#X connect 24 0 0 0;
#X connect 25 0 41 0;
#X connect 26 0 25 0;
#X connect 27 0 43 0;
#X connect 28 0 27 0;
#X connect 29 0 45 0;
#X connect 30 0 29 0;
#X connect 31 0 47 0;
#X connect 32 0 31 0;
#X connect 33 0 35 0;
#X connect 35 0 36 0;
#X connect 36 0 14 0;
#X connect 36 0 13 0;
#X connect 36 0 31 0;
#X connect 36 0 29 0;
#X connect 36 0 27 0;
#X connect 36 0 25 0;
#X connect 38 0 13 0;
#X connect 38 1 5 0;
#X connect 38 2 15 0;
#X connect 38 3 6 0;
#X connect 39 0 24 1;
#X connect 40 0 41 1;
#X connect 40 0 43 1;
#X connect 40 0 45 1;
#X connect 40 0 47 1;
#X connect 41 0 39 0;
#X connect 42 0 23 1;
#X connect 43 0 42 0;
#X connect 44 0 22 1;
#X connect 45 0 44 0;
#X connect 46 0 21 1;
#X connect 47 0 46 0;
#X connect 49 0 5 2;
#X connect 49 0 6 2;
#X connect 49 0 14 0;
#X connect 49 0 21 3;
#X connect 49 0 22 3;
#X connect 49 0 23 3;
#X connect 49 0 24 3;
#X connect 49 0 40 0;
#X connect 50 0 51 0;
#X connect 51 0 52 0;
#X connect 51 0 53 0;
#X connect 51 1 49 0;
#X connect 52 0 6 0;
#X connect 53 0 5 0;
#X restore 348 574 pd spat_1->4_3___________________________;
#N canvas 137 22 1070 407 spat_1->4_2___________________________ 0
;
#X obj 50 376 outlet~;
#X obj 112 378 outlet~;
#X obj 173 379 outlet~;
#X obj 235 381 outlet~;
#X obj 48 24 inlet~;
#X obj 149 87 ../generics/urn 4;
#X obj 623 152 ../generics/urn 3;
#X obj 623 173 sel 0 1 2;
#X msg 620 199 5;
#X msg 655 199 7;
#X msg 690 198 11;
#X obj 621 223 * 1000;
#X text 652 21 init;
#X obj 595 285 del 1000;
#X obj 621 115 del 100;
#X msg 402 107 0;
#X obj 148 111 sel 0 1 2 3;
#X msg 72 139 1;
#X msg 167 140 1;
#X msg 256 149 1;
#X msg 345 149 1;
#X obj 235 354 ../generics/line_mul~ 0 20;
#X obj 173 327 ../generics/line_mul~ 0 20;
#X obj 113 296 ../generics/line_mul~ 0 20;
#X obj 50 264 ../generics/line_mul~ 0 20;
#X obj 69 196 line 0 20;
#X obj 70 173 pack 0 1000;
#X obj 165 197 line 0 20;
#X obj 166 174 pack 0 1000;
#X obj 255 199 line 0 20;
#X obj 256 176 pack 0 1000;
#X obj 343 199 line 0 20;
#X obj 344 176 pack 0 1000;
#X obj 526 35 inlet;
#X text 525 18 fini;
#X obj 524 63 t b;
#X msg 524 84 stop;
#X floatatom 667 269 9 0 0 0 - - -;
#X obj 303 48 t b b b b;
#X obj 70 240 sin;
#X obj 895 99 expr 2*atan(1);
#X obj 69 218 * 1.57;
#X obj 166 242 sin;
#X obj 165 220 * 1.57;
#X obj 257 246 sin;
#X obj 256 224 * 1.57;
#X obj 346 249 sin;
#X obj 345 227 * 1.57;
#X floatatom 256 114 5 0 0 0 - - -;
#X obj 657 81 t b;
#X obj 653 34 inlet;
#X obj 653 56 t b b;
#X msg 171 49 seed 32;
#X msg 741 56 seed 22;
#X connect 4 0 21 0;
#X connect 4 0 22 0;
#X connect 4 0 23 0;
#X connect 4 0 24 0;
#X connect 5 0 16 0;
#X connect 5 0 48 0;
#X connect 6 0 7 0;
#X connect 7 0 8 0;
#X connect 7 1 9 0;
#X connect 7 2 10 0;
#X connect 8 0 11 0;
#X connect 9 0 11 0;
#X connect 10 0 11 0;
#X connect 11 0 13 1;
#X connect 11 0 26 1;
#X connect 11 0 32 1;
#X connect 11 0 30 1;
#X connect 11 0 28 1;
#X connect 11 0 37 0;
#X connect 13 0 38 0;
#X connect 14 0 13 0;
#X connect 15 0 32 0;
#X connect 15 0 30 0;
#X connect 15 0 28 0;
#X connect 15 0 26 0;
#X connect 16 0 17 0;
#X connect 16 1 18 0;
#X connect 16 2 19 0;
#X connect 16 3 20 0;
#X connect 17 0 26 0;
#X connect 18 0 28 0;
#X connect 19 0 30 0;
#X connect 20 0 32 0;
#X connect 21 0 3 0;
#X connect 22 0 2 0;
#X connect 23 0 1 0;
#X connect 24 0 0 0;
#X connect 25 0 41 0;
#X connect 26 0 25 0;
#X connect 27 0 43 0;
#X connect 28 0 27 0;
#X connect 29 0 45 0;
#X connect 30 0 29 0;
#X connect 31 0 47 0;
#X connect 32 0 31 0;
#X connect 33 0 35 0;
#X connect 35 0 36 0;
#X connect 36 0 14 0;
#X connect 36 0 13 0;
#X connect 36 0 31 0;
#X connect 36 0 29 0;
#X connect 36 0 27 0;
#X connect 36 0 25 0;
#X connect 38 0 13 0;
#X connect 38 1 5 0;
#X connect 38 2 15 0;
#X connect 38 3 6 0;
#X connect 39 0 24 1;
#X connect 40 0 41 1;
#X connect 40 0 43 1;
#X connect 40 0 45 1;
#X connect 40 0 47 1;
#X connect 41 0 39 0;
#X connect 42 0 23 1;
#X connect 43 0 42 0;
#X connect 44 0 22 1;
#X connect 45 0 44 0;
#X connect 46 0 21 1;
#X connect 47 0 46 0;
#X connect 49 0 5 2;
#X connect 49 0 6 2;
#X connect 49 0 14 0;
#X connect 49 0 21 3;
#X connect 49 0 22 3;
#X connect 49 0 23 3;
#X connect 49 0 24 3;
#X connect 49 0 40 0;
#X connect 50 0 51 0;
#X connect 51 0 53 0;
#X connect 51 0 52 0;
#X connect 51 1 49 0;
#X connect 52 0 5 0;
#X connect 53 0 6 0;
#X restore 332 552 pd spat_1->4_2___________________________;
#N canvas 137 22 1070 407 spat_1->4_1___________________________ 0
;
#X obj 50 376 outlet~;
#X obj 112 378 outlet~;
#X obj 173 379 outlet~;
#X obj 235 381 outlet~;
#X obj 48 24 inlet~;
#X obj 149 87 ../generics/urn 4;
#X obj 623 152 ../generics/urn 3;
#X obj 623 173 sel 0 1 2;
#X msg 620 199 5;
#X msg 655 199 7;
#X msg 690 198 11;
#X obj 621 223 * 1000;
#X text 631 16 init;
#X obj 595 285 del 1000;
#X obj 621 115 del 100;
#X msg 402 107 0;
#X obj 148 111 sel 0 1 2 3;
#X msg 72 139 1;
#X msg 167 140 1;
#X msg 256 149 1;
#X msg 345 149 1;
#X obj 235 354 ../generics/line_mul~ 0 20;
#X obj 173 327 ../generics/line_mul~ 0 20;
#X obj 113 296 ../generics/line_mul~ 0 20;
#X obj 50 264 ../generics/line_mul~ 0 20;
#X obj 69 196 line 0 20;
#X obj 70 173 pack 0 1000;
#X obj 165 197 line 0 20;
#X obj 166 174 pack 0 1000;
#X obj 255 199 line 0 20;
#X obj 256 176 pack 0 1000;
#X obj 343 199 line 0 20;
#X obj 344 176 pack 0 1000;
#X obj 526 35 inlet;
#X text 525 18 fini;
#X obj 524 63 t b;
#X msg 524 84 stop;
#X floatatom 667 269 9 0 0 0 - - -;
#X obj 303 48 t b b b b;
#X obj 70 240 sin;
#X obj 895 99 expr 2*atan(1);
#X obj 69 218 * 1.57;
#X obj 166 242 sin;
#X obj 165 220 * 1.57;
#X obj 257 246 sin;
#X obj 256 224 * 1.57;
#X obj 346 249 sin;
#X obj 345 227 * 1.57;
#X floatatom 256 114 5 0 0 0 - - -;
#X obj 630 34 inlet;
#X obj 658 81 t b;
#X obj 630 56 t b b;
#X msg 718 56 seed 21;
#X msg 148 49 seed 31;
#X connect 4 0 21 0;
#X connect 4 0 22 0;
#X connect 4 0 23 0;
#X connect 4 0 24 0;
#X connect 5 0 16 0;
#X connect 5 0 48 0;
#X connect 6 0 7 0;
#X connect 7 0 8 0;
#X connect 7 1 9 0;
#X connect 7 2 10 0;
#X connect 8 0 11 0;
#X connect 9 0 11 0;
#X connect 10 0 11 0;
#X connect 11 0 13 1;
#X connect 11 0 26 1;
#X connect 11 0 32 1;
#X connect 11 0 30 1;
#X connect 11 0 28 1;
#X connect 11 0 37 0;
#X connect 13 0 38 0;
#X connect 14 0 13 0;
#X connect 15 0 32 0;
#X connect 15 0 30 0;
#X connect 15 0 28 0;
#X connect 15 0 26 0;
#X connect 16 0 17 0;
#X connect 16 1 18 0;
#X connect 16 2 19 0;
#X connect 16 3 20 0;
#X connect 17 0 26 0;
#X connect 18 0 28 0;
#X connect 19 0 30 0;
#X connect 20 0 32 0;
#X connect 21 0 3 0;
#X connect 22 0 2 0;
#X connect 23 0 1 0;
#X connect 24 0 0 0;
#X connect 25 0 41 0;
#X connect 26 0 25 0;
#X connect 27 0 43 0;
#X connect 28 0 27 0;
#X connect 29 0 45 0;
#X connect 30 0 29 0;
#X connect 31 0 47 0;
#X connect 32 0 31 0;
#X connect 33 0 35 0;
#X connect 35 0 36 0;
#X connect 36 0 14 0;
#X connect 36 0 13 0;
#X connect 36 0 31 0;
#X connect 36 0 29 0;
#X connect 36 0 27 0;
#X connect 36 0 25 0;
#X connect 38 0 13 0;
#X connect 38 1 5 0;
#X connect 38 2 15 0;
#X connect 38 3 6 0;
#X connect 39 0 24 1;
#X connect 40 0 41 1;
#X connect 40 0 43 1;
#X connect 40 0 45 1;
#X connect 40 0 47 1;
#X connect 41 0 39 0;
#X connect 42 0 23 1;
#X connect 43 0 42 0;
#X connect 44 0 22 1;
#X connect 45 0 44 0;
#X connect 46 0 21 1;
#X connect 47 0 46 0;
#X connect 49 0 51 0;
#X connect 50 0 5 2;
#X connect 50 0 6 2;
#X connect 50 0 14 0;
#X connect 50 0 21 3;
#X connect 50 0 22 3;
#X connect 50 0 23 3;
#X connect 50 0 24 3;
#X connect 50 0 40 0;
#X connect 51 0 52 0;
#X connect 51 0 53 0;
#X connect 51 1 50 0;
#X connect 52 0 6 0;
#X connect 53 0 5 0;
#X restore 317 529 pd spat_1->4_1___________________________;
#N canvas 115 22 1210 658 play_file_2 0;
#X obj 91 27 inlet;
#X obj 88 561 outlet~;
#X obj 1078 36 inlet;
#X text 1077 14 init-bang;
#X obj 424 497 outlet;
#X obj 880 41 inlet;
#X obj 918 460 outlet;
#X text 131 28 play-cmd 0/1;
#X obj 266 28 inlet;
#X text 306 29 fade_in_time_in_ms;
#X obj 459 26 inlet;
#X text 499 27 fade_out_time_in_ms;
#X obj 660 28 inlet;
#X text 700 29 pause_0/1;
#X text 15 28 !!!!!!!!!!;
#X text 879 19 rec cmd 0/1;
#X text 917 481 time;
#X text 16 11 player_2;
#X text 422 520 play state;
#X obj 88 532 ../generics/line_mul~ 0 100;
#X obj 76 474 readsf~ 1;
#X msg 60 394 1;
#X msg 101 394 0;
#X text 229 353 !!!!!!!!!!;
#X obj 671 137 switch~;
#X msg 667 111 1;
#X msg 700 111 0;
#X obj 661 53 sel 1 0;
#X obj 700 89 del 20;
#X obj 881 67 sel 1;
#X obj 936 209 &&;
#X obj 44 442 t f;
#X obj 726 137 t b f;
#X obj 936 232 change -1;
#X msg 599 72 stop;
#X msg 492 289 1 20;
#X msg 538 287 0 20;
#X obj 538 227 f 0;
#X obj 494 229 f 0;
#X obj 538 260 sel 1;
#X obj 492 263 sel 1;
#X text 565 227 readsf state;
#X obj 841 222 t f f;
#X obj 918 400 ../generics/counter 1e+09;
#X msg 201 353 2;
#X msg 883 92 0;
#X obj 89 72 sel 1 0;
#X obj 88 318 pack 1 50;
#X msg 89 295 1;
#X msg 158 294 0;
#X obj 246 318 del 50;
#X obj 36 244 del 20;
#X obj 62 95 t b;
#X msg 145 100 stop;
#X msg 253 289 stop;
#X obj 33 150 del 50;
#X obj 79 150 + 2;
#X obj 157 317 pack 0 50;
#X obj 459 104 t f;
#X obj 131 344 t l;
#X text 25 267 1;
#X text 251 338 0;
#X obj 266 94 t f;
#X obj 918 379 metro 100;
#X obj 918 424 * 0.1;
#X obj 167 52 print play2_cmd;
#X obj 959 282 print play2_state;
#X msg 867 420 0;
#X obj 867 246 sel 1;
#X obj 43 594 print rsf2_state;
#X obj 32 197 del 20;
#X obj 201 397 ../generics/tempdir;
#X obj 202 443 pack s s;
#X obj 202 375 t b f;
#X obj 233 418 makefilename lichtweiss_\$1_temp_%d.wav;
#X msg 202 464 open \$1/\$2;
#X connect 0 0 46 0;
#X connect 2 0 19 3;
#X connect 5 0 29 0;
#X connect 8 0 62 0;
#X connect 10 0 58 0;
#X connect 12 0 27 0;
#X connect 19 0 1 0;
#X connect 20 0 19 0;
#X connect 20 1 36 0;
#X connect 20 1 22 0;
#X connect 21 0 20 0;
#X connect 21 0 31 0;
#X connect 22 0 20 0;
#X connect 22 0 31 0;
#X connect 25 0 24 0;
#X connect 25 0 32 0;
#X connect 26 0 24 0;
#X connect 26 0 32 0;
#X connect 27 0 25 0;
#X connect 27 0 34 0;
#X connect 27 0 38 0;
#X connect 27 1 28 0;
#X connect 27 1 37 0;
#X connect 28 0 26 0;
#X connect 29 0 45 0;
#X connect 30 0 33 0;
#X connect 31 0 38 1;
#X connect 31 0 37 1;
#X connect 31 0 42 0;
#X connect 32 0 30 0;
#X connect 32 1 30 1;
#X connect 33 0 4 0;
#X connect 33 0 63 0;
#X connect 34 0 28 0;
#X connect 35 0 19 1;
#X connect 36 0 19 1;
#X connect 37 0 39 0;
#X connect 38 0 40 0;
#X connect 39 0 36 0;
#X connect 40 0 35 0;
#X connect 42 0 30 0;
#X connect 42 1 68 0;
#X connect 43 0 64 0;
#X connect 44 0 73 0;
#X connect 45 0 46 0;
#X connect 46 0 52 0;
#X connect 46 1 49 0;
#X connect 46 1 50 0;
#X connect 46 1 53 0;
#X connect 47 0 59 0;
#X connect 48 0 47 0;
#X connect 49 0 57 0;
#X connect 50 0 22 0;
#X connect 51 0 48 0;
#X connect 51 0 21 0;
#X connect 52 0 54 0;
#X connect 52 0 55 0;
#X connect 52 0 49 0;
#X connect 53 0 51 0;
#X connect 53 0 55 0;
#X connect 53 0 70 0;
#X connect 54 0 50 0;
#X connect 55 0 70 0;
#X connect 55 0 22 0;
#X connect 56 0 55 1;
#X connect 57 0 59 0;
#X connect 58 0 50 1;
#X connect 58 0 57 1;
#X connect 58 0 56 0;
#X connect 59 0 19 1;
#X connect 62 0 47 1;
#X connect 63 0 43 0;
#X connect 64 0 6 0;
#X connect 67 0 6 0;
#X connect 68 0 43 2;
#X connect 68 0 67 0;
#X connect 70 0 51 0;
#X connect 70 0 44 0;
#X connect 71 0 72 0;
#X connect 72 0 75 0;
#X connect 73 0 71 0;
#X connect 73 1 74 0;
#X connect 74 0 72 1;
#X connect 75 0 20 0;
#X restore 332 334 pd play_file_2;
#N canvas 167 58 1210 658 play_file_3 0;
#X obj 91 27 inlet;
#X obj 88 561 outlet~;
#X obj 1078 36 inlet;
#X text 1077 14 init-bang;
#X obj 424 497 outlet;
#X obj 880 41 inlet;
#X obj 918 460 outlet;
#X text 131 28 play-cmd 0/1;
#X obj 266 28 inlet;
#X text 306 29 fade_in_time_in_ms;
#X obj 459 26 inlet;
#X text 499 27 fade_out_time_in_ms;
#X obj 660 28 inlet;
#X text 700 29 pause_0/1;
#X text 15 28 !!!!!!!!!!;
#X text 879 19 rec cmd 0/1;
#X text 917 481 time;
#X text 16 10 player_3;
#X text 422 520 play state;
#X obj 88 532 ../generics/line_mul~ 0 100;
#X obj 76 474 readsf~ 1;
#X msg 60 394 1;
#X msg 101 394 0;
#X text 229 353 !!!!!!!!!!;
#X obj 671 137 switch~;
#X msg 667 111 1;
#X msg 700 111 0;
#X obj 661 53 sel 1 0;
#X obj 700 89 del 20;
#X obj 881 67 sel 1;
#X obj 936 209 &&;
#X obj 44 442 t f;
#X obj 726 137 t b f;
#X obj 936 232 change -1;
#X msg 599 72 stop;
#X msg 492 289 1 20;
#X msg 538 287 0 20;
#X obj 538 227 f 0;
#X obj 494 229 f 0;
#X obj 538 260 sel 1;
#X obj 492 263 sel 1;
#X text 565 227 readsf state;
#X obj 841 222 t f f;
#X obj 918 400 ../generics/counter 1e+09;
#X msg 201 353 3;
#X msg 880 94 0;
#X obj 92 72 sel 1 0;
#X obj 97 317 pack 1 50;
#X msg 98 294 1;
#X msg 167 293 0;
#X obj 255 317 del 50;
#X obj 45 243 del 20;
#X obj 65 95 t b;
#X msg 148 100 stop;
#X msg 262 288 stop;
#X obj 49 149 del 50;
#X obj 95 149 + 2;
#X obj 166 316 pack 0 50;
#X obj 462 104 t f;
#X obj 140 343 t l;
#X text 34 266 1;
#X text 260 337 0;
#X obj 269 94 t f;
#X obj 918 378 metro 100;
#X obj 918 423 * 0.1;
#X obj 167 52 print play3_cmd;
#X obj 962 263 print play3_state;
#X msg 867 420 0;
#X obj 867 246 sel 1;
#X obj 43 594 print rsf3_state;
#X obj 45 205 del 20;
#X obj 200 397 ../generics/tempdir;
#X obj 201 443 pack s s;
#X obj 201 375 t b f;
#X obj 232 418 makefilename lichtweiss_\$1_temp_%d.wav;
#X msg 201 464 open \$1/\$2;
#X connect 0 0 46 0;
#X connect 2 0 19 3;
#X connect 5 0 29 0;
#X connect 8 0 62 0;
#X connect 10 0 58 0;
#X connect 12 0 27 0;
#X connect 19 0 1 0;
#X connect 20 0 19 0;
#X connect 20 1 36 0;
#X connect 20 1 22 0;
#X connect 21 0 20 0;
#X connect 21 0 31 0;
#X connect 22 0 20 0;
#X connect 22 0 31 0;
#X connect 25 0 24 0;
#X connect 25 0 32 0;
#X connect 26 0 24 0;
#X connect 26 0 32 0;
#X connect 27 0 25 0;
#X connect 27 0 34 0;
#X connect 27 0 38 0;
#X connect 27 1 28 0;
#X connect 27 1 37 0;
#X connect 28 0 26 0;
#X connect 29 0 45 0;
#X connect 30 0 33 0;
#X connect 31 0 38 1;
#X connect 31 0 37 1;
#X connect 31 0 42 0;
#X connect 32 0 30 0;
#X connect 32 1 30 1;
#X connect 33 0 4 0;
#X connect 33 0 63 0;
#X connect 34 0 28 0;
#X connect 35 0 19 1;
#X connect 36 0 19 1;
#X connect 37 0 39 0;
#X connect 38 0 40 0;
#X connect 39 0 36 0;
#X connect 40 0 35 0;
#X connect 42 0 30 0;
#X connect 42 1 68 0;
#X connect 43 0 64 0;
#X connect 44 0 73 0;
#X connect 45 0 46 0;
#X connect 46 0 52 0;
#X connect 46 1 49 0;
#X connect 46 1 50 0;
#X connect 46 1 53 0;
#X connect 47 0 59 0;
#X connect 48 0 47 0;
#X connect 49 0 57 0;
#X connect 50 0 22 0;
#X connect 51 0 48 0;
#X connect 51 0 21 0;
#X connect 52 0 54 0;
#X connect 52 0 55 0;
#X connect 52 0 49 0;
#X connect 53 0 51 0;
#X connect 53 0 55 0;
#X connect 53 0 70 0;
#X connect 54 0 50 0;
#X connect 55 0 70 0;
#X connect 55 0 22 0;
#X connect 56 0 55 1;
#X connect 57 0 59 0;
#X connect 58 0 50 1;
#X connect 58 0 57 1;
#X connect 58 0 56 0;
#X connect 59 0 19 1;
#X connect 62 0 47 1;
#X connect 63 0 43 0;
#X connect 64 0 6 0;
#X connect 67 0 6 0;
#X connect 68 0 43 2;
#X connect 68 0 67 0;
#X connect 70 0 51 0;
#X connect 70 0 44 0;
#X connect 71 0 72 0;
#X connect 72 0 75 0;
#X connect 73 0 71 0;
#X connect 73 1 74 0;
#X connect 74 0 72 1;
#X connect 75 0 20 0;
#X restore 348 360 pd play_file_3;
#N canvas 167 58 1210 658 play_file_4 0;
#X obj 91 27 inlet;
#X obj 88 561 outlet~;
#X obj 1078 36 inlet;
#X text 1077 14 init-bang;
#X obj 424 497 outlet;
#X obj 880 41 inlet;
#X obj 918 460 outlet;
#X text 131 28 play-cmd 0/1;
#X obj 266 28 inlet;
#X text 306 29 fade_in_time_in_ms;
#X obj 459 26 inlet;
#X text 499 27 fade_out_time_in_ms;
#X obj 660 28 inlet;
#X text 700 29 pause_0/1;
#X text 15 28 !!!!!!!!!!;
#X text 879 19 rec cmd 0/1;
#X text 917 481 time;
#X text 16 11 player_4;
#X text 422 520 play state;
#X obj 88 532 ../generics/line_mul~ 0 100;
#X obj 76 474 readsf~ 1;
#X msg 60 394 1;
#X msg 101 394 0;
#X text 229 357 !!!!!!!!!!;
#X obj 671 137 switch~;
#X msg 667 111 1;
#X msg 700 111 0;
#X obj 661 53 sel 1 0;
#X obj 700 89 del 20;
#X obj 881 67 sel 1;
#X obj 936 209 &&;
#X obj 44 442 t f;
#X obj 726 137 t b f;
#X obj 936 232 change -1;
#X msg 599 72 stop;
#X msg 492 289 1 20;
#X msg 538 287 0 20;
#X obj 538 227 f 0;
#X obj 494 229 f 0;
#X obj 538 260 sel 1;
#X obj 492 263 sel 1;
#X text 565 227 readsf state;
#X obj 841 222 t f f;
#X obj 918 400 ../generics/counter 1e+09;
#X msg 201 357 4;
#X msg 881 92 0;
#X obj 91 93 sel 1 0;
#X obj 92 322 pack 1 50;
#X msg 93 299 1;
#X msg 162 298 0;
#X obj 250 322 del 50;
#X obj 32 245 del 20;
#X obj 64 116 t b;
#X msg 147 121 stop;
#X msg 257 293 stop;
#X obj 40 162 del 50;
#X obj 86 162 + 2;
#X obj 161 321 pack 0 50;
#X obj 461 125 t f;
#X obj 135 348 t l;
#X text 29 271 1;
#X text 255 342 0;
#X obj 268 115 t f;
#X obj 918 423 * 0.1;
#X obj 918 377 metro 100;
#X obj 159 57 print play4_cmd;
#X obj 964 275 print play4_state;
#X msg 867 420 0;
#X obj 867 246 sel 1;
#X obj 43 594 print rsf4_state;
#X obj 36 207 del 20;
#X obj 200 402 ../generics/tempdir;
#X obj 201 448 pack s s;
#X obj 201 380 t b f;
#X obj 232 423 makefilename lichtweiss_\$1_temp_%d.wav;
#X msg 201 469 open \$1/\$2;
#X connect 0 0 46 0;
#X connect 2 0 19 3;
#X connect 5 0 29 0;
#X connect 8 0 62 0;
#X connect 10 0 58 0;
#X connect 12 0 27 0;
#X connect 19 0 1 0;
#X connect 20 0 19 0;
#X connect 20 1 36 0;
#X connect 20 1 22 0;
#X connect 21 0 20 0;
#X connect 21 0 31 0;
#X connect 22 0 20 0;
#X connect 22 0 31 0;
#X connect 25 0 24 0;
#X connect 25 0 32 0;
#X connect 26 0 24 0;
#X connect 26 0 32 0;
#X connect 27 0 25 0;
#X connect 27 0 34 0;
#X connect 27 0 38 0;
#X connect 27 1 28 0;
#X connect 27 1 37 0;
#X connect 28 0 26 0;
#X connect 29 0 45 0;
#X connect 30 0 33 0;
#X connect 31 0 38 1;
#X connect 31 0 37 1;
#X connect 31 0 42 0;
#X connect 32 0 30 0;
#X connect 32 1 30 1;
#X connect 33 0 4 0;
#X connect 33 0 64 0;
#X connect 34 0 28 0;
#X connect 35 0 19 1;
#X connect 36 0 19 1;
#X connect 37 0 39 0;
#X connect 38 0 40 0;
#X connect 39 0 36 0;
#X connect 40 0 35 0;
#X connect 42 0 30 0;
#X connect 42 1 68 0;
#X connect 43 0 63 0;
#X connect 44 0 73 0;
#X connect 45 0 46 0;
#X connect 46 0 52 0;
#X connect 46 1 49 0;
#X connect 46 1 50 0;
#X connect 46 1 53 0;
#X connect 47 0 59 0;
#X connect 48 0 47 0;
#X connect 49 0 57 0;
#X connect 50 0 22 0;
#X connect 51 0 48 0;
#X connect 51 0 21 0;
#X connect 52 0 54 0;
#X connect 52 0 55 0;
#X connect 52 0 49 0;
#X connect 53 0 51 0;
#X connect 53 0 55 0;
#X connect 53 0 70 0;
#X connect 54 0 50 0;
#X connect 55 0 70 0;
#X connect 55 0 22 0;
#X connect 56 0 55 1;
#X connect 57 0 59 0;
#X connect 58 0 50 1;
#X connect 58 0 57 1;
#X connect 58 0 56 0;
#X connect 59 0 19 1;
#X connect 62 0 47 1;
#X connect 63 0 6 0;
#X connect 64 0 43 0;
#X connect 67 0 6 0;
#X connect 68 0 43 2;
#X connect 68 0 67 0;
#X connect 70 0 51 0;
#X connect 70 0 44 0;
#X connect 71 0 72 0;
#X connect 72 0 75 0;
#X connect 73 0 71 0;
#X connect 73 1 74 0;
#X connect 74 0 72 1;
#X connect 75 0 20 0;
#X restore 362 386 pd play_file_4;
#X obj 120 198 * 1000;
#X obj 155 221 * 1000;
#X obj 845 429 route fadeInTime fadeOutTime;
#X obj 449 40 t b;
#N canvas 230 31 1210 658 rec_file_1 0;
#X obj 283 25 inlet;
#X obj 978 40 inlet;
#X text 977 18 init-bang;
#X obj 424 497 outlet;
#X obj 86 313 ../generics/line_mul~ 0 100;
#X obj 880 41 inlet;
#X obj 843 433 outlet;
#X obj 434 22 inlet;
#X text 474 23 fade_in_time_in_ms;
#X obj 596 20 inlet;
#X text 636 21 fade_out_time_in_ms;
#X obj 762 21 inlet;
#X text 802 22 pause_0/1;
#X msg 169 346 1;
#X obj 282 69 sel 1 0;
#X obj 117 245 pack 1 50;
#X msg 118 222 1;
#X obj 184 244 pack 1 50;
#X msg 185 221 0;
#X obj 247 244 del 50;
#X text 15 28 !!!!!!!!!!;
#X text 197 347 !!!!!!!!!!;
#X obj 773 130 switch~;
#X msg 769 104 1;
#X msg 802 104 0;
#X obj 763 46 sel 1 0;
#X obj 802 82 del 20;
#X msg 537 154 1 20;
#X msg 600 156 0 20;
#X obj 880 69 sel 1;
#X text 842 454 time;
#X obj 30 368 t f;
#X obj 828 130 t b f;
#X text 16 11 recorder_1;
#X text 879 19 play cmd 0/1;
#X text 323 26 rec-cmd 0/1;
#X text 422 520 rec state;
#X obj 86 486 writesf~ 1;
#X msg 31 444 start;
#X msg 50 418 stop;
#X obj 90 25 inlet~;
#X msg 18 340 1;
#X msg 53 340 0;
#X obj 599 99 f 0;
#X text 627 99 writesf state;
#X obj 555 101 f 0;
#X obj 600 129 sel 1;
#X obj 537 128 sel 1;
#X obj 239 131 t b;
#X obj 160 178 del 20;
#X msg 303 141 stop;
#X msg 180 130 stop;
#X msg 725 81 stop;
#X obj 843 229 &&;
#X obj 843 252 change -1;
#X obj 748 242 t f f;
#X obj 843 380 ../generics/counter 1e+09;
#X msg 880 93 0;
#X obj 270 95 del 50;
#X obj 315 95 + 2;
#X obj 843 358 metro 100;
#X obj 843 403 * 0.1;
#X obj 31 394 sel 1 0;
#X obj 181 56 print rec1_cmd;
#X msg 774 402 0;
#X obj 774 266 sel 1;
#X obj 875 282 print rec1_state;
#X obj 23 525 print wsf1_state;
#X obj 168 389 ../generics/tempdir;
#X obj 169 435 pack s s;
#X obj 169 367 t b f;
#X obj 200 410 makefilename lichtweiss_\$1_temp_%d.wav;
#X msg 169 456 open \$1/\$2;
#X connect 0 0 14 0;
#X connect 1 0 4 3;
#X connect 4 0 37 0;
#X connect 5 0 29 0;
#X connect 7 0 15 1;
#X connect 9 0 17 1;
#X connect 9 0 19 1;
#X connect 9 0 59 1;
#X connect 11 0 25 0;
#X connect 13 0 70 0;
#X connect 14 0 58 0;
#X connect 14 1 18 0;
#X connect 14 1 19 0;
#X connect 14 1 50 0;
#X connect 15 0 4 1;
#X connect 16 0 15 0;
#X connect 17 0 4 1;
#X connect 18 0 17 0;
#X connect 19 0 42 0;
#X connect 23 0 22 0;
#X connect 23 0 32 0;
#X connect 24 0 22 0;
#X connect 24 0 32 0;
#X connect 25 0 23 0;
#X connect 25 0 45 0;
#X connect 25 0 52 0;
#X connect 25 1 26 0;
#X connect 25 1 43 0;
#X connect 26 0 24 0;
#X connect 27 0 4 1;
#X connect 28 0 4 1;
#X connect 29 0 57 0;
#X connect 31 0 43 1;
#X connect 31 0 45 1;
#X connect 31 0 55 0;
#X connect 31 0 62 0;
#X connect 32 0 53 0;
#X connect 32 1 53 1;
#X connect 38 0 37 0;
#X connect 39 0 37 0;
#X connect 40 0 4 0;
#X connect 41 0 31 0;
#X connect 42 0 31 0;
#X connect 43 0 46 0;
#X connect 45 0 47 0;
#X connect 46 0 28 0;
#X connect 47 0 27 0;
#X connect 48 0 13 0;
#X connect 48 0 49 0;
#X connect 48 0 51 0;
#X connect 49 0 16 0;
#X connect 49 0 41 0;
#X connect 50 0 49 0;
#X connect 51 0 19 0;
#X connect 52 0 26 0;
#X connect 53 0 54 0;
#X connect 54 0 3 0;
#X connect 54 0 60 0;
#X connect 55 0 53 0;
#X connect 55 1 65 0;
#X connect 56 0 61 0;
#X connect 57 0 14 0;
#X connect 58 0 48 0;
#X connect 59 0 58 1;
#X connect 60 0 56 0;
#X connect 61 0 6 0;
#X connect 62 0 38 0;
#X connect 62 1 39 0;
#X connect 64 0 6 0;
#X connect 65 0 56 2;
#X connect 65 0 64 0;
#X connect 68 0 69 0;
#X connect 69 0 72 0;
#X connect 70 0 68 0;
#X connect 70 1 71 0;
#X connect 71 0 69 1;
#X connect 72 0 37 0;
#X restore 141 320 pd rec_file_1;
#N canvas 44 42 1068 562 rec_file_4 0;
#X obj 283 25 inlet;
#X obj 978 40 inlet;
#X text 977 18 init-bang;
#X obj 496 452 outlet;
#X obj 880 41 inlet;
#X obj 843 432 outlet;
#X obj 434 22 inlet;
#X text 474 23 fade_in_time_in_ms;
#X obj 596 20 inlet;
#X text 636 21 fade_out_time_in_ms;
#X obj 762 21 inlet;
#X text 802 22 pause_0/1;
#X text 15 28 !!!!!!!!!!;
#X text 842 453 time;
#X text 879 19 play cmd 0/1;
#X text 323 26 rec-cmd 0/1;
#X text 487 472 rec state;
#X obj 96 24 inlet~;
#X text 16 11 recorder_4;
#X obj 86 313 ../generics/line_mul~ 0 100;
#X obj 282 69 sel 1 0;
#X obj 114 260 pack 1 50;
#X msg 115 237 1;
#X obj 181 259 pack 1 50;
#X msg 182 236 0;
#X obj 244 259 del 50;
#X text 200 336 !!!!!!!!!!;
#X obj 773 130 switch~;
#X msg 769 104 1;
#X msg 802 104 0;
#X obj 763 46 sel 1 0;
#X obj 802 82 del 20;
#X msg 537 154 1 20;
#X msg 600 156 0 20;
#X obj 880 69 sel 1;
#X obj 28 330 t f;
#X obj 828 130 t b f;
#X obj 88 474 writesf~ 1;
#X msg 42 415 start;
#X msg 53 394 stop;
#X msg 9 300 1;
#X msg 44 300 0;
#X obj 599 99 f 0;
#X text 627 99 writesf state;
#X obj 555 101 f 0;
#X obj 600 129 sel 1;
#X obj 537 128 sel 1;
#X obj 236 146 t b;
#X obj 157 193 del 20;
#X msg 364 143 stop;
#X msg 177 145 stop;
#X msg 725 81 stop;
#X obj 843 229 &&;
#X obj 843 252 change -1;
#X obj 748 242 t f f;
#X obj 843 380 ../generics/counter 1e+09;
#X msg 172 335 4;
#X msg 880 94 0;
#X obj 271 97 del 50;
#X obj 316 97 + 2;
#X obj 843 358 metro 100;
#X obj 843 403 * 0.1;
#X obj 184 61 print rec4_cmd;
#X obj 888 286 print rec4_state;
#X obj 41 370 sel 1 0;
#X msg 774 402 0;
#X obj 774 266 sel 1;
#X obj 27 507 print wsf4_state;
#X obj 171 378 ../generics/tempdir;
#X obj 172 424 pack s s;
#X obj 172 356 t b f;
#X obj 203 399 makefilename lichtweiss_\$1_temp_%d.wav;
#X msg 172 445 open \$1/\$2;
#X connect 0 0 20 0;
#X connect 1 0 19 3;
#X connect 4 0 34 0;
#X connect 6 0 21 1;
#X connect 8 0 25 1;
#X connect 8 0 23 1;
#X connect 8 0 59 0;
#X connect 10 0 30 0;
#X connect 17 0 19 0;
#X connect 19 0 37 0;
#X connect 20 0 58 0;
#X connect 20 1 24 0;
#X connect 20 1 25 0;
#X connect 20 1 49 0;
#X connect 21 0 19 1;
#X connect 22 0 21 0;
#X connect 23 0 19 1;
#X connect 24 0 23 0;
#X connect 25 0 41 0;
#X connect 28 0 27 0;
#X connect 28 0 36 0;
#X connect 29 0 27 0;
#X connect 29 0 36 0;
#X connect 30 0 28 0;
#X connect 30 0 44 0;
#X connect 30 0 51 0;
#X connect 30 1 31 0;
#X connect 30 1 42 0;
#X connect 31 0 29 0;
#X connect 32 0 19 1;
#X connect 33 0 19 1;
#X connect 34 0 57 0;
#X connect 35 0 42 1;
#X connect 35 0 44 1;
#X connect 35 0 54 0;
#X connect 35 0 64 0;
#X connect 36 0 52 0;
#X connect 36 1 52 1;
#X connect 38 0 37 0;
#X connect 39 0 37 0;
#X connect 40 0 35 0;
#X connect 41 0 35 0;
#X connect 42 0 45 0;
#X connect 44 0 46 0;
#X connect 45 0 33 0;
#X connect 46 0 32 0;
#X connect 47 0 56 0;
#X connect 47 0 48 0;
#X connect 47 0 50 0;
#X connect 48 0 22 0;
#X connect 48 0 40 0;
#X connect 49 0 48 0;
#X connect 50 0 25 0;
#X connect 51 0 31 0;
#X connect 52 0 53 0;
#X connect 53 0 3 0;
#X connect 53 0 60 0;
#X connect 54 0 52 0;
#X connect 54 1 66 0;
#X connect 55 0 61 0;
#X connect 56 0 70 0;
#X connect 57 0 20 0;
#X connect 58 0 47 0;
#X connect 59 0 58 1;
#X connect 60 0 55 0;
#X connect 61 0 5 0;
#X connect 64 0 38 0;
#X connect 64 1 39 0;
#X connect 65 0 5 0;
#X connect 66 0 55 2;
#X connect 66 0 65 0;
#X connect 68 0 69 0;
#X connect 69 0 72 0;
#X connect 70 0 68 0;
#X connect 70 1 71 0;
#X connect 71 0 69 1;
#X connect 72 0 37 0;
#X restore 171 389 pd rec_file_4;
#N canvas 13 22 1105 587 rec_file_3 0;
#X obj 283 25 inlet;
#X obj 1011 41 inlet;
#X text 1010 19 init-bang;
#X obj 554 438 outlet;
#X obj 871 41 inlet;
#X obj 844 434 outlet;
#X obj 434 22 inlet;
#X text 474 23 fade_in_time_in_ms;
#X obj 596 20 inlet;
#X text 636 21 fade_out_time_in_ms;
#X obj 762 21 inlet;
#X text 802 22 pause_0/1;
#X text 15 28 !!!!!!!!!!;
#X text 843 455 time;
#X text 870 19 play cmd 0/1;
#X text 323 26 rec-cmd 0/1;
#X text 552 461 rec state;
#X obj 96 24 inlet~;
#X text 16 11 recorder_3;
#X obj 86 313 ../generics/line_mul~ 0 100;
#X obj 282 69 sel 1 0;
#X obj 116 259 pack 1 50;
#X msg 117 236 1;
#X obj 183 258 pack 1 50;
#X msg 184 235 0;
#X obj 246 258 del 50;
#X text 204 338 !!!!!!!!!!;
#X obj 773 130 switch~;
#X msg 769 104 1;
#X msg 802 104 0;
#X obj 763 46 sel 1 0;
#X obj 802 82 del 20;
#X msg 537 154 1 20;
#X msg 600 156 0 20;
#X obj 880 69 sel 1;
#X obj 33 337 t f;
#X obj 828 130 t b f;
#X obj 88 474 writesf~ 1;
#X msg 41 427 start;
#X msg 100 429 stop;
#X msg 14 307 1;
#X msg 49 307 0;
#X obj 599 99 f 0;
#X text 627 99 writesf state;
#X obj 555 101 f 0;
#X obj 600 129 sel 1;
#X obj 537 128 sel 1;
#X obj 238 145 t b;
#X obj 159 192 del 20;
#X msg 366 142 stop;
#X msg 179 144 stop;
#X msg 725 81 stop;
#X obj 843 229 &&;
#X obj 843 252 change -1;
#X obj 748 242 t f f;
#X obj 843 380 ../generics/counter 1e+09;
#X msg 176 337 3;
#X msg 880 95 0;
#X obj 279 96 del 50;
#X obj 323 95 + 2;
#X obj 843 358 metro 100;
#X obj 843 403 * 0.1;
#X obj 167 64 print rec3_cmd;
#X obj 879 290 print rec3_state;
#X obj 38 396 sel 1 0;
#X msg 774 402 0;
#X obj 774 266 sel 1;
#X obj 23 506 print wsf3_state;
#X obj 175 380 ../generics/tempdir;
#X obj 176 426 pack s s;
#X obj 176 358 t b f;
#X obj 207 401 makefilename lichtweiss_\$1_temp_%d.wav;
#X msg 176 447 open \$1/\$2;
#X connect 0 0 20 0;
#X connect 1 0 19 3;
#X connect 4 0 34 0;
#X connect 6 0 21 1;
#X connect 8 0 25 1;
#X connect 8 0 23 1;
#X connect 8 0 59 0;
#X connect 10 0 30 0;
#X connect 17 0 19 0;
#X connect 19 0 37 0;
#X connect 20 0 58 0;
#X connect 20 1 24 0;
#X connect 20 1 25 0;
#X connect 20 1 49 0;
#X connect 21 0 19 1;
#X connect 22 0 21 0;
#X connect 23 0 19 1;
#X connect 24 0 23 0;
#X connect 25 0 41 0;
#X connect 28 0 27 0;
#X connect 28 0 36 0;
#X connect 29 0 27 0;
#X connect 29 0 36 0;
#X connect 30 0 28 0;
#X connect 30 0 44 0;
#X connect 30 0 51 0;
#X connect 30 1 31 0;
#X connect 30 1 42 0;
#X connect 31 0 29 0;
#X connect 32 0 19 1;
#X connect 33 0 19 1;
#X connect 34 0 57 0;
#X connect 35 0 42 1;
#X connect 35 0 44 1;
#X connect 35 0 54 0;
#X connect 35 0 64 0;
#X connect 36 0 52 0;
#X connect 36 1 52 1;
#X connect 38 0 37 0;
#X connect 39 0 37 0;
#X connect 40 0 35 0;
#X connect 41 0 35 0;
#X connect 42 0 45 0;
#X connect 44 0 46 0;
#X connect 45 0 33 0;
#X connect 46 0 32 0;
#X connect 47 0 56 0;
#X connect 47 0 48 0;
#X connect 47 0 50 0;
#X connect 48 0 22 0;
#X connect 48 0 40 0;
#X connect 49 0 48 0;
#X connect 50 0 25 0;
#X connect 51 0 31 0;
#X connect 52 0 53 0;
#X connect 53 0 3 0;
#X connect 53 0 60 0;
#X connect 54 0 52 0;
#X connect 54 1 66 0;
#X connect 55 0 61 0;
#X connect 56 0 70 0;
#X connect 57 0 20 0;
#X connect 58 0 47 0;
#X connect 59 0 58 1;
#X connect 60 0 55 0;
#X connect 61 0 5 0;
#X connect 64 0 38 0;
#X connect 64 1 39 0;
#X connect 65 0 5 0;
#X connect 66 0 55 2;
#X connect 66 0 65 0;
#X connect 68 0 69 0;
#X connect 69 0 72 0;
#X connect 70 0 68 0;
#X connect 70 1 71 0;
#X connect 71 0 69 1;
#X connect 72 0 37 0;
#X restore 161 366 pd rec_file_3;
#N canvas 14 22 1079 554 rec_file_2 0;
#X obj 283 25 inlet;
#X obj 978 40 inlet;
#X text 977 18 init-bang;
#X obj 506 437 outlet;
#X obj 880 41 inlet;
#X obj 844 435 outlet;
#X obj 434 22 inlet;
#X text 474 23 fade_in_time_in_ms;
#X obj 596 20 inlet;
#X text 636 21 fade_out_time_in_ms;
#X obj 762 21 inlet;
#X text 802 22 pause_0/1;
#X text 15 28 !!!!!!!!!!;
#X text 843 456 time;
#X text 879 19 play cmd 0/1;
#X text 323 26 rec-cmd 0/1;
#X text 504 460 rec state;
#X obj 96 24 inlet~;
#X text 16 11 recorder_2;
#X obj 86 313 ../generics/line_mul~ 0 100;
#X obj 282 69 sel 1 0;
#X obj 116 253 pack 1 50;
#X msg 117 230 1;
#X obj 183 252 pack 1 50;
#X msg 184 229 0;
#X obj 246 252 del 50;
#X text 186 334 !!!!!!!!!!;
#X obj 773 130 switch~;
#X msg 769 104 1;
#X msg 802 104 0;
#X obj 763 46 sel 1 0;
#X obj 802 82 del 20;
#X msg 537 154 1 20;
#X msg 600 156 0 20;
#X obj 880 69 sel 1;
#X obj 27 309 t f;
#X obj 828 130 t b f;
#X obj 88 474 writesf~ 1;
#X msg 39 400 start;
#X msg 47 374 stop;
#X msg 8 279 1;
#X msg 43 279 0;
#X obj 599 99 f 0;
#X text 627 99 writesf state;
#X obj 555 101 f 0;
#X obj 600 129 sel 1;
#X obj 537 128 sel 1;
#X obj 238 139 t b;
#X obj 159 186 del 20;
#X msg 366 136 stop;
#X msg 179 138 stop;
#X msg 725 81 stop;
#X obj 843 229 &&;
#X obj 843 252 change -1;
#X obj 748 242 t f f;
#X obj 843 380 ../generics/counter 1e+09;
#X msg 157 333 2;
#X msg 880 94 0;
#X obj 280 105 del 50;
#X obj 325 105 + 2;
#X obj 843 358 metro 100;
#X obj 843 402 * 0.1;
#X obj 177 65 print rec2_cmd;
#X obj 874 289 print rec2_state;
#X obj 36 348 sel 1 0;
#X msg 774 402 0;
#X obj 774 266 sel 1;
#X obj 23 525 print wsf2_state;
#X obj 156 377 ../generics/tempdir;
#X obj 157 423 pack s s;
#X obj 157 355 t b f;
#X obj 188 398 makefilename lichtweiss_\$1_temp_%d.wav;
#X msg 157 444 open \$1/\$2;
#X connect 0 0 20 0;
#X connect 1 0 19 3;
#X connect 4 0 34 0;
#X connect 6 0 21 1;
#X connect 8 0 25 1;
#X connect 8 0 23 1;
#X connect 8 0 59 1;
#X connect 10 0 30 0;
#X connect 17 0 19 0;
#X connect 19 0 37 0;
#X connect 20 0 58 0;
#X connect 20 1 24 0;
#X connect 20 1 25 0;
#X connect 20 1 49 0;
#X connect 21 0 19 1;
#X connect 22 0 21 0;
#X connect 23 0 19 1;
#X connect 24 0 23 0;
#X connect 25 0 41 0;
#X connect 28 0 27 0;
#X connect 28 0 36 0;
#X connect 29 0 27 0;
#X connect 29 0 36 0;
#X connect 30 0 28 0;
#X connect 30 0 44 0;
#X connect 30 0 51 0;
#X connect 30 1 31 0;
#X connect 30 1 42 0;
#X connect 31 0 29 0;
#X connect 32 0 19 1;
#X connect 33 0 19 1;
#X connect 34 0 57 0;
#X connect 35 0 42 1;
#X connect 35 0 44 1;
#X connect 35 0 54 0;
#X connect 35 0 64 0;
#X connect 36 0 52 0;
#X connect 36 1 52 1;
#X connect 38 0 37 0;
#X connect 39 0 37 0;
#X connect 40 0 35 0;
#X connect 41 0 35 0;
#X connect 42 0 45 0;
#X connect 44 0 46 0;
#X connect 45 0 33 0;
#X connect 46 0 32 0;
#X connect 47 0 56 0;
#X connect 47 0 48 0;
#X connect 47 0 50 0;
#X connect 48 0 22 0;
#X connect 48 0 40 0;
#X connect 49 0 48 0;
#X connect 50 0 25 0;
#X connect 51 0 31 0;
#X connect 52 0 53 0;
#X connect 53 0 3 0;
#X connect 53 0 60 0;
#X connect 54 0 52 0;
#X connect 54 1 66 0;
#X connect 55 0 61 0;
#X connect 56 0 70 0;
#X connect 57 0 20 0;
#X connect 58 0 47 0;
#X connect 59 0 58 1;
#X connect 60 0 55 0;
#X connect 61 0 5 0;
#X connect 64 0 38 0;
#X connect 64 1 39 0;
#X connect 65 0 5 0;
#X connect 66 0 55 2;
#X connect 66 0 65 0;
#X connect 68 0 69 0;
#X connect 69 0 72 0;
#X connect 70 0 68 0;
#X connect 70 1 71 0;
#X connect 71 0 69 1;
#X connect 72 0 37 0;
#X restore 151 343 pd rec_file_2;
#X obj 815 146 route play4 rec4;
#X obj 709 145 route play3 rec3;
#X obj 603 145 route play2 rec2;
#X obj 498 145 route play1 rec1;
#X obj 286 130 == 0;
#X text 318 130 invert;
#X msg 292 88 0;
#X obj 493 175 t f f;
#X obj 542 174 t f f;
#X obj 603 175 t f f;
#X obj 652 174 t f f;
#X obj 713 175 t f f;
#X obj 762 174 t f f;
#X obj 813 175 t f f;
#X obj 862 174 t f f;
#N canvas 515 234 745 512 clean 0;
#X obj 49 56 inlet;
#X obj 49 81 t b b b;
#X obj 50 164 ../generics/counter 1e+09;
#X obj 49 136 until;
#X obj 50 188 + 1;
#X msg 49 113 4;
#X obj 49 365 soundfiler;
#X obj 127 82 table \$0_cleaner 2;
#X obj 115 277 symbol \$0_cleaner;
#X obj 48 235 ../generics/tempdir;
#X obj 81 257 makefilename lichtweiss_\$1_temp_%d.wav;
#X obj 49 313 pack s s s;
#X obj 49 213 t b f b;
#X msg 49 340 write -wave -nframes 2 \$1/\$2 \$3;
#X connect 0 0 1 0;
#X connect 1 0 5 0;
#X connect 1 2 2 2;
#X connect 2 0 4 0;
#X connect 3 0 2 0;
#X connect 4 0 12 0;
#X connect 5 0 3 0;
#X connect 8 0 11 2;
#X connect 9 0 11 0;
#X connect 10 0 11 1;
#X connect 11 0 13 0;
#X connect 12 0 9 0;
#X connect 12 1 10 0;
#X connect 12 2 8 0;
#X connect 13 0 6 0;
#X restore 217 115 pd clean;
#X text 104 12 1.) arg: <float> unique number to create soundfiles
;
#N canvas 126 37 1235 748 sequencer 0;
#X obj 390 79 inlet;
#X text 389 58 inc;
#X obj 163 92 inlet;
#X text 163 72 stop \, reset;
#X obj 127 693 outlet;
#X obj 640 697 outlet;
#X msg 853 600 rec1 1 \, play2 0 \, play3 0 \, play4 0;
#X msg 837 630 play1 0 \, play2 0 \, play3 0 \, play4 0;
#X msg 172 781 rec1 1 \, play2 0 \, play3 0 \, play4 0;
#X msg 186 756 rec1 0 \, play1 1 \, rec2 1;
#X msg 916 491 play1 1 \, play2 1 \, play3 1 \, play4 1;
#X msg 900 518 play1 1 \, play2 1 \, play3 1 \, rec4 1;
#X msg 867 575 play1 1 \, rec2 1 \, play3 0 \, play4 0;
#X msg 886 547 play1 1 \, play2 1 \, rec3 1 \, play4 0;
#X obj 754 699 outlet;
#X obj 492 85 inlet;
#X text 492 65 repeat;
#X obj 579 84 inlet;
#X text 579 64 back;
#X obj 492 111 t b;
#X obj 579 110 t b;
#X obj 161 191 ../generics/counter 1e+09;
#X msg 491 138 0;
#X msg 579 144 -1;
#X msg 296 240 0;
#X obj 295 216 sel 0;
#X obj 145 291 -;
#X obj 163 269 f;
#X obj 192 373 pack 0 0;
#X obj 162 242 t f b f;
#X msg 145 338 -1;
#X msg 178 339 1;
#X obj 162 218 % 6;
#X obj 163 114 t b b;
#X obj 145 313 sel 5 -5;
#X obj 840 445 sel 0 1 2 3 4 5;
#X obj 193 400 route -1 0 1;
#X msg 128 470 play1 1 \, play2 1 \, play3 1 \, play4 1;
#X msg 112 497 play1 1 \, play2 1 \, play3 1 \, rec4 1;
#X obj 52 424 sel 0 1 2 3 4 5;
#X msg 98 526 play1 1 \, play2 1 \, rec3 1 \, rec4 0;
#X msg 79 554 play1 1 \, rec2 1 \, rec3 0 \, rec4 0;
#X msg 65 579 rec1 1 \, rec2 0 \, rec3 0 \, rec4 0;
#X msg 50 607 rec1 0 \, rec2 0 \, rec3 0 \, rec4 0;
#X msg 420 635 play1 0 \, play2 0 \, play3 0 \, play4 0;
#X msg 499 496 play1 1 \, play2 1 \, play3 1 \, play4 1;
#X obj 423 450 sel 0 1 2 3 4 5;
#X msg 483 523 play1 1 \, play2 1 \, play3 1 \, rec4 1;
#X msg 469 552 play1 1 \, play2 1 \, rec3 1 \, play4 0;
#X msg 450 580 play1 1 \, rec2 1 \, play3 0 \, play4 0;
#X msg 436 605 rec1 1 \, play2 0 \, play3 0 \, play4 0;
#X obj 392 108 t b;
#X connect 0 0 51 0;
#X connect 2 0 33 0;
#X connect 6 0 4 0;
#X connect 7 0 4 0;
#X connect 10 0 4 0;
#X connect 11 0 4 0;
#X connect 12 0 4 0;
#X connect 13 0 4 0;
#X connect 15 0 19 0;
#X connect 17 0 20 0;
#X connect 19 0 22 0;
#X connect 20 0 23 0;
#X connect 21 0 32 0;
#X connect 21 0 25 0;
#X connect 22 0 21 0;
#X connect 23 0 21 0;
#X connect 24 0 5 0;
#X connect 25 0 24 0;
#X connect 26 0 34 0;
#X connect 27 0 26 1;
#X connect 28 0 36 0;
#X connect 29 0 27 1;
#X connect 29 0 26 0;
#X connect 29 1 27 0;
#X connect 29 2 28 1;
#X connect 29 2 5 0;
#X connect 30 0 28 0;
#X connect 31 0 28 0;
#X connect 32 0 29 0;
#X connect 33 0 21 0;
#X connect 33 1 21 2;
#X connect 34 0 30 0;
#X connect 34 1 31 0;
#X connect 34 2 28 0;
#X connect 35 0 14 0;
#X connect 35 0 7 0;
#X connect 35 1 6 0;
#X connect 35 2 12 0;
#X connect 35 3 13 0;
#X connect 35 4 11 0;
#X connect 35 5 10 0;
#X connect 36 0 39 0;
#X connect 36 1 46 0;
#X connect 36 2 35 0;
#X connect 37 0 4 0;
#X connect 38 0 4 0;
#X connect 39 0 43 0;
#X connect 39 1 42 0;
#X connect 39 2 41 0;
#X connect 39 3 40 0;
#X connect 39 4 38 0;
#X connect 39 5 37 0;
#X connect 40 0 4 0;
#X connect 41 0 4 0;
#X connect 42 0 4 0;
#X connect 43 0 4 0;
#X connect 44 0 4 0;
#X connect 45 0 4 0;
#X connect 46 0 44 0;
#X connect 46 1 50 0;
#X connect 46 2 49 0;
#X connect 46 3 48 0;
#X connect 46 4 47 0;
#X connect 46 5 45 0;
#X connect 47 0 4 0;
#X connect 48 0 4 0;
#X connect 49 0 4 0;
#X connect 50 0 4 0;
#X connect 51 0 21 0;
#X restore 388 158 pd sequencer;
#X msg 805 69 play1 0 \, rec1 0 \, play2 0 \, rec2 0 \, play3 0 \,
rec3 0 \, play4 0 \, rec4 0;
#N canvas 137 22 1070 407 spat_1->4_5___________________________ 0
;
#X obj 50 376 outlet~;
#X obj 112 378 outlet~;
#X obj 173 379 outlet~;
#X obj 235 381 outlet~;
#X obj 48 24 inlet~;
#X obj 149 87 ../generics/urn 4;
#X obj 623 152 ../generics/urn 3;
#X obj 623 173 sel 0 1 2;
#X msg 620 199 5;
#X msg 655 199 7;
#X msg 690 198 11;
#X obj 621 223 * 1000;
#X text 652 21 init;
#X obj 595 285 del 1000;
#X obj 621 115 del 100;
#X msg 402 107 0;
#X obj 148 111 sel 0 1 2 3;
#X msg 72 139 1;
#X msg 167 140 1;
#X msg 256 149 1;
#X msg 345 149 1;
#X obj 235 354 ../generics/line_mul~ 0 20;
#X obj 173 327 ../generics/line_mul~ 0 20;
#X obj 113 296 ../generics/line_mul~ 0 20;
#X obj 50 264 ../generics/line_mul~ 0 20;
#X obj 69 196 line 0 20;
#X obj 70 173 pack 0 1000;
#X obj 165 197 line 0 20;
#X obj 166 174 pack 0 1000;
#X obj 255 199 line 0 20;
#X obj 256 176 pack 0 1000;
#X obj 343 199 line 0 20;
#X obj 344 176 pack 0 1000;
#X obj 526 35 inlet;
#X text 525 18 fini;
#X obj 524 63 t b;
#X msg 524 84 stop;
#X floatatom 667 269 9 0 0 0 - - -;
#X obj 303 48 t b b b b;
#X obj 70 240 sin;
#X obj 895 99 expr 2*atan(1);
#X obj 69 218 * 1.57;
#X obj 166 242 sin;
#X obj 165 220 * 1.57;
#X obj 257 246 sin;
#X obj 256 224 * 1.57;
#X obj 346 249 sin;
#X obj 345 227 * 1.57;
#X floatatom 256 114 5 0 0 0 - - -;
#X obj 648 79 t b;
#X obj 650 36 inlet;
#X obj 650 58 t b b;
#X msg 738 58 seed 25;
#X msg 168 51 seed 35;
#X connect 4 0 21 0;
#X connect 4 0 22 0;
#X connect 4 0 23 0;
#X connect 4 0 24 0;
#X connect 5 0 16 0;
#X connect 5 0 48 0;
#X connect 6 0 7 0;
#X connect 7 0 8 0;
#X connect 7 1 9 0;
#X connect 7 2 10 0;
#X connect 8 0 11 0;
#X connect 9 0 11 0;
#X connect 10 0 11 0;
#X connect 11 0 13 1;
#X connect 11 0 26 1;
#X connect 11 0 32 1;
#X connect 11 0 30 1;
#X connect 11 0 28 1;
#X connect 11 0 37 0;
#X connect 13 0 38 0;
#X connect 14 0 13 0;
#X connect 15 0 32 0;
#X connect 15 0 30 0;
#X connect 15 0 28 0;
#X connect 15 0 26 0;
#X connect 16 0 17 0;
#X connect 16 1 18 0;
#X connect 16 2 19 0;
#X connect 16 3 20 0;
#X connect 17 0 26 0;
#X connect 18 0 28 0;
#X connect 19 0 30 0;
#X connect 20 0 32 0;
#X connect 21 0 3 0;
#X connect 22 0 2 0;
#X connect 23 0 1 0;
#X connect 24 0 0 0;
#X connect 25 0 41 0;
#X connect 26 0 25 0;
#X connect 27 0 43 0;
#X connect 28 0 27 0;
#X connect 29 0 45 0;
#X connect 30 0 29 0;
#X connect 31 0 47 0;
#X connect 32 0 31 0;
#X connect 33 0 35 0;
#X connect 35 0 36 0;
#X connect 36 0 14 0;
#X connect 36 0 13 0;
#X connect 36 0 31 0;
#X connect 36 0 29 0;
#X connect 36 0 27 0;
#X connect 36 0 25 0;
#X connect 38 0 13 0;
#X connect 38 1 5 0;
#X connect 38 2 15 0;
#X connect 38 3 6 0;
#X connect 39 0 24 1;
#X connect 40 0 41 1;
#X connect 40 0 43 1;
#X connect 40 0 45 1;
#X connect 40 0 47 1;
#X connect 41 0 39 0;
#X connect 42 0 23 1;
#X connect 43 0 42 0;
#X connect 44 0 22 1;
#X connect 45 0 44 0;
#X connect 46 0 21 1;
#X connect 47 0 46 0;
#X connect 49 0 5 2;
#X connect 49 0 6 2;
#X connect 49 0 14 0;
#X connect 49 0 21 3;
#X connect 49 0 22 3;
#X connect 49 0 23 3;
#X connect 49 0 24 3;
#X connect 49 0 40 0;
#X connect 50 0 51 0;
#X connect 51 0 52 0;
#X connect 51 0 53 0;
#X connect 51 1 49 0;
#X connect 52 0 6 0;
#X connect 53 0 5 0;
#X restore 377 622 pd spat_1->4_5___________________________;
#X obj 363 649 +~;
#X obj 444 649 +~;
#X obj 525 649 +~;
#X obj 606 649 +~;
#X obj 929 207 route gain1 gain2 gain3 gain4 gain5;
#X msg 819 374 0;
#X obj 682 84 route active;
#X obj 511 263 ../core/vu~;
#X obj 559 310 ../core/vu~;
#X obj 610 359 ../core/vu~;
#X obj 658 403 ../core/vu~;
#X obj 62 487 ../core/vu~;
#X obj 62 508 list prepend vu5;
#X obj 1109 478 list prepend rec1;
#X obj 1154 549 list prepend rec4;
#X obj 1140 525 list prepend rec3;
#X obj 1123 502 list prepend rec2;
#X obj 962 483 list prepend play1;
#X obj 1003 555 list prepend play4;
#X obj 991 529 list prepend play3;
#X obj 976 508 list prepend play2;
#X obj 810 491 list prepend time1;
#X obj 859 562 list prepend time4;
#X obj 843 540 list prepend time3;
#X obj 830 517 list prepend time2;
#X obj 810 243 del 22;
#X obj 512 287 list prepend vu1;
#X obj 559 333 list prepend vu2;
#X obj 610 381 list prepend vu3;
#X obj 658 424 list prepend vu4;
#X obj 46 566 ../generics/line_mul~ 0 50;
#X obj 362 506 ../generics/line_mul~ 0 50;
#X obj 347 482 ../generics/line_mul~ 0 50;
#X obj 332 458 ../generics/line_mul~ 0 50;
#X obj 316 433 ../generics/line_mul~ 0 50;
#N canvas 0 22 450 300 norm_pow2 0;
#X obj 70 29 inlet;
#X obj 72 184 outlet;
#X obj 70 56 / 127;
#X obj 71 110 *;
#X obj 71 85 t f f f;
#X connect 0 0 2 0;
#X connect 2 0 4 0;
#X connect 3 0 1 0;
#X connect 4 0 3 0;
#X connect 4 1 3 1;
#X restore 225 504 pd norm_pow2;
#N canvas 0 22 450 300 norm_pow2 0;
#X obj 70 29 inlet;
#X obj 72 184 outlet;
#X obj 70 56 / 127;
#X obj 71 110 *;
#X obj 71 85 t f f f;
#X connect 0 0 2 0;
#X connect 2 0 4 0;
#X connect 3 0 1 0;
#X connect 4 0 3 0;
#X connect 4 1 3 1;
#X restore 514 433 pd norm_pow2;
#N canvas 0 22 450 300 norm_pow2 0;
#X obj 70 29 inlet;
#X obj 72 184 outlet;
#X obj 70 56 / 127;
#X obj 71 110 *;
#X obj 71 85 t f f f;
#X connect 0 0 2 0;
#X connect 2 0 4 0;
#X connect 3 0 1 0;
#X connect 4 0 3 0;
#X connect 4 1 3 1;
#X restore 530 459 pd norm_pow2;
#N canvas 0 22 450 300 norm_pow2 0;
#X obj 70 29 inlet;
#X obj 72 184 outlet;
#X obj 70 56 / 127;
#X obj 71 110 *;
#X obj 71 85 t f f f;
#X connect 0 0 2 0;
#X connect 2 0 4 0;
#X connect 3 0 1 0;
#X connect 4 0 3 0;
#X connect 4 1 3 1;
#X restore 546 481 pd norm_pow2;
#N canvas 0 22 450 300 norm_pow2 0;
#X obj 70 29 inlet;
#X obj 72 184 outlet;
#X obj 70 56 / 127;
#X obj 71 110 *;
#X obj 71 85 t f f f;
#X connect 0 0 2 0;
#X connect 2 0 4 0;
#X connect 3 0 1 0;
#X connect 4 0 3 0;
#X connect 4 1 3 1;
#X restore 562 506 pd norm_pow2;
#N canvas 349 174 343 330 delay_chain 0;
#X obj 62 103 inlet;
#X obj 180 259 outlet;
#X obj 62 132 del 2000;
#X obj 63 158 del 2000;
#X obj 63 187 del 2000;
#X obj 62 212 del 2000;
#X connect 0 0 2 0;
#X connect 2 0 3 0;
#X connect 2 0 1 0;
#X connect 3 0 4 0;
#X connect 3 0 1 0;
#X connect 4 0 5 0;
#X connect 4 0 1 0;
#X connect 5 0 1 0;
#X restore 96 143 pd delay_chain;
#X obj 966 383 list prepend movement;
#X text 7 697 Achtung !!!! wieder auf 4 channels aendern;
#X obj 626 32 print debug;
#X obj 834 277 del 100;
#X obj 333 93 route pause stop step repeat back;
#N canvas 126 37 1235 748 sequencer_orig 0;
#X obj 119 80 inlet;
#X obj 116 185 t b;
#X obj 133 261 ../generics/counter 1e+09;
#X text 118 59 inc;
#X obj 359 85 inlet;
#X obj 359 149 t b;
#X text 359 65 stop \, reset;
#X obj 41 668 outlet;
#X obj 133 287 + 1;
#X obj 571 358 moses 1;
#X obj 640 697 outlet;
#X msg 85 636 rec1 1 \, play2 0 \, play3 0 \, play4 0;
#X msg 514 460 0;
#X obj 571 387 moses 6;
#X obj 79 466 sel 1 2 3 4 5 6;
#X text 158 111 entprellung ??;
#X obj 118 149 sel 0;
#X obj 206 163 print lift;
#X obj 554 272 print seq;
#X msg 162 496 play1 0 \, play2 0 \, play3 0 \, play4 0;
#X msg 172 781 rec1 1 \, play2 0 \, play3 0 \, play4 0;
#X msg 186 756 rec1 0 \, play1 1 \, rec2 1;
#X msg 680 494 rec2 0 \, play1 1 \, play2 1 \, rec3 1;
#X msg 694 465 rec3 0 \, play1 1 \, play2 1 \, play3 1 \, rec4 1;
#X msg 710 438 rec4 0 \, play1 1 \, play2 1 \, play3 1 \, play4 1;
#X msg 724 407 play1 0 \, play2 0 \, play3 0 \, play4 0;
#X msg 148 527 play1 1 \, play2 1 \, play3 1 \, play4 1;
#X msg 132 554 play1 1 \, play2 1 \, play3 1 \, rec4 1;
#X msg 99 611 play1 1 \, rec2 1 \, play3 0 \, play4 0;
#X msg 118 583 play1 1 \, play2 1 \, rec3 1 \, play4 0;
#X obj 754 699 outlet;
#X obj 492 85 inlet;
#X text 492 65 repeat;
#X obj 579 84 inlet;
#X text 579 64 back;
#X obj 492 122 t b;
#X obj 576 120 t b;
#X msg 148 224 0;
#X msg 192 226 -1;
#X obj 734 168 ../generics/counter 1e+09;
#X obj 923 119 t b;
#X obj 773 276 + 1;
#X obj 1135 328 moses 1;
#X obj 1135 357 moses 6;
#X msg 749 131 0;
#X msg 793 133 -1;
#X obj 717 133 bng 15 250 50 0 empty empty empty 17 7 0 10 -262144
-1 -1;
#X obj 922 99 bng 15 250 50 0 empty empty empty 17 7 0 10 -262144 -1
-1;
#X floatatom 1133 390 5 0 0 0 - - -;
#X obj 1124 413 bng 15 250 50 0 empty empty empty 17 7 0 10 -262144
-1 -1;
#X msg 905 258 0;
#X obj 773 251 % 5;
#X obj 815 232 sel 0;
#X obj 674 263 -;
#X obj 675 225 f;
#X obj 749 197 t f b f;
#X obj 728 371 pack 0 0;
#X obj 789 307 t f b f;
#X obj 803 372 print;
#X obj 669 305 sel 4 -4;
#X msg 669 330 -1;
#X msg 702 331 1;
#X connect 0 0 16 0;
#X connect 1 0 2 0;
#X connect 2 0 8 0;
#X connect 4 0 5 0;
#X connect 5 0 2 2;
#X connect 5 0 12 0;
#X connect 8 0 9 0;
#X connect 8 0 14 0;
#X connect 9 1 13 0;
#X connect 11 0 7 0;
#X connect 12 0 10 0;
#X connect 13 0 10 0;
#X connect 13 1 5 0;
#X connect 14 0 11 0;
#X connect 14 1 28 0;
#X connect 14 2 29 0;
#X connect 14 3 27 0;
#X connect 14 4 26 0;
#X connect 14 5 19 0;
#X connect 14 5 30 0;
#X connect 16 1 1 0;
#X connect 19 0 7 0;
#X connect 26 0 7 0;
#X connect 27 0 7 0;
#X connect 28 0 7 0;
#X connect 29 0 7 0;
#X connect 31 0 35 0;
#X connect 33 0 36 0;
#X connect 35 0 37 0;
#X connect 36 0 38 0;
#X connect 37 0 2 0;
#X connect 38 0 2 0;
#X connect 39 0 55 0;
#X connect 40 0 39 2;
#X connect 40 0 50 0;
#X connect 41 0 56 1;
#X connect 41 0 57 0;
#X connect 42 1 43 0;
#X connect 43 0 48 0;
#X connect 43 1 40 0;
#X connect 44 0 39 0;
#X connect 45 0 39 0;
#X connect 46 0 39 0;
#X connect 47 0 40 0;
#X connect 48 0 49 0;
#X connect 50 0 48 0;
#X connect 51 0 41 0;
#X connect 52 0 50 0;
#X connect 53 0 59 0;
#X connect 54 0 53 1;
#X connect 55 2 52 0;
#X connect 55 2 51 0;
#X connect 56 0 58 0;
#X connect 57 0 54 1;
#X connect 57 0 53 0;
#X connect 57 1 54 0;
#X connect 57 2 56 1;
#X connect 59 0 60 0;
#X connect 59 1 61 0;
#X connect 59 2 56 0;
#X connect 60 0 56 0;
#X connect 61 0 56 0;
#X restore 969 145 pd sequencer_orig;
#N canvas 0 22 450 300 adapt2bang 0;
#X obj 60 73 inlet;
#X obj 61 164 outlet;
#X obj 61 130 t b;
#X obj 140 73 inlet;
#X obj 141 164 outlet;
#X obj 141 130 t b;
#X obj 220 73 inlet;
#X obj 221 164 outlet;
#X obj 221 130 t b;
#X obj 300 73 inlet;
#X obj 301 164 outlet;
#X obj 301 130 t b;
#X connect 0 0 2 0;
#X connect 2 0 1 0;
#X connect 3 0 5 0;
#X connect 5 0 4 0;
#X connect 6 0 8 0;
#X connect 8 0 7 0;
#X connect 9 0 11 0;
#X connect 11 0 10 0;
#X restore 388 124 pd adapt2bang;
#X obj 887 268 + 2;
#N canvas 0 22 450 300 adapt2bang_org 0;
#X obj 60 73 inlet;
#X obj 61 164 outlet;
#X obj 60 104 sel 0;
#X obj 61 130 t b;
#X obj 140 73 inlet;
#X obj 141 164 outlet;
#X obj 140 104 sel 0;
#X obj 141 130 t b;
#X obj 220 73 inlet;
#X obj 221 164 outlet;
#X obj 220 104 sel 0;
#X obj 221 130 t b;
#X obj 300 73 inlet;
#X obj 301 164 outlet;
#X obj 300 104 sel 0;
#X obj 301 130 t b;
#X connect 0 0 2 0;
#X connect 2 1 3 0;
#X connect 3 0 1 0;
#X connect 4 0 6 0;
#X connect 6 1 7 0;
#X connect 7 0 5 0;
#X connect 8 0 10 0;
#X connect 10 1 11 0;
#X connect 11 0 9 0;
#X connect 12 0 14 0;
#X connect 14 1 15 0;
#X connect 15 0 13 0;
#X restore 509 116 pd adapt2bang_org;
#X connect 0 0 20 5;
#X connect 0 0 36 2;
#X connect 0 0 35 2;
#X connect 0 0 34 2;
#X connect 0 0 33 2;
#X connect 0 0 37 5;
#X connect 0 0 38 5;
#X connect 0 0 39 5;
#X connect 0 0 44 6;
#X connect 0 0 47 6;
#X connect 0 0 46 6;
#X connect 0 0 45 6;
#X connect 0 0 54 0;
#X connect 0 0 65 0;
#X connect 0 0 67 2;
#X connect 0 0 98 3;
#X connect 0 0 63 0;
#X connect 0 0 108 0;
#X connect 1 0 74 0;
#X connect 1 0 113 0;
#X connect 3 0 44 0;
#X connect 3 0 47 0;
#X connect 3 0 46 0;
#X connect 3 0 45 0;
#X connect 3 0 98 0;
#X connect 3 0 79 0;
#X connect 11 0 36 1;
#X connect 11 0 35 1;
#X connect 11 0 34 1;
#X connect 11 0 33 1;
#X connect 11 0 63 0;
#X connect 20 0 102 0;
#X connect 20 0 75 0;
#X connect 20 1 85 0;
#X connect 20 2 89 0;
#X connect 21 0 4 0;
#X connect 22 0 21 1;
#X connect 23 0 22 1;
#X connect 24 0 14 0;
#X connect 25 0 24 1;
#X connect 26 0 25 1;
#X connect 27 0 15 0;
#X connect 28 0 27 1;
#X connect 29 0 28 1;
#X connect 30 0 16 0;
#X connect 31 0 30 1;
#X connect 32 0 31 1;
#X connect 33 0 68 0;
#X connect 33 1 69 0;
#X connect 33 2 70 0;
#X connect 33 3 71 0;
#X connect 34 0 23 0;
#X connect 34 1 26 0;
#X connect 34 2 29 0;
#X connect 34 3 32 0;
#X connect 35 0 22 0;
#X connect 35 1 25 0;
#X connect 35 2 28 0;
#X connect 35 3 31 0;
#X connect 36 0 21 0;
#X connect 36 1 24 0;
#X connect 36 2 27 0;
#X connect 36 3 30 0;
#X connect 37 0 101 0;
#X connect 37 0 76 0;
#X connect 37 1 88 0;
#X connect 37 2 92 0;
#X connect 38 0 100 0;
#X connect 38 0 77 0;
#X connect 38 1 87 0;
#X connect 38 2 91 0;
#X connect 39 0 99 0;
#X connect 39 0 78 0;
#X connect 39 1 86 0;
#X connect 39 2 90 0;
#X connect 40 0 20 1;
#X connect 40 0 37 1;
#X connect 40 0 38 1;
#X connect 40 0 39 1;
#X connect 40 0 44 2;
#X connect 40 0 47 2;
#X connect 40 0 46 2;
#X connect 40 0 45 2;
#X connect 41 0 20 2;
#X connect 41 0 37 2;
#X connect 41 0 38 2;
#X connect 41 0 39 2;
#X connect 41 0 44 3;
#X connect 41 0 47 3;
#X connect 41 0 46 3;
#X connect 41 0 45 3;
#X connect 41 0 116 0;
#X connect 42 0 40 0;
#X connect 42 1 41 0;
#X connect 42 2 5 0;
#X connect 43 0 66 0;
#X connect 43 0 93 0;
#X connect 44 0 81 0;
#X connect 44 1 89 0;
#X connect 45 0 82 0;
#X connect 45 1 90 0;
#X connect 46 0 83 0;
#X connect 46 1 91 0;
#X connect 47 0 84 0;
#X connect 47 1 92 0;
#X connect 48 0 61 0;
#X connect 48 1 62 0;
#X connect 48 2 72 0;
#X connect 49 0 59 0;
#X connect 49 1 60 0;
#X connect 49 2 48 0;
#X connect 50 0 57 0;
#X connect 50 1 58 0;
#X connect 50 2 49 0;
#X connect 51 0 55 0;
#X connect 51 1 56 0;
#X connect 51 2 50 0;
#X connect 52 0 20 3;
#X connect 52 0 37 3;
#X connect 52 0 38 3;
#X connect 52 0 39 3;
#X connect 52 0 44 4;
#X connect 52 0 47 4;
#X connect 52 0 46 4;
#X connect 52 0 45 4;
#X connect 54 0 52 0;
#X connect 55 0 20 0;
#X connect 55 1 44 5;
#X connect 56 0 44 1;
#X connect 56 1 20 4;
#X connect 57 0 37 0;
#X connect 57 1 47 5;
#X connect 58 0 47 1;
#X connect 58 1 37 4;
#X connect 59 0 38 0;
#X connect 59 1 46 5;
#X connect 60 0 46 1;
#X connect 60 1 38 4;
#X connect 61 0 39 0;
#X connect 61 1 45 5;
#X connect 62 0 45 1;
#X connect 62 1 39 4;
#X connect 65 0 51 0;
#X connect 65 1 109 0;
#X connect 65 2 93 0;
#X connect 66 0 51 0;
#X connect 67 0 68 1;
#X connect 67 1 69 1;
#X connect 67 2 70 1;
#X connect 67 3 71 1;
#X connect 68 0 23 1;
#X connect 69 0 26 1;
#X connect 70 0 29 1;
#X connect 71 0 32 1;
#X connect 72 0 104 0;
#X connect 72 1 105 0;
#X connect 72 2 106 0;
#X connect 72 3 107 0;
#X connect 72 4 103 0;
#X connect 72 5 42 0;
#X connect 73 0 89 0;
#X connect 73 0 92 0;
#X connect 73 0 91 0;
#X connect 73 0 90 0;
#X connect 74 0 79 1;
#X connect 74 0 75 1;
#X connect 74 0 76 1;
#X connect 74 0 77 1;
#X connect 74 0 78 1;
#X connect 75 0 94 0;
#X connect 76 0 95 0;
#X connect 77 0 96 0;
#X connect 78 0 97 0;
#X connect 79 0 80 0;
#X connect 80 0 9 0;
#X connect 81 0 9 0;
#X connect 82 0 9 0;
#X connect 83 0 9 0;
#X connect 84 0 9 0;
#X connect 85 0 9 0;
#X connect 86 0 9 0;
#X connect 87 0 9 0;
#X connect 88 0 9 0;
#X connect 89 0 9 0;
#X connect 90 0 9 0;
#X connect 91 0 9 0;
#X connect 92 0 9 0;
#X connect 93 0 73 0;
#X connect 93 0 112 0;
#X connect 94 0 9 0;
#X connect 95 0 9 0;
#X connect 96 0 9 0;
#X connect 97 0 9 0;
#X connect 98 0 67 0;
#X connect 99 0 33 0;
#X connect 100 0 34 0;
#X connect 101 0 35 0;
#X connect 102 0 36 0;
#X connect 103 0 98 1;
#X connect 104 0 102 1;
#X connect 105 0 101 1;
#X connect 106 0 100 1;
#X connect 107 0 99 1;
#X connect 108 0 43 0;
#X connect 109 0 9 0;
#X connect 112 0 73 0;
#X connect 113 0 52 0;
#X connect 113 1 115 0;
#X connect 113 2 115 1;
#X connect 113 3 115 2;
#X connect 113 4 115 3;
#X connect 113 5 51 0;
#X connect 115 0 65 0;
#X connect 115 0 43 0;
#X connect 115 1 65 1;
#X connect 115 2 65 2;
#X connect 115 3 65 3;
#X connect 116 0 112 1;
