#N canvas 211 5 684 900 10;
#X obj 77 835 biquad~;
#X obj 323 418 expr 4*atan(1)/$f1;
#X obj 323 394 samplerate~;
#X obj 186 437 * 1;
#X obj 185 462 clip 1e-020 1.57079;
#X obj 499 396 expr 2*atan(1);
#X obj 186 484 expr cos($f1)/sin($f1);
#X obj 499 418 - 1e-007;
#X text 348 484 l;
#X obj 178 813 pack 0 0 0 0 0;
#X obj 79 78 inlet~;
#X obj 77 860 outlet~;
#X obj 170 77 inlet;
#X obj 235 78 inlet;
#X obj 302 78 inlet;
#X obj 368 78 inlet;
#X obj 438 78 inlet;
#X obj 170 157 f \$1;
#X obj 471 157 f \$5;
#X obj 401 157 f \$4;
#X obj 333 157 f \$3;
#X obj 265 157 f \$2;
#X text 170 47 gain;
#X text 172 36 low;
#X text 176 60 dB;
#X text 305 47 gain;
#X text 311 60 dB;
#X text 307 36 mid;
#X text 445 47 gain;
#X text 451 60 dB;
#X text 444 36 high;
#X text 245 60 Hz;
#X text 225 36 low-mid;
#X text 218 47 trans-freq;
#X text 381 60 Hz;
#X text 354 47 trans-freq;
#X text 361 36 mid-high;
#X obj 439 102 t b f;
#X obj 125 120 del 0;
#X obj 369 102 t b f;
#X obj 302 102 t b f;
#X obj 234 102 t b f;
#X text 147 372 mf;
#X text 306 371 rf;
#X obj 169 223 dbtorms;
#X obj 170 203 + 100;
#X obj 169 245 sqrt;
#X obj 333 222 dbtorms;
#X obj 334 202 + 100;
#X obj 332 244 sqrt;
#X obj 470 222 dbtorms;
#X obj 471 202 + 100;
#X obj 469 244 sqrt;
#X obj 265 202 sqrt;
#X obj 401 201 sqrt;
#X obj 170 298 expr $f1 \; $f2*$f4 \; $f3 \; $f4/$f2 \; $f5;
#X obj 471 180 clip -40 40;
#X obj 333 180 clip -40 40;
#X obj 170 180 clip -40 40;
#X obj 215 372 clip 1 10000;
#X text 242 347 lg mf mg rf hg;
#X text 267 508 lg l mg rf hg;
#X obj 171 509 expr $f1 \; $f3 \; $f5 \; $f2*$f4 \; $f2/$f4 \; $f2*$f2*$f5
\; $f2*$f2/$f5;
#X text 268 583 lg mg hg k1 k2 k4 k5;
#X text 372 648 k6;
#X text 372 661 k7;
#X text 372 674 k8;
#X text 372 687 k9;
#X text 372 635 k5;
#X text 372 612 lg;
#X obj 170 614 expr $f1 \; $f6 \; $f7 \; 1/$f1 + $f7 \; $f4/$f2 + $f5*$f2/($f1*$f3)
\; $f1 + $f6 \; $f4*$f2 + $f5*$f1*$f3/$f2 \;;
#X text 372 624 k4;
#X obj 178 717 expr 2*($f3-1/$f1)/($f4+$f5) \; ($f5-$f4)/($f4+$f5)
\; ($f6+$f7)/($f4+$f5) \; 2*($f1-$f2)/($f4+$f5) \; ($f6-$f7)/($f4+$f5)
;
#X obj 508 117 t b b b b b b;
#X obj 170 102 t b f;
#X text 26 17 low_middle_high_shelving_2p~ : shelving filter with 3
bands;
#X obj 517 77 inlet;
#X text 519 59 init-bang;
#X connect 0 0 11 0;
#X connect 1 0 3 1;
#X connect 2 0 1 0;
#X connect 3 0 4 0;
#X connect 4 0 6 0;
#X connect 5 0 7 0;
#X connect 6 0 62 1;
#X connect 7 0 4 2;
#X connect 9 0 0 0;
#X connect 10 0 0 0;
#X connect 12 0 74 0;
#X connect 13 0 41 0;
#X connect 14 0 40 0;
#X connect 15 0 39 0;
#X connect 16 0 37 0;
#X connect 17 0 58 0;
#X connect 18 0 56 0;
#X connect 19 0 54 0;
#X connect 20 0 57 0;
#X connect 21 0 53 0;
#X connect 37 0 38 0;
#X connect 37 1 18 0;
#X connect 38 0 17 0;
#X connect 39 0 38 0;
#X connect 39 1 19 0;
#X connect 40 0 38 0;
#X connect 40 1 20 0;
#X connect 41 0 38 0;
#X connect 41 1 21 0;
#X connect 44 0 46 0;
#X connect 45 0 44 0;
#X connect 46 0 55 0;
#X connect 47 0 49 0;
#X connect 48 0 47 0;
#X connect 49 0 55 2;
#X connect 50 0 52 0;
#X connect 51 0 50 0;
#X connect 52 0 55 4;
#X connect 53 0 55 1;
#X connect 54 0 55 3;
#X connect 55 0 62 0;
#X connect 55 1 3 0;
#X connect 55 2 62 2;
#X connect 55 3 59 0;
#X connect 55 4 62 4;
#X connect 56 0 51 0;
#X connect 57 0 48 0;
#X connect 58 0 45 0;
#X connect 59 0 62 3;
#X connect 62 0 70 0;
#X connect 62 1 70 1;
#X connect 62 2 70 2;
#X connect 62 3 70 3;
#X connect 62 4 70 4;
#X connect 62 5 70 5;
#X connect 62 6 70 6;
#X connect 70 0 72 0;
#X connect 70 1 72 1;
#X connect 70 2 72 2;
#X connect 70 3 72 3;
#X connect 70 4 72 4;
#X connect 70 5 72 5;
#X connect 70 6 72 6;
#X connect 72 0 9 0;
#X connect 72 1 9 1;
#X connect 72 2 9 2;
#X connect 72 3 9 3;
#X connect 72 4 9 4;
#X connect 73 0 17 0;
#X connect 73 1 21 0;
#X connect 73 2 20 0;
#X connect 73 3 19 0;
#X connect 73 4 18 0;
#X connect 73 5 2 0;
#X connect 73 5 5 0;
#X connect 74 0 38 0;
#X connect 74 1 17 1;
#X connect 76 0 73 0;
