#N canvas 584 22 669 385 10;
#X text 272 20 maximum file length: 5'00";
#X obj -49 290 outlet~;
#X obj -49 0 inlet~;
#X obj 110 2 inlet init;
#X text 262 342 J.R. Dooley 2011 \, Birmingham Conservatoire;
#X obj 308 296 outlet rejected_parameters;
#N canvas 0 22 374 515 mono/generator 0;
#X obj 28 451 outlet~;
#X obj 29 52 inlet~;
#X obj 274 67 inlet;
#X text 26 473 to active-module;
#X msg 267 221 1;
#X msg 302 221 0;
#X obj 267 167 sel 0;
#X obj 292 190 t b;
#X obj 164 231 clip 0 4;
#X text 193 212 range;
#X text 152 336 multiply mute and inv. bypass;
#X obj 171 263 t b f;
#X obj 157 312 * 1;
#X obj 156 287 f 1;
#X text 200 382 mute and out-level-gain;
#X text 24 32 from generator;
#X obj 168 60 inlet;
#X obj 29 382 ../generics/line_mul~ 1 5;
#X connect 1 0 17 0;
#X connect 2 0 6 0;
#X connect 4 0 11 0;
#X connect 5 0 11 0;
#X connect 6 0 4 0;
#X connect 6 1 7 0;
#X connect 7 0 5 0;
#X connect 8 0 13 0;
#X connect 11 0 13 0;
#X connect 11 1 12 1;
#X connect 12 0 17 1;
#X connect 13 0 12 0;
#X connect 16 0 8 0;
#X connect 17 0 0 0;
#X restore -49 232 pd mono/generator;
#N canvas 0 22 399 269 sf_read 0;
#X obj 41 23 inlet;
#X obj 205 204 outlet;
#X obj 41 112 soundfiler;
#X obj 41 67 pack s \$0;
#X msg 41 90 read -maxsize 1.323e+07 \$1 sample-\$2;
#X obj 41 145 s length-\$0;
#X obj 41 45 route importFile\$2;
#X connect 0 0 6 0;
#X connect 2 0 1 0;
#X connect 2 0 5 0;
#X connect 3 0 4 0;
#X connect 4 0 2 0;
#X connect 6 0 3 0;
#X restore 221 180 pd sf_read;
#N canvas 0 22 279 187 sf_write 0;
#X obj 39 109 soundfiler;
#X obj 39 -14 inlet;
#X obj 102 35 r length-\$0;
#X obj 39 60 pack s \$0 f;
#X msg 39 84 write -aiff -nframes \$3 \$1 sample-\$2;
#X obj 39 10 route exportFile\$2;
#X connect 1 0 5 0;
#X connect 2 0 3 2;
#X connect 3 0 4 0;
#X connect 4 0 0 0;
#X connect 5 0 3 0;
#X restore 14 182 pd sf_write;
#X obj 221 208 t a a;
#N canvas 197 249 613 651 join_datadir 0;
#X obj 233 116 symbol;
#X obj 232 386 makefilename %s%s;
#X obj 232 340 symbol;
#X obj 232 298 unpack s s;
#X obj 327 116 symbol;
#X msg 289 339 set \$1%s;
#X obj 233 25 inlet;
#X obj 232 495 outlet;
#X obj 232 470 list trim;
#X obj 445 164 outlet;
#X obj 232 270 ../generics/symbol_buddy;
#X obj 233 59 route importFile\$2 dataDirectory;
#X obj 232 428 list prepend importFile\$2;
#X connect 0 0 10 0;
#X connect 1 0 12 0;
#X connect 2 0 1 0;
#X connect 3 0 2 0;
#X connect 3 1 5 0;
#X connect 4 0 10 1;
#X connect 5 0 1 0;
#X connect 6 0 11 0;
#X connect 8 0 7 0;
#X connect 10 0 3 0;
#X connect 11 0 0 0;
#X connect 11 1 4 0;
#X connect 11 2 9 0;
#X connect 12 0 8 0;
#X restore 221 155 pd join_datadir;
#X obj 5 291 outlet messagesToIntegra;
#X obj 2 0 inlet messages;
#N canvas 671 173 600 628 playback 0;
#X obj 81 392 rpole~ 1;
#X obj 81 464 tabread4~ sample-\$0;
#X obj 81 573 outlet~;
#X obj 81 224 sig~;
#X obj 113 224 sig~ 1;
#X obj 81 258 *~;
#X obj 81 204 tgl 15 0 empty empty empty 17 7 0 10 -262144 -1 -1 0
1;
#X msg 137 90 0;
#X msg 126 366 set \$1;
#X obj 137 110 t f f;
#X obj 136 343 *;
#X obj 363 116 f;
#N canvas 229 62 356 340 loop 0;
#X obj 88 67 env~;
#X obj 88 92 dbtorms;
#X obj 88 113 /;
#X obj 88 133 clip 0 1;
#X obj 88 157 moses 1;
#X obj 138 93 r length-\$0;
#X obj 88 42 inlet~;
#X obj 244 176 r loop-\$0;
#X msg 127 181 0;
#X obj 241 256 s reset-\$0;
#X obj 241 233 spigot 0;
#X obj 127 233 spigot 1;
#X obj 244 201 == 0;
#X obj 127 256 s internalStop-\$0;
#X connect 0 0 1 0;
#X connect 1 0 2 0;
#X connect 2 0 3 0;
#X connect 3 0 4 0;
#X connect 4 1 8 0;
#X connect 5 0 2 1;
#X connect 6 0 0 0;
#X connect 7 0 12 0;
#X connect 7 0 10 1;
#X connect 8 0 10 0;
#X connect 8 0 11 0;
#X connect 10 0 9 0;
#X connect 11 0 13 0;
#X connect 12 0 11 1;
#X restore 99 421 pd loop;
#X obj 363 139 s length-\$0;
#X obj 81 23 inlet;
#X obj 136 299 r length-\$0;
#X obj 194 91 s loop-\$0;
#X obj 81 154 s start-\$0;
#X obj 81 182 r start-\$0;
#X obj 307 92 s relPosition-\$0;
#X obj 151 321 r relPosition-\$0;
#X obj 250 115 s speed-\$0;
#X obj 113 203 r speed-\$0;
#X obj 137 133 s stop-\$0;
#X obj 126 277 r stop-\$0;
#N canvas 0 22 392 341 relPosition 0;
#X obj 142 102 snapshot~;
#X obj 142 75 metro 50;
#X obj 142 143 /;
#X obj 142 163 clip 0 1;
#X obj 142 251 outlet relPosition;
#X obj 157 122 r length-\$0;
#X obj 59 66 inlet~;
#X obj 142 196 list prepend relPosition\$2;
#X msg 142 51 1;
#X obj 142 32 inlet init;
#X connect 0 0 2 0;
#X connect 1 0 0 0;
#X connect 2 0 3 0;
#X connect 3 0 7 0;
#X connect 5 0 2 1;
#X connect 6 0 0 0;
#X connect 7 0 4 0;
#X connect 8 0 1 0;
#X connect 9 0 8 0;
#X restore 220 389 pd relPosition;
#X obj 426 571 outlet rejectedMessages;
#X obj 242 597 outlet messagesToIntegra;
#X obj 242 475 list prepend play\$2;
#X obj 242 411 r start-\$0;
#X obj 118 255 r reset-\$0;
#X obj 253 497 list prepend record\$2;
#X obj 242 571 list trim;
#X obj 253 434 sel 1;
#X msg 253 454 0;
#X obj 478 30 inlet init;
#X obj 119 44 r internalStop-\$0;
#X obj 81 68 route play\$2 stop\$2 loop\$2 speed\$2 relPosition\$2
length\$2;
#X obj 253 520 list prepend int;
#X obj 220 539 list prepend other;
#X connect 0 0 1 0;
#X connect 0 0 12 0;
#X connect 0 0 25 0;
#X connect 1 0 2 0;
#X connect 3 0 5 0;
#X connect 4 0 5 1;
#X connect 5 0 0 0;
#X connect 6 0 3 0;
#X connect 7 0 9 0;
#X connect 8 0 0 0;
#X connect 9 0 23 0;
#X connect 9 1 17 0;
#X connect 10 0 8 0;
#X connect 11 0 13 0;
#X connect 14 0 37 0;
#X connect 15 0 10 0;
#X connect 18 0 6 0;
#X connect 20 0 10 1;
#X connect 22 0 4 0;
#X connect 24 0 8 0;
#X connect 25 0 39 0;
#X connect 28 0 38 0;
#X connect 29 0 28 0;
#X connect 29 0 33 0;
#X connect 30 0 8 0;
#X connect 31 0 38 0;
#X connect 32 0 27 0;
#X connect 33 0 34 0;
#X connect 34 0 31 0;
#X connect 35 0 25 1;
#X connect 36 0 7 0;
#X connect 37 0 17 0;
#X connect 37 1 7 0;
#X connect 37 2 16 0;
#X connect 37 3 21 0;
#X connect 37 4 19 0;
#X connect 37 5 11 0;
#X connect 37 6 26 0;
#X connect 38 0 32 0;
#X connect 39 0 32 0;
#X restore -49 95 pd playback;
#N canvas 575 22 410 561 record 0;
#X obj 80 67 inlet~;
#X obj 83 376 *~;
#X obj 83 451 tabwrite~ sample-\$0;
#X obj 156 326 *~;
#X obj 156 349 *~;
#X obj 156 303 vline~;
#X obj 156 251 t b b;
#X obj 156 216 sel 1 0;
#X msg 156 275 0 \, 1 5;
#X msg 206 275 1 \, 0 5;
#X obj 156 171 spigot 1;
#X obj 156 69 inlet record;
#X obj 170 146 != 1;
#X obj 250 396 timer;
#X obj 250 420 * 44.1;
#X obj 277 373 del 5;
#X obj 170 121 r start-\$0;
#X obj 250 445 list prepend length\$2;
#X obj 237 488 outlet rejectedMessages;
#X obj 156 96 route record\$2;
#X msg 144 419 stop;
#X msg 102 419 start;
#X obj 250 467 list trim;
#X obj 156 192 change;
#X connect 0 0 1 0;
#X connect 1 0 2 0;
#X connect 3 0 4 1;
#X connect 3 0 4 0;
#X connect 4 0 1 1;
#X connect 5 0 3 0;
#X connect 5 0 3 1;
#X connect 6 0 8 0;
#X connect 7 0 6 0;
#X connect 7 0 13 0;
#X connect 7 0 21 0;
#X connect 7 1 9 0;
#X connect 7 1 15 0;
#X connect 8 0 5 0;
#X connect 9 0 5 0;
#X connect 10 0 23 0;
#X connect 11 0 19 0;
#X connect 12 0 10 1;
#X connect 13 0 14 0;
#X connect 14 0 17 0;
#X connect 15 0 13 1;
#X connect 15 0 20 0;
#X connect 16 0 12 0;
#X connect 17 0 22 0;
#X connect 19 0 10 0;
#X connect 19 1 18 0;
#X connect 20 0 2 0;
#X connect 21 0 2 0;
#X connect 22 0 18 0;
#X connect 23 0 7 0;
#X restore -49 68 pd record;
#X obj 439 21 table sample-\$0 1.323e+07;
#N canvas 197 249 613 651 join_datadir 0;
#X obj 233 116 symbol;
#X obj 233 386 makefilename %s%s;
#X obj 232 340 symbol;
#X obj 232 298 unpack s s;
#X obj 347 115 symbol;
#X msg 289 345 set \$1%s;
#X obj 235 25 inlet;
#X obj 234 495 outlet;
#X obj 236 470 list trim;
#X obj 445 164 outlet;
#X obj 232 270 ../generics/symbol_buddy;
#X obj 234 59 route exportFile\$2 dataDirectory;
#X obj 233 429 list prepend exportFile\$2;
#X connect 0 0 10 0;
#X connect 1 0 12 0;
#X connect 2 0 1 0;
#X connect 3 0 2 0;
#X connect 3 1 5 0;
#X connect 4 0 10 1;
#X connect 5 0 1 0;
#X connect 6 0 11 0;
#X connect 8 0 7 0;
#X connect 10 0 3 0;
#X connect 11 0 0 0;
#X connect 11 1 4 0;
#X connect 11 2 9 0;
#X connect 12 0 8 0;
#X restore 14 156 pd join_datadir;
#X obj 14 126 route exportFile\$2 outLevel\$2 mute\$2;
#X connect 2 0 14 0;
#X connect 3 0 13 1;
#X connect 6 0 1 0;
#X connect 7 0 9 0;
#X connect 10 0 7 0;
#X connect 10 1 5 0;
#X connect 12 0 14 1;
#X connect 13 0 6 0;
#X connect 13 1 11 0;
#X connect 13 2 17 0;
#X connect 14 0 13 0;
#X connect 16 0 8 0;
#X connect 17 0 16 0;
#X connect 17 1 6 1;
#X connect 17 2 6 2;
#X connect 17 3 10 0;
