#N canvas 43 179 986 526 10;
#X obj 30 41 inlet~;
#X obj 300 50 inlet;
#X obj 685 37 inlet;
#X obj 29 450 outlet~;
#X obj 149 450 outlet~;
#X obj 539 450 outlet;
#X text 294 32 init-bang;
#X text 671 19 parameter;
#X obj 269 450 outlet~;
#X obj 389 450 outlet~;
#X text 25 21 sig.in;
#X obj 89 450 outlet~;
#X obj 209 450 outlet~;
#X obj 329 450 outlet~;
#X obj 449 450 outlet~;
#N canvas 0 22 620 554 init_table 0;
#X obj 78 287 t f f;
#X obj 229 261 expr atan(1)*4;
#X obj 78 357 * 3.14;
#X obj 78 385 / 512;
#X obj 77 414 sin;
#X obj 78 236 until;
#X obj 120 14 inlet;
#X msg 120 64 512;
#X msg 413 216 resize \$1;
#X msg 345 220 const 0;
#X obj 120 40 t b;
#X obj 413 188 + 3;
#X obj 120 93 t f f b f;
#X obj 169 409 + 1;
#X obj 399 270 s \$0-hsin;
#X obj 77 440 tabwrite \$0-hsin;
#X obj 78 261 ../generics/counter 512;
#X connect 0 0 2 0;
#X connect 0 1 13 0;
#X connect 1 0 2 1;
#X connect 2 0 3 0;
#X connect 3 0 4 0;
#X connect 4 0 15 0;
#X connect 5 0 16 0;
#X connect 6 0 10 0;
#X connect 7 0 12 0;
#X connect 8 0 14 0;
#X connect 9 0 14 0;
#X connect 10 0 7 0;
#X connect 11 0 8 0;
#X connect 12 0 5 0;
#X connect 12 1 3 1;
#X connect 12 1 16 1;
#X connect 12 2 1 0;
#X connect 12 2 9 0;
#X connect 12 2 16 2;
#X connect 12 3 11 0;
#X connect 13 0 15 1;
#X connect 16 0 0 0;
#X restore 580 139 pd init_table;
#N canvas 0 22 631 438 doc 0;
#X text 85 14 in general: we use | instead of backslash (pd and tcl/tk)
;
#X text 47 255 7: ______/|;
#X text 47 235 6: _____/|_;
#X text 47 215 5: ____/|__;
#X text 47 195 4: ___/|___;
#X text 47 177 3: __/|____;
#X text 47 156 2: _/|_____;
#X text 47 136 1: /|______;
#X text 47 115 0: |______/;
#X text 41 95 -1: ______/|;
#X text 47 275 8: |______/;
#X text 47 296 9: /|______;
#X restore 581 176 pd doc;
#X obj 579 117 bng 15 250 50 0 empty empty empty 17 7 0 10 -262144
-1 -1;
#X obj 576 77 table \$0-hsin;
#N canvas 0 22 450 300 (subpatch) 0;
#X obj 66 127 / 8;
#N canvas 525 135 382 330 wrap 0;
#X obj 97 42 inlet;
#X obj 107 182 outlet;
#X obj 107 156 -;
#X obj 98 66 t f f;
#X obj 126 100 i;
#X obj 71 100 moses 0;
#X obj 71 124 + 1;
#X connect 0 0 3 0;
#X connect 2 0 1 0;
#X connect 3 0 5 0;
#X connect 3 1 4 0;
#X connect 4 0 2 1;
#X connect 5 0 6 0;
#X connect 5 1 2 0;
#X connect 6 0 2 0;
#X restore 66 149 pd wrap;
#X text 120 148 should be changed to wrap (since pd-0.42);
#X obj 66 171 * 8;
#X obj 66 195 * 256;
#X obj 66 107 - 0;
#X obj 66 239 tabread4 \$0-hsin;
#X obj 66 217 + 1;
#X obj 46 55 + 1;
#X obj 46 21 inlet;
#X obj 295 19 inlet;
#X obj 65 263 outlet;
#X connect 0 0 1 0;
#X connect 1 0 3 0;
#X connect 3 0 4 0;
#X connect 4 0 7 0;
#X connect 5 0 0 0;
#X connect 6 0 11 0;
#X connect 7 0 6 0;
#X connect 8 0 5 0;
#X connect 9 0 8 0;
#X connect 10 0 5 1;
#X restore 73 243 pd;
#X msg 360 110 0 1 2 3 4 5 6 7;
#X obj 360 135 unpack 0 0 0 0 0 0 0 0;
#N canvas 0 22 450 300 (subpatch) 0;
#X obj 66 127 / 8;
#N canvas 525 135 382 330 wrap 0;
#X obj 97 42 inlet;
#X obj 107 182 outlet;
#X obj 107 156 -;
#X obj 98 66 t f f;
#X obj 126 100 i;
#X obj 71 100 moses 0;
#X obj 71 124 + 1;
#X connect 0 0 3 0;
#X connect 2 0 1 0;
#X connect 3 0 5 0;
#X connect 3 1 4 0;
#X connect 4 0 2 1;
#X connect 5 0 6 0;
#X connect 5 1 2 0;
#X connect 6 0 2 0;
#X restore 66 149 pd wrap;
#X text 120 148 should be changed to wrap (since pd-0.42);
#X obj 66 171 * 8;
#X obj 66 195 * 256;
#X obj 66 107 - 0;
#X obj 66 239 tabread4 \$0-hsin;
#X obj 66 217 + 1;
#X obj 46 55 + 1;
#X obj 46 21 inlet;
#X obj 295 19 inlet;
#X obj 65 263 outlet;
#X connect 0 0 1 0;
#X connect 1 0 3 0;
#X connect 3 0 4 0;
#X connect 4 0 7 0;
#X connect 5 0 0 0;
#X connect 6 0 11 0;
#X connect 7 0 6 0;
#X connect 8 0 5 0;
#X connect 9 0 8 0;
#X connect 10 0 5 1;
#X restore 134 291 pd;
#N canvas 0 22 450 300 (subpatch) 0;
#X obj 66 127 / 8;
#N canvas 525 135 382 330 wrap 0;
#X obj 97 42 inlet;
#X obj 107 182 outlet;
#X obj 107 156 -;
#X obj 98 66 t f f;
#X obj 126 100 i;
#X obj 71 100 moses 0;
#X obj 71 124 + 1;
#X connect 0 0 3 0;
#X connect 2 0 1 0;
#X connect 3 0 5 0;
#X connect 3 1 4 0;
#X connect 4 0 2 1;
#X connect 5 0 6 0;
#X connect 5 1 2 0;
#X connect 6 0 2 0;
#X restore 66 149 pd wrap;
#X text 120 148 should be changed to wrap (since pd-0.42);
#X obj 66 171 * 8;
#X obj 66 195 * 256;
#X obj 66 107 - 0;
#X obj 66 239 tabread4 \$0-hsin;
#X obj 66 217 + 1;
#X obj 46 55 + 1;
#X obj 46 21 inlet;
#X obj 295 19 inlet;
#X obj 65 263 outlet;
#X connect 0 0 1 0;
#X connect 1 0 3 0;
#X connect 3 0 4 0;
#X connect 4 0 7 0;
#X connect 5 0 0 0;
#X connect 6 0 11 0;
#X connect 7 0 6 0;
#X connect 8 0 5 0;
#X connect 9 0 8 0;
#X connect 10 0 5 1;
#X restore 194 339 pd;
#N canvas 0 22 450 300 (subpatch) 0;
#X obj 66 127 / 8;
#N canvas 525 135 382 330 wrap 0;
#X obj 97 42 inlet;
#X obj 107 182 outlet;
#X obj 107 156 -;
#X obj 98 66 t f f;
#X obj 126 100 i;
#X obj 71 100 moses 0;
#X obj 71 124 + 1;
#X connect 0 0 3 0;
#X connect 2 0 1 0;
#X connect 3 0 5 0;
#X connect 3 1 4 0;
#X connect 4 0 2 1;
#X connect 5 0 6 0;
#X connect 5 1 2 0;
#X connect 6 0 2 0;
#X restore 66 149 pd wrap;
#X text 120 148 should be changed to wrap (since pd-0.42);
#X obj 66 171 * 8;
#X obj 66 195 * 256;
#X obj 66 107 - 0;
#X obj 66 239 tabread4 \$0-hsin;
#X obj 66 217 + 1;
#X obj 46 55 + 1;
#X obj 46 21 inlet;
#X obj 295 19 inlet;
#X obj 65 263 outlet;
#X connect 0 0 1 0;
#X connect 1 0 3 0;
#X connect 3 0 4 0;
#X connect 4 0 7 0;
#X connect 5 0 0 0;
#X connect 6 0 11 0;
#X connect 7 0 6 0;
#X connect 8 0 5 0;
#X connect 9 0 8 0;
#X connect 10 0 5 1;
#X restore 254 388 pd;
#N canvas 0 22 450 300 (subpatch) 0;
#X obj 66 127 / 8;
#N canvas 525 135 382 330 wrap 0;
#X obj 97 42 inlet;
#X obj 107 182 outlet;
#X obj 107 156 -;
#X obj 98 66 t f f;
#X obj 126 100 i;
#X obj 71 100 moses 0;
#X obj 71 124 + 1;
#X connect 0 0 3 0;
#X connect 2 0 1 0;
#X connect 3 0 5 0;
#X connect 3 1 4 0;
#X connect 4 0 2 1;
#X connect 5 0 6 0;
#X connect 5 1 2 0;
#X connect 6 0 2 0;
#X restore 66 149 pd wrap;
#X text 120 148 should be changed to wrap (since pd-0.42);
#X obj 66 171 * 8;
#X obj 66 195 * 256;
#X obj 66 107 - 0;
#X obj 66 239 tabread4 \$0-hsin;
#X obj 66 217 + 1;
#X obj 46 55 + 1;
#X obj 46 21 inlet;
#X obj 295 19 inlet;
#X obj 65 263 outlet;
#X connect 0 0 1 0;
#X connect 1 0 3 0;
#X connect 3 0 4 0;
#X connect 4 0 7 0;
#X connect 5 0 0 0;
#X connect 6 0 11 0;
#X connect 7 0 6 0;
#X connect 8 0 5 0;
#X connect 9 0 8 0;
#X connect 10 0 5 1;
#X restore 314 243 pd;
#N canvas 0 22 450 300 (subpatch) 0;
#X obj 66 127 / 8;
#N canvas 525 135 382 330 wrap 0;
#X obj 97 42 inlet;
#X obj 107 182 outlet;
#X obj 107 156 -;
#X obj 98 66 t f f;
#X obj 126 100 i;
#X obj 71 100 moses 0;
#X obj 71 124 + 1;
#X connect 0 0 3 0;
#X connect 2 0 1 0;
#X connect 3 0 5 0;
#X connect 3 1 4 0;
#X connect 4 0 2 1;
#X connect 5 0 6 0;
#X connect 5 1 2 0;
#X connect 6 0 2 0;
#X restore 66 149 pd wrap;
#X text 120 148 should be changed to wrap (since pd-0.42);
#X obj 66 171 * 8;
#X obj 66 195 * 256;
#X obj 66 107 - 0;
#X obj 66 239 tabread4 \$0-hsin;
#X obj 66 217 + 1;
#X obj 46 55 + 1;
#X obj 46 21 inlet;
#X obj 295 19 inlet;
#X obj 65 263 outlet;
#X connect 0 0 1 0;
#X connect 1 0 3 0;
#X connect 3 0 4 0;
#X connect 4 0 7 0;
#X connect 5 0 0 0;
#X connect 6 0 11 0;
#X connect 7 0 6 0;
#X connect 8 0 5 0;
#X connect 9 0 8 0;
#X connect 10 0 5 1;
#X restore 375 291 pd;
#N canvas 0 22 450 300 (subpatch) 0;
#X obj 66 127 / 8;
#N canvas 525 135 382 330 wrap 0;
#X obj 97 42 inlet;
#X obj 107 182 outlet;
#X obj 107 156 -;
#X obj 98 66 t f f;
#X obj 126 100 i;
#X obj 71 100 moses 0;
#X obj 71 124 + 1;
#X connect 0 0 3 0;
#X connect 2 0 1 0;
#X connect 3 0 5 0;
#X connect 3 1 4 0;
#X connect 4 0 2 1;
#X connect 5 0 6 0;
#X connect 5 1 2 0;
#X connect 6 0 2 0;
#X restore 66 149 pd wrap;
#X text 120 148 should be changed to wrap (since pd-0.42);
#X obj 66 171 * 8;
#X obj 66 195 * 256;
#X obj 66 107 - 0;
#X obj 66 239 tabread4 \$0-hsin;
#X obj 66 217 + 1;
#X obj 46 55 + 1;
#X obj 46 21 inlet;
#X obj 295 19 inlet;
#X obj 65 263 outlet;
#X connect 0 0 1 0;
#X connect 1 0 3 0;
#X connect 3 0 4 0;
#X connect 4 0 7 0;
#X connect 5 0 0 0;
#X connect 6 0 11 0;
#X connect 7 0 6 0;
#X connect 8 0 5 0;
#X connect 9 0 8 0;
#X connect 10 0 5 1;
#X restore 435 339 pd;
#N canvas 0 22 450 300 (subpatch) 0;
#X obj 66 127 / 8;
#N canvas 525 135 382 330 wrap 0;
#X obj 97 42 inlet;
#X obj 107 182 outlet;
#X obj 107 156 -;
#X obj 98 66 t f f;
#X obj 126 100 i;
#X obj 71 100 moses 0;
#X obj 71 124 + 1;
#X connect 0 0 3 0;
#X connect 2 0 1 0;
#X connect 3 0 5 0;
#X connect 3 1 4 0;
#X connect 4 0 2 1;
#X connect 5 0 6 0;
#X connect 5 1 2 0;
#X connect 6 0 2 0;
#X restore 66 149 pd wrap;
#X text 120 148 should be changed to wrap (since pd-0.42);
#X obj 66 171 * 8;
#X obj 66 195 * 256;
#X obj 66 107 - 0;
#X obj 66 239 tabread4 \$0-hsin;
#X obj 66 217 + 1;
#X obj 46 55 + 1;
#X obj 46 21 inlet;
#X obj 295 19 inlet;
#X obj 65 263 outlet;
#X connect 0 0 1 0;
#X connect 1 0 3 0;
#X connect 3 0 4 0;
#X connect 4 0 7 0;
#X connect 5 0 0 0;
#X connect 6 0 11 0;
#X connect 7 0 6 0;
#X connect 8 0 5 0;
#X connect 9 0 8 0;
#X connect 10 0 5 1;
#X restore 495 388 pd;
#X obj 685 60 route panning;
#X obj 780 111 t a;
#X msg 780 61 panning \$1;
#X msg 316 113 0;
#X obj 495 176 t b b b b;
#X obj 323 171 t b b b b;
#X obj 420 174 t f f f f;
#X obj 254 168 t f f f f;
#X obj 316 138 t f f;
#X obj 300 73 t b b b b b b;
#X text 595 208 7.) parameter: "panning" \, type: <float>;
#X text 635 234 value of spatial position of input signal.;
#X text 625 222 unit [degree] \, initial-value: 0 \, range: (-180...+180)
;
#X text 685 403 ch1=-157.5;
#X text 667 370 ch2=-112.5;
#X text 668 334 ch3=-67.5;
#X text 692 301 ch4=-22.5;
#X text 762 301 ch5=+22.5;
#X text 788 334 ch6=+67.5;
#X text 787 371 ch7=+112.5;
#X text 761 403 ch8=+157.5;
#X obj 685 109 + 3.5;
#X obj 685 85 / 45;
#X obj 613 449 outlet;
#X obj 432 49 inlet;
#X text 426 32 fini-bang;
#X text 538 471 rejected;
#X text 626 472 out;
#X obj 28 265 ../generics/line_mul~ 1 20;
#X obj 89 313 ../generics/line_mul~ 0 20;
#X obj 149 361 ../generics/line_mul~ 0 20;
#X obj 209 410 ../generics/line_mul~ 0 20;
#X obj 450 410 ../generics/line_mul~ 0 20;
#X obj 390 361 ../generics/line_mul~ 0 20;
#X obj 330 313 ../generics/line_mul~ 0 20;
#X obj 269 265 ../generics/line_mul~ 0 20;
#X connect 0 0 57 0;
#X connect 0 0 58 0;
#X connect 0 0 59 0;
#X connect 0 0 60 0;
#X connect 0 0 61 0;
#X connect 0 0 62 0;
#X connect 0 0 63 0;
#X connect 0 0 64 0;
#X connect 1 0 38 0;
#X connect 2 0 29 0;
#X connect 17 0 15 0;
#X connect 19 0 57 1;
#X connect 20 0 21 0;
#X connect 21 0 19 1;
#X connect 21 1 22 1;
#X connect 21 2 23 1;
#X connect 21 3 24 1;
#X connect 21 4 25 1;
#X connect 21 5 26 1;
#X connect 21 6 27 1;
#X connect 21 7 28 1;
#X connect 22 0 58 1;
#X connect 23 0 59 1;
#X connect 24 0 60 1;
#X connect 25 0 64 1;
#X connect 26 0 63 1;
#X connect 27 0 62 1;
#X connect 28 0 61 1;
#X connect 29 0 51 0;
#X connect 29 1 5 0;
#X connect 31 0 30 0;
#X connect 32 0 37 0;
#X connect 33 0 64 3;
#X connect 33 1 63 3;
#X connect 33 2 62 3;
#X connect 33 3 61 3;
#X connect 34 0 57 3;
#X connect 34 1 58 3;
#X connect 34 2 59 3;
#X connect 34 3 60 3;
#X connect 35 0 25 0;
#X connect 35 1 26 0;
#X connect 35 2 27 0;
#X connect 35 3 28 0;
#X connect 36 0 19 0;
#X connect 36 1 22 0;
#X connect 36 2 23 0;
#X connect 36 3 24 0;
#X connect 37 0 36 0;
#X connect 37 1 35 0;
#X connect 38 1 32 0;
#X connect 38 2 20 0;
#X connect 38 3 34 0;
#X connect 38 4 33 0;
#X connect 38 5 15 0;
#X connect 50 0 37 0;
#X connect 51 0 50 0;
#X connect 57 0 3 0;
#X connect 58 0 11 0;
#X connect 59 0 4 0;
#X connect 60 0 12 0;
#X connect 61 0 14 0;
#X connect 62 0 9 0;
#X connect 63 0 13 0;
#X connect 64 0 8 0;
