#N canvas 166 109 986 526 10;
#X obj 135 41 inlet;
#X obj 454 45 inlet;
#X obj 29 450 outlet~;
#X obj 149 450 outlet~;
#X obj 523 451 outlet;
#X text 129 23 init-bang;
#X text 440 27 parameter;
#X obj 269 450 outlet~;
#X obj 389 450 outlet~;
#X obj 89 450 outlet~;
#X obj 209 450 outlet~;
#X obj 329 450 outlet~;
#X obj 449 450 outlet~;
#X obj 246 40 inlet;
#X text 240 22 fini-bang;
#X text 25 21 dummy;
#X obj 26 41 inlet;
#X obj 454 68 route play loadSound;
#X obj 106 345 readsf~ 8 256000 123456;
#X msg 106 316 open \$1;
#X obj 351 105 sel 0;
#X obj 378 130 t b;
#X obj 281 137 t b b b;
#X text 518 470 rejected;
#X obj 614 451 outlet;
#X text 611 470 out para;
#X obj 612 367 timer;
#X obj 639 341 metro 1000;
#X obj 613 393 * 0.001;
#X obj 622 282 t b f b;
#X msg 350 175 1;
#X msg 297 183 0;
#X obj 333 237 t f;
#X obj 349 209 spigot 1;
#X msg 434 179 1;
#X msg 399 178 0;
#X obj 106 293 symbol ../resources/sounds/viola2_example.wav;
#X obj 186 200 t b b;
#X obj 234 179 del 2;
#X obj 277 329 t b;
#X msg 277 349 0;
#X obj 613 423 list prepend pos;
#X obj 418 394 list prepend play;
#X connect 0 0 36 0;
#X connect 1 0 17 0;
#X connect 17 0 20 0;
#X connect 17 1 36 0;
#X connect 17 2 4 0;
#X connect 18 0 2 0;
#X connect 18 1 9 0;
#X connect 18 2 3 0;
#X connect 18 3 10 0;
#X connect 18 4 7 0;
#X connect 18 5 11 0;
#X connect 18 6 8 0;
#X connect 18 7 12 0;
#X connect 18 8 39 0;
#X connect 19 0 18 0;
#X connect 20 0 22 0;
#X connect 20 1 21 0;
#X connect 21 0 30 0;
#X connect 22 0 38 0;
#X connect 22 1 31 0;
#X connect 22 2 35 0;
#X connect 26 0 28 0;
#X connect 27 0 26 1;
#X connect 28 0 41 0;
#X connect 29 0 26 1;
#X connect 29 1 27 0;
#X connect 29 2 26 0;
#X connect 30 0 33 0;
#X connect 31 0 32 0;
#X connect 32 0 29 0;
#X connect 32 0 18 0;
#X connect 33 0 32 0;
#X connect 34 0 33 1;
#X connect 35 0 33 1;
#X connect 36 0 19 0;
#X connect 37 0 34 0;
#X connect 37 1 36 0;
#X connect 38 0 37 0;
#X connect 39 0 40 0;
#X connect 40 0 20 0;
#X connect 40 0 42 0;
#X connect 41 0 24 0;
#X connect 42 0 24 0;
