#N canvas 0 22 588 548 10;
#N canvas 0 22 606 651 highpass_1012_Hz__lowpass_1520_Hz 0;
#X obj 119 58 inlet~;
#X obj 119 364 outlet~;
#X obj 122 180 biquad~ 1.73327 -0.75144 0.871176 -1.74235 0.871176
;
#X obj 119 92 biquad~ 1.93574 -0.956033 0.972942 -1.94588 0.972942
;
#X obj 119 113 biquad~ 1.85804 -0.877525 0.933892 -1.86778 0.933892
;
#X obj 120 135 biquad~ 1.7967 -0.815539 0.903059 -1.80612 0.903059
;
#X obj 121 157 biquad~ 1.75461 -0.77301 0.881905 -1.76381 0.881905
;
#X text 52 150 HP_1012;
#X obj 119 322 biquad~ 1.61132 -0.649853 0.00963445 0.0192689 0.00963445
;
#X obj 119 232 biquad~ 1.88976 -0.934959 0.0112993 0.0225987 0.0112993
;
#X obj 119 254 biquad~ 1.77967 -0.822239 0.0106411 0.0212822 0.0106411
;
#X obj 119 277 biquad~ 1.69565 -0.736203 0.0101387 0.0202774 0.0101387
;
#X obj 119 299 biquad~ 1.63941 -0.678621 0.00980244 0.0196049 0.00980244
;
#X text 56 281 LP_1520;
#X connect 0 0 3 0;
#X connect 2 0 9 0;
#X connect 3 0 4 0;
#X connect 4 0 5 0;
#X connect 5 0 6 0;
#X connect 6 0 2 0;
#X connect 8 0 1 0;
#X connect 9 0 10 0;
#X connect 10 0 11 0;
#X connect 11 0 12 0;
#X connect 12 0 8 0;
#X restore 210 221 pd highpass_1012_Hz__lowpass_1520_Hz;
#N canvas 0 22 564 555 highpass_675_Hz__lowpass_1012_Hz 0;
#X obj 119 58 inlet~;
#X obj 116 356 outlet~;
#X obj 118 182 biquad~ 1.81831 -0.826749 0.911264 -1.82253 0.911264
;
#X obj 118 97 biquad~ 1.9613 -0.970402 0.982925 -1.96585 0.982925;
#X obj 118 117 biquad~ 1.9076 -0.916455 0.956014 -1.91203 0.956014
;
#X obj 118 137 biquad~ 1.86418 -0.872837 0.934255 -1.86851 0.934255
;
#X obj 119 159 biquad~ 1.83386 -0.842372 0.919058 -1.83812 0.919058
;
#X text 62 143 HP_675;
#X obj 116 311 biquad~ 1.73327 -0.75144 0.00454356 0.00908712 0.00454356
;
#X obj 115 224 biquad~ 1.93574 -0.956033 0.00507431 0.0101486 0.00507431
;
#X obj 115 246 biquad~ 1.85804 -0.877525 0.00487065 0.0097413 0.00487065
;
#X obj 115 268 biquad~ 1.7967 -0.815539 0.00470984 0.00941969 0.00470984
;
#X obj 116 289 biquad~ 1.75461 -0.77301 0.00459952 0.00919903 0.00459952
;
#X text 53 266 LP_1012;
#X connect 0 0 3 0;
#X connect 2 0 9 0;
#X connect 3 0 4 0;
#X connect 4 0 5 0;
#X connect 5 0 6 0;
#X connect 6 0 2 0;
#X connect 8 0 1 0;
#X connect 9 0 10 0;
#X connect 10 0 11 0;
#X connect 11 0 12 0;
#X connect 12 0 8 0;
#X restore 176 189 pd highpass_675_Hz__lowpass_1012_Hz;
#N canvas 0 22 589 443 highpass_300_Hz__lowpass_450_Hz 0;
#X obj 119 58 inlet~;
#X obj 121 363 outlet~;
#X obj 119 189 biquad~ 1.91726 -0.919011 0.959067 -1.91813 0.959067
;
#X obj 119 102 biquad~ 1.98491 -0.98672 0.992906 -1.98581 0.992906
;
#X obj 119 124 biquad~ 1.96015 -0.961941 0.980522 -1.96104 0.980522
;
#X obj 119 147 biquad~ 1.93957 -0.941343 0.970228 -1.94046 0.970228
;
#X obj 120 168 biquad~ 1.92489 -0.926648 0.962884 -1.92577 0.962884
;
#X text 67 144 HP_300;
#X obj 125 315 biquad~ 1.8771 -0.880969 0.000966163 0.00193233 0.000966163
;
#X obj 123 228 biquad~ 1.97608 -0.980153 0.00101711 0.00203422 0.00101711
;
#X obj 123 249 biquad~ 1.93948 -0.94347 0.000998267 0.00199653 0.000998267
;
#X obj 124 271 biquad~ 1.90939 -0.913318 0.000982779 0.00196556 0.000982779
;
#X obj 125 292 biquad~ 1.8881 -0.891992 0.000971825 0.00194365 0.000971825
;
#X text 69 264 LP_450;
#X connect 0 0 3 0;
#X connect 2 0 9 0;
#X connect 3 0 4 0;
#X connect 4 0 5 0;
#X connect 5 0 6 0;
#X connect 6 0 2 0;
#X connect 8 0 1 0;
#X connect 9 0 10 0;
#X connect 10 0 11 0;
#X connect 11 0 12 0;
#X connect 12 0 8 0;
#X restore 136 157 pd highpass_300_Hz__lowpass_450_Hz;
#N canvas 0 22 570 567 highpass_133_Hz__lowpass_200_Hz 0;
#X obj 119 58 inlet~;
#X obj 116 511 outlet~;
#X obj 113 239 biquad~ 1.96291 -0.963258 0.981541 -1.96308 0.981541
;
#X obj 116 154 biquad~ 1.99373 -0.994089 0.996955 -1.99391 0.996955
;
#X obj 116 174 biquad~ 1.98259 -0.982942 0.991382 -1.98276 0.991382
;
#X obj 116 196 biquad~ 1.9732 -0.973558 0.98669 -1.97338 0.98669;
#X obj 115 217 biquad~ 1.96644 -0.966795 0.983309 -1.96662 0.983309
;
#X text 56 187 HP_133;
#X obj 115 415 biquad~ 1.94447 -0.945259 0.000197424 0.000394849 0.000197424
;
#X obj 113 285 biquad~ 1.99032 -0.991126 0.000202079 0.000404159 0.000202079
;
#X obj 113 317 biquad~ 1.97366 -0.974461 0.000200388 0.000400776 0.000200388
;
#X obj 114 350 biquad~ 1.95971 -0.960503 0.000198971 0.000397943 0.000198971
;
#X obj 114 383 biquad~ 1.94969 -0.950485 0.000197955 0.000395909 0.000197955
;
#X text 59 319 LP_200;
#X connect 0 0 3 0;
#X connect 2 0 9 0;
#X connect 3 0 4 0;
#X connect 4 0 5 0;
#X connect 5 0 6 0;
#X connect 6 0 2 0;
#X connect 8 0 1 0;
#X connect 9 0 10 0;
#X connect 10 0 11 0;
#X connect 11 0 12 0;
#X connect 12 0 8 0;
#X restore 100 129 pd highpass_133_Hz__lowpass_200_Hz;
#N canvas 16 24 529 524 highpass_60_Hz__lowpass_90_Hz 0;
#X obj 116 69 inlet~;
#X obj 110 439 outlet~;
#X obj 111 381 biquad~ 1.97483 -0.974988 4.05916e-05 8.11832e-05 4.05916e-05
;
#X obj 109 247 biquad~ 1.99583 -0.995996 4.10234e-05 8.20467e-05 4.10234e-05
;
#X obj 109 280 biquad~ 1.98826 -0.988425 4.08678e-05 8.17355e-05 4.08678e-05
;
#X obj 109 314 biquad~ 1.98187 -0.982029 4.07363e-05 8.14726e-05 4.07363e-05
;
#X obj 110 346 biquad~ 1.97725 -0.977408 4.06413e-05 8.12827e-05 4.06413e-05
;
#X text 49 279 LP_90;
#X obj 114 200 biquad~ 1.98318 -0.983255 0.991609 -1.98322 0.991609
;
#X obj 114 120 biquad~ 1.99726 -0.997329 0.998646 -1.99729 0.998646
;
#X obj 115 139 biquad~ 1.9922 -0.992268 0.996116 -1.99223 0.996116
;
#X obj 115 160 biquad~ 1.98791 -0.987983 0.993973 -1.98795 0.993973
;
#X obj 114 180 biquad~ 1.98481 -0.984882 0.992423 -1.98485 0.992423
;
#X text 60 158 HP_60;
#X connect 0 0 9 0;
#X connect 2 0 1 0;
#X connect 3 0 4 0;
#X connect 4 0 5 0;
#X connect 5 0 6 0;
#X connect 6 0 2 0;
#X connect 8 0 3 0;
#X connect 9 0 10 0;
#X connect 10 0 11 0;
#X connect 11 0 12 0;
#X connect 12 0 8 0;
#X restore 67 101 pd highpass_60_Hz__lowpass_90_Hz;
#X obj 95 20 inlet~;
#X obj 122 420 outlet~;
#X obj 209 243 *~ 0.5;
#X obj 182 295 +~;
#X obj 162 323 +~;
#X obj 142 353 +~;
#X obj 122 381 +~;
#X obj 170 18 inlet;
#X obj 236 19 inlet;
#X obj 299 19 inlet;
#X obj 376 417 outlet;
#X connect 0 0 7 0;
#X connect 1 0 8 0;
#X connect 2 0 9 0;
#X connect 3 0 10 0;
#X connect 4 0 11 0;
#X connect 5 0 4 0;
#X connect 5 0 3 0;
#X connect 5 0 2 0;
#X connect 5 0 1 0;
#X connect 5 0 0 0;
#X connect 7 0 8 1;
#X connect 8 0 9 1;
#X connect 9 0 10 1;
#X connect 10 0 11 1;
#X connect 11 0 6 0;
#X connect 14 0 15 0;
