#N canvas 257 54 865 714 10;
#X obj 59 291 ../core/quad_panner~;
#X obj 46 551 outlet~;
#X text 62 570 1;
#X obj 105 551 outlet~;
#X obj 163 551 outlet~;
#X obj 222 551 outlet~;
#X obj 281 550 outlet~;
#X obj 340 550 outlet~;
#X text 121 570 2;
#X text 179 570 3;
#X text 238 570 4;
#X text 297 569 5;
#X text 356 569 6;
#X obj 58 42 inlet~;
#X obj 181 353 ../core/quad_panner~;
#X obj 292 442 ../core/quad_panner~;
#X obj 448 39 inlet;
#X obj 560 40 inlet;
#X obj 679 40 inlet;
#X obj 614 550 outlet;
#N canvas 671 454 450 300 rotate_12.7sec 0;
#X obj 161 31 inlet;
#X obj 55 256 outlet;
#X msg 54 234 panning \$1;
#X msg 162 56 1 12.7;
#X obj 162 81 /;
#X floatatom 162 104 9 0 0 0 - - -;
#X obj 90 132 phasor~ 0.07874;
#X obj 55 163 snapshot~;
#X obj 55 186 - 0.5;
#X obj 54 210 * 360;
#X text 163 12 init;
#X obj 43 30 inlet;
#X text 45 11 snap;
#X connect 0 0 3 0;
#X connect 2 0 1 0;
#X connect 3 0 4 0;
#X connect 4 0 5 0;
#X connect 5 0 6 0;
#X connect 6 0 7 0;
#X connect 7 0 8 0;
#X connect 8 0 9 0;
#X connect 9 0 2 0;
#X connect 11 0 7 0;
#X restore 393 213 pd rotate_12.7sec;
#N canvas 671 454 450 300 rotate_10.6sec 0;
#X obj 161 31 inlet;
#X obj 55 256 outlet;
#X msg 54 234 panning \$1;
#X obj 162 81 /;
#X floatatom 162 104 9 0 0 0 - - -;
#X obj 55 163 snapshot~;
#X obj 55 186 - 0.5;
#X obj 54 210 * 360;
#X text 163 12 init;
#X obj 43 30 inlet;
#X text 45 11 snap;
#X msg 162 56 1 10.6;
#X obj 90 132 phasor~ 0.09434;
#X connect 0 0 11 0;
#X connect 2 0 1 0;
#X connect 3 0 4 0;
#X connect 4 0 12 0;
#X connect 5 0 6 0;
#X connect 6 0 7 0;
#X connect 7 0 2 0;
#X connect 9 0 5 0;
#X connect 11 0 3 0;
#X connect 12 0 5 0;
#X restore 436 283 pd rotate_10.6sec;
#N canvas 671 454 450 300 rotate_8.45sec 0;
#X obj 161 31 inlet;
#X obj 55 256 outlet;
#X msg 54 234 panning \$1;
#X obj 162 81 /;
#X floatatom 162 104 9 0 0 0 - - -;
#X obj 55 163 snapshot~;
#X obj 55 186 - 0.5;
#X obj 54 210 * 360;
#X text 163 12 init;
#X obj 43 30 inlet;
#X text 45 11 snap;
#X msg 162 56 1 8.45;
#X obj 90 132 phasor~ 0.11834;
#X connect 0 0 11 0;
#X connect 2 0 1 0;
#X connect 3 0 4 0;
#X connect 4 0 12 0;
#X connect 5 0 6 0;
#X connect 6 0 7 0;
#X connect 7 0 2 0;
#X connect 9 0 5 0;
#X connect 11 0 3 0;
#X connect 12 0 5 0;
#X restore 497 358 pd rotate_8.45sec;
#X obj 421 149 metro 20;
#X msg 421 124 1;
#X obj 421 171 t b b b;
#X text 435 21 init-bang;
#X text 573 575 rejected parameter;
#X obj 751 548 outlet;
#X text 717 575 outgoing parameters;
#X text 674 21 incoming parameters;
#X text 548 20 fini-bang;
#X text 67 21 sig;
#X connect 0 0 1 0;
#X connect 0 1 3 0;
#X connect 0 2 5 0;
#X connect 0 3 6 0;
#X connect 13 0 0 0;
#X connect 13 0 14 0;
#X connect 13 0 15 0;
#X connect 14 0 3 0;
#X connect 14 1 5 0;
#X connect 14 2 7 0;
#X connect 14 3 4 0;
#X connect 15 0 6 0;
#X connect 15 1 4 0;
#X connect 15 2 1 0;
#X connect 15 3 5 0;
#X connect 16 0 24 0;
#X connect 16 0 20 1;
#X connect 16 0 21 1;
#X connect 16 0 22 1;
#X connect 16 0 0 1;
#X connect 16 0 14 1;
#X connect 16 0 15 1;
#X connect 18 0 19 0;
#X connect 20 0 0 3;
#X connect 21 0 14 3;
#X connect 22 0 15 3;
#X connect 23 0 25 0;
#X connect 24 0 23 0;
#X connect 25 0 20 0;
#X connect 25 1 21 0;
#X connect 25 2 22 0;
