#N canvas 428 301 644 388 12;
#X obj 40 81 inlet~;
#X obj 156 80 inlet;
#X obj 406 84 inlet;
#X text 150 62 init-bang;
#X obj 55 312 outlet~;
#N canvas 144 51 1296 716 parameter_record_load_tables 0;
#X obj 47 50 inlet~;
#X obj 141 55 inlet;
#X obj 252 56 inlet;
#X text 252 38 init-bang;
#X text 140 34 parameters;
#X obj 1099 478 t a;
#X obj 403 637 outlet;
#X text 673 566 unit [cents] \, initial-value: 0 \, range: (-2400 ...
+2400);
#X text 683 578 minimum value of pitch transposing of the sample grain.
;
#X text 376 655 rejected para;
#N canvas 0 22 909 700 load_sound_into_table 0;
#X obj 60 43 inlet;
#X obj 60 70 symbol;
#X obj 60 222 soundfiler;
#X msg 60 192 read -resize \$1 \$2;
#X obj 60 167 pack s s;
#X obj 332 43 inlet;
#X text 315 26 select table;
#X obj 138 130 symbol \$0-sound-1;
#X obj 332 69 clip 1 5;
#X obj 332 95 makefilename \$0-sound-%d;
#X obj 225 216 s \$0-in-samprate;
#X msg 225 189 44100;
#X obj 271 289 f 1;
#X obj 271 320 outlet;
#X obj 60 94 t b s b;
#X obj 60 256 t b;
#X connect 0 0 1 0;
#X connect 1 0 14 0;
#X connect 2 0 15 0;
#X connect 3 0 2 0;
#X connect 4 0 3 0;
#X connect 5 0 8 0;
#X connect 7 0 4 1;
#X connect 8 0 9 0;
#X connect 8 0 12 1;
#X connect 9 0 7 1;
#X connect 11 0 10 0;
#X connect 12 0 13 0;
#X connect 14 1 4 0;
#X connect 14 2 7 0;
#X connect 14 2 11 0;
#X connect 15 0 12 0;
#X restore 125 388 pd load_sound_into_table;
#X text 674 445 the soundfile storage for playing back.;
#X text 674 226 unit [sec] \, initial-value: 10 \, range: (0.1..90)
\, resizes;
#X text 674 172 initial-value: - \, range: - \, loads the soundfile
;
#X text 674 185 content from harddisk into the previously selected
pd array.;
#X text 674 239 the previously selected pd array (soundfile storage).
;
#X text 674 371 from signal input to the previously selected pd array
(soundfile storage).;
#X text 674 105 unit [-] \, initial-value: 1 \, range: (1..5) \, selects
;
#X text 674 432 unit [-] \, initial-value: 1 \, range: (1..5) \, selects
;
#N canvas 0 22 468 355 resize_table 0;
#X obj 60 27 inlet;
#X obj 267 42 inlet;
#X text 250 25 select table;
#X obj 138 209 symbol \$0-sound-1;
#X obj 267 68 clip 1 5;
#X obj 267 94 makefilename \$0-sound-%d;
#X obj 60 246 pack f s;
#X msg 60 269 \; \$2 resize \$1;
#X obj 98 93 samplerate~;
#X obj 60 120 * 44100;
#X obj 60 59 clip 0.1 90;
#X obj 261 279 f 1;
#X obj 60 173 t b f b;
#X obj 261 310 outlet;
#X connect 0 0 10 0;
#X connect 1 0 4 0;
#X connect 3 0 6 1;
#X connect 4 0 5 0;
#X connect 4 0 11 1;
#X connect 5 0 3 1;
#X connect 6 0 7 0;
#X connect 8 0 9 1;
#X connect 9 0 12 0;
#X connect 10 0 9 0;
#X connect 11 0 13 0;
#X connect 12 0 11 0;
#X connect 12 1 6 0;
#X connect 12 2 3 0;
#X restore 183 420 pd resize_table;
#N canvas 535 69 709 519 record_sound_into_table 0;
#X obj 145 41 inlet;
#X obj 406 42 inlet;
#X text 389 25 select table;
#X obj 290 138 symbol \$0-sound-1;
#X obj 406 68 clip 1 5;
#X obj 406 94 makefilename \$0-sound-%d;
#X obj 60 42 inlet~;
#X obj 60 403 tabwrite~ \$0-sound-1;
#X msg 80 357 set \$1;
#X obj 269 71 samplerate~;
#X obj 269 95 s \$0-in-samprate;
#X obj 267 242 sel 1 0;
#X obj 60 248 ../generics/line_mul~ 0 20;
#X obj 625 45 inlet;
#X text 618 22 init;
#X obj 313 465 outlet;
#X text 318 487 out;
#X obj 313 338 del 100;
#X msg 313 306 stop;
#X obj 267 272 t b b b;
#X obj 359 224 expr size("$s1");
#X obj 145 77 t f f b b;
#X obj 359 304 / 44.1;
#X obj 398 279 * 0.001;
#X obj 398 256 r \$0-in-samprate;
#X obj 313 415 list prepend int;
#X obj 313 389 list prepend recSound;
#X msg 313 365 0;
#X obj 313 439 list trim;
#X connect 0 0 21 0;
#X connect 1 0 4 0;
#X connect 3 0 8 0;
#X connect 3 0 20 0;
#X connect 4 0 5 0;
#X connect 5 0 3 1;
#X connect 6 0 12 0;
#X connect 8 0 7 0;
#X connect 9 0 10 0;
#X connect 11 0 19 0;
#X connect 12 0 7 0;
#X connect 13 0 12 3;
#X connect 17 0 27 0;
#X connect 18 0 17 0;
#X connect 19 0 17 0;
#X connect 19 1 7 0;
#X connect 19 2 18 0;
#X connect 20 0 22 0;
#X connect 21 0 11 0;
#X connect 21 1 12 1;
#X connect 21 2 3 0;
#X connect 21 3 9 0;
#X connect 22 0 17 1;
#X connect 23 0 22 1;
#X connect 24 0 23 0;
#X connect 25 0 28 0;
#X connect 26 0 25 0;
#X connect 27 0 26 0;
#X connect 28 0 15 0;
#X restore 265 452 pd record_sound_into_table;
#X text 46 30 sig.in;
#X msg 1099 285 selEditSoundIndex \$1;
#X msg 1099 308 loadSound \$1;
#X msg 1099 331 resizeSound \$1;
#X msg 1099 376 selPlaybackSoundIndex \$1;
#X obj 567 573 print;
#X text 674 494 unit [-] \, initial-value: 0.1 \, range: (0 ... 1)
;
#X text 684 518 (0 .. begin of sample \, 1 .. end of sample).;
#X text 644 90 7.) parameter: "selEditSoundIndex" \, type: <float>
;
#X text 644 157 8.) parameter: "loadSound" \, type: <symbol> \, unit
[-];
#X text 684 506 relative value of position in playback sample.;
#X text 438 292 pos;
#X text 471 316 transp;
#X floatatom 60 338 5 0 0 0 - #0-window-size -;
#X msg 60 226 512;
#X msg 60 248 1024;
#X msg 60 270 2048;
#X msg 60 292 4096;
#X text 60 193 window size \,;
#X text 60 208 samples;
#X text 103 269 <- set;
#X text 113 338 (check);
#X obj 60 314 s \$0-window-size;
#N canvas 429 359 966 541 calc_table_length 0;
#X obj 122 35 inlet;
#X obj 123 293 expr size("$s1");
#X obj 122 230 makefilename \$0-sound-%d;
#X floatatom 175 325 0 0 0 0 - - -;
#X obj 122 69 clip 1 5;
#X obj 160 352 s \$0-samplength;
#X obj 114 436 * 1000;
#X obj 114 459 s \$0-samp-msec;
#X obj 160 381 r \$0-in-samprate;
#X obj 114 412 / 44100;
#X obj 123 322 t f;
#X obj 145 263 s \$0-selected-table;
#X obj 432 31 inlet;
#X obj 429 106 f 1;
#X text 121 10 selPlaybackSoundIndex;
#X text 409 5 selEditSoundIndex;
#X obj 440 132 ==;
#X obj 432 77 t b f f;
#X obj 465 183 f 1;
#X obj 440 157 sel 1;
#X text 499 80 1.) if edited table == playedtable;
#X text 499 107 2.) AND (if edited table is resized OR new loaded)
;
#X text 510 135 then calculate table size;
#X connect 0 0 4 0;
#X connect 1 0 3 0;
#X connect 1 0 10 0;
#X connect 2 0 1 0;
#X connect 2 0 11 0;
#X connect 4 0 2 0;
#X connect 4 0 13 1;
#X connect 6 0 7 0;
#X connect 8 0 9 1;
#X connect 9 0 6 0;
#X connect 10 0 5 0;
#X connect 10 0 9 0;
#X connect 12 0 17 0;
#X connect 13 0 16 0;
#X connect 16 0 19 0;
#X connect 17 0 13 0;
#X connect 17 1 16 1;
#X connect 17 2 18 1;
#X connect 18 0 2 0;
#X connect 19 0 18 0;
#X restore 47 546 pd calc_table_length;
#X text 643 551 14.) parameter: "pitchTransposition" \, type: <float>
;
#X text 644 479 13.) parameter: "relPosition" \, type: <float>;
#X text 644 417 12.) parameter: "selPlaybackSoundIndex" \, type: <float>
;
#X text 674 118 the soundfile storage for editing like loading \, resizing
\, recording \, normalizing.;
#X text 644 268 10.) parameter: "normSound" \, type: <void>;
#X text 674 283 unit [-] \, initial-value: - \, range: - \, normalizes
the;
#X text 674 297 previously selected pd array (soundfile storage).;
#X text 516 341 norm;
#N canvas 0 22 468 355 normalize_table 0;
#X obj 60 27 inlet;
#X obj 188 28 inlet;
#X text 171 11 select table;
#X obj 61 169 symbol \$0-sound-1;
#X obj 188 54 clip 1 5;
#X obj 188 80 makefilename \$0-sound-%d;
#X msg 61 205 \; \$1 normalize 0.95;
#X obj 60 131 t b;
#X connect 0 0 7 0;
#X connect 1 0 4 0;
#X connect 3 0 6 0;
#X connect 4 0 5 0;
#X connect 5 0 3 1;
#X connect 7 0 3 0;
#X restore 468 545 pd normalize_table;
#N canvas 0 22 450 300 pos 0;
#X obj 60 31 inlet;
#X obj 62 197 s \$0-location;
#X obj 107 87 r \$0-samp-msec;
#X obj 62 165 * 2000;
#X obj 60 62 clip 0 1;
#X obj 108 113 t b f;
#X connect 0 0 4 0;
#X connect 2 0 5 0;
#X connect 3 0 1 0;
#X connect 4 0 3 0;
#X connect 5 0 3 0;
#X connect 5 1 3 1;
#X restore 373 485 pd pos;
#N canvas 0 22 450 300 transp 0;
#X obj 60 31 inlet;
#X obj 61 65 clip -2400 2400;
#X obj 61 90 s \$0-transpo;
#X connect 0 0 1 0;
#X connect 1 0 2 0;
#X restore 423 516 pd transp;
#X msg 1099 447 pitchTransposition \$1;
#X msg 1099 423 relPosition \$1;
#X msg 1099 399 normSound;
#X msg 302 191 relPosition 0 \, pitchTransposition 0;
#X obj 252 84 t b b;
#X text 644 343 11.) parameter: "recSound" \, type: <int>;
#X msg 1099 353 recSound \$1;
#X text 674 358 unit [-] \, initial-value: 0 \, range: 0/1 \, records
sound;
#X obj 546 638 outlet;
#X text 519 657 outgoing para;
#X obj 221 237 route selEditSoundIndex loadSound recLength recSound
selPlaybackSoundIndex relPosition pitchTransposition normSound;
#X text 644 211 9.) parameter: "recLength" \, type: <float>;
#X connect 0 0 20 0;
#X connect 1 0 66 0;
#X connect 2 0 60 0;
#X connect 10 0 44 1;
#X connect 19 0 44 1;
#X connect 20 0 64 0;
#X connect 22 0 5 0;
#X connect 23 0 5 0;
#X connect 24 0 5 0;
#X connect 25 0 5 0;
#X connect 35 0 43 0;
#X connect 36 0 43 0;
#X connect 37 0 43 0;
#X connect 38 0 43 0;
#X connect 56 0 5 0;
#X connect 57 0 5 0;
#X connect 58 0 5 0;
#X connect 59 0 66 0;
#X connect 60 0 59 0;
#X connect 60 1 37 0;
#X connect 60 1 20 3;
#X connect 62 0 5 0;
#X connect 66 0 10 1;
#X connect 66 0 19 1;
#X connect 66 0 20 2;
#X connect 66 0 53 1;
#X connect 66 1 10 0;
#X connect 66 2 19 0;
#X connect 66 3 20 1;
#X connect 66 4 44 0;
#X connect 66 5 54 0;
#X connect 66 6 55 0;
#X connect 66 7 53 0;
#X connect 66 8 6 0;
#X restore 56 177 pd parameter_record_load_tables;
#N canvas 0 22 842 755 tables 0;
#X obj 59 88 table \$0-sound-1 441000;
#X obj 59 110 table \$0-sound-2 441000;
#X obj 59 132 table \$0-sound-3 441000;
#X obj 59 154 table \$0-sound-4 441000;
#X obj 59 176 table \$0-sound-5 441000;
#N canvas 157 73 529 522 hann-window 0;
#N canvas 0 22 450 300 (subpatch) 0;
#X array \$0-hann 2048 float 0;
#X coords 0 1 2047 0 300 100 1;
#X restore 65 322 graph;
#X obj 197 216 s \$0-hann;
#X msg 197 187 resize \$1;
#X obj 62 217 tabwrite \$0-hann;
#N canvas 0 22 487 551 calc_hann 0;
#X obj 68 207 t f f;
#X obj 67 361 t f f;
#X obj 67 386 *;
#X obj 291 181 expr atan(1)*4;
#X obj 68 277 * 3.14;
#X obj 68 305 / 512;
#X obj 67 334 sin;
#X obj 68 156 until;
#X obj 109 43 inlet;
#X obj 108 77 t f f b;
#X obj 67 428 outlet;
#X obj 194 427 outlet;
#X obj 68 181 ../generics/counter 512;
#X connect 0 0 4 0;
#X connect 0 1 11 0;
#X connect 1 0 2 0;
#X connect 1 1 2 1;
#X connect 2 0 10 0;
#X connect 3 0 4 1;
#X connect 4 0 5 0;
#X connect 5 0 6 0;
#X connect 6 0 1 0;
#X connect 7 0 12 0;
#X connect 8 0 9 0;
#X connect 9 0 7 0;
#X connect 9 1 5 1;
#X connect 9 1 12 1;
#X connect 9 2 3 0;
#X connect 9 2 12 2;
#X connect 12 0 0 0;
#X restore 74 188 pd calc_hann;
#X obj 98 77 r \$0-window-size;
#X obj 98 103 t f f;
#X text 17 6 calculate Hann window table (variable window size);
#X connect 2 0 1 0;
#X connect 4 0 3 0;
#X connect 4 1 3 1;
#X connect 5 0 6 0;
#X connect 6 0 4 0;
#X connect 6 1 2 0;
#X restore 58 48 pd hann-window;
#N canvas 0 22 450 300 (subpatch) 0;
#X array \$0-prev-imag 4096 float 0;
#X coords 0 1000 4096 -1000 400 300 1;
#X restore 280 363 graph;
#N canvas 0 22 450 300 (subpatch) 0;
#X array \$0-prev-real 4096 float 0;
#X coords 0 500 4096 -500 400 300 1;
#X restore 281 34 graph;
#X restore 55 232 pd tables;
#X obj 162 214 r \$0-location;
#X floatatom 162 239 0 0 0 0 - - -;
#X text 64 14 PHASE VOCODER RENDERING FOR TIME STETCHING AND CONTRACTION
AND FREQUENCY TRANSPOSITION;
#N canvas 116 89 642 739 fft-analysis-resynthesis 0;
#X obj 53 395 *~;
#X obj 20 395 *~;
#X obj 20 417 -~;
#X obj 169 393 *~;
#X obj 138 393 *~;
#X obj 138 415 +~;
#X obj 195 207 *~;
#X obj 164 207 *~;
#X obj 88 190 *~;
#X obj 19 192 *~;
#X obj 73 628 *~;
#X obj 194 292 rfft~;
#X obj 73 509 rifft~;
#X obj 74 652 outlet~;
#X obj 406 352 block~;
#X obj 19 248 +~ 1e-15;
#X obj 73 561 *~;
#X obj 91 536 tabreceive~ \$0-hann;
#X obj 108 597 expr 2/(3*$f1);
#X msg 406 327 set \$1 4;
#N canvas 186 22 771 817 read-windows 0;
#X obj 18 753 *~;
#X obj 116 280 f;
#X obj 85 87 /;
#X obj 195 755 *~;
#X obj 116 225 bang~;
#X obj 17 551 line~;
#X obj 85 112 * 1000;
#X obj 135 452 +;
#X obj 103 426 t f f;
#X msg 17 523 \$1 \, \$2 \$3;
#X obj 17 496 pack 0 0 0;
#X obj 138 351 / 1000;
#X obj 116 374 *;
#X obj 232 503 / 4;
#X floatatom 364 338 7 0 0 0 - - -;
#X obj 364 314 *;
#X obj 505 142 * 0.01;
#X obj 505 168 + 69;
#X obj 505 192 mtof;
#X obj 505 218 / 440;
#X obj 397 284 t b f;
#X obj 19 779 outlet~;
#X obj 195 780 outlet~;
#X obj 218 724 tabreceive~ \$0-hann;
#X floatatom 94 135 5 0 0 0 - - -;
#X obj 85 63 t f b;
#X obj 125 87 samplerate~;
#X obj 85 167 / 4;
#X obj 155 379 / 2;
#X obj 116 400 -;
#X obj 16 597 -~;
#X text 91 587 "back" window 1/4 cycle behind "front" one;
#X obj 607 184 t b f;
#X obj 639 129 samplerate~;
#X obj 607 157 /;
#X obj 505 255 * 1;
#X obj 607 101 t f b;
#X obj 84 39 r \$0-window-size;
#X obj 134 252 r \$0-location;
#X obj 138 327 r \$0-in-samprate;
#X obj 363 244 r \$0-window-size;
#X obj 505 116 r \$0-transpo;
#X obj 607 72 r \$0-in-samprate;
#X obj 194 697 tabread4~ \$0-sound-1;
#X obj 17 697 tabread4~ \$0-sound-1;
#X obj 42 633 r \$0-selected-table;
#X msg 43 658 set \$1;
#X connect 0 0 21 0;
#X connect 1 0 12 0;
#X connect 2 0 6 0;
#X connect 3 0 22 0;
#X connect 4 0 1 0;
#X connect 5 0 30 0;
#X connect 5 0 43 0;
#X connect 6 0 24 0;
#X connect 6 0 27 0;
#X connect 7 0 10 1;
#X connect 8 0 10 0;
#X connect 8 1 7 0;
#X connect 9 0 5 0;
#X connect 10 0 9 0;
#X connect 11 0 12 1;
#X connect 12 0 29 0;
#X connect 13 0 30 1;
#X connect 14 0 13 0;
#X connect 14 0 7 1;
#X connect 14 0 28 0;
#X connect 15 0 14 0;
#X connect 16 0 17 0;
#X connect 17 0 18 0;
#X connect 18 0 19 0;
#X connect 19 0 35 0;
#X connect 20 0 15 0;
#X connect 20 1 15 1;
#X connect 23 0 3 1;
#X connect 23 0 0 1;
#X connect 25 0 2 0;
#X connect 25 1 26 0;
#X connect 26 0 2 1;
#X connect 27 0 10 2;
#X connect 28 0 29 1;
#X connect 29 0 8 0;
#X connect 30 0 44 0;
#X connect 32 0 35 0;
#X connect 32 1 35 1;
#X connect 33 0 34 1;
#X connect 34 0 32 0;
#X connect 35 0 20 0;
#X connect 36 0 34 0;
#X connect 36 1 33 0;
#X connect 37 0 25 0;
#X connect 38 0 1 1;
#X connect 39 0 11 0;
#X connect 40 0 15 0;
#X connect 41 0 16 0;
#X connect 42 0 36 0;
#X connect 43 0 3 0;
#X connect 44 0 0 0;
#X connect 45 0 46 0;
#X connect 46 0 43 0;
#X connect 46 0 44 0;
#X restore 210 78 pd read-windows;
#X obj 19 13 tabreceive~ \$0-prev-real;
#X obj 163 46 tabreceive~ \$0-prev-imag;
#X obj 143 441 tabsend~ \$0-prev-imag;
#X obj 20 467 tabsend~ \$0-prev-real;
#X obj 108 571 r \$0-window-size;
#X obj 406 303 r \$0-window-size;
#N canvas 617 135 451 378 calc_complex_phase 0;
#X obj 148 119 *~;
#X obj 116 119 *~;
#X obj 116 141 +~;
#X obj 116 167 +~ 1e-20;
#X obj 100 229 *~;
#X obj 46 228 *~;
#X obj 47 58 inlet~;
#X obj 100 59 inlet~;
#X obj 45 295 outlet~;
#X obj 100 295 outlet~;
#X text 44 36 re;
#X text 105 36 im;
#X text 44 316 re;
#X text 105 316 im;
#X obj 116 190 rsqrt~;
#X connect 0 0 2 1;
#X connect 1 0 2 0;
#X connect 2 0 3 0;
#X connect 3 0 14 0;
#X connect 4 0 9 0;
#X connect 5 0 8 0;
#X connect 6 0 1 1;
#X connect 6 0 1 0;
#X connect 6 0 5 0;
#X connect 7 0 0 1;
#X connect 7 0 0 0;
#X connect 7 0 4 0;
#X connect 14 0 4 1;
#X connect 14 0 5 1;
#X restore 19 106 pd calc_complex_phase;
#X obj 191 107 rfft~;
#N canvas 617 135 451 378 calc_complex_phase 0;
#X obj 148 119 *~;
#X obj 116 119 *~;
#X obj 116 141 +~;
#X obj 100 229 *~;
#X obj 46 228 *~;
#X obj 47 58 inlet~;
#X obj 100 59 inlet~;
#X obj 45 295 outlet~;
#X obj 100 295 outlet~;
#X text 44 36 re;
#X text 105 36 im;
#X text 44 316 re;
#X text 105 316 im;
#X obj 116 190 rsqrt~;
#X connect 0 0 2 1;
#X connect 1 0 2 0;
#X connect 2 0 13 0;
#X connect 3 0 8 0;
#X connect 4 0 7 0;
#X connect 5 0 1 1;
#X connect 5 0 1 0;
#X connect 5 0 4 0;
#X connect 6 0 0 1;
#X connect 6 0 0 0;
#X connect 6 0 3 0;
#X connect 13 0 3 1;
#X connect 13 0 4 1;
#X restore 20 291 pd calc_complex_phase;
#X obj 19 218 +~;
#X obj 165 235 -~;
#X connect 0 0 2 1;
#X connect 1 0 2 0;
#X connect 2 0 12 0;
#X connect 2 0 24 0;
#X connect 3 0 5 1;
#X connect 4 0 5 0;
#X connect 5 0 12 1;
#X connect 5 0 23 0;
#X connect 6 0 31 1;
#X connect 7 0 31 0;
#X connect 8 0 30 1;
#X connect 9 0 30 0;
#X connect 10 0 13 0;
#X connect 11 0 1 1;
#X connect 11 0 3 1;
#X connect 11 1 0 1;
#X connect 11 1 4 1;
#X connect 12 0 16 0;
#X connect 15 0 29 0;
#X connect 16 0 10 0;
#X connect 17 0 16 1;
#X connect 18 0 10 1;
#X connect 19 0 14 0;
#X connect 20 0 28 0;
#X connect 20 1 11 0;
#X connect 21 0 27 0;
#X connect 22 0 27 1;
#X connect 25 0 18 0;
#X connect 26 0 19 0;
#X connect 27 0 9 0;
#X connect 27 0 6 0;
#X connect 27 1 8 0;
#X connect 27 1 7 0;
#X connect 28 0 9 1;
#X connect 28 0 7 1;
#X connect 28 1 6 1;
#X connect 28 1 8 1;
#X connect 29 0 1 0;
#X connect 29 0 4 0;
#X connect 29 1 3 0;
#X connect 29 1 0 0;
#X connect 30 0 15 0;
#X connect 31 0 29 1;
#X restore 55 278 pd fft-analysis-resynthesis;
#X obj 175 311 outlet;
#X text 35 61 sig.in;
#X text 54 335 sig.out;
#X text 175 336 rejected parameter;
#X text 392 64 incoming parameter;
#X obj 277 80 inlet;
#X text 271 62 fini-bang;
#X obj 437 307 outlet;
#X text 432 332 outgoing parameter;
#X msg 362 142 selEditSoundIndex 1;
#X msg 393 177 selPlaybackSoundIndex 1;
#X connect 0 0 5 0;
#X connect 1 0 5 2;
#X connect 1 0 20 0;
#X connect 1 0 21 0;
#X connect 2 0 5 1;
#X connect 5 0 11 0;
#X connect 5 1 18 0;
#X connect 7 0 8 0;
#X connect 10 0 4 0;
#X connect 20 0 5 1;
#X connect 21 0 5 1;
