#N canvas 216 46 816 571 12;
#X obj 55 472 +~;
#N canvas 678 395 450 300 allpass~ 0;
#X obj 48 19 inlet~;
#X obj 134 21 inlet~;
#X obj 47 248 outlet~;
#X obj 48 162 rpole~;
#X obj 48 137 rzero_rev~;
#X obj 123 97 clip~ -0.99999 0.99999;
#X connect 0 0 4 0;
#X connect 1 0 5 0;
#X connect 3 0 2 0;
#X connect 4 0 3 0;
#X connect 5 0 4 1;
#X connect 5 0 3 1;
#X restore 73 311 pd allpass~;
#N canvas 678 395 450 300 allpass~ 0;
#X obj 48 19 inlet~;
#X obj 134 21 inlet~;
#X obj 47 248 outlet~;
#X obj 48 162 rpole~;
#X obj 48 137 rzero_rev~;
#X obj 123 97 clip~ -0.99999 0.99999;
#X connect 0 0 4 0;
#X connect 1 0 5 0;
#X connect 3 0 2 0;
#X connect 4 0 3 0;
#X connect 5 0 4 1;
#X connect 5 0 3 1;
#X restore 73 352 pd allpass~;
#N canvas 678 395 450 300 allpass~ 0;
#X obj 48 19 inlet~;
#X obj 134 21 inlet~;
#X obj 47 248 outlet~;
#X obj 48 162 rpole~;
#X obj 48 137 rzero_rev~;
#X obj 123 97 clip~ -0.99999 0.99999;
#X connect 0 0 4 0;
#X connect 1 0 5 0;
#X connect 3 0 2 0;
#X connect 4 0 3 0;
#X connect 5 0 4 1;
#X connect 5 0 3 1;
#X restore 73 396 pd allpass~;
#N canvas 678 395 450 300 allpass~ 0;
#X obj 48 19 inlet~;
#X obj 134 21 inlet~;
#X obj 47 248 outlet~;
#X obj 48 162 rpole~;
#X obj 48 137 rzero_rev~;
#X obj 123 97 clip~ -0.99999 0.99999;
#X connect 0 0 4 0;
#X connect 1 0 5 0;
#X connect 3 0 2 0;
#X connect 4 0 3 0;
#X connect 5 0 4 1;
#X connect 5 0 3 1;
#X restore 73 436 pd allpass~;
#X obj 55 505 outlet~;
#X obj 59 48 inlet~;
#X text 21 3 phaser~;
#X text 171 482 Filter parameter in z: 0.25 ... 0.88 ... 0.96;
#X text 212 501 Center frequency: 7k ..... 700 ... 70 Hz;
#X obj 166 332 +~ 0.013;
#X obj 167 376 +~ 0.026;
#X obj 166 416 +~ 0.039;
#X obj 280 328 ../generics/line_mul~ 1 20;
#X obj 280 60 inlet;
#X obj 280 216 pack 0.1 20;
#X text 151 196 frequency in Hz;
#X text 150 179 Modulation;
#X text 490 178 Modulation;
#X text 491 195 depth 0 .. 1;
#X obj 423 186 clip 0 1;
#X obj 679 46 inlet;
#X text 678 27 init-bang;
#X obj 280 274 osc~;
#X obj 280 246 line~ 0.1;
#X obj 280 189 clip 1e-05 1000;
#X obj 280 389 *~ 0.355;
#X obj 280 416 +~ 0.605;
#X obj 280 300 -~ 0.7747;
#X obj 280 358 +~ 0.7747;
#X text 60 28 sig.in;
#X text 54 531 sig.out;
#X text 279 37 parameter;
#X obj 280 90 route modulationFrequency modulationDepth;
#X text 664 508 rejected parameter;
#X obj 696 480 outlet;
#X connect 0 0 5 0;
#X connect 1 0 2 0;
#X connect 2 0 3 0;
#X connect 3 0 4 0;
#X connect 4 0 0 1;
#X connect 6 0 1 0;
#X connect 6 0 0 0;
#X connect 10 0 2 1;
#X connect 11 0 3 1;
#X connect 12 0 4 1;
#X connect 13 0 29 0;
#X connect 14 0 33 0;
#X connect 15 0 24 0;
#X connect 20 0 13 1;
#X connect 21 0 13 3;
#X connect 23 0 28 0;
#X connect 24 0 23 0;
#X connect 25 0 15 0;
#X connect 26 0 27 0;
#X connect 27 0 1 1;
#X connect 27 0 10 0;
#X connect 27 0 11 0;
#X connect 27 0 12 0;
#X connect 28 0 13 0;
#X connect 29 0 26 0;
#X connect 33 0 25 0;
#X connect 33 1 20 0;
#X connect 33 2 35 0;
