#N canvas 427 90 769 708 10;
#N canvas 861 23 553 794 #c4...c5 0;
#X obj 25 20 inlet~;
#X obj 32 740 outlet~;
#X obj 271 46 t b b b b b b b b b b b b;
#X obj 270 18 inlet;
#X obj 297 168 ../core/string_resonator~ ________;
#X obj 354 143 unpack 0 0 0 0 0;
#X obj 354 121 t l b;
#X msg 354 98 4183.59 999 22049 22049 4;
#X obj 299 266 ../core/string_resonator~ ________;
#X obj 356 241 unpack 0 0 0 0 0;
#X obj 356 219 t l b;
#X msg 356 196 3948.78 999 22049 22049 4;
#X obj 300 365 ../core/string_resonator~ ________;
#X obj 357 340 unpack 0 0 0 0 0;
#X obj 357 318 t l b;
#X obj 302 463 ../core/string_resonator~ ________;
#X obj 359 438 unpack 0 0 0 0 0;
#X obj 359 416 t l b;
#X obj 300 564 ../core/string_resonator~ ________;
#X obj 357 539 unpack 0 0 0 0 0;
#X obj 357 517 t l b;
#X obj 302 662 ../core/string_resonator~ ________;
#X obj 359 637 unpack 0 0 0 0 0;
#X obj 359 615 t l b;
#X obj 27 168 ../core/string_resonator~ ________;
#X obj 84 143 unpack 0 0 0 0 0;
#X obj 84 121 t l b;
#X obj 29 266 ../core/string_resonator~ ________;
#X obj 86 241 unpack 0 0 0 0 0;
#X obj 86 219 t l b;
#X obj 30 365 ../core/string_resonator~ ________;
#X obj 87 340 unpack 0 0 0 0 0;
#X obj 87 318 t l b;
#X obj 32 463 ../core/string_resonator~ ________;
#X obj 89 438 unpack 0 0 0 0 0;
#X obj 89 416 t l b;
#X obj 30 564 ../core/string_resonator~ ________;
#X obj 87 539 unpack 0 0 0 0 0;
#X obj 87 517 t l b;
#X obj 32 662 ../core/string_resonator~ ________;
#X obj 89 637 unpack 0 0 0 0 0;
#X obj 89 615 t l b;
#X msg 357 296 3727.16 749 22049 22049 4;
#X msg 359 394 3517.97 749 22049 22049 4;
#X msg 357 494 3320.52 749 22049 22049 4;
#X msg 358 593 3134.15 1 22049 22049 4;
#X msg 83 98 2958.25 831 22049 22049 4;
#X msg 86 198 2793.83 1 22049 21825 4;
#X msg 87 297 2637.02 1 22049 21778 4;
#X msg 90 395 2501.99 1 22049 20526 4;
#X msg 87 496 2361.56 1 21979 20511 4;
#X msg 90 592 2234.17 1 21646 20440 4;
#X text 487 119 108;
#X text 496 319 106;
#X text 498 514 104;
#X text 158 117 102;
#X text 182 317 100;
#X text 175 512 98;
#X connect 0 0 4 0;
#X connect 0 0 8 0;
#X connect 0 0 24 0;
#X connect 0 0 27 0;
#X connect 0 0 30 0;
#X connect 0 0 33 0;
#X connect 0 0 36 0;
#X connect 0 0 39 0;
#X connect 0 0 12 0;
#X connect 0 0 15 0;
#X connect 0 0 18 0;
#X connect 0 0 21 0;
#X connect 2 0 51 0;
#X connect 2 1 50 0;
#X connect 2 2 49 0;
#X connect 2 3 48 0;
#X connect 2 4 47 0;
#X connect 2 5 46 0;
#X connect 2 6 45 0;
#X connect 2 7 44 0;
#X connect 2 8 43 0;
#X connect 2 9 42 0;
#X connect 2 10 11 0;
#X connect 2 11 7 0;
#X connect 3 0 2 0;
#X connect 4 0 1 0;
#X connect 5 0 4 1;
#X connect 5 1 4 2;
#X connect 5 2 4 3;
#X connect 5 3 4 4;
#X connect 5 4 4 5;
#X connect 6 0 5 0;
#X connect 6 1 4 6;
#X connect 7 0 6 0;
#X connect 8 0 1 0;
#X connect 9 0 8 1;
#X connect 9 1 8 2;
#X connect 9 2 8 3;
#X connect 9 3 8 4;
#X connect 9 4 8 5;
#X connect 10 0 9 0;
#X connect 10 1 8 6;
#X connect 11 0 10 0;
#X connect 12 0 1 0;
#X connect 13 0 12 1;
#X connect 13 1 12 2;
#X connect 13 2 12 3;
#X connect 13 3 12 4;
#X connect 13 4 12 5;
#X connect 14 0 13 0;
#X connect 14 1 12 6;
#X connect 15 0 1 0;
#X connect 16 0 15 1;
#X connect 16 1 15 2;
#X connect 16 2 15 3;
#X connect 16 3 15 4;
#X connect 16 4 15 5;
#X connect 17 0 16 0;
#X connect 17 1 15 6;
#X connect 18 0 1 0;
#X connect 19 0 18 1;
#X connect 19 1 18 2;
#X connect 19 2 18 3;
#X connect 19 3 18 4;
#X connect 19 4 18 5;
#X connect 20 0 19 0;
#X connect 20 1 18 6;
#X connect 21 0 1 0;
#X connect 22 0 21 1;
#X connect 22 1 21 2;
#X connect 22 2 21 3;
#X connect 22 3 21 4;
#X connect 22 4 21 5;
#X connect 23 0 22 0;
#X connect 23 1 21 6;
#X connect 24 0 1 0;
#X connect 25 0 24 1;
#X connect 25 1 24 2;
#X connect 25 2 24 3;
#X connect 25 3 24 4;
#X connect 25 4 24 5;
#X connect 26 0 25 0;
#X connect 26 1 24 6;
#X connect 27 0 1 0;
#X connect 28 0 27 1;
#X connect 28 1 27 2;
#X connect 28 2 27 3;
#X connect 28 3 27 4;
#X connect 28 4 27 5;
#X connect 29 0 28 0;
#X connect 29 1 27 6;
#X connect 30 0 1 0;
#X connect 31 0 30 1;
#X connect 31 1 30 2;
#X connect 31 2 30 3;
#X connect 31 3 30 4;
#X connect 31 4 30 5;
#X connect 32 0 31 0;
#X connect 32 1 30 6;
#X connect 33 0 1 0;
#X connect 34 0 33 1;
#X connect 34 1 33 2;
#X connect 34 2 33 3;
#X connect 34 3 33 4;
#X connect 34 4 33 5;
#X connect 35 0 34 0;
#X connect 35 1 33 6;
#X connect 36 0 1 0;
#X connect 37 0 36 1;
#X connect 37 1 36 2;
#X connect 37 2 36 3;
#X connect 37 3 36 4;
#X connect 37 4 36 5;
#X connect 38 0 37 0;
#X connect 38 1 36 6;
#X connect 39 0 1 0;
#X connect 40 0 39 1;
#X connect 40 1 39 2;
#X connect 40 2 39 3;
#X connect 40 3 39 4;
#X connect 40 4 39 5;
#X connect 41 0 40 0;
#X connect 41 1 39 6;
#X connect 42 0 14 0;
#X connect 43 0 17 0;
#X connect 44 0 20 0;
#X connect 45 0 23 0;
#X connect 46 0 26 0;
#X connect 47 0 29 0;
#X connect 48 0 32 0;
#X connect 49 0 35 0;
#X connect 50 0 38 0;
#X connect 51 0 41 0;
#X restore 133 215 pd #c4...c5;
#N canvas 874 23 553 794 #c3...c4 0;
#X obj 25 20 inlet~;
#X obj 32 740 outlet~;
#X obj 271 41 t b b b b b b b b b b b b;
#X obj 270 18 inlet;
#X obj 297 168 ../core/string_resonator~ ________;
#X obj 354 143 unpack 0 0 0 0 0;
#X obj 354 121 t l b;
#X obj 299 266 ../core/string_resonator~ ________;
#X obj 356 241 unpack 0 0 0 0 0;
#X obj 356 219 t l b;
#X obj 300 365 ../core/string_resonator~ ________;
#X obj 357 340 unpack 0 0 0 0 0;
#X obj 357 318 t l b;
#X obj 302 463 ../core/string_resonator~ ________;
#X obj 359 438 unpack 0 0 0 0 0;
#X obj 359 416 t l b;
#X obj 300 564 ../core/string_resonator~ ________;
#X obj 357 539 unpack 0 0 0 0 0;
#X obj 357 517 t l b;
#X obj 302 662 ../core/string_resonator~ ________;
#X obj 359 637 unpack 0 0 0 0 0;
#X obj 359 615 t l b;
#X obj 27 168 ../core/string_resonator~ ________;
#X obj 84 143 unpack 0 0 0 0 0;
#X obj 84 121 t l b;
#X obj 29 266 ../core/string_resonator~ ________;
#X obj 86 241 unpack 0 0 0 0 0;
#X obj 86 219 t l b;
#X obj 30 365 ../core/string_resonator~ ________;
#X obj 87 340 unpack 0 0 0 0 0;
#X obj 87 318 t l b;
#X obj 32 463 ../core/string_resonator~ ________;
#X obj 89 438 unpack 0 0 0 0 0;
#X obj 89 416 t l b;
#X obj 30 564 ../core/string_resonator~ ________;
#X obj 87 539 unpack 0 0 0 0 0;
#X obj 87 517 t l b;
#X obj 32 662 ../core/string_resonator~ ________;
#X obj 89 637 unpack 0 0 0 0 0;
#X obj 89 615 t l b;
#X text 446 113 96;
#X msg 353 94 2124.68 1 20834 19734 8;
#X msg 356 197 2026.39 2 19784 18425 8;
#X msg 357 297 1912.65 2.86 19672 18251 8;
#X msg 360 394 1805.3 2.86 19543 17889 8;
#X msg 357 495 1703.98 2.86 19384 17655 8;
#X msg 359 594 1630.8 2.86 17165 16599 8;
#X msg 83 100 1539.27 3.49 16902 16358 8;
#X msg 87 198 1452.87 3.49 16572 16028 8;
#X msg 88 295 1371.33 3.49 16412 15479 8;
#X msg 90 395 1305.63 3.49 14938 14296 8;
#X msg 87 495 1232.35 3.49 14655 13590 8;
#X msg 88 593 1163.18 3.49 14317 13069 8;
#X connect 0 0 4 0;
#X connect 0 0 7 0;
#X connect 0 0 22 0;
#X connect 0 0 25 0;
#X connect 0 0 28 0;
#X connect 0 0 31 0;
#X connect 0 0 34 0;
#X connect 0 0 37 0;
#X connect 0 0 10 0;
#X connect 0 0 13 0;
#X connect 0 0 16 0;
#X connect 0 0 19 0;
#X connect 2 0 52 0;
#X connect 2 1 51 0;
#X connect 2 2 50 0;
#X connect 2 3 49 0;
#X connect 2 4 48 0;
#X connect 2 5 47 0;
#X connect 2 6 46 0;
#X connect 2 7 45 0;
#X connect 2 8 44 0;
#X connect 2 9 43 0;
#X connect 2 10 42 0;
#X connect 2 11 41 0;
#X connect 3 0 2 0;
#X connect 4 0 1 0;
#X connect 5 0 4 1;
#X connect 5 1 4 2;
#X connect 5 2 4 3;
#X connect 5 3 4 4;
#X connect 5 4 4 5;
#X connect 6 0 5 0;
#X connect 6 1 4 6;
#X connect 7 0 1 0;
#X connect 8 0 7 1;
#X connect 8 1 7 2;
#X connect 8 2 7 3;
#X connect 8 3 7 4;
#X connect 8 4 7 5;
#X connect 9 0 8 0;
#X connect 9 1 7 6;
#X connect 10 0 1 0;
#X connect 11 0 10 1;
#X connect 11 1 10 2;
#X connect 11 2 10 3;
#X connect 11 3 10 4;
#X connect 11 4 10 5;
#X connect 12 0 11 0;
#X connect 12 1 10 6;
#X connect 13 0 1 0;
#X connect 14 0 13 1;
#X connect 14 1 13 2;
#X connect 14 2 13 3;
#X connect 14 3 13 4;
#X connect 14 4 13 5;
#X connect 15 0 14 0;
#X connect 15 1 13 6;
#X connect 16 0 1 0;
#X connect 17 0 16 1;
#X connect 17 1 16 2;
#X connect 17 2 16 3;
#X connect 17 3 16 4;
#X connect 17 4 16 5;
#X connect 18 0 17 0;
#X connect 18 1 16 6;
#X connect 19 0 1 0;
#X connect 20 0 19 1;
#X connect 20 1 19 2;
#X connect 20 2 19 3;
#X connect 20 3 19 4;
#X connect 20 4 19 5;
#X connect 21 0 20 0;
#X connect 21 1 19 6;
#X connect 22 0 1 0;
#X connect 23 0 22 1;
#X connect 23 1 22 2;
#X connect 23 2 22 3;
#X connect 23 3 22 4;
#X connect 23 4 22 5;
#X connect 24 0 23 0;
#X connect 24 1 22 6;
#X connect 25 0 1 0;
#X connect 26 0 25 1;
#X connect 26 1 25 2;
#X connect 26 2 25 3;
#X connect 26 3 25 4;
#X connect 26 4 25 5;
#X connect 27 0 26 0;
#X connect 27 1 25 6;
#X connect 28 0 1 0;
#X connect 29 0 28 1;
#X connect 29 1 28 2;
#X connect 29 2 28 3;
#X connect 29 3 28 4;
#X connect 29 4 28 5;
#X connect 30 0 29 0;
#X connect 30 1 28 6;
#X connect 31 0 1 0;
#X connect 32 0 31 1;
#X connect 32 1 31 2;
#X connect 32 2 31 3;
#X connect 32 3 31 4;
#X connect 32 4 31 5;
#X connect 33 0 32 0;
#X connect 33 1 31 6;
#X connect 34 0 1 0;
#X connect 35 0 34 1;
#X connect 35 1 34 2;
#X connect 35 2 34 3;
#X connect 35 3 34 4;
#X connect 35 4 34 5;
#X connect 36 0 35 0;
#X connect 36 1 34 6;
#X connect 37 0 1 0;
#X connect 38 0 37 1;
#X connect 38 1 37 2;
#X connect 38 2 37 3;
#X connect 38 3 37 4;
#X connect 38 4 37 5;
#X connect 39 0 38 0;
#X connect 39 1 37 6;
#X connect 41 0 6 0;
#X connect 42 0 9 0;
#X connect 43 0 12 0;
#X connect 44 0 15 0;
#X connect 45 0 18 0;
#X connect 46 0 21 0;
#X connect 47 0 24 0;
#X connect 48 0 27 0;
#X connect 49 0 30 0;
#X connect 50 0 33 0;
#X connect 51 0 36 0;
#X connect 52 0 39 0;
#X restore 230 215 pd #c3...c4;
#N canvas 864 23 553 794 #c2...c3 0;
#X obj 25 20 inlet~;
#X obj 32 740 outlet~;
#X obj 271 46 t b b b b b b b b b b b b;
#X obj 270 18 inlet;
#X obj 297 168 ../core/string_resonator~ ________;
#X obj 354 143 unpack 0 0 0 0 0;
#X obj 354 121 t l b;
#X obj 299 266 ../core/string_resonator~ ________;
#X obj 356 241 unpack 0 0 0 0 0;
#X obj 356 219 t l b;
#X obj 300 365 ../core/string_resonator~ ________;
#X obj 357 340 unpack 0 0 0 0 0;
#X obj 357 318 t l b;
#X obj 302 463 ../core/string_resonator~ ________;
#X obj 359 438 unpack 0 0 0 0 0;
#X obj 359 416 t l b;
#X obj 300 564 ../core/string_resonator~ ________;
#X obj 357 539 unpack 0 0 0 0 0;
#X obj 357 517 t l b;
#X obj 302 662 ../core/string_resonator~ ________;
#X obj 359 637 unpack 0 0 0 0 0;
#X obj 359 615 t l b;
#X obj 27 168 ../core/string_resonator~ ________;
#X obj 84 143 unpack 0 0 0 0 0;
#X obj 84 121 t l b;
#X obj 29 266 ../core/string_resonator~ ________;
#X obj 86 241 unpack 0 0 0 0 0;
#X obj 86 219 t l b;
#X obj 30 365 ../core/string_resonator~ ________;
#X obj 87 340 unpack 0 0 0 0 0;
#X obj 87 318 t l b;
#X obj 32 463 ../core/string_resonator~ ________;
#X obj 89 438 unpack 0 0 0 0 0;
#X obj 89 416 t l b;
#X obj 30 564 ../core/string_resonator~ ________;
#X obj 87 539 unpack 0 0 0 0 0;
#X obj 87 517 t l b;
#X obj 32 662 ../core/string_resonator~ ________;
#X obj 89 637 unpack 0 0 0 0 0;
#X obj 89 615 t l b;
#X text 446 113 84;
#X msg 353 98 1107.45 4.19 12307 12855 16;
#X msg 356 198 1045.29 4.19 11668 12855 16;
#X msg 358 296 986.626 5.38 11112 12855 16;
#X msg 359 396 931.251 5.38 10492 12855 16;
#X msg 357 496 878.984 6.1 9938 12855 16;
#X msg 359 594 829.651 6.1 9313 12855 16;
#X msg 85 100 785.804 6.1 8635 11765 16;
#X msg 87 197 747.723 6.26 7169 11899 16;
#X msg 87 296 705.756 6.26 6748 11898 16;
#X msg 89 395 666.145 6.26 6320 11898 16;
#X msg 87 496 628.757 7.23 5995 11529 16;
#X msg 89 592 593.468 7.31 5638 11310 16;
#X connect 0 0 4 0;
#X connect 0 0 7 0;
#X connect 0 0 22 0;
#X connect 0 0 25 0;
#X connect 0 0 28 0;
#X connect 0 0 31 0;
#X connect 0 0 34 0;
#X connect 0 0 37 0;
#X connect 0 0 10 0;
#X connect 0 0 13 0;
#X connect 0 0 16 0;
#X connect 0 0 19 0;
#X connect 2 0 52 0;
#X connect 2 1 51 0;
#X connect 2 2 50 0;
#X connect 2 3 49 0;
#X connect 2 4 48 0;
#X connect 2 5 47 0;
#X connect 2 6 46 0;
#X connect 2 7 45 0;
#X connect 2 8 44 0;
#X connect 2 9 43 0;
#X connect 2 10 42 0;
#X connect 2 11 41 0;
#X connect 3 0 2 0;
#X connect 4 0 1 0;
#X connect 5 0 4 1;
#X connect 5 1 4 2;
#X connect 5 2 4 3;
#X connect 5 3 4 4;
#X connect 5 4 4 5;
#X connect 6 0 5 0;
#X connect 6 1 4 6;
#X connect 7 0 1 0;
#X connect 8 0 7 1;
#X connect 8 1 7 2;
#X connect 8 2 7 3;
#X connect 8 3 7 4;
#X connect 8 4 7 5;
#X connect 9 0 8 0;
#X connect 9 1 7 6;
#X connect 10 0 1 0;
#X connect 11 0 10 1;
#X connect 11 1 10 2;
#X connect 11 2 10 3;
#X connect 11 3 10 4;
#X connect 11 4 10 5;
#X connect 12 0 11 0;
#X connect 12 1 10 6;
#X connect 13 0 1 0;
#X connect 14 0 13 1;
#X connect 14 1 13 2;
#X connect 14 2 13 3;
#X connect 14 3 13 4;
#X connect 14 4 13 5;
#X connect 15 0 14 0;
#X connect 15 1 13 6;
#X connect 16 0 1 0;
#X connect 17 0 16 1;
#X connect 17 1 16 2;
#X connect 17 2 16 3;
#X connect 17 3 16 4;
#X connect 17 4 16 5;
#X connect 18 0 17 0;
#X connect 18 1 16 6;
#X connect 19 0 1 0;
#X connect 20 0 19 1;
#X connect 20 1 19 2;
#X connect 20 2 19 3;
#X connect 20 3 19 4;
#X connect 20 4 19 5;
#X connect 21 0 20 0;
#X connect 21 1 19 6;
#X connect 22 0 1 0;
#X connect 23 0 22 1;
#X connect 23 1 22 2;
#X connect 23 2 22 3;
#X connect 23 3 22 4;
#X connect 23 4 22 5;
#X connect 24 0 23 0;
#X connect 24 1 22 6;
#X connect 25 0 1 0;
#X connect 26 0 25 1;
#X connect 26 1 25 2;
#X connect 26 2 25 3;
#X connect 26 3 25 4;
#X connect 26 4 25 5;
#X connect 27 0 26 0;
#X connect 27 1 25 6;
#X connect 28 0 1 0;
#X connect 29 0 28 1;
#X connect 29 1 28 2;
#X connect 29 2 28 3;
#X connect 29 3 28 4;
#X connect 29 4 28 5;
#X connect 30 0 29 0;
#X connect 30 1 28 6;
#X connect 31 0 1 0;
#X connect 32 0 31 1;
#X connect 32 1 31 2;
#X connect 32 2 31 3;
#X connect 32 3 31 4;
#X connect 32 4 31 5;
#X connect 33 0 32 0;
#X connect 33 1 31 6;
#X connect 34 0 1 0;
#X connect 35 0 34 1;
#X connect 35 1 34 2;
#X connect 35 2 34 3;
#X connect 35 3 34 4;
#X connect 35 4 34 5;
#X connect 36 0 35 0;
#X connect 36 1 34 6;
#X connect 37 0 1 0;
#X connect 38 0 37 1;
#X connect 38 1 37 2;
#X connect 38 2 37 3;
#X connect 38 3 37 4;
#X connect 38 4 37 5;
#X connect 39 0 38 0;
#X connect 39 1 37 6;
#X connect 41 0 6 0;
#X connect 42 0 9 0;
#X connect 43 0 12 0;
#X connect 44 0 15 0;
#X connect 45 0 18 0;
#X connect 46 0 21 0;
#X connect 47 0 24 0;
#X connect 48 0 27 0;
#X connect 49 0 30 0;
#X connect 50 0 33 0;
#X connect 51 0 36 0;
#X connect 52 0 39 0;
#X restore 328 216 pd #c2...c3;
#N canvas 874 22 553 794 #c1...c2 0;
#X obj 25 20 inlet~;
#X obj 32 740 outlet~;
#X obj 271 46 t b b b b b b b b b b b b;
#X obj 270 18 inlet;
#X obj 297 168 ../core/string_resonator~ ________;
#X obj 354 143 unpack 0 0 0 0 0;
#X obj 354 121 t l b;
#X obj 299 266 ../core/string_resonator~ ________;
#X obj 356 241 unpack 0 0 0 0 0;
#X obj 356 219 t l b;
#X obj 300 365 ../core/string_resonator~ ________;
#X obj 357 340 unpack 0 0 0 0 0;
#X obj 357 318 t l b;
#X obj 302 463 ../core/string_resonator~ ________;
#X obj 359 438 unpack 0 0 0 0 0;
#X obj 359 416 t l b;
#X obj 300 564 ../core/string_resonator~ ________;
#X obj 357 539 unpack 0 0 0 0 0;
#X obj 357 517 t l b;
#X obj 302 662 ../core/string_resonator~ ________;
#X obj 359 637 unpack 0 0 0 0 0;
#X obj 359 615 t l b;
#X obj 27 168 ../core/string_resonator~ ________;
#X obj 84 143 unpack 0 0 0 0 0;
#X obj 84 121 t l b;
#X obj 29 266 ../core/string_resonator~ ________;
#X obj 86 241 unpack 0 0 0 0 0;
#X obj 86 219 t l b;
#X obj 30 365 ../core/string_resonator~ ________;
#X obj 87 340 unpack 0 0 0 0 0;
#X obj 87 318 t l b;
#X obj 32 463 ../core/string_resonator~ ________;
#X obj 89 438 unpack 0 0 0 0 0;
#X obj 89 416 t l b;
#X obj 30 564 ../core/string_resonator~ ________;
#X obj 87 539 unpack 0 0 0 0 0;
#X obj 87 517 t l b;
#X obj 32 662 ../core/string_resonator~ ________;
#X obj 89 637 unpack 0 0 0 0 0;
#X obj 89 615 t l b;
#X text 446 113 72;
#X msg 353 99 563.73 7.57 4833 11310 32;
#X msg 356 197 532.09 7.57 4551 11168 32;
#X msg 357 296 502.226 7.57 4535 10249 32;
#X msg 360 394 474.038 8.14 4109 9769 32;
#X msg 357 497 447.433 8.14 3812 9745 32;
#X msg 359 594 422.32 8.76 3660 8519 32;
#X msg 84 100 398.617 8.76 3401 8519 32;
#X msg 87 198 376.244 8.76 3176 8519 32;
#X msg 87 298 355.127 9.4 2964 8519 32;
#X msg 89 394 343.229 9.4 2101 8519 32;
#X msg 87 497 323.965 10.81 1965 8519 32;
#X msg 89 592 305.782 10.81 1830 8519 32;
#X connect 0 0 4 0;
#X connect 0 0 7 0;
#X connect 0 0 22 0;
#X connect 0 0 25 0;
#X connect 0 0 28 0;
#X connect 0 0 31 0;
#X connect 0 0 34 0;
#X connect 0 0 37 0;
#X connect 0 0 10 0;
#X connect 0 0 13 0;
#X connect 0 0 16 0;
#X connect 0 0 19 0;
#X connect 2 0 52 0;
#X connect 2 1 51 0;
#X connect 2 2 50 0;
#X connect 2 3 49 0;
#X connect 2 4 48 0;
#X connect 2 5 47 0;
#X connect 2 6 46 0;
#X connect 2 7 45 0;
#X connect 2 8 44 0;
#X connect 2 9 43 0;
#X connect 2 10 42 0;
#X connect 2 11 41 0;
#X connect 3 0 2 0;
#X connect 4 0 1 0;
#X connect 5 0 4 1;
#X connect 5 1 4 2;
#X connect 5 2 4 3;
#X connect 5 3 4 4;
#X connect 5 4 4 5;
#X connect 6 0 5 0;
#X connect 6 1 4 6;
#X connect 7 0 1 0;
#X connect 8 0 7 1;
#X connect 8 1 7 2;
#X connect 8 2 7 3;
#X connect 8 3 7 4;
#X connect 8 4 7 5;
#X connect 9 0 8 0;
#X connect 9 1 7 6;
#X connect 10 0 1 0;
#X connect 11 0 10 1;
#X connect 11 1 10 2;
#X connect 11 2 10 3;
#X connect 11 3 10 4;
#X connect 11 4 10 5;
#X connect 12 0 11 0;
#X connect 12 1 10 6;
#X connect 13 0 1 0;
#X connect 14 0 13 1;
#X connect 14 1 13 2;
#X connect 14 2 13 3;
#X connect 14 3 13 4;
#X connect 14 4 13 5;
#X connect 15 0 14 0;
#X connect 15 1 13 6;
#X connect 16 0 1 0;
#X connect 17 0 16 1;
#X connect 17 1 16 2;
#X connect 17 2 16 3;
#X connect 17 3 16 4;
#X connect 17 4 16 5;
#X connect 18 0 17 0;
#X connect 18 1 16 6;
#X connect 19 0 1 0;
#X connect 20 0 19 1;
#X connect 20 1 19 2;
#X connect 20 2 19 3;
#X connect 20 3 19 4;
#X connect 20 4 19 5;
#X connect 21 0 20 0;
#X connect 21 1 19 6;
#X connect 22 0 1 0;
#X connect 23 0 22 1;
#X connect 23 1 22 2;
#X connect 23 2 22 3;
#X connect 23 3 22 4;
#X connect 23 4 22 5;
#X connect 24 0 23 0;
#X connect 24 1 22 6;
#X connect 25 0 1 0;
#X connect 26 0 25 1;
#X connect 26 1 25 2;
#X connect 26 2 25 3;
#X connect 26 3 25 4;
#X connect 26 4 25 5;
#X connect 27 0 26 0;
#X connect 27 1 25 6;
#X connect 28 0 1 0;
#X connect 29 0 28 1;
#X connect 29 1 28 2;
#X connect 29 2 28 3;
#X connect 29 3 28 4;
#X connect 29 4 28 5;
#X connect 30 0 29 0;
#X connect 30 1 28 6;
#X connect 31 0 1 0;
#X connect 32 0 31 1;
#X connect 32 1 31 2;
#X connect 32 2 31 3;
#X connect 32 3 31 4;
#X connect 32 4 31 5;
#X connect 33 0 32 0;
#X connect 33 1 31 6;
#X connect 34 0 1 0;
#X connect 35 0 34 1;
#X connect 35 1 34 2;
#X connect 35 2 34 3;
#X connect 35 3 34 4;
#X connect 35 4 34 5;
#X connect 36 0 35 0;
#X connect 36 1 34 6;
#X connect 37 0 1 0;
#X connect 38 0 37 1;
#X connect 38 1 37 2;
#X connect 38 2 37 3;
#X connect 38 3 37 4;
#X connect 38 4 37 5;
#X connect 39 0 38 0;
#X connect 39 1 37 6;
#X connect 41 0 6 0;
#X connect 42 0 9 0;
#X connect 43 0 12 0;
#X connect 44 0 15 0;
#X connect 45 0 18 0;
#X connect 46 0 21 0;
#X connect 47 0 24 0;
#X connect 48 0 27 0;
#X connect 49 0 30 0;
#X connect 50 0 33 0;
#X connect 51 0 36 0;
#X connect 52 0 39 0;
#X restore 423 216 pd #c1...c2;
#N canvas 618 45 553 794 #c...c1 0;
#X obj 25 20 inlet~;
#X obj 32 740 outlet~;
#X obj 271 46 t b b b b b b b b b b b b;
#X obj 270 18 inlet;
#X obj 297 168 ../core/string_resonator~ ________;
#X obj 354 143 unpack 0 0 0 0 0;
#X obj 354 121 t l b;
#X obj 299 266 ../core/string_resonator~ ________;
#X obj 356 241 unpack 0 0 0 0 0;
#X obj 356 219 t l b;
#X obj 300 365 ../core/string_resonator~ ________;
#X obj 357 340 unpack 0 0 0 0 0;
#X obj 357 318 t l b;
#X obj 302 463 ../core/string_resonator~ ________;
#X obj 359 438 unpack 0 0 0 0 0;
#X obj 359 416 t l b;
#X obj 300 564 ../core/string_resonator~ ________;
#X obj 357 539 unpack 0 0 0 0 0;
#X obj 357 517 t l b;
#X obj 302 662 ../core/string_resonator~ ________;
#X obj 359 637 unpack 0 0 0 0 0;
#X obj 359 615 t l b;
#X obj 27 168 ../core/string_resonator~ ________;
#X obj 84 143 unpack 0 0 0 0 0;
#X obj 84 121 t l b;
#X obj 29 266 ../core/string_resonator~ ________;
#X obj 86 241 unpack 0 0 0 0 0;
#X obj 86 219 t l b;
#X obj 30 365 ../core/string_resonator~ ________;
#X obj 87 340 unpack 0 0 0 0 0;
#X obj 87 318 t l b;
#X obj 32 463 ../core/string_resonator~ ________;
#X obj 89 438 unpack 0 0 0 0 0;
#X obj 89 416 t l b;
#X obj 30 564 ../core/string_resonator~ ________;
#X obj 87 539 unpack 0 0 0 0 0;
#X obj 87 517 t l b;
#X obj 32 662 ../core/string_resonator~ ________;
#X obj 89 637 unpack 0 0 0 0 0;
#X obj 89 615 t l b;
#X text 446 117 60;
#X msg 355 100 288.62 11.55 1702 8519 64;
#X msg 356 199 272.421 12.06 1592 8320 64;
#X msg 357 297 257.131 12.06 1488 8320 64;
#X msg 359 395 242.699 13.08 1393 8320 64;
#X msg 357 497 229.078 14.08 1306 7746 64;
#X msg 359 594 216.221 14.08 1230 7242 64;
#X msg 84 100 204.085 14.08 1146 6955 64;
#X msg 87 198 194.307 14.08 987 6858 64;
#X msg 87 296 183.401 14.08 918 6858 64;
#X msg 89 395 173.108 14.59 865 6858 64;
#X msg 87 496 163.392 14.59 822 6858 64;
#X msg 89 595 154.221 14.68 765 6858 64;
#X connect 0 0 4 0;
#X connect 0 0 7 0;
#X connect 0 0 22 0;
#X connect 0 0 25 0;
#X connect 0 0 28 0;
#X connect 0 0 31 0;
#X connect 0 0 34 0;
#X connect 0 0 37 0;
#X connect 0 0 10 0;
#X connect 0 0 13 0;
#X connect 0 0 16 0;
#X connect 0 0 19 0;
#X connect 2 0 52 0;
#X connect 2 1 51 0;
#X connect 2 2 50 0;
#X connect 2 3 49 0;
#X connect 2 4 48 0;
#X connect 2 5 47 0;
#X connect 2 6 46 0;
#X connect 2 7 45 0;
#X connect 2 8 44 0;
#X connect 2 9 43 0;
#X connect 2 10 42 0;
#X connect 2 11 41 0;
#X connect 3 0 2 0;
#X connect 4 0 1 0;
#X connect 5 0 4 1;
#X connect 5 1 4 2;
#X connect 5 2 4 3;
#X connect 5 3 4 4;
#X connect 5 4 4 5;
#X connect 6 0 5 0;
#X connect 6 1 4 6;
#X connect 7 0 1 0;
#X connect 8 0 7 1;
#X connect 8 1 7 2;
#X connect 8 2 7 3;
#X connect 8 3 7 4;
#X connect 8 4 7 5;
#X connect 9 0 8 0;
#X connect 9 1 7 6;
#X connect 10 0 1 0;
#X connect 11 0 10 1;
#X connect 11 1 10 2;
#X connect 11 2 10 3;
#X connect 11 3 10 4;
#X connect 11 4 10 5;
#X connect 12 0 11 0;
#X connect 12 1 10 6;
#X connect 13 0 1 0;
#X connect 14 0 13 1;
#X connect 14 1 13 2;
#X connect 14 2 13 3;
#X connect 14 3 13 4;
#X connect 14 4 13 5;
#X connect 15 0 14 0;
#X connect 15 1 13 6;
#X connect 16 0 1 0;
#X connect 17 0 16 1;
#X connect 17 1 16 2;
#X connect 17 2 16 3;
#X connect 17 3 16 4;
#X connect 17 4 16 5;
#X connect 18 0 17 0;
#X connect 18 1 16 6;
#X connect 19 0 1 0;
#X connect 20 0 19 1;
#X connect 20 1 19 2;
#X connect 20 2 19 3;
#X connect 20 3 19 4;
#X connect 20 4 19 5;
#X connect 21 0 20 0;
#X connect 21 1 19 6;
#X connect 22 0 1 0;
#X connect 23 0 22 1;
#X connect 23 1 22 2;
#X connect 23 2 22 3;
#X connect 23 3 22 4;
#X connect 23 4 22 5;
#X connect 24 0 23 0;
#X connect 24 1 22 6;
#X connect 25 0 1 0;
#X connect 26 0 25 1;
#X connect 26 1 25 2;
#X connect 26 2 25 3;
#X connect 26 3 25 4;
#X connect 26 4 25 5;
#X connect 27 0 26 0;
#X connect 27 1 25 6;
#X connect 28 0 1 0;
#X connect 29 0 28 1;
#X connect 29 1 28 2;
#X connect 29 2 28 3;
#X connect 29 3 28 4;
#X connect 29 4 28 5;
#X connect 30 0 29 0;
#X connect 30 1 28 6;
#X connect 31 0 1 0;
#X connect 32 0 31 1;
#X connect 32 1 31 2;
#X connect 32 2 31 3;
#X connect 32 3 31 4;
#X connect 32 4 31 5;
#X connect 33 0 32 0;
#X connect 33 1 31 6;
#X connect 34 0 1 0;
#X connect 35 0 34 1;
#X connect 35 1 34 2;
#X connect 35 2 34 3;
#X connect 35 3 34 4;
#X connect 35 4 34 5;
#X connect 36 0 35 0;
#X connect 36 1 34 6;
#X connect 37 0 1 0;
#X connect 38 0 37 1;
#X connect 38 1 37 2;
#X connect 38 2 37 3;
#X connect 38 3 37 4;
#X connect 38 4 37 5;
#X connect 39 0 38 0;
#X connect 39 1 37 6;
#X connect 41 0 6 0;
#X connect 42 0 9 0;
#X connect 43 0 12 0;
#X connect 44 0 15 0;
#X connect 45 0 18 0;
#X connect 46 0 21 0;
#X connect 47 0 24 0;
#X connect 48 0 27 0;
#X connect 49 0 30 0;
#X connect 50 0 33 0;
#X connect 51 0 36 0;
#X connect 52 0 39 0;
#X restore 144 351 pd #c...c1;
#N canvas 861 24 553 794 #C...c 0;
#X obj 25 20 inlet~;
#X obj 32 740 outlet~;
#X obj 271 46 t b b b b b b b b b b b b;
#X obj 270 18 inlet;
#X obj 297 168 ../core/string_resonator~ ________;
#X obj 354 143 unpack 0 0 0 0 0;
#X obj 354 121 t l b;
#X obj 299 266 ../core/string_resonator~ ________;
#X obj 356 241 unpack 0 0 0 0 0;
#X obj 356 219 t l b;
#X obj 300 365 ../core/string_resonator~ ________;
#X obj 357 340 unpack 0 0 0 0 0;
#X obj 357 318 t l b;
#X obj 302 463 ../core/string_resonator~ ________;
#X obj 359 438 unpack 0 0 0 0 0;
#X obj 360 415 t l b;
#X obj 300 564 ../core/string_resonator~ ________;
#X obj 357 539 unpack 0 0 0 0 0;
#X obj 357 517 t l b;
#X obj 302 662 ../core/string_resonator~ ________;
#X obj 359 637 unpack 0 0 0 0 0;
#X obj 359 615 t l b;
#X obj 27 168 ../core/string_resonator~ ________;
#X obj 84 143 unpack 0 0 0 0 0;
#X obj 84 121 t l b;
#X obj 29 266 ../core/string_resonator~ ________;
#X obj 86 241 unpack 0 0 0 0 0;
#X obj 86 219 t l b;
#X obj 30 365 ../core/string_resonator~ ________;
#X obj 87 340 unpack 0 0 0 0 0;
#X obj 87 318 t l b;
#X obj 32 463 ../core/string_resonator~ ________;
#X obj 89 438 unpack 0 0 0 0 0;
#X obj 89 416 t l b;
#X obj 30 564 ../core/string_resonator~ ________;
#X obj 87 539 unpack 0 0 0 0 0;
#X obj 87 517 t l b;
#X obj 32 662 ../core/string_resonator~ ________;
#X obj 89 637 unpack 0 0 0 0 0;
#X obj 89 615 t l b;
#X text 446 113 48;
#X msg 354 99 145.566 14.68 715 5335 64;
#X msg 356 199 137.396 15.65 656 5335 64;
#X msg 357 298 129.684 15.65 621 5335 64;
#X msg 361 394 122.406 15.94 577 4706 64;
#X msg 356 494 115.536 15.94 537 4531 64;
#X msg 359 593 109.051 16.38 498 4006 64;
#X msg 84 100 102.93 17.04 463 4006 64;
#X msg 86 198 97.1534 17.57 427 4006 64;
#X msg 87 298 91.7006 17.57 402 4006 64;
#X msg 88 393 86.5539 17.57 381 4006 64;
#X msg 87 495 81.696 17.57 344 4006 64;
#X msg 90 591 77.1107 17.57 321 3119 64;
#X connect 0 0 4 0;
#X connect 0 0 7 0;
#X connect 0 0 22 0;
#X connect 0 0 25 0;
#X connect 0 0 28 0;
#X connect 0 0 31 0;
#X connect 0 0 34 0;
#X connect 0 0 37 0;
#X connect 0 0 10 0;
#X connect 0 0 13 0;
#X connect 0 0 16 0;
#X connect 0 0 19 0;
#X connect 2 0 52 0;
#X connect 2 1 51 0;
#X connect 2 2 50 0;
#X connect 2 3 49 0;
#X connect 2 4 48 0;
#X connect 2 5 47 0;
#X connect 2 6 46 0;
#X connect 2 7 45 0;
#X connect 2 8 44 0;
#X connect 2 9 43 0;
#X connect 2 10 42 0;
#X connect 2 11 41 0;
#X connect 3 0 2 0;
#X connect 4 0 1 0;
#X connect 5 0 4 1;
#X connect 5 1 4 2;
#X connect 5 2 4 3;
#X connect 5 3 4 4;
#X connect 5 4 4 5;
#X connect 6 0 5 0;
#X connect 6 1 4 6;
#X connect 7 0 1 0;
#X connect 8 0 7 1;
#X connect 8 1 7 2;
#X connect 8 2 7 3;
#X connect 8 3 7 4;
#X connect 8 4 7 5;
#X connect 9 0 8 0;
#X connect 9 1 7 6;
#X connect 10 0 1 0;
#X connect 11 0 10 1;
#X connect 11 1 10 2;
#X connect 11 2 10 3;
#X connect 11 3 10 4;
#X connect 11 4 10 5;
#X connect 12 0 11 0;
#X connect 12 1 10 6;
#X connect 13 0 1 0;
#X connect 14 0 13 1;
#X connect 14 1 13 2;
#X connect 14 2 13 3;
#X connect 14 3 13 4;
#X connect 14 4 13 5;
#X connect 15 0 14 0;
#X connect 15 1 13 6;
#X connect 16 0 1 0;
#X connect 17 0 16 1;
#X connect 17 1 16 2;
#X connect 17 2 16 3;
#X connect 17 3 16 4;
#X connect 17 4 16 5;
#X connect 18 0 17 0;
#X connect 18 1 16 6;
#X connect 19 0 1 0;
#X connect 20 0 19 1;
#X connect 20 1 19 2;
#X connect 20 2 19 3;
#X connect 20 3 19 4;
#X connect 20 4 19 5;
#X connect 21 0 20 0;
#X connect 21 1 19 6;
#X connect 22 0 1 0;
#X connect 23 0 22 1;
#X connect 23 1 22 2;
#X connect 23 2 22 3;
#X connect 23 3 22 4;
#X connect 23 4 22 5;
#X connect 24 0 23 0;
#X connect 24 1 22 6;
#X connect 25 0 1 0;
#X connect 26 0 25 1;
#X connect 26 1 25 2;
#X connect 26 2 25 3;
#X connect 26 3 25 4;
#X connect 26 4 25 5;
#X connect 27 0 26 0;
#X connect 27 1 25 6;
#X connect 28 0 1 0;
#X connect 29 0 28 1;
#X connect 29 1 28 2;
#X connect 29 2 28 3;
#X connect 29 3 28 4;
#X connect 29 4 28 5;
#X connect 30 0 29 0;
#X connect 30 1 28 6;
#X connect 31 0 1 0;
#X connect 32 0 31 1;
#X connect 32 1 31 2;
#X connect 32 2 31 3;
#X connect 32 3 31 4;
#X connect 32 4 31 5;
#X connect 33 0 32 0;
#X connect 33 1 31 6;
#X connect 34 0 1 0;
#X connect 35 0 34 1;
#X connect 35 1 34 2;
#X connect 35 2 34 3;
#X connect 35 3 34 4;
#X connect 35 4 34 5;
#X connect 36 0 35 0;
#X connect 36 1 34 6;
#X connect 37 0 1 0;
#X connect 38 0 37 1;
#X connect 38 1 37 2;
#X connect 38 2 37 3;
#X connect 38 3 37 4;
#X connect 38 4 37 5;
#X connect 39 0 38 0;
#X connect 39 1 37 6;
#X connect 41 0 6 0;
#X connect 42 0 9 0;
#X connect 43 0 12 0;
#X connect 44 0 15 0;
#X connect 45 0 18 0;
#X connect 46 0 21 0;
#X connect 47 0 24 0;
#X connect 48 0 27 0;
#X connect 49 0 30 0;
#X connect 50 0 33 0;
#X connect 51 0 36 0;
#X connect 52 0 39 0;
#X restore 233 350 pd #C...c;
#N canvas 865 22 553 794 #C1...C 0;
#X obj 25 20 inlet~;
#X obj 32 740 outlet~;
#X obj 271 46 t b b b b b b b b b b b b;
#X obj 270 18 inlet;
#X obj 297 168 ../core/string_resonator~ ________;
#X obj 354 143 unpack 0 0 0 0 0;
#X obj 354 121 t l b;
#X obj 299 266 ../core/string_resonator~ ________;
#X obj 356 241 unpack 0 0 0 0 0;
#X obj 356 219 t l b;
#X obj 300 365 ../core/string_resonator~ ________;
#X obj 357 340 unpack 0 0 0 0 0;
#X obj 357 318 t l b;
#X obj 302 463 ../core/string_resonator~ ________;
#X obj 359 438 unpack 0 0 0 0 0;
#X obj 359 416 t l b;
#X obj 300 564 ../core/string_resonator~ ________;
#X obj 357 539 unpack 0 0 0 0 0;
#X obj 357 517 t l b;
#X obj 302 662 ../core/string_resonator~ ________;
#X obj 359 637 unpack 0 0 0 0 0;
#X obj 359 615 t l b;
#X obj 27 168 ../core/string_resonator~ ________;
#X obj 84 143 unpack 0 0 0 0 0;
#X obj 84 121 t l b;
#X obj 29 266 ../core/string_resonator~ ________;
#X obj 86 241 unpack 0 0 0 0 0;
#X obj 86 219 t l b;
#X obj 30 365 ../core/string_resonator~ ________;
#X obj 87 340 unpack 0 0 0 0 0;
#X obj 87 318 t l b;
#X obj 32 463 ../core/string_resonator~ ________;
#X obj 89 438 unpack 0 0 0 0 0;
#X obj 89 416 t l b;
#X obj 30 564 ../core/string_resonator~ ________;
#X obj 87 539 unpack 0 0 0 0 0;
#X obj 87 517 t l b;
#X obj 32 662 ../core/string_resonator~ ________;
#X obj 89 637 unpack 0 0 0 0 0;
#X obj 89 615 t l b;
#X text 446 113 36;
#X msg 355 95 72.7828 17.57 291 2792 64;
#X msg 356 197 68.6978 17.57 284 2740 64;
#X msg 357 296 64.8421 17.57 242 2483 64;
#X msg 360 393 61.2028 17.57 222 2466 64;
#X msg 357 496 57.7678 18.15 208 2384 64;
#X msg 359 594 54.5255 18.15 189 2384 64;
#X msg 85 99 51.4652 19.74 177 1986 64;
#X msg 87 199 48.5767 19.74 161 1986 64;
#X msg 87 297 45.8503 19.74 155 1986 64;
#X msg 90 393 43.2769 19.74 140 1986 64;
#X msg 88 495 40.848 19.74 124 1986 64;
#X msg 89 592 38.5554 19.74 112 1986 64;
#X connect 0 0 4 0;
#X connect 0 0 7 0;
#X connect 0 0 22 0;
#X connect 0 0 25 0;
#X connect 0 0 28 0;
#X connect 0 0 31 0;
#X connect 0 0 34 0;
#X connect 0 0 37 0;
#X connect 0 0 10 0;
#X connect 0 0 13 0;
#X connect 0 0 16 0;
#X connect 0 0 19 0;
#X connect 2 0 52 0;
#X connect 2 1 51 0;
#X connect 2 2 50 0;
#X connect 2 3 49 0;
#X connect 2 4 48 0;
#X connect 2 5 47 0;
#X connect 2 6 46 0;
#X connect 2 7 45 0;
#X connect 2 8 44 0;
#X connect 2 9 43 0;
#X connect 2 10 42 0;
#X connect 2 11 41 0;
#X connect 3 0 2 0;
#X connect 4 0 1 0;
#X connect 5 0 4 1;
#X connect 5 1 4 2;
#X connect 5 2 4 3;
#X connect 5 3 4 4;
#X connect 5 4 4 5;
#X connect 6 0 5 0;
#X connect 6 1 4 6;
#X connect 7 0 1 0;
#X connect 8 0 7 1;
#X connect 8 1 7 2;
#X connect 8 2 7 3;
#X connect 8 3 7 4;
#X connect 8 4 7 5;
#X connect 9 0 8 0;
#X connect 9 1 7 6;
#X connect 10 0 1 0;
#X connect 11 0 10 1;
#X connect 11 1 10 2;
#X connect 11 2 10 3;
#X connect 11 3 10 4;
#X connect 11 4 10 5;
#X connect 12 0 11 0;
#X connect 12 1 10 6;
#X connect 13 0 1 0;
#X connect 14 0 13 1;
#X connect 14 1 13 2;
#X connect 14 2 13 3;
#X connect 14 3 13 4;
#X connect 14 4 13 5;
#X connect 15 0 14 0;
#X connect 15 1 13 6;
#X connect 16 0 1 0;
#X connect 17 0 16 1;
#X connect 17 1 16 2;
#X connect 17 2 16 3;
#X connect 17 3 16 4;
#X connect 17 4 16 5;
#X connect 18 0 17 0;
#X connect 18 1 16 6;
#X connect 19 0 1 0;
#X connect 20 0 19 1;
#X connect 20 1 19 2;
#X connect 20 2 19 3;
#X connect 20 3 19 4;
#X connect 20 4 19 5;
#X connect 21 0 20 0;
#X connect 21 1 19 6;
#X connect 22 0 1 0;
#X connect 23 0 22 1;
#X connect 23 1 22 2;
#X connect 23 2 22 3;
#X connect 23 3 22 4;
#X connect 23 4 22 5;
#X connect 24 0 23 0;
#X connect 24 1 22 6;
#X connect 25 0 1 0;
#X connect 26 0 25 1;
#X connect 26 1 25 2;
#X connect 26 2 25 3;
#X connect 26 3 25 4;
#X connect 26 4 25 5;
#X connect 27 0 26 0;
#X connect 27 1 25 6;
#X connect 28 0 1 0;
#X connect 29 0 28 1;
#X connect 29 1 28 2;
#X connect 29 2 28 3;
#X connect 29 3 28 4;
#X connect 29 4 28 5;
#X connect 30 0 29 0;
#X connect 30 1 28 6;
#X connect 31 0 1 0;
#X connect 32 0 31 1;
#X connect 32 1 31 2;
#X connect 32 2 31 3;
#X connect 32 3 31 4;
#X connect 32 4 31 5;
#X connect 33 0 32 0;
#X connect 33 1 31 6;
#X connect 34 0 1 0;
#X connect 35 0 34 1;
#X connect 35 1 34 2;
#X connect 35 2 34 3;
#X connect 35 3 34 4;
#X connect 35 4 34 5;
#X connect 36 0 35 0;
#X connect 36 1 34 6;
#X connect 37 0 1 0;
#X connect 38 0 37 1;
#X connect 38 1 37 2;
#X connect 38 2 37 3;
#X connect 38 3 37 4;
#X connect 38 4 37 5;
#X connect 39 0 38 0;
#X connect 39 1 37 6;
#X connect 41 0 6 0;
#X connect 42 0 9 0;
#X connect 43 0 12 0;
#X connect 44 0 15 0;
#X connect 45 0 18 0;
#X connect 46 0 21 0;
#X connect 47 0 24 0;
#X connect 48 0 27 0;
#X connect 49 0 30 0;
#X connect 50 0 33 0;
#X connect 51 0 36 0;
#X connect 52 0 39 0;
#X restore 315 350 pd #C1...C;
#N canvas 865 24 553 794 A2...C1 0;
#X obj 25 20 inlet~;
#X obj 32 740 outlet~;
#X obj 270 18 inlet;
#X obj 297 168 ../core/string_resonator~ ________;
#X obj 354 143 unpack 0 0 0 0 0;
#X obj 354 121 t l b;
#X obj 299 266 ../core/string_resonator~ ________;
#X obj 356 241 unpack 0 0 0 0 0;
#X obj 356 219 t l b;
#X obj 300 365 ../core/string_resonator~ ________;
#X obj 357 340 unpack 0 0 0 0 0;
#X obj 357 318 t l b;
#X obj 302 463 ../core/string_resonator~ ________;
#X obj 359 438 unpack 0 0 0 0 0;
#X obj 359 416 t l b;
#X text 446 114 24;
#X obj 271 46 t b b b b;
#X msg 354 97 36.3914 20.07 105 1651 64;
#X msg 357 197 34.3489 20.07 94 1651 64;
#X msg 357 296 32.4211 20.07 85 1651 64;
#X msg 359 396 30.6014 20.07 73 1651 64;
#X connect 0 0 3 0;
#X connect 0 0 6 0;
#X connect 0 0 9 0;
#X connect 0 0 12 0;
#X connect 2 0 16 0;
#X connect 3 0 1 0;
#X connect 4 0 3 1;
#X connect 4 1 3 2;
#X connect 4 2 3 3;
#X connect 4 3 3 4;
#X connect 4 4 3 5;
#X connect 5 0 4 0;
#X connect 5 1 3 6;
#X connect 6 0 1 0;
#X connect 7 0 6 1;
#X connect 7 1 6 2;
#X connect 7 2 6 3;
#X connect 7 3 6 4;
#X connect 7 4 6 5;
#X connect 8 0 7 0;
#X connect 8 1 6 6;
#X connect 9 0 1 0;
#X connect 10 0 9 1;
#X connect 10 1 9 2;
#X connect 10 2 9 3;
#X connect 10 3 9 4;
#X connect 10 4 9 5;
#X connect 11 0 10 0;
#X connect 11 1 9 6;
#X connect 12 0 1 0;
#X connect 13 0 12 1;
#X connect 13 1 12 2;
#X connect 13 2 12 3;
#X connect 13 3 12 4;
#X connect 13 4 12 5;
#X connect 14 0 13 0;
#X connect 14 1 12 6;
#X connect 16 0 20 0;
#X connect 16 1 19 0;
#X connect 16 2 18 0;
#X connect 16 3 17 0;
#X connect 17 0 5 0;
#X connect 18 0 8 0;
#X connect 19 0 11 0;
#X connect 20 0 14 0;
#X restore 405 352 pd A2...C1;
#X obj 236 131 t b;
#X obj 235 104 inlet;
#X text 223 85 init-bang;
#X obj 114 601 outlet~;
#X obj 114 520 *~ 0.007;
#X obj 74 103 inlet~;
#X obj 483 101 inlet;
#X obj 299 574 outlet;
#X obj 321 104 inlet;
#X text 315 86 fini-bang;
#X text 285 614 parameter-out;
#X text 105 622 signal-out;
#X text 71 79 signal-in;
#X text 286 600 rejected para;
#X obj 496 572 outlet;
#X text 489 79 incoming parameter;
#X text 483 598 outgoing parameter;
#X connect 0 0 12 0;
#X connect 1 0 12 0;
#X connect 2 0 12 0;
#X connect 3 0 12 0;
#X connect 4 0 12 0;
#X connect 5 0 12 0;
#X connect 6 0 12 0;
#X connect 7 0 12 0;
#X connect 8 0 0 1;
#X connect 8 0 1 1;
#X connect 8 0 2 1;
#X connect 8 0 3 1;
#X connect 8 0 4 1;
#X connect 8 0 5 1;
#X connect 8 0 6 1;
#X connect 8 0 7 1;
#X connect 9 0 8 0;
#X connect 12 0 11 0;
#X connect 13 0 0 0;
#X connect 13 0 1 0;
#X connect 13 0 2 0;
#X connect 13 0 3 0;
#X connect 13 0 4 0;
#X connect 13 0 5 0;
#X connect 13 0 6 0;
#X connect 13 0 7 0;
#X connect 14 0 15 0;
