#N canvas 159 159 1044 310 10;
#X text 713 29 Initial Arguments:;
#X text 664 47 1.arg: <int> max. number of grains playing at the same
time;
#X obj 515 26 namecanvas \$0-gran-synth-vc;
#N canvas 501 79 814 660 \$0-CREATOR-PATCH 0;
#X obj 529 109 bng 15 250 50 0 empty empty empty 17 7 0 10 -262144
-1 -1;
#X obj 489 274 s pd-\$0-GRAIN-ENSEMLE;
#X obj 196 273 s pd-\$0-GRAIN-ENSEMLE;
#X obj 348 273 s pd-\$0-GRAIN-ENSEMLE;
#X obj 189 513 s \$0-gran-synth-vc;
#X msg 540 313 editmode 1;
#X msg 82 477 editmode 0;
#X obj 57 512 s \$0-gran-synth-vc;
#X msg 37 478 vis 0;
#X msg 571 338 vis 1;
#X obj 61 386 t b b b b b b;
#X msg 319 469 editmode 0;
#X msg 295 446 vis 0;
#X msg 182 467 editmode 1;
#X msg 196 489 vis 1;
#X obj 49 455 t b b;
#X obj 573 367 s pd-\$0-GRAIN-ENSEMLE;
#N canvas 1058 149 481 461 CREATE_INLET_ROUTE 0;
#X obj 96 44 inlet;
#X obj 119 204 t f f b;
#X obj 119 256 until;
#X msg 119 323 obj 30 40 route 0 1 2 3 4 5 6 7 8 9 10 11 12 13 14 15
;
#X msg 119 301 add2 \$1;
#X msg 137 153 set obj 30 40 route;
#X msg 150 133 obj 30 20 inlet;
#X msg 165 113 clear;
#X obj 119 277 ../generics/counter 10;
#X obj 119 229 + 1;
#X obj 149 387 outlet;
#X obj 289 390 outlet;
#X obj 288 278 f;
#X obj 95 71 t b f b b b f;
#X msg 189 40 16;
#X obj 298 218 del 0;
#X connect 0 0 13 0;
#X connect 1 0 9 0;
#X connect 1 1 8 1;
#X connect 1 2 8 2;
#X connect 2 0 8 0;
#X connect 3 0 10 0;
#X connect 4 0 3 0;
#X connect 5 0 3 0;
#X connect 6 0 10 0;
#X connect 7 0 10 0;
#X connect 8 0 4 0;
#X connect 8 1 15 0;
#X connect 9 0 2 0;
#X connect 12 0 11 0;
#X connect 13 0 3 0;
#X connect 13 1 1 0;
#X connect 13 2 5 0;
#X connect 13 3 6 0;
#X connect 13 4 7 0;
#X connect 13 5 12 1;
#X connect 14 0 13 0;
#X connect 15 0 12 0;
#X restore 489 230 pd CREATE_INLET_ROUTE;
#X obj 509 144 f \$1;
#N canvas 959 184 434 460 CREATE_GRAIN 0;
#X obj 146 59 inlet;
#X obj 64 419 outlet;
#X obj 309 418 outlet;
#X obj 307 279 f;
#X obj 111 247 * 20;
#X obj 77 247 * 10;
#X obj 77 270 + 30;
#X obj 146 172 until;
#X obj 111 270 + 80;
#X obj 146 150 + 1;
#X obj 119 194 ../generics/counter 10;
#X obj 159 271 symbol \$0-out;
#X msg 225 71 16;
#X obj 263 251 del 0;
#X obj 107 221 t f f b b;
#X obj 86 319 pack f f s s;
#X obj 149 107 t b f f b f;
#X obj 147 248 symbol \$0-sound;
#X msg 86 340 obj \$1 \$2 grain~ \$3 \$4 4;
#X connect 0 0 16 0;
#X connect 3 0 2 0;
#X connect 4 0 8 0;
#X connect 5 0 6 0;
#X connect 6 0 15 0;
#X connect 7 0 10 0;
#X connect 8 0 15 1;
#X connect 9 0 7 0;
#X connect 10 0 14 0;
#X connect 10 1 13 0;
#X connect 11 0 15 3;
#X connect 12 0 16 0;
#X connect 13 0 3 0;
#X connect 14 0 5 0;
#X connect 14 1 4 0;
#X connect 14 2 17 0;
#X connect 14 3 11 0;
#X connect 15 0 18 0;
#X connect 16 1 9 0;
#X connect 16 2 10 1;
#X connect 16 3 10 2;
#X connect 16 4 3 1;
#X connect 17 0 15 2;
#X connect 18 0 1 0;
#X restore 348 232 pd CREATE_GRAIN;
#X obj 311 501 s pd-\$0-GRAIN-ENSEMLE;
#N canvas 880 200 410 520 CONNECT_ROUTE_GRAIN 0;
#X obj 79 59 inlet;
#X obj 78 378 outlet;
#X obj 214 378 outlet;
#X obj 213 347 f;
#X msg 79 252 connect 1 \$1 \$2 0;
#X obj 79 109 t f f b;
#X obj 79 161 until;
#X obj 79 205 t f f;
#X obj 79 229 pack 0 0;
#X obj 79 136 + 1;
#X obj 122 206 + 2;
#X obj 79 182 ../generics/counter 10;
#X obj 79 85 t f b f;
#X msg 101 280 connect 0 0 1 0;
#X msg 196 51 16;
#X obj 214 211 del 0;
#X obj 226 272 del 0;
#X msg 113 340 loadbang;
#X connect 0 0 12 0;
#X connect 3 0 2 0;
#X connect 4 0 1 0;
#X connect 5 0 9 0;
#X connect 5 1 11 1;
#X connect 5 2 11 2;
#X connect 6 0 11 0;
#X connect 7 0 8 0;
#X connect 7 1 10 0;
#X connect 8 0 4 0;
#X connect 9 0 6 0;
#X connect 10 0 8 1;
#X connect 11 0 7 0;
#X connect 11 1 15 0;
#X connect 12 0 5 0;
#X connect 12 1 13 0;
#X connect 12 2 3 1;
#X connect 13 0 1 0;
#X connect 14 0 12 0;
#X connect 15 0 16 0;
#X connect 15 0 17 0;
#X connect 16 0 3 0;
#X connect 17 0 1 0;
#X restore 196 232 pd CONNECT_ROUTE_GRAIN;
#X msg 621 340 clear;
#X obj 457 130 bng 15 250 50 0 empty empty empty 17 7 0 10 -262144
-1 -1;
#X obj 344 123 bng 15 250 50 0 empty empty empty 17 7 0 10 -262144
-1 -1;
#X obj 201 144 bng 15 250 50 0 empty empty empty 17 7 0 10 -262144
-1 -1;
#X obj 59 353 bng 15 250 50 0 empty empty empty 17 7 0 10 -262144 -1
-1;
#X obj 456 155 f \$1;
#X obj 351 164 f \$1;
#X obj 200 180 f \$1;
#X msg 161 443 connect 8 0 9 0;
#X obj 509 55 inlet;
#X text 509 34 init;
#X obj 133 578 outlet;
#X obj 132 554 del 0;
#X obj 509 171 t f b b b;
#X obj 698 57 inlet;
#X text 698 36 fini;
#X obj 661 572 outlet;
#X obj 660 548 del 0;
#X connect 0 0 18 0;
#X connect 5 0 16 0;
#X connect 6 0 7 0;
#X connect 8 0 7 0;
#X connect 9 0 16 0;
#X connect 10 0 15 0;
#X connect 10 0 34 0;
#X connect 10 1 30 0;
#X connect 10 2 13 0;
#X connect 10 3 14 0;
#X connect 10 4 12 0;
#X connect 10 5 11 0;
#X connect 11 0 20 0;
#X connect 12 0 20 0;
#X connect 13 0 4 0;
#X connect 14 0 4 0;
#X connect 15 0 8 0;
#X connect 15 1 6 0;
#X connect 17 0 1 0;
#X connect 17 1 19 0;
#X connect 18 0 35 0;
#X connect 19 0 3 0;
#X connect 19 1 21 0;
#X connect 21 0 2 0;
#X connect 21 1 10 0;
#X connect 22 0 16 0;
#X connect 23 0 27 0;
#X connect 24 0 28 0;
#X connect 25 0 29 0;
#X connect 26 0 10 0;
#X connect 27 0 17 0;
#X connect 28 0 19 0;
#X connect 29 0 21 0;
#X connect 30 0 4 0;
#X connect 31 0 18 0;
#X connect 34 0 33 0;
#X connect 35 0 17 0;
#X connect 35 1 5 0;
#X connect 35 2 9 0;
#X connect 35 3 22 0;
#X connect 36 0 39 0;
#X connect 39 0 38 0;
#X restore 112 67 pd \$0-CREATOR-PATCH;
#X obj 30 41 inlet~;
#X obj 295 41 inlet;
#X obj 135 39 inlet;
#X obj 420 39 inlet;
#N canvas 11 22 1360 820 GRAIN-RATE-PARAMETER-TRANSFORM____________
0;
#X obj 37 40 inlet~;
#X obj 134 790 outlet;
#X obj 18 350 tgl 15 0 empty empty empty 17 7 0 10 -262144 -1 -1 0
1;
#X obj 47 422 f;
#X obj 47 451 + 1;
#X obj 47 395 t b b b;
#X obj 570 40 inlet;
#X obj 337 38 inlet;
#X text 337 20 init-bang;
#X text 570 26 parameters;
#X obj 450 40 inlet;
#X text 450 25 fini-bang;
#X obj 1289 473 t a;
#X obj 85 435 mod \$1;
#X obj 639 789 outlet;
#X text 774 388 minimum number of grains you can at the same time.
;
#X text 764 376 unit [-] \, initial-value: 5 \, range: (0 ... MAX_OL)
;
#X text 775 440 maximum number of grains you can at the same time.
;
#X text 764 48 unit [-] \, initial-value: 16 \, range: (1 ... 40);
#X text 765 428 unit [-] \, initial-value: 8 \, range: (0 ... MAX_OL)
;
#X text 774 60 maximum number of grain generators (MAX_OL).;
#X text 765 605 unit [-] \, initial-value: 0 \, range: (0 ... 999999)
;
#X text 775 617 number of quants between minimum and maximum value
of cloud;
#X text 775 629 position in sample. Zero means +infinite = no quantization.
;
#X text 765 667 unit [cents] \, initial-value: 0 \, range: (-2400 ...
+2400);
#X text 766 716 unit [cents] \, initial-value: 0 \, range: (-2400 ...
+2400);
#X text 776 728 maximum value of pitch transposing of the sample grain.
;
#X text 775 679 minimum value of pitch transposing of the sample grain.
;
#X text 766 761 unit [sec] \, initial-value: 0.03 \, range: (0.001
... 100);
#X text 776 773 minimum size of sample grain.;
#X text 1236 567 maximum size of sample grain.;
#X text 1236 616 relative attack time related to grain size. the shape
is;
#X text 1237 628 allways the left half of a hanning window.;
#X text 1233 672 relative release time related to grain size. the shape
is;
#X text 1234 684 allways the right half of a hanning window.;
#X text 1226 555 unit [sec] \, initial-value: 0.05 \, range: (0.001
... 100);
#X text 1226 604 unit [%] \, initial-value: 15 \, range: (0 ... 50)
;
#X text 1223 660 unit [%] \, initial-value: 15 \, range: (0 ... 50)
;
#X text 1233 734 minimum value of spatial position of a grain.;
#X text 1234 797 maximum value of spatial position of a grain.;
#N canvas 383 170 548 484 pos 0;
#X obj 77 88 inlet;
#X obj 76 364 outlet;
#X obj 188 91 inlet;
#X obj 190 361 outlet;
#X text 74 66 rel pos;
#X text 188 71 pos deviation;
#X connect 0 0 1 0;
#X connect 2 0 3 0;
#X restore 159 584 pd pos;
#N canvas 383 170 326 347 pitch 0;
#X obj 42 52 inlet;
#X obj 43 185 outlet;
#X obj 193 55 inlet;
#X obj 150 191 outlet;
#X obj 41 94 ../generics/minmax2meandev;
#X connect 0 0 4 0;
#X connect 2 0 4 1;
#X connect 4 0 1 0;
#X connect 4 1 3 0;
#X restore 504 426 pd pitch;
#N canvas 383 170 326 347 g.size 0;
#X obj 42 52 inlet;
#X obj 43 185 outlet;
#X obj 193 55 inlet;
#X obj 150 191 outlet;
#X obj 41 94 ../generics/minmax2meandev;
#X connect 0 0 4 0;
#X connect 2 0 4 1;
#X connect 4 0 1 0;
#X connect 4 1 3 0;
#X restore 401 419 pd g.size;
#N canvas 383 170 326 347 spat 0;
#X obj 42 52 inlet;
#X obj 43 295 outlet;
#X obj 193 55 inlet;
#X obj 119 294 outlet;
#X obj 42 91 + 1000;
#X obj 191 95 + 1000;
#X obj 43 188 - 1000;
#X obj 43 143 ../generics/minmax2meandev;
#X connect 0 0 4 0;
#X connect 2 0 5 0;
#X connect 4 0 7 0;
#X connect 5 0 7 1;
#X connect 6 0 1 0;
#X connect 7 0 6 0;
#X connect 7 1 3 0;
#X restore 536 500 pd spat;
#N canvas 383 170 556 381 dense 0;
#X obj 42 52 inlet;
#X obj 282 270 outlet;
#X obj 178 52 inlet;
#X obj 49 267 outlet;
#X obj 282 238 min;
#X obj 42 91 t f f;
#X obj 130 271 outlet;
#X obj 43 143 ../generics/minmax2meandev;
#X obj 178 92 t f b f;
#X connect 0 0 5 0;
#X connect 2 0 8 0;
#X connect 4 0 1 0;
#X connect 5 0 7 0;
#X connect 5 1 4 0;
#X connect 7 0 3 0;
#X connect 7 1 6 0;
#X connect 8 0 7 1;
#X connect 8 1 4 0;
#X connect 8 2 4 1;
#X restore 381 354 pd dense;
#X obj 112 161 expr 1000 * $f1 / $f2;
#X obj 142 88 t f b;
#X text 137 178 minimum metro time;
#X obj 114 342 max;
#X obj 267 129 f \$1;
#X obj 18 369 metro 300;
#X msg 48 171 1;
#X text 631 813 rejected para;
#X floatatom 156 488 5 0 0 0 - - -;
#X floatatom 197 490 5 0 0 0 - - -;
#X floatatom 257 491 5 0 0 0 - - -;
#X floatatom 118 398 0 0 0 0 - - -;
#X floatatom 53 117 5 0 0 0 - - -;
#X floatatom 141 236 5 0 0 0 - - -;
#X obj 141 315 expr 1000 * $f1 / $f2;
#X obj 144 264 t b f;
#X obj 141 290 f;
#X floatatom 395 467 5 0 0 0 - - -;
#X floatatom 259 174 5 0 0 0 - - -;
#X floatatom 607 383 5 0 0 0 - - -;
#N canvas 0 22 465 477 init 0;
#X obj 55 36 inlet;
#X obj 54 244 outlet;
#X obj 55 61 t b;
#X obj 54 155 until;
#X obj 54 133 + 1;
#X obj 54 179 ../generics/counter 10;
#X obj 54 111 t f f b f;
#X obj 54 89 f \$1;
#X msg 54 210 \$1 init bang;
#X connect 0 0 2 0;
#X connect 2 0 7 0;
#X connect 3 0 5 0;
#X connect 4 0 3 0;
#X connect 5 0 8 0;
#X connect 6 0 4 0;
#X connect 6 1 5 1;
#X connect 6 2 5 2;
#X connect 7 0 6 0;
#X connect 8 0 1 0;
#X restore 578 547 pd init;
#X floatatom 174 351 0 0 0 0 - - -;
#X obj 115 370 min 10000;
#X obj 77 198 ../generics/gauss_distribute 141 8 0;
#X obj 337 66 t b b b;
#N canvas 0 22 579 507 load_sound_into_table 0;
#X obj 61 41 inlet;
#X obj 58 435 outlet;
#X obj 60 70 symbol;
#X obj 60 214 soundfiler;
#X msg 60 192 read -resize \$1 \$2;
#X obj 60 94 t s b;
#X obj 60 167 pack s s;
#X obj 60 237 t b;
#X obj 59 331 until;
#X obj 59 309 + 1;
#X obj 59 355 ../generics/counter 10;
#X obj 59 287 t f f b f;
#X obj 59 265 f \$1;
#X msg 60 381 \$1 bang;
#X obj 332 43 inlet;
#X text 315 26 select table;
#X obj 138 130 symbol \$0-sound-1;
#X obj 332 69 clip 1 5;
#X obj 332 95 makefilename \$0-sound-%d;
#X connect 0 0 2 0;
#X connect 2 0 5 0;
#X connect 3 0 7 0;
#X connect 4 0 3 0;
#X connect 5 0 6 0;
#X connect 5 1 16 0;
#X connect 6 0 4 0;
#X connect 7 0 12 0;
#X connect 8 0 10 0;
#X connect 9 0 8 0;
#X connect 10 0 13 0;
#X connect 11 0 9 0;
#X connect 11 1 10 1;
#X connect 11 2 10 2;
#X connect 12 0 11 0;
#X connect 13 0 1 0;
#X connect 14 0 17 0;
#X connect 16 0 6 1;
#X connect 17 0 18 0;
#X connect 18 0 16 1;
#X restore 34 543 pd load_sound_into_table;
#X text 765 109 the soundfile storage for editing like loading \, resizing
\, recording.;
#X text 765 339 the soundfile storage for playing back.;
#X text 765 210 unit [sec] \, initial-value: 10 \, range: (0.1..90)
\, resizes;
#X text 765 156 initial-value: - \, range: - \, loads the soundfile
;
#X text 765 169 content from harddisk into the previously selected
pd array.;
#X text 765 223 the previously selected pd array (soundfile storage).
;
#X text 765 275 from signal input to the previously selected pd array
(soundfile storage).;
#X text 793 833 MAX_OL = maximum overlap;
#N canvas 0 22 389 366 tables 0;
#X obj 59 88 table \$0-sound-1 441000;
#X obj 59 110 table \$0-sound-2 441000;
#X obj 59 132 table \$0-sound-3 441000;
#X obj 59 154 table \$0-sound-4 441000;
#X obj 59 176 table \$0-sound-5 441000;
#X restore 41 825 pd tables;
#X text 765 96 unit [-] \, initial-value: 1 \, range: (1..5) \, selects
;
#X text 765 326 unit [-] \, initial-value: 1 \, range: (1..5) \, selects
;
#X text 185 692 -2.) rel.cluster.position in sample [0...1];
#X text 202 704 -3.) cluster.position.deviation [sec];
#X text 218 718 -4.) cluster.position.quantization [-];
#X text 235 730 -5.) grain.size [sec];
#X text 252 742 -6.) grain.size.deviation [sec];
#N canvas 0 22 468 355 resize_table 0;
#X obj 60 27 inlet;
#X obj 267 42 inlet;
#X text 250 25 select table;
#X obj 138 209 symbol \$0-sound-1;
#X obj 267 68 clip 1 5;
#X obj 267 94 makefilename \$0-sound-%d;
#X obj 60 173 t f b;
#X obj 60 246 pack f s;
#X msg 60 269 \; \$2 resize \$1;
#X obj 107 114 samplerate~;
#X obj 60 140 * 44100;
#X obj 60 55 clip 0.1 90;
#X obj 60 84 t f b;
#X connect 0 0 11 0;
#X connect 1 0 4 0;
#X connect 3 0 7 1;
#X connect 4 0 5 0;
#X connect 5 0 3 1;
#X connect 6 0 7 0;
#X connect 6 1 3 0;
#X connect 7 0 8 0;
#X connect 9 0 10 1;
#X connect 10 0 6 0;
#X connect 11 0 12 0;
#X connect 12 0 10 0;
#X connect 12 1 9 0;
#X restore 246 580 pd resize_table;
#X text 36 20 sig.in;
#X msg 1289 29 maxNrGrains \$1;
#X msg 1289 50 selEditSoundIndex \$1;
#X msg 1289 73 loadSound \$1;
#X msg 1289 96 resizeSound \$1;
#X msg 1289 118 recSound \$1;
#X msg 1289 141 selPlaybackSoundIndex \$1;
#X msg 1289 164 minCloudDensity \$1;
#X msg 1289 186 maxCloudDensity \$1;
#X msg 1289 256 nrOfPositionQuants \$1;
#X msg 1289 351 maxGrainSize \$1;
#X msg 1289 326 minGrainSize \$1;
#X msg 1289 446 maxSpatialPosition \$1;
#X msg 1289 423 minSpatialPosition \$1;
#X msg 1289 374 attackTime \$1;
#X msg 1289 398 releaseTime \$1;
#X text 734 33 7.) parameter: "maxNrGrains" \, type: <float>;
#X text 735 81 8.) parameter: "selEditSoundIndex" \, type: <float>
;
#X text 735 141 9.) parameter: "loadSound" \, type: <symbol> \, unit
[-];
#X text 735 311 12.) parameter: "selPlaybackSoundIndex" \, type: <float>
;
#X text 734 361 13.) parameter: "minCloudDensity" \, type: <float>
;
#X text 735 413 14.) parameter: "maxCloudDensity" \, type: <float>
;
#X text 1196 540 21.) parameter: "maxGrainSize" \, type: <float>;
#X text 1196 589 22.) parameter: "attackTime" \, type: <float>;
#X text 1193 645 23.) parameter: "releaseTime" \, type: <float>;
#X text 1193 708 24.) parameter: "minSpatialPosition" \, type: <float>
;
#X text 1194 770 25.) parameter: "maxSpatialPosition" \, type: <float>
;
#X text 736 746 20.) parameter: "minGrainSize" \, type: <float>;
#X text 736 593 17.) parameter: "nrOfPositionQuants" \, type: <float>
;
#X obj 144 648 pack 0 0 0 0 0 0 0 0 0 0 0 0 1;
#X text 269 754 -7.) percental.attack.time of grain.time [%];
#X text 286 766 -8.) percental.release.time of grain.time [%];
#X text 303 778 -9.) pitch.transposition [cents];
#X text 320 790 -10.) pitch.deviation [cents];
#X text 337 804 -11.) rel.spatial.cloud.position [0...1];
#X text 354 816 -12.) spatial.deviation [-];
#X text 370 830 -13.) playback table index [1...5];
#X text 174 679 -1.) voice allocator index [0...15];
#X text 735 652 18.) parameter: "minPitchTransposition" \, type: <float>
;
#X text 736 701 19.) parameter: "maxPitchTransposition" \, type: <float>
;
#X msg 1289 302 maxPitchTransposition \$1;
#X msg 1289 279 minPitchTransposition \$1;
#X obj 651 449 print;
#X text 737 529 16.) parameter: "devCloudPosition" \, type: <float>
;
#X text 766 544 unit [sec] \, initial-value: 0.2 \, range: (0 ... 10)
;
#X text 776 556 maximum of positive or negative deviation value of
;
#X text 776 568 cloud position in playback sample.;
#X text 766 480 unit [-] \, initial-value: 0.1 \, range: (0 ... 1)
;
#X text 736 465 15.) parameter: "relMeanCloudPosition" \, type: <float>
;
#X text 776 492 relative mean value of cloud position in playback sample.
;
#X text 776 504 (0 .. begin of sample \, 1 .. end of sample).;
#X msg 1289 210 relMeanCloudPosition \$1;
#X msg 1289 233 devCloudPosition \$1;
#X msg 371 100 init bang \, maxNrGrains 16 \, minCloudDensity 5 \,
maxCloudDensity 8 \, relMeanCloudPosition 0.1 \, devCloudPosition 0.2
\, nrOfPositionQuants 0 \, minPitchTransposition 0 \, maxPitchTransposition
0 \, minGrainSize 0.03 \, maxGrainSize 0.05 \, attackTime 15 \, releaseTime
15 \, minSpatialPosition 0.3 \, maxSpatialPosition 0.7;
#X text 1224 785 unit [-] \, initial-value: 0.7 \, range: (0 ... 4)
;
#X text 1223 722 unit [-] \, initial-value: 0.3 \, range: (0 ... 4)
;
#X obj 536 474 / 4;
#X obj 575 473 / 4;
#X text 1233 746 0 .. ch1 \, 1 .. ch2 \, 2 .. ch3 \, 3 .. ch4 \, 4
= 0;
#X text 735 247 11.) parameter: "recSound" \, type: <int>;
#X text 765 262 unit [-] \, initial-value: 0 \, range: 0/1 \, records
sound;
#X obj 371 220 route maxNrGrains selEditSoundIndex loadSound recLength
recSound selPlaybackSoundIndex minCloudDensity maxCloudDensity relMeanCloudPosition
devCloudPosition nrOfPositionQuants minPitchTransposition maxPitchTransposition
minGrainSize maxGrainSize attackTime releaseTime minSpatialPosition
maxSpatialPosition init;
#X text 735 195 10.) parameter: "recLength" \, type: <float>;
#N canvas 741 26 658 457 record_sound_into_table 0;
#X obj 145 41 inlet;
#X obj 328 47 inlet;
#X text 311 30 select table;
#X obj 184 159 symbol \$0-sound-1;
#X obj 328 73 clip 1 5;
#X obj 328 99 makefilename \$0-sound-%d;
#X obj 63 42 inlet~;
#X obj 71 340 tabwrite~ \$0-sound-1;
#X msg 181 205 set \$1;
#X obj 71 292 ../generics/line_mul~ 0 20;
#X obj 519 40 inlet;
#X text 519 22 init;
#X obj 90 146 sel 1 0;
#X msg 131 316 bang;
#X obj 145 83 t f f b b;
#X obj 210 110 samplerate~;
#X obj 210 134 s \$0-in-samprate;
#X obj 368 368 outlet;
#X text 373 390 out;
#X obj 367 314 del 100;
#X msg 367 339 list recSound 0;
#X msg 379 247 stop;
#X obj 344 217 t b b b;
#X obj 422 196 expr size("$s1");
#X obj 422 276 / 44.1;
#X obj 467 251 * 0.001;
#X obj 467 228 r \$0-in-samprate;
#X connect 0 0 14 0;
#X connect 1 0 4 0;
#X connect 3 0 8 0;
#X connect 3 0 23 0;
#X connect 4 0 5 0;
#X connect 5 0 3 1;
#X connect 6 0 9 0;
#X connect 8 0 7 0;
#X connect 9 0 7 0;
#X connect 10 0 9 3;
#X connect 12 0 22 0;
#X connect 13 0 7 0;
#X connect 14 0 12 0;
#X connect 14 1 9 1;
#X connect 14 2 3 0;
#X connect 14 3 15 0;
#X connect 15 0 16 0;
#X connect 19 0 20 0;
#X connect 20 0 17 0;
#X connect 21 0 19 0;
#X connect 22 0 19 0;
#X connect 22 1 13 0;
#X connect 22 2 21 0;
#X connect 23 0 24 0;
#X connect 24 0 19 1;
#X connect 25 0 24 1;
#X connect 26 0 25 0;
#X restore 424 622 pd record_sound_into_table;
#X obj 772 795 outlet;
#X text 764 819 outgoing para;
#X connect 0 0 151 0;
#X connect 2 0 50 0;
#X connect 3 0 4 0;
#X connect 4 0 13 0;
#X connect 5 0 3 0;
#X connect 5 2 68 0;
#X connect 6 0 149 0;
#X connect 7 0 69 0;
#X connect 13 0 3 1;
#X connect 13 0 117 0;
#X connect 40 0 117 1;
#X connect 40 1 117 2;
#X connect 41 0 117 8;
#X connect 41 1 117 9;
#X connect 42 0 61 1;
#X connect 42 0 62 0;
#X connect 42 0 117 4;
#X connect 42 1 117 5;
#X connect 43 0 117 10;
#X connect 43 1 117 11;
#X connect 44 0 53 0;
#X connect 44 0 68 1;
#X connect 44 1 54 0;
#X connect 44 1 68 2;
#X connect 44 2 55 0;
#X connect 45 0 48 1;
#X connect 45 0 63 0;
#X connect 46 0 45 0;
#X connect 46 0 57 0;
#X connect 46 1 49 0;
#X connect 48 0 67 0;
#X connect 49 0 45 1;
#X connect 50 0 5 0;
#X connect 51 0 2 0;
#X connect 59 0 48 0;
#X connect 59 0 66 0;
#X connect 60 0 61 0;
#X connect 60 1 59 1;
#X connect 61 0 59 0;
#X connect 65 0 1 0;
#X connect 67 0 50 1;
#X connect 67 0 56 0;
#X connect 68 0 58 0;
#X connect 68 0 60 0;
#X connect 69 0 51 0;
#X connect 69 1 141 0;
#X connect 69 2 49 0;
#X connect 70 0 1 0;
#X connect 89 0 12 0;
#X connect 90 0 12 0;
#X connect 91 0 12 0;
#X connect 92 0 12 0;
#X connect 93 0 12 0;
#X connect 94 0 12 0;
#X connect 95 0 12 0;
#X connect 96 0 12 0;
#X connect 97 0 12 0;
#X connect 98 0 12 0;
#X connect 99 0 12 0;
#X connect 100 0 12 0;
#X connect 101 0 12 0;
#X connect 102 0 12 0;
#X connect 103 0 12 0;
#X connect 117 0 1 0;
#X connect 128 0 12 0;
#X connect 129 0 12 0;
#X connect 139 0 12 0;
#X connect 140 0 12 0;
#X connect 141 0 149 0;
#X connect 144 0 43 0;
#X connect 145 0 43 1;
#X connect 149 1 70 1;
#X connect 149 1 87 1;
#X connect 149 1 151 2;
#X connect 149 2 70 0;
#X connect 149 3 87 0;
#X connect 149 4 151 1;
#X connect 149 5 117 12;
#X connect 149 6 44 0;
#X connect 149 7 44 1;
#X connect 149 8 40 0;
#X connect 149 9 40 1;
#X connect 149 10 117 3;
#X connect 149 11 41 0;
#X connect 149 12 41 1;
#X connect 149 13 64 0;
#X connect 149 13 42 0;
#X connect 149 13 46 0;
#X connect 149 14 42 1;
#X connect 149 15 117 6;
#X connect 149 16 117 7;
#X connect 149 17 144 0;
#X connect 149 18 145 0;
#X connect 149 19 65 0;
#X connect 149 20 14 0;
#X connect 151 0 152 0;
#X restore 30 94 pd GRAIN-RATE-PARAMETER-TRANSFORM____________;
#N canvas 0 22 725 476 \$0-GRAIN-ENSEMLE 0;
#X restore 30 117 pd \$0-GRAIN-ENSEMLE;
#X obj 28 187 outlet~;
#X obj 28 167 catch~ \$0-out-0;
#X obj 148 187 outlet~;
#X obj 148 167 catch~ \$0-out-1;
#X obj 745 197 outlet;
#X text 129 21 init-bang;
#X text 25 21 opt.sig.in;
#X text 290 22 fini-bang;
#X text 406 21 parameter;
#X obj 268 187 outlet~;
#X obj 388 187 outlet~;
#X obj 268 167 catch~ \$0-out-2;
#X obj 388 167 catch~ \$0-out-3;
#X obj 834 197 outlet;
#X connect 3 0 8 1;
#X connect 3 1 8 2;
#X connect 4 0 8 0;
#X connect 5 0 3 1;
#X connect 6 0 3 0;
#X connect 7 0 8 3;
#X connect 8 1 14 0;
#X connect 8 2 23 0;
#X connect 11 0 10 0;
#X connect 13 0 12 0;
#X connect 21 0 19 0;
#X connect 22 0 20 0;
