#N canvas 20 117 1152 543 10;
#X obj 30 41 inlet~;
#X obj 128 43 inlet;
#X obj 390 42 inlet;
#X obj 29 450 outlet~;
#X obj 149 450 outlet~;
#X obj 372 447 outlet;
#X text 126 25 init-bang;
#X text 376 24 parameter;
#X text 25 21 sig.in;
#X obj 89 450 outlet~;
#X obj 209 450 outlet~;
#N canvas 0 22 620 554 init_table 0;
#X obj 78 287 t f f;
#X obj 229 261 expr atan(1)*4;
#X obj 78 357 * 3.14;
#X obj 78 385 / 512;
#X obj 77 414 sin;
#X obj 78 236 until;
#X obj 120 14 inlet;
#X msg 120 64 512;
#X msg 413 216 resize \$1;
#X msg 345 220 const 0;
#X obj 120 40 t b;
#X obj 413 188 + 3;
#X obj 120 93 t f f b f;
#X obj 169 409 + 1;
#X obj 399 270 s \$0-hsin;
#X obj 77 440 tabwrite \$0-hsin;
#X obj 78 261 ../generics/counter 512;
#X connect 0 0 2 0;
#X connect 0 1 13 0;
#X connect 1 0 2 1;
#X connect 2 0 3 0;
#X connect 3 0 4 0;
#X connect 4 0 15 0;
#X connect 5 0 16 0;
#X connect 6 0 10 0;
#X connect 7 0 12 0;
#X connect 8 0 14 0;
#X connect 9 0 14 0;
#X connect 10 0 7 0;
#X connect 11 0 8 0;
#X connect 12 0 5 0;
#X connect 12 1 3 1;
#X connect 12 1 16 1;
#X connect 12 2 1 0;
#X connect 12 2 9 0;
#X connect 12 2 16 2;
#X connect 12 3 11 0;
#X connect 13 0 15 1;
#X connect 16 0 0 0;
#X restore 278 95 pd init_table;
#N canvas 0 22 631 438 doc 0;
#X text 85 14 in general: we use | instead of backslash (pd and tcl/tk)
;
#X text 47 255 7: ______/|;
#X text 47 235 6: _____/|_;
#X text 47 215 5: ____/|__;
#X text 47 195 4: ___/|___;
#X text 47 177 3: __/|____;
#X text 47 156 2: _/|_____;
#X text 47 136 1: /|______;
#X text 47 115 0: |______/;
#X text 41 95 -1: ______/|;
#X text 47 275 8: |______/;
#X text 47 296 9: /|______;
#X restore 301 157 pd doc;
#X obj 288 127 table \$0-hsin;
#N canvas 0 22 450 300 (subpatch) 0;
#N canvas 525 135 382 330 wrap 0;
#X obj 97 42 inlet;
#X obj 107 182 outlet;
#X obj 107 156 -;
#X obj 98 66 t f f;
#X obj 126 100 i;
#X obj 71 100 moses 0;
#X obj 71 124 + 1;
#X connect 0 0 3 0;
#X connect 2 0 1 0;
#X connect 3 0 5 0;
#X connect 3 1 4 0;
#X connect 4 0 2 1;
#X connect 5 0 6 0;
#X connect 5 1 2 0;
#X connect 6 0 2 0;
#X restore 66 149 pd wrap;
#X text 120 148 should be changed to wrap (since pd-0.42);
#X obj 66 195 * 256;
#X obj 66 107 - 0;
#X obj 66 239 tabread4 \$0-hsin;
#X obj 66 217 + 1;
#X obj 46 55 + 1;
#X obj 46 21 inlet;
#X obj 295 19 inlet;
#X obj 65 263 outlet;
#X obj 66 127 / 4;
#X obj 66 171 * 4;
#X connect 0 0 11 0;
#X connect 2 0 5 0;
#X connect 3 0 10 0;
#X connect 4 0 9 0;
#X connect 5 0 4 0;
#X connect 6 0 3 0;
#X connect 7 0 6 0;
#X connect 8 0 3 1;
#X connect 10 0 0 0;
#X connect 11 0 2 0;
#X restore 73 244 pd;
#N canvas 0 22 450 300 (subpatch) 0;
#N canvas 525 135 382 330 wrap 0;
#X obj 97 42 inlet;
#X obj 107 182 outlet;
#X obj 107 156 -;
#X obj 98 66 t f f;
#X obj 126 100 i;
#X obj 71 100 moses 0;
#X obj 71 124 + 1;
#X connect 0 0 3 0;
#X connect 2 0 1 0;
#X connect 3 0 5 0;
#X connect 3 1 4 0;
#X connect 4 0 2 1;
#X connect 5 0 6 0;
#X connect 5 1 2 0;
#X connect 6 0 2 0;
#X restore 66 149 pd wrap;
#X text 120 148 should be changed to wrap (since pd-0.42);
#X obj 66 195 * 256;
#X obj 66 107 - 0;
#X obj 66 239 tabread4 \$0-hsin;
#X obj 66 217 + 1;
#X obj 46 55 + 1;
#X obj 46 21 inlet;
#X obj 295 19 inlet;
#X obj 65 263 outlet;
#X obj 66 127 / 4;
#X obj 66 171 * 4;
#X connect 0 0 11 0;
#X connect 2 0 5 0;
#X connect 3 0 10 0;
#X connect 4 0 9 0;
#X connect 5 0 4 0;
#X connect 6 0 3 0;
#X connect 7 0 6 0;
#X connect 8 0 3 1;
#X connect 10 0 0 0;
#X connect 11 0 2 0;
#X restore 134 291 pd;
#N canvas 0 22 450 300 (subpatch) 0;
#N canvas 525 135 382 330 wrap 0;
#X obj 97 42 inlet;
#X obj 107 182 outlet;
#X obj 107 156 -;
#X obj 98 66 t f f;
#X obj 126 100 i;
#X obj 71 100 moses 0;
#X obj 71 124 + 1;
#X connect 0 0 3 0;
#X connect 2 0 1 0;
#X connect 3 0 5 0;
#X connect 3 1 4 0;
#X connect 4 0 2 1;
#X connect 5 0 6 0;
#X connect 5 1 2 0;
#X connect 6 0 2 0;
#X restore 66 149 pd wrap;
#X text 120 148 should be changed to wrap (since pd-0.42);
#X obj 66 195 * 256;
#X obj 66 107 - 0;
#X obj 66 239 tabread4 \$0-hsin;
#X obj 66 217 + 1;
#X obj 46 55 + 1;
#X obj 46 21 inlet;
#X obj 295 19 inlet;
#X obj 65 263 outlet;
#X obj 66 127 / 4;
#X obj 66 171 * 4;
#X connect 0 0 11 0;
#X connect 2 0 5 0;
#X connect 3 0 10 0;
#X connect 4 0 9 0;
#X connect 5 0 4 0;
#X connect 6 0 3 0;
#X connect 7 0 6 0;
#X connect 8 0 3 1;
#X connect 10 0 0 0;
#X connect 11 0 2 0;
#X restore 194 339 pd;
#N canvas 0 22 450 300 (subpatch) 0;
#N canvas 525 135 382 330 wrap 0;
#X obj 97 42 inlet;
#X obj 107 182 outlet;
#X obj 107 156 -;
#X obj 98 66 t f f;
#X obj 126 100 i;
#X obj 71 100 moses 0;
#X obj 71 124 + 1;
#X connect 0 0 3 0;
#X connect 2 0 1 0;
#X connect 3 0 5 0;
#X connect 3 1 4 0;
#X connect 4 0 2 1;
#X connect 5 0 6 0;
#X connect 5 1 2 0;
#X connect 6 0 2 0;
#X restore 66 149 pd wrap;
#X text 120 148 should be changed to wrap (since pd-0.42);
#X obj 66 195 * 256;
#X obj 66 107 - 0;
#X obj 66 239 tabread4 \$0-hsin;
#X obj 66 217 + 1;
#X obj 46 55 + 1;
#X obj 46 21 inlet;
#X obj 295 19 inlet;
#X obj 65 263 outlet;
#X obj 66 127 / 4;
#X obj 66 171 * 4;
#X connect 0 0 11 0;
#X connect 2 0 5 0;
#X connect 3 0 10 0;
#X connect 4 0 9 0;
#X connect 5 0 4 0;
#X connect 6 0 3 0;
#X connect 7 0 6 0;
#X connect 8 0 3 1;
#X connect 10 0 0 0;
#X connect 11 0 2 0;
#X restore 254 388 pd;
#X obj 577 194 t a;
#X msg 577 168 panning \$1;
#X msg 143 94 0;
#X obj 159 194 t b b b b;
#X obj 188 130 unpack 0 0 0 0;
#X obj 447 176 t f;
#X obj 128 68 t b b b b b;
#X text 666 390 unit [-] \, initial-value: 1 \, range: (0/1);
#X text 636 376 8.) parameter: "auto" \, type: <int>;
#X text 636 426 9.) parameter: "rate" \, type: <float>;
#X text 676 452 automatical panning-rotating rate.;
#X text 676 402 toggle for automatical panning-rotating.;
#N canvas 178 147 445 402 auto 0;
#X obj 153 8 inlet;
#X obj 49 213 metro 20;
#X obj 148 369 outlet;
#X obj 57 53 inlet;
#X obj 57 80 sel 0;
#X obj 86 103 t b;
#X msg 51 110 0;
#X msg 84 128 1;
#X obj 358 46 inlet;
#X msg 360 260 0;
#X obj 289 42 inlet;
#X text 285 24 init;
#X obj 48 241 f;
#X obj 153 40 clip -10 10;
#X obj 150 324 * 4;
#X obj 154 207 ../generics/dirty_phasor;
#X connect 0 0 13 0;
#X connect 1 0 12 0;
#X connect 3 0 4 0;
#X connect 4 0 6 0;
#X connect 4 1 5 0;
#X connect 5 0 7 0;
#X connect 6 0 1 0;
#X connect 7 0 1 0;
#X connect 8 0 9 0;
#X connect 9 0 2 0;
#X connect 9 0 15 1;
#X connect 12 0 14 0;
#X connect 13 0 15 0;
#X connect 14 0 2 0;
#X connect 15 0 12 1;
#X restore 360 198 pd auto;
#X obj 447 229 +;
#X obj 447 202 t b f;
#X text 372 467 rejected;
#X obj 443 447 outlet;
#X text 444 467 out;
#X obj 275 48 inlet;
#X text 275 27 fini;
#X obj 533 93 t b;
#X obj 390 65 route panning auto rate resetAuto;
#X text 666 440 unit [rev_per_sec] \, initial-value: 1 \, range: (-10
... 10);
#X obj 28 266 ../generics/line_mul~ 1 20;
#X obj 89 313 ../generics/line_mul~ 0 20;
#X obj 149 361 ../generics/line_mul~ 0 20;
#X obj 209 410 ../generics/line_mul~ 0 20;
#X obj 444 404 list prepend pos;
#X text 636 285 7.) parameter: "panning" \, type: <float>;
#X text 676 311 value of spatial position of input signal.;
#X text 666 299 unit [degree] \, initial-value: 0 \, range: (-180...+180)
;
#X text 979 258 ch2=-45;
#X text 1069 258 ch3=+45;
#X text 1068 340 ch4=+135;
#X text 972 340 ch1=-135;
#X msg 188 105 0 1 2 3;
#X obj 390 94 / 90;
#X obj 390 117 + 1.5;
#X obj 447 256 t f f f f f;
#X obj 511 288 - 1.5;
#X obj 511 319 * 90;
#X text 623 468 ******************************************************
;
#X text 634 479 1.) parameter: "pos" \, type: <float>;
#X text 664 493 unit [degree] \, initial-value: - \, range: (-180 ...
180);
#X text 674 505 shows panning-position.;
#N canvas 0 22 450 300 wrap360 0;
#N canvas 525 135 382 330 wrap 0;
#X obj 97 42 inlet;
#X obj 107 182 outlet;
#X obj 107 156 -;
#X obj 98 66 t f f;
#X obj 126 100 i;
#X obj 71 100 moses 0;
#X obj 71 124 + 1;
#X connect 0 0 3 0;
#X connect 2 0 1 0;
#X connect 3 0 5 0;
#X connect 3 1 4 0;
#X connect 4 0 2 1;
#X connect 5 0 6 0;
#X connect 5 1 2 0;
#X connect 6 0 2 0;
#X restore 66 149 pd wrap;
#X text 120 148 should be changed to wrap (since pd-0.42);
#X obj 66 26 inlet;
#X obj 65 263 outlet;
#X obj 66 114 / 360;
#X obj 66 178 * 360;
#X obj 66 224 - 180;
#X obj 66 77 + 180;
#X connect 0 0 5 0;
#X connect 2 0 7 0;
#X connect 4 0 0 0;
#X connect 5 0 6 0;
#X connect 6 0 3 0;
#X connect 7 0 4 0;
#X restore 511 350 pd wrap360;
#X connect 0 0 41 0;
#X connect 0 0 42 0;
#X connect 0 0 43 0;
#X connect 0 0 44 0;
#X connect 1 0 24 0;
#X connect 2 0 39 0;
#X connect 14 0 41 1;
#X connect 15 0 42 1;
#X connect 16 0 43 1;
#X connect 17 0 44 1;
#X connect 19 0 18 0;
#X connect 20 0 54 0;
#X connect 21 0 41 3;
#X connect 21 1 42 3;
#X connect 21 2 43 3;
#X connect 21 3 44 3;
#X connect 22 0 14 1;
#X connect 22 1 15 1;
#X connect 22 2 16 1;
#X connect 22 3 17 1;
#X connect 23 0 32 0;
#X connect 24 0 30 2;
#X connect 24 1 20 0;
#X connect 24 2 53 0;
#X connect 24 3 21 0;
#X connect 24 4 11 0;
#X connect 30 0 31 0;
#X connect 31 0 56 0;
#X connect 32 0 31 0;
#X connect 32 1 31 1;
#X connect 38 0 30 3;
#X connect 39 0 54 0;
#X connect 39 1 30 0;
#X connect 39 2 30 1;
#X connect 39 3 38 0;
#X connect 39 4 5 0;
#X connect 41 0 3 0;
#X connect 42 0 9 0;
#X connect 43 0 4 0;
#X connect 44 0 10 0;
#X connect 45 0 34 0;
#X connect 53 0 22 0;
#X connect 54 0 55 0;
#X connect 55 0 23 0;
#X connect 56 0 14 0;
#X connect 56 1 15 0;
#X connect 56 2 16 0;
#X connect 56 3 17 0;
#X connect 56 4 57 0;
#X connect 57 0 58 0;
#X connect 58 0 63 0;
#X connect 63 0 45 0;
