#N canvas 485 182 739 546 10;
#X obj 306 71 inlet;
#X obj 53 67 inlet~;
#X obj 134 460 outlet~;
#X obj 606 76 inlet;
#X text 608 58 init-bang;
#X obj 53 359 ../generics/lp_sr_4~;
#X obj 208 71 inlet~;
#X obj 135 390 *~;
#X obj 208 360 ../generics/lp_sr_4~;
#X obj 208 263 +~;
#X text 48 47 audio in;
#X text 204 51 sine in;
#X text 308 51 parameter;
#X obj 466 434 outlet;
#X text 464 455 rejected parameter;
#X text 135 483 sig.out;
#N canvas 9 22 1018 672 modulator_LFO 0;
#X obj 107 513 osc~;
#X floatatom 122 105 5 0 0 0 - - -;
#X floatatom 220 97 5 0 0 0 - - -;
#X obj 194 347 clip 0 1;
#X obj 107 421 +~ 1;
#X text 108 53 LFO_rate;
#X text 198 50 LFO_amount;
#X obj 108 317 clip~ -1 1;
#X obj 319 231 + 1;
#X obj 319 206 * 1e+20;
#X obj 108 291 *~ 1;
#X obj 109 72 inlet;
#X obj 107 592 outlet~;
#X obj 199 74 inlet;
#X obj 319 74 inlet;
#X text 318 50 LFO_shape;
#X obj 108 264 osc~;
#X obj 108 207 pack 0.2 20;
#X msg 356 172 1;
#X obj 512 67 inlet;
#X text 511 43 modulation_frequency;
#X obj 108 236 line~;
#X obj 107 394 ../generics/line_mul~ 0.5 20;
#X obj 107 474 ../generics/line_mul~ 3 20;
#X obj 883 74 inlet;
#X text 882 50 init bang;
#X obj 108 177 clip 0.001 100;
#X obj 512 94 clip 0.1 10000;
#X obj 690 68 inlet;
#X obj 690 95 clip 0 1;
#X obj 107 547 ../generics/line_mul~ 1 20;
#X text 689 44 modulation_drive;
#X floatatom 314 267 9 0 0 0 - - -;
#X msg 319 173 0;
#X obj 319 114 symbol;
#X obj 319 144 sel sine square;
#X connect 0 0 30 0;
#X connect 3 0 22 1;
#X connect 4 0 23 0;
#X connect 7 0 22 0;
#X connect 8 0 10 1;
#X connect 8 0 32 0;
#X connect 9 0 8 0;
#X connect 10 0 7 0;
#X connect 11 0 1 0;
#X connect 11 0 26 0;
#X connect 13 0 2 0;
#X connect 13 0 3 0;
#X connect 14 0 34 0;
#X connect 16 0 10 0;
#X connect 17 0 21 0;
#X connect 18 0 9 0;
#X connect 19 0 27 0;
#X connect 21 0 16 0;
#X connect 22 0 4 0;
#X connect 23 0 0 0;
#X connect 24 0 23 3;
#X connect 24 0 22 3;
#X connect 24 0 30 3;
#X connect 26 0 17 0;
#X connect 27 0 23 1;
#X connect 28 0 29 0;
#X connect 29 0 30 1;
#X connect 30 0 12 0;
#X connect 33 0 9 0;
#X connect 34 0 35 0;
#X connect 35 0 33 0;
#X connect 35 1 18 0;
#X restore 270 198 pd modulator_LFO _______________________________________
;
#X text 28 21 ring_modulator~;
#X obj 310 304 line~;
#X msg 315 280 0 10;
#X msg 310 258 \$1 10;
#X obj 269 277 line~;
#X msg 274 252 0 10;
#X obj 208 295 *~;
#X obj 295 329 *~;
#X obj 270 141 route lfoRate lfoAmount lfoShape modulationFrequency
modulationDrive;
#X obj 376 261 sel in2;
#X obj 376 239 symbol;
#X obj 376 323 f;
#X msg 269 230 1 10;
#X obj 376 350 spigot;
#X msg 423 298 0;
#X msg 404 322 1;
#X obj 376 297 t b b;
#X connect 0 0 25 0;
#X connect 1 0 5 0;
#X connect 3 0 16 5;
#X connect 5 0 7 0;
#X connect 6 0 9 0;
#X connect 6 0 24 0;
#X connect 7 0 2 0;
#X connect 8 0 7 1;
#X connect 9 0 23 0;
#X connect 16 0 9 1;
#X connect 18 0 24 1;
#X connect 19 0 18 0;
#X connect 20 0 18 0;
#X connect 21 0 23 1;
#X connect 22 0 21 0;
#X connect 23 0 8 0;
#X connect 24 0 8 0;
#X connect 25 0 16 0;
#X connect 25 1 16 1;
#X connect 25 2 16 2;
#X connect 25 2 27 0;
#X connect 25 3 16 3;
#X connect 25 4 16 4;
#X connect 25 5 13 0;
#X connect 26 0 22 0;
#X connect 26 0 33 0;
#X connect 26 1 19 0;
#X connect 26 1 29 0;
#X connect 26 1 31 0;
#X connect 27 0 26 0;
#X connect 28 0 30 0;
#X connect 29 0 21 0;
#X connect 30 0 20 0;
#X connect 31 0 30 1;
#X connect 32 0 30 1;
#X connect 33 0 28 0;
#X connect 33 1 32 0;
