#N canvas 345 98 621 614 10;
#X obj 121 60 inlet;
#X obj 322 69 inlet;
#X text 115 43 init-bang;
#X obj 32 59 inlet~;
#X obj 36 480 outlet~;
#X obj 233 523 outlet;
#X obj 646 219 bng 15 250 50 0 empty empty empty 17 7 0 10 -262144
-1 -1;
#X floatatom 645 265 5 0 0 0 - - -;
#X obj 645 287 bng 15 250 50 0 empty empty empty 17 7 0 10 -262144
-1 -1;
#N canvas 0 22 480 472 vector_size~ 0;
#X obj 243 65 samplerate~;
#X obj 89 30 bang~;
#X obj 91 239 timer;
#X obj 113 262 *;
#X obj 113 287 + 0.001;
#X obj 114 312 int;
#X obj 243 89 * 0.001;
#X obj 89 58 spigot 0;
#X msg 166 88 1;
#X obj 84 137 f 0;
#X text 122 137 state;
#X obj 64 208 t b b;
#X msg 55 98 2;
#X obj 87 169 sel 1 2;
#X obj 115 211 t b b;
#X msg 158 29 0;
#X obj 216 40 t b b;
#X obj 113 342 outlet;
#X obj 217 13 inlet;
#X connect 0 0 6 0;
#X connect 1 0 7 0;
#X connect 2 0 3 0;
#X connect 3 0 4 0;
#X connect 4 0 5 0;
#X connect 5 0 17 0;
#X connect 6 0 3 1;
#X connect 7 0 9 0;
#X connect 8 0 7 1;
#X connect 8 0 9 1;
#X connect 9 0 13 0;
#X connect 11 0 12 0;
#X connect 11 1 2 0;
#X connect 12 0 9 1;
#X connect 13 0 11 0;
#X connect 13 1 14 0;
#X connect 14 0 15 0;
#X connect 14 1 2 1;
#X connect 15 0 9 1;
#X connect 15 0 7 1;
#X connect 16 0 8 0;
#X connect 16 1 0 0;
#X connect 18 0 16 0;
#X restore 646 241 pd vector_size~;
#X obj 378 120 table \$0-simple_sample;
#N canvas 0 22 450 300 resize_table 0;
#X obj 72 45 inlet;
#X obj 72 70 t f b;
#X obj 105 130 samplerate~;
#X obj 66 179 *;
#X obj 66 227 s \$0-simple_sample;
#X msg 66 204 resize \$1;
#X connect 0 0 1 0;
#X connect 1 0 3 0;
#X connect 1 1 2 0;
#X connect 2 0 3 1;
#X connect 3 0 5 0;
#X connect 5 0 4 0;
#X restore 49 211 pd resize_table;
#N canvas 31 35 861 648 play_table 0;
#X obj 57 52 inlet;
#X obj 97 561 outlet~;
#X obj 73 491 tabplay~ \$0-simple_sample;
#X msg 56 443 bang;
#X msg 100 442 stop;
#X obj 284 54 inlet;
#X text 283 32 init-bang;
#X obj 349 543 outlet;
#X text 351 568 state;
#X obj 510 460 timer;
#X obj 512 541 outlet;
#X text 511 562 output of relative playback position;
#X obj 542 435 metro 50;
#X obj 159 48 inlet;
#X text 546 243 table size in ms;
#X obj 488 319 del 60000;
#X msg 469 277 stop;
#X obj 548 268 - 20;
#X obj 547 293 max 0;
#X obj 471 366 del 60020;
#X obj 158 146 t b b b;
#X text 58 33 cmd;
#X msg 312 425 1;
#X msg 360 425 0;
#X obj 97 535 ../generics/line_mul~ 0 20;
#X msg 212 439 0 20;
#X msg 162 441 1 20;
#X obj 57 88 sel 1 0;
#X obj 58 162 t b b b b;
#X text 159 26 rec length;
#X obj 355 348 del 20;
#N canvas 0 22 304 356 read_table_size 0;
#X obj 39 49 inlet;
#X obj 39 257 outlet;
#X obj 39 103 expr size("$s1");
#X obj 39 80 symbol \$0-simple_sample;
#X obj 39 126 t f b;
#X obj 39 183 /;
#X obj 39 207 * 1000;
#X obj 66 155 samplerate~;
#X text 46 283 ms;
#X connect 0 0 3 0;
#X connect 2 0 4 0;
#X connect 3 0 2 0;
#X connect 4 0 5 0;
#X connect 4 1 7 0;
#X connect 5 0 6 0;
#X connect 6 0 1 0;
#X connect 7 0 5 1;
#X restore 524 175 pd read_table_size;
#X obj 523 221 t f;
#X obj 512 504 / 10000;
#X obj 341 480 t f f;
#X obj 374 503 sel 1;
#X obj 429 571 outlet;
#X text 421 604 auto stop;
#X obj 472 391 t b b;
#X connect 0 0 27 0;
#X connect 2 0 24 0;
#X connect 3 0 2 0;
#X connect 4 0 2 0;
#X connect 5 0 24 3;
#X connect 5 0 31 0;
#X connect 9 0 33 0;
#X connect 12 0 9 1;
#X connect 13 0 32 0;
#X connect 15 0 25 0;
#X connect 16 0 15 0;
#X connect 16 0 19 0;
#X connect 17 0 18 0;
#X connect 18 0 15 1;
#X connect 19 0 38 0;
#X connect 20 0 25 0;
#X connect 20 1 30 0;
#X connect 20 2 16 0;
#X connect 22 0 34 0;
#X connect 23 0 34 0;
#X connect 24 0 1 0;
#X connect 25 0 24 1;
#X connect 26 0 24 1;
#X connect 27 0 28 0;
#X connect 27 1 20 0;
#X connect 28 0 3 0;
#X connect 28 0 26 0;
#X connect 28 1 22 0;
#X connect 28 1 15 0;
#X connect 28 1 19 0;
#X connect 28 3 16 0;
#X connect 30 0 23 0;
#X connect 31 0 32 0;
#X connect 32 0 17 0;
#X connect 32 0 19 1;
#X connect 32 0 33 1;
#X connect 33 0 10 0;
#X connect 34 0 7 0;
#X connect 34 0 12 0;
#X connect 34 1 35 0;
#X connect 35 0 9 0;
#X connect 38 0 36 0;
#X connect 38 1 23 0;
#X restore 76 360 pd play_table;
#N canvas 0 22 720 513 no_good_play_table 0;
#X obj 242 22 inlet;
#X obj 288 402 outlet~;
#X obj 288 289 tabplay~ \$0-simple_sample;
#X msg 266 260 bang;
#X msg 331 259 stop;
#X obj 475 43 inlet;
#X obj 320 205 sel 1 0;
#X msg 321 325 1;
#X msg 354 326 0;
#X text 474 21 init-bang;
#X obj 360 156 spigot 1;
#X msg 397 133 1;
#X msg 448 132 0;
#X obj 270 68 f;
#X text 295 67 extern state of GUI;
#X obj 153 396 f;
#X text 180 402 inner state;
#X obj 539 411 outlet;
#X msg 540 383 0;
#X obj 105 445 !=;
#X obj 105 468 sel 1;
#X obj 183 70 f;
#X obj 288 369 ../generics/line_mul~ 0 1000;
#X obj 396 205 del 1000;
#X obj 360 180 t f b;
#X text 28 45 retrigger last extern state;
#X obj 390 237 del 1000;
#X obj 509 233 t b b b;
#X connect 0 0 13 1;
#X connect 0 0 21 1;
#X connect 0 0 10 0;
#X connect 2 0 22 0;
#X connect 3 0 2 0;
#X connect 4 0 2 0;
#X connect 5 0 22 3;
#X connect 6 0 3 0;
#X connect 6 0 7 0;
#X connect 6 1 8 0;
#X connect 6 1 26 0;
#X connect 7 0 17 0;
#X connect 7 0 15 1;
#X connect 7 0 22 1;
#X connect 8 0 22 1;
#X connect 10 0 24 0;
#X connect 11 0 10 1;
#X connect 12 0 10 1;
#X connect 13 0 19 0;
#X connect 15 0 19 1;
#X connect 18 0 17 0;
#X connect 18 0 15 1;
#X connect 19 0 20 0;
#X connect 20 0 21 0;
#X connect 21 0 10 0;
#X connect 22 0 1 0;
#X connect 23 0 27 0;
#X connect 24 0 6 0;
#X connect 24 1 23 0;
#X connect 24 1 12 0;
#X connect 26 0 18 0;
#X connect 26 0 4 0;
#X connect 27 0 13 0;
#X connect 27 1 15 0;
#X connect 27 2 11 0;
#X restore 642 328 pd no_good_play_table;
#N canvas 260 27 875 594 rec_table 0;
#X obj 242 22 inlet;
#X msg 114 368 bang;
#X msg 159 368 stop;
#X obj 566 45 inlet;
#X text 565 23 init-bang;
#X obj 546 484 outlet;
#X obj 85 22 inlet~;
#X obj 227 455 tabwrite~ \$0-simple_sample;
#X obj 227 426 ../generics/line_mul~ 0 20;
#N canvas 0 22 304 356 read_table_size 0;
#X obj 39 49 inlet;
#X obj 39 257 outlet;
#X obj 39 103 expr size("$s1");
#X obj 39 80 symbol \$0-simple_sample;
#X obj 39 126 t f b;
#X obj 39 183 /;
#X obj 39 207 * 1000;
#X obj 66 155 samplerate~;
#X text 46 283 ms;
#X connect 0 0 3 0;
#X connect 2 0 4 0;
#X connect 3 0 2 0;
#X connect 4 0 5 0;
#X connect 4 1 7 0;
#X connect 5 0 6 0;
#X connect 6 0 1 0;
#X connect 7 0 5 1;
#X restore 690 198 pd read_table_size;
#X text 548 511 state;
#X text 713 220 table size in ms;
#X obj 655 296 del 60000;
#X msg 640 266 stop;
#X obj 715 245 - 20;
#X msg 638 372 0;
#X obj 714 270 max 0;
#X obj 242 54 sel 1 0;
#X msg 316 366 0 20;
#X msg 266 368 1 20;
#X obj 243 126 t b b b b;
#X obj 638 343 del 60020;
#X msg 544 395 1;
#X obj 263 92 t b b b;
#X obj 680 476 outlet;
#X text 682 503 rec length;
#X obj 681 442 timer;
#X obj 710 411 t b;
#X text 288 20 cmd;
#X obj 356 299 del 20;
#X connect 0 0 17 0;
#X connect 1 0 7 0;
#X connect 2 0 7 0;
#X connect 3 0 8 3;
#X connect 6 0 8 0;
#X connect 8 0 7 0;
#X connect 9 0 14 0;
#X connect 9 0 21 1;
#X connect 12 0 18 0;
#X connect 13 0 12 0;
#X connect 13 0 21 0;
#X connect 14 0 16 0;
#X connect 15 0 5 0;
#X connect 15 0 27 0;
#X connect 16 0 12 1;
#X connect 17 0 20 0;
#X connect 17 1 23 0;
#X connect 18 0 8 1;
#X connect 19 0 8 1;
#X connect 20 0 1 0;
#X connect 20 0 19 0;
#X connect 20 1 12 0;
#X connect 20 1 21 0;
#X connect 20 1 22 0;
#X connect 20 1 26 0;
#X connect 20 2 9 0;
#X connect 20 3 13 0;
#X connect 21 0 15 0;
#X connect 22 0 5 0;
#X connect 23 0 18 0;
#X connect 23 1 29 0;
#X connect 23 2 13 0;
#X connect 26 0 24 0;
#X connect 27 0 26 1;
#X connect 29 0 15 0;
#X restore 18 298 pd rec_table;
#X msg 413 368 rec \$1;
#X msg 380 471 play \$1;
#X text 32 38 sig in;
#X text 35 506 sig out;
#X text 229 547 rejected para out;
#X obj 386 520 outlet;
#X text 382 544 outgoing messages;
#X msg 444 433 pos \$1;
#X obj 219 60 inlet;
#X text 213 43 fini-bang;
#X text 315 48 incoming parameter;
#X obj 141 446 spigot;
#X msg 130 473 play 1;
#X obj 118 180 route recLength rec play loop;
#X connect 0 0 12 2;
#X connect 0 0 14 2;
#X connect 1 0 28 0;
#X connect 3 0 14 0;
#X connect 6 0 9 0;
#X connect 7 0 8 0;
#X connect 9 0 7 0;
#X connect 12 0 4 0;
#X connect 12 1 16 0;
#X connect 12 2 26 0;
#X connect 12 3 22 0;
#X connect 14 0 15 0;
#X connect 14 1 12 1;
#X connect 15 0 20 0;
#X connect 16 0 20 0;
#X connect 22 0 20 0;
#X connect 26 0 27 0;
#X connect 27 0 28 0;
#X connect 28 0 11 0;
#X connect 28 1 14 1;
#X connect 28 2 12 0;
#X connect 28 3 26 1;
#X connect 28 4 5 0;
