#N canvas 199 22 1063 845 10;
#X obj 101 491 * 44.1;
#X obj 101 308 t a a;
#X obj 245 337 + 1;
#X floatatom 246 438 5 0 0 3 next_att - -;
#X obj 101 465 t a a;
#X floatatom 119 426 5 0 0 3 cur_att - -;
#X obj 101 208 random 10;
#X obj 151 99 r \$0-numslices;
#N canvas 302 28 611 798 analyse-sample 0;
#X obj 141 290 timer;
#X msg 279 151 const 0;
#X msg 289 387 0;
#X obj 273 413 f 0;
#X obj 307 412 + 1;
#X obj 141 317 t a b;
#X obj 122 106 t b b b b;
#X obj 287 469 s \$0-numslices;
#X obj 171 268 b;
#X text 293 367 count onsets;
#X obj 122 81 inlet;
#X obj 273 500 outlet;
#X msg 224 200 minvel \$1;
#X obj 224 94 inlet;
#X obj 171 241 bonk~ -npts 512 -hop 256;
#X obj 58 130 f \$0;
#X obj 141 471 tabwrite \$0-attacks;
#X obj 141 498 table \$0-attacks 100;
#X obj 58 263 outlet~;
#X msg 58 157 1 \$1-sample 1;
#X obj 279 179 s \$0-attacks;
#X obj 58 181 ../generics/play-samp-start~;
#X connect 0 0 5 0;
#X connect 1 0 20 0;
#X connect 2 0 3 1;
#X connect 3 0 4 0;
#X connect 3 0 7 0;
#X connect 3 0 11 0;
#X connect 3 0 16 1;
#X connect 4 0 3 1;
#X connect 5 0 16 0;
#X connect 5 1 3 0;
#X connect 6 0 15 0;
#X connect 6 1 0 0;
#X connect 6 2 2 0;
#X connect 6 3 1 0;
#X connect 8 0 0 1;
#X connect 10 0 6 0;
#X connect 12 0 14 0;
#X connect 13 0 12 0;
#X connect 14 0 8 0;
#X connect 15 0 19 0;
#X connect 19 0 21 0;
#X connect 21 0 14 0;
#X connect 21 0 18 0;
#X restore -99 329 pd analyse-sample;
#X obj 275 600 del 200;
#X obj 245 408 + 0;
#X obj 261 381 r \$0-del;
#X obj 101 402 + 0;
#X obj 117 375 r \$0-del;
#X floatatom 518 609 5 0 0 2 delay - -;
#X obj 518 631 s \$0-del;
#X obj 2 203 hsl 64 15 0 100 0 0 empty empty sens -2 -8 0 10 -262144
-1 -1 0 1;
#X obj 518 556 / 44100;
#X msg 518 523 512000;
#X obj 245 360 tabread \$0-attacks;
#X obj 101 340 tabread \$0-attacks;
#X floatatom 385 443 5 0 0 1 BPM - -;
#X obj 275 675 s \$0-metro;
#X obj 101 557 pack 0 0 \$0 1;
#N canvas 104 54 1075 558 phraseseq 0;
#X obj 373 101 i;
#X obj 373 125 + 1;
#X obj 155 71 i;
#X obj 155 106 + 1;
#X obj 155 138 % 4;
#X obj 155 48 bng 15 250 50 0 empty empty empty 17 7 0 10 -262144 -1
-1;
#X obj 326 244 route 0 1 2 3;
#X obj 47 313 % 4;
#X obj 326 194 f;
#X obj 240 310 % 3;
#X obj 381 306 % 6;
#X obj 616 307 % 8;
#X floatatom 76 314 5 0 0 0 - - -;
#X floatatom 270 310 5 0 0 0 - - -;
#X floatatom 410 306 5 0 0 0 - - -;
#X floatatom 645 307 5 0 0 0 - - -;
#X obj 213 82 sel 0;
#X obj 213 59 random 12;
#X obj 326 219 pack f f;
#X obj 334 70 t b b b;
#X text 679 28 Inspired by phraseseq.pd posted to the Pd list by Cody
Lloyd;
#X obj 374 368 f;
#X obj 373 509 outlet;
#X obj 334 32 inlet;
#X obj 559 86 inlet;
#X obj 493 226 / 2;
#X obj 493 250 i;
#X obj 340 317 i;
#X obj 340 293 / 3;
#X obj 145 300 i;
#X obj 145 276 / 4;
#X obj 642 70 inlet;
#X obj 594 459 -;
#X obj 591 384 pack f f;
#X msg 592 415 \$2 \$1;
#X floatatom 593 497 5 0 0 0 - - -;
#X obj 811 440 spigot;
#X obj 861 440 spigot;
#X msg 895 389 1 \$1;
#X obj 895 414 -;
#X connect 0 0 1 0;
#X connect 1 0 0 1;
#X connect 1 0 18 1;
#X connect 2 0 3 0;
#X connect 3 0 4 0;
#X connect 3 0 2 1;
#X connect 4 0 8 1;
#X connect 5 0 2 0;
#X connect 6 0 7 0;
#X connect 6 1 9 0;
#X connect 6 2 10 0;
#X connect 6 3 11 0;
#X connect 7 0 12 0;
#X connect 7 0 21 0;
#X connect 8 0 18 0;
#X connect 9 0 13 0;
#X connect 9 0 21 0;
#X connect 10 0 14 0;
#X connect 10 0 21 0;
#X connect 11 0 15 0;
#X connect 11 0 21 0;
#X connect 16 0 5 0;
#X connect 17 0 16 0;
#X connect 18 0 6 0;
#X connect 19 0 17 0;
#X connect 19 1 8 0;
#X connect 19 2 0 0;
#X connect 21 0 33 0;
#X connect 21 0 36 0;
#X connect 23 0 19 0;
#X connect 24 0 11 1;
#X connect 24 0 25 0;
#X connect 24 0 28 0;
#X connect 24 0 30 0;
#X connect 24 0 33 1;
#X connect 25 0 26 0;
#X connect 26 0 10 1;
#X connect 27 0 9 1;
#X connect 28 0 27 0;
#X connect 29 0 7 1;
#X connect 30 0 29 0;
#X connect 31 0 36 1;
#X connect 31 0 38 0;
#X connect 32 0 35 0;
#X connect 32 0 37 0;
#X connect 33 0 34 0;
#X connect 34 0 32 0;
#X connect 36 0 22 0;
#X connect 37 0 22 0;
#X connect 38 0 39 0;
#X connect 39 0 37 1;
#X restore 177 207 pd phraseseq;
#X obj 246 171 tgl 15 0 empty empty reverse 17 7 0 10 -262144 -1 -1
0 1;
#X obj 516 680 table \$0-sample;
#X msg 101 588 \$4 \$3-sample 1 \$1 \$2;
#X obj -100 54 inlet~;
#X obj 60 261 tgl 15 0 empty empty empty 17 7 0 10 -262144 -1 -1 0
1;
#X obj 151 506 -;
#X obj 101 672 outlet~;
#X text 269 701 clock source is here;
#X msg 384 472 60000 \$1;
#X obj 384 497 /;
#X obj 101 45 r \$0-metro;
#X obj 101 152 bng 15 250 50 0 empty empty empty 17 7 0 10 -262144
-1 -1;
#X obj 134 74 tgl 15 0 empty empty internal 17 7 0 10 -262144 -1 -1
0 1;
#X obj -8 395 s \$0-numslices;
#X obj 101 127 spigot;
#X obj 101 177 t b;
#X obj 275 544 t b a;
#X obj 314 571 spigot;
#X obj 341 401 tgl 15 0 empty empty lock 17 7 0 10 -262144 -1 -1 0
-1;
#X obj 383 538 f;
#X text 611 604 compensate;
#X obj 336 42 inlet;
#X msg 336 170 0;
#X msg 382 170 1;
#X msg 409 170 0;
#X msg 440 170 1;
#X msg 467 170 1;
#X obj 360 569 sel 0 1;
#X obj -99 299 ../generics/grab~ \$0-sample;
#X obj 468 109 ../generics/invert 1;
#X obj 101 637 ../generics/samp10-start~;
#X floatatom -1 368 5 0 0 0 - - -;
#X obj 336 118 symbol;
#X obj 101 278 ../generics/choose3;
#X obj 336 146 sel random scoop backscoop cycle;
#X msg 500 170 2;
#X obj 266 207 ../generics/counter 8;
#X obj 408 206 t b b;
#X obj 42 39 inlet;
#X text 36 21 init-bang;
#X text 336 24 parameter;
#X obj 243 28 inlet;
#X text 237 10 fini-bang;
#X obj 315 740 outlet;
#X text 308 759 rejected;
#X obj 430 739 outlet;
#X text 423 759 out para;
#X obj 158 676 list prepend step;
#X obj 396 678 list prepend tempo;
#X msg 446 420 1;
#X msg 385 420 100;
#X obj -77 242 ../generics/autogate~;
#X obj 94 752 list prepend record;
#X obj -77 179 *~;
#X obj -59 598 list prepend step;
#X obj 335 66 route style next auto record quantize tempo sensitivity
correction autoRecord reslice;
#X obj 200 138 sel 0;
#X obj 644 270 print;
#X msg 643 244 error: zero slices found;
#X connect 0 0 23 0;
#X connect 1 0 20 0;
#X connect 1 1 2 0;
#X connect 2 0 19 0;
#X connect 4 0 0 0;
#X connect 4 1 30 1;
#X connect 6 0 58 0;
#X connect 7 0 6 1;
#X connect 7 0 24 1;
#X connect 7 0 81 0;
#X connect 8 1 38 0;
#X connect 8 1 56 0;
#X connect 9 0 22 0;
#X connect 10 0 3 0;
#X connect 10 0 30 0;
#X connect 11 0 10 1;
#X connect 12 0 4 0;
#X connect 12 0 5 0;
#X connect 13 0 12 1;
#X connect 14 0 15 0;
#X connect 16 0 8 1;
#X connect 17 0 14 0;
#X connect 18 0 17 0;
#X connect 19 0 10 0;
#X connect 20 0 12 0;
#X connect 21 0 33 0;
#X connect 23 0 27 0;
#X connect 24 0 58 1;
#X connect 25 0 24 2;
#X connect 27 0 55 0;
#X connect 28 0 53 0;
#X connect 28 0 78 0;
#X connect 29 0 53 1;
#X connect 30 0 23 1;
#X connect 30 0 41 0;
#X connect 33 0 34 0;
#X connect 34 0 44 0;
#X connect 35 0 39 0;
#X connect 36 0 40 0;
#X connect 37 0 39 1;
#X connect 39 0 36 0;
#X connect 40 0 6 0;
#X connect 40 0 24 0;
#X connect 40 0 61 0;
#X connect 41 0 9 0;
#X connect 41 1 42 0;
#X connect 42 0 9 1;
#X connect 43 0 42 1;
#X connect 43 0 52 0;
#X connect 44 0 9 1;
#X connect 46 0 80 0;
#X connect 47 0 58 3;
#X connect 48 0 58 3;
#X connect 49 0 25 0;
#X connect 50 0 58 3;
#X connect 51 0 25 0;
#X connect 52 0 75 0;
#X connect 52 1 74 0;
#X connect 53 0 8 0;
#X connect 54 0 43 0;
#X connect 55 0 31 0;
#X connect 57 0 59 0;
#X connect 58 0 1 0;
#X connect 58 0 72 0;
#X connect 58 0 79 0;
#X connect 59 0 47 0;
#X connect 59 1 48 0;
#X connect 59 1 49 0;
#X connect 59 2 50 0;
#X connect 59 2 51 0;
#X connect 59 3 60 0;
#X connect 60 0 58 3;
#X connect 61 0 58 2;
#X connect 61 1 62 0;
#X connect 62 0 61 0;
#X connect 62 1 61 2;
#X connect 63 0 76 2;
#X connect 63 0 18 0;
#X connect 63 0 53 2;
#X connect 72 0 70 0;
#X connect 73 0 70 0;
#X connect 74 0 21 0;
#X connect 74 0 73 0;
#X connect 75 0 21 0;
#X connect 75 0 73 0;
#X connect 76 0 29 0;
#X connect 76 0 77 0;
#X connect 77 0 70 0;
#X connect 78 0 76 0;
#X connect 79 0 70 0;
#X connect 80 0 57 0;
#X connect 80 1 36 0;
#X connect 80 2 37 0;
#X connect 80 3 29 0;
#X connect 80 4 54 0;
#X connect 80 5 21 0;
#X connect 80 6 16 0;
#X connect 80 7 14 0;
#X connect 80 8 78 1;
#X connect 80 9 8 0;
#X connect 80 10 68 0;
#X connect 81 0 83 0;
#X connect 81 1 61 1;
#X connect 83 0 82 0;
