#N canvas 717 22 300 682 10;
#X obj 24 -85 inlet~;
#X obj 57 518 outlet~;
#X obj 57 424 band_stop_2p~ 170 10;
#X obj 57 468 *~ 0;
#N canvas 0 22 1033 670 freezer 0;
#X obj 86 82 rfft~;
#X obj 57 348 rifft~;
#X obj 511 -91 table \$0-real;
#X obj 511 -70 table \$0-imag;
#X obj 309 389 block~ 1024;
#X obj 90 299 tabreceive~ \$0-imag;
#X obj 57 319 tabreceive~ \$0-real;
#X obj 56 387 /~ 1024;
#N canvas 173 134 619 384 send 0;
#X obj 86 168 tabsend~ \$0-real;
#X obj 113 142 tabsend~ \$0-imag;
#X obj 86 59 inlet~;
#X obj 135 59 inlet~;
#X obj 297 231 switch~;
#X obj 297 9 inlet;
#X obj 298 161 pipe;
#X obj 415 152 f \$1;
#X obj 414 174 / 44100;
#X obj 297 75 t b b b;
#X obj 467 144 bng 15 250 50 0 empty empty empty 17 7 0 10 -262144
-1 -1;
#X obj 431 84 bng 15 250 50 0 empty empty empty 17 7 0 10 -262144 -1
-1;
#X obj 414 201 * 1000;
#X obj 297 40 sel 1;
#X msg 298 132 0;
#X msg 330 132 1;
#X obj 407 18 inlet;
#X msg 407 43 0;
#X connect 2 0 0 0;
#X connect 3 0 1 0;
#X connect 5 0 13 0;
#X connect 6 0 4 0;
#X connect 7 0 8 0;
#X connect 8 0 12 0;
#X connect 9 0 14 0;
#X connect 9 1 15 0;
#X connect 9 2 7 0;
#X connect 11 0 7 0;
#X connect 12 0 6 1;
#X connect 13 0 9 0;
#X connect 14 0 6 0;
#X connect 15 0 4 0;
#X connect 16 0 17 0;
#X connect 17 0 4 0;
#X restore 87 207 pd send;
#X obj 391 -93 inlet;
#N canvas 0 110 565 454 hann-window 0;
#N canvas 0 22 450 300 (subpatch) 0;
#X array \$0-hann 4096 float 0;
#X coords 0 1 4095 0 300 100 1;
#X restore 82 311 graph;
#X obj 378 165 osc~;
#X obj 378 190 *~ -0.5;
#X obj 378 214 +~ 0.5;
#X obj 331 247 tabwrite~ \$0-hann;
#X obj 83 152 samplerate~;
#X obj 38 204 swap;
#X obj 38 228 /;
#X obj 38 115 t f b f;
#X msg 173 92 resize \$1;
#X obj 173 116 s \$0-hann;
#X msg 382 130 0;
#X obj 330 131 t f b;
#X obj 37 88 inlet;
#X obj 77 182 * 4;
#X obj 41 272 outlet;
#X connect 1 0 2 0;
#X connect 2 0 3 0;
#X connect 3 0 4 0;
#X connect 5 0 14 0;
#X connect 6 0 7 0;
#X connect 6 1 7 1;
#X connect 7 0 12 0;
#X connect 7 0 15 0;
#X connect 8 0 6 0;
#X connect 8 1 5 0;
#X connect 8 2 9 0;
#X connect 9 0 10 0;
#X connect 11 0 1 1;
#X connect 12 0 1 0;
#X connect 12 1 4 0;
#X connect 12 1 11 0;
#X connect 13 0 8 0;
#X connect 14 0 6 1;
#X restore 340 183 pd hann-window;
#X obj 85 50 *~;
#X obj 155 -80 tabreceive~ \$0-hann;
#X obj 327 220 pack f \$0;
#X msg 341 248 \; \$2-real resize \$1;
#X msg 328 301 \; \$2-imag resize \$1;
#X msg 309 364 set \$1 4;
#X obj 309 -83 inlet;
#X obj 343 413 * 4;
#X obj 69 -55 inlet~;
#X obj 55 456 outlet~;
#X obj 343 459 outlet;
#X obj 307 49 f \$1;
#X connect 0 0 8 0;
#X connect 0 1 8 1;
#X connect 1 0 7 0;
#X connect 5 0 1 1;
#X connect 6 0 1 0;
#X connect 7 0 20 0;
#X connect 9 0 8 2;
#X connect 10 0 18 0;
#X connect 11 0 0 0;
#X connect 12 0 11 1;
#X connect 13 0 14 0;
#X connect 13 0 15 0;
#X connect 16 0 4 0;
#X connect 17 0 22 0;
#X connect 17 0 8 3;
#X connect 18 0 21 0;
#X connect 19 0 11 0;
#X connect 22 0 7 1;
#X connect 22 0 13 0;
#X connect 22 0 10 0;
#X connect 22 0 16 0;
#X restore 53 189 pd freezer;
#X obj 122 -68 inlet;
#X obj 216 -73 inlet;
#X connect 0 0 4 0;
#X connect 2 0 3 0;
#X connect 3 0 1 0;
#X connect 4 0 2 0;
#X connect 4 1 2 1;
#X connect 5 0 4 1;
#X connect 6 0 3 1;
#X connect 6 0 4 2;
