#N canvas 455 5 935 833 10;
#X text 77 109 freq;
#X obj 404 131 inlet;
#X obj 74 131 inlet~;
#X obj 140 769 outlet~;
#X text 406 113 phase;
#N canvas 151 52 820 498 make-transition-table 0;
#X text 137 160 back the phase up one sample;
#X text 172 229 twice the table length;
#X text 166 214 period is 2000 samples \,;
#N canvas 0 22 450 300 (subpatch) 0;
#X array \$0-transition 1002 float 0;
#X coords 0 1 1002 -1 200 140 1;
#X restore 440 78 graph;
#X text 438 225 ----- 1002 samples ----;
#X text 24 63 Logically the half-cycle is in samples 1 through 1000
\; samples 0 and 1001 are provided so that the 4-point interpolation
will work everywhere.;
#X obj 38 115 inlet;
#X floatatom 567 345 5 0 0 0 - - -;
#X floatatom 571 400 0 0 0 0 - - -;
#X obj 571 375 tabread4 \$0-transition;
#X msg 554 308 1;
#N canvas 0 22 221 255 counter 0;
#X obj 56 38 inlet;
#X obj 55 111 until;
#X obj 56 140 f;
#X obj 90 141 + 1;
#X obj 55 165 outlet;
#X msg 101 111 0;
#X obj 55 63 t f b;
#X connect 0 0 6 0;
#X connect 1 0 2 0;
#X connect 2 0 3 0;
#X connect 2 0 4 0;
#X connect 3 0 2 1;
#X connect 5 0 2 1;
#X connect 6 0 1 0;
#X connect 6 1 5 0;
#X restore 36 236 pd counter;
#X msg 36 213 1002;
#X obj 36 258 t f f;
#X obj 36 394 tabwrite \$0-transition;
#X obj 36 293 - 1;
#X obj 36 181 t b b;
#X obj 125 258 expr 4*atan(1)/1000;
#X obj 36 318 *;
#X obj 36 342 expr (cos(3*$f1)/3-cos($f1)-cos(5*$f1)/5+cos(7*$f1)/7-cos(9*$f1)/18)*0.641548
;
#X text 196 388 This alternate one puts in harmonics 1 \, 3 \, 5 \,
7 \, 9;
#X text 213 320 0.641548 normalize to -0.5 at begin and +0.5 at end
;
#X text 201 405 the 9th harmonic fades out with half of amplitude;
#X text 26 26 This network puts a half cycle of a band-limited square
wave into the table "\$0-transition.";
#X msg 591 308 1000;
#X connect 6 0 16 0;
#X connect 7 0 9 0;
#X connect 9 0 8 0;
#X connect 10 0 7 0;
#X connect 11 0 13 0;
#X connect 12 0 11 0;
#X connect 13 0 15 0;
#X connect 13 1 14 1;
#X connect 15 0 18 0;
#X connect 16 0 12 0;
#X connect 16 1 17 0;
#X connect 17 0 18 1;
#X connect 18 0 19 0;
#X connect 19 0 14 0;
#X connect 24 0 7 0;
#X restore 597 280 pd make-transition-table;
#X obj 45 671 -~;
#X obj 473 478 /~;
#X obj 512 456 clip~ 1 999999;
#X obj 44 535 *~;
#X obj 44 559 clip~ -0.5 0.5;
#X obj 44 583 *~ 1000;
#X obj 44 607 +~ 501;
#X obj 75 496 -~ 0.5;
#X obj 44 631 tabread4~ \$0-transition;
#X obj 473 321 samplerate~;
#X floatatom 473 446 0 0 0 0 - - -;
#X obj 141 743 *~ 1.852;
#X text 540 526 this is from miller puckette's "J09.bandlimited.pd"
;
#X obj 408 320 / 6.28319;
#X obj 476 281 expr 8*atan(1);
#X msg 431 283 0;
#X obj 74 246 phasor~;
#X obj 546 192 t b b b b;
#X obj 473 343 * 0.08;
#X obj 204 131 inlet~;
#X text 207 109 pulse width ratio;
#X obj 205 359 +~;
#X obj 205 395 wrap~;
#X obj 230 665 -~;
#X obj 229 529 *~;
#X obj 229 553 clip~ -0.5 0.5;
#X obj 229 577 *~ 1000;
#X obj 229 601 +~ 501;
#X obj 260 490 -~ 0.5;
#X obj 229 625 tabread4~ \$0-transition;
#X obj 142 718 -~;
#X text 19 52 square~ : rectangle oscillator without aliasing freqencies
;
#N canvas 525 135 382 330 wrap 0;
#X obj 97 42 inlet;
#X obj 107 182 outlet;
#X obj 107 156 -;
#X obj 98 66 t f f;
#X obj 126 100 i;
#X obj 71 100 moses 0;
#X obj 71 124 + 1;
#X connect 0 0 3 0;
#X connect 2 0 1 0;
#X connect 3 0 5 0;
#X connect 3 1 4 0;
#X connect 4 0 2 1;
#X connect 5 0 6 0;
#X connect 5 1 2 0;
#X connect 6 0 2 0;
#X restore 408 356 pd wrap;
#X obj 442 381 wrap;
#X text 483 381 should be changed to wrap (since pd-0.42);
#X obj 547 162 inlet;
#X text 546 143 init-bang;
#X connect 1 0 19 0;
#X connect 2 0 22 0;
#X connect 2 0 8 0;
#X connect 6 0 36 0;
#X connect 7 0 9 1;
#X connect 7 0 30 1;
#X connect 8 0 7 1;
#X connect 9 0 10 0;
#X connect 10 0 11 0;
#X connect 11 0 12 0;
#X connect 12 0 14 0;
#X connect 13 0 9 0;
#X connect 13 0 6 1;
#X connect 14 0 6 0;
#X connect 15 0 24 0;
#X connect 16 0 7 0;
#X connect 17 0 3 0;
#X connect 19 0 38 0;
#X connect 20 0 19 1;
#X connect 21 0 19 0;
#X connect 22 0 13 0;
#X connect 22 0 27 0;
#X connect 23 0 21 0;
#X connect 23 1 20 0;
#X connect 23 2 15 0;
#X connect 23 3 5 0;
#X connect 24 0 16 0;
#X connect 25 0 27 1;
#X connect 27 0 28 0;
#X connect 28 0 34 0;
#X connect 29 0 36 1;
#X connect 30 0 31 0;
#X connect 31 0 32 0;
#X connect 32 0 33 0;
#X connect 33 0 35 0;
#X connect 34 0 30 0;
#X connect 34 0 29 1;
#X connect 35 0 29 0;
#X connect 36 0 17 0;
#X connect 38 0 22 1;
#X connect 41 0 23 0;
