#N canvas 4 77 994 568 10;
#X obj 42 424 outlet~;
#X obj 282 43 inlet;
#X obj 58 39 inlet;
#X text 276 25 init-bang;
#X text 44 19 parameter;
#N canvas 0 22 457 624 20-tables 0;
#X obj 59 88 table \$0-sound-1 441000;
#X obj 59 110 table \$0-sound-2 441000;
#X obj 59 132 table \$0-sound-3 441000;
#X obj 59 154 table \$0-sound-4 441000;
#X obj 59 176 table \$0-sound-5 441000;
#X obj 59 198 table \$0-sound-6 441000;
#X obj 59 220 table \$0-sound-7 441000;
#X obj 59 242 table \$0-sound-8 441000;
#X obj 211 89 table \$0-sound-1-2 441000;
#X obj 211 111 table \$0-sound-2-2 441000;
#X obj 211 133 table \$0-sound-3-2 441000;
#X obj 211 155 table \$0-sound-4-2 441000;
#X obj 211 177 table \$0-sound-5-2 441000;
#X obj 211 199 table \$0-sound-6-2 441000;
#X obj 211 221 table \$0-sound-7-2 441000;
#X obj 211 243 table \$0-sound-8-2 441000;
#X restore 313 83 pd 20-tables;
#X text 466 206 the soundfile storage for playing back.;
#X text 469 140 initial-value: - \, range: - \, loads the soundfile
;
#X text 469 153 content from harddisk into the previously selected
pd array.;
#X text 464 258 unit [-] \, initial-value: 0.1 \, range: (0 ... 1)
;
#X text 474 282 (0 .. begin of sample \, 1 .. end of sample).;
#X text 474 270 relative value of position in playback sample.;
#N canvas 2 337 966 541 calc_table_length 0;
#X obj 122 35 inlet;
#X obj 123 293 expr size("$s1");
#X obj 122 230 makefilename \$0-sound-%d;
#X floatatom 175 325 0 0 0 0 - - -;
#X obj 131 355 s \$0-samplength;
#X obj 123 322 t f;
#X obj 145 263 s \$0-selected-table;
#X obj 432 31 inlet;
#X obj 429 106 f 1;
#X text 121 10 selPlaybackSoundIndex;
#X text 409 5 selEditSoundIndex;
#X obj 440 132 ==;
#X obj 432 77 t b f f;
#X obj 465 183 f 1;
#X obj 440 157 sel 1;
#X text 499 80 1.) if edited table == playedtable;
#X text 499 107 2.) AND (if edited table is resized OR new loaded)
;
#X text 510 135 then calculate table size;
#X obj 122 69 clip 1 20;
#X obj 291 232 makefilename \$0-sound-%d-2;
#X text 250 348 assume that with a stereo file samplength is the same
for both channels;
#X obj 314 265 s \$0-selected-table-2;
#X connect 0 0 18 0;
#X connect 1 0 3 0;
#X connect 1 0 5 0;
#X connect 2 0 1 0;
#X connect 2 0 6 0;
#X connect 5 0 4 0;
#X connect 7 0 12 0;
#X connect 8 0 11 0;
#X connect 11 0 14 0;
#X connect 12 0 8 0;
#X connect 12 1 11 1;
#X connect 12 2 13 1;
#X connect 13 0 2 0;
#X connect 13 0 19 0;
#X connect 14 0 13 0;
#X connect 18 0 2 0;
#X connect 18 0 8 1;
#X connect 18 0 19 0;
#X connect 19 0 21 0;
#X restore 63 224 pd calc_table_length;
#N canvas 0 22 450 300 pos 0;
#X obj 60 31 inlet;
#X obj 60 68 clip 0 1;
#X obj 78 97 r \$0-samplength;
#X obj 60 150 * 441000;
#X obj 60 191 outlet;
#X obj 78 118 t b f;
#X obj 167 144 samplerate~;
#X obj 245 92 inlet;
#X obj 168 168 * 10;
#X connect 0 0 1 0;
#X connect 1 0 3 0;
#X connect 2 0 5 0;
#X connect 3 0 4 0;
#X connect 5 0 3 0;
#X connect 5 1 3 1;
#X connect 6 0 8 0;
#X connect 7 0 6 0;
#X connect 8 0 3 1;
#X restore 219 218 pd pos;
#N canvas 244 135 742 439 load_sound->table 0;
#X obj 60 43 inlet;
#X obj 60 70 symbol;
#X obj 60 222 soundfiler;
#X obj 332 43 inlet;
#X text 315 26 select table;
#X obj 138 130 symbol \$0-sound-1;
#X obj 337 136 makefilename \$0-sound-%d;
#X obj 191 193 s \$0-in-samprate;
#X obj 271 289 f 1;
#X obj 271 320 outlet;
#X obj 60 256 t b;
#X obj 332 69 clip 1 20;
#X text 54 21 filename;
#X obj 339 103 t a a;
#X obj 490 136 makefilename \$0-sound-%d-2;
#X obj 382 169 symbol \$0-sound-1-2;
#X obj 60 167 pack s s s;
#X obj 60 94 t b s b b;
#X msg 60 192 read -resize \$1 \$2 \$3;
#X obj 191 163 samplerate~;
#X connect 0 0 1 0;
#X connect 1 0 17 0;
#X connect 2 0 10 0;
#X connect 3 0 11 0;
#X connect 5 0 16 1;
#X connect 6 0 5 1;
#X connect 8 0 9 0;
#X connect 10 0 8 0;
#X connect 11 0 8 1;
#X connect 11 0 13 0;
#X connect 13 0 6 0;
#X connect 13 1 14 0;
#X connect 14 0 15 1;
#X connect 15 0 16 2;
#X connect 16 0 18 0;
#X connect 17 1 16 0;
#X connect 17 2 5 0;
#X connect 17 2 19 0;
#X connect 17 3 15 0;
#X connect 18 0 2 0;
#X connect 19 0 7 0;
#X restore 51 192 pd load_sound->table;
#X obj 174 425 outlet;
#X text 469 73 unit [-] \, initial-value: 1 \, range: (1..20) \, selects
;
#X text 469 86 the soundfile storage for loading a sound.;
#X text 466 193 unit [-] \, initial-value: 1 \, range: (1..20) \, selects
;
#X obj 57 267 sel 1 0;
#X text 469 334 unit [-] \, initial-value: 0 \, range: (0/1) \, starts
the;
#X text 469 348 playback of a sound with 1 \, stops the sound with
0;
#X obj 279 466 outlet;
#X text 276 484 internal produced para;
#X text 155 445 rejected para;
#X msg 215 368 1;
#X msg 248 369 0;
#N canvas 90 136 762 499 sample_player_______________________________
0;
#X obj 52 47 inlet;
#X obj 59 439 outlet~;
#X obj 60 394 ../generics/line_mul~ 0 20;
#X obj 434 436 outlet;
#X text 52 26 start;
#X obj 130 47 inlet;
#X text 129 27 stop;
#X obj 213 47 inlet;
#X text 213 26 pos;
#X obj 62 310 tabread~ \$0-sound-1;
#X msg 9 360 1;
#X msg 162 365 0;
#X msg 177 275 set \$1;
#X msg 515 152 clear;
#X obj 444 268 snapshot~;
#X obj 542 233 metro 100;
#X obj 543 209 tgl 15 0 empty empty empty 17 7 0 10 -262144 -1 -1 0
1;
#X floatatom 487 299 0 0 0 0 - - -;
#X obj 70 183 sig~;
#X obj 70 162 tgl 15 0 empty empty empty 17 7 0 10 -262144 -1 -1 0
1;
#X obj 443 239 rpole~ 1;
#X msg 444 152 set \$1;
#X obj 52 73 t b;
#X obj 130 71 t b;
#X msg 52 138 1;
#X msg 90 136 0;
#X obj 142 99 del 20;
#X obj 580 43 inlet;
#X text 580 22 init;
#X msg 578 179 1;
#X obj 433 378 >= 441000;
#X obj 433 401 sel 1;
#X text 429 452 end;
#X text 200 11 samples;
#X obj 153 163 r \$0-selected-table;
#X obj 222 78 t b f;
#X obj 231 133 f;
#X text 96 237 state;
#X obj 71 236 f 0;
#X obj 136 216 del 20;
#X obj 152 188 t b s;
#X obj 178 253 symbol;
#X obj 483 402 tgl 15 0 empty empty empty 17 7 0 10 -262144 -1 -1 0
1;
#X obj 197 105 del 20;
#X obj 525 404 clip 0 1;
#X obj 547 287 r \$0-samplength;
#X obj 526 432 outlet;
#X obj 547 308 t b f;
#X obj 525 378 / 441000;
#X text 527 453 position;
#X floatatom 502 101 5 0 0 0 - - -;
#X obj 254 226 *~;
#X obj 436 118 sig~ 1;
#X obj 313 52 inlet;
#X text 312 24 speed;
#X obj 228 392 ../generics/line_mul~ 0 20;
#X msg 345 273 set \$1;
#X obj 304 214 del 20;
#X obj 320 186 t b s;
#X obj 346 251 symbol;
#X obj 321 161 r \$0-selected-table-2;
#X obj 230 308 tabread~ \$0-sound-1-2;
#X obj 228 435 outlet~;
#X obj 658 304 samplerate~;
#X obj 657 329 * 10;
#X connect 0 0 22 0;
#X connect 2 0 1 0;
#X connect 5 0 23 0;
#X connect 7 0 35 0;
#X connect 9 0 2 0;
#X connect 10 0 2 1;
#X connect 10 0 55 1;
#X connect 11 0 2 1;
#X connect 11 0 55 1;
#X connect 12 0 9 0;
#X connect 13 0 20 0;
#X connect 14 0 17 0;
#X connect 14 0 30 0;
#X connect 14 0 48 0;
#X connect 15 0 14 0;
#X connect 16 0 15 0;
#X connect 18 0 51 0;
#X connect 19 0 18 0;
#X connect 20 0 14 0;
#X connect 20 0 9 0;
#X connect 20 0 61 0;
#X connect 21 0 20 0;
#X connect 22 0 24 0;
#X connect 22 0 10 0;
#X connect 23 0 26 0;
#X connect 23 0 11 0;
#X connect 24 0 19 0;
#X connect 24 0 38 1;
#X connect 25 0 19 0;
#X connect 25 0 38 1;
#X connect 26 0 25 0;
#X connect 27 0 29 0;
#X connect 27 0 63 0;
#X connect 29 0 16 0;
#X connect 30 0 31 0;
#X connect 30 0 42 0;
#X connect 31 0 23 0;
#X connect 31 0 3 0;
#X connect 31 0 25 0;
#X connect 31 0 35 0;
#X connect 34 0 40 0;
#X connect 35 0 11 0;
#X connect 35 0 43 0;
#X connect 35 1 36 1;
#X connect 36 0 21 0;
#X connect 38 0 2 1;
#X connect 38 0 55 1;
#X connect 39 0 38 0;
#X connect 39 0 41 0;
#X connect 40 0 39 0;
#X connect 40 0 11 0;
#X connect 40 1 41 1;
#X connect 41 0 12 0;
#X connect 43 0 36 0;
#X connect 43 0 38 0;
#X connect 44 0 46 0;
#X connect 45 0 47 0;
#X connect 47 0 48 0;
#X connect 47 0 30 0;
#X connect 47 1 48 1;
#X connect 47 1 30 1;
#X connect 48 0 44 0;
#X connect 50 0 20 1;
#X connect 51 0 20 0;
#X connect 52 0 51 1;
#X connect 53 0 52 0;
#X connect 55 0 62 0;
#X connect 56 0 61 0;
#X connect 57 0 59 0;
#X connect 58 0 57 0;
#X connect 58 1 59 1;
#X connect 59 0 56 0;
#X connect 60 0 58 0;
#X connect 61 0 55 0;
#X connect 63 0 64 0;
#X connect 64 0 48 1;
#X connect 64 0 30 1;
#X restore 47 295 pd sample_player_______________________________;
#X obj 268 432 list prepend play;
#X obj 385 430 list prepend relPosition;
#X text 439 58 4.) in parameter: "selLoadSoundIndex" \, type: <float>
;
#X text 439 125 5.) in parameter: "loadSound" \, type: <symbol> \,
unit [-];
#X text 436 178 6.) in parameter: "selPlaybackSoundIndex" \, type:
<float>;
#X text 434 243 7.) in parameter: "relPosition" \, type: <float>;
#X text 439 319 8.) in parameter: "play" \, type: <int>;
#X text 551 442 (0 .. begin of sample \, 1 .. end of sample).;
#X text 509 398 1.) out parameter: "relPosition" \, type: <float>;
#X text 514 473 2.) out parameter: "play" \, type: <int>;
#X text 544 489 unit [-] \, initial-value: - \, range: (0/1) \, displays
play state: 1 .. play \, 0 ... stop;
#X text 539 413 unit [-] \, initial-value: - \, range: (0 ... 1) \,
displays the progress of relative position in playback sample.;
#X msg 439 406 play 1;
#X obj 354 300 ==;
#X msg 255 326 0;
#X obj 354 335 sel 1;
#X obj 380 355 t b;
#X obj 381 377 delay 20;
#X text 440 375 FIX: bug!;
#X obj 57 115 route selLoadSoundIndex loadSound selPlaybackSoundIndex
relPosition play loop speed;
#X obj 106 426 outlet~;
#X connect 1 0 27 4;
#X connect 1 0 13 1;
#X connect 2 0 47 0;
#X connect 13 0 27 2;
#X connect 14 0 12 1;
#X connect 19 0 27 0;
#X connect 19 0 25 0;
#X connect 19 1 27 1;
#X connect 19 1 26 0;
#X connect 25 0 28 0;
#X connect 26 0 28 0;
#X connect 27 0 0 0;
#X connect 27 1 48 0;
#X connect 27 2 42 0;
#X connect 27 3 29 0;
#X connect 28 0 22 0;
#X connect 29 0 22 0;
#X connect 40 0 47 0;
#X connect 41 0 43 0;
#X connect 42 0 41 0;
#X connect 43 0 26 0;
#X connect 43 1 44 0;
#X connect 44 0 45 0;
#X connect 45 0 40 0;
#X connect 47 0 14 1;
#X connect 47 1 14 0;
#X connect 47 2 12 0;
#X connect 47 3 13 0;
#X connect 47 4 19 0;
#X connect 47 5 41 1;
#X connect 47 6 27 3;
#X connect 47 7 15 0;
