#N canvas 12 42 1017 636 10;
#X obj 36 23 inlet~;
#X obj 828 30 inlet;
#X obj 178 544 outlet~;
#X obj 36 547 outlet~;
#X obj 149 22 inlet~;
#X text 44 41 left;
#X text 159 39 right;
#N canvas 86 104 1006 619 mix-early-echos-and-late-reverberation 0
;
#X obj 29 47 inlet~;
#X obj 131 47 inlet~;
#X obj 236 48 inlet~;
#X obj 346 49 inlet~;
#X obj 850 545 outlet;
#X obj 652 50 inlet;
#X obj 316 549 outlet~;
#X obj 207 546 outlet~;
#X obj 744 368 dbtorms;
#X obj 745 345 + 100;
#X obj 745 322 clip -100 12;
#X obj 206 521 +~;
#X obj 315 525 +~;
#X obj 501 332 clip 20 20000;
#X obj 270 357 dbtorms;
#X obj 271 334 + 100;
#X obj 271 311 clip -100 12;
#X obj 100 341 clip 20 20000;
#X obj 652 125 route early-echo-frequency early-echo-level;
#X obj 674 185 route late-reverb-frequency late-reverb-level;
#X text 125 275 early echoes;
#X text 448 289 late reverb;
#X obj 416 48 inlet;
#X obj 430 48 inlet;
#X obj 446 48 inlet;
#X obj 460 48 inlet;
#X text 815 566 rejected parameters;
#X obj 474 48 inlet;
#X obj 488 48 inlet;
#X obj 504 48 inlet;
#X obj 518 48 inlet;
#X obj 538 48 inlet;
#X text 428 26 10 dummies;
#X obj 559 48 inlet;
#X obj 850 54 inlet;
#X text 850 36 init;
#X obj 29 443 ../generics/line_mul~ 0 20;
#X obj 245 439 ../generics/line_mul~ 0 20;
#X obj 436 440 ../generics/line_mul~ 0 20;
#X obj 669 437 ../generics/line_mul~ 0 20;
#X obj 29 415 low_pass_2p~ 3000 0.2;
#X obj 244 413 low_pass_2p~ 3000 0.2;
#X obj 435 414 low_pass_2p~ 3000 0.4;
#X obj 669 412 low_pass_2p~ 3000 0.4;
#X connect 0 0 40 0;
#X connect 1 0 41 0;
#X connect 2 0 42 0;
#X connect 3 0 43 0;
#X connect 5 0 18 0;
#X connect 8 0 38 1;
#X connect 8 0 39 1;
#X connect 9 0 8 0;
#X connect 10 0 9 0;
#X connect 11 0 7 0;
#X connect 12 0 6 0;
#X connect 13 0 42 1;
#X connect 13 0 43 1;
#X connect 14 0 36 1;
#X connect 14 0 37 1;
#X connect 15 0 14 0;
#X connect 16 0 15 0;
#X connect 17 0 40 1;
#X connect 17 0 41 1;
#X connect 18 0 17 0;
#X connect 18 1 16 0;
#X connect 18 2 19 0;
#X connect 19 0 13 0;
#X connect 19 1 10 0;
#X connect 19 2 4 0;
#X connect 34 0 43 3;
#X connect 34 0 39 3;
#X connect 34 0 42 3;
#X connect 34 0 38 3;
#X connect 34 0 41 3;
#X connect 34 0 37 3;
#X connect 34 0 40 3;
#X connect 34 0 36 3;
#X connect 36 0 11 0;
#X connect 37 0 12 0;
#X connect 38 0 11 1;
#X connect 39 0 12 1;
#X connect 40 0 36 0;
#X connect 41 0 37 0;
#X connect 42 0 38 0;
#X connect 43 0 39 0;
#X restore 36 504 pd mix-early-echos-and-late-reverberation;
#X text 39 567 left;
#X text 176 561 right;
#N canvas 21 74 902 688 control 0;
#X obj 423 18 inlet;
#X obj 301 120 cnv 12 34 12 empty empty empty 20 12 0 14 -204786 -66577
0;
#X obj 153 121 cnv 12 34 12 empty empty empty 20 12 0 14 -204786 -66577
0;
#X obj 290 161 cnv 12 34 12 empty empty empty 20 12 0 14 -261682 -66577
0;
#X obj 249 161 cnv 12 34 12 empty empty empty 20 12 0 14 -261682 -66577
0;
#X obj 145 161 cnv 12 34 12 empty empty empty 20 12 0 14 -261682 -66577
0;
#X obj 104 161 cnv 12 34 12 empty empty empty 20 12 0 14 -261682 -66577
0;
#X obj 314 249 cnv 12 34 12 empty empty empty 20 12 0 14 -232576 -66577
0;
#X obj 269 249 cnv 12 34 12 empty empty empty 20 12 0 14 -232576 -66577
0;
#X obj 224 248 cnv 12 34 12 empty empty empty 20 12 0 14 -232576 -66577
0;
#X obj 103 120 cnv 12 34 12 empty empty empty 20 12 0 14 -262130 -66577
0;
#X obj 252 121 cnv 12 34 12 empty empty empty 20 12 0 14 -262130 -66577
0;
#X obj 103 201 cnv 12 34 12 empty empty empty 20 12 0 14 -204800 -66577
0;
#X obj 153 201 cnv 12 34 12 empty empty empty 20 12 0 14 -204800 -66577
0;
#X obj 103 92 cnv 12 90 12 empty empty empty 20 12 0 14 -203904 -66577
0;
#X obj 220 92 cnv 12 140 12 empty empty empty 20 12 0 14 -261234 -66577
0;
#X text 306 131 Hz;
#X floatatom 313 248 5 0.1 100 0 - - -;
#X text 319 258 sec;
#X text 319 235 high;
#X obj 85 635 outlet;
#X obj 103 8 inlet;
#X text 104 90 early echoes;
#X text 103 106 level;
#X text 152 106 freq;
#X text 250 106 level;
#X text 299 106 freq;
#X floatatom 102 120 5 -100 12 0 - - -;
#X floatatom 151 120 7 20 20000 0 - - -;
#X text 112 131 dB;
#X text 158 131 Hz;
#X floatatom 250 120 5 -100 12 0 - - -;
#X floatatom 299 120 7 20 20000 0 - - -;
#X text 260 131 dB;
#X floatatom 223 248 5 0.1 100 0 - - -;
#X text 228 258 sec;
#X floatatom 268 248 5 0.1 100 0 - - -;
#X text 274 258 sec;
#X floatatom 102 200 5 -100 0 0 - - -;
#X text 112 211 dB;
#X text 93 186 min damping max;
#X floatatom 152 200 5 -100 0 0 - - -;
#X text 162 211 dB;
#X floatatom 104 160 5 2 1000 0 - - -;
#X floatatom 144 160 5 2 1000 0 - - -;
#X text 81 144 min delay-time max;
#X text 114 171 ms;
#X text 154 171 ms;
#X text 221 89 late diffuse reverb;
#X floatatom 248 160 5 2 1000 0 - - -;
#X floatatom 289 160 5 2 1000 0 - - -;
#X text 228 144 min delay-time max;
#X text 259 170 ms;
#X text 299 170 ms;
#X obj 37 295 f;
#X msg 75 355 early-echo-frequency \$1;
#X msg 59 336 early-echo-level \$1;
#X msg 281 353 late-reverb-frequency \$1;
#X msg 240 334 late-reverb-level \$1;
#X msg 260 441 late-reverb-low-decay-time \$1;
#N canvas 0 22 450 300 schedule-to-max-min 0;
#X text 8 6 schedule_max_min;
#X text 34 38 float_1;
#X text 98 38 float_2;
#X text 37 299 schedule float_1 and float_2;
#X text 275 314 (float_1 >= float_2);
#X text 297 330 (float_1 < float_2);
#X obj 49 55 inlet;
#X obj 49 261 outlet;
#X obj 100 55 inlet;
#X obj 49 140 < 0;
#X msg 78 223 \$2 \$1;
#X obj 49 171 pack 0 0 0;
#X obj 49 119 -;
#X obj 49 80 t f f;
#X obj 100 78 t b f;
#X obj 49 193 route 0 1;
#X text 47 315 to a list of float_1 float_2 \, if;
#X text 48 330 or to a list of float_2 float_1 \, if;
#X connect 6 0 13 0;
#X connect 8 0 14 0;
#X connect 9 0 11 0;
#X connect 10 0 7 0;
#X connect 11 0 15 0;
#X connect 12 0 9 0;
#X connect 13 0 12 0;
#X connect 13 1 11 1;
#X connect 14 0 12 0;
#X connect 14 1 11 2;
#X connect 14 1 12 1;
#X connect 15 0 7 0;
#X connect 15 1 10 0;
#X restore 258 377 pd schedule-to-max-min;
#N canvas 0 22 450 300 schedule-to-max-min 0;
#X text 8 6 schedule_max_min;
#X text 34 38 float_1;
#X text 98 38 float_2;
#X text 37 299 schedule float_1 and float_2;
#X text 275 314 (float_1 >= float_2);
#X text 297 330 (float_1 < float_2);
#X obj 49 55 inlet;
#X obj 49 261 outlet;
#X obj 100 55 inlet;
#X obj 49 140 < 0;
#X msg 78 223 \$2 \$1;
#X obj 49 171 pack 0 0 0;
#X obj 49 119 -;
#X obj 49 80 t f f;
#X obj 100 78 t b f;
#X obj 49 193 route 0 1;
#X text 47 315 to a list of float_1 float_2 \, if;
#X text 48 330 or to a list of float_2 float_1 \, if;
#X connect 6 0 13 0;
#X connect 8 0 14 0;
#X connect 9 0 11 0;
#X connect 10 0 7 0;
#X connect 11 0 15 0;
#X connect 12 0 9 0;
#X connect 13 0 12 0;
#X connect 13 1 11 1;
#X connect 14 0 12 0;
#X connect 14 1 11 2;
#X connect 14 1 12 1;
#X connect 15 0 7 0;
#X connect 15 1 10 0;
#X restore 35 380 pd schedule-to-max-min;
#N canvas 433 194 570 482 exp-uzi 0;
#X obj 79 42 inlet;
#X text 122 40 max min;
#X obj 76 140 t f f;
#X obj 109 255 mtof;
#X obj 109 276 / 880;
#X obj 109 344 * 40;
#X obj 109 365 + 60;
#X obj 160 320 -;
#X obj 109 298 - 0.5;
#X obj 109 321 / 0.5;
#X msg 196 328 \$2;
#X obj 79 69 t b l l;
#X obj 39 391 pack 0 0;
#X obj 57 438 outlet;
#X text 182 102 1.arg: <float> number of exponential growing values
;
#X text 21 12 exp_uzi;
#N canvas 0 22 635 550 counter 0;
#X obj 52 55 inlet;
#X text 128 34 counter from 1 until N;
#X obj 51 119 until;
#X obj 52 148 f;
#X obj 86 149 + 1;
#X obj 87 180 outlet;
#X msg 132 119 0;
#X obj 52 86 t f b;
#X connect 0 0 7 0;
#X connect 2 0 3 0;
#X connect 3 0 4 0;
#X connect 4 0 3 1;
#X connect 4 0 5 0;
#X connect 6 0 3 1;
#X connect 7 0 2 0;
#X connect 7 1 6 0;
#X restore 77 117 pd counter;
#X msg 78 95 12;
#X obj 109 163 - 1;
#X obj 108 187 * 12;
#X obj 110 210 / 11;
#X obj 110 231 + 69;
#X connect 0 0 11 0;
#X connect 2 0 12 0;
#X connect 2 1 18 0;
#X connect 3 0 4 0;
#X connect 4 0 8 0;
#X connect 5 0 6 0;
#X connect 6 0 12 1;
#X connect 7 0 5 1;
#X connect 8 0 9 0;
#X connect 9 0 5 0;
#X connect 10 0 6 1;
#X connect 11 0 17 0;
#X connect 11 1 7 0;
#X connect 11 2 10 0;
#X connect 12 0 13 0;
#X connect 16 0 2 0;
#X connect 17 0 16 0;
#X connect 18 0 19 0;
#X connect 19 0 20 0;
#X connect 20 0 21 0;
#X connect 21 0 3 0;
#X restore 35 399 pd exp-uzi;
#N canvas 626 22 664 651 reverse-exp-uzi 0;
#X obj 79 42 inlet;
#X text 122 40 max min;
#X obj 576 471 mtof;
#X obj 119 420 * 40;
#X obj 120 470 + 60;
#X obj 162 384 -;
#X obj 576 514 - 0.5;
#X obj 576 537 / 0.5;
#X obj 79 69 t b l l;
#X obj 54 519 pack 0 0;
#X obj 54 540 outlet;
#X text 182 102 1.arg: <float> number of exponential growing values
;
#X obj 110 204 -;
#X text 21 12 reverse_exp_uzi;
#N canvas 0 22 635 550 counter 0;
#X obj 52 55 inlet;
#X text 128 34 counter from 1 until N;
#X obj 51 119 until;
#X obj 52 148 f;
#X obj 86 149 + 1;
#X obj 87 180 outlet;
#X msg 132 119 0;
#X obj 52 86 t f b;
#X connect 0 0 7 0;
#X connect 2 0 3 0;
#X connect 3 0 4 0;
#X connect 4 0 3 1;
#X connect 4 0 5 0;
#X connect 6 0 3 1;
#X connect 7 0 2 0;
#X connect 7 1 6 0;
#X restore 77 117 pd counter;
#X msg 78 95 12;
#X obj 79 148 t f f;
#X obj 576 428 / 11;
#X obj 576 451 + 69;
#X msg 198 392 \$2;
#X obj 119 440 * 1;
#X obj 576 406 * 24;
#X obj 576 492 / 1760;
#X msg 110 180 12 \$1;
#X obj 385 305 mtof;
#X obj 385 285 + 69;
#X obj 385 326 / 1760;
#X obj 301 306 mtof;
#X obj 302 349 - 0.5;
#X obj 301 372 / 0.5;
#X obj 301 286 + 69;
#X obj 301 327 / 880;
#X floatatom 299 186 5 0 0 0 - - -;
#X floatatom 304 404 5 0 0 0 - - -;
#X floatatom 355 152 5 0 0 0 - - -;
#X floatatom 386 439 5 0 0 0 - - -;
#X obj 385 348 - 0.25;
#X obj 383 396 / 0.75;
#X obj 453 303 mtof;
#X obj 453 283 + 69;
#X floatatom 462 157 5 0 0 0 - - -;
#X floatatom 454 437 5 0 0 0 - - -;
#X obj 453 324 / 3520;
#X obj 453 349 - 0.125;
#X obj 451 394 / 0.875;
#X obj 101 309 mtof;
#X obj 101 289 + 69;
#X obj 101 330 / 3520;
#X obj 101 355 - 0.125;
#X obj 102 381 / 0.875;
#X obj 106 229 * 36;
#X obj 471 215 * 36;
#X obj 387 211 * 24;
#X obj 311 216 * 12;
#X obj 105 256 / 11;
#X obj 307 247 / 11;
#X obj 384 243 / 11;
#X obj 463 248 / 11;
#X connect 0 0 8 0;
#X connect 2 0 22 0;
#X connect 3 0 20 0;
#X connect 4 0 9 1;
#X connect 5 0 3 1;
#X connect 6 0 7 0;
#X connect 8 0 15 0;
#X connect 8 1 5 0;
#X connect 8 2 19 0;
#X connect 9 0 10 0;
#X connect 12 0 50 0;
#X connect 14 0 16 0;
#X connect 15 0 14 0;
#X connect 16 0 9 0;
#X connect 16 1 23 0;
#X connect 17 0 18 0;
#X connect 18 0 2 0;
#X connect 19 0 4 1;
#X connect 20 0 4 0;
#X connect 21 0 17 0;
#X connect 22 0 6 0;
#X connect 23 0 12 0;
#X connect 24 0 26 0;
#X connect 25 0 24 0;
#X connect 26 0 36 0;
#X connect 27 0 31 0;
#X connect 28 0 29 0;
#X connect 29 0 33 0;
#X connect 30 0 27 0;
#X connect 31 0 28 0;
#X connect 32 0 30 0;
#X connect 34 0 25 0;
#X connect 36 0 37 0;
#X connect 37 0 35 0;
#X connect 38 0 42 0;
#X connect 39 0 38 0;
#X connect 40 0 39 0;
#X connect 42 0 43 0;
#X connect 43 0 44 0;
#X connect 44 0 41 0;
#X connect 45 0 47 0;
#X connect 46 0 45 0;
#X connect 47 0 48 0;
#X connect 48 0 49 0;
#X connect 49 0 3 0;
#X connect 50 0 54 0;
#X connect 51 0 57 0;
#X connect 52 0 56 0;
#X connect 53 0 55 0;
#X connect 54 0 46 0;
#X connect 55 0 30 0;
#X connect 56 0 25 0;
#X connect 57 0 39 0;
#X restore 63 459 pd reverse-exp-uzi;
#N canvas 433 194 570 482 exp-uzi 0;
#X obj 79 42 inlet;
#X text 122 40 max min;
#X obj 76 140 t f f;
#X obj 109 255 mtof;
#X obj 109 276 / 880;
#X obj 109 344 * 40;
#X obj 109 365 + 60;
#X obj 160 320 -;
#X obj 109 298 - 0.5;
#X obj 109 321 / 0.5;
#X msg 196 328 \$2;
#X obj 79 69 t b l l;
#X obj 39 391 pack 0 0;
#X obj 57 438 outlet;
#X text 182 102 1.arg: <float> number of exponential growing values
;
#X text 21 12 exp_uzi;
#N canvas 0 22 635 550 counter 0;
#X obj 52 55 inlet;
#X text 128 34 counter from 1 until N;
#X obj 51 119 until;
#X obj 52 148 f;
#X obj 86 149 + 1;
#X obj 87 180 outlet;
#X msg 132 119 0;
#X obj 52 86 t f b;
#X connect 0 0 7 0;
#X connect 2 0 3 0;
#X connect 3 0 4 0;
#X connect 4 0 3 1;
#X connect 4 0 5 0;
#X connect 6 0 3 1;
#X connect 7 0 2 0;
#X connect 7 1 6 0;
#X restore 77 117 pd counter;
#X msg 78 95 12;
#X obj 109 163 - 1;
#X obj 108 187 * 12;
#X obj 110 210 / 11;
#X obj 110 231 + 69;
#X connect 0 0 11 0;
#X connect 2 0 12 0;
#X connect 2 1 18 0;
#X connect 3 0 4 0;
#X connect 4 0 8 0;
#X connect 5 0 6 0;
#X connect 6 0 12 1;
#X connect 7 0 5 1;
#X connect 8 0 9 0;
#X connect 9 0 5 0;
#X connect 10 0 6 1;
#X connect 11 0 17 0;
#X connect 11 1 7 0;
#X connect 11 2 10 0;
#X connect 12 0 13 0;
#X connect 16 0 2 0;
#X connect 17 0 16 0;
#X connect 18 0 19 0;
#X connect 19 0 20 0;
#X connect 20 0 21 0;
#X connect 21 0 3 0;
#X restore 258 396 pd exp-uzi;
#N canvas 0 22 450 300 schedule-to-max-min 0;
#X text 8 6 schedule_max_min;
#X text 34 38 float_1;
#X text 98 38 float_2;
#X text 37 299 schedule float_1 and float_2;
#X text 275 314 (float_1 >= float_2);
#X text 297 330 (float_1 < float_2);
#X obj 49 55 inlet;
#X obj 49 261 outlet;
#X obj 100 55 inlet;
#X obj 49 140 < 0;
#X msg 78 223 \$2 \$1;
#X obj 49 171 pack 0 0 0;
#X obj 49 119 -;
#X obj 49 80 t f f;
#X obj 100 78 t b f;
#X obj 49 193 route 0 1;
#X text 47 315 to a list of float_1 float_2 \, if;
#X text 48 330 or to a list of float_2 float_1 \, if;
#X connect 6 0 13 0;
#X connect 8 0 14 0;
#X connect 9 0 11 0;
#X connect 10 0 7 0;
#X connect 11 0 15 0;
#X connect 12 0 9 0;
#X connect 13 0 12 0;
#X connect 13 1 11 1;
#X connect 14 0 12 0;
#X connect 14 1 11 2;
#X connect 14 1 12 1;
#X connect 15 0 7 0;
#X connect 15 1 10 0;
#X restore 63 439 pd schedule-to-max-min;
#X msg 63 522 early-echo-tap-damping \$1 \$2;
#X msg 35 419 early-echo-delay-time \$1 \$2;
#X msg 257 415 late-reverb-delay-time \$1 \$2;
#X obj 221 634 outlet;
#X obj 80 243 bng 15 250 50 0 empty empty empty 17 7 0 10 -262144 -1
-1;
#X text 97 242 send list;
#X obj 80 262 bng 15 250 50 0 empty empty empty 17 7 0 10 -232576 -1
-1;
#X obj 63 479 unpack 0 0;
#X obj 63 500 pack 0 0;
#X obj 144 480 + 100;
#X obj 144 501 dbtorms;
#X msg 288 484 late-reverb-mid-decay-time \$1;
#X msg 298 505 late-reverb-mid-high-decay-time \$1;
#X msg 315 527 late-reverb-high-decay-time \$1;
#X obj 294 212 cnv 12 34 12 empty empty empty 20 12 0 14 -232576 -66577
0;
#X obj 247 211 cnv 12 34 12 empty empty empty 20 12 0 14 -232576 -66577
0;
#X floatatom 246 211 5 0.1 100 0 - - -;
#X text 251 221 sec;
#X text 248 198 low;
#X floatatom 293 211 5 0.1 100 0 - - -;
#X text 299 221 sec;
#X text 238 189 decay time T60;
#X text 222 235 mid;
#X text 254 234 mid-high;
#X text 100 263 output all;
#X text 100 253 repeat;
#X obj 423 272 unpack 0 0;
#X obj 540 110 unpack 0 0 0 0 0;
#X msg 271 464 late-reverb-mid-low-decay-time \$1;
#X text 286 198 mid-low;
#X text 573 242 dmp dmp;
#X text 482 185 f f dt dt dt dt;
#X obj 471 167 unpack 0 0 0 0 0 0;
#X obj 562 219 unpack 0 0;
#X msg 326 550 early-echo-balance-left0-right1 \$1;
#X obj 101 315 pack 0 0 0 0 0 0 0 0 0 0 0 0 0 0 0 0;
#X text 163 225 balance;
#X obj 103 37 unpack 0 0 0 0 0 0 0 0 0 0 0 0 0 0 0 0;
#X obj 109 228 hsl 51 10 0 1 0 0 empty empty empty -2 -8 0 10 -203904
-1 -1 0 1;
#X obj 18 39 t b;
#X obj 13 68 delay 500;
#X text 611 161 room: early-cutoff-freq \, late-cutoff-freq in Hz \,
min. & max. early delay time \, min. & max. late delay time im ms;
#X text 645 219 damping: min. & max. early damping in techn. dB;
#X text 493 270 bal: early-gain \, late-gain in techn. dB;
#X text 662 110 the 5 T60 decay times in sec;
#X obj 76 71 cnv 6 288 16 empty empty bounds_to_discrete_parameters
42 8 0 12 -261682 -1 0;
#X obj 424 43 route early-late-gain room decay-times damping early-balance
;
#X connect 0 0 112 0;
#X connect 17 0 79 0;
#X connect 17 0 101 14;
#X connect 21 0 103 0;
#X connect 21 0 105 0;
#X connect 27 0 54 1;
#X connect 27 0 56 0;
#X connect 28 0 55 0;
#X connect 28 0 101 1;
#X connect 31 0 58 0;
#X connect 31 0 101 2;
#X connect 32 0 57 0;
#X connect 32 0 101 3;
#X connect 34 0 77 0;
#X connect 34 0 101 12;
#X connect 36 0 78 0;
#X connect 36 0 101 13;
#X connect 38 0 65 1;
#X connect 38 0 101 8;
#X connect 41 0 65 0;
#X connect 41 0 101 9;
#X connect 43 0 61 1;
#X connect 43 0 101 4;
#X connect 44 0 61 0;
#X connect 44 0 101 5;
#X connect 49 0 60 1;
#X connect 49 0 101 6;
#X connect 50 0 60 0;
#X connect 50 0 101 7;
#X connect 54 0 101 0;
#X connect 55 0 69 0;
#X connect 56 0 69 0;
#X connect 57 0 69 0;
#X connect 58 0 69 0;
#X connect 59 0 69 0;
#X connect 60 0 64 0;
#X connect 61 0 62 0;
#X connect 62 0 67 0;
#X connect 63 0 73 0;
#X connect 64 0 68 0;
#X connect 65 0 63 0;
#X connect 66 0 69 0;
#X connect 67 0 69 0;
#X connect 68 0 69 0;
#X connect 70 0 54 0;
#X connect 72 0 27 0;
#X connect 72 0 28 0;
#X connect 72 0 31 0;
#X connect 72 0 32 0;
#X connect 72 0 38 0;
#X connect 72 0 41 0;
#X connect 72 0 34 0;
#X connect 72 0 36 0;
#X connect 72 0 44 0;
#X connect 72 0 43 0;
#X connect 72 0 50 0;
#X connect 72 0 49 0;
#X connect 72 0 82 0;
#X connect 72 0 85 0;
#X connect 72 0 17 0;
#X connect 72 0 104 0;
#X connect 73 0 74 0;
#X connect 73 1 75 0;
#X connect 74 0 66 0;
#X connect 75 0 76 0;
#X connect 76 0 74 1;
#X connect 77 0 69 0;
#X connect 78 0 69 0;
#X connect 79 0 69 0;
#X connect 82 0 59 0;
#X connect 82 0 101 10;
#X connect 85 0 94 0;
#X connect 85 0 101 11;
#X connect 92 0 27 0;
#X connect 92 1 31 0;
#X connect 93 0 82 0;
#X connect 93 1 85 0;
#X connect 93 2 34 0;
#X connect 93 3 36 0;
#X connect 93 4 17 0;
#X connect 94 0 69 0;
#X connect 98 0 28 0;
#X connect 98 1 32 0;
#X connect 98 2 43 0;
#X connect 98 3 44 0;
#X connect 98 4 49 0;
#X connect 98 5 50 0;
#X connect 99 0 38 0;
#X connect 99 1 41 0;
#X connect 100 0 69 0;
#X connect 101 0 20 0;
#X connect 103 0 27 0;
#X connect 103 1 28 0;
#X connect 103 2 31 0;
#X connect 103 3 32 0;
#X connect 103 4 43 0;
#X connect 103 5 44 0;
#X connect 103 6 49 0;
#X connect 103 7 50 0;
#X connect 103 8 38 0;
#X connect 103 9 41 0;
#X connect 103 10 82 0;
#X connect 103 11 85 0;
#X connect 103 12 34 0;
#X connect 103 13 36 0;
#X connect 103 14 17 0;
#X connect 103 15 104 0;
#X connect 104 0 100 0;
#X connect 104 0 101 15;
#X connect 105 0 106 0;
#X connect 106 0 72 0;
#X connect 112 0 92 0;
#X connect 112 1 98 0;
#X connect 112 2 93 0;
#X connect 112 3 99 0;
#X connect 112 4 104 0;
#X coords 0 -1 1 1 290 210 2 75 70;
#X restore 200 140 pd control;
#X obj 200 355 list prepend set;
#X obj 200 377 list trim;
#X msg 200 400 -3.0103 9654.98 -3.0103 5266.35 19.1239 75.1416 24.878
108.397 -4.0824 -25.343 3.5 3 2.5 2 1.5 0;
#X msg 200 100 -3.0103 9654.98 -3.0103 5266.35 19.1239 75.1416 24.878
108.397 -4.0824 -25.343 3.5 3 2.5 2 1.5 0;
#X obj 648 547 outlet;
#X obj 549 22 inlet;
#N canvas 342 48 973 556 fuzzy_para_to_physical_para_bounds 0;
#X obj 40 34 inlet;
#X obj 111 478 outlet;
#X msg 40 253 decay-times \$1 \$2 \$3 \$4 \$5;
#X obj 280 317 pack 0 0;
#X obj 235 161 t b f;
#X obj 187 162 t b f;
#X obj 139 162 t b f;
#X obj 89 162 t b f;
#X obj 39 161 t b f;
#X obj 40 209 f;
#X obj 40 232 pack 0 0 0 0 0;
#X obj 39 189 del 0;
#X obj 279 161 clip 0 1;
#X obj 279 206 t f f;
#X obj 279 184 * 1.57;
#X obj 305 401 expr 2*atan(1);
#X obj 279 228 cos;
#X obj 338 229 sin;
#X obj 279 252 clip 0 1;
#X obj 280 275 rmstodb;
#X obj 338 275 rmstodb;
#X obj 338 296 - 100;
#X obj 280 296 - 100;
#X text 560 32 cube: V=a*a*a \; a = pow(V \, 1/3) \; medium dist=0.35*a..1.5*a
\; t=1000*dist/340=dist/0.34 \;;
#X obj 413 181 pow 0.333333;
#X obj 414 202 / 0.34;
#X obj 413 161 max 8;
#X obj 454 278 * 1;
#X obj 590 125 clip 0 1;
#X obj 589 152 + 1;
#X obj 402 279 / 1;
#X obj 533 302 * 1;
#X obj 503 280 / 1;
#X obj 614 300 * 1;
#X obj 584 278 / 1;
#X obj 812 271 * 1;
#X obj 813 313 * 0.34;
#X obj 812 354 rmstodb;
#X obj 812 375 - 100;
#X obj 735 351 rmstodb;
#X obj 735 372 - 100;
#X obj 402 300 * 0.34;
#X obj 453 299 * 0.34;
#X obj 401 346 /;
#X obj 468 347 /;
#X obj 439 368 clip 500 20000;
#X obj 460 390 clip 500 20000;
#X msg 401 325 50000 \$1;
#X msg 468 326 50000 \$1;
#X text 791 227 very heuristic stuff;
#X obj 401 256 * 0.9;
#X obj 454 257 * 1.1;
#X obj 533 278 * 2.96;
#X obj 614 276 * 4.27;
#X obj 502 257 * 1.13;
#X obj 582 255 * 1.47;
#X obj 588 196 sqrt;
#X obj 813 249 * 0.7;
#X msg 440 434 room \$1 \$2 \$3 \$4 \$5 \$6;
#X text 459 455 f f dt dt dt dt;
#X obj 858 102 clip 0 1;
#X obj 414 224 t f f f f f f b f;
#X obj 736 308 / 1;
#X obj 750 396 pack 0 0;
#X msg 748 418 damping \$1 \$2;
#X obj 812 292 * 1;
#X obj 596 173 t f f;
#X obj 584 220 t b f b f b f b f b f b f;
#X obj 735 330 pow -1;
#X obj 813 333 pow -1;
#X obj 858 206 t b f b f;
#X obj 780 207 t b f b f;
#X obj 858 156 + 4;
#X msg 735 286 4;
#X obj 858 128 * -3;
#X obj 440 413 pack 0 0 0 0 0 0;
#X obj 350 488 outlet;
#X obj 410 45 inlet;
#X text 404 23 'init' bang;
#X obj 40 65 route decayTimeLow decayTimeMidLow decayTimeMid decayTimeMidHigh
decayTimeHigh earlyLateBalance roomVolume roomShape sourceDistance
firstEchoPanning;
#X text 53 270 the 5 T60 decay times in sec;
#X text 432 475 room: early-cutoff-freq \, late-cutoff-freq in Hz \,
min. & max. early delay time \, min. & max. late delay time im ms;
#X text 670 439 damping: min. & max. early damping in techn. dB;
#X text 122 369 bal: early-gain \, late-gain in techn. dB;
#X text 351 510 rejected;
#X msg 186 343 early-late-gain \$1 \$2;
#X msg 402 130 early-balance \$1;
#X connect 0 0 79 0;
#X connect 2 0 1 0;
#X connect 3 0 85 0;
#X connect 4 0 11 0;
#X connect 4 1 10 4;
#X connect 5 0 11 0;
#X connect 5 1 10 3;
#X connect 6 0 11 0;
#X connect 6 1 10 2;
#X connect 7 0 11 0;
#X connect 7 1 10 1;
#X connect 8 0 11 0;
#X connect 8 1 9 1;
#X connect 9 0 10 0;
#X connect 10 0 2 0;
#X connect 11 0 9 0;
#X connect 12 0 14 0;
#X connect 13 0 16 0;
#X connect 13 1 17 0;
#X connect 14 0 13 0;
#X connect 15 0 14 1;
#X connect 16 0 18 0;
#X connect 17 0 20 0;
#X connect 18 0 19 0;
#X connect 19 0 22 0;
#X connect 20 0 21 0;
#X connect 21 0 3 1;
#X connect 22 0 3 0;
#X connect 24 0 25 0;
#X connect 25 0 61 0;
#X connect 26 0 24 0;
#X connect 27 0 42 0;
#X connect 28 0 29 0;
#X connect 29 0 66 0;
#X connect 30 0 41 0;
#X connect 31 0 75 3;
#X connect 32 0 75 2;
#X connect 33 0 75 5;
#X connect 34 0 75 4;
#X connect 35 0 65 0;
#X connect 36 0 69 0;
#X connect 37 0 38 0;
#X connect 38 0 63 1;
#X connect 39 0 40 0;
#X connect 40 0 63 0;
#X connect 41 0 47 0;
#X connect 42 0 48 0;
#X connect 43 0 45 0;
#X connect 44 0 46 0;
#X connect 45 0 75 0;
#X connect 46 0 75 1;
#X connect 47 0 43 0;
#X connect 48 0 44 0;
#X connect 50 0 30 0;
#X connect 51 0 27 0;
#X connect 52 0 31 0;
#X connect 53 0 33 0;
#X connect 54 0 32 0;
#X connect 55 0 34 0;
#X connect 56 0 67 0;
#X connect 57 0 35 0;
#X connect 58 0 1 0;
#X connect 60 0 74 0;
#X connect 61 0 50 0;
#X connect 61 1 51 0;
#X connect 61 2 54 0;
#X connect 61 3 52 0;
#X connect 61 4 55 0;
#X connect 61 5 53 0;
#X connect 61 6 73 0;
#X connect 61 7 57 0;
#X connect 62 0 68 0;
#X connect 63 0 64 0;
#X connect 64 0 1 0;
#X connect 65 0 36 0;
#X connect 66 0 56 0;
#X connect 66 1 71 0;
#X connect 67 0 30 0;
#X connect 67 1 30 1;
#X connect 67 2 27 0;
#X connect 67 3 27 1;
#X connect 67 4 32 0;
#X connect 67 5 32 1;
#X connect 67 6 31 0;
#X connect 67 7 31 1;
#X connect 67 8 34 0;
#X connect 67 9 34 1;
#X connect 67 10 33 0;
#X connect 67 11 33 1;
#X connect 68 0 39 0;
#X connect 69 0 37 0;
#X connect 70 0 73 0;
#X connect 70 1 62 1;
#X connect 70 2 35 0;
#X connect 70 3 35 1;
#X connect 71 0 73 0;
#X connect 71 2 65 0;
#X connect 71 3 65 1;
#X connect 72 0 70 0;
#X connect 73 0 62 0;
#X connect 74 0 72 0;
#X connect 75 0 58 0;
#X connect 77 0 15 0;
#X connect 79 0 8 0;
#X connect 79 1 7 0;
#X connect 79 2 6 0;
#X connect 79 3 5 0;
#X connect 79 4 4 0;
#X connect 79 5 12 0;
#X connect 79 6 26 0;
#X connect 79 7 28 0;
#X connect 79 8 60 0;
#X connect 79 9 86 0;
#X connect 79 10 76 0;
#X connect 85 0 1 0;
#X connect 86 0 1 0;
#X restore 609 118 pd fuzzy_para_to_physical_para_bounds;
#X obj 549 47 t b b;
#X text 549 8 init-bang;
#X text 807 11 incoming parameters;
#X text 597 566 rejected parameters;
#X obj 841 545 outlet;
#X text 788 565 outgoing parameters;
#X obj 658 24 inlet;
#X text 654 8 fini-bang;
#X obj 34 142 +~;
#X obj 130 141 +~;
#X obj 71 87 noise~;
#X obj 71 108 *~ 1e-14;
#N canvas 54 22 1347 674 late_diffuse_reverberation_12_ 0;
#X text 455 0 parameter update message;
#X obj 452 17 inlet;
#X text 438 601 L front R;
#X obj 485 583 outlet~;
#X obj 424 583 outlet~;
#X obj 548 472 +~;
#X obj 490 472 +~;
#X obj 432 472 +~;
#X obj 539 451 +~;
#X obj 378 451 +~;
#X obj 383 472 +~;
#X obj 481 450 +~;
#X obj 425 451 +~;
#X obj 47 131 +~;
#X obj 74 150 +~;
#X obj 102 169 +~;
#X obj 130 188 +~;
#X obj 157 206 +~;
#X obj 185 226 +~;
#X obj 212 245 +~;
#X obj 239 263 +~;
#X obj 267 282 +~;
#X obj 293 302 +~;
#X obj 321 322 +~;
#X obj 21 112 +~;
#X obj 21 69 inlet~;
#X obj 47 88 inlet~;
#X obj 74 107 inlet~;
#X obj 102 126 inlet~;
#X obj 157 164 inlet~;
#X obj 185 183 inlet~;
#X obj 212 202 inlet~;
#X obj 130 145 inlet~;
#X obj 267 240 inlet~;
#X obj 293 259 inlet~;
#X obj 321 278 inlet~;
#X obj 239 221 inlet~;
#X obj 1171 152 t b f;
#X obj 1101 152 t b f;
#X obj 1034 153 t b f;
#X obj 969 152 t b f;
#X obj 903 151 t b f;
#X obj 903 248 f;
#X obj 903 271 pack 0 0 0 0 0;
#X obj 505 503 +~;
#X obj 384 503 +~;
#N canvas 0 22 656 470 unitary-matrix__________________________ 0;
#X obj 552 27 inlet~;
#X obj 509 27 inlet~;
#X obj 466 27 inlet~;
#X obj 422 357 outlet~;
#X obj 471 357 outlet~;
#X obj 520 357 outlet~;
#X obj 569 357 outlet~;
#X obj 413 27 inlet~;
#X obj 370 27 inlet~;
#X obj 327 27 inlet~;
#X obj 135 27 inlet~;
#X obj 92 27 inlet~;
#X obj 49 27 inlet~;
#X obj 274 27 inlet~;
#X obj 231 27 inlet~;
#X obj 188 27 inlet~;
#X obj 226 357 outlet~;
#X obj 275 357 outlet~;
#X obj 324 357 outlet~;
#X obj 373 357 outlet~;
#X obj 30 357 outlet~;
#X obj 79 357 outlet~;
#X obj 128 357 outlet~;
#X obj 177 357 outlet~;
#N canvas 0 22 450 300 matrix-3__ 0;
#X obj 134 282 outlet~;
#X obj 87 282 outlet~;
#X obj 39 282 outlet~;
#X obj 53 125 +~;
#X obj 39 30 inlet~;
#X obj 53 69 +~;
#X obj 80 30 inlet~;
#X obj 121 30 inlet~;
#X obj 39 234 +~;
#X obj 80 232 +~;
#X obj 121 232 +~;
#X obj 53 191 *~ -0.666667;
#X connect 3 0 11 0;
#X connect 4 0 5 0;
#X connect 4 0 8 0;
#X connect 5 0 3 0;
#X connect 6 0 5 1;
#X connect 6 0 9 0;
#X connect 7 0 3 1;
#X connect 7 0 10 0;
#X connect 8 0 1 0;
#X connect 9 0 0 0;
#X connect 10 0 2 0;
#X connect 11 0 8 1;
#X connect 11 0 9 1;
#X connect 11 0 10 1;
#X restore 50 99 pd matrix-3__;
#N canvas 0 22 450 300 matrix-3__ 0;
#X obj 134 282 outlet~;
#X obj 87 282 outlet~;
#X obj 39 282 outlet~;
#X obj 53 125 +~;
#X obj 39 30 inlet~;
#X obj 53 69 +~;
#X obj 80 30 inlet~;
#X obj 121 30 inlet~;
#X obj 39 234 +~;
#X obj 80 232 +~;
#X obj 121 232 +~;
#X obj 53 191 *~ -0.666667;
#X connect 3 0 11 0;
#X connect 4 0 5 0;
#X connect 4 0 8 0;
#X connect 5 0 3 0;
#X connect 6 0 5 1;
#X connect 6 0 9 0;
#X connect 7 0 3 1;
#X connect 7 0 10 0;
#X connect 8 0 1 0;
#X connect 9 0 0 0;
#X connect 10 0 2 0;
#X connect 11 0 8 1;
#X connect 11 0 9 1;
#X connect 11 0 10 1;
#X restore 190 98 pd matrix-3__;
#N canvas 0 22 450 300 matrix-3__ 0;
#X obj 134 282 outlet~;
#X obj 87 282 outlet~;
#X obj 39 282 outlet~;
#X obj 53 125 +~;
#X obj 39 30 inlet~;
#X obj 53 69 +~;
#X obj 80 30 inlet~;
#X obj 121 30 inlet~;
#X obj 39 234 +~;
#X obj 80 232 +~;
#X obj 121 232 +~;
#X obj 53 191 *~ -0.666667;
#X connect 3 0 11 0;
#X connect 4 0 5 0;
#X connect 4 0 8 0;
#X connect 5 0 3 0;
#X connect 6 0 5 1;
#X connect 6 0 9 0;
#X connect 7 0 3 1;
#X connect 7 0 10 0;
#X connect 8 0 1 0;
#X connect 9 0 0 0;
#X connect 10 0 2 0;
#X connect 11 0 8 1;
#X connect 11 0 9 1;
#X connect 11 0 10 1;
#X restore 331 98 pd matrix-3__;
#N canvas 0 22 450 300 matrix-3__ 0;
#X obj 134 282 outlet~;
#X obj 87 282 outlet~;
#X obj 39 282 outlet~;
#X obj 53 125 +~;
#X obj 39 30 inlet~;
#X obj 53 69 +~;
#X obj 80 30 inlet~;
#X obj 121 30 inlet~;
#X obj 39 234 +~;
#X obj 80 232 +~;
#X obj 121 232 +~;
#X obj 53 191 *~ -0.666667;
#X connect 3 0 11 0;
#X connect 4 0 5 0;
#X connect 4 0 8 0;
#X connect 5 0 3 0;
#X connect 6 0 5 1;
#X connect 6 0 9 0;
#X connect 7 0 3 1;
#X connect 7 0 10 0;
#X connect 8 0 1 0;
#X connect 9 0 0 0;
#X connect 10 0 2 0;
#X connect 11 0 8 1;
#X connect 11 0 9 1;
#X connect 11 0 10 1;
#X restore 476 98 pd matrix-3__;
#N canvas 0 22 450 300 matrix-4_________ 0;
#X obj 168 263 outlet~;
#X obj 122 263 outlet~;
#X obj 76 263 outlet~;
#X obj 30 263 outlet~;
#X obj 153 214 +~;
#X obj 112 214 +~;
#X obj 30 217 +~;
#X obj 71 215 +~;
#X obj 84 109 +~;
#X obj 30 26 inlet~;
#X obj 112 26 inlet~;
#X obj 153 26 inlet~;
#X obj 124 65 +~;
#X obj 44 63 +~;
#X obj 71 26 inlet~;
#X obj 84 147 *~ -0.5;
#X connect 4 0 3 0;
#X connect 5 0 0 0;
#X connect 6 0 2 0;
#X connect 7 0 1 0;
#X connect 8 0 15 0;
#X connect 9 0 13 0;
#X connect 9 0 6 0;
#X connect 10 0 12 0;
#X connect 10 0 5 0;
#X connect 11 0 12 1;
#X connect 11 0 4 0;
#X connect 12 0 8 1;
#X connect 13 0 8 0;
#X connect 14 0 13 1;
#X connect 14 0 7 0;
#X connect 15 0 6 1;
#X connect 15 0 7 1;
#X connect 15 0 5 1;
#X connect 15 0 4 1;
#X restore 51 195 pd matrix-4_________;
#N canvas 0 22 450 300 matrix-4_________ 0;
#X obj 168 263 outlet~;
#X obj 122 263 outlet~;
#X obj 76 263 outlet~;
#X obj 30 263 outlet~;
#X obj 153 214 +~;
#X obj 112 214 +~;
#X obj 30 217 +~;
#X obj 71 215 +~;
#X obj 84 109 +~;
#X obj 30 26 inlet~;
#X obj 112 26 inlet~;
#X obj 153 26 inlet~;
#X obj 124 65 +~;
#X obj 44 63 +~;
#X obj 71 26 inlet~;
#X obj 84 147 *~ -0.5;
#X connect 4 0 3 0;
#X connect 5 0 0 0;
#X connect 6 0 2 0;
#X connect 7 0 1 0;
#X connect 8 0 15 0;
#X connect 9 0 13 0;
#X connect 9 0 6 0;
#X connect 10 0 12 0;
#X connect 10 0 5 0;
#X connect 11 0 12 1;
#X connect 11 0 4 0;
#X connect 12 0 8 1;
#X connect 13 0 8 0;
#X connect 14 0 13 1;
#X connect 14 0 7 0;
#X connect 15 0 6 1;
#X connect 15 0 7 1;
#X connect 15 0 5 1;
#X connect 15 0 4 1;
#X restore 242 195 pd matrix-4_________;
#N canvas 0 22 450 300 matrix-4_________ 0;
#X obj 168 263 outlet~;
#X obj 122 263 outlet~;
#X obj 76 263 outlet~;
#X obj 30 263 outlet~;
#X obj 153 214 +~;
#X obj 112 214 +~;
#X obj 30 217 +~;
#X obj 71 215 +~;
#X obj 84 109 +~;
#X obj 30 26 inlet~;
#X obj 112 26 inlet~;
#X obj 153 26 inlet~;
#X obj 124 65 +~;
#X obj 44 63 +~;
#X obj 71 26 inlet~;
#X obj 84 147 *~ -0.5;
#X connect 4 0 3 0;
#X connect 5 0 0 0;
#X connect 6 0 2 0;
#X connect 7 0 1 0;
#X connect 8 0 15 0;
#X connect 9 0 13 0;
#X connect 9 0 6 0;
#X connect 10 0 12 0;
#X connect 10 0 5 0;
#X connect 11 0 12 1;
#X connect 11 0 4 0;
#X connect 12 0 8 1;
#X connect 13 0 8 0;
#X connect 14 0 13 1;
#X connect 14 0 7 0;
#X connect 15 0 6 1;
#X connect 15 0 7 1;
#X connect 15 0 5 1;
#X connect 15 0 4 1;
#X restore 434 195 pd matrix-4_________;
#N canvas 0 22 450 300 matrix-6____________________ 0;
#X obj 168 263 outlet~;
#X obj 122 263 outlet~;
#X obj 76 263 outlet~;
#X obj 30 263 outlet~;
#X obj 153 214 +~;
#X obj 112 214 +~;
#X obj 30 217 +~;
#X obj 71 215 +~;
#X obj 83 123 +~;
#X obj 30 26 inlet~;
#X obj 112 26 inlet~;
#X obj 153 26 inlet~;
#X obj 123 62 +~;
#X obj 44 63 +~;
#X obj 71 26 inlet~;
#X obj 214 263 outlet~;
#X obj 195 214 +~;
#X obj 194 26 inlet~;
#X obj 210 62 +~;
#X obj 260 263 outlet~;
#X obj 235 26 inlet~;
#X obj 236 214 +~;
#X obj 124 92 +~;
#X obj 84 147 *~ -0.333333;
#X connect 4 0 15 0;
#X connect 5 0 0 0;
#X connect 6 0 2 0;
#X connect 7 0 1 0;
#X connect 8 0 23 0;
#X connect 9 0 13 0;
#X connect 9 0 6 0;
#X connect 10 0 12 0;
#X connect 10 0 5 0;
#X connect 11 0 4 0;
#X connect 11 0 12 1;
#X connect 12 0 22 0;
#X connect 13 0 8 0;
#X connect 14 0 13 1;
#X connect 14 0 7 0;
#X connect 16 0 19 0;
#X connect 17 0 16 0;
#X connect 17 0 18 0;
#X connect 18 0 22 1;
#X connect 20 0 18 1;
#X connect 20 0 21 0;
#X connect 21 0 3 0;
#X connect 22 0 8 1;
#X connect 23 0 6 1;
#X connect 23 0 7 1;
#X connect 23 0 5 1;
#X connect 23 0 4 1;
#X connect 23 0 16 1;
#X connect 23 0 21 1;
#X restore 50 291 pd matrix-6____________________;
#N canvas 0 22 450 300 matrix-6____________________ 0;
#X obj 168 263 outlet~;
#X obj 122 263 outlet~;
#X obj 76 263 outlet~;
#X obj 30 263 outlet~;
#X obj 153 214 +~;
#X obj 112 214 +~;
#X obj 30 217 +~;
#X obj 71 215 +~;
#X obj 83 123 +~;
#X obj 30 26 inlet~;
#X obj 112 26 inlet~;
#X obj 153 26 inlet~;
#X obj 123 62 +~;
#X obj 44 63 +~;
#X obj 71 26 inlet~;
#X obj 214 263 outlet~;
#X obj 195 214 +~;
#X obj 194 26 inlet~;
#X obj 210 62 +~;
#X obj 260 263 outlet~;
#X obj 235 26 inlet~;
#X obj 236 214 +~;
#X obj 124 92 +~;
#X obj 84 147 *~ -0.333333;
#X connect 4 0 15 0;
#X connect 5 0 0 0;
#X connect 6 0 2 0;
#X connect 7 0 1 0;
#X connect 8 0 23 0;
#X connect 9 0 13 0;
#X connect 9 0 6 0;
#X connect 10 0 12 0;
#X connect 10 0 5 0;
#X connect 11 0 4 0;
#X connect 11 0 12 1;
#X connect 12 0 22 0;
#X connect 13 0 8 0;
#X connect 14 0 13 1;
#X connect 14 0 7 0;
#X connect 16 0 19 0;
#X connect 17 0 16 0;
#X connect 17 0 18 0;
#X connect 18 0 22 1;
#X connect 20 0 18 1;
#X connect 20 0 21 0;
#X connect 21 0 3 0;
#X connect 22 0 8 1;
#X connect 23 0 6 1;
#X connect 23 0 7 1;
#X connect 23 0 5 1;
#X connect 23 0 4 1;
#X connect 23 0 16 1;
#X connect 23 0 21 1;
#X restore 367 291 pd matrix-6____________________;
#X connect 0 0 27 2;
#X connect 1 0 27 1;
#X connect 2 0 27 0;
#X connect 7 0 26 2;
#X connect 8 0 26 1;
#X connect 9 0 26 0;
#X connect 10 0 24 2;
#X connect 11 0 24 1;
#X connect 12 0 24 0;
#X connect 13 0 25 2;
#X connect 14 0 25 1;
#X connect 15 0 25 0;
#X connect 24 0 28 0;
#X connect 24 1 29 0;
#X connect 24 2 30 0;
#X connect 25 0 28 1;
#X connect 25 1 29 1;
#X connect 25 2 30 1;
#X connect 26 0 28 2;
#X connect 26 1 29 2;
#X connect 26 2 30 2;
#X connect 27 0 28 3;
#X connect 27 1 29 3;
#X connect 27 2 30 3;
#X connect 28 0 31 0;
#X connect 28 1 32 0;
#X connect 28 2 31 3;
#X connect 28 3 32 3;
#X connect 29 0 31 1;
#X connect 29 1 32 1;
#X connect 29 2 31 4;
#X connect 29 3 32 4;
#X connect 30 0 31 2;
#X connect 30 1 32 2;
#X connect 30 2 31 5;
#X connect 30 3 32 5;
#X connect 31 0 20 0;
#X connect 31 1 21 0;
#X connect 31 2 22 0;
#X connect 31 3 23 0;
#X connect 31 4 16 0;
#X connect 31 5 17 0;
#X connect 32 0 18 0;
#X connect 32 1 19 0;
#X connect 32 2 3 0;
#X connect 32 3 4 0;
#X connect 32 4 5 0;
#X connect 32 5 6 0;
#X restore 21 346 pd unitary-matrix__________________________;
#X obj 903 215 del 0;
#X obj 667 585 outlet;
#X obj 677 585 outlet;
#X obj 687 585 outlet;
#X obj 697 585 outlet;
#X obj 707 585 outlet;
#X obj 717 585 outlet;
#X obj 727 585 outlet;
#X obj 737 585 outlet;
#X obj 747 585 outlet;
#X obj 757 585 outlet;
#X obj 955 590 outlet;
#X text 953 612 rejected parameters;
#X text 700 609 10 dummies;
#X obj 452 44 route late-reverb-delay-time;
#X obj 451 72 route 1 2 3 4 5 6 7 8 9 10 11 12;
#X obj 21 371 delwrite~ \$0-rev-del-1 1000;
#X obj 49 392 delwrite~ \$0-rev-del-2 1000;
#X obj 74 414 delwrite~ \$0-rev-del-3 1000;
#X obj 104 436 delwrite~ \$0-rev-del-4 1000;
#X obj 130 457 delwrite~ \$0-rev-del-5 1000;
#X obj 155 480 delwrite~ \$0-rev-del-6 1000;
#X obj 41 502 delwrite~ \$0-rev-del-7 1000;
#X obj 70 523 delwrite~ \$0-rev-del-8 1000;
#X obj 94 545 delwrite~ \$0-rev-del-9 1000;
#X obj 121 567 delwrite~ \$0-rev-del-10 1000;
#X obj 148 588 delwrite~ \$0-rev-del-11 1000;
#X obj 176 609 delwrite~ \$0-rev-del-12 1000;
#X obj 908 86 route late-reverb-low-decay-time late-reverb-mid-low-decay-time
late-reverb-mid-decay-time late-reverb-mid-high-decay-time late-reverb-high-decay-time
;
#X obj 1005 27 inlet;
#X text 1008 10 init;
#X obj 358 133 ../generics/reverb_tap_filter~ \$0-rev-del-1 25.567
;
#X obj 378 154 ../generics/reverb_tap_filter~ \$0-rev-del-2 29.173
;
#X obj 399 175 ../generics/reverb_tap_filter~ \$0-rev-del-3 34.849
;
#X obj 420 196 ../generics/reverb_tap_filter~ \$0-rev-del-4 40.736
;
#X obj 441 216 ../generics/reverb_tap_filter~ \$0-rev-del-5 47.251
;
#X obj 462 236 ../generics/reverb_tap_filter~ \$0-rev-del-6 55.698
;
#X obj 483 256 ../generics/reverb_tap_filter~ \$0-rev-del-7 64.385
;
#X obj 504 276 ../generics/reverb_tap_filter~ \$0-rev-del-8 74.528
;
#X obj 525 296 ../generics/reverb_tap_filter~ \$0-rev-del-9 85.183
;
#X obj 546 316 ../generics/reverb_tap_filter~ \$0-rev-del-10 97.732
;
#X obj 567 336 ../generics/reverb_tap_filter~ \$0-rev-del-11 110.784
;
#X obj 588 356 ../generics/reverb_tap_filter~ \$0-rev-del-12 124.465
;
#X connect 1 0 61 0;
#X connect 5 0 44 1;
#X connect 6 0 45 1;
#X connect 7 0 44 0;
#X connect 8 0 5 0;
#X connect 9 0 10 0;
#X connect 10 0 45 0;
#X connect 11 0 6 0;
#X connect 12 0 7 0;
#X connect 13 0 46 1;
#X connect 14 0 46 2;
#X connect 15 0 46 3;
#X connect 16 0 46 4;
#X connect 17 0 46 5;
#X connect 18 0 46 6;
#X connect 19 0 46 7;
#X connect 20 0 46 8;
#X connect 21 0 46 9;
#X connect 22 0 46 10;
#X connect 23 0 46 11;
#X connect 24 0 46 0;
#X connect 25 0 24 0;
#X connect 26 0 13 0;
#X connect 27 0 14 0;
#X connect 28 0 15 0;
#X connect 29 0 17 0;
#X connect 30 0 18 0;
#X connect 31 0 19 0;
#X connect 32 0 16 0;
#X connect 33 0 21 0;
#X connect 34 0 22 0;
#X connect 35 0 23 0;
#X connect 36 0 20 0;
#X connect 37 0 47 0;
#X connect 37 1 43 4;
#X connect 38 0 47 0;
#X connect 38 1 43 3;
#X connect 39 0 47 0;
#X connect 39 1 43 2;
#X connect 40 0 47 0;
#X connect 40 1 43 1;
#X connect 41 0 47 0;
#X connect 41 1 42 1;
#X connect 42 0 43 0;
#X connect 43 0 78 1;
#X connect 44 0 3 0;
#X connect 45 0 4 0;
#X connect 46 0 63 0;
#X connect 46 1 64 0;
#X connect 46 2 65 0;
#X connect 46 3 66 0;
#X connect 46 4 67 0;
#X connect 46 5 68 0;
#X connect 46 6 69 0;
#X connect 46 7 70 0;
#X connect 46 8 71 0;
#X connect 46 9 72 0;
#X connect 46 10 73 0;
#X connect 46 11 74 0;
#X connect 47 0 42 0;
#X connect 61 0 62 0;
#X connect 61 1 75 0;
#X connect 62 0 78 0;
#X connect 62 1 79 0;
#X connect 62 2 80 0;
#X connect 62 3 81 0;
#X connect 62 4 82 0;
#X connect 62 5 83 0;
#X connect 62 6 84 0;
#X connect 62 7 85 0;
#X connect 62 8 86 0;
#X connect 62 9 87 0;
#X connect 62 10 88 0;
#X connect 62 11 89 0;
#X connect 75 0 41 0;
#X connect 75 1 40 0;
#X connect 75 2 39 0;
#X connect 75 3 38 0;
#X connect 75 4 37 0;
#X connect 75 5 58 0;
#X connect 76 0 78 2;
#X connect 78 0 9 0;
#X connect 78 0 24 1;
#X connect 78 1 79 1;
#X connect 78 2 79 2;
#X connect 79 0 12 0;
#X connect 79 0 13 1;
#X connect 79 1 80 1;
#X connect 79 2 80 2;
#X connect 80 0 11 0;
#X connect 80 0 14 1;
#X connect 80 1 81 1;
#X connect 80 2 81 2;
#X connect 81 0 8 0;
#X connect 81 0 15 1;
#X connect 81 1 82 1;
#X connect 81 2 82 2;
#X connect 82 0 9 1;
#X connect 82 0 16 1;
#X connect 82 1 83 1;
#X connect 82 2 83 2;
#X connect 83 0 12 1;
#X connect 83 0 17 1;
#X connect 83 1 84 1;
#X connect 83 2 84 2;
#X connect 84 0 11 1;
#X connect 84 0 18 1;
#X connect 84 1 85 1;
#X connect 84 2 85 2;
#X connect 85 0 8 1;
#X connect 85 0 19 1;
#X connect 85 1 86 1;
#X connect 85 2 86 2;
#X connect 86 0 10 1;
#X connect 86 0 20 1;
#X connect 86 1 87 1;
#X connect 86 2 87 2;
#X connect 87 0 7 1;
#X connect 87 0 21 1;
#X connect 87 1 88 1;
#X connect 87 2 88 2;
#X connect 88 0 6 1;
#X connect 88 0 22 1;
#X connect 88 1 89 1;
#X connect 88 2 89 2;
#X connect 89 0 5 1;
#X connect 89 0 23 1;
#X restore 72 478 pd late_diffuse_reverberation_12_;
#N canvas 13 22 1067 785 early_echos_12___________________ 0;
#X obj 417 33 inlet~;
#X obj 572 565 outlet~;
#X obj 590 587 outlet~;
#X obj 605 609 outlet~;
#X obj 622 631 outlet~;
#X obj 515 477 outlet~;
#X obj 557 543 outlet~;
#X obj 542 521 outlet~;
#X obj 528 499 outlet~;
#X obj 505 455 outlet~;
#X obj 491 433 outlet~;
#X obj 476 411 outlet~;
#X obj 465 389 outlet~;
#X obj 164 713 outlet~;
#X obj 165 442 +~;
#X obj 175 465 +~;
#X obj 165 517 +~;
#X obj 174 560 +~;
#X obj 165 610 +~;
#X obj 174 537 +~;
#X obj 165 587 +~;
#X obj 175 632 +~;
#X obj 177 737 outlet~;
#X text 758 19 parameter update message;
#X obj 810 36 inlet;
#X obj 282 599 *~ 0.1;
#X obj 259 552 *~ 0.1;
#X obj 270 574 *~ 0.1;
#X obj 249 530 *~ 0.1;
#X obj 238 508 *~ 0.1;
#X obj 218 461 *~ 0.1;
#X obj 227 485 *~ 0.1;
#X obj 207 439 *~ 0.1;
#X obj 185 391 *~ 0.1;
#X obj 198 413 *~ 0.1;
#X obj 175 370 *~ 0.1;
#X obj 165 347 *~ 0.1;
#X obj 548 33 inlet~;
#X text 403 15 left source signal;
#X text 550 14 right source signal;
#X obj 164 681 +~;
#X obj 175 654 +~;
#X obj 200 247 unpack;
#X obj 200 298 pack;
#X obj 416 125 *~ 0.166667;
#X obj 548 81 *~ 0.166667;
#X text 182 96 12 / 2 = 6;
#X obj 221 275 * 6;
#X obj 773 699 outlet;
#X text 739 723 rejected parameters;
#X text 221 712 left;
#X text 235 739 right;
#X obj 416 182 delwrite~ \$0-echo-del-left 1000;
#X obj 548 136 delwrite~ \$0-echo-del-right 1000;
#X obj 465 286 delread~ \$0-echo-del-left 15.396;
#X obj 475 308 delread~ \$0-echo-del-right 17.972;
#X obj 490 331 delread~ \$0-echo-del-left 20.576;
#X obj 504 355 delread~ \$0-echo-del-right 24.581;
#X obj 516 377 delread~ \$0-echo-del-left 29.776;
#X obj 529 399 delread~ \$0-echo-del-right 35.234;
#X obj 543 423 delread~ \$0-echo-del-left 42.833;
#X obj 558 446 delread~ \$0-echo-del-right 50.619;
#X obj 573 468 delread~ \$0-echo-del-left 59.741;
#X obj 590 491 delread~ \$0-echo-del-right 69.854;
#X obj 606 515 delread~ \$0-echo-del-left 80.337;
#X obj 623 538 delread~ \$0-echo-del-right 92.641;
#X text 430 57 energy adjustment: 2 / 12 = 0.166667;
#X text 181 81 for early echos;
#X text 178 68 correction of adjustment;
#X obj 200 323 route 1 2 3 4 5 6 7 8 9 10 11 12;
#X obj 465 261 route 1 2 3 4 5 6 7 8 9 10 11 12;
#X obj 200 212 route early-echo-tap-damping early-echo-delay-time early-echo-balance-left0-right1
;
#X obj 548 113 biquad~ 0.999288 0 0.999644 -0.999644 0;
#X obj 416 159 biquad~ 0.999288 0 0.999644 -0.999644 0;
#X text 831 111 highpass;
#X text 697 159 highpass;
#X obj 27 492 ../generics/stereo_crossing~;
#X obj 976 34 inlet;
#X text 979 17 init;
#X connect 0 0 44 0;
#X connect 14 0 76 0;
#X connect 15 0 76 1;
#X connect 16 0 20 0;
#X connect 17 0 21 0;
#X connect 18 0 40 0;
#X connect 19 0 17 0;
#X connect 20 0 18 0;
#X connect 21 0 41 0;
#X connect 24 0 71 0;
#X connect 25 0 40 1;
#X connect 26 0 21 1;
#X connect 27 0 41 1;
#X connect 28 0 18 1;
#X connect 29 0 20 1;
#X connect 30 0 19 1;
#X connect 31 0 17 1;
#X connect 32 0 16 1;
#X connect 33 0 15 1;
#X connect 34 0 14 1;
#X connect 35 0 15 0;
#X connect 36 0 14 0;
#X connect 37 0 45 0;
#X connect 40 0 13 0;
#X connect 41 0 22 0;
#X connect 42 0 43 0;
#X connect 42 1 47 0;
#X connect 43 0 69 0;
#X connect 44 0 73 0;
#X connect 45 0 72 0;
#X connect 47 0 43 1;
#X connect 54 0 12 0;
#X connect 54 0 36 0;
#X connect 55 0 11 0;
#X connect 55 0 35 0;
#X connect 56 0 10 0;
#X connect 56 0 33 0;
#X connect 57 0 9 0;
#X connect 57 0 34 0;
#X connect 58 0 5 0;
#X connect 58 0 32 0;
#X connect 59 0 8 0;
#X connect 59 0 30 0;
#X connect 60 0 7 0;
#X connect 60 0 31 0;
#X connect 61 0 6 0;
#X connect 61 0 29 0;
#X connect 62 0 1 0;
#X connect 62 0 28 0;
#X connect 63 0 2 0;
#X connect 63 0 26 0;
#X connect 64 0 3 0;
#X connect 64 0 27 0;
#X connect 65 0 4 0;
#X connect 65 0 25 0;
#X connect 69 0 36 1;
#X connect 69 1 35 1;
#X connect 69 2 33 1;
#X connect 69 3 34 1;
#X connect 69 4 32 1;
#X connect 69 5 30 1;
#X connect 69 6 31 1;
#X connect 69 7 29 1;
#X connect 69 8 28 1;
#X connect 69 9 26 1;
#X connect 69 10 27 1;
#X connect 69 11 25 1;
#X connect 70 0 54 0;
#X connect 70 1 55 0;
#X connect 70 2 56 0;
#X connect 70 3 57 0;
#X connect 70 4 58 0;
#X connect 70 5 59 0;
#X connect 70 6 60 0;
#X connect 70 7 61 0;
#X connect 70 8 62 0;
#X connect 70 9 63 0;
#X connect 70 10 64 0;
#X connect 70 11 65 0;
#X connect 71 0 42 0;
#X connect 71 1 70 0;
#X connect 71 2 76 2;
#X connect 71 3 48 0;
#X connect 72 0 53 0;
#X connect 73 0 52 0;
#X connect 76 0 16 0;
#X connect 76 1 19 0;
#X connect 77 0 76 4;
#X restore 36 449 pd early_echos_12___________________;
#X text 52 57 dithering-noise against denormal floatingpoint numbers
(SSE2-Register);
#X connect 0 0 26 0;
#X connect 1 0 17 0;
#X connect 4 0 27 1;
#X connect 7 0 3 0;
#X connect 7 1 2 0;
#X connect 10 0 11 0;
#X connect 10 1 31 2;
#X connect 11 0 12 0;
#X connect 12 0 13 0;
#X connect 14 0 10 0;
#X connect 16 0 18 0;
#X connect 17 0 10 1;
#X connect 17 1 15 0;
#X connect 18 0 31 3;
#X connect 18 0 30 13;
#X connect 18 0 7 15;
#X connect 18 1 17 1;
#X connect 26 0 31 0;
#X connect 27 0 31 1;
#X connect 28 0 29 0;
#X connect 29 0 26 1;
#X connect 29 0 27 0;
#X connect 30 0 7 2;
#X connect 30 1 7 3;
#X connect 30 2 7 4;
#X connect 30 3 7 5;
#X connect 30 4 7 6;
#X connect 30 5 7 7;
#X connect 30 6 7 8;
#X connect 30 7 7 9;
#X connect 30 8 7 10;
#X connect 30 9 7 11;
#X connect 30 10 7 12;
#X connect 30 11 7 13;
#X connect 30 12 7 14;
#X connect 31 0 7 0;
#X connect 31 1 7 1;
#X connect 31 2 30 0;
#X connect 31 3 30 1;
#X connect 31 4 30 2;
#X connect 31 5 30 3;
#X connect 31 6 30 4;
#X connect 31 7 30 5;
#X connect 31 8 30 6;
#X connect 31 9 30 7;
#X connect 31 10 30 8;
#X connect 31 11 30 9;
#X connect 31 12 30 10;
#X connect 31 13 30 11;
#X connect 31 14 30 12;
