#N canvas 164 112 970 698 10;
#X obj 66 655 outlet;
#X obj 99 71 inlet~;
#X text 551 100 lop~: 0.045 %;
#X text 543 117 biquad~: 0.061 %;
#X obj 419 87 inlet;
#X text 419 63 init active 1/0;
#X obj 419 116 tgl 15 0 empty empty empty 17 7 0 10 -262144 -1 -1 0
1;
#X obj 197 628 max;
#X obj 232 628 f -120;
#X floatatom 197 659 5 0 0 0 - - -;
#X msg 212 583 -120;
#X obj 99 142 abs~;
#X obj 100 259 snapshot~;
#X obj 128 223 bang~;
#X obj 100 545 max -120;
#X obj 100 569 min 0;
#X obj 100 443 powtodb;
#X msg 100 520 -120;
#X obj 67 615 f -120;
#X obj 100 467 - 100;
#X obj 100 491 moses -99;
#X obj 419 168 metro 40;
#X text 199 330 current peak amplitude = max( abs( audio sample ) \,
previous peak amplitude * decay factor );
#X obj 122 331 f 0;
#X obj 100 385 max;
#X obj 100 288 t a a b;
#X obj 100 410 t a a;
#X obj 210 61 osc~ 440;
#X obj 212 101 *~ 0.1;
#X floatatom 278 69 5 0 0 0 - - -;
#X obj 122 356 * 0.65;
#X obj 419 200 s \$0-send_value;
#X obj -1 569 r \$0-send_value;
#X connect 1 0 11 0;
#X connect 4 0 6 0;
#X connect 6 0 21 0;
#X connect 7 0 8 0;
#X connect 7 0 9 0;
#X connect 8 0 7 1;
#X connect 10 0 7 1;
#X connect 10 0 8 0;
#X connect 11 0 12 0;
#X connect 12 0 25 0;
#X connect 13 0 12 0;
#X connect 14 0 15 0;
#X connect 15 0 18 1;
#X connect 16 0 19 0;
#X connect 17 0 14 0;
#X connect 18 0 0 0;
#X connect 18 0 7 0;
#X connect 19 0 20 0;
#X connect 20 0 17 0;
#X connect 20 1 14 0;
#X connect 21 0 31 0;
#X connect 23 0 30 0;
#X connect 24 0 26 0;
#X connect 25 0 24 0;
#X connect 25 2 23 0;
#X connect 26 0 16 0;
#X connect 26 1 23 1;
#X connect 27 0 28 0;
#X connect 29 0 28 1;
#X connect 30 0 24 1;
#X connect 32 0 18 0;
