#N canvas 197 218 852 357 10;
#X obj 362 53 inlet;
#X obj 38 53 inlet~;
#X obj 137 274 outlet~;
#X text 167 233 in-level-gain;
#X obj 233 53 inlet;
#X obj 38 274 outlet~;
#X text 129 295 to effect;
#X obj 362 135 clip 0 4;
#X text 360 32 route parameters;
#X obj 437 274 outlet;
#X text 435 295 rejected parameters;
#X obj 233 274 outlet;
#X text 31 311 dry path;
#X text 32 295 bypass path;
#X text 31 32 signal in;
#X text 326 135 range;
#X text 550 59 of parameters of the class processor;
#X text 547 78 (in-level) and splits up the incoming;
#X text 551 96 signal into dry path and effect path.;
#X text 549 43 This abstraction handles the first part;
#X text 553 131 Init-bang will be passed through.;
#X text 553 150 In-level will be routed here \, other;
#X text 554 171 parameters will be passed through.;
#X text 527 204 1.) initial argument: <float> parent unique number
;
#X text 569 259 Thomas Musil \, 11.11.2009;
#X obj 362 99 route inLevel;
#X obj 137 217 ../generics/line_mul~ 1 20;
#X obj 233 99 t b b;
#X text 228 295 to next init-bang;
#X text 552 218 it's like a pd module ID;
#X text 231 32 from init-bang;
#X connect 0 0 25 0;
#X connect 1 0 5 0;
#X connect 1 0 26 0;
#X connect 4 0 27 0;
#X connect 7 0 26 1;
#X connect 25 0 7 0;
#X connect 25 1 9 0;
#X connect 26 0 2 0;
#X connect 27 0 11 0;
#X connect 27 1 26 3;
