#N canvas 182 171 837 455 10;
#X obj 45 364 outlet~;
#X obj 228 56 inlet;
#X obj 45 56 inlet~;
#X obj 360 56 inlet;
#X text 360 39 route parameters;
#X text 468 381 rejected parameters;
#X obj 471 364 outlet;
#X text 42 381 to active-module;
#X msg 360 174 1;
#X msg 390 174 0;
#X obj 390 147 t b;
#X obj 228 364 outlet;
#X text 537 80 Init-bang will be passed through.;
#X obj 415 215 clip 0 4;
#X text 425 193 range;
#X text 537 99 Out-level will be routed here \,;
#X text 536 135 Other parameters will be passed through.;
#X text 211 331 multiply mute and inv. bypass;
#X text 537 43 This abstraction handles the parameters;
#X text 538 59 of the class generator (mute \, out-level).;
#X obj 360 215 t b f;
#X obj 360 277 * 1;
#X obj 360 251 f 1;
#X text 211 316 mute and out-level-gain;
#X text 40 39 from generator;
#X text 509 163 1.) initial argument: <float> parent unique number
;
#X text 540 207 Thomas Musil \, 11.11.2009;
#X obj 360 89 route mute outLevel;
#X obj 45 324 ../generics/line_mul~ 1 20;
#X obj 228 92 t b b;
#X text 225 39 from prev init-bang;
#X obj 360 118 sel 0;
#X text 226 381 to next init-bang;
#X text 537 116 mute will be routed here too.;
#X text 533 177 it's like a pd module ID;
#X connect 1 0 29 0;
#X connect 2 0 28 0;
#X connect 3 0 27 0;
#X connect 8 0 20 0;
#X connect 9 0 20 0;
#X connect 10 0 9 0;
#X connect 13 0 22 0;
#X connect 20 0 22 0;
#X connect 20 1 21 1;
#X connect 21 0 28 1;
#X connect 22 0 21 0;
#X connect 27 0 31 0;
#X connect 27 1 13 0;
#X connect 27 2 6 0;
#X connect 28 0 0 0;
#X connect 29 0 11 0;
#X connect 29 1 28 3;
#X connect 31 0 8 0;
#X connect 31 1 10 0;
