#N canvas 19 109 1255 528 10;
#X obj 534 452 outlet~;
#X obj 534 419 +~;
#X text 404 364 out-level-gain;
#X obj 750 53 inlet;
#X text 459 402 bypass path;
#X obj 585 54 inlet~;
#X obj 534 54 inlet~;
#X obj 835 53 inlet;
#X text 832 37 route parameters;
#X text 1009 471 rejected parameters;
#X obj 1012 452 outlet;
#X obj 750 452 outlet;
#X text 961 148 of parameters of the class processor;
#X text 962 219 Init-bang will be passed through.;
#X text 529 38 dry path;
#X text 960 132 This abstraction handles the second part;
#X text 963 184 and merges the signals of dry path and;
#X text 963 201 effect path together.;
#X text 964 238 Out-level will be routed here \,;
#X text 965 254 mix will be routed here \,;
#X text 964 272 also mute and bypass are routed here \,;
#X text 965 291 bypass overrules mute. !!!!!;
#X text 966 311 Other parameters will be passed through.;
#X text 941 339 1.) initial argument: <float> parent unique number
;
#X obj 835 82 route mix mute bypass outLevel;
#X text 969 389 Thomas Musil \, 11.11.2009;
#X obj 534 348 ../generics/line_mul~ 1 20;
#X obj 585 386 ../generics/line_mul~ 0 20;
#X obj 534 265 ../generics/line_mul~ 1 20;
#X obj 750 82 t b b;
#X text 960 167 (mix \, mute \, bypass \, out-level);
#X text 966 356 it's like a pd module ID;
#X text 712 37 from prev init-bang;
#X text 748 471 to next init-bang;
#X obj 363 452 outlet~;
#X obj 363 419 +~;
#X obj 414 54 inlet~;
#X obj 363 54 inlet~;
#X text 358 38 dry path;
#X obj 363 348 ../generics/line_mul~ 1 20;
#X obj 414 386 ../generics/line_mul~ 0 20;
#X obj 363 265 ../generics/line_mul~ 1 20;
#X text 633 403 bypass path;
#X text 575 363 out-level-gain;
#X text 528 280 mute-gain and inv bypass path;
#X text 357 281 mute-gain and inv bypass path;
#X obj 192 452 outlet~;
#X obj 192 419 +~;
#X text 62 364 out-level-gain;
#X text 117 402 bypass path;
#X obj 243 54 inlet~;
#X obj 192 54 inlet~;
#X text 187 38 dry path;
#X obj 192 348 ../generics/line_mul~ 1 20;
#X obj 243 386 ../generics/line_mul~ 0 20;
#X obj 192 265 ../generics/line_mul~ 1 20;
#X obj 21 452 outlet~;
#X obj 21 419 +~;
#X obj 72 54 inlet~;
#X obj 21 54 inlet~;
#X obj 72 306 clip 0 4;
#X text 16 38 dry path;
#X obj 21 348 ../generics/line_mul~ 1 20;
#X obj 72 386 ../generics/line_mul~ 0 20;
#X obj 21 265 ../generics/line_mul~ 1 20;
#N canvas 743 273 450 390 bypass__ 0;
#X msg 282 239 0;
#X obj 282 45 sel 0;
#X obj 320 72 t b;
#X msg 75 148 1;
#X msg 320 239 1;
#X text 195 149 inverted bypass path;
#X msg 171 149 0;
#X msg 141 149 1;
#X obj 141 182 t b f;
#X obj 75 239 * 1;
#X obj 75 210 f 1;
#X msg 106 148 0;
#X obj 75 45 sel 0;
#X obj 106 72 t b;
#X text 102 240 multiply mute and inv bypass;
#X obj 75 8 inlet;
#X obj 282 9 inlet;
#X obj 75 276 outlet;
#X obj 282 276 outlet;
#X connect 0 0 18 0;
#X connect 1 0 0 0;
#X connect 1 0 7 0;
#X connect 1 1 2 0;
#X connect 2 0 4 0;
#X connect 2 0 6 0;
#X connect 3 0 10 0;
#X connect 4 0 18 0;
#X connect 6 0 8 0;
#X connect 7 0 8 0;
#X connect 8 0 10 0;
#X connect 8 1 9 1;
#X connect 9 0 17 0;
#X connect 10 0 9 0;
#X connect 11 0 10 0;
#X connect 12 0 3 0;
#X connect 12 1 13 0;
#X connect 13 0 11 0;
#X connect 15 0 12 0;
#X connect 16 0 1 0;
#X restore 878 195 pd bypass__;
#X text 291 403 bypass path;
#X text 233 363 out-level-gain;
#X text 186 280 mute-gain and inv bypass path;
#X text 15 281 mute-gain and inv bypass path;
#X text 16 25 bypass path 1;
#X text 68 38 from effect 1;
#X text 187 25 bypass path 2;
#X text 239 38 from effect 2;
#X text 358 25 bypass path 3;
#X text 410 38 from effect 3;
#X text 529 25 bypass path 4;
#X text 581 38 from effect 4;
#X text 79 212 mix 1;
#X text 248 211 mix 2;
#X text 406 211 mix 3;
#X text 599 211 mix 4;
#X text 17 471 to active-module 1;
#X text 187 471 to active-module 2;
#X text 359 471 to active-module 3;
#X text 529 471 to active-module 4;
#X text 125 305 range out-level-gain;
#N canvas 313 178 593 497 mix____________________ 0;
#X obj 111 430 outlet~;
#X obj 133 43 inlet~;
#X obj 61 43 inlet~;
#X text 134 25 wet;
#X text 59 25 dry;
#X text 121 447 mix;
#X obj 249 43 inlet;
#X obj 281 185 sin;
#X obj 294 131 expr 2*atan(1);
#X obj 223 184 cos;
#X obj 281 211 clip 0 1;
#X obj 223 211 clip 0 1;
#X obj 249 155 * 1.5708;
#X obj 112 391 +~;
#X text 225 25 0..dry \, 1..wet;
#X text 282 352 mix-gain wet;
#X text 88 353 mix-gain dry;
#X text 263 132 pi/2;
#X obj 230 336 ../generics/line_mul~ 1 20;
#X obj 61 336 ../generics/line_mul~ 0 20;
#X obj 444 43 inlet;
#X text 440 25 init-bang;
#X obj 444 79 t b b;
#X text 179 385 The signal will be mixed by multiplying with the first
quarter of a sine resp. cosine wave. That means in the middle (with
0.5) both wet and ond dry signals will be -3dB.;
#X obj 249 79 clip 0 1;
#X text 212 78 range;
#X connect 1 0 18 0;
#X connect 2 0 19 0;
#X connect 6 0 24 0;
#X connect 7 0 10 0;
#X connect 8 0 12 1;
#X connect 9 0 11 0;
#X connect 10 0 18 1;
#X connect 11 0 19 1;
#X connect 12 0 7 0;
#X connect 12 0 9 0;
#X connect 13 0 0 0;
#X connect 18 0 13 1;
#X connect 19 0 13 0;
#X connect 20 0 22 0;
#X connect 22 0 8 0;
#X connect 22 1 18 3;
#X connect 22 1 19 3;
#X connect 24 0 12 0;
#X restore 21 195 pd mix____________________;
#N canvas 313 178 593 497 mix____________________ 0;
#X obj 111 430 outlet~;
#X obj 133 43 inlet~;
#X obj 61 43 inlet~;
#X text 134 25 wet;
#X text 59 25 dry;
#X text 121 447 mix;
#X obj 249 43 inlet;
#X obj 281 185 sin;
#X obj 294 131 expr 2*atan(1);
#X obj 223 184 cos;
#X obj 281 211 clip 0 1;
#X obj 223 211 clip 0 1;
#X obj 249 155 * 1.5708;
#X obj 112 391 +~;
#X text 225 25 0..dry \, 1..wet;
#X text 282 352 mix-gain wet;
#X text 88 353 mix-gain dry;
#X text 263 132 pi/2;
#X obj 230 336 ../generics/line_mul~ 1 20;
#X obj 61 336 ../generics/line_mul~ 0 20;
#X obj 444 43 inlet;
#X text 440 25 init-bang;
#X obj 444 79 t b b;
#X text 179 385 The signal will be mixed by multiplying with the first
quarter of a sine resp. cosine wave. That means in the middle (with
0.5) both wet and ond dry signals will be -3dB.;
#X obj 249 79 clip 0 1;
#X text 212 78 range;
#X connect 1 0 18 0;
#X connect 2 0 19 0;
#X connect 6 0 24 0;
#X connect 7 0 10 0;
#X connect 8 0 12 1;
#X connect 9 0 11 0;
#X connect 10 0 18 1;
#X connect 11 0 19 1;
#X connect 12 0 7 0;
#X connect 12 0 9 0;
#X connect 13 0 0 0;
#X connect 18 0 13 1;
#X connect 19 0 13 0;
#X connect 20 0 22 0;
#X connect 22 0 8 0;
#X connect 22 1 18 3;
#X connect 22 1 19 3;
#X connect 24 0 12 0;
#X restore 192 195 pd mix____________________;
#N canvas 313 178 593 497 mix____________________ 0;
#X obj 111 430 outlet~;
#X obj 133 43 inlet~;
#X obj 61 43 inlet~;
#X text 134 25 wet;
#X text 59 25 dry;
#X text 121 447 mix;
#X obj 249 43 inlet;
#X obj 281 185 sin;
#X obj 294 131 expr 2*atan(1);
#X obj 223 184 cos;
#X obj 281 211 clip 0 1;
#X obj 223 211 clip 0 1;
#X obj 249 155 * 1.5708;
#X obj 112 391 +~;
#X text 225 25 0..dry \, 1..wet;
#X text 282 352 mix-gain wet;
#X text 88 353 mix-gain dry;
#X text 263 132 pi/2;
#X obj 230 336 ../generics/line_mul~ 1 20;
#X obj 61 336 ../generics/line_mul~ 0 20;
#X obj 444 43 inlet;
#X text 440 25 init-bang;
#X obj 444 79 t b b;
#X text 179 385 The signal will be mixed by multiplying with the first
quarter of a sine resp. cosine wave. That means in the middle (with
0.5) both wet and ond dry signals will be -3dB.;
#X obj 249 79 clip 0 1;
#X text 212 78 range;
#X connect 1 0 18 0;
#X connect 2 0 19 0;
#X connect 6 0 24 0;
#X connect 7 0 10 0;
#X connect 8 0 12 1;
#X connect 9 0 11 0;
#X connect 10 0 18 1;
#X connect 11 0 19 1;
#X connect 12 0 7 0;
#X connect 12 0 9 0;
#X connect 13 0 0 0;
#X connect 18 0 13 1;
#X connect 19 0 13 0;
#X connect 20 0 22 0;
#X connect 22 0 8 0;
#X connect 22 1 18 3;
#X connect 22 1 19 3;
#X connect 24 0 12 0;
#X restore 363 195 pd mix____________________;
#N canvas 313 178 593 497 mix____________________ 0;
#X obj 111 430 outlet~;
#X obj 133 43 inlet~;
#X obj 61 43 inlet~;
#X text 134 25 wet;
#X text 59 25 dry;
#X text 121 447 mix;
#X obj 249 43 inlet;
#X obj 281 185 sin;
#X obj 294 131 expr 2*atan(1);
#X obj 223 184 cos;
#X obj 281 211 clip 0 1;
#X obj 223 211 clip 0 1;
#X obj 249 155 * 1.5708;
#X obj 112 391 +~;
#X text 225 25 0..dry \, 1..wet;
#X text 282 352 mix-gain wet;
#X text 88 353 mix-gain dry;
#X text 263 132 pi/2;
#X obj 230 336 ../generics/line_mul~ 1 20;
#X obj 61 336 ../generics/line_mul~ 0 20;
#X obj 444 43 inlet;
#X text 440 25 init-bang;
#X obj 444 79 t b b;
#X text 179 385 The signal will be mixed by multiplying with the first
quarter of a sine resp. cosine wave. That means in the middle (with
0.5) both wet and ond dry signals will be -3dB.;
#X obj 249 79 clip 0 1;
#X text 212 78 range;
#X connect 1 0 18 0;
#X connect 2 0 19 0;
#X connect 6 0 24 0;
#X connect 7 0 10 0;
#X connect 8 0 12 1;
#X connect 9 0 11 0;
#X connect 10 0 18 1;
#X connect 11 0 19 1;
#X connect 12 0 7 0;
#X connect 12 0 9 0;
#X connect 13 0 0 0;
#X connect 18 0 13 1;
#X connect 19 0 13 0;
#X connect 20 0 22 0;
#X connect 22 0 8 0;
#X connect 22 1 18 3;
#X connect 22 1 19 3;
#X connect 24 0 12 0;
#X restore 534 195 pd mix____________________;
#X connect 1 0 0 0;
#X connect 3 0 29 0;
#X connect 5 0 90 1;
#X connect 6 0 90 0;
#X connect 6 0 27 0;
#X connect 7 0 24 0;
#X connect 24 0 90 2;
#X connect 24 0 89 2;
#X connect 24 0 87 2;
#X connect 24 0 88 2;
#X connect 24 1 65 0;
#X connect 24 2 65 1;
#X connect 24 3 60 0;
#X connect 24 4 10 0;
#X connect 26 0 1 0;
#X connect 27 0 1 1;
#X connect 28 0 26 0;
#X connect 29 0 11 0;
#X connect 29 1 27 3;
#X connect 29 1 26 3;
#X connect 29 1 28 3;
#X connect 29 1 90 3;
#X connect 29 1 39 3;
#X connect 29 1 41 3;
#X connect 29 1 40 3;
#X connect 29 1 89 3;
#X connect 29 1 88 3;
#X connect 29 1 87 3;
#X connect 29 1 55 3;
#X connect 29 1 64 3;
#X connect 29 1 53 3;
#X connect 29 1 62 3;
#X connect 29 1 54 3;
#X connect 29 1 63 3;
#X connect 35 0 34 0;
#X connect 36 0 89 1;
#X connect 37 0 89 0;
#X connect 37 0 40 0;
#X connect 39 0 35 0;
#X connect 40 0 35 1;
#X connect 41 0 39 0;
#X connect 47 0 46 0;
#X connect 50 0 88 1;
#X connect 51 0 88 0;
#X connect 51 0 54 0;
#X connect 53 0 47 0;
#X connect 54 0 47 1;
#X connect 55 0 53 0;
#X connect 57 0 56 0;
#X connect 58 0 87 1;
#X connect 59 0 87 0;
#X connect 59 0 63 0;
#X connect 60 0 62 1;
#X connect 60 0 53 1;
#X connect 60 0 39 1;
#X connect 60 0 26 1;
#X connect 62 0 57 0;
#X connect 63 0 57 1;
#X connect 64 0 62 0;
#X connect 65 0 64 1;
#X connect 65 0 55 1;
#X connect 65 0 41 1;
#X connect 65 0 28 1;
#X connect 65 1 63 1;
#X connect 65 1 54 1;
#X connect 65 1 40 1;
#X connect 65 1 27 1;
#X connect 87 0 64 0;
#X connect 88 0 55 0;
#X connect 89 0 41 0;
#X connect 90 0 28 0;
