#N canvas 819 109 450 300 10;
#X obj 41 86 inlet;
#X obj 52 259 outlet;
#X obj 117 259 outlet;
#X obj 187 257 outlet;
#X obj 51 233 t a a;
#X obj 41 160 t b a;
#X obj 41 112 * 1;
#X obj 111 85 inlet;
#X obj 48 202 i \$1;
#X connect 0 0 6 0;
#X connect 4 0 1 0;
#X connect 4 1 2 0;
#X connect 5 0 8 0;
#X connect 5 1 3 0;
#X connect 6 0 5 0;
#X connect 7 0 6 1;
#X connect 8 0 4 0;
