#N canvas 657 303 243 248 10;
#X obj 44 135 expr size("$s2");
#X obj 137 71 inlet;
#X obj 44 60 inlet;
#X obj 44 185 outlet;
#X text 45 33 [arraysize] clone;
#X obj 44 86 route set;
#X obj 143 113 symbol;
#X connect 0 0 3 0;
#X connect 1 0 0 1;
#X connect 2 0 5 0;
#X connect 5 0 6 0;
#X connect 5 1 0 0;
#X connect 6 0 0 1;
