#N canvas 572 57 726 480 10;
#X text 60 39 output a 1 when we receive some audio and a 0 when it
stops;
#X obj 58 85 inlet~;
#X obj 125 85 inlet;
#X obj 125 117 route threshold persistence;
#X obj 59 138 env~;
#X obj 59 191 disbelief 0;
#X obj 59 264 tgl 15 0 empty empty empty 17 7 0 10 -262144 -1 -1 0
1;
#X obj 109 233 moses 1;
#X obj 59 234 moses 1;
#X obj 59 287 change;
#X obj 59 163 > 45;
#X msg 122 168 40;
#X obj 59 334 outlet;
#X obj 197 81 inlet;
#X text 238 81 init bang;
#X connect 1 0 4 0;
#X connect 2 0 3 0;
#X connect 3 0 10 1;
#X connect 3 1 5 1;
#X connect 4 0 10 0;
#X connect 5 0 8 0;
#X connect 6 0 9 0;
#X connect 7 1 6 0;
#X connect 8 0 6 0;
#X connect 9 0 12 0;
#X connect 10 0 5 0;
#X connect 10 0 7 0;
#X connect 11 0 5 1;
#X connect 13 0 11 0;
#X connect 13 0 5 2;
