#N canvas 0 22 450 300 10;
#X obj 86 70 inlet;
#X obj 140 71 inlet;
#X obj 227 72 inlet;
#X obj 85 226 outlet;
#X obj 227 101 sel 0 1 2;
#X obj 186 71 inlet;
#X obj 86 153 ezspigot;
#X obj 156 153 ezspigot;
#X obj 228 153 ezspigot;
#X connect 0 0 6 0;
#X connect 1 0 7 0;
#X connect 2 0 4 0;
#X connect 4 0 6 2;
#X connect 4 0 7 1;
#X connect 4 0 8 1;
#X connect 4 1 6 1;
#X connect 4 1 7 2;
#X connect 4 1 8 1;
#X connect 4 2 6 1;
#X connect 4 2 7 1;
#X connect 4 2 8 2;
#X connect 5 0 8 0;
#X connect 6 0 3 0;
#X connect 7 0 3 0;
#X connect 8 0 3 0;
