#N canvas 0 22 450 300 10;
#X obj 85 70 inlet;
#X obj 140 71 inlet;
#X obj 223 71 inlet;
#X obj 223 93 sel 0 1;
#X obj 85 226 outlet;
#X obj 140 171 ezspigot;
#X obj 85 147 ezspigot;
#X connect 0 0 6 0;
#X connect 1 0 5 0;
#X connect 2 0 3 0;
#X connect 3 0 5 1;
#X connect 3 0 6 2;
#X connect 3 1 5 2;
#X connect 3 1 6 1;
#X connect 5 0 4 0;
#X connect 6 0 4 0;
