#N canvas 523 332 764 390 10;
#X obj 45 59 inlet;
#X text 34 34 start bang;
#X obj 308 53 inlet;
#X text 297 28 reset bang;
#X obj 111 289 + 1;
#X obj 216 343 outlet;
#X obj 357 342 outlet;
#X text 216 362 counter outlet;
#X obj 351 295 t b;
#X text 353 363 overflow bang;
#X obj 309 77 t b;
#X msg 169 117 0;
#X text 371 68 1.) initial argument: N = maximum number;
#X text 398 87 counter counts from 0 to N - 1;
#X obj 183 57 inlet;
#X text 166 33 N = max. number;
#X obj 45 84 route bang float;
#X obj 44 144 f;
#X obj 86 167 f;
#X obj 192 291 - 1;
#X obj 121 182 f;
#X obj 153 290 + 0;
#X obj 275 146 moses 0;
#X obj 90 115 sel 1 0 -1;
#X obj 314 178 moses \$1;
#X obj 687 390;
#X connect 0 0 16 0;
#X connect 2 0 10 0;
#X connect 4 0 17 1;
#X connect 8 0 6 0;
#X connect 10 0 11 0;
#X connect 11 0 18 1;
#X connect 11 0 17 1;
#X connect 11 0 20 1;
#X connect 14 0 24 1;
#X connect 16 0 17 0;
#X connect 16 1 23 0;
#X connect 17 0 22 0;
#X connect 18 0 22 0;
#X connect 19 0 20 1;
#X connect 20 0 22 0;
#X connect 21 0 18 1;
#X connect 22 0 8 0;
#X connect 22 1 24 0;
#X connect 23 0 17 0;
#X connect 23 1 18 0;
#X connect 23 2 20 0;
#X connect 24 0 4 0;
#X connect 24 0 5 0;
#X connect 24 0 19 0;
#X connect 24 0 21 0;
#X connect 24 1 8 0;
