#N canvas 200 106 499 629 10;
#X obj 399 27 inlet;
#X msg 169 198 stop;
#X obj 133 243 t b;
#X obj 170 243 delay 100;
#X obj 215 216 /;
#X obj 169 25 inlet;
#X obj 167 536 outlet;
#X obj 205 298 + 1;
#X msg 204 412 0;
#X obj 167 436 f 0;
#X obj 205 386 sel 1;
#X obj 205 324 t a a;
#X obj 264 27 loadbang;
#X obj 264 50 f \$1;
#X obj 205 360 >= 1000;
#X msg 215 191 1 \$1;
#X obj 167 494 / 1000;
#X obj 169 105 sel 0;
#X msg 280 221 -1;
#X msg 252 221 1;
#X obj 196 130 t b a a;
#X obj 252 159 < 0;
#X obj 252 189 sel 0 1;
#X obj 215 160 abs;
#X connect 0 0 8 0;
#X connect 1 0 3 0;
#X connect 2 0 3 0;
#X connect 3 0 2 0;
#X connect 3 0 9 0;
#X connect 4 0 3 1;
#X connect 5 0 17 0;
#X connect 7 0 11 0;
#X connect 8 0 9 1;
#X connect 9 0 7 0;
#X connect 9 0 16 0;
#X connect 10 0 8 0;
#X connect 11 0 14 0;
#X connect 11 1 9 1;
#X connect 12 0 13 0;
#X connect 13 0 17 0;
#X connect 14 0 10 0;
#X connect 15 0 4 0;
#X connect 16 0 6 0;
#X connect 17 0 1 0;
#X connect 17 1 20 0;
#X connect 18 0 7 1;
#X connect 19 0 7 1;
#X connect 20 0 3 0;
#X connect 20 1 23 0;
#X connect 20 2 21 0;
#X connect 21 0 22 0;
#X connect 22 0 19 0;
#X connect 22 1 18 0;
#X connect 23 0 15 0;
