#N canvas 0 22 620 471 10;
#X obj 86 36 inlet;
#X obj 86 150 ==;
#X obj 86 233 f;
#X obj 115 232 + 1;
#X obj 86 404 outlet;
#X obj 86 179 sel 1 0;
#X msg 105 206 0;
#X obj 157 108 f \$1;
#X obj 86 371 f;
#X obj 86 58 t a a b;
#X obj 86 342 sel 1;
#X obj 280 42 inlet;
#X obj 86 287 + 1;
#X obj 280 95 - 1;
#X obj 86 262 %;
#X obj 86 314 ==;
#X msg 322 72 5;
#X text 202 332 only outputs values if they occur n times where n defaults
to 5 and can be set via the right inlet;
#X text 202 379 arg 1 sets an initial value \, which defaults to 0
if not set;
#X obj 322 42 inlet;
#X connect 0 0 9 0;
#X connect 1 0 5 0;
#X connect 2 0 3 0;
#X connect 2 0 14 0;
#X connect 3 0 2 1;
#X connect 5 0 2 0;
#X connect 5 1 6 0;
#X connect 6 0 2 1;
#X connect 7 0 1 1;
#X connect 8 0 4 0;
#X connect 9 0 1 0;
#X connect 9 0 8 1;
#X connect 9 1 7 1;
#X connect 9 2 7 0;
#X connect 10 0 8 0;
#X connect 11 0 13 0;
#X connect 12 0 15 0;
#X connect 13 0 14 1;
#X connect 13 0 15 1;
#X connect 14 0 12 0;
#X connect 15 0 10 0;
#X connect 16 0 13 0;
#X connect 19 0 16 0;
