#N canvas 0 0 641 530 10;
#X obj 104 233 expr 4*atan(1)/$f1;
#X obj 104 209 samplerate~;
#X obj 77 252 * 1;
#X obj 77 60 inlet;
#X text 79 42 freq;
#X obj 77 277 clip 1e-020 1.57079;
#X obj 240 211 expr 2*atan(1);
#X obj 77 302 expr cos($f1)/sin($f1);
#X obj 240 233 - 1e-007;
#X obj 377 56 inlet;
#X text 379 38 Q;
#X obj 377 227 max 1e-007;
#X msg 377 249 1 \$1;
#X obj 377 271 /;
#X obj 377 293 max 1e-007;
#X text 238 359 l;
#X text 449 295 a;
#X obj 377 318 t b f;
#X obj 77 402 f 1;
#X obj 77 423 pack 0 0;
#X text 147 425 l a;
#X obj 77 176 f \$1;
#X obj 377 204 f \$2;
#X obj 500 80 t b b b;
#X obj 77 343 t b f;
#X obj 77 371 del 0;
#X text 418 259 Q -> a;
#X text 251 254 pi/2;
#X text 120 252 *pi/SR;
#X obj 77 450 outlet;
#X text 18 13 fq-al : freq Q to l a transformer;
#X obj 500 50 inlet;
#X text 499 31 init-bang;
#X connect 0 0 2 1;
#X connect 1 0 0 0;
#X connect 2 0 5 0;
#X connect 3 0 21 0;
#X connect 5 0 7 0;
#X connect 6 0 8 0;
#X connect 7 0 24 0;
#X connect 8 0 5 2;
#X connect 9 0 22 0;
#X connect 11 0 12 0;
#X connect 12 0 13 0;
#X connect 13 0 14 0;
#X connect 14 0 17 0;
#X connect 17 0 25 0;
#X connect 17 1 19 1;
#X connect 18 0 19 0;
#X connect 19 0 29 0;
#X connect 21 0 2 0;
#X connect 22 0 11 0;
#X connect 23 0 21 0;
#X connect 23 1 22 0;
#X connect 23 2 1 0;
#X connect 23 2 6 0;
#X connect 24 0 25 0;
#X connect 24 1 18 1;
#X connect 25 0 18 0;
#X connect 31 0 23 0;
