#N canvas 623 319 450 300 10;
#X obj 64 249 outlet;
#X obj 178 247 outlet;
#X obj 184 48 inlet;
#X obj 63 45 inlet;
#X obj 184 85 sel 1 2;
#X obj 64 177 ezspigot;
#X obj 178 176 ezspigot;
#X connect 2 0 4 0;
#X connect 3 0 5 0;
#X connect 3 0 6 0;
#X connect 4 0 5 2;
#X connect 4 0 6 1;
#X connect 4 1 5 1;
#X connect 4 1 6 2;
#X connect 5 0 0 0;
#X connect 6 0 1 0;
