#N canvas 203 208 935 546 10;
#X obj 16 43 inlet;
#X obj 113 71 inlet;
#X obj 304 72 inlet;
#X text 20 22 bang;
#X text 354 57 epsilon: maximum deviation;
#X text 120 52 my: expectation value;
#X obj 252 249 t b b;
#N canvas 0 0 274 194 random2 0;
#X obj 57 33 inlet;
#X obj 57 150 outlet;
#X obj 57 94 + 1;
#X obj 57 64 random 999999;
#X obj 57 122 / 999999;
#X connect 0 0 3 0;
#X connect 2 0 4 0;
#X connect 3 0 2 0;
#X connect 4 0 1 0;
#X restore 402 281 pd random2;
#N canvas 0 0 274 194 random1 0;
#X obj 57 33 inlet;
#X obj 57 120 outlet;
#X obj 57 64 random 999999;
#X obj 57 92 / 999999;
#X connect 0 0 2 0;
#X connect 2 0 3 0;
#X connect 3 0 1 0;
#X restore 252 281 pd random1;
#X obj 252 304 expr cos(8*atan(1)*$f1)*sqrt(2)*$f3*sqrt(-log($f2))
;
#X obj 252 356 moses -1;
#X obj 272 381 moses 1;
#X obj 297 334 * -1;
#X obj 98 478 + 0;
#N canvas 0 0 730 468 quantumizer 0;
#X obj 164 60 inlet;
#X obj 121 426 outlet;
#X obj 353 61 inlet;
#X obj 572 62 inlet;
#X text 352 41 max dev;
#X text 571 40 nr quants;
#X obj 166 162 / 1;
#X obj 166 187 + 1;
#X obj 166 214 * 0.5;
#X text 206 214 0....1;
#X obj 166 243 * 1;
#X obj 165 289 int;
#X obj 165 313 / 1;
#X obj 165 336 * 2;
#X obj 165 359 - 1;
#X obj 165 384 * 1;
#X obj 166 266 + 0.499999;
#X obj 138 83 t f f;
#X obj 165 111 spigot 0;
#X obj 63 117 spigot 1;
#X obj 524 144 == 999999;
#X obj 602 144 != 999999;
#X connect 0 0 17 0;
#X connect 2 0 6 1;
#X connect 2 0 15 1;
#X connect 3 0 10 1;
#X connect 3 0 12 1;
#X connect 3 0 20 0;
#X connect 3 0 21 0;
#X connect 6 0 7 0;
#X connect 7 0 8 0;
#X connect 8 0 10 0;
#X connect 10 0 16 0;
#X connect 11 0 12 0;
#X connect 12 0 13 0;
#X connect 13 0 14 0;
#X connect 14 0 15 0;
#X connect 15 0 1 0;
#X connect 16 0 11 0;
#X connect 17 0 19 0;
#X connect 17 1 18 0;
#X connect 18 0 6 0;
#X connect 19 0 1 0;
#X connect 20 0 19 1;
#X connect 21 0 18 1;
#X restore 309 426 pd quantumizer;
#X obj 98 505 outlet;
#X obj 582 76 inlet;
#X text 581 57 number of quants;
#X msg 582 209 999999;
#N canvas 0 0 312 227 timeout 0;
#X obj 57 33 inlet;
#X obj 57 150 outlet;
#X obj 57 64 t b;
#X obj 180 32 inlet;
#X obj 180 63 t b;
#X obj 57 90 counter 10;
#X obj 57 119 t b;
#X connect 0 0 2 0;
#X connect 2 0 5 0;
#X connect 3 0 4 0;
#X connect 4 0 5 2;
#X connect 5 0 6 0;
#X connect 6 0 1 0;
#X restore 252 463 pd timeout;
#X obj 113 112 f \$1;
#X obj 304 112 f \$2;
#X obj 582 112 f \$3;
#X obj 841 95 t b b b;
#X obj 129 278 t b;
#X obj 304 136 max 0;
#X obj 582 136 max 0;
#X obj 582 161 int;
#X obj 582 183 sel 0 1;
#X text 624 76 0 and 1 means without quantization;
#X text 54 23 output a value near expected value with a random deviation
;
#X obj 555 280 * 0.5;
#X obj 304 221 + 1e-005;
#X obj 304 162 t f f;
#X text 356 72 = 2 * standard deviation;
#X text 338 87 95.45 % of all random numbers are within;
#X text 601 276 sigma: standard deviation;
#X text 643 290 root mean square deviation;
#X obj 841 63 inlet;
#X text 840 44 init-bang;
#X connect 0 0 6 0;
#X connect 1 0 20 0;
#X connect 2 0 21 0;
#X connect 6 0 8 0;
#X connect 6 1 7 0;
#X connect 7 0 9 1;
#X connect 8 0 9 0;
#X connect 9 0 10 0;
#X connect 10 0 19 0;
#X connect 10 1 11 0;
#X connect 11 0 14 0;
#X connect 11 1 19 0;
#X connect 12 0 10 1;
#X connect 13 0 15 0;
#X connect 14 0 13 0;
#X connect 14 0 19 1;
#X connect 16 0 22 0;
#X connect 18 0 14 2;
#X connect 19 0 24 0;
#X connect 20 0 13 1;
#X connect 21 0 25 0;
#X connect 22 0 26 0;
#X connect 23 0 20 0;
#X connect 23 1 21 0;
#X connect 23 2 22 0;
#X connect 24 0 6 0;
#X connect 25 0 33 0;
#X connect 26 0 27 0;
#X connect 27 0 28 0;
#X connect 28 0 18 0;
#X connect 28 1 18 0;
#X connect 28 2 14 2;
#X connect 31 0 9 2;
#X connect 32 0 11 1;
#X connect 32 0 12 0;
#X connect 32 0 14 1;
#X connect 33 0 32 0;
#X connect 33 1 31 0;
#X connect 38 0 23 0;
