#N canvas 244 22 488 643 10;
#X obj 220 336 timer;
#X obj 220 416 *;
#X obj 275 363 samplerate~;
#X obj 220 364 / 1000;
#X obj 82 232 sel 1 0;
#X msg 101 263 stop;
#X obj 82 264 bng 15 250 50 0 empty empty empty 17 7 0 10 -262144 -1
-1;
#X obj 220 158 t a a a;
#X obj 259 191 sel 1;
#X msg 301 330 \; pd dsp 1;
#X obj 275 305 t b b;
#X obj 60 100 inlet~;
#X text 56 3 Grabs incoming audio into a table given by the first argument
e.g. [grab~ \$0-foo];
#X obj 60 301 tabwrite~ \$1;
#X obj 220 303 sel 1 0;
#X obj 259 214 symbol \$1;
#X msg 247 512 \; \$2 resize \$1;
#X obj 220 108 inlet;
#X text 55 44 Second inlet toggles recording;
#X obj 220 457 pack 0 s;
#X obj 220 557 outlet;
#X text 56 65 Bang when done;
#X obj 220 483 t b a;
#X obj 275 278 inlet;
#X text 313 279 init bang;
#X msg 272 240 \; \$1 resize 4.41e+06;
#X connect 0 0 3 0;
#X connect 1 0 19 0;
#X connect 2 0 1 1;
#X connect 3 0 1 0;
#X connect 4 0 6 0;
#X connect 4 1 5 0;
#X connect 5 0 13 0;
#X connect 6 0 13 0;
#X connect 7 0 14 0;
#X connect 7 1 4 0;
#X connect 7 2 8 0;
#X connect 8 0 15 0;
#X connect 10 0 2 0;
#X connect 10 1 9 0;
#X connect 11 0 13 0;
#X connect 14 0 0 0;
#X connect 14 1 0 1;
#X connect 15 0 25 0;
#X connect 15 0 19 1;
#X connect 17 0 7 0;
#X connect 19 0 22 0;
#X connect 22 0 20 0;
#X connect 22 1 16 0;
#X connect 23 0 10 0;
