#N canvas 0 22 175 183 10;
#X obj 37 86 -;
#X obj 37 58 pack f \$1;
#X obj 37 31 inlet;
#X obj 37 115 outlet;
#X obj 88 31 inlet;
#X connect 0 0 3 0;
#X connect 1 0 0 0;
#X connect 2 0 1 0;
#X connect 4 0 1 1;
