#N canvas 166 153 672 380 10;
#X obj 155 163 \$3;
#X obj 98 93 inlet x;
#X text 64 65 y = b*e^(-a*log c)*e^(x*log c);
#X text 54 42 y = \$2*e^(-\$1*log \$3)*e^(x*log \$3);
#X obj 177 341 outlet y;
#X obj 114 184 exp;
#X obj 125 240 pow;
#X obj 140 216 *;
#X obj 155 185 log;
#X obj 98 213 f;
#X msg 114 163 1;
#X obj 192 224 pow;
#X obj 207 197 *;
#X obj 222 176 log;
#X obj 186 154 \$1;
#X obj 186 176 * -1;
#X obj 171 90 loadbang;
#X obj 177 271 *;
#X obj 171 111 t b b b b;
#X text 52 22 Based on 'linedrive' from Max/MSP;
#X text 237 328 J.R. Dooley \, Birmingham Conservatoire \, 2012;
#X text 293 84 "linedrive takes float ranging from -[argument 1] to
+[argument 1] and scales them to fall within the range -[argument 2]
to +[argument 2]. If the input equals argument 1 \, the output is equal
to argument value 2 Output varies exponentially with the input depending
on argument 3.";
#X obj 177 318 pack f \$4;
#X text 279 255 \$4 = time period to reach new value;
#X obj 222 155 \$3;
#X obj 177 296 * \$2;
#X obj 98 123 t b f b;
#X connect 0 0 8 0;
#X connect 1 0 26 0;
#X connect 5 0 9 1;
#X connect 5 0 11 0;
#X connect 6 0 17 0;
#X connect 7 0 6 1;
#X connect 8 0 7 1;
#X connect 9 0 6 0;
#X connect 10 0 5 0;
#X connect 11 0 17 1;
#X connect 12 0 11 1;
#X connect 13 0 12 1;
#X connect 14 0 15 0;
#X connect 15 0 12 0;
#X connect 16 0 18 0;
#X connect 17 0 25 0;
#X connect 18 0 0 0;
#X connect 18 1 10 0;
#X connect 18 2 14 0;
#X connect 18 3 24 0;
#X connect 22 0 4 0;
#X connect 24 0 13 0;
#X connect 25 0 22 0;
#X connect 26 0 9 0;
#X connect 26 1 7 0;
#X connect 26 2 18 0;
