#N canvas 7 50 897 877 10;
#X obj 100 52 inlet element;
#X obj 100 74 route bang;
#X obj 136 388 outlet list;
#X obj 157 282 list prepend;
#X obj 136 333 list;
#X obj 100 96 t b;
#X obj 136 355 t l b;
#N canvas 4 50 450 300 filter 0;
#X obj 176 127 list-find;
#X obj 176 149 t b;
#X obj 157 199 i;
#X msg 176 171 0;
#X msg 207 172 1;
#X obj 157 97 t b a b a;
#X obj 157 221 select 1;
#X obj 157 243 list;
#X obj 157 76 inlet;
#X obj 157 265 outlet;
#X obj 326 75 inlet list;
#X connect 0 0 1 0;
#X connect 1 0 3 0;
#X connect 2 0 6 0;
#X connect 3 0 2 1;
#X connect 4 0 2 1;
#X connect 5 0 2 0;
#X connect 5 1 0 0;
#X connect 5 2 4 0;
#X connect 5 3 7 1;
#X connect 6 0 7 0;
#X connect 7 0 9 0;
#X connect 8 0 5 0;
#X connect 10 0 0 1;
#X restore 157 95 pd filter;
#X obj 157 304 t l l l;
#X connect 0 0 1 0;
#X connect 1 0 5 0;
#X connect 1 1 7 0;
#X connect 3 0 8 0;
#X connect 4 0 6 0;
#X connect 5 0 4 0;
#X connect 6 0 2 0;
#X connect 6 1 8 0;
#X connect 7 0 3 0;
#X connect 8 0 4 1;
#X connect 8 1 3 1;
#X connect 8 2 7 1;
