#N canvas 420 225 440 604 10;
#X obj 84 14 inlet symbol;
#X obj 285 47 inlet list;
#X obj 84 232 list-drip;
#X obj 84 254 t a b;
#X obj 84 406 select symbol;
#X obj 84 428 i;
#X obj 84 520 outlet index;
#X obj 111 273 i;
#X obj 111 293 t f f;
#X obj 126 253 + 1;
#X obj 111 86 route symbol float;
#X obj 84 172 list;
#X obj 174 406 select 0;
#X obj 84 66 t b a b;
#X obj 84 36 list split 1;
#X obj 111 108 t b s;
#X obj 163 108 t b f;
#N canvas 4 50 450 300 demux 0;
#X obj 39 44 inlet;
#X obj 39 66 t a a;
#X obj 39 88 spigot 1;
#X obj 39 110 outlet;
#X obj 99 110 outlet;
#X obj 99 88 spigot 0;
#X obj 277 32 inlet;
#X obj 84 66 == 0;
#X obj 144 66 == 1;
#X obj 84 44 t f f;
#X connect 0 0 1 0;
#X connect 1 0 2 0;
#X connect 1 1 5 0;
#X connect 2 0 3 0;
#X connect 5 0 4 0;
#X connect 6 0 9 0;
#X connect 7 0 2 1;
#X connect 8 0 5 1;
#X connect 9 0 7 0;
#X connect 9 1 8 0;
#X restore 84 351 pd demux;
#X msg 111 130 0;
#X msg 163 131 1;
#X obj 163 152 t f;
#X msg 167 257 0;
#X obj 84 480 list append;
#X obj 84 326 t a a;
#X connect 0 0 14 0;
#X connect 1 0 11 1;
#X connect 2 0 3 0;
#X connect 3 0 23 0;
#X connect 3 1 7 0;
#X connect 4 0 5 0;
#X connect 5 0 22 0;
#X connect 7 0 8 0;
#X connect 8 0 5 1;
#X connect 8 1 9 0;
#X connect 9 0 7 1;
#X connect 10 0 15 0;
#X connect 10 1 16 0;
#X connect 11 0 2 0;
#X connect 12 0 5 0;
#X connect 13 0 11 0;
#X connect 13 1 10 0;
#X connect 13 2 21 0;
#X connect 14 0 13 0;
#X connect 15 0 18 0;
#X connect 15 1 4 1;
#X connect 16 0 19 0;
#X connect 16 1 12 1;
#X connect 17 0 4 0;
#X connect 17 1 12 0;
#X connect 18 0 20 0;
#X connect 19 0 20 0;
#X connect 20 0 17 1;
#X connect 21 0 7 1;
#X connect 22 0 6 0;
#X connect 23 0 17 0;
#X connect 23 1 22 1;
