#N canvas 5 50 450 300 10;
#X obj 100 52 inlet element;
#X obj 100 74 route bang;
#X obj 136 218 outlet list;
#X obj 157 112 list prepend;
#X obj 157 134 t l l;
#X obj 136 163 list;
#X obj 100 96 t b;
#X obj 136 185 t l b;
#X obj 226 90 t b b;
#X connect 0 0 1 0;
#X connect 1 0 6 0;
#X connect 1 1 3 0;
#X connect 3 0 4 0;
#X connect 4 0 5 1;
#X connect 4 1 3 1;
#X connect 5 0 7 0;
#X connect 6 0 5 0;
#X connect 7 0 2 0;
#X connect 7 1 8 0;
#X connect 8 0 3 1;
#X connect 8 1 5 1;
