#N canvas 205 399 450 300 10;
#X obj 188 200 list-find;
#X obj 189 64 inlet;
#X obj 310 63 inlet;
#X obj 188 256 outlet;
#X obj 189 99 route find index;
#X obj 272 169 list;
#X obj 243 130 t b a;
#X obj 300 199 ../list-abs/list-idx;
#X connect 0 0 3 0;
#X connect 1 0 4 0;
#X connect 2 0 5 1;
#X connect 2 0 0 1;
#X connect 4 0 0 0;
#X connect 4 1 6 0;
#X connect 5 0 7 0;
#X connect 6 0 5 0;
#X connect 6 1 7 1;
#X connect 7 0 3 0;
