#N canvas 630 528 436 335 10;
#X obj 66 59 inlet;
#X obj 223 61 inlet;
#X text 65 35 min;
#X text 227 35 max;
#X obj 66 251 outlet;
#X obj 206 255 outlet;
#X obj 140 252 outlet;
#X obj 66 156 +;
#X obj 140 158 -;
#X obj 140 181 abs;
#X obj 66 180 * 0.5;
#X obj 140 204 * 0.5;
#X text 72 272 mean;
#X text 142 274 dev;
#X obj 66 101 t f f;
#X obj 140 227 t f b;
#X obj 223 89 t b b f f;
#X connect 0 0 14 0;
#X connect 1 0 16 0;
#X connect 7 0 10 0;
#X connect 8 0 9 0;
#X connect 9 0 11 0;
#X connect 10 0 4 0;
#X connect 11 0 15 0;
#X connect 14 0 7 0;
#X connect 14 1 8 0;
#X connect 15 0 6 0;
#X connect 15 1 5 0;
#X connect 16 0 7 0;
#X connect 16 1 8 0;
#X connect 16 2 7 1;
#X connect 16 3 8 1;
