#N canvas 234 143 377 342 10;
#X obj 34 59 inlet;
#X obj 76 256 outlet;
#X obj 156 58 inlet;
#X obj 156 81 t b;
#X text 8 6 once_bang;
#X text 99 8 only the first bang passes through;
#X text 152 38 reset locking mechanism;
#X obj 34 80 t b;
#X text 29 289 bang out (only once);
#X text 29 37 bang in;
#X obj 76 203 change 0;
#X msg 34 106 1;
#X msg 156 106 0;
#X obj 76 229 sel 1;
#X connect 0 0 7 0;
#X connect 2 0 3 0;
#X connect 3 0 12 0;
#X connect 7 0 11 0;
#X connect 10 0 13 0;
#X connect 11 0 10 0;
#X connect 12 0 10 0;
#X connect 13 0 1 0;
