#N canvas 412 302 812 364 10;
#X obj 27 30 inlet~;
#X obj 27 259 outlet~;
#X obj 463 121 samplerate~;
#X obj 374 33 inlet;
#X obj 374 61 t f b;
#X obj 592 34 inlet;
#X text 27 9 sig.in~;
#X text 28 279 sig.out~;
#X text 589 15 init bang;
#X obj 312 181 expr exp(-1/($f1*$f2));
#X text 72 70 rectify;
#X obj 27 226 fexpr~ if($x1 >= $y[-1] \, $x1 \, $y[-1]*$f2);
#X obj 27 69 abs~;
#X text 476 181 calculate decay coefficient;
#X text 375 15 decay time in sec;
#X connect 0 0 12 0;
#X connect 2 0 9 1;
#X connect 3 0 4 0;
#X connect 4 0 9 0;
#X connect 4 1 2 0;
#X connect 5 0 2 0;
#X connect 9 0 11 1;
#X connect 11 0 1 0;
#X connect 12 0 11 0;
