#N canvas 196 90 358 643 10;
#X obj 231 -20 inlet;
#X obj 54 226 tgl 15 0 empty empty empty 17 7 0 10 -262144 -1 -1 1
1;
#X obj 54 246 sel 1 0;
#X msg 54 268 bang;
#X msg 88 268 stop;
#X obj 62 306 delay 100;
#X obj 124 223 /;
#X obj 54 -20 inlet;
#X obj 54 582 outlet;
#X obj 54 174 > 0;
#X obj -13 -20 loadbang;
#X obj -13 3 f \$1;
#X msg 124 202 1000 \$1;
#X obj 54 426 pack 1 f;
#X obj 124 245 t a a;
#X obj 54 128 t a a;
#X obj 17 307 t b;
#X obj 54 331 t b b;
#X obj 54 506 line 0 1;
#X obj 54 555 wrap 1;
#X obj 54 74 f;
#X msg 74 101 0;
#X obj 81 175 sel 0;
#X obj 54 373 pack 1 f;
#X obj 54 398 +;
#X msg 81 478 set \$1;
#X obj 81 453 f 0;
#X obj 231 14 t b b a a;
#X obj 188 291 t a a;
#X connect 0 0 27 0;
#X connect 1 0 2 0;
#X connect 2 0 3 0;
#X connect 2 1 4 0;
#X connect 3 0 5 0;
#X connect 3 0 17 0;
#X connect 4 0 5 0;
#X connect 5 0 16 0;
#X connect 5 0 17 0;
#X connect 6 0 14 0;
#X connect 7 0 20 0;
#X connect 9 0 1 0;
#X connect 10 0 11 0;
#X connect 11 0 20 0;
#X connect 12 0 6 0;
#X connect 13 0 18 0;
#X connect 14 0 5 1;
#X connect 14 1 13 1;
#X connect 15 0 9 0;
#X connect 15 1 22 0;
#X connect 16 0 5 0;
#X connect 17 0 23 0;
#X connect 17 1 26 0;
#X connect 18 0 19 0;
#X connect 19 0 8 0;
#X connect 20 0 15 0;
#X connect 21 0 15 0;
#X connect 22 1 12 0;
#X connect 23 0 24 0;
#X connect 24 0 13 0;
#X connect 25 0 18 0;
#X connect 26 0 25 0;
#X connect 27 0 20 0;
#X connect 27 1 21 0;
#X connect 27 2 23 1;
#X connect 27 3 28 0;
#X connect 28 0 18 0;
#X connect 28 1 26 1;
