#N canvas 0 22 450 300 10;
#X obj 145 82 inlet;
#X obj 244 86 inlet;
#X obj 151 181 list trim;
#X obj 149 142 list prepend \$1;
#X obj 148 221 outlet;
#X connect 0 0 3 0;
#X connect 1 0 3 1;
#X connect 2 0 4 0;
#X connect 3 0 2 0;
