#N canvas 43 407 450 300 10;
#X obj 129 108 t a a;
#X obj 129 160 list prepend;
#X obj 130 50 inlet;
#X obj 129 259 outlet;
#X obj 156 133 symbollength;
#X obj 128 80 symbol;
#X obj 129 219 ../list-abs/list-l2s :;
#X obj 129 184 t a b;
#X msg 229 195 symbol :;
#X connect 0 0 1 0;
#X connect 0 1 4 0;
#X connect 1 0 7 0;
#X connect 2 0 5 0;
#X connect 4 0 1 1;
#X connect 5 0 0 0;
#X connect 6 0 3 0;
#X connect 7 0 6 0;
#X connect 7 1 8 0;
#X connect 8 0 6 1;
