#N canvas 253 22 946 727 10;
#X obj 171 530 - 100;
#X obj 90 529 - 100;
#X obj 108 585 outlet;
#X obj 809 148 tgl 15 0 empty empty empty 17 7 0 10 -262144 -1 -1 1
1;
#X obj 107 559 pack 0 0;
#X obj 91 501 powtodb;
#X obj 171 504 rmstodb;
#X obj 171 448 snapshot~;
#X obj 90 430 snapshot~;
#X obj 266 134 *~;
#X msg 810 116 1;
#X obj 349 71 inlet~;
#X obj 367 377 delwrite~ \$0_peak 2;
#X obj 395 331 *~ 1;
#X obj 574 64 inlet;
#X obj 394 303 delread~ \$0_peak 0;
#X obj 356 244 max~;
#X obj 356 264 max~;
#X obj 356 286 max~;
#X obj 472 42 block~ 4 1;
#X obj 91 407 biquad~ 0.9997 0 0.000150014 0.000150014 0;
#X text 263 424 ~ 2 Hz cutoff;
#N canvas 449 92 340 235 z_chain 0;
#X obj 23 41 inlet~;
#X obj 51 112 outlet~;
#X obj 81 132 outlet~;
#X obj 111 154 outlet~;
#X obj 51 70 rzero_rev~ 0;
#X obj 81 90 rzero_rev~ 0;
#X obj 111 112 rzero_rev~ 0;
#X connect 0 0 4 0;
#X connect 4 0 1 0;
#X connect 4 0 5 0;
#X connect 5 0 2 0;
#X connect 5 0 6 0;
#X connect 6 0 3 0;
#X restore 391 222 pd z_chain;
#X obj 356 346 max~;
#X obj 810 72 inlet;
#X text 809 53 init-bang;
#X text 575 45 reset inner state;
#X msg 292 207 set 0 0;
#X obj 574 190 t b;
#X obj 809 174 metro 300;
#X obj 350 112 abs~;
#X msg 270 303 0;
#X msg 315 289 1;
#X obj 33 90 bang~;
#X obj 34 158 spigot 0;
#X msg 111 134 1;
#X msg 102 110 0;
#X obj 35 188 t b b;
#X obj 20 280 spigot 0;
#X msg 97 256 1;
#X msg 88 232 0;
#X obj 33 122 t b b;
#X obj 20 303 t b b;
#X obj 137 184 t b b b b;
#N canvas 471 266 263 296 release 0;
#X obj 54 196 outlet;
#X obj 49 42 inlet;
#X obj 50 88 t f b;
#X obj 80 115 f;
#X obj 55 160 max;
#X obj 80 139 * 0.8607;
#X obj 132 42 inlet;
#X msg 137 69 0;
#X connect 1 0 2 0;
#X connect 2 0 4 0;
#X connect 2 1 3 0;
#X connect 3 0 5 0;
#X connect 4 0 3 1;
#X connect 4 0 0 0;
#X connect 5 0 4 1;
#X connect 6 0 7 0;
#X connect 7 0 3 1;
#X restore 171 476 pd release;
#X text 254 478 2 sec release time;
#X obj 612 233 del 20;
#X connect 0 0 4 1;
#X connect 1 0 4 0;
#X connect 3 0 29 0;
#X connect 4 0 2 0;
#X connect 5 0 1 0;
#X connect 6 0 0 0;
#X connect 7 0 44 0;
#X connect 8 0 5 0;
#X connect 9 0 20 0;
#X connect 10 0 3 0;
#X connect 11 0 9 0;
#X connect 11 0 9 1;
#X connect 11 0 30 0;
#X connect 13 0 23 1;
#X connect 14 0 28 0;
#X connect 15 0 13 0;
#X connect 16 0 17 0;
#X connect 17 0 18 0;
#X connect 18 0 23 0;
#X connect 20 0 8 0;
#X connect 22 0 16 1;
#X connect 22 1 17 1;
#X connect 22 2 18 1;
#X connect 23 0 7 0;
#X connect 23 0 12 0;
#X connect 24 0 10 0;
#X connect 27 0 20 0;
#X connect 28 0 27 0;
#X connect 28 0 31 0;
#X connect 28 0 46 0;
#X connect 28 0 44 1;
#X connect 29 0 35 0;
#X connect 30 0 22 0;
#X connect 30 0 16 0;
#X connect 31 0 13 1;
#X connect 32 0 13 1;
#X connect 33 0 41 0;
#X connect 34 0 37 0;
#X connect 35 0 34 1;
#X connect 36 0 34 1;
#X connect 37 0 43 0;
#X connect 37 1 36 0;
#X connect 38 0 42 0;
#X connect 39 0 38 1;
#X connect 40 0 38 1;
#X connect 41 0 34 0;
#X connect 41 1 38 0;
#X connect 42 0 32 0;
#X connect 42 1 40 0;
#X connect 43 0 31 0;
#X connect 43 1 8 0;
#X connect 43 2 7 0;
#X connect 43 3 39 0;
#X connect 44 0 6 0;
#X connect 46 0 32 0;
