#N canvas 318 324 450 527 10;
#X obj 106 426 inlet result;
#X obj 107 405 outlet query;
#X obj 73 275 t a a;
#X obj 229 312 list split 1;
#X obj 73 317 list split 1;
#X obj 106 480 s;
#X obj 229 333 symbol;
#X obj 73 224 r \$1-query;
#X obj 106 448 list trim;
#X obj 107 377 list trim;
#X text 57 21 "server" abstraction for the "query" mechanism;
#X text 53 66 the singleton holds [queryhandler foo];
#X text 53 48 the instances hold [query foo];
#X text 52 95 an instance queries something from the singleton by sending
a message to [query foo];
#X text 51 124 this message goes out through the 'query' outlet of
[queryhandler foo]. the singleton calculates the answer and feeds it
back into the 'result' inlet of this object;
#X text 52 176 the result will then be output at the instance's [query
foo] object.;
#X connect 0 0 8 0;
#X connect 2 0 4 0;
#X connect 2 1 3 0;
#X connect 3 0 6 0;
#X connect 4 1 9 0;
#X connect 6 0 5 1;
#X connect 7 0 2 0;
#X connect 8 0 5 0;
#X connect 9 0 1 0;
