#N canvas 332 154 1074 683 10;
#X obj 74 519 outlet~;
#X text 144 520 output: delayed and filtered signal;
#X text 108 35 delay in ms;
#X text 112 25 reverb;
#X obj 407 50 inlet;
#X obj 756 212 t b f;
#X obj 737 263 * 0.001;
#X obj 675 212 t b f;
#X obj 656 263 * 0.001;
#X obj 599 213 t b f;
#X obj 580 264 * 0.001;
#X obj 576 319 * -60;
#X obj 668 322 * -60;
#X obj 756 317 * -60;
#X obj 564 514 outlet;
#X obj 111 52 inlet;
#X obj 407 116 unpack 0 0 0 0 0;
#X text 520 102 5.item: <float> high-decay-time in sec;
#X obj 756 296 / 1.5;
#X text 636 416 2.arg: <float> delay-time in ms;
#X text 636 405 1.arg: <symbol> delay-name;
#X obj 73 366 delread~ \$1 \$2;
#X obj 580 242 f \$2;
#X obj 656 241 f \$2;
#X obj 736 241 f \$2;
#X obj 756 340 min -0.0001;
#X obj 668 342 min -0.0001;
#X obj 575 342 min -0.0001;
#X obj 488 212 t b f;
#X obj 469 263 * 0.001;
#X obj 412 213 t b f;
#X obj 393 264 * 0.001;
#X obj 389 319 * -60;
#X obj 481 322 * -60;
#X obj 389 298 / 3;
#X obj 393 242 f \$2;
#X obj 469 241 f \$2;
#X obj 481 342 min -0.0001;
#X obj 388 342 min -0.0001;
#X obj 482 301 / 2.6;
#X obj 576 298 / 2.2;
#X obj 669 301 / 1.8;
#X text 520 91 4.item: <float> mid-high-decay-time in sec;
#X text 520 58 1.item: <float> low-decay-time in sec;
#X text 520 80 3.item: <float> mid-decay-time in sec;
#X text 520 69 2.item: <float> mid-low-decay-time in sec;
#X text 456 47 <list> with 5 items:;
#X obj 862 45 inlet;
#X text 862 27 init;
#X text 531 534 <list> with 5 items:;
#X obj 885 519 outlet;
#X text 889 539 init;
#X obj 74 450 ../core/5_band_eq~ -1 -2 -3 -4 -5;
#X obj 407 76 t l l;
#X obj 862 80 t b b b b b b b;
#X connect 4 0 53 0;
#X connect 5 0 24 0;
#X connect 5 1 18 1;
#X connect 6 0 18 0;
#X connect 7 0 23 0;
#X connect 7 1 41 1;
#X connect 8 0 41 0;
#X connect 9 0 22 0;
#X connect 9 1 40 1;
#X connect 10 0 40 0;
#X connect 11 0 27 0;
#X connect 12 0 26 0;
#X connect 13 0 25 0;
#X connect 15 0 21 0;
#X connect 15 0 22 0;
#X connect 15 0 23 0;
#X connect 15 0 24 0;
#X connect 15 0 35 0;
#X connect 15 0 36 0;
#X connect 16 0 30 0;
#X connect 16 1 28 0;
#X connect 16 2 9 0;
#X connect 16 3 7 0;
#X connect 16 4 5 0;
#X connect 18 0 13 0;
#X connect 21 0 52 0;
#X connect 22 0 10 0;
#X connect 23 0 8 0;
#X connect 24 0 6 0;
#X connect 25 0 52 5;
#X connect 26 0 52 4;
#X connect 27 0 52 3;
#X connect 28 0 36 0;
#X connect 28 1 39 1;
#X connect 29 0 39 0;
#X connect 30 0 35 0;
#X connect 30 1 34 1;
#X connect 31 0 34 0;
#X connect 32 0 38 0;
#X connect 33 0 37 0;
#X connect 34 0 32 0;
#X connect 35 0 31 0;
#X connect 36 0 29 0;
#X connect 37 0 52 2;
#X connect 38 0 52 1;
#X connect 39 0 33 0;
#X connect 40 0 11 0;
#X connect 41 0 12 0;
#X connect 47 0 54 0;
#X connect 52 0 0 0;
#X connect 53 0 14 0;
#X connect 53 1 16 0;
#X connect 54 0 50 0;
#X connect 54 1 35 0;
#X connect 54 2 36 0;
#X connect 54 3 22 0;
#X connect 54 4 23 0;
#X connect 54 5 24 0;
#X connect 54 6 52 6;
