#N canvas 374 310 500 463 10;
#X obj 45 57 inlet;
#X obj 138 112 f 0;
#X obj 169 113 + 1;
#X obj 202 112 mod 10;
#X obj 45 141 list prepend 0;
#X obj 45 87 t a b;
#X obj 45 165 route 0 1 2 3 4 5 6 7 8 9;
#X obj 45 367 outlet~;
#X obj 286 293 play-samp-start~;
#X obj 304 321 play-samp-start~;
#X obj 238 210 play-samp-start~;
#X obj 254 240 play-samp-start~;
#X obj 270 265 play-samp-start~;
#X obj 112 321 play-samp-start~;
#X obj 78 264 play-samp-start~;
#X obj 94 293 play-samp-start~;
#X obj 62 240 play-samp-start~;
#X obj 45 211 play-samp-start~;
#X connect 0 0 5 0;
#X connect 1 0 2 0;
#X connect 1 0 4 1;
#X connect 2 0 3 0;
#X connect 3 0 1 1;
#X connect 4 0 6 0;
#X connect 5 0 4 0;
#X connect 5 1 1 0;
#X connect 6 0 17 0;
#X connect 6 1 16 0;
#X connect 6 2 14 0;
#X connect 6 3 15 0;
#X connect 6 4 13 0;
#X connect 6 5 10 0;
#X connect 6 6 11 0;
#X connect 6 7 12 0;
#X connect 6 8 8 0;
#X connect 6 9 9 0;
#X connect 8 0 7 0;
#X connect 9 0 7 0;
#X connect 10 0 7 0;
#X connect 11 0 7 0;
#X connect 12 0 7 0;
#X connect 13 0 7 0;
#X connect 14 0 7 0;
#X connect 15 0 7 0;
#X connect 16 0 7 0;
#X connect 17 0 7 0;
