#N canvas 425 248 450 300 10;
#X obj 53 45 inlet;
#X obj 53 142 outlet;
#X obj 224 51 inlet selector;
#X obj 53 67 list split 1;
#X obj 53 111 list;
#N canvas 0 0 787 439 anyselect 0;
#X obj 167 331 outlet;
#X obj 240 89 inlet myID;
#X obj 58 81 inlet ID;
#X obj 58 257 select;
#X obj 167 265 select "";
#X obj 167 307 t b;
#X obj 281 333 outlet reject;
#X obj 240 111 list split 1;
#X text 64 24 selects both numbers and symbols;
#X obj 58 133 t a a;
#X obj 58 225 spigot 1;
#X obj 167 229 spigot 0;
#X obj 240 153 t f b;
#X msg 272 175 0;
#X obj 240 131 route float symbol;
#X obj 301 153 t s b;
#X msg 333 175 1;
#X obj 272 197 t f;
#X obj 146 109 t f f;
#X obj 146 131 == 0;
#X obj 180 131 != 0;
#X obj 58 103 list;
#X text 379 43 arguments: none;
#X text 386 94 inlet1: the atom to compare with the test_value;
#X text 385 71 inlet2: test_value (number or symbol);
#X floatatom 272 219 5 0 0 0 - - -;
#X connect 1 0 7 0;
#X connect 2 0 21 0;
#X connect 3 0 5 0;
#X connect 3 1 6 0;
#X connect 4 0 5 0;
#X connect 4 1 6 0;
#X connect 5 0 0 0;
#X connect 7 0 14 0;
#X connect 9 0 10 0;
#X connect 9 1 11 0;
#X connect 10 0 3 0;
#X connect 11 0 4 0;
#X connect 12 0 3 1;
#X connect 12 1 13 0;
#X connect 13 0 17 0;
#X connect 14 0 12 0;
#X connect 14 1 15 0;
#X connect 15 0 4 1;
#X connect 15 1 16 0;
#X connect 16 0 17 0;
#X connect 17 0 18 0;
#X connect 17 0 25 0;
#X connect 18 0 19 0;
#X connect 18 1 20 0;
#X connect 19 0 10 1;
#X connect 20 0 11 1;
#X connect 21 0 9 0;
#X restore 53 89 pd anyselect;
#X connect 0 0 3 0;
#X connect 2 0 5 1;
#X connect 3 0 5 0;
#X connect 3 1 4 1;
#X connect 4 0 1 0;
#X connect 5 0 4 0;
