#N canvas 215 231 799 612 10;
#X obj 71 370 outlet~;
#X obj 126 75 inlet~;
#X obj 54 75 inlet~;
#X obj 435 71 inlet;
#X obj 467 279 sin;
#X obj 512 188 expr 2*atan(1);
#X obj 374 276 cos;
#X obj 467 300 clip 0 1;
#X obj 374 298 clip 0 1;
#X obj 435 212 * 1.5708;
#X obj 73 299 +~;
#X text 354 423 The signal will be mixed by multiplying with the first
quater of a sine resp. cosine wave. That means in the middle (with
0.5) there will be -3 dB on wet and ond dry signal.;
#X text 610 184 pi/2;
#X obj 549 72 inlet;
#X text 520 52 interpolation time in ms;
#X obj 435 177 clip 0 1;
#X obj 231 370 outlet~;
#X obj 233 299 +~;
#X text 42 55 left signal;
#X text 131 55 right signal;
#X text 72 390 left signal;
#X text 220 392 right signal;
#X text 333 41 0:left->left \, right->right;
#X text 333 52 1:left->right \, right->left;
#X obj 54 215 line_mul~ 0.7 20;
#X obj 126 162 line_mul~ 0.7 20;
#X obj 214 215 line_mul~ 0.7 20;
#X obj 286 162 line_mul~ 0.7 20;
#X obj 717 63 inlet;
#X text 716 44 init-bang;
#X obj 716 86 t b b;
#X connect 1 0 25 0;
#X connect 1 0 27 0;
#X connect 2 0 24 0;
#X connect 2 0 26 0;
#X connect 3 0 15 0;
#X connect 4 0 7 0;
#X connect 5 0 9 1;
#X connect 6 0 8 0;
#X connect 7 0 25 1;
#X connect 7 0 26 1;
#X connect 8 0 24 1;
#X connect 8 0 27 1;
#X connect 9 0 4 0;
#X connect 9 0 6 0;
#X connect 10 0 0 0;
#X connect 13 0 24 2;
#X connect 13 0 25 2;
#X connect 13 0 26 2;
#X connect 13 0 27 2;
#X connect 15 0 9 0;
#X connect 17 0 16 0;
#X connect 24 0 10 0;
#X connect 25 0 10 1;
#X connect 26 0 17 0;
#X connect 27 0 17 1;
#X connect 28 0 30 0;
#X connect 30 0 5 0;
#X connect 30 1 27 3;
#X connect 30 1 26 3;
#X connect 30 1 25 3;
#X connect 30 1 24 3;
