#N canvas 644 728 450 300 10;
#X obj 170 174 &&;
#X obj 170 208 pack f s s;
#X obj 170 238 route 1;
#X obj 169 76 t b a;
#X msg 169 111 1;
#X msg 194 111 1;
#X obj 209 77 t b a;
#X msg 244 41 symbol bar;
#X msg 169 42 symbol foo;
#X obj 170 146 f;
#X obj 195 147 t b a;
#X obj 170 10 inlet;
#X obj 210 7 inlet;
#X obj 170 275 outlet;
#X connect 0 0 1 0;
#X connect 1 0 2 0;
#X connect 2 0 13 0;
#X connect 3 0 4 0;
#X connect 3 1 1 1;
#X connect 4 0 9 0;
#X connect 5 0 10 0;
#X connect 6 0 5 0;
#X connect 6 1 1 2;
#X connect 7 0 6 0;
#X connect 8 0 3 0;
#X connect 9 0 0 0;
#X connect 10 0 9 0;
#X connect 10 1 0 1;
#X connect 11 0 3 0;
#X connect 12 0 6 0;
