#N canvas 200 344 890 300 10;
#X obj 153 100 inlet bang;
#X obj 153 254 outlet tempdir;
#X obj 216 143 integra/generics/query tempdir;
#X text 90 70 query the tempdir from the integra/TempDir module;
#X obj 153 214 symbol /tmp;
#X obj 153 122 t b b;
#X text 238 215 <-- this defaults to something useful \, to allow development
of modules outside of a running IntegraLive instance;
#X obj 216 165 symbol;
#X connect 0 0 5 0;
#X connect 2 0 7 0;
#X connect 4 0 1 0;
#X connect 5 0 4 0;
#X connect 5 1 2 0;
#X connect 7 0 4 1;
