#N canvas 213 156 852 572 10;
#X obj 63 62 inlet;
#X obj 255 61 inlet;
#X obj 65 545 outlet;
#X obj 427 540 outlet;
#X obj 63 93 route bang seed clear;
#X msg 256 109 resize \$1;
#X obj 256 87 clip 1 1e+08;
#X obj 120 287 until;
#X obj 120 308 f;
#X obj 192 320 + 1;
#X obj 78 177 random \$1;
#X msg 93 149 seed \$1;
#X obj 366 100 table \$0-urn \$1;
#X obj 319 274 s \$0-urn;
#X obj 193 285 moses \$1;
#X msg 154 236 0;
#X obj 247 313 t b;
#X obj 113 410 tabread \$0-urn;
#X msg 325 246 const 1;
#X obj 324 224 t b b;
#X obj 370 445 + 1;
#X obj 371 410 moses \$1;
#X obj 44 149 t b b;
#X obj 298 433 f 0;
#X obj 407 496 t b b;
#X obj 124 522 tabwrite \$0-urn;
#X msg 123 499 0 \$1;
#X obj 113 360 % \$1;
#X obj 113 337 +;
#X obj 77 210 t f b b f;
#X obj 113 433 sel 1;
#X obj 113 385 t f f;
#X obj 113 455 f;
#X obj 90 477 t f f b;
#X obj 371 469 sel \$1;
#X obj 401 222 t b b;
#X msg 335 389 0;
#X msg 300 391 -1;
#X obj 562 58 inlet;
#X text 563 39 init;
#X connect 0 0 4 0;
#X connect 1 0 6 0;
#X connect 4 0 22 0;
#X connect 4 1 11 0;
#X connect 4 2 19 0;
#X connect 5 0 13 0;
#X connect 6 0 5 0;
#X connect 6 0 10 1;
#X connect 6 0 14 1;
#X connect 6 0 27 1;
#X connect 7 0 8 0;
#X connect 8 0 14 0;
#X connect 9 0 8 1;
#X connect 10 0 29 0;
#X connect 11 0 10 0;
#X connect 14 0 9 0;
#X connect 14 0 28 0;
#X connect 14 1 16 0;
#X connect 15 0 8 1;
#X connect 16 0 7 1;
#X connect 17 0 30 0;
#X connect 18 0 13 0;
#X connect 19 0 18 0;
#X connect 19 1 37 0;
#X connect 20 0 23 1;
#X connect 20 0 34 0;
#X connect 21 0 20 0;
#X connect 22 0 10 0;
#X connect 22 1 23 0;
#X connect 23 0 21 0;
#X connect 24 0 3 0;
#X connect 24 1 35 0;
#X connect 26 0 25 0;
#X connect 27 0 31 0;
#X connect 28 0 27 0;
#X connect 29 1 7 0;
#X connect 29 2 15 0;
#X connect 29 3 28 1;
#X connect 30 0 32 0;
#X connect 31 0 17 0;
#X connect 31 1 32 1;
#X connect 32 0 33 0;
#X connect 33 0 2 0;
#X connect 33 1 26 0;
#X connect 33 2 7 1;
#X connect 34 0 24 0;
#X connect 35 0 18 0;
#X connect 35 1 36 0;
#X connect 36 0 23 1;
#X connect 37 0 23 1;
#X connect 38 0 19 0;
