#N canvas 533 353 450 300 10;
#X obj 104 51 r \$1-receive;
#X obj 104 196 s \$1-send;
#X obj 104 121 bng 20 250 50 0 empty empty empty 17 7 0 10 -261234
-1 -1;
#X msg 104 171 list bang;
#X connect 0 0 2 0;
#X connect 2 0 3 0;
#X connect 3 0 1 0;
#X coords 0 -1 1 1 100 50 2 100 100;
