#N canvas 59 171 1085 600 10;
#N canvas 52 306 224 301 host 0;
#X obj -361 8 r integra;
#X msg -359 88 \; pd dsp 1;
#X obj -359 62 loadbang;
#N canvas 486 250 435 353 integra-canvas 0;
#X obj 127 103 adc~ 1 2 3 4 5 6 7 8;
#X obj 127 166 DummyStereoProcessor 1;
#X obj 127 224 dac~ 1 2 3 4 5 6 7 8;
#X connect 0 0 1 0;
#X connect 0 1 1 1;
#X connect 1 0 2 0;
#X connect 1 1 2 1;
#X restore -359 155 pd integra-canvas;
#X obj -357 187 r integra-broadcast-receive;
#X obj -361 33 print to_server;
#X obj -357 238 print to_module;
#X obj -357 211 route 1;
#X connect 0 0 5 0;
#X connect 2 0 1 0;
#X connect 4 0 7 0;
#X connect 7 0 6 0;
#X restore 24 12 pd host;
#X obj 83 13 cnv 15 150 15 empty empty empty 20 12 0 14 -261234 -66577
0;
#X text 87 12 Toggle Audio On / Off;
#X obj 83 36 cnv 15 60 60 empty empty empty 20 12 0 14 -228856 -66577
0;
#X obj 93 46 tgl 40 0 empty empty empty 17 7 0 40 -262144 -1 -1 0 1
;
#X msg 93 107 \; pd dsp \$1;
#X msg 254 107 \; pd-DummyStereoProcessor.pd vis \$1;
#X obj 244 13 cnv 15 150 15 empty empty empty 20 12 0 14 -261234 -66577
0;
#X obj 244 34 cnv 15 60 60 empty empty empty 20 12 0 14 -228856 -66577
0;
#X obj 254 44 tgl 40 1 empty empty empty 17 7 0 40 -262144 -1 -1 1
1;
#X text 248 12 Show / Hide Module;
#X obj 500 12 cnv 15 150 15 empty empty empty 20 12 0 14 -261234 -66577
0;
#X text 504 11 Test Module Parameters;
#X obj 708 34 send-value bang parameterThree bang;
#X obj 500 34 send-value float parameterOne 1.22;
#X obj 604 34 send-value symbol parameterTwo Hello;
#X obj 812 34 send-value float parameterFour 0.1;
#X obj 916 34 send-value float parameterFive 0.3;
#X obj 500 88 send-value float parameterSix 0.1;
#X connect 4 0 5 0;
#X connect 9 0 6 0;
