#N canvas 146 103 401 630 10;
#X obj 106 312 s integra-broadcast-receive;
#X obj 102 -177 loadbang;
#X msg 106 266 1 \$1 \$2;
#X obj 102 26 \$1 \$3;
#X obj 106 220 list prepend \$2;
#X obj 102 55 s \$0-receive;
#X obj 106 174 r \$0-send;
#X obj 255 -55 s \$0-param;
#X msg 255 -77 label \$1;
#X obj 255 -104 symbol \$2;
#X obj 100 100 cnv 15 100 50 empty \$0-param parameterThree 2 11 1
12 -233017 -66577 0;
#X obj 100 100 \$1-box \$0;
#X msg 121 -33 range \$1 \$2;
#X obj 121 -104 pack \$1 \$4 \$5;
#X obj 102 -153 t b b b;
#X obj 208 -34 !=;
#X obj 121 -10 spigot;
#X obj 121 -80 route 0;
#X obj 121 -59 t a a;
#X connect 1 0 14 0;
#X connect 2 0 0 0;
#X connect 3 0 5 0;
#X connect 4 0 2 0;
#X connect 6 0 4 0;
#X connect 8 0 7 0;
#X connect 9 0 8 0;
#X connect 12 0 16 0;
#X connect 13 0 17 0;
#X connect 14 0 3 0;
#X connect 14 1 13 0;
#X connect 14 2 9 0;
#X connect 15 0 16 1;
#X connect 16 0 5 0;
#X connect 17 0 18 0;
#X connect 18 0 12 0;
#X connect 18 1 15 0;
#X coords 0 -1 1 1 100 50 2 100 100;
