#N canvas 81 212 432 225 10;
#X obj 60 95 cnv 10 135 10 empty empty empty 20 12 0 14 -261682 -66577
0;
#X obj 59 41 inlet~;
#X obj 59 147 outlet~;
#X obj 104 41 handlers/ntg_receive \$1;
#X obj 194 147 handlers/ntg_send \$1;
#N canvas 580 67 424 405 mono_processor______ 1;
#X obj 17 24 inlet~;
#X obj 17 324 outlet~;
#X obj 82 283 switch~;
#X obj 126 24 inlet;
#X obj 249 24 inlet;
#X text 247 6 named parameter-messages;
#X text 122 6 init-bang;
#X obj 188 24 inlet;
#X text 184 6 fini-bang;
#X obj 17 195 handlers/mono_post_processor \$0 _;
#X obj 17 242 handlers/mono_module \$0 _________;
#X obj 237 324 outlet;
#N canvas 200 277 828 318 module_implementation_ 0;
#X obj 393 39 inlet;
#X obj 30 39 inlet~;
#X obj 30 240 outlet~;
#X obj 173 39 inlet;
#X obj 510 240 outlet;
#X text 393 22 route parameters;
#X text 506 260 rejected parameters;
#X text 29 22 from pre-processor;
#X text 27 260 to post-processor;
#X obj 174 240 outlet;
#X obj 173 77 t b b;
#X obj 309 39 inlet;
#X text 306 22 fini-bang;
#X obj 668 240 outlet;
#X text 664 260 outgoing parameters;
#X obj 393 77 route parameter here;
#X obj 668 204 list prepend parameter;
#X text 169 22 from prev init-bang;
#X text 170 260 to next init-bang;
#X connect 0 0 15 0;
#X connect 3 0 10 0;
#X connect 10 0 9 0;
#X connect 15 2 4 0;
#X connect 16 0 13 0;
#X restore 90 146 pd module_implementation_;
#X obj 17 104 handlers/mono_pre_processor \$0 ______;
#X connect 0 0 13 0;
#X connect 3 0 13 1;
#X connect 4 0 13 2;
#X connect 7 0 12 2;
#X connect 9 0 10 0;
#X connect 9 1 10 1;
#X connect 9 2 10 2;
#X connect 10 0 1 0;
#X connect 10 1 2 0;
#X connect 12 0 9 1;
#X connect 12 1 9 2;
#X connect 12 2 9 3;
#X connect 12 3 11 0;
#X connect 13 0 9 0;
#X connect 13 1 12 0;
#X connect 13 2 12 1;
#X connect 13 3 12 3;
#X restore 59 92 pd mono_processor______;
#X connect 1 0 5 0;
#X connect 3 0 5 1;
#X connect 3 1 5 2;
#X connect 3 2 5 3;
#X connect 5 0 2 0;
#X connect 5 1 4 0;
