#N canvas 511 212 241 253 10;
#X obj 49 37 handlers/ntg_receive \$1;
#X obj 49 198 outlet~;
#N canvas 752 48 436 426 mono_generator 0;
#X obj 43 70 inlet;
#X obj 43 355 outlet~;
#X obj 250 72 inlet;
#X text 250 55 named parameter-messages;
#X text 43 53 init-bang;
#X obj 108 305 switch~;
#X obj 43 240 handlers/mono_module \$0 _________;
#X obj 146 71 inlet;
#X text 146 54 fini-bang;
#X obj 43 197 handlers/mono_generator \$0 ______;
#X obj 250 305 handlers/ntg_send \$1;
#N canvas 180 161 790 405 module_implementation___________ 0;
#X obj 65 339 outlet~;
#X obj 355 35 inlet;
#X obj 214 35 inlet;
#X text 211 16 init-bang;
#X text 352 16 named parameters;
#X obj 355 82 route parameters here;
#X obj 476 339 outlet;
#X text 474 358 rejected parameters;
#X obj 616 339 outlet;
#X text 612 358 outgoing parameters;
#X obj 616 312 list prepend parameter;
#X text 65 358 to post-processor;
#X obj 215 339 outlet;
#X obj 214 82 t b b;
#X obj 282 35 inlet;
#X text 279 16 fini-bang;
#X text 215 358 to next init-bang;
#X connect 1 0 5 0;
#X connect 2 0 13 0;
#X connect 5 2 6 0;
#X connect 10 0 8 0;
#X connect 13 0 12 0;
#X restore 43 156 pd module_implementation___________;
#X connect 0 0 11 0;
#X connect 2 0 11 2;
#X connect 6 0 1 0;
#X connect 6 1 5 0;
#X connect 7 0 11 1;
#X connect 9 0 6 0;
#X connect 9 1 6 1;
#X connect 9 2 6 2;
#X connect 11 0 9 0;
#X connect 11 1 9 1;
#X connect 11 2 9 2;
#X connect 11 3 10 0;
#X restore 49 105 pd mono_generator _____;
#X connect 0 0 2 0;
#X connect 0 1 2 1;
#X connect 0 2 2 2;
#X connect 2 0 1 0;
