#N canvas 375 39 475 221 10;
#X obj 160 152 outlet~;
#X obj 24 43 inlet~;
#X obj 24 154 outlet~;
#X obj 115 45 handlers/ntg_receive \$1;
#X obj 297 150 handlers/ntg_send \$1;
#N canvas 471 226 461 395 one_in_two_out_processor___________________
0;
#X obj 28 35 inlet~;
#X obj 28 328 outlet~;
#X obj 131 280 switch~;
#X obj 79 328 outlet~;
#X obj 125 35 inlet;
#X obj 287 35 inlet;
#X text 287 18 named parameter-messages;
#X text 120 18 init-bang;
#X obj 216 35 inlet;
#X text 211 18 fini-bang;
#N canvas 152 306 959 334 edit_implementation_here 0;
#X obj 493 39 inlet;
#X obj 85 39 inlet~;
#X obj 30 240 outlet~;
#X obj 273 39 inlet;
#X obj 610 240 outlet;
#X text 493 21 route parameters;
#X text 606 260 rejected parameters;
#X text 60 21 from pre-processor;
#X text 50 270 to post-processor;
#X obj 274 240 outlet;
#X obj 273 151 t b b;
#X obj 409 39 inlet;
#X text 406 21 fini-bang;
#X obj 768 240 outlet;
#X text 764 260 outgoing parameters;
#X obj 493 76 route parameter here;
#X obj 768 204 list prepend parameter;
#X text 269 21 from prev init-bang;
#X text 270 260 to next init-bang;
#X obj 131 240 outlet~;
#X text 37 259 left;
#X text 141 257 right;
#X connect 0 0 15 0;
#X connect 3 0 10 0;
#X connect 10 0 9 0;
#X connect 15 2 4 0;
#X connect 16 0 13 0;
#X restore 110 150 pd edit_implementation_here;
#X obj 28 104 handlers/mono_pre_processor \$0 __;
#X obj 269 328 outlet;
#X obj 28 242 handlers/stereo_module \$0 _________;
#X obj 28 195 handlers/stereo_post_processor \$0 _;
#X connect 0 0 11 0;
#X connect 4 0 11 1;
#X connect 5 0 11 2;
#X connect 8 0 10 2;
#X connect 10 0 14 2;
#X connect 10 1 14 3;
#X connect 10 2 14 4;
#X connect 10 3 14 5;
#X connect 10 4 12 0;
#X connect 11 0 14 0;
#X connect 11 0 14 1;
#X connect 11 1 10 0;
#X connect 11 2 10 1;
#X connect 11 3 10 3;
#X connect 13 0 1 0;
#X connect 13 1 3 0;
#X connect 13 2 2 0;
#X connect 14 0 13 0;
#X connect 14 1 13 1;
#X connect 14 2 13 2;
#X connect 14 3 13 3;
#X restore 24 98 pd one_in_two_out_processor___________________;
#X connect 1 0 5 0;
#X connect 3 0 5 1;
#X connect 3 1 5 2;
#X connect 3 2 5 3;
#X connect 5 0 2 0;
#X connect 5 1 0 0;
#X connect 5 2 4 0;
