#N canvas 375 39 456 221 10;
#X obj 99 153 outlet~;
#X obj 30 42 inlet~;
#X obj 30 153 outlet~;
#X obj 123 43 handlers/ntg_receive \$1;
#X obj 309 153 handlers/ntg_send \$1;
#N canvas 580 67 494 405 one_in_four_out_processor___________________
0;
#X obj 56 30 inlet~;
#X obj 56 345 outlet~;
#X obj 186 279 switch~;
#X obj 107 345 outlet~;
#X obj 153 30 inlet;
#X obj 320 30 inlet;
#X text 318 13 named parameter-messages;
#X text 149 13 init-bang;
#X obj 248 30 inlet;
#X text 244 13 fini-bang;
#N canvas 130 177 1005 334 edit_implementation_here 0;
#X obj 528 39 inlet;
#X obj 30 39 inlet~;
#X obj 30 240 outlet~;
#X obj 308 39 inlet;
#X obj 645 240 outlet;
#X text 528 22 route parameters;
#X text 641 260 rejected parameters;
#X text 29 22 from pre-processor;
#X text 78 268 to post-processor;
#X obj 309 240 outlet;
#X obj 308 151 t b b;
#X obj 444 39 inlet;
#X text 441 22 fini-bang;
#X obj 803 240 outlet;
#X text 799 260 outgoing parameters;
#X obj 528 76 route parameter here;
#X obj 803 204 list prepend parameter;
#X text 304 22 from prev init-bang;
#X text 305 260 to next init-bang;
#X obj 81 240 outlet~;
#X obj 132 240 outlet~;
#X obj 183 240 outlet~;
#X text 46 256 1;
#X text 98 256 2;
#X text 146 256 3;
#X text 201 256 4;
#X connect 0 0 15 0;
#X connect 3 0 10 0;
#X connect 10 0 9 0;
#X connect 15 2 4 0;
#X connect 16 0 13 0;
#X restore 142 149 pd edit_implementation_here;
#X obj 56 95 handlers/mono_pre_processor \$0 __;
#X obj 56 202 handlers/quad_post_processor \$0 _;
#X obj 56 249 handlers/quad_module \$0 _________;
#X obj 158 345 outlet~;
#X obj 209 345 outlet~;
#X obj 301 345 outlet;
#X connect 0 0 11 0;
#X connect 4 0 11 1;
#X connect 5 0 11 2;
#X connect 8 0 10 2;
#X connect 10 0 12 4;
#X connect 10 1 12 5;
#X connect 10 2 12 6;
#X connect 10 3 12 7;
#X connect 10 4 12 8;
#X connect 10 5 12 9;
#X connect 10 6 16 0;
#X connect 11 0 12 0;
#X connect 11 0 12 1;
#X connect 11 0 12 2;
#X connect 11 0 12 3;
#X connect 11 1 10 0;
#X connect 11 2 10 1;
#X connect 12 0 13 0;
#X connect 12 1 13 1;
#X connect 12 2 13 2;
#X connect 12 3 13 3;
#X connect 12 4 13 4;
#X connect 12 5 13 5;
#X connect 13 0 1 0;
#X connect 13 1 3 0;
#X connect 13 2 14 0;
#X connect 13 3 15 0;
#X connect 13 4 2 0;
#X restore 30 97 pd one_in_four_out_processor___________________;
#X obj 239 153 outlet~;
#X obj 169 153 outlet~;
#X connect 1 0 5 0;
#X connect 3 0 5 1;
#X connect 3 1 5 2;
#X connect 3 2 5 3;
#X connect 5 0 2 0;
#X connect 5 1 0 0;
#X connect 5 2 7 0;
#X connect 5 3 6 0;
#X connect 5 4 4 0;
