#N canvas 564 140 250 231 10;
#X obj 21 24 handlers/ntg_receive \$1;
#X obj 21 185 outlet~;
#N canvas 239 194 467 395 quad_generator 0;
#X obj 36 58 inlet;
#X obj 36 336 outlet~;
#X obj 291 58 inlet;
#X text 286 41 named parameter-messages;
#X text 33 41 init-bang;
#X obj 178 285 switch~;
#X obj 162 58 inlet;
#X text 159 41 fini-bang;
#X obj 291 284 handlers/ntg_send \$1;
#X obj 87 336 outlet~;
#X obj 139 336 outlet~;
#X obj 190 336 outlet~;
#N canvas 249 40 790 405 module_implementation___________________ 0
;
#X obj 16 346 outlet~;
#X obj 376 32 inlet;
#X obj 230 32 inlet;
#X text 227 14 init-bang;
#X text 376 14 named parameters;
#X obj 376 79 route parameters here;
#X obj 499 346 outlet;
#X text 499 363 rejected parameters;
#X obj 635 346 outlet;
#X text 633 363 outgoing parameters;
#X obj 635 312 list prepend parameter;
#X obj 230 346 outlet;
#X obj 230 79 t b b;
#X obj 303 32 inlet;
#X text 300 14 fini-bang;
#X obj 65 346 outlet~;
#X obj 114 346 outlet~;
#X obj 163 346 outlet~;
#X text 228 363 to next init-bang;
#X connect 1 0 5 0;
#X connect 2 0 12 0;
#X connect 5 2 6 0;
#X connect 10 0 8 0;
#X connect 12 0 11 0;
#X restore 36 146 pd module_implementation___________________;
#X obj 36 187 handlers/quad_generator \$0 _________;
#X obj 36 230 handlers/quad_module \$0 ____________;
#X connect 0 0 12 0;
#X connect 2 0 12 2;
#X connect 6 0 12 1;
#X connect 12 0 13 0;
#X connect 12 1 13 1;
#X connect 12 2 13 2;
#X connect 12 3 13 3;
#X connect 12 4 13 4;
#X connect 12 5 13 5;
#X connect 12 6 8 0;
#X connect 13 0 14 0;
#X connect 13 1 14 1;
#X connect 13 2 14 2;
#X connect 13 3 14 3;
#X connect 13 4 14 4;
#X connect 13 5 14 5;
#X connect 14 0 1 0;
#X connect 14 1 9 0;
#X connect 14 2 10 0;
#X connect 14 3 11 0;
#X connect 14 4 5 0;
#X restore 21 92 pd quad_generator _____;
#X obj 75 185 outlet~;
#X obj 129 185 outlet~;
#X obj 183 185 outlet~;
#X connect 0 0 2 0;
#X connect 0 1 2 1;
#X connect 0 2 2 2;
#X connect 2 0 1 0;
#X connect 2 1 3 0;
#X connect 2 2 4 0;
#X connect 2 3 5 0;
