#N canvas 375 39 475 221 10;
#X obj 80 43 inlet~;
#X obj 24 43 inlet~;
#X obj 24 154 outlet~;
#X obj 136 43 handlers/ntg_receive \$1;
#N canvas 580 67 458 405 stereo_processor___________________ 0;
#X obj 25 36 inlet~;
#X obj 25 344 outlet~;
#X obj 90 304 switch~;
#X obj 94 36 inlet~;
#X obj 162 36 inlet;
#X obj 295 36 inlet;
#X text 292 19 named parameter-messages;
#X text 159 19 init-bang;
#X obj 25 119 handlers/stereo_pre_processor \$0 __;
#X obj 226 36 inlet;
#X text 223 19 fini-bang;
#N canvas 271 137 859 334 edit_implementation_here 0;
#X obj 393 39 inlet;
#X obj 30 39 inlet~;
#X obj 30 240 outlet~;
#X obj 173 39 inlet;
#X obj 510 240 outlet;
#X text 393 22 route parameters;
#X text 506 260 rejected parameters;
#X text 33 9 from pre-processor;
#X text 27 260 to post-processor;
#X obj 173 240 outlet;
#X obj 173 151 t b b;
#X obj 309 39 inlet;
#X text 306 22 fini-bang;
#X obj 668 240 outlet;
#X text 664 260 outgoing parameters;
#X obj 393 76 route parameter here;
#X obj 668 204 list prepend parameter;
#X text 169 22 from prev init-bang;
#X text 169 260 to next init-bang;
#X obj 99 39 inlet~;
#X text 36 22 left;
#X text 104 22 right;
#X connect 0 0 15 0;
#X connect 3 0 10 0;
#X connect 10 0 9 0;
#X connect 15 2 4 0;
#X connect 16 0 13 0;
#X restore 107 166 pd edit_implementation_here;
#X obj 266 348 outlet;
#X obj 25 210 handlers/mono_post_processor \$0 _;
#X obj 25 257 handlers/mono_module \$0 _________;
#X connect 0 0 8 0;
#X connect 3 0 8 1;
#X connect 4 0 8 2;
#X connect 5 0 8 3;
#X connect 8 0 13 0;
#X connect 8 1 13 0;
#X connect 8 2 11 0;
#X connect 8 3 11 1;
#X connect 8 4 11 2;
#X connect 8 5 11 4;
#X connect 9 0 11 3;
#X connect 11 0 13 1;
#X connect 11 1 13 2;
#X connect 11 2 13 3;
#X connect 11 3 12 0;
#X connect 13 0 14 0;
#X connect 13 1 14 1;
#X connect 13 2 14 2;
#X connect 14 0 1 0;
#X connect 14 1 2 0;
#X restore 24 98 pd stereo_processor___________________;
#X obj 249 152 handlers/ntg_send \$1;
#X connect 0 0 4 1;
#X connect 1 0 4 0;
#X connect 3 0 4 2;
#X connect 3 1 4 3;
#X connect 3 2 4 4;
#X connect 4 0 2 0;
#X connect 4 1 5 0;
