#N canvas 0 22 350 333 10;
#X obj 200 14 ../externals/zexy/zexy;
#X obj 165 210 env~ 22050;
#X obj 165 236 < 100;
#X obj 56 259 outlet~;
#X obj 165 261 outlet;
#X text 216 261 detect limiting;
#X obj 231 145 limiter~ 50;
#X obj 57 238 *~;
#X obj 56 53 inlet~;
#X obj 56 136 delwrite~ \$0-del 64;
#X obj 56 160 delread~ \$0-del 64;
#X connect 1 0 2 0;
#X connect 2 0 4 0;
#X connect 6 0 1 0;
#X connect 6 0 7 1;
#X connect 7 0 3 0;
#X connect 8 0 6 0;
#X connect 8 0 9 0;
#X connect 10 0 7 0;
