#N canvas 0 0 450 300 10;
#X obj 105 173 del \$1;
#X obj 240 105 r stop_delays;
#X obj 105 63 inlet;
#X msg 240 130 stop;
#X obj 144 100 inlet;
#X obj 105 242 outlet;
#X connect 0 0 5 0;
#X connect 1 0 3 0;
#X connect 2 0 0 0;
#X connect 3 0 0 0;
#X connect 4 0 0 1;
