#N canvas 591 235 631 539 10;
#X obj 280 13 inlet;
#N canvas 60 161 988 329 fx-4in1-matrix 0;
#X obj 11 -74 inlet~;
#X obj 695 -224 inlet;
#X text 737 -224 OSC;
#X obj 77 -33 *~;
#X obj 96 -73 line~;
#X obj 96 -135 unpack f f;
#X obj 96 -114 dbtorms;
#X obj 96 -93 pack f f;
#X obj 242 -33 *~;
#X obj 261 -73 line~;
#X obj 261 -135 unpack f f;
#X obj 261 -114 dbtorms;
#X obj 261 -93 pack f f;
#X obj 412 -33 *~;
#X obj 431 -73 line~;
#X obj 431 -135 unpack f f;
#X obj 431 -114 dbtorms;
#X obj 431 -93 pack f f;
#X obj 592 -33 *~;
#X obj 611 -73 line~;
#X obj 611 -135 unpack f f;
#X obj 611 -114 dbtorms;
#X obj 611 -93 pack f f;
#X obj 199 -72 inlet~;
#X obj 375 -72 inlet~;
#X obj 557 -72 inlet~;
#X obj 412 51 outlet~;
#X obj 335 -182 routeOSC /in1 /in2 /in3 /in4;
#X connect 0 0 3 0;
#X connect 1 0 27 0;
#X connect 3 0 26 0;
#X connect 4 0 3 1;
#X connect 5 0 6 0;
#X connect 5 1 7 1;
#X connect 6 0 7 0;
#X connect 7 0 4 0;
#X connect 8 0 26 0;
#X connect 9 0 8 1;
#X connect 10 0 11 0;
#X connect 10 1 12 1;
#X connect 11 0 12 0;
#X connect 12 0 9 0;
#X connect 13 0 26 0;
#X connect 14 0 13 1;
#X connect 15 0 16 0;
#X connect 15 1 17 1;
#X connect 16 0 17 0;
#X connect 17 0 14 0;
#X connect 18 0 26 0;
#X connect 19 0 18 1;
#X connect 20 0 21 0;
#X connect 20 1 22 1;
#X connect 21 0 22 0;
#X connect 22 0 19 0;
#X connect 23 0 8 0;
#X connect 24 0 13 0;
#X connect 25 0 18 0;
#X connect 27 0 5 0;
#X connect 27 1 10 0;
#X connect 27 2 15 0;
#X connect 27 3 20 0;
#X restore 35 254 pd fx-4in1-matrix;
#X obj 396 202 t a a;
#X obj 36 44 r~ in_sop1;
#X obj 63 69 r~ in_sop2;
#X obj 92 94 r~ in_mez;
#X obj 122 125 r~ in_bary;
#X obj 330 446 i;
#X obj 330 471 outlet;
#X obj 34 353 i;
#X obj 34 378 outlet;
#X obj 280 40 routeOSC /deltime;
#N canvas 0 22 997 299 fx-1out8-matrix1 0;
#X obj 10 -54 inlet~;
#X obj 320 -190 inlet;
#X text 362 -190 OSC;
#X obj 76 -13 *~;
#X obj 95 -53 line~;
#X obj 95 -115 unpack f f;
#X obj 95 -94 dbtorms;
#X obj 95 -73 pack f f;
#X obj 186 -13 *~;
#X obj 205 -53 line~;
#X obj 205 -115 unpack f f;
#X obj 205 -94 dbtorms;
#X obj 205 -73 pack f f;
#X obj 296 -13 *~;
#X obj 315 -53 line~;
#X obj 315 -115 unpack f f;
#X obj 315 -94 dbtorms;
#X obj 315 -73 pack f f;
#X obj 406 -13 *~;
#X obj 425 -53 line~;
#X obj 425 -115 unpack f f;
#X obj 425 -94 dbtorms;
#X obj 425 -73 pack f f;
#X obj 516 -13 *~;
#X obj 535 -53 line~;
#X obj 535 -115 unpack f f;
#X obj 535 -94 dbtorms;
#X obj 535 -73 pack f f;
#X obj 626 -13 *~;
#X obj 645 -53 line~;
#X obj 645 -115 unpack f f;
#X obj 645 -94 dbtorms;
#X obj 645 -73 pack f f;
#X obj 736 -13 *~;
#X obj 755 -53 line~;
#X obj 755 -115 unpack f f;
#X obj 755 -94 dbtorms;
#X obj 755 -73 pack f f;
#X obj 846 -13 *~;
#X obj 865 -53 line~;
#X obj 865 -115 unpack f f;
#X obj 865 -94 dbtorms;
#X obj 865 -73 pack f f;
#X text 11 -70 in1;
#X obj 320 -156 routeOSC /out1 /out2 /out3 /out4 /out5 /out6 /out7
/out8;
#X obj 75 8 throw~ fx-bus1;
#X obj 185 8 throw~ fx-bus2;
#X obj 295 8 throw~ fx-bus3;
#X obj 405 8 throw~ fx-bus4;
#X obj 515 8 throw~ fx-bus5;
#X obj 625 8 throw~ fx-bus6;
#X obj 735 8 throw~ fx-bus7;
#X obj 845 8 throw~ fx-bus8;
#X connect 0 0 3 0;
#X connect 0 0 8 0;
#X connect 0 0 13 0;
#X connect 0 0 18 0;
#X connect 0 0 23 0;
#X connect 0 0 28 0;
#X connect 0 0 33 0;
#X connect 0 0 38 0;
#X connect 1 0 44 0;
#X connect 3 0 45 0;
#X connect 4 0 3 1;
#X connect 5 0 6 0;
#X connect 5 1 7 1;
#X connect 6 0 7 0;
#X connect 7 0 4 0;
#X connect 8 0 46 0;
#X connect 9 0 8 1;
#X connect 10 0 11 0;
#X connect 10 1 12 1;
#X connect 11 0 12 0;
#X connect 12 0 9 0;
#X connect 13 0 47 0;
#X connect 14 0 13 1;
#X connect 15 0 16 0;
#X connect 15 1 17 1;
#X connect 16 0 17 0;
#X connect 17 0 14 0;
#X connect 18 0 48 0;
#X connect 19 0 18 1;
#X connect 20 0 21 0;
#X connect 20 1 22 1;
#X connect 21 0 22 0;
#X connect 22 0 19 0;
#X connect 23 0 49 0;
#X connect 24 0 23 1;
#X connect 25 0 26 0;
#X connect 25 1 27 1;
#X connect 26 0 27 0;
#X connect 27 0 24 0;
#X connect 28 0 50 0;
#X connect 29 0 28 1;
#X connect 30 0 31 0;
#X connect 30 1 32 1;
#X connect 31 0 32 0;
#X connect 32 0 29 0;
#X connect 33 0 51 0;
#X connect 34 0 33 1;
#X connect 35 0 36 0;
#X connect 35 1 37 1;
#X connect 36 0 37 0;
#X connect 37 0 34 0;
#X connect 38 0 52 0;
#X connect 39 0 38 1;
#X connect 40 0 41 0;
#X connect 40 1 42 1;
#X connect 41 0 42 0;
#X connect 42 0 39 0;
#X connect 44 0 5 0;
#X connect 44 1 10 0;
#X connect 44 2 15 0;
#X connect 44 3 20 0;
#X connect 44 4 25 0;
#X connect 44 5 30 0;
#X connect 44 6 35 0;
#X connect 44 7 40 0;
#X restore 157 449 pd fx-1out8-matrix1;
#X obj 157 340 tab_del~ 10000 4000;
#X obj 330 422 env~ 22050;
#X obj 34 329 env~ 22050;
#X obj 515 390 line~;
#X msg 515 368 \$1 20;
#X obj 157 408 *~;
#X text 448 413 master vol for all delays;
#X obj 517 289 inlet;
#X text 556 291 0...1;
#X connect 0 0 11 0;
#X connect 1 0 13 0;
#X connect 1 0 15 0;
#X connect 2 0 1 4;
#X connect 2 1 12 1;
#X connect 3 0 1 0;
#X connect 4 0 1 1;
#X connect 5 0 1 2;
#X connect 6 0 1 3;
#X connect 7 0 8 0;
#X connect 9 0 10 0;
#X connect 11 0 13 1;
#X connect 11 1 2 0;
#X connect 13 0 14 0;
#X connect 13 0 18 0;
#X connect 14 0 7 0;
#X connect 15 0 9 0;
#X connect 16 0 18 1;
#X connect 17 0 16 0;
#X connect 18 0 12 0;
#X connect 20 0 17 0;
