#N canvas 427 90 375 390 10;
#N canvas 628 0 553 794 #c1...c2 0;
#X obj 24 35 inlet~;
#X obj 32 740 outlet~;
#X obj 270 18 inlet;
#X obj 297 168 string_resonator~ ________;
#X obj 354 143 unpack 0 0 0 0 0;
#X obj 354 121 t l b;
#X obj 299 266 string_resonator~ ________;
#X obj 356 241 unpack 0 0 0 0 0;
#X obj 356 219 t l b;
#X obj 300 365 string_resonator~ ________;
#X obj 357 340 unpack 0 0 0 0 0;
#X obj 357 318 t l b;
#X obj 302 463 string_resonator~ ________;
#X obj 359 438 unpack 0 0 0 0 0;
#X obj 359 416 t l b;
#X obj 300 564 string_resonator~ ________;
#X obj 357 539 unpack 0 0 0 0 0;
#X obj 357 517 t l b;
#X obj 302 662 string_resonator~ ________;
#X obj 359 637 unpack 0 0 0 0 0;
#X obj 359 615 t l b;
#X obj 27 168 string_resonator~ ________;
#X obj 84 143 unpack 0 0 0 0 0;
#X obj 84 121 t l b;
#X obj 29 266 string_resonator~ ________;
#X obj 86 241 unpack 0 0 0 0 0;
#X obj 86 219 t l b;
#X obj 30 365 string_resonator~ ________;
#X obj 87 340 unpack 0 0 0 0 0;
#X obj 87 318 t l b;
#X obj 32 463 string_resonator~ ________;
#X obj 89 438 unpack 0 0 0 0 0;
#X obj 89 416 t l b;
#X obj 30 564 string_resonator~ ________;
#X obj 87 539 unpack 0 0 0 0 0;
#X obj 87 517 t l b;
#X obj 32 662 string_resonator~ ________;
#X obj 89 637 unpack 0 0 0 0 0;
#X obj 89 615 t l b;
#X text 446 113 72;
#X msg 84 100 398.617 \$1 3401 8519 32;
#X msg 353 99 563.73 \$1 4833 11310 32;
#X msg 356 197 532.09 \$1 4551 11168 32;
#X msg 357 296 502.226 \$1 4535 10249 32;
#X msg 360 394 474.038 \$1 4109 9769 32;
#X msg 357 497 447.433 \$1 3812 9745 32;
#X msg 359 594 422.32 \$1 3660 8519 32;
#X msg 87 198 376.244 \$1 3176 8519 32;
#X msg 87 298 355.127 \$1 2964 8519 32;
#X msg 89 394 343.229 \$1 2101 8519 32;
#X msg 87 497 323.965 \$1 1965 8519 32;
#X msg 89 592 305.782 \$1 1830 8519 32;
#X obj 271 46 t f f f f f f f f f f f f;
#X connect 0 0 3 0;
#X connect 0 0 6 0;
#X connect 0 0 21 0;
#X connect 0 0 24 0;
#X connect 0 0 27 0;
#X connect 0 0 30 0;
#X connect 0 0 33 0;
#X connect 0 0 36 0;
#X connect 0 0 9 0;
#X connect 0 0 12 0;
#X connect 0 0 15 0;
#X connect 0 0 18 0;
#X connect 2 0 52 0;
#X connect 3 0 1 0;
#X connect 4 0 3 1;
#X connect 4 1 3 2;
#X connect 4 2 3 3;
#X connect 4 3 3 4;
#X connect 4 4 3 5;
#X connect 5 0 4 0;
#X connect 5 1 3 6;
#X connect 6 0 1 0;
#X connect 7 0 6 1;
#X connect 7 1 6 2;
#X connect 7 2 6 3;
#X connect 7 3 6 4;
#X connect 7 4 6 5;
#X connect 8 0 7 0;
#X connect 8 1 6 6;
#X connect 9 0 1 0;
#X connect 10 0 9 1;
#X connect 10 1 9 2;
#X connect 10 2 9 3;
#X connect 10 3 9 4;
#X connect 10 4 9 5;
#X connect 11 0 10 0;
#X connect 11 1 9 6;
#X connect 12 0 1 0;
#X connect 13 0 12 1;
#X connect 13 1 12 2;
#X connect 13 2 12 3;
#X connect 13 3 12 4;
#X connect 13 4 12 5;
#X connect 14 0 13 0;
#X connect 14 1 12 6;
#X connect 15 0 1 0;
#X connect 16 0 15 1;
#X connect 16 1 15 2;
#X connect 16 2 15 3;
#X connect 16 3 15 4;
#X connect 16 4 15 5;
#X connect 17 0 16 0;
#X connect 17 1 15 6;
#X connect 18 0 1 0;
#X connect 19 0 18 1;
#X connect 19 1 18 2;
#X connect 19 2 18 3;
#X connect 19 3 18 4;
#X connect 19 4 18 5;
#X connect 20 0 19 0;
#X connect 20 1 18 6;
#X connect 21 0 1 0;
#X connect 22 0 21 1;
#X connect 22 1 21 2;
#X connect 22 2 21 3;
#X connect 22 3 21 4;
#X connect 22 4 21 5;
#X connect 23 0 22 0;
#X connect 23 1 21 6;
#X connect 24 0 1 0;
#X connect 25 0 24 1;
#X connect 25 1 24 2;
#X connect 25 2 24 3;
#X connect 25 3 24 4;
#X connect 25 4 24 5;
#X connect 26 0 25 0;
#X connect 26 1 24 6;
#X connect 27 0 1 0;
#X connect 28 0 27 1;
#X connect 28 1 27 2;
#X connect 28 2 27 3;
#X connect 28 3 27 4;
#X connect 28 4 27 5;
#X connect 29 0 28 0;
#X connect 29 1 27 6;
#X connect 30 0 1 0;
#X connect 31 0 30 1;
#X connect 31 1 30 2;
#X connect 31 2 30 3;
#X connect 31 3 30 4;
#X connect 31 4 30 5;
#X connect 32 0 31 0;
#X connect 32 1 30 6;
#X connect 33 0 1 0;
#X connect 34 0 33 1;
#X connect 34 1 33 2;
#X connect 34 2 33 3;
#X connect 34 3 33 4;
#X connect 34 4 33 5;
#X connect 35 0 34 0;
#X connect 35 1 33 6;
#X connect 36 0 1 0;
#X connect 37 0 36 1;
#X connect 37 1 36 2;
#X connect 37 2 36 3;
#X connect 37 3 36 4;
#X connect 37 4 36 5;
#X connect 38 0 37 0;
#X connect 38 1 36 6;
#X connect 40 0 23 0;
#X connect 41 0 5 0;
#X connect 42 0 8 0;
#X connect 43 0 11 0;
#X connect 44 0 14 0;
#X connect 45 0 17 0;
#X connect 46 0 20 0;
#X connect 47 0 26 0;
#X connect 48 0 29 0;
#X connect 49 0 32 0;
#X connect 50 0 35 0;
#X connect 51 0 38 0;
#X connect 52 0 51 0;
#X connect 52 1 50 0;
#X connect 52 2 49 0;
#X connect 52 3 48 0;
#X connect 52 4 47 0;
#X connect 52 5 40 0;
#X connect 52 6 46 0;
#X connect 52 7 45 0;
#X connect 52 8 44 0;
#X connect 52 9 43 0;
#X connect 52 10 42 0;
#X connect 52 11 41 0;
#X restore 31 205 pd #c1...c2;
#N canvas 618 6 553 794 #c...c1 0;
#X obj 25 20 inlet~;
#X obj 32 740 outlet~;
#X obj 270 18 inlet;
#X obj 297 168 string_resonator~ ________;
#X obj 354 143 unpack 0 0 0 0 0;
#X obj 354 121 t l b;
#X obj 299 266 string_resonator~ ________;
#X obj 356 241 unpack 0 0 0 0 0;
#X obj 356 219 t l b;
#X obj 300 365 string_resonator~ ________;
#X obj 357 340 unpack 0 0 0 0 0;
#X obj 357 318 t l b;
#X obj 302 463 string_resonator~ ________;
#X obj 359 438 unpack 0 0 0 0 0;
#X obj 359 416 t l b;
#X obj 300 564 string_resonator~ ________;
#X obj 357 539 unpack 0 0 0 0 0;
#X obj 357 517 t l b;
#X obj 302 662 string_resonator~ ________;
#X obj 359 637 unpack 0 0 0 0 0;
#X obj 359 615 t l b;
#X obj 27 168 string_resonator~ ________;
#X obj 84 143 unpack 0 0 0 0 0;
#X obj 84 121 t l b;
#X obj 29 266 string_resonator~ ________;
#X obj 86 241 unpack 0 0 0 0 0;
#X obj 86 219 t l b;
#X obj 30 365 string_resonator~ ________;
#X obj 87 340 unpack 0 0 0 0 0;
#X obj 87 318 t l b;
#X obj 32 463 string_resonator~ ________;
#X obj 89 438 unpack 0 0 0 0 0;
#X obj 89 416 t l b;
#X obj 30 564 string_resonator~ ________;
#X obj 87 539 unpack 0 0 0 0 0;
#X obj 87 517 t l b;
#X obj 32 662 string_resonator~ ________;
#X obj 89 637 unpack 0 0 0 0 0;
#X obj 89 615 t l b;
#X text 446 117 60;
#X msg 84 100 204.085 \$1 1146 6955 64;
#X msg 87 198 194.307 \$1 987 6858 64;
#X msg 87 296 183.401 \$1 918 6858 64;
#X msg 89 395 173.108 \$1 865 6858 64;
#X msg 87 496 163.392 \$1 822 6858 64;
#X msg 89 595 154.221 \$1 765 6858 64;
#X msg 355 100 288.62 \$1 1702 8519 64;
#X msg 356 199 272.421 \$1 1592 8320 64;
#X msg 357 297 257.131 \$1 1488 8320 64;
#X msg 359 395 242.699 \$1 1393 8320 64;
#X msg 357 497 229.078 \$1 1306 7746 64;
#X msg 359 594 216.221 \$1 1230 7242 64;
#X obj 271 46 t f f f f f f f f f f f f;
#X connect 0 0 3 0;
#X connect 0 0 6 0;
#X connect 0 0 21 0;
#X connect 0 0 24 0;
#X connect 0 0 27 0;
#X connect 0 0 30 0;
#X connect 0 0 33 0;
#X connect 0 0 36 0;
#X connect 0 0 9 0;
#X connect 0 0 12 0;
#X connect 0 0 15 0;
#X connect 0 0 18 0;
#X connect 2 0 52 0;
#X connect 3 0 1 0;
#X connect 4 0 3 1;
#X connect 4 1 3 2;
#X connect 4 2 3 3;
#X connect 4 3 3 4;
#X connect 4 4 3 5;
#X connect 5 0 4 0;
#X connect 5 1 3 6;
#X connect 6 0 1 0;
#X connect 7 0 6 1;
#X connect 7 1 6 2;
#X connect 7 2 6 3;
#X connect 7 3 6 4;
#X connect 7 4 6 5;
#X connect 8 0 7 0;
#X connect 8 1 6 6;
#X connect 9 0 1 0;
#X connect 10 0 9 1;
#X connect 10 1 9 2;
#X connect 10 2 9 3;
#X connect 10 3 9 4;
#X connect 10 4 9 5;
#X connect 11 0 10 0;
#X connect 11 1 9 6;
#X connect 12 0 1 0;
#X connect 13 0 12 1;
#X connect 13 1 12 2;
#X connect 13 2 12 3;
#X connect 13 3 12 4;
#X connect 13 4 12 5;
#X connect 14 0 13 0;
#X connect 14 1 12 6;
#X connect 15 0 1 0;
#X connect 16 0 15 1;
#X connect 16 1 15 2;
#X connect 16 2 15 3;
#X connect 16 3 15 4;
#X connect 16 4 15 5;
#X connect 17 0 16 0;
#X connect 17 1 15 6;
#X connect 18 0 1 0;
#X connect 19 0 18 1;
#X connect 19 1 18 2;
#X connect 19 2 18 3;
#X connect 19 3 18 4;
#X connect 19 4 18 5;
#X connect 20 0 19 0;
#X connect 20 1 18 6;
#X connect 21 0 1 0;
#X connect 22 0 21 1;
#X connect 22 1 21 2;
#X connect 22 2 21 3;
#X connect 22 3 21 4;
#X connect 22 4 21 5;
#X connect 23 0 22 0;
#X connect 23 1 21 6;
#X connect 24 0 1 0;
#X connect 25 0 24 1;
#X connect 25 1 24 2;
#X connect 25 2 24 3;
#X connect 25 3 24 4;
#X connect 25 4 24 5;
#X connect 26 0 25 0;
#X connect 26 1 24 6;
#X connect 27 0 1 0;
#X connect 28 0 27 1;
#X connect 28 1 27 2;
#X connect 28 2 27 3;
#X connect 28 3 27 4;
#X connect 28 4 27 5;
#X connect 29 0 28 0;
#X connect 29 1 27 6;
#X connect 30 0 1 0;
#X connect 31 0 30 1;
#X connect 31 1 30 2;
#X connect 31 2 30 3;
#X connect 31 3 30 4;
#X connect 31 4 30 5;
#X connect 32 0 31 0;
#X connect 32 1 30 6;
#X connect 33 0 1 0;
#X connect 34 0 33 1;
#X connect 34 1 33 2;
#X connect 34 2 33 3;
#X connect 34 3 33 4;
#X connect 34 4 33 5;
#X connect 35 0 34 0;
#X connect 35 1 33 6;
#X connect 36 0 1 0;
#X connect 37 0 36 1;
#X connect 37 1 36 2;
#X connect 37 2 36 3;
#X connect 37 3 36 4;
#X connect 37 4 36 5;
#X connect 38 0 37 0;
#X connect 38 1 36 6;
#X connect 40 0 23 0;
#X connect 41 0 26 0;
#X connect 42 0 29 0;
#X connect 43 0 32 0;
#X connect 44 0 35 0;
#X connect 45 0 38 0;
#X connect 46 0 5 0;
#X connect 47 0 8 0;
#X connect 48 0 11 0;
#X connect 49 0 14 0;
#X connect 50 0 17 0;
#X connect 51 0 20 0;
#X connect 52 0 45 0;
#X connect 52 1 44 0;
#X connect 52 2 43 0;
#X connect 52 3 42 0;
#X connect 52 4 41 0;
#X connect 52 5 40 0;
#X connect 52 6 51 0;
#X connect 52 7 50 0;
#X connect 52 8 49 0;
#X connect 52 9 48 0;
#X connect 52 10 47 0;
#X connect 52 11 46 0;
#X restore 118 204 pd #c...c1;
#N canvas 663 0 553 794 #C...c 0;
#X obj 25 20 inlet~;
#X obj 32 740 outlet~;
#X obj 270 18 inlet;
#X obj 297 168 string_resonator~ ________;
#X obj 354 143 unpack 0 0 0 0 0;
#X obj 354 121 t l b;
#X obj 299 266 string_resonator~ ________;
#X obj 356 241 unpack 0 0 0 0 0;
#X obj 356 219 t l b;
#X obj 300 365 string_resonator~ ________;
#X obj 357 340 unpack 0 0 0 0 0;
#X obj 357 318 t l b;
#X obj 302 463 string_resonator~ ________;
#X obj 359 438 unpack 0 0 0 0 0;
#X obj 360 415 t l b;
#X obj 300 564 string_resonator~ ________;
#X obj 357 539 unpack 0 0 0 0 0;
#X obj 357 517 t l b;
#X obj 302 662 string_resonator~ ________;
#X obj 359 637 unpack 0 0 0 0 0;
#X obj 359 615 t l b;
#X obj 27 168 string_resonator~ ________;
#X obj 84 143 unpack 0 0 0 0 0;
#X obj 84 121 t l b;
#X obj 29 266 string_resonator~ ________;
#X obj 86 241 unpack 0 0 0 0 0;
#X obj 86 219 t l b;
#X obj 30 365 string_resonator~ ________;
#X obj 87 340 unpack 0 0 0 0 0;
#X obj 87 318 t l b;
#X obj 32 463 string_resonator~ ________;
#X obj 89 438 unpack 0 0 0 0 0;
#X obj 89 416 t l b;
#X obj 30 564 string_resonator~ ________;
#X obj 87 539 unpack 0 0 0 0 0;
#X obj 87 517 t l b;
#X obj 32 662 string_resonator~ ________;
#X obj 89 637 unpack 0 0 0 0 0;
#X obj 89 615 t l b;
#X text 446 113 48;
#X obj 271 46 t f f f f f f f f f f f f;
#X msg 84 100 102.93 \$1 463 4006 64;
#X msg 86 198 97.1534 \$1 427 4006 64;
#X msg 87 298 91.7006 \$1 402 4006 64;
#X msg 88 393 86.5539 \$1 381 4006 64;
#X msg 87 495 81.696 \$1 344 4006 64;
#X msg 90 591 77.1107 \$1 321 3119 64;
#X msg 354 99 145.566 \$1 715 5335 64;
#X msg 356 199 137.396 \$1 656 5335 64;
#X msg 357 298 129.684 \$1 621 5335 64;
#X msg 361 394 122.406 \$1 577 4706 64;
#X msg 356 494 115.536 \$1 537 4531 64;
#X msg 359 593 109.051 \$1 498 4006 64;
#X connect 0 0 3 0;
#X connect 0 0 6 0;
#X connect 0 0 21 0;
#X connect 0 0 24 0;
#X connect 0 0 27 0;
#X connect 0 0 30 0;
#X connect 0 0 33 0;
#X connect 0 0 36 0;
#X connect 0 0 9 0;
#X connect 0 0 12 0;
#X connect 0 0 15 0;
#X connect 0 0 18 0;
#X connect 2 0 40 0;
#X connect 3 0 1 0;
#X connect 4 0 3 1;
#X connect 4 1 3 2;
#X connect 4 2 3 3;
#X connect 4 3 3 4;
#X connect 4 4 3 5;
#X connect 5 0 4 0;
#X connect 5 1 3 6;
#X connect 6 0 1 0;
#X connect 7 0 6 1;
#X connect 7 1 6 2;
#X connect 7 2 6 3;
#X connect 7 3 6 4;
#X connect 7 4 6 5;
#X connect 8 0 7 0;
#X connect 8 1 6 6;
#X connect 9 0 1 0;
#X connect 10 0 9 1;
#X connect 10 1 9 2;
#X connect 10 2 9 3;
#X connect 10 3 9 4;
#X connect 10 4 9 5;
#X connect 11 0 10 0;
#X connect 11 1 9 6;
#X connect 12 0 1 0;
#X connect 13 0 12 1;
#X connect 13 1 12 2;
#X connect 13 2 12 3;
#X connect 13 3 12 4;
#X connect 13 4 12 5;
#X connect 14 0 13 0;
#X connect 14 1 12 6;
#X connect 15 0 1 0;
#X connect 16 0 15 1;
#X connect 16 1 15 2;
#X connect 16 2 15 3;
#X connect 16 3 15 4;
#X connect 16 4 15 5;
#X connect 17 0 16 0;
#X connect 17 1 15 6;
#X connect 18 0 1 0;
#X connect 19 0 18 1;
#X connect 19 1 18 2;
#X connect 19 2 18 3;
#X connect 19 3 18 4;
#X connect 19 4 18 5;
#X connect 20 0 19 0;
#X connect 20 1 18 6;
#X connect 21 0 1 0;
#X connect 22 0 21 1;
#X connect 22 1 21 2;
#X connect 22 2 21 3;
#X connect 22 3 21 4;
#X connect 22 4 21 5;
#X connect 23 0 22 0;
#X connect 23 1 21 6;
#X connect 24 0 1 0;
#X connect 25 0 24 1;
#X connect 25 1 24 2;
#X connect 25 2 24 3;
#X connect 25 3 24 4;
#X connect 25 4 24 5;
#X connect 26 0 25 0;
#X connect 26 1 24 6;
#X connect 27 0 1 0;
#X connect 28 0 27 1;
#X connect 28 1 27 2;
#X connect 28 2 27 3;
#X connect 28 3 27 4;
#X connect 28 4 27 5;
#X connect 29 0 28 0;
#X connect 29 1 27 6;
#X connect 30 0 1 0;
#X connect 31 0 30 1;
#X connect 31 1 30 2;
#X connect 31 2 30 3;
#X connect 31 3 30 4;
#X connect 31 4 30 5;
#X connect 32 0 31 0;
#X connect 32 1 30 6;
#X connect 33 0 1 0;
#X connect 34 0 33 1;
#X connect 34 1 33 2;
#X connect 34 2 33 3;
#X connect 34 3 33 4;
#X connect 34 4 33 5;
#X connect 35 0 34 0;
#X connect 35 1 33 6;
#X connect 36 0 1 0;
#X connect 37 0 36 1;
#X connect 37 1 36 2;
#X connect 37 2 36 3;
#X connect 37 3 36 4;
#X connect 37 4 36 5;
#X connect 38 0 37 0;
#X connect 38 1 36 6;
#X connect 40 0 46 0;
#X connect 40 1 45 0;
#X connect 40 2 44 0;
#X connect 40 3 43 0;
#X connect 40 4 42 0;
#X connect 40 5 41 0;
#X connect 40 6 52 0;
#X connect 40 7 51 0;
#X connect 40 8 50 0;
#X connect 40 9 49 0;
#X connect 40 10 48 0;
#X connect 40 11 47 0;
#X connect 41 0 23 0;
#X connect 42 0 26 0;
#X connect 43 0 29 0;
#X connect 44 0 32 0;
#X connect 45 0 35 0;
#X connect 46 0 38 0;
#X connect 47 0 5 0;
#X connect 48 0 8 0;
#X connect 49 0 11 0;
#X connect 50 0 14 0;
#X connect 51 0 17 0;
#X connect 52 0 20 0;
#X restore 207 203 pd #C...c;
#X obj 31 337 outlet~;
#X obj 29 54 inlet~;
#X text 22 358 signal-out;
#X text 26 30 signal-in;
#X obj 30 121 hip~ 50;
#X text 120 340 created by Thomas Musil (IEM Graz);
#X obj 267 150 inlet;
#X obj 32 293 *~ 0.01;
#X connect 0 0 10 0;
#X connect 1 0 10 0;
#X connect 2 0 10 0;
#X connect 4 0 7 0;
#X connect 7 0 0 0;
#X connect 7 0 1 0;
#X connect 7 0 2 0;
#X connect 9 0 0 1;
#X connect 9 0 1 1;
#X connect 9 0 2 1;
#X connect 10 0 3 0;
