#N canvas 122 194 485 384 10;
#X obj 104 233 expr 4*atan(1)/$f1;
#X obj 104 209 samplerate~;
#X obj 77 252 * 1;
#X obj 77 60 inlet;
#X text 79 42 freq;
#X obj 77 277 clip 1e-020 1.57079;
#X obj 240 211 expr 2*atan(1);
#X obj 77 302 expr cos($f1)/sin($f1);
#X obj 240 233 - 1e-007;
#X text 135 335 l;
#X obj 77 176 f \$1;
#X text 251 254 pi/2;
#X text 120 252 *pi/SR;
#X obj 77 338 outlet;
#X text 18 13 fq-al : freq Q to l a transformer;
#X obj 262 90 t b b;
#X obj 262 65 inlet;
#X text 261 46 init-bang;
#X connect 0 0 2 1;
#X connect 1 0 0 0;
#X connect 2 0 5 0;
#X connect 3 0 10 0;
#X connect 5 0 7 0;
#X connect 6 0 8 0;
#X connect 7 0 13 0;
#X connect 8 0 5 2;
#X connect 10 0 2 0;
#X connect 15 0 10 0;
#X connect 15 1 1 0;
#X connect 15 1 6 0;
#X connect 16 0 15 0;
