#N canvas 318 237 415 250 10;
#X obj 28 139 outlet;
#X text 24 184 fadtorms;
#X text 102 184 convert fader-scale to rms-value;
#X obj 68 79 table fadtorms_tab 128;
#X obj 28 110 tabread fadtorms_tab;
#X obj 29 53 clip 0 127;
#X obj 29 79 i;
#X obj 29 22 inlet;
#X text 28 206 This implementation uses a table with values derived
from T. Musil's [fadtorms] object from iemlib.;
#X text 248 28 input: integer values from 0-127;
#X text 250 106 output: rms values from -inf up to +13dB;
#X connect 4 0 0 0;
#X connect 5 0 6 0;
#X connect 6 0 4 0;
#X connect 7 0 5 0;
