#N canvas 0 48 929 663 10;
#X text 104 40 transp in cents <int> (-2400 <= 2400 );
#X text 263 62 wsize ms <int> (n >= 1);
#X obj 377 545 *~;
#X obj 264 79 inlet;
#X obj 106 146 clip -2400 2400;
#X obj 106 59 inlet;
#X obj 106 217 mtof;
#X obj 290 259 clip -40 40;
#X obj 242 587 outlet~;
#X obj 242 530 *~;
#X obj 242 563 +~;
#X text 229 604 harmonized signal out;
#X obj 290 325 phasor~;
#X obj 290 303 line~;
#X text 107 3 --simple harmonizer voice element with line~ for protamento
;
#X obj 457 380 wrap~;
#X obj 457 357 +~ 0.5;
#X obj 457 410 *~ 512;
#X obj 457 433 +~ 1;
#X obj 255 422 *~ 512;
#X obj 255 445 +~ 1;
#X text 149 172 cents to midi;
#X text 143 215 midi to freq.;
#X obj 16 305 delwrite~ \$0_harmdel 1000;
#X obj 15 77 inlet~;
#X text 14 59 sig-in;
#X text 6 2 harmonizer~;
#X obj 106 171 * 0.01;
#X obj 106 194 + 69;
#X text 140 196 "a1" in midi;
#X text 115 258 "a1" in Hz;
#X obj 106 239 - 440;
#X obj 290 237 * 1;
#X obj 303 215 /;
#X obj 285 171 t b b f;
#X text 359 173 1000 / 440;
#X obj 534 374 soundfiler;
#X obj 457 455 tabread4~ \$0_win;
#X obj 256 466 tabread4~ \$0_win;
#X obj 534 395 table \$0_win;
#X obj 534 318 symbol \$0_win;
#X msg 534 352 read -resize halfsine_hann.wav \$1;
#X text 477 188 arg1: transp in cents <int> (-2400 <= 2400 );
#X text 477 199 arg2: wsize ms <int> (n >= 1);
#X obj 242 508 vd~ \$0_harmdel;
#X obj 377 525 vd~ \$0_harmdel;
#X obj 146 425 mull~ 50 50;
#X obj 377 424 mull~ 50 50;
#X obj 290 281 pack 1.3e-05 50;
#X obj 534 300 bng 15 250 50 0 empty empty empty 0 -6 0 8 -262144 -1
-1;
#X obj 462 82 inlet;
#X text 461 65 delay ms <int> (n >= 1);
#X obj 146 450 addl~ 1 50;
#X obj 376 455 addl~ 1 50;
#X obj 264 143 clip 1 499;
#X obj 462 158 clip 1 499;
#X text 477 210 arg3: delay ms <int> (n >= 1);
#X text 652 57 interpoltime ms <int> (n >= 1);
#X msg 738 317 read -resize han_pow_2_3.wav \$1;
#X obj 738 296 symbol \$0_win;
#X obj 738 278 bng 15 250 50 0 empty empty empty 0 -6 0 8 -262144 -1
-1;
#X obj 793 145 sel 0;
#X msg 793 168 50;
#X obj 793 73 inlet;
#X obj 793 193 f;
#X text 478 222 arg4: interpolation-time ms <int> (n >= 1);
#X obj 106 124 f \$1;
#X obj 264 121 f \$2;
#X obj 462 133 f \$3;
#X obj 793 125 f \$4;
#X text 573 5 created by Thomas Musil (IEM Graz);
#X obj 303 193 float -2.2727;
#X obj 730 254 r initbang;
#X obj 153 58 r initbang;
#X obj 317 78 r initbang;
#X obj 510 82 r initbang;
#X obj 806 95 r initbang;
#X connect 2 0 10 1;
#X connect 3 0 67 0;
#X connect 4 0 27 0;
#X connect 5 0 66 0;
#X connect 6 0 31 0;
#X connect 7 0 48 0;
#X connect 9 0 10 0;
#X connect 10 0 8 0;
#X connect 12 0 16 0;
#X connect 12 0 19 0;
#X connect 12 0 46 0;
#X connect 13 0 12 0;
#X connect 15 0 17 0;
#X connect 15 0 47 0;
#X connect 16 0 15 0;
#X connect 17 0 18 0;
#X connect 18 0 37 0;
#X connect 19 0 20 0;
#X connect 20 0 38 0;
#X connect 24 0 23 0;
#X connect 27 0 28 0;
#X connect 28 0 6 0;
#X connect 31 0 32 0;
#X connect 32 0 7 0;
#X connect 33 0 32 1;
#X connect 34 0 32 0;
#X connect 34 1 71 0;
#X connect 34 2 33 1;
#X connect 37 0 2 1;
#X connect 38 0 9 1;
#X connect 40 0 41 0;
#X connect 41 0 36 0;
#X connect 44 0 9 0;
#X connect 45 0 2 0;
#X connect 46 0 52 0;
#X connect 47 0 53 0;
#X connect 48 0 13 0;
#X connect 49 0 40 0;
#X connect 50 0 68 0;
#X connect 52 0 44 0;
#X connect 53 0 45 0;
#X connect 54 0 34 0;
#X connect 54 0 46 1;
#X connect 54 0 47 1;
#X connect 55 0 53 1;
#X connect 55 0 52 1;
#X connect 58 0 36 0;
#X connect 59 0 58 0;
#X connect 60 0 59 0;
#X connect 61 0 62 0;
#X connect 61 1 64 0;
#X connect 62 0 64 0;
#X connect 63 0 69 0;
#X connect 64 0 47 2;
#X connect 64 0 46 2;
#X connect 64 0 53 2;
#X connect 64 0 52 2;
#X connect 64 0 48 1;
#X connect 66 0 4 0;
#X connect 67 0 54 0;
#X connect 68 0 55 0;
#X connect 69 0 61 0;
#X connect 71 0 33 0;
#X connect 72 0 60 0;
#X connect 73 0 66 0;
#X connect 74 0 67 0;
#X connect 75 0 68 0;
#X connect 76 0 69 0;
