#N canvas 0 22 471 370 10;
#X obj 138 200 textfile;
#X obj 138 180 until;
#X obj 138 138 t b s;
#X msg 165 157 clear \, read \$1 cr \, rewind;
#X obj 138 117 symbol \$1;
#X obj 50 34 inlet init;
#X obj 138 231 outlet;
#X text 24 304 2011 by IOhannes Zmoelnig \, released under the GPL2+
\, IEM Graz;
#X connect 0 0 6 0;
#X connect 0 1 1 1;
#X connect 1 0 0 0;
#X connect 2 0 1 0;
#X connect 2 1 3 0;
#X connect 3 0 0 0;
#X connect 4 0 2 0;
#X connect 5 0 4 0;
