#N canvas 324 496 496 303 10;
#X obj 54 36 inlet~;
#X obj 54 257 outlet~;
#X obj 54 227 *~;
#X obj 132 36 inlet;
#X obj 206 36 inlet;
#X obj 132 169 pack \$1 \$2;
#X text 227 194 1.) arg: <float> multiplication-value;
#X text 227 208 2.) arg: \, float> ramp time in ms;
#X obj 72 206 line~;
#X obj 72 161 f \$1;
#X obj 286 35 inlet;
#X text 285 16 init-bang;
#X text 131 17 value;
#X text 201 17 ramp-time;
#X obj 132 195 unpack 0 0;
#X connect 0 0 2 0;
#X connect 2 0 1 0;
#X connect 3 0 5 0;
#X connect 4 0 5 1;
#X connect 5 0 8 0;
#X connect 5 0 14 0;
#X connect 8 0 2 1;
#X connect 9 0 8 0;
#X connect 10 0 9 0;
#X connect 14 0 9 1;
