#N canvas 320 149 406 323 10;
#X obj 22 42 inlet~;
#X obj 35 67 inlet;
#X obj 22 238 outlet~;
#X text 14 266 (c) musil@iem.kug.ac.at;
#X text 56 279 IEM KUG;
#X text 62 42 ~signal_in~;
#X obj 90 112 inlet;
#X text 31 291 graz \, austria 2001;
#X text 69 239 ~signal_out~;
#X obj 22 215 *~;
#X obj 35 194 line~;
#X text 72 66 <float> multiplication-coefficient or;
#X text 72 78 <list> multiplication-coefficient + interpol_time [ms]
;
#X text 119 180 1.arg: <float> multiplication-coefficient;
#X text 49 9 signal-multiplication with line~ interpolation;
#X text 125 113 <float> interpolation_time [ms];
#X text 119 191 2.arg: <float> interpolation_time [ms];
#X obj 35 175 pack \$1 \$2;
#X text 11 9 mull~;
#X obj 41 146 r initbang;
#X connect 0 0 9 0;
#X connect 1 0 17 0;
#X connect 6 0 17 1;
#X connect 9 0 2 0;
#X connect 10 0 9 1;
#X connect 17 0 10 0;
#X connect 19 0 17 0;
