#N canvas 665 22 466 349 10;
#X obj 52 70 inlet;
#X obj 52 115 outlet;
#X obj 295 116 outlet;
#X obj 52 93 OSCoverUDP_client 7951 127.0.0.1 7950 500;
#X text 21 193 2011 by IOhannes Zmoelnig \, released under the GPL2+
\, IEM Graz;
#X connect 0 0 3 0;
#X connect 3 0 1 0;
#X connect 3 1 2 0;
