#N canvas 234 175 947 552 10;
#X obj 266 417 tgl 15 0 empty empty successful 17 7 0 10 -262144 -1
-1 0 1;
#X obj 17 206 outlet;
#X text 67 207 all OSC messages;
#X obj 579 282 outlet;
#X obj 17 12 inlet;
#X text 16 -7 all OSC messages to server;
#X text 43 -35 OSCoverUDP_client;
#X text 475 -34 Arguments:;
#X text 548 -19 server address;
#X text 548 -3 server port;
#X text 548 -34 client port;
#X text 548 11 timeout (msec);
#X obj 17 69 routeOSC /client_alive /conn_request;
#X text 426 399 The client is different to the server in that it initiates
the connections. The server just waits for connection requests to come
in.;
#N canvas 4 54 450 300 error_msg 0;
#X obj 77 103 t b;
#X obj 77 156 print OSCoverUPD_client;
#X msg 77 130 Not forwarding reserved OSC message!;
#X obj 77 74 inlet;
#X connect 0 0 2 0;
#X connect 2 0 1 0;
#X connect 3 0 0 0;
#X restore 17 95 pd error_msg;
#X obj 17 34 t a a;
#X obj 348 21 t a a;
#X obj 266 313 t a a;
#X obj 266 391 t f f f;
#N canvas 436 216 740 552 heartbeat 0;
#X text 206 220 gui heartbeat;
#X obj 356 211 timer;
#X obj 212 242 metro \$4;
#X msg 212 274 /client_alive 1;
#X obj 356 275 t f f;
#X obj 356 233 select 0;
#X obj 212 153 t f f;
#X obj 212 109 t b l;
#X msg 212 130 1;
#X obj 239 130 unpack;
#X obj 22 44 route /server_alive;
#X obj 356 113 select 1;
#X obj 212 417 t a;
#X obj 22 22 inlet OSC:fromServer;
#X obj 212 446 outlet OSC:toServer;
#X obj 386 145 t f f;
#X obj 356 445 outlet heartbeat_status;
#X obj 22 446 outlet OSC:fromServer;
#X text 231 17 this encapsulates the entire heartbeat logic (client-side)
;
#X obj 368 188 t b b;
#X text 19 465 pass thru other messages;
#X text 212 467 heartbeat msg for;
#X text 214 481 server;
#X text 357 465 current status of heartbeat;
#X obj 356 387 == 0;
#X obj 212 87 timeout \$4;
#X obj 368 166 metro \$4;
#X obj 356 255 > \$4;
#X obj 212 41 inlet control;
#X obj 212 63 route timeout;
#X connect 1 0 5 0;
#X connect 2 0 3 0;
#X connect 3 0 12 0;
#X connect 4 0 24 0;
#X connect 5 1 27 0;
#X connect 6 0 2 0;
#X connect 6 1 26 0;
#X connect 7 0 8 0;
#X connect 7 1 9 0;
#X connect 8 0 6 0;
#X connect 9 0 15 0;
#X connect 9 1 2 1;
#X connect 10 0 11 0;
#X connect 10 1 17 0;
#X connect 11 0 1 0;
#X connect 12 0 14 0;
#X connect 13 0 10 0;
#X connect 15 0 27 1;
#X connect 15 1 26 1;
#X connect 19 1 1 1;
#X connect 24 0 16 0;
#X connect 25 0 7 0;
#X connect 26 0 19 0;
#X connect 27 0 4 0;
#X connect 28 0 29 0;
#X connect 29 0 25 0;
#X restore 348 48 pd heartbeat;
#X text 624 284 connection status: 0/1;
#X text 423 353 TODO: send /conn_request msg;
#X obj 444 229 t f f;
#X msg 444 273 /conn_request 1;
#X obj 417 205 t f f;
#X obj 417 143 != 0;
#X obj 417 121 *;
#X obj 444 251 select 0;
#X obj 389 22 sprint ->client;
#X obj 303 313 sprint client->;
#X obj 348 -2 oscreceiver \$1 \$2 \$3;
#X obj 266 349 oscsender \$1 \$2 \$3;
#X obj 541 78 t b b;
#X msg 544 50 bang;
#X obj 541 210 pack 0 s 0;
#X obj 569 150 symbol;
#X obj 541 232 route 0;
#X obj 800 153 t f;
#X msg 800 176 timeout \$1;
#X obj 569 128 route server_address server_port client_port timeout
;
#X obj 569 172 t s s;
#X obj 631 232 t a;
#X msg 652 187 receiver_port \$1;
#X msg 631 210 sender_address \$1;
#X obj 652 167 t f;
#X obj 541 299 list;
#X obj 568 104 initfile network.txt;
#X obj 576 50 r initbang;
#X text 24 474 2011 by IOhannes Zmoelnig \, released under the GPL2+
\, IEM Graz;
#X connect 4 0 15 0;
#X connect 12 0 14 0;
#X connect 12 1 14 0;
#X connect 12 2 17 0;
#X connect 15 0 12 0;
#X connect 16 0 19 0;
#X connect 16 1 28 0;
#X connect 17 0 31 0;
#X connect 17 1 29 0;
#X connect 18 0 0 0;
#X connect 18 2 26 1;
#X connect 19 0 1 0;
#X connect 19 1 17 0;
#X connect 19 2 26 0;
#X connect 22 0 27 0;
#X connect 22 1 31 1;
#X connect 23 0 17 0;
#X connect 24 0 3 0;
#X connect 24 1 22 0;
#X connect 25 0 24 0;
#X connect 26 0 25 0;
#X connect 27 0 23 0;
#X connect 30 0 16 0;
#X connect 31 0 18 0;
#X connect 32 0 34 0;
#X connect 32 1 46 0;
#X connect 33 0 32 0;
#X connect 34 0 36 0;
#X connect 35 0 40 0;
#X connect 36 0 45 0;
#X connect 37 0 38 0;
#X connect 38 0 19 1;
#X connect 39 0 35 0;
#X connect 39 1 34 2;
#X connect 39 2 44 0;
#X connect 39 3 37 0;
#X connect 40 0 34 1;
#X connect 40 1 43 0;
#X connect 41 0 30 0;
#X connect 42 0 41 0;
#X connect 43 0 41 0;
#X connect 44 0 42 0;
#X connect 45 0 31 2;
#X connect 46 0 39 0;
#X connect 47 0 32 0;
