#N canvas 0 22 522 395 10;
#X obj 114 152 outlet data;
#X obj 238 155 outlet host;
#X obj 114 107 inlet control;
#X obj 114 131 udpreceiver.FUDI \$1 \$2;
#X text 40 228 2011 by IOhannes Zmoelnig \, released under the GPL2+
\, IEM Graz;
#X connect 2 0 3 0;
#X connect 3 0 0 0;
#X connect 3 1 1 0;
