#N canvas 637 395 483 279 10;
#X obj 79 76 inlet;
#X obj 79 124 outlet;
#X obj 322 124 outlet;
#X obj 79 101 OSCoverUDP_server 7950 127.0.0.1 7951 500;
#X text 43 195 2011 by IOhannes Zmoelnig \, released under the GPL2+
\, IEM Graz;
#X connect 0 0 3 0;
#X connect 3 0 1 0;
#X connect 3 1 2 0;
