#N canvas 311 243 560 364 10;
#X obj 90 59 inlet data;
#X obj 269 65 inlet control;
#X obj 90 218 outlet status;
#X obj 90 179 t f f;
#X obj 90 113 spigot;
#X obj 296 131 sprint server->client;
#N canvas 24 72 735 508 reconnect 0;
#X msg 143 433 disconnect \, connect \$1 \$2;
#X obj 143 164 symbol \$2;
#X obj 143 455 outlet udpsend;
#X obj 143 24 inlet status;
#X msg 143 68 0;
#X obj 143 90 t f;
#X obj 143 112 select 0;
#X text 226 24 "bang" forces reconnect;
#X obj 143 134 t b b;
#X obj 213 164 i \$3;
#X obj 143 358 select s;
#X obj 143 336 t s b;
#X msg 183 337 symbol;
#X obj 143 380 symbol localhost;
#X obj 143 408 pack s f;
#X obj 213 186 max 0;
#X obj 213 208 select 0;
#X obj 213 272 max 0;
#X obj 213 294 select 0;
#X obj 213 316 i 7950;
#X obj 213 252 - 1;
#X obj 213 230 i \$1;
#X obj 385 76 inlet host;
#X obj 143 46 route bang float;
#X obj 385 98 unpack s 0;
#X connect 0 0 2 0;
#X connect 1 0 11 0;
#X connect 3 0 23 0;
#X connect 4 0 5 0;
#X connect 5 0 6 0;
#X connect 6 0 8 0;
#X connect 8 0 1 0;
#X connect 8 1 9 0;
#X connect 9 0 15 0;
#X connect 10 0 13 0;
#X connect 10 1 13 0;
#X connect 11 0 10 0;
#X connect 11 1 12 0;
#X connect 12 0 10 1;
#X connect 13 0 14 0;
#X connect 14 0 0 0;
#X connect 15 0 16 0;
#X connect 16 0 21 0;
#X connect 16 1 19 0;
#X connect 17 0 18 0;
#X connect 18 0 19 0;
#X connect 18 1 19 0;
#X connect 19 0 14 1;
#X connect 20 0 17 0;
#X connect 21 0 20 0;
#X connect 22 0 24 0;
#X connect 23 0 4 0;
#X connect 23 1 5 0;
#X connect 24 0 1 1;
#X connect 24 1 9 1;
#X restore 269 89 pd reconnect;
#X obj 269 110 t a a;
#X obj 419 65 inlet host;
#X obj 90 135 udpsender.FUDI;
#X text 24 304 2011 by IOhannes Zmoelnig \, released under the GPL2+
\, IEM Graz;
#X connect 0 0 4 0;
#X connect 1 0 6 0;
#X connect 3 0 2 0;
#X connect 3 1 4 1;
#X connect 4 0 9 0;
#X connect 6 0 7 0;
#X connect 7 0 9 1;
#X connect 7 1 5 0;
#X connect 8 0 6 1;
#X connect 9 0 3 0;
