#N canvas 14 22 927 639 10;
#X obj 49 395 tabplay~;
#X obj 49 225 makefilename %s-l;
#X obj 181 395 tabplay~;
#X obj 181 226 makefilename %s-r;
#X msg 352 250 stop;
#X msg 49 256 set \$1;
#X msg 181 256 set \$1;
#X text 471 241 start;
#X obj 49 26 inlet;
#X obj 49 122 symbol;
#X obj 49 143 t s s;
#X obj 135 122 sel 0 1;
#X obj 49 94 routeOSC /load /play;
#X obj 231 537 outlet;
#X obj 231 465 i;
#N canvas 0 22 1257 485 sampler-2out8-matrix2 0;
#X obj 0 -34 inlet~;
#X obj 137 -203 inlet;
#X text 179 -203 OSC;
#X obj 66 7 *~;
#X obj 85 -33 line~;
#X obj 85 -95 unpack f f;
#X obj 85 -74 dbtorms;
#X obj 85 -53 pack f f;
#X obj 65 28 throw~ sampler-bus1;
#X obj 137 -178 routeOSC /chn1 /chn2;
#X obj 216 7 *~;
#X obj 235 -33 line~;
#X obj 235 -95 unpack f f;
#X obj 235 -74 dbtorms;
#X obj 235 -53 pack f f;
#X obj 215 28 throw~ sampler-bus2;
#X obj 366 7 *~;
#X obj 385 -33 line~;
#X obj 385 -95 unpack f f;
#X obj 385 -74 dbtorms;
#X obj 385 -53 pack f f;
#X obj 516 7 *~;
#X obj 535 -33 line~;
#X obj 535 -95 unpack f f;
#X obj 535 -74 dbtorms;
#X obj 535 -53 pack f f;
#X obj 365 28 throw~ sampler-bus3;
#X obj 515 28 throw~ sampler-bus4;
#X obj 666 7 *~;
#X obj 685 -33 line~;
#X obj 685 -95 unpack f f;
#X obj 685 -74 dbtorms;
#X obj 685 -53 pack f f;
#X obj 816 7 *~;
#X obj 835 -33 line~;
#X obj 835 -95 unpack f f;
#X obj 835 -74 dbtorms;
#X obj 835 -53 pack f f;
#X obj 966 7 *~;
#X obj 985 -33 line~;
#X obj 985 -95 unpack f f;
#X obj 985 -74 dbtorms;
#X obj 985 -53 pack f f;
#X obj 1116 7 *~;
#X obj 1135 -33 line~;
#X obj 1135 -95 unpack f f;
#X obj 1135 -74 dbtorms;
#X obj 1135 -53 pack f f;
#X obj 665 28 throw~ sampler-bus5;
#X obj 815 28 throw~ sampler-bus6;
#X obj 965 28 throw~ sampler-bus7;
#X obj 1115 28 throw~ sampler-bus8;
#X obj 37 161 inlet~;
#X obj 66 207 *~;
#X obj 85 157 line~;
#X obj 85 95 unpack f f;
#X obj 85 116 dbtorms;
#X obj 85 137 pack f f;
#X obj 65 228 throw~ sampler-bus1;
#X obj 216 207 *~;
#X obj 235 157 line~;
#X obj 235 95 unpack f f;
#X obj 235 116 dbtorms;
#X obj 235 137 pack f f;
#X obj 215 228 throw~ sampler-bus2;
#X obj 366 207 *~;
#X obj 385 157 line~;
#X obj 385 95 unpack f f;
#X obj 385 116 dbtorms;
#X obj 385 137 pack f f;
#X obj 516 207 *~;
#X obj 535 157 line~;
#X obj 535 95 unpack f f;
#X obj 535 116 dbtorms;
#X obj 535 137 pack f f;
#X obj 365 228 throw~ sampler-bus3;
#X obj 515 228 throw~ sampler-bus4;
#X obj 666 207 *~;
#X obj 685 157 line~;
#X obj 685 95 unpack f f;
#X obj 685 116 dbtorms;
#X obj 685 137 pack f f;
#X obj 816 207 *~;
#X obj 835 157 line~;
#X obj 835 95 unpack f f;
#X obj 835 116 dbtorms;
#X obj 835 137 pack f f;
#X obj 966 207 *~;
#X obj 985 157 line~;
#X obj 985 95 unpack f f;
#X obj 985 116 dbtorms;
#X obj 985 137 pack f f;
#X obj 1116 207 *~;
#X obj 1135 157 line~;
#X obj 1135 95 unpack f f;
#X obj 1135 116 dbtorms;
#X obj 1135 137 pack f f;
#X obj 665 228 throw~ sampler-bus5;
#X obj 815 228 throw~ sampler-bus6;
#X obj 965 228 throw~ sampler-bus7;
#X obj 1115 228 throw~ sampler-bus8;
#X text 1 -50 in1;
#X text 32 144 in2;
#X obj 390 -136 routeOSC /out1 /out2 /out3 /out4 /out5 /out6 /out7
/out8;
#X obj 398 53 routeOSC /out1 /out2 /out3 /out4 /out5 /out6 /out7 /out8
;
#X connect 0 0 3 0;
#X connect 0 0 10 0;
#X connect 0 0 16 0;
#X connect 0 0 21 0;
#X connect 0 0 28 0;
#X connect 0 0 33 0;
#X connect 0 0 38 0;
#X connect 0 0 43 0;
#X connect 1 0 9 0;
#X connect 3 0 8 0;
#X connect 4 0 3 1;
#X connect 5 0 6 0;
#X connect 5 1 7 1;
#X connect 6 0 7 0;
#X connect 7 0 4 0;
#X connect 9 0 103 0;
#X connect 9 1 104 0;
#X connect 10 0 15 0;
#X connect 11 0 10 1;
#X connect 12 0 13 0;
#X connect 12 1 14 1;
#X connect 13 0 14 0;
#X connect 14 0 11 0;
#X connect 16 0 26 0;
#X connect 17 0 16 1;
#X connect 18 0 19 0;
#X connect 18 1 20 1;
#X connect 19 0 20 0;
#X connect 20 0 17 0;
#X connect 21 0 27 0;
#X connect 22 0 21 1;
#X connect 23 0 24 0;
#X connect 23 1 25 1;
#X connect 24 0 25 0;
#X connect 25 0 22 0;
#X connect 28 0 48 0;
#X connect 29 0 28 1;
#X connect 30 0 31 0;
#X connect 30 1 32 1;
#X connect 31 0 32 0;
#X connect 32 0 29 0;
#X connect 33 0 49 0;
#X connect 34 0 33 1;
#X connect 35 0 36 0;
#X connect 35 1 37 1;
#X connect 36 0 37 0;
#X connect 37 0 34 0;
#X connect 38 0 50 0;
#X connect 39 0 38 1;
#X connect 40 0 41 0;
#X connect 40 1 42 1;
#X connect 41 0 42 0;
#X connect 42 0 39 0;
#X connect 43 0 51 0;
#X connect 44 0 43 1;
#X connect 45 0 46 0;
#X connect 45 1 47 1;
#X connect 46 0 47 0;
#X connect 47 0 44 0;
#X connect 52 0 53 0;
#X connect 52 0 59 0;
#X connect 52 0 65 0;
#X connect 52 0 70 0;
#X connect 52 0 77 0;
#X connect 52 0 82 0;
#X connect 52 0 87 0;
#X connect 52 0 92 0;
#X connect 53 0 58 0;
#X connect 54 0 53 1;
#X connect 55 0 56 0;
#X connect 55 1 57 1;
#X connect 56 0 57 0;
#X connect 57 0 54 0;
#X connect 59 0 64 0;
#X connect 60 0 59 1;
#X connect 61 0 62 0;
#X connect 61 1 63 1;
#X connect 62 0 63 0;
#X connect 63 0 60 0;
#X connect 65 0 75 0;
#X connect 66 0 65 1;
#X connect 67 0 68 0;
#X connect 67 1 69 1;
#X connect 68 0 69 0;
#X connect 69 0 66 0;
#X connect 70 0 76 0;
#X connect 71 0 70 1;
#X connect 72 0 73 0;
#X connect 72 1 74 1;
#X connect 73 0 74 0;
#X connect 74 0 71 0;
#X connect 77 0 97 0;
#X connect 78 0 77 1;
#X connect 79 0 80 0;
#X connect 79 1 81 1;
#X connect 80 0 81 0;
#X connect 81 0 78 0;
#X connect 82 0 98 0;
#X connect 83 0 82 1;
#X connect 84 0 85 0;
#X connect 84 1 86 1;
#X connect 85 0 86 0;
#X connect 86 0 83 0;
#X connect 87 0 99 0;
#X connect 88 0 87 1;
#X connect 89 0 90 0;
#X connect 89 1 91 1;
#X connect 90 0 91 0;
#X connect 91 0 88 0;
#X connect 92 0 100 0;
#X connect 93 0 92 1;
#X connect 94 0 95 0;
#X connect 94 1 96 1;
#X connect 95 0 96 0;
#X connect 96 0 93 0;
#X connect 103 0 5 0;
#X connect 103 1 12 0;
#X connect 103 2 18 0;
#X connect 103 3 23 0;
#X connect 103 4 30 0;
#X connect 103 5 35 0;
#X connect 103 6 40 0;
#X connect 103 7 45 0;
#X connect 104 0 55 0;
#X connect 104 1 61 0;
#X connect 104 2 67 0;
#X connect 104 3 72 0;
#X connect 104 4 79 0;
#X connect 104 5 84 0;
#X connect 104 6 89 0;
#X connect 104 7 94 0;
#X restore 50 473 pd sampler-2out8-matrix2;
#X obj 231 440 env~ 22050;
#X obj 427 479 outlet;
#X msg 427 429 1;
#X msg 359 429 0;
#X text 426 500 play indicator;
#X obj 320 485 spigot;
#X obj 428 238 t b b;
#X obj 320 226 t b b;
#X obj 320 552 print sam_voice~\$1;
#X msg 320 528 I got stopped!;
#X obj -23 546 outlet;
#X msg 390 428 0;
#X text -29 568 filename;
#X msg -10 509 symbol _;
#X text 44 509 clear display;
#X obj 231 503 change;
#X obj 587 205 inlet;
#X obj 585 304 line~;
#X msg 585 282 \$1 20;
#X obj 119 448 *~;
#X obj 49 442 *~;
#X text 536 349 mastervol for this sampler voice;
#X text 632 204 0...1 (rms);
#X connect 0 0 16 0;
#X connect 0 0 36 0;
#X connect 0 1 19 0;
#X connect 0 1 29 0;
#X connect 1 0 5 0;
#X connect 2 0 16 0;
#X connect 2 0 35 0;
#X connect 2 1 19 0;
#X connect 3 0 6 0;
#X connect 4 0 0 0;
#X connect 4 0 2 0;
#X connect 5 0 0 0;
#X connect 6 0 2 0;
#X connect 8 0 12 0;
#X connect 9 0 10 0;
#X connect 10 0 1 0;
#X connect 10 0 26 0;
#X connect 10 1 3 0;
#X connect 11 0 23 0;
#X connect 11 1 22 0;
#X connect 12 0 9 0;
#X connect 12 1 11 0;
#X connect 12 2 15 2;
#X connect 14 0 31 0;
#X connect 16 0 14 0;
#X connect 18 0 17 0;
#X connect 18 0 21 1;
#X connect 19 0 17 0;
#X connect 19 0 21 1;
#X connect 21 0 25 0;
#X connect 22 0 18 0;
#X connect 22 1 2 0;
#X connect 22 1 0 0;
#X connect 23 0 21 0;
#X connect 23 0 27 0;
#X connect 23 0 29 0;
#X connect 23 1 4 0;
#X connect 25 0 24 0;
#X connect 27 0 17 0;
#X connect 29 0 26 0;
#X connect 31 0 13 0;
#X connect 32 0 34 0;
#X connect 33 0 35 1;
#X connect 33 0 36 1;
#X connect 34 0 33 0;
#X connect 35 0 15 1;
#X connect 36 0 15 0;
