#N canvas 304 365 618 404 10;
#X obj 33 276 soundfiler;
#X obj 188 164 makefilename %s-l;
#X obj 207 143 makefilename %s-r;
#X obj 33 234 pack s s s;
#X obj 32 87 symbol \$1;
#X obj 33 298 /;
#X obj 480 128 samplerate~;
#X floatatom 383 351 3 0 0 1 sec - -;
#X obj 32 14 r init_samples;
#X msg 33 255 read -resize \$1 \$2 \$3;
#X obj 364 327 > 0;
#X obj 364 351 tgl 15 0 empty empty empty 17 7 0 10 -262144 -1 -1 1
1;
#X obj 33 318 i;
#X obj 237 31 table \$2-l;
#X obj 237 53 table \$2-r;
#X obj 32 43 t b b b;
#X text 408 18 Arg1 loadpath;
#X text 410 39 Arg2 filename;
#X obj 169 88 symbol \$2;
#X obj 32 191 makefilename --not-set-yet--;
#X msg 47 159 set \$1;
#X obj 47 138 makefilename %%s/%s;
#X obj 169 111 t l l l;
#X connect 0 0 5 0;
#X connect 0 0 10 0;
#X connect 1 0 3 1;
#X connect 2 0 3 2;
#X connect 3 0 9 0;
#X connect 4 0 19 0;
#X connect 5 0 12 0;
#X connect 6 0 5 1;
#X connect 8 0 15 0;
#X connect 9 0 0 0;
#X connect 10 0 11 0;
#X connect 12 0 7 0;
#X connect 15 0 4 0;
#X connect 15 1 18 0;
#X connect 15 2 6 0;
#X connect 18 0 22 0;
#X connect 19 0 3 0;
#X connect 20 0 19 0;
#X connect 21 0 20 0;
#X connect 22 0 21 0;
#X connect 22 1 1 0;
#X connect 22 2 2 0;
#X coords 0 -1 1 1 400 17 1 30 350;
