#N canvas 471 247 462 329 10;
#X obj 243 126 spigot;
#X obj 243 148 print \$1;
#X obj 102 103 tgl 15 0 empty empty empty 17 7 0 10 -262144 -1 -1 0
1;
#X obj 243 104 inlet;
#X text 19 214 2011 by IOhannes Zmoelnig \, released under the GPL2+
\, IEM Graz;
#X connect 0 0 1 0;
#X connect 2 0 0 1;
#X connect 3 0 0 0;
#X coords 0 -1 1 1 85 20 1 100 100;
