#N canvas 252 185 893 539 10;
#X obj 34 38 inlet~;
#X obj 34 460 outlet~;
#X obj 126 40 inlet;
#X obj 84 200 /;
#X obj 255 41 inlet;
#X obj 403 44 inlet;
#X text 404 25 ap-freq hz;
#X obj 264 114 t b f;
#X obj 505 44 inlet;
#X text 506 25 lp-freq hz;
#X msg 612 113 set \$1 1 1;
#X text 257 22 release-time sec;
#X text 127 21 resonance freq hz;
#X obj 610 37 inlet;
#X text 611 18 blocksize samples;
#X obj 611 61 clip 1 64;
#X obj 784 89 inlet;
#X text 786 71 init-bang;
#N canvas 455 29 809 694 small_block_size~_______________ 0;
#X obj 73 112 inlet~;
#X obj 80 588 outlet~;
#X obj 111 540 delwrite~ \$0_delkarplusstrong 100;
#X obj 146 279 all_pass_1p~ 200;
#X obj 146 307 low_pass_1p~ 2000;
#X obj 146 357 line_mul~ 0.9 20;
#X obj 168 115 inlet;
#X obj 234 114 inlet;
#X obj 308 113 inlet;
#X obj 389 111 inlet;
#X obj 641 116 inlet;
#X obj 504 113 inlet;
#X obj 457 158 block~ 4 1 1;
#X obj 146 254 vd~ \$0_delkarplusstrong;
#X obj 145 223 line~;
#X msg 143 197 \$1 20;
#X obj 82 498 high_pass_1p~ 10;
#X msg 165 462 10;
#X obj 291 438 t b b;
#X obj 80 406 +~;
#X connect 0 0 19 0;
#X connect 3 0 4 0;
#X connect 4 0 5 0;
#X connect 5 0 19 1;
#X connect 6 0 15 0;
#X connect 7 0 5 1;
#X connect 8 0 3 1;
#X connect 9 0 4 1;
#X connect 10 0 3 2;
#X connect 10 0 4 2;
#X connect 10 0 5 3;
#X connect 10 0 18 0;
#X connect 11 0 12 0;
#X connect 13 0 3 0;
#X connect 14 0 13 0;
#X connect 15 0 14 0;
#X connect 16 0 1 0;
#X connect 16 0 2 0;
#X connect 17 0 16 1;
#X connect 18 0 17 0;
#X connect 18 1 16 2;
#X connect 19 0 16 0;
#X restore 34 421 pd small_block_size~_______________;
#N canvas 206 74 373 455 two_over_n 0;
#X obj 102 38 inlet;
#X obj 151 357 outlet;
#X obj 153 157 * 2;
#X obj 93 149 until;
#X msg 100 127 7;
#X msg 149 126 2;
#X obj 126 181 f 2;
#X obj 124 249 sel 1;
#X obj 125 204 t f f;
#X obj 152 295 f;
#X obj 152 315 / 2;
#X obj 123 273 t b b;
#X obj 125 227 > 63;
#X obj 100 100 t b f b;
#X connect 0 0 13 0;
#X connect 2 0 6 1;
#X connect 3 0 6 0;
#X connect 4 0 3 0;
#X connect 5 0 6 1;
#X connect 6 0 2 0;
#X connect 6 0 8 0;
#X connect 7 0 11 0;
#X connect 8 0 12 0;
#X connect 8 1 9 1;
#X connect 9 0 10 0;
#X connect 10 0 1 0;
#X connect 11 0 9 0;
#X connect 11 1 3 1;
#X connect 12 0 7 0;
#X connect 13 0 4 0;
#X connect 13 1 12 1;
#X connect 13 2 5 0;
#X restore 611 85 pd two_over_n;
#X obj 125 68 clip 2 11000;
#X obj 403 77 clip 2 22049;
#X obj 505 76 clip 2 22049;
#X obj 255 70 clip 0.0001 10000;
#X msg 84 177 500 \$1;
#X obj 202 198 expr exp(-0.5/($f1*$f2));
#X obj 204 164 f 2;
#X obj 366 172 f 132;
#X connect 0 0 18 0;
#X connect 2 0 20 0;
#X connect 3 0 18 1;
#X connect 4 0 23 0;
#X connect 5 0 21 0;
#X connect 7 0 26 0;
#X connect 7 1 27 0;
#X connect 8 0 22 0;
#X connect 10 0 18 5;
#X connect 13 0 15 0;
#X connect 15 0 19 0;
#X connect 16 0 18 6;
#X connect 16 0 27 0;
#X connect 18 0 1 0;
#X connect 19 0 10 0;
#X connect 20 0 24 0;
#X connect 20 0 7 0;
#X connect 21 0 18 3;
#X connect 22 0 18 4;
#X connect 23 0 26 0;
#X connect 24 0 3 0;
#X connect 25 0 18 2;
#X connect 26 0 25 0;
#X connect 27 0 25 1;
