#N canvas 253 22 720 703 10;
#X obj 26 460 metro \$1;
#X obj 235 12 table \$0-tab;
#X obj 158 245 s \$0-tab;
#X obj 26 503 t b b;
#X obj 115 68 samplerate~;
#X obj 115 91 / 1000;
#X msg 158 224 resize \$1;
#X obj 37 86 inlet;
#X obj 26 149 clip 0 \$1;
#X obj -39 504 inlet~;
#X obj 26 649 tabplay~ \$0-tab;
#X obj 26 607 del \$1;
#X msg 197 564 stop;
#X obj 58 563 tabwrite~ \$0-tab;
#X obj -36 681 outlet~;
#X msg 178 610 0 0;
#X obj 26 416 t b f f b b;
#X msg 220 513 stop;
#X obj 197 487 t b b b;
#X obj 273 561 s \$0-tab;
#X msg 273 539 const 0;
#X obj 26 234 / 64;
#X obj 26 276 i;
#X obj 26 320 * 64;
#X text 75 389 msec;
#X text 61 320 samples;
#X text 55 277 truncate to next lower 64 samples block;
#X text 66 236 blocks;
#X obj 26 388 /;
#X text 38 67 msec;
#X obj 26 41 t b b;
#X obj 26 186 *;
#X text 57 186 samples;
#X obj 26 119 i \$2;
#X obj 125 13 bng 15 250 50 0 empty empty empty 17 7 0 10 -262144 -1
-1;
#X obj 158 202 * \$1;
#X text 231 224 init table length to \$1 argument;
#X obj 115 149 t f f f;
#X obj 26 12 r initbang;
#X connect 0 0 3 0;
#X connect 3 0 11 0;
#X connect 3 1 13 0;
#X connect 4 0 5 0;
#X connect 5 0 37 0;
#X connect 6 0 2 0;
#X connect 7 0 33 0;
#X connect 8 0 31 0;
#X connect 9 0 13 0;
#X connect 10 0 14 0;
#X connect 11 0 10 0;
#X connect 12 0 11 0;
#X connect 15 0 10 0;
#X connect 16 0 0 0;
#X connect 16 1 0 1;
#X connect 16 2 11 1;
#X connect 16 3 15 0;
#X connect 16 4 18 0;
#X connect 17 0 13 0;
#X connect 18 0 12 0;
#X connect 18 1 17 0;
#X connect 18 2 20 0;
#X connect 20 0 19 0;
#X connect 21 0 22 0;
#X connect 22 0 23 0;
#X connect 23 0 28 0;
#X connect 28 0 16 0;
#X connect 30 0 33 0;
#X connect 30 1 4 0;
#X connect 31 0 21 0;
#X connect 33 0 8 0;
#X connect 34 0 30 0;
#X connect 35 0 6 0;
#X connect 37 0 31 1;
#X connect 37 1 35 0;
#X connect 37 2 28 1;
#X connect 38 0 30 0;
