#N canvas 0 22 460 430 10;
#X obj 32 329 outlet timeout pingtime;
#X obj 32 87 select 0;
#X obj 32 108 i 500;
#X obj 32 129 t f;
#X obj 32 150 t f f;
#X obj 32 281 pack 0 0;
#X obj 32 66 i \$1;
#X obj 77 181 / 3;
#X obj 32 28 inlet init (timeout);
#X text 16 374 2011 by IOhannes Zmoelnig \, released under the GPL2+
\, IEM Graz;
#X connect 1 0 2 0;
#X connect 1 1 3 0;
#X connect 2 0 3 0;
#X connect 3 0 4 0;
#X connect 4 0 5 0;
#X connect 4 1 7 0;
#X connect 5 0 0 0;
#X connect 6 0 1 0;
#X connect 7 0 5 1;
#X connect 8 0 6 0;
