#N canvas 0 22 494 356 10;
#X obj 60 271 outlet data;
#X obj 226 270 outlet IP;
#X obj 60 11 inlet;
#X obj 60 199 netreceive \$1 1;
#X obj 60 220 t a b;
#X obj 226 245 symbol \$2;
#X obj 277 224 symbol;
#X obj 60 77 == \$1;
#X obj 60 121 pack \$1 0;
#X msg 60 143 requested receiver-port \$2 != \$1;
#X obj 60 165 print ERROR;
#X obj 60 55 t f f;
#X obj 60 33 route receiver_port sender_address;
#X obj 60 99 select 0;
#X text 24 304 2011 by IOhannes Zmoelnig \, released under the GPL2+
\, IEM Graz;
#X connect 2 0 12 0;
#X connect 3 0 4 0;
#X connect 4 0 0 0;
#X connect 4 1 5 0;
#X connect 5 0 1 0;
#X connect 6 0 5 1;
#X connect 7 0 13 0;
#X connect 8 0 9 0;
#X connect 9 0 10 0;
#X connect 11 0 7 0;
#X connect 11 1 8 1;
#X connect 12 0 11 0;
#X connect 12 1 6 0;
#X connect 13 0 8 0;
