#N canvas 0 0 772 552 10;
#X obj 391 56 inlet;
#X obj 162 478 outlet~;
#X obj 249 64 inlet;
#X text 243 48 init-bang;
#X text 391 40 route parameters;
#X text 242 35 from prev;
#X obj 462 202 / 6.28319;
#X obj 513 178 expr 8*atan(1);
#X obj 129 66 inlet;
#X text 127 50 dummy;
#X obj 163 405 phasor~;
#X obj 262 481 outlet~;
#X obj 522 236 * 1000;
#X obj 374 479 outlet;
#X obj 495 475 outlet;
#X text 379 497 init;
#X text 489 491 rejected;
#N canvas 525 135 382 330 wrap 0;
#X obj 97 42 inlet;
#X obj 107 182 outlet;
#X obj 107 156 -;
#X obj 98 66 t f f;
#X obj 126 100 i;
#X obj 71 100 moses 0;
#X obj 71 124 + 1;
#X connect 0 0 3 0;
#X connect 2 0 1 0;
#X connect 3 0 5 0;
#X connect 3 1 4 0;
#X connect 4 0 2 1;
#X connect 5 0 6 0;
#X connect 5 1 2 0;
#X connect 6 0 2 0;
#X restore 205 320 pd wrap;
#X obj 391 105 route frequency phase portamentoTime;
#X text 308 320 should be changed to wrap (since pd-0.42);
#X text 609 176 2*pi;
#X text 245 499 signal frequency;
#X obj 164 182 clip 20 20000;
#X obj 164 366 line~;
#X obj 249 93 t b b;
#X text 221 270 ???;
#X obj 164 213 pack 440 20;
#X obj 182 236 unpack 0 0;
#X obj 178 272 f 440;
#X connect 0 0 18 0;
#X connect 2 0 24 0;
#X connect 6 0 17 0;
#X connect 7 0 6 1;
#X connect 10 0 1 0;
#X connect 12 0 26 1;
#X connect 17 0 10 1;
#X connect 18 0 22 0;
#X connect 18 1 6 0;
#X connect 18 2 12 0;
#X connect 18 3 14 0;
#X connect 22 0 26 0;
#X connect 23 0 10 0;
#X connect 23 0 11 0;
#X connect 24 0 13 0;
#X connect 24 1 7 0;
#X connect 24 1 28 0;
#X connect 26 0 23 0;
#X connect 26 0 27 0;
#X connect 27 0 28 1;
#X connect 28 0 23 0;
