#N canvas 612 212 710 320 10;
#X obj 179 35 inlet;
#X text 292 248 <- prepend the instance id to identify the source instance
to libIntegra;
#X obj 177 284 s integra;
#X obj 179 75 list split 1;
#X obj 177 248 list prepend \$1;
#X obj 177 224 list prepend;
#X obj 179 119 list append \$2;
#X obj 177 183 list;
#X obj 178 148 t b a;
#X connect 0 0 3 0;
#X connect 3 0 6 0;
#X connect 3 1 7 1;
#X connect 4 0 2 0;
#X connect 5 0 4 0;
#X connect 6 0 8 0;
#X connect 7 0 5 0;
#X connect 8 0 7 0;
#X connect 8 1 5 1;
