#N canvas 688 118 712 510 10;
#X obj 135 46 r integra-broadcast-receive;
#X obj 198 363 outlet;
#X obj 253 388 outlet;
#X obj 135 113 route \$1;
#X obj 135 153 route ping init fini;
#X obj 85 310 s integra;
#X obj 135 83 list trim;
#X msg 85 280 list \$1 ping OK;
#X obj 85 251 symbol \$1;
#X text 185 385 init-bang;
#X text 248 407 fini-bang;
#X obj 198 336 t b;
#X obj 253 333 t b;
#X obj 316 412 outlet;
#X text 45 332 talk back to integra;
#X obj 85 221 t b;
#X text 311 432 further parameter or commands from integra;
#X text 342 211 1.) initial argument: <float> unique id;
#X text 318 46 integra port : receives parameter attributes from integra
;
#X connect 0 0 6 0;
#X connect 3 0 4 0;
#X connect 4 0 15 0;
#X connect 4 1 11 0;
#X connect 4 2 12 0;
#X connect 4 3 13 0;
#X connect 6 0 3 0;
#X connect 7 0 5 0;
#X connect 8 0 7 0;
#X connect 11 0 1 0;
#X connect 12 0 2 0;
#X connect 15 0 8 0;
