#N canvas 68 105 1271 464 10;
#X obj 55 47 inlet~;
#X obj 55 282 outlet~;
#X obj 747 279 outlet;
#X obj 785 33 inlet;
#X obj 647 44 inlet;
#X text 644 27 init-bang;
#X text 785 14 route parameters;
#X text 21 28 from post-processor;
#X obj 919 279 outlet;
#X text 918 298 rejected parameters;
#X obj 827 278 outlet;
#X text 817 313 init-bang;
#X text 823 300 to next;
#X text 645 14 from prev;
#X text 742 313 switch~;
#X text 739 299 to object;
#X text 47 303 signal out;
#X text 998 160 parameters will be passed through.;
#X text 993 32 This abstraction handles the parameters;
#X text 994 49 of the class module (active) and;
#X text 992 67 switches on and off the DSP performance;
#X text 994 85 of the whole parent module.;
#X text 997 120 Init-bang will be passed through.;
#X text 997 139 Active will be routed here \, other;
#X obj 115 47 inlet~;
#X obj 115 282 outlet~;
#X text 916 188 1.) initial argument: <float> parent unique number
;
#X obj 175 47 inlet~;
#X obj 175 282 outlet~;
#X obj 235 47 inlet~;
#X obj 235 282 outlet~;
#X text 1006 215 Thomas Musil \, 11.11.2009;
#X obj 785 55 route active;
#X obj 55 78 ../generics/line_mul~ 0 20;
#X obj 115 105 ../generics/line_mul~ 0 20;
#X obj 175 127 ../generics/line_mul~ 0 20;
#X obj 235 153 ../generics/line_mul~ 0 20;
#X obj 647 74 t b b;
#X obj 295 47 inlet~;
#X obj 295 282 outlet~;
#X obj 355 47 inlet~;
#X obj 355 282 outlet~;
#X obj 415 47 inlet~;
#X obj 415 282 outlet~;
#X obj 475 47 inlet~;
#X obj 475 282 outlet~;
#X obj 295 178 ../generics/line_mul~ 0 20;
#X obj 355 202 ../generics/line_mul~ 0 20;
#X obj 415 227 ../generics/line_mul~ 0 20;
#X obj 475 253 ../generics/line_mul~ 0 20;
#N canvas 0 22 438 380 handle_active 0;
#X obj 225 231 del 20;
#X msg 225 257 0;
#X msg 329 257 1;
#X msg 110 254 0;
#X msg 173 257 1;
#X obj 225 332 outlet;
#X obj 225 281 spigot;
#X msg 263 258 0;
#X msg 293 258 1;
#X obj 91 113 t b b b;
#X obj 91 66 sel 0 1;
#X obj 173 115 t b b b;
#X obj 110 332 outlet;
#X obj 91 31 inlet;
#X connect 0 0 1 0;
#X connect 1 0 6 0;
#X connect 2 0 5 0;
#X connect 3 0 12 0;
#X connect 4 0 12 0;
#X connect 6 0 5 0;
#X connect 7 0 6 1;
#X connect 8 0 6 1;
#X connect 9 0 0 0;
#X connect 9 1 3 0;
#X connect 9 2 8 0;
#X connect 10 0 9 0;
#X connect 10 1 11 0;
#X connect 11 0 4 0;
#X connect 11 1 2 0;
#X connect 11 2 7 0;
#X connect 13 0 10 0;
#X restore 785 85 pd handle_active;
#X connect 0 0 33 0;
#X connect 3 0 32 0;
#X connect 4 0 37 0;
#X connect 24 0 34 0;
#X connect 27 0 35 0;
#X connect 29 0 36 0;
#X connect 32 0 50 0;
#X connect 32 1 8 0;
#X connect 33 0 1 0;
#X connect 34 0 25 0;
#X connect 35 0 28 0;
#X connect 36 0 30 0;
#X connect 37 0 10 0;
#X connect 37 1 33 3;
#X connect 37 1 34 3;
#X connect 37 1 35 3;
#X connect 37 1 36 3;
#X connect 37 1 49 3;
#X connect 37 1 48 3;
#X connect 37 1 47 3;
#X connect 37 1 46 3;
#X connect 38 0 46 0;
#X connect 40 0 47 0;
#X connect 42 0 48 0;
#X connect 44 0 49 0;
#X connect 46 0 39 0;
#X connect 47 0 41 0;
#X connect 48 0 43 0;
#X connect 49 0 45 0;
#X connect 50 0 49 1;
#X connect 50 0 48 1;
#X connect 50 0 47 1;
#X connect 50 0 46 1;
#X connect 50 0 36 1;
#X connect 50 0 35 1;
#X connect 50 0 34 1;
#X connect 50 0 33 1;
#X connect 50 1 2 0;
