#N canvas 152 55 1152 557 10;
#X obj 18 441 outlet~;
#X obj 567 41 inlet;
#X obj 19 42 inlet~;
#X obj 657 27 inlet;
#X text 657 11 route parameters;
#X text 560 23 init-bang;
#X text 773 460 rejected parameters;
#X obj 776 442 outlet;
#X text 16 463 to active-module;
#X msg 690 174 1;
#X msg 725 174 0;
#X obj 695 127 sel 0;
#X obj 722 150 t b;
#X obj 618 440 outlet;
#X text 608 469 init-bang;
#X text 851 66 Init-bang will be passed through.;
#X obj 620 137 clip 0 4;
#X text 636 119 range;
#X text 561 10 from prev;
#X text 616 458 to next;
#X text 851 85 Out-level will be routed here \,;
#X text 850 121 Other parameters will be passed through.;
#X text 612 312 multiply mute and inv. bypass;
#X text 851 29 This abstraction handles the parameters;
#X text 852 45 of the class generator (mute \, out-level).;
#X text 851 102 mute will be routed here \, too.;
#X obj 635 209 t b f;
#X obj 621 258 * 1;
#X obj 620 233 f 1;
#X text 14 22 from generator;
#X text 797 149 1.) initial argument: <float> parent unique number
;
#X text 843 163 its like a pd module ID;
#X obj 78 441 outlet~;
#X obj 79 42 inlet~;
#X obj 138 441 outlet~;
#X obj 139 42 inlet~;
#X obj 198 441 outlet~;
#X obj 199 42 inlet~;
#X obj 657 59 route mute outLevel;
#X obj 19 142 ../generics/line_mul~ 1 20;
#X obj 79 172 ../generics/line_mul~ 1 20;
#X obj 139 202 ../generics/line_mul~ 1 20;
#X obj 199 232 ../generics/line_mul~ 1 20;
#X obj 567 71 t b b;
#X text 847 207 Thomas Musil \, 28.09.2010;
#X obj 258 441 outlet~;
#X obj 259 42 inlet~;
#X text 185 144 mute and out-level-gain;
#X obj 318 441 outlet~;
#X obj 319 42 inlet~;
#X obj 378 441 outlet~;
#X obj 379 42 inlet~;
#X obj 438 441 outlet~;
#X obj 439 42 inlet~;
#X obj 259 272 ../generics/line_mul~ 1 20;
#X obj 319 302 ../generics/line_mul~ 1 20;
#X obj 379 332 ../generics/line_mul~ 1 20;
#X obj 439 362 ../generics/line_mul~ 1 20;
#X connect 1 0 43 0;
#X connect 2 0 39 0;
#X connect 3 0 38 0;
#X connect 9 0 26 0;
#X connect 10 0 26 0;
#X connect 11 0 9 0;
#X connect 11 1 12 0;
#X connect 12 0 10 0;
#X connect 16 0 28 0;
#X connect 26 0 28 0;
#X connect 26 1 27 1;
#X connect 27 0 39 1;
#X connect 27 0 40 1;
#X connect 27 0 41 1;
#X connect 27 0 42 1;
#X connect 27 0 54 1;
#X connect 27 0 55 1;
#X connect 27 0 56 1;
#X connect 27 0 57 1;
#X connect 28 0 27 0;
#X connect 33 0 40 0;
#X connect 35 0 41 0;
#X connect 37 0 42 0;
#X connect 38 0 11 0;
#X connect 38 1 16 0;
#X connect 38 2 7 0;
#X connect 39 0 0 0;
#X connect 40 0 32 0;
#X connect 41 0 34 0;
#X connect 42 0 36 0;
#X connect 43 0 13 0;
#X connect 43 1 39 3;
#X connect 43 1 40 3;
#X connect 43 1 41 3;
#X connect 43 1 42 3;
#X connect 43 1 54 3;
#X connect 43 1 55 3;
#X connect 43 1 56 3;
#X connect 43 1 57 3;
#X connect 46 0 54 0;
#X connect 49 0 55 0;
#X connect 51 0 56 0;
#X connect 53 0 57 0;
#X connect 54 0 45 0;
#X connect 55 0 48 0;
#X connect 56 0 50 0;
#X connect 57 0 52 0;
