#N canvas 35 33 1348 819 10;
#X obj 17 772 outlet~;
#X obj 16 750 +~;
#X text 924 99 out-level-gain;
#X obj 881 42 inlet;
#X text 1096 171 bypass path;
#X msg 1044 144 0;
#X obj 1057 93 sel 0;
#X obj 1090 116 t b;
#X text 448 21 from effect;
#X obj 447 59 inlet~;
#X obj 17 61 inlet~;
#X obj 971 32 inlet;
#X text 971 16 route parameters;
#X text 874 24 init-bang;
#X text 1049 628 rejected parameters;
#X obj 1052 610 outlet;
#X text 90 826 to active-module;
#X msg 880 361 1;
#X msg 1081 143 1;
#X text 1117 198 inverted bypass path;
#X msg 1082 198 0;
#X msg 1045 198 1;
#X obj 1035 242 t b f;
#X text 471 503 inverted bypass path;
#X text 473 487 mute-gain and;
#X obj 881 424 * 1;
#X obj 880 399 f 1;
#X msg 915 361 0;
#X obj 879 311 sel 0;
#X obj 916 335 t b;
#X obj 913 608 outlet;
#X text 903 637 init-bang;
#X text 1113 345 of parameters of the class processor;
#X text 1112 416 Init-bang will be passed through.;
#X obj 819 106 clip 0 4;
#X text 929 116 range;
#X text 810 310 range;
#X text 100 324 mix;
#X text 875 11 from prev;
#X text 911 626 to next;
#X text 368 26 dry path;
#X text 354 10 bypass path;
#X text 1112 329 This abstraction handles the second part;
#X text 1110 364 (mix \, mute \, bypass \, out-level) and;
#X text 1113 381 and merges the signals of dry path and;
#X text 1113 398 effect path together.;
#X text 1112 435 Out-level will be routed here \,;
#X text 1113 451 mix will be routed here \,;
#X text 1112 469 also mute and bypass are routed here \,;
#X text 1116 491 bypass overrules mute. !!!!!;
#X text 1111 514 Other parameters will be passed through.;
#X text 711 409 multiply mute and inv. bypass;
#X obj 71 772 outlet~;
#X obj 71 747 +~;
#X obj 490 59 inlet~;
#X obj 67 62 inlet~;
#X text 1049 545 1.) initial argument: <float> parent unique number
;
#X text 1095 559 its like a pd module ID;
#X obj 971 64 route mix mute bypass outLevel;
#X obj 25 691 ../generics/line_mul~ 1 20;
#X obj 69 670 ../generics/line_mul~ 1 20;
#X obj 43 559 ../generics/line_mul~ 0 20;
#X obj 98 476 ../generics/line_mul~ 0 20;
#X obj 17 533 ../generics/line_mul~ 1 20;
#X obj 70 451 ../generics/line_mul~ 1 20;
#X obj 881 70 t b b;
#X text 453 41 1;
#X text 506 41 2;
#X obj 535 58 inlet~;
#X obj 579 58 inlet~;
#X obj 112 648 ../generics/line_mul~ 1 20;
#X obj 154 627 ../generics/line_mul~ 1 20;
#X text 550 40 3;
#X text 593 40 4;
#X text 16 792 1;
#X text 71 790 2;
#X obj 125 773 outlet~;
#X obj 125 749 +~;
#X obj 179 775 outlet~;
#X obj 179 750 +~;
#X text 271 831 to active-module;
#X obj 122 372 ../generics/line_mul~ 1 20;
#X obj 178 296 ../generics/line_mul~ 1 20;
#X text 122 791 3;
#X text 179 793 4;
#N canvas 90 155 799 497 mix_________________________ 0;
#X obj 71 370 outlet~;
#X obj 126 75 inlet~;
#X obj 54 75 inlet~;
#X text 136 57 wet;
#X text 67 55 dry;
#X text 77 394 mix;
#X obj 376 72 inlet;
#X obj 408 276 sin;
#X obj 315 273 cos;
#X obj 408 297 clip 0 1;
#X obj 315 295 clip 0 1;
#X obj 376 209 * 1.5708;
#X obj 73 299 +~;
#X text 352 50 0..dry \, 1..wet;
#X text 159 360 The signal will be mixed by multiplying with the first
quater of a sine resp. cosine wave. That means in the middle (with
0.5) there will be -3 dB on wet and ond dry signal.;
#X text 296 160 mix-gain wet;
#X text 220 214 mix-gain dry;
#X obj 430 182 expr 2*atan(1);
#X text 528 180 pi/2;
#X obj 126 162 ../generics/line_mul~ 1 20;
#X obj 54 215 ../generics/line_mul~ 0 20;
#X obj 636 63 inlet;
#X text 635 44 init-bang;
#X obj 637 87 t b b;
#X connect 1 0 19 0;
#X connect 2 0 20 0;
#X connect 6 0 11 0;
#X connect 7 0 9 0;
#X connect 8 0 10 0;
#X connect 9 0 19 1;
#X connect 10 0 20 1;
#X connect 11 0 7 0;
#X connect 11 0 8 0;
#X connect 12 0 0 0;
#X connect 17 0 11 1;
#X connect 19 0 12 1;
#X connect 20 0 12 0;
#X connect 21 0 23 0;
#X connect 23 0 17 0;
#X connect 23 1 19 3;
#X connect 23 1 20 3;
#X restore 17 504 pd mix_________________________;
#N canvas 104 157 936 437 mix________________________ 0;
#X obj 71 370 outlet~;
#X obj 126 75 inlet~;
#X obj 54 75 inlet~;
#X text 136 57 wet;
#X text 67 55 dry;
#X text 77 394 mix;
#X obj 381 68 inlet;
#X obj 413 272 sin;
#X obj 320 269 cos;
#X obj 413 293 clip 0 1;
#X obj 320 291 clip 0 1;
#X obj 381 212 * 1.5708;
#X obj 73 299 +~;
#X text 357 46 0..dry \, 1..wet;
#X text 172 356 The signal will be mixed by multiplying with the first
quater of a sine resp. cosine wave. That means in the middle (with
0.5) there will be -3 dB on wet and ond dry signal.;
#X text 299 160 mix-gain wet;
#X text 223 215 mix-gain dry;
#X obj 435 180 expr 2*atan(1);
#X text 533 178 pi/2;
#X obj 127 162 ../generics/line_mul~ 1 20;
#X obj 54 215 ../generics/line_mul~ 0 20;
#X obj 667 57 inlet;
#X text 666 38 init-bang;
#X obj 667 81 t b b;
#X connect 1 0 19 0;
#X connect 2 0 20 0;
#X connect 6 0 11 0;
#X connect 7 0 9 0;
#X connect 8 0 10 0;
#X connect 9 0 19 1;
#X connect 10 0 20 1;
#X connect 11 0 7 0;
#X connect 11 0 8 0;
#X connect 12 0 0 0;
#X connect 17 0 11 1;
#X connect 19 0 12 1;
#X connect 20 0 12 0;
#X connect 21 0 23 0;
#X connect 23 0 17 0;
#X connect 23 1 19 3;
#X connect 23 1 20 3;
#X restore 70 425 pd mix________________________;
#X obj 120 61 inlet~;
#X obj 170 61 inlet~;
#X text 15 23 dry path;
#X text 15 7 bypass path;
#X obj 149 398 ../generics/line_mul~ 0 20;
#X obj 205 323 ../generics/line_mul~ 0 20;
#N canvas 90 155 799 497 mix_________________________ 0;
#X obj 71 370 outlet~;
#X obj 126 75 inlet~;
#X obj 54 75 inlet~;
#X text 136 57 wet;
#X text 67 55 dry;
#X text 77 394 mix;
#X obj 376 72 inlet;
#X obj 408 276 sin;
#X obj 315 273 cos;
#X obj 408 297 clip 0 1;
#X obj 315 295 clip 0 1;
#X obj 376 209 * 1.5708;
#X obj 73 299 +~;
#X text 352 50 0..dry \, 1..wet;
#X text 159 360 The signal will be mixed by multiplying with the first
quater of a sine resp. cosine wave. That means in the middle (with
0.5) there will be -3 dB on wet and ond dry signal.;
#X text 296 160 mix-gain wet;
#X text 220 214 mix-gain dry;
#X obj 430 182 expr 2*atan(1);
#X text 528 180 pi/2;
#X obj 126 162 ../generics/line_mul~ 1 20;
#X obj 54 215 ../generics/line_mul~ 0 20;
#X obj 636 63 inlet;
#X text 635 44 init-bang;
#X obj 637 87 t b b;
#X connect 1 0 19 0;
#X connect 2 0 20 0;
#X connect 6 0 11 0;
#X connect 7 0 9 0;
#X connect 8 0 10 0;
#X connect 9 0 19 1;
#X connect 10 0 20 1;
#X connect 11 0 7 0;
#X connect 11 0 8 0;
#X connect 12 0 0 0;
#X connect 17 0 11 1;
#X connect 19 0 12 1;
#X connect 20 0 12 0;
#X connect 21 0 23 0;
#X connect 23 0 17 0;
#X connect 23 1 19 3;
#X connect 23 1 20 3;
#X restore 122 347 pd mix_________________________;
#N canvas 104 157 936 437 mix________________________ 0;
#X obj 71 370 outlet~;
#X obj 126 75 inlet~;
#X obj 54 75 inlet~;
#X text 136 57 wet;
#X text 67 55 dry;
#X text 77 394 mix;
#X obj 381 68 inlet;
#X obj 413 272 sin;
#X obj 320 269 cos;
#X obj 413 293 clip 0 1;
#X obj 320 291 clip 0 1;
#X obj 381 212 * 1.5708;
#X obj 73 299 +~;
#X text 357 46 0..dry \, 1..wet;
#X text 172 356 The signal will be mixed by multiplying with the first
quater of a sine resp. cosine wave. That means in the middle (with
0.5) there will be -3 dB on wet and ond dry signal.;
#X text 299 160 mix-gain wet;
#X text 223 215 mix-gain dry;
#X obj 435 180 expr 2*atan(1);
#X text 533 178 pi/2;
#X obj 127 162 ../generics/line_mul~ 1 20;
#X obj 54 215 ../generics/line_mul~ 0 20;
#X obj 667 57 inlet;
#X text 666 38 init-bang;
#X obj 668 79 t b b;
#X connect 1 0 19 0;
#X connect 2 0 20 0;
#X connect 6 0 11 0;
#X connect 7 0 9 0;
#X connect 8 0 10 0;
#X connect 9 0 19 1;
#X connect 10 0 20 1;
#X connect 11 0 7 0;
#X connect 11 0 8 0;
#X connect 12 0 0 0;
#X connect 17 0 11 1;
#X connect 19 0 12 1;
#X connect 20 0 12 0;
#X connect 21 0 23 0;
#X connect 23 0 17 0;
#X connect 23 1 19 3;
#X connect 23 1 20 3;
#X restore 178 271 pd mix________________________;
#X text 29 42 1;
#X text 81 45 2;
#X text 136 44 3;
#X text 182 44 4;
#X obj 795 502 t b;
#X obj 720 508 t f;
#X obj 713 370 t b;
#X obj 749 595 t f;
#X obj 670 279 t b;
#X obj 919 180 t b;
#X obj 755 308 clip 0 1;
#X obj 230 772 outlet~;
#X obj 229 748 +~;
#X obj 230 61 inlet~;
#X obj 284 772 outlet~;
#X obj 283 748 +~;
#X obj 280 62 inlet~;
#X obj 256 559 ../generics/line_mul~ 0 20;
#X obj 311 476 ../generics/line_mul~ 0 20;
#X obj 230 533 ../generics/line_mul~ 1 20;
#X obj 283 451 ../generics/line_mul~ 1 20;
#X obj 338 773 outlet~;
#X obj 338 747 +~;
#X obj 392 775 outlet~;
#X obj 392 753 +~;
#X obj 335 372 ../generics/line_mul~ 1 20;
#X obj 391 296 ../generics/line_mul~ 1 20;
#N canvas 90 155 799 497 mix_________________________ 0;
#X obj 71 370 outlet~;
#X obj 126 75 inlet~;
#X obj 54 75 inlet~;
#X text 136 57 wet;
#X text 67 55 dry;
#X text 77 394 mix;
#X obj 376 72 inlet;
#X obj 408 276 sin;
#X obj 315 273 cos;
#X obj 408 297 clip 0 1;
#X obj 315 295 clip 0 1;
#X obj 376 209 * 1.5708;
#X obj 73 299 +~;
#X text 352 50 0..dry \, 1..wet;
#X text 159 360 The signal will be mixed by multiplying with the first
quater of a sine resp. cosine wave. That means in the middle (with
0.5) there will be -3 dB on wet and ond dry signal.;
#X text 296 160 mix-gain wet;
#X text 220 214 mix-gain dry;
#X obj 430 182 expr 2*atan(1);
#X text 528 180 pi/2;
#X obj 126 162 ../generics/line_mul~ 1 20;
#X obj 54 215 ../generics/line_mul~ 0 20;
#X obj 636 63 inlet;
#X text 635 44 init-bang;
#X obj 637 87 t b b;
#X connect 1 0 19 0;
#X connect 2 0 20 0;
#X connect 6 0 11 0;
#X connect 7 0 9 0;
#X connect 8 0 10 0;
#X connect 9 0 19 1;
#X connect 10 0 20 1;
#X connect 11 0 7 0;
#X connect 11 0 8 0;
#X connect 12 0 0 0;
#X connect 17 0 11 1;
#X connect 19 0 12 1;
#X connect 20 0 12 0;
#X connect 21 0 23 0;
#X connect 23 0 17 0;
#X connect 23 1 19 3;
#X connect 23 1 20 3;
#X restore 230 504 pd mix_________________________;
#N canvas 104 157 936 437 mix________________________ 0;
#X obj 71 370 outlet~;
#X obj 126 75 inlet~;
#X obj 54 75 inlet~;
#X text 136 57 wet;
#X text 67 55 dry;
#X text 77 394 mix;
#X obj 381 68 inlet;
#X obj 413 272 sin;
#X obj 320 269 cos;
#X obj 413 293 clip 0 1;
#X obj 320 291 clip 0 1;
#X obj 381 212 * 1.5708;
#X obj 73 299 +~;
#X text 357 46 0..dry \, 1..wet;
#X text 172 356 The signal will be mixed by multiplying with the first
quater of a sine resp. cosine wave. That means in the middle (with
0.5) there will be -3 dB on wet and ond dry signal.;
#X text 299 160 mix-gain wet;
#X text 223 215 mix-gain dry;
#X obj 435 180 expr 2*atan(1);
#X text 533 178 pi/2;
#X obj 127 162 ../generics/line_mul~ 1 20;
#X obj 54 215 ../generics/line_mul~ 0 20;
#X obj 667 57 inlet;
#X text 666 38 init-bang;
#X obj 667 81 t b b;
#X connect 1 0 19 0;
#X connect 2 0 20 0;
#X connect 6 0 11 0;
#X connect 7 0 9 0;
#X connect 8 0 10 0;
#X connect 9 0 19 1;
#X connect 10 0 20 1;
#X connect 11 0 7 0;
#X connect 11 0 8 0;
#X connect 12 0 0 0;
#X connect 17 0 11 1;
#X connect 19 0 12 1;
#X connect 20 0 12 0;
#X connect 21 0 23 0;
#X connect 23 0 17 0;
#X connect 23 1 19 3;
#X connect 23 1 20 3;
#X restore 283 425 pd mix________________________;
#X obj 333 61 inlet~;
#X obj 391 61 inlet~;
#X obj 362 398 ../generics/line_mul~ 0 20;
#X obj 418 323 ../generics/line_mul~ 0 20;
#N canvas 90 155 799 497 mix_________________________ 0;
#X obj 71 370 outlet~;
#X obj 126 75 inlet~;
#X obj 54 75 inlet~;
#X text 136 57 wet;
#X text 67 55 dry;
#X text 77 394 mix;
#X obj 376 72 inlet;
#X obj 408 276 sin;
#X obj 315 273 cos;
#X obj 408 297 clip 0 1;
#X obj 315 295 clip 0 1;
#X obj 376 209 * 1.5708;
#X obj 73 299 +~;
#X text 352 50 0..dry \, 1..wet;
#X text 159 360 The signal will be mixed by multiplying with the first
quater of a sine resp. cosine wave. That means in the middle (with
0.5) there will be -3 dB on wet and ond dry signal.;
#X text 296 160 mix-gain wet;
#X text 220 214 mix-gain dry;
#X obj 430 182 expr 2*atan(1);
#X text 528 180 pi/2;
#X obj 126 162 ../generics/line_mul~ 1 20;
#X obj 54 215 ../generics/line_mul~ 0 20;
#X obj 636 63 inlet;
#X text 635 44 init-bang;
#X obj 637 87 t b b;
#X connect 1 0 19 0;
#X connect 2 0 20 0;
#X connect 6 0 11 0;
#X connect 7 0 9 0;
#X connect 8 0 10 0;
#X connect 9 0 19 1;
#X connect 10 0 20 1;
#X connect 11 0 7 0;
#X connect 11 0 8 0;
#X connect 12 0 0 0;
#X connect 17 0 11 1;
#X connect 19 0 12 1;
#X connect 20 0 12 0;
#X connect 21 0 23 0;
#X connect 23 0 17 0;
#X connect 23 1 19 3;
#X connect 23 1 20 3;
#X restore 335 347 pd mix_________________________;
#N canvas 104 157 936 437 mix________________________ 0;
#X obj 71 370 outlet~;
#X obj 126 75 inlet~;
#X obj 54 75 inlet~;
#X text 136 57 wet;
#X text 67 55 dry;
#X text 77 394 mix;
#X obj 381 68 inlet;
#X obj 413 272 sin;
#X obj 320 269 cos;
#X obj 413 293 clip 0 1;
#X obj 320 291 clip 0 1;
#X obj 381 212 * 1.5708;
#X obj 73 299 +~;
#X text 357 46 0..dry \, 1..wet;
#X text 172 356 The signal will be mixed by multiplying with the first
quater of a sine resp. cosine wave. That means in the middle (with
0.5) there will be -3 dB on wet and ond dry signal.;
#X text 299 160 mix-gain wet;
#X text 223 215 mix-gain dry;
#X obj 435 180 expr 2*atan(1);
#X text 533 178 pi/2;
#X obj 127 162 ../generics/line_mul~ 1 20;
#X obj 54 215 ../generics/line_mul~ 0 20;
#X obj 667 57 inlet;
#X text 666 38 init-bang;
#X obj 668 79 t b b;
#X connect 1 0 19 0;
#X connect 2 0 20 0;
#X connect 6 0 11 0;
#X connect 7 0 9 0;
#X connect 8 0 10 0;
#X connect 9 0 19 1;
#X connect 10 0 20 1;
#X connect 11 0 7 0;
#X connect 11 0 8 0;
#X connect 12 0 0 0;
#X connect 17 0 11 1;
#X connect 19 0 12 1;
#X connect 20 0 12 0;
#X connect 21 0 23 0;
#X connect 23 0 17 0;
#X connect 23 1 19 3;
#X connect 23 1 20 3;
#X restore 391 271 pd mix________________________;
#X obj 825 503 t b;
#X obj 756 508 t f;
#X obj 742 370 t b;
#X obj 785 597 t f;
#X obj 713 282 t b;
#X text 242 42 5;
#X text 294 45 6;
#X text 349 44 7;
#X text 403 44 8;
#X text 229 792 5;
#X text 284 790 6;
#X text 335 791 7;
#X text 392 793 8;
#X obj 624 58 inlet~;
#X obj 667 58 inlet~;
#X obj 201 693 ../generics/line_mul~ 1 20;
#X obj 245 672 ../generics/line_mul~ 1 20;
#X obj 712 57 inlet~;
#X text 714 23 from effect;
#X obj 756 57 inlet~;
#X obj 288 650 ../generics/line_mul~ 1 20;
#X obj 330 629 ../generics/line_mul~ 1 20;
#X text 630 40 5;
#X text 683 40 6;
#X text 727 39 7;
#X text 770 39 8;
#X obj 1021 171 t f;
#X text 1112 593 Thomas Musil \, 14.10.2010;
#X connect 1 0 0 0;
#X connect 3 0 65 0;
#X connect 5 0 156 0;
#X connect 6 0 5 0;
#X connect 6 0 21 0;
#X connect 6 1 7 0;
#X connect 7 0 18 0;
#X connect 7 0 20 0;
#X connect 9 0 85 1;
#X connect 10 0 85 0;
#X connect 10 0 61 0;
#X connect 11 0 58 0;
#X connect 17 0 26 0;
#X connect 18 0 156 0;
#X connect 20 0 22 0;
#X connect 21 0 22 0;
#X connect 22 0 26 0;
#X connect 22 1 25 1;
#X connect 25 0 100 0;
#X connect 25 0 131 0;
#X connect 26 0 25 0;
#X connect 27 0 26 0;
#X connect 28 0 17 0;
#X connect 28 1 29 0;
#X connect 29 0 27 0;
#X connect 34 0 59 1;
#X connect 34 0 60 1;
#X connect 34 0 70 1;
#X connect 34 0 71 1;
#X connect 34 0 145 1;
#X connect 34 0 146 1;
#X connect 34 0 150 1;
#X connect 34 0 151 1;
#X connect 53 0 52 0;
#X connect 54 0 86 1;
#X connect 55 0 86 0;
#X connect 55 0 62 0;
#X connect 58 0 105 0;
#X connect 58 1 28 0;
#X connect 58 2 6 0;
#X connect 58 3 34 0;
#X connect 58 4 15 0;
#X connect 59 0 1 0;
#X connect 60 0 53 0;
#X connect 61 0 1 1;
#X connect 62 0 53 1;
#X connect 63 0 59 0;
#X connect 64 0 60 0;
#X connect 65 0 30 0;
#X connect 65 1 99 0;
#X connect 65 1 103 0;
#X connect 65 1 104 0;
#X connect 65 1 101 0;
#X connect 65 1 132 0;
#X connect 65 1 134 0;
#X connect 65 1 130 0;
#X connect 68 0 93 1;
#X connect 69 0 94 1;
#X connect 70 0 77 0;
#X connect 71 0 79 0;
#X connect 77 0 76 0;
#X connect 79 0 78 0;
#X connect 81 0 70 0;
#X connect 82 0 71 0;
#X connect 85 0 63 0;
#X connect 86 0 64 0;
#X connect 87 0 93 0;
#X connect 87 0 91 0;
#X connect 88 0 94 0;
#X connect 88 0 92 0;
#X connect 91 0 77 1;
#X connect 92 0 79 1;
#X connect 93 0 81 0;
#X connect 94 0 82 0;
#X connect 99 0 82 3;
#X connect 99 0 81 3;
#X connect 99 0 64 3;
#X connect 99 0 63 3;
#X connect 100 0 63 1;
#X connect 100 0 64 1;
#X connect 100 0 81 1;
#X connect 100 0 82 1;
#X connect 101 0 92 3;
#X connect 101 0 91 3;
#X connect 101 0 62 3;
#X connect 101 0 61 3;
#X connect 102 0 92 1;
#X connect 102 0 91 1;
#X connect 102 0 62 1;
#X connect 102 0 61 1;
#X connect 103 0 94 3;
#X connect 103 0 93 3;
#X connect 103 0 86 3;
#X connect 103 0 85 3;
#X connect 104 0 71 3;
#X connect 104 0 70 3;
#X connect 104 0 60 3;
#X connect 104 0 59 3;
#X connect 104 0 145 3;
#X connect 104 0 146 3;
#X connect 104 0 150 3;
#X connect 104 0 151 3;
#X connect 105 0 94 2;
#X connect 105 0 93 2;
#X connect 105 0 86 2;
#X connect 105 0 85 2;
#X connect 105 0 129 2;
#X connect 105 0 128 2;
#X connect 105 0 123 2;
#X connect 105 0 122 2;
#X connect 107 0 106 0;
#X connect 108 0 122 0;
#X connect 108 0 112 0;
#X connect 110 0 109 0;
#X connect 111 0 123 0;
#X connect 111 0 113 0;
#X connect 112 0 107 1;
#X connect 113 0 110 1;
#X connect 114 0 145 0;
#X connect 115 0 146 0;
#X connect 117 0 116 0;
#X connect 119 0 118 0;
#X connect 120 0 150 0;
#X connect 121 0 151 0;
#X connect 122 0 114 0;
#X connect 123 0 115 0;
#X connect 124 0 128 0;
#X connect 124 0 126 0;
#X connect 125 0 129 0;
#X connect 125 0 127 0;
#X connect 126 0 117 1;
#X connect 127 0 119 1;
#X connect 128 0 120 0;
#X connect 129 0 121 0;
#X connect 130 0 121 3;
#X connect 130 0 120 3;
#X connect 130 0 115 3;
#X connect 130 0 114 3;
#X connect 131 0 114 1;
#X connect 131 0 115 1;
#X connect 131 0 120 1;
#X connect 131 0 121 1;
#X connect 132 0 127 3;
#X connect 132 0 126 3;
#X connect 132 0 113 3;
#X connect 132 0 112 3;
#X connect 133 0 127 1;
#X connect 133 0 126 1;
#X connect 133 0 113 1;
#X connect 133 0 112 1;
#X connect 134 0 129 3;
#X connect 134 0 128 3;
#X connect 134 0 123 3;
#X connect 134 0 122 3;
#X connect 143 0 122 1;
#X connect 144 0 123 1;
#X connect 145 0 107 0;
#X connect 146 0 110 0;
#X connect 147 0 128 1;
#X connect 149 0 129 1;
#X connect 150 0 117 0;
#X connect 151 0 119 0;
#X connect 156 0 102 0;
#X connect 156 0 133 0;
