#N canvas 271 216 974 450 10;
#X obj 348 47 inlet;
#X obj 22 42 inlet~;
#X obj 309 315 outlet~;
#X text 325 261 in-level-gain;
#X obj 245 42 inlet;
#X obj 22 312 outlet~;
#X text 308 335 to effect;
#X obj 348 117 clip 0 4;
#X text 238 24 init-bang;
#X text 346 29 route parameters;
#X obj 515 317 outlet;
#X text 514 341 rejected parameters;
#X obj 418 316 outlet;
#X text 406 353 init-bang;
#X text 22 349 dry path;
#X text 22 333 bypass path;
#X text 411 338 to next;
#X text 238 11 from prev;
#X text 15 21 signal in;
#X text 367 137 range;
#X text 598 45 of parameters of the class processor;
#X text 595 64 (in-level) and splits up the incoming;
#X text 599 82 signal into dry path and effect path.;
#X text 597 29 This abstraction handles the first part;
#X text 601 117 Init-bang will be passed through.;
#X text 601 136 In-level will be routed here \, other;
#X text 602 157 parameters will be passed through.;
#X obj 112 42 inlet~;
#X text 105 21 signal in;
#X text 24 11 left;
#X text 113 8 right;
#X obj 214 315 outlet~;
#X text 213 335 to effect;
#X obj 112 312 outlet~;
#X text 112 349 dry path;
#X text 112 333 bypass path;
#X text 24 369 left;
#X text 113 366 right;
#X text 225 349 left;
#X text 329 346 right;
#X text 576 226 1.) initial argument: <float> parent unique number
;
#X text 622 240 its like a pd module ID;
#X obj 348 88 route inLevel;
#X text 608 267 Thomas Musil \, 11.11.2009;
#X obj 308 242 ../generics/line_mul~ 1 20;
#X obj 214 284 ../generics/line_mul~ 1 20;
#X obj 245 77 t b b;
#X connect 0 0 42 0;
#X connect 1 0 5 0;
#X connect 1 0 45 0;
#X connect 4 0 46 0;
#X connect 7 0 44 1;
#X connect 7 0 45 1;
#X connect 27 0 33 0;
#X connect 27 0 44 0;
#X connect 42 0 7 0;
#X connect 42 1 10 0;
#X connect 44 0 2 0;
#X connect 45 0 31 0;
#X connect 46 0 12 0;
#X connect 46 1 44 3;
#X connect 46 1 45 3;
