#N canvas 152 55 1073 566 10;
#X obj 18 441 outlet~;
#X obj 373 48 inlet;
#X obj 19 42 inlet~;
#X obj 524 45 inlet;
#X text 524 29 route parameters;
#X text 366 30 init-bang;
#X text 620 477 rejected parameters;
#X obj 623 459 outlet;
#X text 16 463 to active-module;
#X msg 465 211 1;
#X msg 500 211 0;
#X obj 530 163 sel 0;
#X obj 527 187 t b;
#X obj 539 456 outlet;
#X text 529 485 init-bang;
#X text 728 79 Init-bang will be passed through.;
#X obj 366 218 clip 0 4;
#X text 379 198 range;
#X text 367 17 from prev;
#X text 537 474 to next;
#X text 728 98 Out-level will be routed here \,;
#X text 727 134 Other parameters will be passed through.;
#X text 204 338 multiply mute and inv. bypass;
#X text 728 42 This abstraction handles the parameters;
#X text 729 58 of the class generator (mute \, out-level).;
#X text 728 115 mute will be routed here \, too.;
#X text 730 213 Thomas Musil \, 22.06.2009;
#X obj 373 250 t b f;
#X obj 359 299 * 1;
#X obj 358 274 f 1;
#X text 317 373 mute and out-level-gain;
#X text 14 22 from generator;
#X obj 148 441 outlet~;
#X obj 149 42 inlet~;
#X text 146 463 to active-module;
#X text 144 22 from generator;
#X text 33 479 left;
#X text 172 479 right;
#X text 33 9 left;
#X text 172 9 right;
#X text 694 162 1.) initial argument: <float> parent unique number
;
#X text 740 176 its like a pd module ID;
#X obj 524 77 route mute outLevel;
#X obj 19 342 ../generics/line_mul~ 1 20;
#X obj 149 372 ../generics/line_mul~ 1 20;
#X obj 373 76 t b b;
#X connect 1 0 45 0;
#X connect 2 0 43 0;
#X connect 3 0 42 0;
#X connect 9 0 27 0;
#X connect 10 0 27 0;
#X connect 11 0 9 0;
#X connect 11 1 12 0;
#X connect 12 0 10 0;
#X connect 16 0 29 0;
#X connect 27 0 29 0;
#X connect 27 1 28 1;
#X connect 28 0 43 1;
#X connect 28 0 44 1;
#X connect 29 0 28 0;
#X connect 33 0 44 0;
#X connect 42 0 11 0;
#X connect 42 1 16 0;
#X connect 42 2 7 0;
#X connect 43 0 0 0;
#X connect 44 0 32 0;
#X connect 45 0 13 0;
#X connect 45 1 43 3;
#X connect 45 1 44 3;
