#N canvas 541 183 475 357 10;
#X obj 107 292 s integra-broadcast-receive;
#X obj 105 17 loadbang;
#X msg 107 246 1 \$1 \$2;
#X obj 105 41 \$1 \$3;
#X obj 106 200 list prepend \$2;
#X obj 105 70 s \$0-receive;
#X obj 106 174 r \$0-send;
#X obj 198 68 s \$0-param;
#X msg 198 46 label \$1;
#X obj 198 19 symbol \$2;
#X obj 100 100 cnv 15 100 50 empty \$0-param parameterThree 2 11 1
12 -233017 -66577 0;
#X obj 100 100 \$1-box \$0;
#X connect 1 0 3 0;
#X connect 1 0 9 0;
#X connect 2 0 0 0;
#X connect 3 0 5 0;
#X connect 4 0 2 0;
#X connect 6 0 4 0;
#X connect 8 0 7 0;
#X connect 9 0 8 0;
#X coords 0 -1 1 1 100 50 2 100 100;
