#N canvas 771 468 860 356 10;
#X obj 21 105 handlers/ntg_receive \$1;
#X obj 21 266 outlet~;
#X text 322 89 parameters: "partial1" .. "partial8" \, type: <float>
\, unit [-];
#X text 321 115 initial-values: 1 \, 0 \, 0 \, 0 \, 0 \, 0 \, 0 \,
0;
#X text 321 126 description: sets the relative amplitude of 8 partials
;
#X text 320 188 parameter: "sustain" \, type: <float> \, unit: [-]
;
#X text 322 21 Additive synthesis module;
#X text 322 33 User can set relative amplitudes of 8 partials;
#X text 322 44 and attack \, decay \, sustain and release parameters.
;
#X text 322 56 Midi input and 12 note polyphony;
#X text 321 139 parameter: "attack" \, type: <float> \, unit: s;
#X text 321 165 parameter: "decay" \, type: <float> \, unit: s;
#X text 319 213 parameter: "release" \, type: <float> \, unit: s;
#X text 321 152 initial-value: 0.005;
#X text 321 178 initial-value: 0.1;
#X text 320 201 initial-value: 0.8;
#X text 319 226 initial-value: 0.2;
#N canvas 49 424 744 410 AddSynth_module 0;
#N canvas 306 480 647 405 AddSynth 0;
#X obj 157 193 pack s 0 0 0 0 0 0 0 0;
#X msg 101 167 partials;
#X msg 346 148 adsr;
#X obj 402 192 pack s 0 0 0 0;
#X obj 90 315 AddSynth_poly;
#X obj 90 348 outlet~;
#X obj 131 37 inlet;
#X obj 62 36 inlet;
#X text -1 36 initbang;
#X text 177 39 integra parameters;
#X obj 392 145 * 1000;
#X obj 433 159 * 1000;
#X obj 490 162 * 1000;
#X msg 154 237 partials 1 0 0 0 0 0 0 0 \, adsr 5 100 0.8 200;
#X obj 232 275 route list;
#X obj 36 189 notein;
#X obj 21 275 route 1;
#X obj 18 251 pack 0 0 0;
#X obj 7 222 expr $i2==$i3 || $i3==0;
#X obj 131 78 route partial1 partial2 partial3 partial4 partial5 partial6
partial7 partial8 attack decay sustain release chNumber test;
#X msg 271 307 69 127;
#X msg 271 351 69 0;
#X obj 360 316 delay 500;
#X connect 0 0 14 0;
#X connect 1 0 0 0;
#X connect 2 0 3 0;
#X connect 3 0 14 0;
#X connect 4 0 5 0;
#X connect 6 0 19 0;
#X connect 7 0 13 0;
#X connect 10 0 3 1;
#X connect 11 0 3 2;
#X connect 12 0 3 4;
#X connect 13 0 4 1;
#X connect 14 0 4 1;
#X connect 15 0 17 1;
#X connect 15 0 18 0;
#X connect 15 1 17 2;
#X connect 15 2 18 1;
#X connect 16 0 4 0;
#X connect 17 0 16 0;
#X connect 18 0 17 0;
#X connect 19 0 0 1;
#X connect 19 0 1 0;
#X connect 19 1 0 2;
#X connect 19 1 1 0;
#X connect 19 2 0 3;
#X connect 19 2 1 0;
#X connect 19 3 0 4;
#X connect 19 3 1 0;
#X connect 19 4 0 5;
#X connect 19 4 1 0;
#X connect 19 5 0 6;
#X connect 19 5 1 0;
#X connect 19 6 0 7;
#X connect 19 6 1 0;
#X connect 19 7 0 8;
#X connect 19 7 1 0;
#X connect 19 8 10 0;
#X connect 19 8 2 0;
#X connect 19 9 11 0;
#X connect 19 9 2 0;
#X connect 19 10 3 3;
#X connect 19 10 2 0;
#X connect 19 11 12 0;
#X connect 19 11 2 0;
#X connect 19 12 18 2;
#X connect 19 13 20 0;
#X connect 19 13 22 0;
#X connect 20 0 4 0;
#X connect 21 0 4 0;
#X connect 22 0 21 0;
#X restore 17 146 pd AddSynth;
#X obj 152 28 inlet;
#X obj 17 345 outlet~;
#X obj 402 26 inlet;
#X text 402 9 named parameter-messages;
#X text 152 11 init-bang;
#X obj 107 274 switch~;
#X obj 17 230 handlers/mono_module \$0 _________;
#X obj 244 29 inlet;
#X text 244 12 fini-bang;
#X obj 17 187 handlers/mono_generator \$0 ______;
#X connect 0 0 10 0;
#X connect 1 0 0 0;
#X connect 1 0 10 1;
#X connect 3 0 0 1;
#X connect 3 0 10 2;
#X connect 7 0 2 0;
#X connect 7 1 6 0;
#X connect 10 0 7 0;
#X connect 10 1 7 1;
#X connect 10 2 7 2;
#X restore 21 173 pd AddSynth_module ____;
#X text 319 241 parameter: "chNumber" \, type: <integer> \, 0 means
omni;
#X text 319 252 parameter: "test" \, type: <nil>;
#X connect 0 0 17 0;
#X connect 0 1 17 1;
#X connect 0 2 17 2;
#X connect 17 0 1 0;
