#N canvas 47 81 722 508 10;
#X obj 90 79 inlet;
#X obj 260 68 inlet;
#X obj 164 385 outlet~;
#X obj 164 142 mtof;
#X obj 164 105 unpack 0 0;
#X text 139 76 pitch / velocity;
#X obj 164 324 *~;
#N canvas 416 204 1112 848 adsr 1;
#X obj 390 89 unpack 0 0 0 0;
#X obj 391 328 f;
#X text 404 347 attack;
#X obj 442 327 f;
#X obj 494 326 f;
#X obj 553 325 f;
#X text 455 346 decay;
#X text 507 345 sustain;
#X text 566 344 release;
#X obj 248 178 / 127;
#X obj 209 134 route 0;
#X obj 371 211 bng 15 250 50 0 empty empty empty 17 7 0 10 -262144
-1 -1;
#X obj 314 618 lop~;
#X obj 248 224 sig~;
#X obj 409 262 delay;
#X msg 197 194 stop;
#X obj 197 165 bng 15 250 50 0 empty empty empty 17 7 0 10 -262144
-1 -1;
#X obj 267 434 *~;
#X obj 290 380 sig~;
#X msg 320 330 1;
#X msg 283 330 0;
#X obj 401 556 expr 1000 / $f1;
#X text 180 30 velocity;
#X obj 131 30 inlet;
#X obj 346 40 inlet;
#X text 403 37 attack (ms) \, decay (ms) \, sustain (0-1) \, release
(ms);
#X obj 313 664 outlet~;
#X obj 588 287 delay;
#X obj 595 217 * 4;
#X obj 589 663 outlet;
#X text 607 696 bang when envelope becomes quiet;
#X msg 539 232 stop;
#X obj 385 131 clip 2 999999;
#X obj 474 129 clip 2 999999;
#X obj 421 156 clip 2 999999;
#X connect 0 0 32 0;
#X connect 0 1 34 0;
#X connect 0 2 4 1;
#X connect 0 3 33 0;
#X connect 1 0 21 0;
#X connect 3 0 21 0;
#X connect 4 0 18 0;
#X connect 5 0 21 0;
#X connect 9 0 13 0;
#X connect 10 0 16 0;
#X connect 10 1 9 0;
#X connect 10 1 11 0;
#X connect 11 0 1 0;
#X connect 11 0 14 0;
#X connect 11 0 19 0;
#X connect 11 0 31 0;
#X connect 12 0 26 0;
#X connect 13 0 17 0;
#X connect 14 0 3 0;
#X connect 14 0 4 0;
#X connect 15 0 14 0;
#X connect 16 0 15 0;
#X connect 16 0 5 0;
#X connect 16 0 20 0;
#X connect 16 0 27 0;
#X connect 17 0 12 0;
#X connect 18 0 17 1;
#X connect 19 0 18 0;
#X connect 20 0 18 0;
#X connect 21 0 12 1;
#X connect 23 0 10 0;
#X connect 24 0 0 0;
#X connect 27 0 29 0;
#X connect 28 0 27 1;
#X connect 31 0 27 0;
#X connect 32 0 14 1;
#X connect 32 0 1 1;
#X connect 33 0 28 0;
#X connect 33 0 5 1;
#X connect 34 0 3 1;
#X restore 221 139 pd adsr;
#X msg 171 179 1;
#X msg 260 174 0;
#X obj 212 224 switch~;
#N canvas 0 22 1251 694 tone_generator 0;
#X obj 115 243 osc~;
#X obj 115 198 * 1;
#X floatatom 131 298 5 0 0 0 - - -;
#X text 122 277 amplitude;
#X obj 116 336 *~;
#X obj 179 242 osc~;
#X floatatom 195 297 5 0 0 0 - - -;
#X text 186 276 amplitude;
#X obj 180 335 *~;
#X obj 247 238 osc~;
#X floatatom 263 293 5 0 0 0 - - -;
#X text 254 272 amplitude;
#X obj 248 331 *~;
#X obj 312 237 osc~;
#X floatatom 328 292 5 0 0 0 - - -;
#X text 319 271 amplitude;
#X obj 313 330 *~;
#X obj 179 197 * 2;
#X obj 247 193 * 3;
#X obj 312 192 * 4;
#X obj 535 118 f;
#X obj 377 235 osc~;
#X floatatom 393 290 5 0 0 0 - - -;
#X text 384 269 amplitude;
#X obj 378 328 *~;
#X obj 443 235 osc~;
#X floatatom 459 290 5 0 0 0 - - -;
#X text 450 269 amplitude;
#X obj 444 328 *~;
#X obj 517 233 osc~;
#X floatatom 533 288 5 0 0 0 - - -;
#X text 524 267 amplitude;
#X obj 518 326 *~;
#X obj 588 232 osc~;
#X floatatom 604 287 5 0 0 0 - - -;
#X text 595 266 amplitude;
#X obj 589 325 *~;
#X obj 377 190 * 5;
#X obj 443 190 * 6;
#X obj 517 188 * 7;
#X obj 588 187 * 8;
#X obj 686 59 inlet;
#X obj 532 59 inlet;
#X text 735 55 partials;
#X text 581 64 frequency / Hz;
#X obj 619 494 outlet~;
#X obj 686 119 unpack 0 0 0 0 0 0 0 0;
#X connect 0 0 4 0;
#X connect 1 0 0 0;
#X connect 2 0 4 1;
#X connect 4 0 45 0;
#X connect 5 0 8 0;
#X connect 6 0 8 1;
#X connect 8 0 45 0;
#X connect 9 0 12 0;
#X connect 10 0 12 1;
#X connect 12 0 45 0;
#X connect 13 0 16 0;
#X connect 14 0 16 1;
#X connect 16 0 45 0;
#X connect 17 0 5 0;
#X connect 18 0 9 0;
#X connect 19 0 13 0;
#X connect 20 0 1 0;
#X connect 20 0 17 0;
#X connect 20 0 18 0;
#X connect 20 0 19 0;
#X connect 20 0 37 0;
#X connect 20 0 38 0;
#X connect 20 0 39 0;
#X connect 20 0 40 0;
#X connect 21 0 24 0;
#X connect 22 0 24 1;
#X connect 24 0 45 0;
#X connect 25 0 28 0;
#X connect 26 0 28 1;
#X connect 28 0 45 0;
#X connect 29 0 32 0;
#X connect 30 0 32 1;
#X connect 32 0 45 0;
#X connect 33 0 36 0;
#X connect 34 0 36 1;
#X connect 36 0 45 0;
#X connect 37 0 21 0;
#X connect 38 0 25 0;
#X connect 39 0 29 0;
#X connect 40 0 33 0;
#X connect 41 0 46 0;
#X connect 42 0 20 0;
#X connect 46 0 2 0;
#X connect 46 1 6 0;
#X connect 46 2 10 0;
#X connect 46 3 14 0;
#X connect 46 4 22 0;
#X connect 46 5 26 0;
#X connect 46 6 30 0;
#X connect 46 7 34 0;
#X restore 164 259 pd tone_generator;
#X obj 260 104 route adsr partials;
#X text 310 70 partials f f f f f f f f \, adsr a d s r;
#X connect 0 0 4 0;
#X connect 0 0 8 0;
#X connect 1 0 12 0;
#X connect 3 0 11 0;
#X connect 4 0 3 0;
#X connect 4 1 7 0;
#X connect 6 0 2 0;
#X connect 7 0 6 1;
#X connect 7 1 9 0;
#X connect 8 0 10 0;
#X connect 9 0 10 0;
#X connect 11 0 6 0;
#X connect 12 0 7 1;
#X connect 12 1 11 1;
