#N canvas 393 213 677 425 10;
#X obj 19 163 cnv 10 85 10 empty empty empty 20 12 0 14 -261682 -66577
0;
#X text 241 29 audio-in: audio signal is coming from the ADC;
#X text 274 59 1 signal out port;
#X text 315 183 description: index selects the ADC (beginnig with 1)
;
#X text 14 140 dummy;
#X obj 15 206 outlet~;
#N canvas 231 135 452 306 audio_in_module______________ 0;
#X obj 22 145 cnv 10 164 10 empty empty empty 20 12 0 14 -261682 -66577
0;
#X obj 20 242 outlet~;
#X obj 21 55 inlet;
#X text 24 37 dummy;
#X obj 122 54 inlet;
#X obj 269 53 inlet;
#X text 269 36 named parameter-messages;
#X text 122 37 init-bang;
#N canvas 74 134 683 523 audio_in___________________ 0;
#X obj 280 41 inlet;
#X obj 138 41 inlet;
#X obj 450 366 outlet;
#X text 132 25 init-bang;
#X text 280 25 route parameters;
#X text 446 385 rejected parameters;
#X obj 314 364 outlet;
#X text 302 401 init-bang;
#X text 131 12 from prev;
#X text 308 387 to next;
#X obj 18 43 inlet;
#X text 16 27 dummy;
#X obj 25 369 outlet~;
#X text 24 395 to post-processor;
#X obj 341 145 clip 0 1;
#X obj 25 224 generics/line_mul~ 1 20;
#X obj 186 367 outlet;
#X text 180 390 output attribute;
#X obj 128 307 core/vu~;
#X obj 128 333 list prepend vu1;
#X obj 138 78 t b b;
#X obj 281 66 route offset outLevel;
#X obj 449 66 namecanvas \$0-audio-in;
#N canvas 816 78 692 712 create 0;
#X msg 192 181 editmode 0;
#X msg 176 158 vis 0;
#X msg 254 269 editmode 1;
#X msg 266 291 vis 1;
#X msg 280 313 clear;
#X msg 206 203 connect 0 0 1 0;
#X msg 167 430 editmode 0;
#X msg 150 405 vis 0;
#X obj 136 379 t b b b b b b;
#X msg 198 475 editmode 1;
#X msg 217 498 vis 1;
#X obj 70 521 del 0;
#X obj 161 80 inlet;
#X obj 162 106 clip 1 64;
#X obj 182 347 s pd-\$0-IN;
#X obj 199 533 s \$0-audio-in;
#X obj 162 132 t b b b b b f b b b;
#X msg 224 226 obj 30 50 outlet~;
#X msg 238 248 obj 30 20 adc~ \$1;
#X msg 183 452 connect 24 0 15 0;
#X msg 369 124 1;
#X connect 0 0 14 0;
#X connect 1 0 14 0;
#X connect 2 0 14 0;
#X connect 3 0 14 0;
#X connect 4 0 14 0;
#X connect 5 0 14 0;
#X connect 6 0 15 0;
#X connect 7 0 15 0;
#X connect 8 0 11 0;
#X connect 8 1 7 0;
#X connect 8 2 6 0;
#X connect 8 3 19 0;
#X connect 8 4 9 0;
#X connect 8 5 10 0;
#X connect 9 0 15 0;
#X connect 10 0 15 0;
#X connect 12 0 13 0;
#X connect 13 0 16 0;
#X connect 16 0 8 0;
#X connect 16 1 1 0;
#X connect 16 2 0 0;
#X connect 16 3 5 0;
#X connect 16 4 17 0;
#X connect 16 5 18 0;
#X connect 16 6 2 0;
#X connect 16 7 3 0;
#X connect 16 8 4 0;
#X connect 17 0 14 0;
#X connect 18 0 14 0;
#X connect 19 0 15 0;
#X connect 20 0 13 0;
#X restore 282 103 pd create adc~ n;
#N canvas 0 22 450 300 \$0-IN 0;
#X obj 30 20 adc~ 1;
#X obj 30 50 outlet~;
#X connect 0 0 1 0;
#X restore 25 173 pd \$0-IN;
#X obj 483 146 route active;
#X connect 0 0 21 0;
#X connect 1 0 20 0;
#X connect 14 0 15 1;
#X connect 15 0 12 0;
#X connect 15 0 18 0;
#X connect 18 0 19 0;
#X connect 19 0 16 0;
#X connect 20 0 6 0;
#X connect 20 1 15 3;
#X connect 21 0 23 0;
#X connect 21 1 14 0;
#X connect 21 2 25 0;
#X connect 21 2 2 0;
#X connect 24 0 15 0;
#X connect 25 0 18 1;
#X restore 21 142 pd audio_in___________________;
#X obj 200 52 inlet;
#X text 200 35 fini-bang;
#X obj 161 246 outlet;
#X obj 71 200 switch~;
#X obj 21 172 handlers/mono_module \$0 _________;
#X connect 2 0 8 0;
#X connect 4 0 8 1;
#X connect 5 0 8 2;
#X connect 8 0 13 0;
#X connect 8 1 11 0;
#X connect 8 2 13 1;
#X connect 8 3 13 2;
#X connect 13 0 1 0;
#X connect 13 1 12 0;
#X restore 16 160 pd audio_in_module______________;
#X obj 105 206 handlers/ntg_send \$1;
#X obj 106 104 handlers/ntg_receive \$1;
#X text 286 152 1.) parameter: "offset" \, type: <int> \, unit [-]
;
#X text 316 167 initial-value: 1 \, range: (1 .. 64) \, class: audio-in
;
#X text 133 315 !!!!!!!!!!!!!!!!!!!!!!!!!!!!!!!;
#X text 129 365 !!!!!!!!!!!!!!!!!!!!!!!!!!!!!!!;
#X text 177 332 !!!! Any change in |pd audio_in________| calls a change
in |pd create adc~ n| ... |connect 24 0 15 0(;
#X text 335 218 Thomas Musil \, 2010-09-27;
#X text 49 260 1.) initial argument: <float> unique ID;
#X text 274 75 2 data in port (outLevel \, offset);
#X text 274 91 1 data out port (vu1);
#X connect 6 0 5 0;
#X connect 6 1 7 0;
#X connect 8 0 6 1;
#X connect 8 1 6 2;
#X connect 8 2 6 3;
