#N canvas 449 404 450 300 10;
#X obj 121 194 handlers/ntg_send \$1;
#X obj 121 88 handlers/ntg_receive \$1;
#N canvas 291 25 1149 593 audio_settings_module________ 0;
#X obj 240 31 inlet;
#X obj 458 34 inlet;
#X text 486 11 named parameter-messages;
#X text 240 14 init-bang;
#X obj 334 34 inlet;
#X text 334 17 fini-bang;
#X obj 240 437 t a a;
#N canvas 321 119 672 473 driver 0;
#X obj 311 99 t b s;
#X msg 338 122 driver \$1;
#X obj 311 39 inlet setDriver;
#X obj 79 410 outlet;
#X obj 79 142 inlet query;
#X obj 65 116 t b;
#N canvas 836 55 464 601 list_multiple_drivers 0;
#X obj 133 65 inlet;
#X obj 133 532 outlet;
#X obj 318 63 inlet;
#X msg 133 181 listdrivers;
#X obj 133 201 t b a b;
#X obj 215 390 t l l;
#X obj 215 346 list split 1;
#X obj 133 407 list prepend;
#X obj 215 367 list append;
#X obj 133 161 t b;
#X obj 134 478 list prepend availableDrivers;
#X obj 217 292 symbol;
#X obj 152 224 generics/query \$0-audiosettings;
#X obj 152 246 route driver;
#X obj 133 441 list-abs/list-l2s;
#X obj 215 321 generics/prepend_symbollength;
#X connect 0 0 9 0;
#X connect 2 0 12 0;
#X connect 3 0 4 0;
#X connect 4 0 7 0;
#X connect 4 1 12 0;
#X connect 4 2 8 1;
#X connect 5 0 7 1;
#X connect 5 1 8 1;
#X connect 6 0 8 0;
#X connect 7 0 14 0;
#X connect 8 0 5 0;
#X connect 9 0 3 0;
#X connect 10 0 1 0;
#X connect 11 0 15 0;
#X connect 12 0 13 0;
#X connect 13 0 11 0;
#X connect 14 0 10 0;
#X connect 15 0 6 0;
#X restore 81 265 pd list_multiple_drivers;
#N canvas 336 39 487 601 list_first_driver 0;
#X obj 133 65 inlet;
#X obj 133 515 outlet;
#X obj 318 63 inlet;
#X msg 133 181 listdrivers;
#X obj 133 455 list prepend;
#X obj 133 161 t b;
#X obj 133 477 list prepend availableDrivers;
#X obj 160 292 route driver;
#X obj 133 201 t b a;
#X obj 86 126 bng 15 250 50 0 empty empty empty 17 7 0 10 -262144 -1
-1;
#X obj 160 320 symbol;
#X obj 160 270 generics/query \$0-audiosettings;
#X obj 161 360 generics/prepend_symbollength;
#X connect 0 0 5 0;
#X connect 2 0 11 0;
#X connect 3 0 8 0;
#X connect 4 0 6 0;
#X connect 5 0 3 0;
#X connect 6 0 1 0;
#X connect 7 0 10 0;
#X connect 8 0 4 0;
#X connect 8 1 11 0;
#X connect 9 0 5 0;
#X connect 10 0 12 0;
#X connect 11 0 7 0;
#X connect 12 0 4 1;
#X restore 350 272 pd list_first_driver;
#X connect 0 0 5 0;
#X connect 0 1 1 0;
#X connect 1 0 6 1;
#X connect 2 0 0 0;
#X connect 4 0 6 0;
#X connect 6 0 3 0;
#X restore 240 286 pd driver;
#X obj 486 226 symbol;
#X obj 486 248 t b s;
#N canvas 396 58 782 741 devices 0;
#X obj 108 53 inlet query;
#X obj 108 75 t b;
#X obj 375 37 inlet input;
#X obj 570 38 inlet output;
#X obj 34 632 outlet;
#X msg 108 126 listdevices;
#X obj 108 148 t b a b;
#X obj 220 304 t b b;
#X obj 34 607 t a;
#X obj 127 177 generics/query \$0-audiosettings;
#X obj 128 201 route device;
#X obj 571 206 s \$0-output_device_number;
#X obj 570 146 generics/query \$0-outputdevices;
#X obj 375 149 generics/query \$0-inputdevices;
#X obj 376 206 s \$0-input_device_number;
#X msg 375 122 find \$1;
#X msg 570 116 find \$1;
#X obj 128 223 route in out;
#N canvas 700 215 544 436 make_output_device_list 0;
#X obj 136 236 t l l;
#X obj 102 133 list split 1;
#X obj 67 268 list prepend;
#X obj 136 213 list prepend;
#X obj 67 344 list prepend availableOutputDevices;
#N canvas 548 181 453 321 outputdevices 0;
#X obj 160 25 inlet;
#X obj 277 24 inlet;
#X obj 168 233 outlet;
#X obj 168 165 generics/listops;
#X obj 387 17 inlet;
#X obj 161 63 route find index;
#X msg 288 136 index \$1;
#X msg 167 144 find \$1;
#X obj 167 88 symbol;
#X obj 288 110 symbol;
#X obj 283 164 generics/listops;
#X connect 0 0 5 0;
#X connect 1 0 3 1;
#X connect 3 0 2 0;
#X connect 4 0 10 1;
#X connect 5 0 8 0;
#X connect 5 1 9 0;
#X connect 6 0 10 0;
#X connect 7 0 3 0;
#X connect 8 0 7 0;
#X connect 9 0 6 0;
#X connect 10 0 2 0;
#X restore 186 314 pd outputdevices;
#X obj 311 312 generics/queryhandler \$0-outputdevices;
#X obj 277 239 t l l;
#X obj 277 214 list prepend;
#X obj 208 268 list prepend;
#X obj 27 37 inlet;
#X obj 68 37 inlet;
#X obj 348 40 inlet;
#X obj 67 397 outlet;
#X obj 67 315 list-abs/list-l2s;
#X obj 136 168 generics/prepend_symbollength;
#X connect 0 0 2 1;
#X connect 0 1 3 1;
#X connect 1 1 8 0;
#X connect 1 1 15 0;
#X connect 2 0 5 1;
#X connect 2 0 14 0;
#X connect 3 0 0 0;
#X connect 4 0 13 0;
#X connect 5 0 6 0;
#X connect 6 0 5 0;
#X connect 7 0 9 1;
#X connect 7 1 8 1;
#X connect 8 0 7 0;
#X connect 9 0 5 2;
#X connect 10 0 1 0;
#X connect 11 0 2 0;
#X connect 11 0 9 0;
#X connect 12 0 8 1;
#X connect 12 0 3 1;
#X connect 14 0 4 0;
#X connect 15 0 3 0;
#X restore 219 431 pd make_output_device_list;
#N canvas 0 22 544 436 make_input_device_list 0;
#X obj 136 236 t l l;
#X obj 102 133 list split 1;
#X obj 67 268 list prepend;
#X obj 136 213 list prepend;
#X obj 277 239 t l l;
#X obj 277 214 list prepend;
#X obj 208 268 list prepend;
#X obj 27 37 inlet;
#X obj 68 37 inlet;
#X obj 348 40 inlet;
#X obj 67 397 outlet;
#X obj 303 313 generics/queryhandler \$0-inputdevices;
#N canvas 548 181 453 321 inputdevices 0;
#X obj 170 35 inlet;
#X obj 287 34 inlet;
#X obj 178 243 outlet;
#X obj 397 27 inlet;
#X obj 171 73 route find index;
#X msg 298 146 index \$1;
#X msg 177 154 find \$1;
#X obj 177 98 symbol;
#X obj 298 120 symbol;
#X obj 178 175 generics/listops;
#X obj 293 174 generics/listops;
#X connect 0 0 4 0;
#X connect 1 0 9 1;
#X connect 3 0 10 1;
#X connect 4 0 7 0;
#X connect 4 1 8 0;
#X connect 5 0 10 0;
#X connect 6 0 9 0;
#X connect 7 0 6 0;
#X connect 8 0 5 0;
#X connect 9 0 2 0;
#X connect 10 0 2 0;
#X restore 178 315 pd inputdevices;
#X obj 67 344 list prepend availableInputDevices;
#X obj 67 315 list-abs/list-l2s;
#X obj 136 168 generics/prepend_symbollength;
#X connect 0 0 2 1;
#X connect 0 1 3 1;
#X connect 1 1 5 0;
#X connect 1 1 15 0;
#X connect 2 0 12 1;
#X connect 2 0 14 0;
#X connect 3 0 0 0;
#X connect 4 0 6 1;
#X connect 4 1 5 1;
#X connect 5 0 4 0;
#X connect 6 0 12 2;
#X connect 7 0 1 0;
#X connect 8 0 2 0;
#X connect 8 0 6 0;
#X connect 9 0 5 1;
#X connect 9 0 3 1;
#X connect 11 0 12 0;
#X connect 12 0 11 0;
#X connect 13 0 10 0;
#X connect 14 0 13 0;
#X connect 15 0 3 0;
#X restore 35 430 pd make_input_device_list;
#X msg 376 175 \$1;
#X msg 570 175 \$1;
#X obj 375 88 generics/prepend_symbollength;
#X obj 570 89 generics/prepend_symbollength;
#X obj 128 276 route devices;
#X obj 162 249 route devices;
#X obj 339 620 outlet;
#X text 399 431 probably this could be abstracted;
#X obj 108 302 t b b b;
#X connect 0 0 1 0;
#X connect 1 0 5 0;
#X connect 2 0 22 0;
#X connect 3 0 23 0;
#X connect 5 0 6 0;
#X connect 6 0 28 0;
#X connect 6 1 9 0;
#X connect 6 2 7 0;
#X connect 7 0 19 2;
#X connect 7 1 18 2;
#X connect 8 0 4 0;
#X connect 9 0 10 0;
#X connect 10 0 17 0;
#X connect 12 0 21 0;
#X connect 13 0 20 0;
#X connect 15 0 13 0;
#X connect 16 0 12 0;
#X connect 17 0 24 0;
#X connect 17 1 25 0;
#X connect 18 0 8 0;
#X connect 19 0 8 0;
#X connect 20 0 14 0;
#X connect 21 0 11 0;
#X connect 22 0 15 0;
#X connect 23 0 16 0;
#X connect 24 1 19 0;
#X connect 25 1 18 0;
#X connect 28 0 26 0;
#X connect 28 1 19 1;
#X connect 28 2 18 1;
#X restore 486 341 pd devices;
#N canvas 23 437 737 412 TEST 0;
#X obj 110 220 t a;
#X msg 174 160 outputDevices ALSA-03;
#X symbolatom 186 200 0 0 0 0 - - -;
#X text 40 29 be aware that deviceNames and driverNames could be symbols
containing spaces (which you cannot create using a msgbox \; use the
symbolbox to type such symbols);
#X obj 110 242 outlet;
#X msg 303 264 inputDevices \$1;
#X symbolatom 303 242 0 0 0 0 - - -;
#X msg 186 222 outputDevices \$1;
#X obj 303 222 bng 15 250 50 0 empty empty empty 17 7 0 10 -262144
-1 -1;
#X obj 186 180 bng 15 250 50 0 empty empty empty 17 7 0 10 -262144
-1 -1;
#X msg 110 100 selectedDriver portaudio;
#X msg 300 69 (0)Built-in Output;
#X msg 153 133 selectedOutputDevice \$1;
#X msg 364 132 (0)AirPlay;
#X msg 587 81 outputChannels 1;
#X msg 485 208 sampleRate 22050;
#X obj 304 102 list-abs/list-l2s;
#X connect 0 0 4 0;
#X connect 1 0 0 0;
#X connect 2 0 7 0;
#X connect 5 0 0 0;
#X connect 6 0 5 0;
#X connect 7 0 0 0;
#X connect 8 0 6 0;
#X connect 9 0 2 0;
#X connect 10 0 0 0;
#X connect 11 0 16 0;
#X connect 12 0 0 0;
#X connect 13 0 16 0;
#X connect 14 0 0 0;
#X connect 15 0 0 0;
#X connect 16 0 12 0;
#X restore 586 90 pd TEST;
#X obj 486 184 route selectedDriver selectedInputDevice selectedOutputDevice
;
#X obj 200 29 bng 15 250 50 0 empty empty empty 17 7 0 10 -262144 -1
-1;
#N canvas 554 69 585 348 audiosettings 0;
#X obj 15 117 mediasettings/audiosettings;
#X obj 256 117 generics/queryhandler \$0-audiosettings;
#X msg 134 218 bang;
#X obj 134 198 r \$0-audiosettings_refresh;
#X obj 134 241 generics/query \$0-audiosettings;
#X obj 134 263 s \$0-audiosettings_update;
#X connect 0 0 1 0;
#X connect 1 0 0 0;
#X connect 2 0 4 0;
#X connect 3 0 2 0;
#X connect 4 0 5 0;
#X restore 347 549 pd audiosettings;
#X obj 459 94 t b a;
#X obj 436 146 s \$0-audiosettings_refresh;
#N canvas 204 262 954 621 setSR 0;
#X obj 115 46 inlet sr;
#X msg 115 90 params @samplerate \$1;
#X obj 539 77 route params;
#X obj 539 100 route rate;
#X obj 115 68 f 44100;
#X obj 539 45 r \$0-audiosettings_update;
#X obj 539 171 outlet;
#X obj 115 112 generics/query \$0-audiosettings;
#X connect 0 0 4 0;
#X connect 1 0 7 0;
#X connect 2 0 3 0;
#X connect 3 0 4 1;
#X connect 3 0 6 0;
#X connect 4 0 1 0;
#X connect 5 0 2 0;
#X restore 973 259 pd setSR;
#N canvas 404 111 774 188 setBuffer 0;
#X obj 115 46 inlet sr;
#X obj 539 77 route params;
#X obj 539 100 route advance;
#X msg 115 89 params @advance \$1;
#X obj 115 68 f 50;
#X obj 115 112 generics/query \$0-audiosettings;
#X obj 539 45 r \$0-audiosettings_update;
#X obj 539 133 outlet;
#X connect 0 0 4 0;
#X connect 1 0 2 0;
#X connect 2 0 4 1;
#X connect 2 0 7 0;
#X connect 3 0 5 0;
#X connect 4 0 3 0;
#X connect 6 0 1 0;
#X restore 889 261 pd setBuffer;
#X obj 723 232 route inputChannels outputChannels bufferSize sampleRate
;
#N canvas 280 148 972 319 setdevices 0;
#X obj 51 54 inlet in;
#X obj 231 54 inlet out;
#X obj 51 76 f 2;
#X obj 231 77 f 2;
#X obj 51 250 generics/query \$0-audiosettings;
#X obj 51 170 pack f f;
#X obj 96 109 r \$0-input_device_number;
#X msg 51 219 params @input \$2 \$1;
#X obj 234 169 pack f f;
#X obj 279 108 r \$0-output_device_number;
#X msg 234 214 params @output \$2 \$1;
#X obj 279 134 t b a;
#X obj 96 136 t b a;
#X obj 549 87 route params;
#X obj 549 55 r \$0-audiosettings_update;
#X obj 549 110 route in out;
#N canvas 0 22 317 294 in_name_and_channels 0;
#X obj 69 65 route devices;
#X obj 69 100 unpack f f;
#X msg 69 125 index \$1;
#X obj 126 214 outlet;
#X obj 69 236 outlet;
#X obj 69 34 inlet;
#X obj 69 151 generics/query \$0-inputdevices;
#X connect 0 1 1 0;
#X connect 1 0 2 0;
#X connect 1 1 3 0;
#X connect 2 0 6 0;
#X connect 5 0 0 0;
#X connect 6 0 4 0;
#X restore 549 153 pd in_name_and_channels;
#N canvas 0 22 317 294 out_name_and_channels 0;
#X obj 69 175 generics/query \$0-outputdevices;
#X obj 69 76 route devices;
#X obj 69 124 unpack f f;
#X msg 69 149 index \$1;
#X obj 126 238 outlet;
#X obj 69 260 outlet;
#X obj 69 34 inlet;
#X connect 0 0 5 0;
#X connect 1 1 2 0;
#X connect 2 0 3 0;
#X connect 2 1 4 0;
#X connect 3 0 0 0;
#X connect 6 0 1 0;
#X restore 752 149 pd out_name_and_channels;
#X obj 893 195 outlet;
#X obj 752 197 outlet;
#X obj 684 198 outlet;
#X obj 549 199 outlet;
#X obj 318 245 print message;
#X connect 0 0 2 0;
#X connect 1 0 3 0;
#X connect 2 0 5 0;
#X connect 3 0 8 0;
#X connect 5 0 7 0;
#X connect 6 0 12 0;
#X connect 7 0 4 0;
#X connect 8 0 10 0;
#X connect 9 0 11 0;
#X connect 10 0 4 0;
#X connect 10 0 22 0;
#X connect 11 0 3 0;
#X connect 11 1 8 1;
#X connect 12 0 2 0;
#X connect 12 1 5 1;
#X connect 13 0 15 0;
#X connect 14 0 13 0;
#X connect 15 0 16 0;
#X connect 15 1 17 0;
#X connect 16 0 21 0;
#X connect 16 1 20 0;
#X connect 17 0 19 0;
#X connect 17 1 18 0;
#X restore 723 261 pd setdevices;
#X text 16 158 1 send available drivers;
#X text 15 178 2 send available devices for current driver;
#X text 15 200 3 send currently selected device and settings;
#N canvas 103 342 450 300 getsettings 0;
#X obj 136 108 generics/query \$0-audiosettings;
#X msg 233 76 listparams;
#X obj 136 146 s \$0-audiosettings_update;
#X obj 136 37 inlet;
#X obj 122 183 route device;
#X obj 122 216 route driver;
#X obj 122 242 outlet;
#X connect 0 0 2 0;
#X connect 0 0 4 0;
#X connect 3 0 0 0;
#X connect 4 0 5 0;
#X connect 5 0 6 0;
#X restore 240 142 pd getsettings;
#X obj 973 316 list prepend sampleRate;
#X obj 889 351 list prepend bufferSize;
#X obj 748 458 list prepend inputChannels;
#X obj 723 485 list prepend selectedInputDevice;
#X obj 798 403 list prepend outputChannels;
#X obj 773 431 list prepend selectedOutputDevice;
#X obj 723 534 t a;
#X obj 240 496 t a;
#X obj 240 539 outlet;
#X obj 1033 398 print;
#X obj 159 545 print;
#X obj 458 60 spigot;
#X msg 501 33 0;
#X msg 531 34 1;
#X obj 240 78 t b b b b;
#X text 565 37 don't allow messages through until we've populated the
driver/device lists;
#X obj 564 386 delay 50;
#X obj 194 468 list prepend selectedDriver;
#X obj 940 533 outlet;
#X connect 0 0 39 0;
#X connect 1 0 36 0;
#X connect 6 0 32 0;
#X connect 7 0 6 0;
#X connect 8 0 9 0;
#X connect 9 0 10 0;
#X connect 9 1 7 1;
#X connect 10 0 6 0;
#X connect 10 1 41 0;
#X connect 11 0 12 0;
#X connect 12 0 8 0;
#X connect 12 1 10 1;
#X connect 12 2 10 2;
#X connect 12 3 19 0;
#X connect 13 0 39 0;
#X connect 15 1 12 0;
#X connect 17 0 25 0;
#X connect 18 0 26 0;
#X connect 19 0 20 0;
#X connect 19 1 20 1;
#X connect 19 2 18 0;
#X connect 19 3 17 0;
#X connect 20 0 28 0;
#X connect 20 1 27 0;
#X connect 20 2 30 0;
#X connect 20 3 29 0;
#X connect 24 0 42 0;
#X connect 25 0 43 0;
#X connect 26 0 43 0;
#X connect 27 0 43 0;
#X connect 28 0 31 0;
#X connect 29 0 43 0;
#X connect 30 0 31 0;
#X connect 31 0 32 0;
#X connect 32 0 33 0;
#X connect 36 0 15 0;
#X connect 37 0 36 1;
#X connect 38 0 36 1;
#X connect 39 0 24 0;
#X connect 39 1 10 0;
#X connect 39 2 7 0;
#X connect 39 3 37 0;
#X connect 41 0 38 0;
#X connect 42 0 32 0;
#X restore 121 131 pd audio_settings_module________;
#X obj 310 194 handlers/ntg_send_int \$1;
#X connect 1 0 2 0;
#X connect 1 1 2 1;
#X connect 1 2 2 2;
#X connect 2 0 0 0;
#X connect 2 1 3 0;
