#N canvas 90 134 789 527 10;
#X obj 23 133 cnv 10 85 10 empty empty empty 20 12 0 14 -261682 -66577
0;
#X text 265 20 audio-out: audio signal is going to the DAC;
#X text 270 49 1 signal in port;
#X text 372 153 description: index selects the DAC (beginnig with 1)
;
#X obj 21 73 inlet~;
#N canvas 728 60 465 462 audio_out_module_____________ 0;
#X obj 19 145 cnv 10 164 10 empty empty empty 20 12 0 14 -261682 -66577
0;
#X obj 17 201 outlet;
#X obj 111 29 inlet;
#X obj 17 25 inlet~;
#X obj 270 30 inlet;
#X text 270 13 named parameter-messages;
#X text 111 12 init-bang;
#N canvas 508 200 820 476 audio_out_____________________ 0;
#X obj 340 41 inlet;
#X obj 198 41 inlet;
#X obj 422 367 outlet;
#X text 192 25 init-bang;
#X text 340 25 route parameters;
#X text 418 386 rejected parameters;
#X obj 286 365 outlet;
#X text 274 402 init-bang;
#X text 191 12 from prev;
#X text 280 388 to next;
#X obj 86 46 inlet~;
#X obj 29 368 outlet;
#X text 289 71 1 or 2;
#X obj 397 147 clip 0 1;
#X obj 85 224 generics/line_mul~ 1 20;
#X text 31 390 attribute out;
#X obj 28 264 core/vu~;
#X obj 29 342 list prepend vu1;
#X obj 340 66 route offset inLevel;
#X obj 198 73 t b b;
#N canvas 719 109 692 712 create 0;
#X msg 191 183 editmode 0;
#X msg 176 160 vis 0;
#X obj 178 357 s pd-\$0-OUT;
#X msg 249 276 editmode 1;
#X msg 264 297 vis 1;
#X msg 279 318 clear;
#X msg 234 252 obj 30 20 inlet~;
#X obj 162 132 t b b b b f b b b b;
#X msg 220 229 obj 30 50 dac~ \$1;
#X msg 205 206 connect 0 0 1 0;
#X msg 167 430 editmode 0;
#X msg 150 405 vis 0;
#X obj 136 379 t b b b b b b;
#X msg 198 475 editmode 1;
#X msg 217 498 vis 1;
#X obj 70 521 del 0;
#X obj 199 533 s \$0-audio-out;
#X msg 183 451 connect 14 0 21 0;
#X obj 161 80 inlet;
#X obj 162 106 clip 1 64;
#X msg 344 88 2;
#X connect 0 0 2 0;
#X connect 1 0 2 0;
#X connect 3 0 2 0;
#X connect 4 0 2 0;
#X connect 5 0 2 0;
#X connect 6 0 2 0;
#X connect 7 0 12 0;
#X connect 7 1 1 0;
#X connect 7 2 0 0;
#X connect 7 3 9 0;
#X connect 7 4 8 0;
#X connect 7 5 6 0;
#X connect 7 6 3 0;
#X connect 7 7 4 0;
#X connect 7 8 5 0;
#X connect 8 0 2 0;
#X connect 9 0 2 0;
#X connect 10 0 16 0;
#X connect 11 0 16 0;
#X connect 12 0 15 0;
#X connect 12 1 11 0;
#X connect 12 2 10 0;
#X connect 12 3 17 0;
#X connect 12 4 13 0;
#X connect 12 5 14 0;
#X connect 13 0 16 0;
#X connect 14 0 16 0;
#X connect 17 0 16 0;
#X connect 18 0 19 0;
#X connect 19 0 7 0;
#X connect 20 0 19 0;
#X restore 339 117 pd create dac~ n;
#N canvas 0 22 450 300 \$0-OUT 0;
#X obj 30 20 inlet~;
#X obj 30 50 dac~ 1;
#X connect 0 0 1 0;
#X restore 86 299 pd \$0-OUT;
#X obj 498 65 namecanvas \$0-audio-out;
#X obj 498 124 route active;
#X text 588 122 intercept the active attribute;
#X connect 0 0 18 0;
#X connect 1 0 19 0;
#X connect 10 0 14 0;
#X connect 13 0 14 1;
#X connect 14 0 16 0;
#X connect 14 0 21 0;
#X connect 16 0 17 0;
#X connect 17 0 11 0;
#X connect 18 0 20 0;
#X connect 18 1 13 0;
#X connect 18 2 2 0;
#X connect 18 2 23 0;
#X connect 19 0 6 0;
#X connect 19 1 14 3;
#X connect 23 0 16 1;
#X restore 17 142 pd audio_out_____________________;
#X obj 199 33 inlet;
#X text 199 16 fini-bang;
#X obj 142 202 outlet;
#X text 141 224 attribute out;
#X text 16 223 dummy;
#X obj 277 243 switch~;
#X obj 212 199 handlers/zero_module \$0 _________;
#X connect 2 0 7 1;
#X connect 3 0 7 0;
#X connect 4 0 7 2;
#X connect 7 0 10 0;
#X connect 7 1 14 0;
#X connect 7 2 14 1;
#X connect 14 0 13 0;
#X restore 21 130 pd audio_out_module_____________;
#X obj 112 76 handlers/ntg_receive \$1;
#X obj 134 167 handlers/ntg_send \$1;
#X text 343 122 1.) parameter: "offset" \, type: <int> \, unit [-]
;
#X text 373 137 initial-value: 1 \, range: (1 .. 64) \, class: audio-out
;
#X text 343 315 !!!!!!!!!!!!!!!!!!!!!!!!!!!!!!!;
#X text 339 365 !!!!!!!!!!!!!!!!!!!!!!!!!!!!!!!;
#X text 387 332 !!!! Any change in |pd audio_out________| calls a change
in |pd create dac~ n| ... |connect 14 0 21 0(;
#X text 25 219 1.) initial argument: <float> instance uid;
#X text 352 262 Thomas Musil \, 2010-09-27;
#X text 270 64 2 data in port (inLevel \, offset);
#X text 270 81 1 data out port (vu1);
#X connect 4 0 5 0;
#X connect 5 1 7 0;
#X connect 6 0 5 1;
#X connect 6 1 5 2;
#X connect 6 2 5 3;
