#N canvas 247 107 825 727 10;
#X text 303 53 1 signal out port;
#X text 303 37 1 signal in port;
#X text 316 99 1.) parameter: "active" \, type: <bool> \, unit [-]
;
#X text 346 129 description: switches the module on and off from DSP
tree;
#X text 346 303 description: switches a bypass path in parallel;
#X text 356 317 to the processor on and off;
#X text 345 369 description: mutes the effect way of the processor
;
#X text 346 418 description: makes a mix of the effected signal (wet
= 1);
#X text 356 433 and the input signal (dry = 0);
#X text 346 186 description: multiplies the incoming signal with this
value;
#X text 356 201 before it is going further to effect input;
#X text 346 251 description: multiplies the signal from effect output
;
#X text 346 114 initial-value: 1 \, range: (0/1) \, class: module;
#X text 346 236 initial-value: 1 \, range: (0...4) \, class: processor
;
#X text 346 171 initial-value: 1 \, range: (0...4) \, class: processor
;
#X text 346 288 initial-value: 0 \, range: (0/1) \, class: processor
;
#X text 346 353 initial-value: 0 \, range: (0/1) \, class: processor
;
#X text 346 403 initial-value: 1 \, range: (0...1) \, class: processor
;
#X obj 18 141 cnv 10 135 10 empty empty empty 20 12 0 14 -261682 -66577
0;
#X text 303 14 band-pass: band pass filter of second order with Q;
#X text 345 569 description: Q is ratio of bandwidth over center frequency.
;
#X text 355 585 Bandwidth is the difference between the frequencies
;
#X text 356 600 of upper -3 dB and lower -3 dB magnitude.;
#X text 353 615 (related to magnitude level of center frequency);
#X text 345 489 description: is the center frequency of a pass band
;
#X text 355 504 in spectrum \, leftwards and rightwards of this frequency
;
#X text 355 519 the magnitude of spectrum decreases with 6 dB per octave.
;
#X obj 17 91 inlet~;
#X obj 17 170 outlet~;
#X text 318 273 4.) parameter: "bypass" \, type: <bool> \, unit [-]
;
#X text 316 338 5.) parameter: "mute" \, type: <bool> \, unit [-];
#X text 316 388 6.) parameter: "mix" \, type: <float> \, unit [-];
#X text 316 459 7.) parameter: "frequency" \, type: <float> \, unit
[Hz];
#X text 316 538 8.) parameter: "Q" \, type: <float> \, unit [-];
#X text 405 634 Thomas Musil \, 11.11.2009;
#X text 346 553 initial-value: 1 \, range: (0.001...1000) \, class:
band-pass;
#X text 317 221 3.) parameter: "outLevel" \, type: <float> \, unit
[-];
#X text 315 155 2.) parameter: "inLevel" \, type: <float> \, unit [-]
;
#X text 303 69 8 data in ports;
#X text 346 473 initial-value: 440 Hz \, range: (20...20000 Hz) \,
class: filter;
#N canvas 621 85 714 386 band_pass_module________ 0;
#X obj 17 345 outlet~;
#X obj 107 274 switch~;
#X obj 108 148 cnv 10 164 10 empty empty empty 20 12 0 14 -261682 -66577
0;
#X obj 128 28 inlet;
#X obj 17 25 inlet~;
#X obj 313 26 inlet;
#X text 313 9 named parameter-messages;
#X text 128 11 init-bang;
#X obj 17 99 handlers/mono_pre_processor \$0 __;
#X obj 17 187 handlers/mono_post_processor \$0 _;
#X obj 17 230 handlers/mono_module \$0 _________;
#N canvas 366 293 797 509 band_pass______________ 0;
#X obj 280 29 inlet;
#X obj 18 31 inlet~;
#X obj 18 413 outlet~;
#X obj 75 119 pack 440 20;
#X obj 75 143 line 440 1.45125;
#X obj 18 340 +~;
#X obj 179 31 inlet;
#X obj 380 425 outlet;
#X text 173 15 init-bang;
#X text 280 13 route parameters;
#X text 376 444 rejected parameters;
#X text 16 15 from pre-processor;
#X text 17 439 to post-processor;
#X obj 254 424 outlet;
#X text 243 459 init-bang;
#X text 174 3 from prev.;
#X text 250 445 to next;
#X obj 120 225 pack 1 20;
#X obj 120 248 line 1 1.45125;
#X obj 283 303 noise~;
#X obj 283 324 *~ 1e-14;
#X text 344 310 dithering-noise against denormal floatingpoint numbers
(SSE2-Register);
#X obj 120 201 clip 0.001 1000;
#X obj 75 98 clip 20 20000;
#X obj 18 372 core/band_pass_2p~ 440 1;
#X obj 236 162 t b b;
#X obj 279 57 route frequency q;
#X connect 0 0 26 0;
#X connect 1 0 5 0;
#X connect 3 0 4 0;
#X connect 4 0 24 1;
#X connect 5 0 24 0;
#X connect 6 0 25 0;
#X connect 17 0 18 0;
#X connect 18 0 24 2;
#X connect 19 0 20 0;
#X connect 20 0 5 1;
#X connect 22 0 17 0;
#X connect 23 0 3 0;
#X connect 24 0 2 0;
#X connect 25 0 13 0;
#X connect 25 1 24 3;
#X connect 26 0 23 0;
#X connect 26 1 22 0;
#X connect 26 2 7 0;
#X restore 107 145 pd band_pass______________;
#X obj 229 31 inlet;
#X text 229 14 fini-bang;
#X connect 3 0 8 1;
#X connect 4 0 8 0;
#X connect 5 0 8 2;
#X connect 8 0 9 0;
#X connect 8 1 11 0;
#X connect 8 2 11 1;
#X connect 8 3 11 2;
#X connect 9 0 10 0;
#X connect 9 1 10 1;
#X connect 9 2 10 2;
#X connect 10 0 0 0;
#X connect 10 1 1 0;
#X connect 11 0 9 1;
#X connect 11 1 9 2;
#X connect 11 2 9 3;
#X restore 17 138 pd band_pass_module________;
#X obj 110 93 handlers/ntg_receive \$1;
#X text 42 674 1.) initial argument: <float> unique id of the module
;
#X connect 27 0 40 0;
#X connect 40 0 28 0;
#X connect 41 0 40 1;
#X connect 41 1 40 2;
#X connect 41 2 40 3;
