#N canvas 212 133 707 374 10;
#X text 235 49 1 signal out port;
#X text 248 95 1.) parameter: "active" \, type: <bool> \, unit [-]
;
#X text 278 125 description: switches the module on and off from DSP
tree;
#X text 277 235 description: mutes the effect way of the processor
;
#X text 278 181 description: multiplies the signal from effect output
;
#X text 278 110 initial-value: 1 \, range: (0/1) \, class: module;
#X obj 20 135 cnv 10 125 10 empty empty empty 20 12 0 14 -261682 -66577
0;
#X text 278 166 initial-value: 1 \, range: (0...4) \, class: generator
;
#X text 278 219 initial-value: 0 \, range: (0/1) \, class: generator
;
#X text 235 18 brown-noise: white-noise gained and filtered with a
-6 dB per octave filter (brownian noise generator);
#X obj 20 170 outlet~;
#X text 15 109 dummy;
#X text 248 204 3.) parameter: "mute" \, type: <bool> \, unit [-];
#X text 297 258 Thomas Musil \, 11.11.2009;
#X text 235 65 3 data in ports;
#X text 249 151 2.) parameter: "outLevel" \, type: <float> \, unit
[-];
#N canvas 67 156 443 423 brown_noise_module_____ 0;
#X obj 21 359 outlet~;
#X obj 23 155 cnv 10 164 10 empty empty empty 20 12 0 14 -261682 -66577
0;
#X obj 21 55 inlet;
#X text 24 37 dummy;
#X obj 131 54 inlet;
#X obj 290 58 inlet;
#X text 290 41 named parameter-messages;
#X text 131 37 init-bang;
#X obj 93 275 switch~;
#X obj 21 202 handlers/mono_generator \$0;
#X obj 21 237 handlers/mono_module \$0 __;
#N canvas 366 293 589 458 brown_noise__________________ 0;
#X obj 280 41 inlet;
#X obj 19 368 outlet~;
#X obj 138 41 inlet;
#X obj 362 367 outlet;
#X text 132 25 init-bang;
#X text 280 25 route parameters;
#X text 358 386 rejected parameters;
#X text 18 394 to post-processor;
#X obj 226 365 outlet;
#X text 214 402 init-bang;
#X text 131 12 from prev;
#X text 220 388 to next;
#X obj 18 43 inlet;
#X text 16 27 dummy;
#X obj 19 213 noise~;
#X obj 19 235 biquad~ 0.999288 0 0.016 0.016 0;
#X connect 0 0 3 0;
#X connect 2 0 8 0;
#X connect 14 0 15 0;
#X connect 15 0 1 0;
#X restore 21 152 pd brown_noise__________________;
#X obj 212 58 inlet;
#X text 212 41 fini-bang;
#X connect 2 0 11 0;
#X connect 4 0 11 1;
#X connect 5 0 11 2;
#X connect 9 0 10 0;
#X connect 9 1 10 1;
#X connect 9 2 10 2;
#X connect 10 0 0 0;
#X connect 10 1 8 0;
#X connect 11 0 9 0;
#X connect 11 1 9 1;
#X connect 11 2 9 2;
#X restore 20 132 pd brown_noise_module_____;
#X obj 87 79 handlers/ntg_receive \$1;
#X text 14 299 1.) initial argument: <float> unique id of the module
;
#X connect 16 0 10 0;
#X connect 17 0 16 1;
#X connect 17 1 16 2;
#X connect 17 2 16 3;
