#N canvas 26 22 720 702 10;
#X text 281 61 1 signal out port;
#X text 281 45 1 signal in port;
#X text 294 107 1.) parameter: "active" \, type: <bool> \, unit [-]
;
#X text 324 137 description: switches the module on and off from DSP
tree;
#X text 324 310 description: switches a bypass path in parallel;
#X text 334 324 to the processor on and off;
#X text 323 376 description: mutes the effect way of the processor
;
#X text 324 425 description: makes a mix of the effected signal (wet
= 1);
#X text 334 440 and the input signal (dry = 0);
#X text 324 193 description: multiplies the incoming signal with this
value;
#X text 334 208 before it is going further to effect input;
#X text 324 258 description: multiplies the signal from effect output
;
#X text 324 122 initial-value: 1 \, range: (0/1) \, class: module;
#X text 324 243 initial-value: 1 \, range: (0...4) \, class: processor
;
#X text 324 178 initial-value: 1 \, range: (0...4) \, class: processor
;
#X text 324 295 initial-value: 0 \, range: (0/1) \, class: processor
;
#X text 324 360 initial-value: 0 \, range: (0/1) \, class: processor
;
#X text 324 410 initial-value: 1 \, range: (0...1) \, class: processor
;
#X obj 19 131 cnv 10 135 10 empty empty empty 20 12 0 14 -261682 -66577
0;
#X text 281 22 tap-delay: feedback delay;
#X text 323 496 description: is he delay time of the delay tap;
#X obj 17 91 inlet~;
#X obj 18 170 outlet~;
#X text 296 280 4.) parameter: "bypass" \, type: <bool> \, unit [-]
;
#X text 294 346 5.) parameter: "mute" \, type: <bool> \, unit [-];
#X text 294 395 6.) parameter: "mix" \, type: <float> \, unit [-];
#X text 295 228 3.) parameter: "outLevel" \, type: <float> \, unit
[-];
#X text 294 163 2.) parameter: "inLevel" \, type: <float> \, unit [-]
;
#X text 295 465 7.) parameter: "delayTime" \, type: <float> \, unit
[sec];
#X text 382 595 Thomas Musil \, 10.12.2009;
#N canvas 197 218 714 386 delay_module____________ 0;
#X obj 152 28 inlet;
#X obj 17 25 inlet~;
#X obj 17 345 outlet~;
#X obj 108 148 cnv 10 164 10 empty empty empty 20 12 0 14 -261682 -66577
0;
#X obj 402 26 inlet;
#X text 402 9 named parameter-messages;
#X text 152 11 init-bang;
#X obj 107 274 switch~;
#X obj 17 99 handlers/mono_pre_processor \$0 __;
#X obj 17 187 handlers/mono_post_processor \$0 _;
#X obj 17 230 handlers/mono_module \$0 _________;
#X obj 244 29 inlet;
#X text 244 12 fini-bang;
#N canvas 547 133 644 648 delay__________________ 0;
#X obj 394 30 inlet;
#X obj 29 36 inlet~;
#X obj 29 538 outlet~;
#X obj 225 32 inlet;
#X obj 391 550 outlet;
#X text 219 16 init-bang;
#X text 394 14 route parameters;
#X text 387 569 rejected parameters;
#X text 27 20 from pre-processor;
#X text 28 564 to post-processor;
#X obj 265 549 outlet;
#X text 254 584 init-bang;
#X text 220 4 from prev.;
#X text 261 570 to next;
#X obj 309 160 * 1000;
#X obj 225 59 t b b;
#X obj 394 58 route delayTime;
#N canvas 0 22 450 300 sub_delwrite~ 0;
#X obj 75 41 inlet~;
#X obj 73 213 outlet~;
#X obj 76 92 delwrite~ \$0-del 36000;
#X connect 0 0 2 0;
#X restore 29 106 pd sub_delwrite~;
#N canvas 0 22 562 577 sub_delread~ 0;
#X obj 75 41 inlet~;
#X obj 87 466 outlet~;
#X obj 404 40 inlet;
#X obj 235 42 inlet;
#X obj 86 417 vd~ \$0-del;
#X obj 109 298 pack 2000 20;
#X obj 86 378 line~;
#X obj 121 321 unpack 0 0;
#X obj 86 223 f 2000;
#X connect 2 0 5 0;
#X connect 3 0 8 0;
#X connect 4 0 1 0;
#X connect 5 0 6 0;
#X connect 5 0 7 0;
#X connect 6 0 4 0;
#X connect 7 0 8 1;
#X connect 8 0 6 0;
#X restore 29 371 pd sub_delread~;
#X connect 0 0 16 0;
#X connect 1 0 17 0;
#X connect 3 0 15 0;
#X connect 14 0 18 2;
#X connect 15 0 10 0;
#X connect 15 1 18 1;
#X connect 16 0 14 0;
#X connect 16 1 4 0;
#X connect 17 0 18 0;
#X connect 18 0 2 0;
#X restore 107 145 pd delay__________________;
#X connect 0 0 8 1;
#X connect 1 0 8 0;
#X connect 4 0 8 2;
#X connect 8 0 9 0;
#X connect 8 1 13 0;
#X connect 8 2 13 1;
#X connect 8 3 13 2;
#X connect 9 0 10 0;
#X connect 9 1 10 1;
#X connect 9 2 10 2;
#X connect 10 0 2 0;
#X connect 10 1 7 0;
#X connect 13 0 9 1;
#X connect 13 1 9 2;
#X connect 13 2 9 3;
#X restore 18 128 pd delay_module____________;
#X text 281 77 7 data in ports;
#X obj 87 96 handlers/ntg_receive \$1;
#X text 324 481 initial-value: 2 sec \, range: (0...36sec) \, class:
delay;
#X text 14 578 1.) initial argument: <float> unique id of the module
;
#X connect 21 0 30 0;
#X connect 30 0 22 0;
#X connect 32 0 30 1;
#X connect 32 1 30 2;
#X connect 32 2 30 3;
