#N canvas 247 107 302 244 10;
#X obj 18 141 cnv 10 135 10 empty empty empty 20 12 0 14 -261682 -66577
0;
#X obj 17 91 inlet~;
#X obj 17 170 outlet~;
#X obj 110 93 handlers/ntg_receive \$1;
#N canvas 532 106 714 386 distortion_module________ 0;
#X obj 17 345 outlet~;
#X obj 107 274 switch~;
#X obj 108 148 cnv 10 164 10 empty empty empty 20 12 0 14 -261682 -66577
0;
#X obj 128 28 inlet;
#X obj 17 25 inlet~;
#X obj 313 26 inlet;
#X text 313 9 named parameter-messages;
#X text 128 11 init-bang;
#X obj 17 99 handlers/mono_pre_processor \$0 __;
#X obj 17 187 handlers/mono_post_processor \$0 _;
#X obj 17 230 handlers/mono_module \$0 _________;
#X obj 229 31 inlet;
#X text 229 14 fini-bang;
#N canvas 366 293 797 509 distortion 0;
#X obj 280 29 inlet;
#X obj 18 31 inlet~;
#X obj 18 413 outlet~;
#X obj 179 31 inlet;
#X obj 380 425 outlet;
#X text 173 15 init-bang;
#X text 280 13 route parameters;
#X text 376 444 rejected parameters;
#X text 16 15 from pre-processor;
#X text 17 439 to post-processor;
#X obj 254 424 outlet;
#X text 243 459 init-bang;
#X text 174 3 from prev.;
#X text 250 445 to next;
#X obj 279 57 route type amount;
#N canvas 235 22 528 461 distort 0;
#X obj 303 29 inlet;
#X obj 458 27 inlet;
#X obj 50 17 inlet~;
#X obj 52 410 outlet~;
#N canvas 0 22 630 414 tanh 0;
#X obj 113 156 *~;
#X obj 113 198 expr~ tanh($v1);
#X obj 119 247 /~;
#X obj 338 62 * 50;
#X obj 112 38 inlet~;
#X obj 339 27 inlet;
#X obj 120 344 outlet~;
#X obj 454 71 switch~;
#X obj 454 30 inlet;
#X obj 383 193 rmstodb;
#X obj 388 219 - 50;
#X obj 390 246 / 5;
#X connect 0 0 1 0;
#X connect 1 0 2 0;
#X connect 2 0 6 0;
#X connect 3 0 0 1;
#X connect 4 0 0 0;
#X connect 5 0 3 0;
#X connect 5 0 9 0;
#X connect 8 0 7 0;
#X connect 9 0 10 0;
#X connect 10 0 11 0;
#X connect 11 0 2 1;
#X restore 52 249 pd tanh;
#X msg 86 192 0;
#X msg 113 192 1;
#N canvas 0 22 593 402 doppler 0;
#X obj 207 111 * 6;
#X obj 186 218 +~ 1;
#X obj 186 237 *~ 5;
#X obj 187 256 +~ 2;
#X obj 347 248 delwrite~ \$0-a 500;
#X obj 185 275 vd~ \$0-a;
#X obj 178 39 inlet~;
#X obj 265 36 inlet;
#X obj 358 42 inlet;
#X obj 358 92 switch~;
#X obj 186 343 outlet~;
#X connect 0 0 2 1;
#X connect 1 0 2 0;
#X connect 2 0 3 0;
#X connect 3 0 5 0;
#X connect 5 0 10 0;
#X connect 6 0 1 0;
#X connect 6 0 4 0;
#X connect 7 0 0 0;
#X connect 8 0 9 0;
#X restore 301 249 pd doppler;
#X msg 343 196 0;
#X msg 370 196 1;
#X obj 303 89 route type1 type2;
#X connect 0 0 10 0;
#X connect 1 0 4 1;
#X connect 1 0 7 1;
#X connect 2 0 4 0;
#X connect 2 0 7 0;
#X connect 4 0 3 0;
#X connect 5 0 4 2;
#X connect 6 0 4 2;
#X connect 7 0 3 0;
#X connect 8 0 7 2;
#X connect 9 0 7 2;
#X connect 10 0 6 0;
#X connect 10 0 8 0;
#X connect 10 1 5 0;
#X connect 10 1 9 0;
#X restore 65 260 pd distort;
#X obj 218 155 route 0;
#X connect 0 0 14 0;
#X connect 1 0 15 0;
#X connect 14 0 15 1;
#X connect 14 1 16 0;
#X connect 14 2 4 0;
#X connect 15 0 2 0;
#X connect 16 1 15 2;
#X restore 106 149 pd distortion;
#X connect 3 0 8 1;
#X connect 4 0 8 0;
#X connect 5 0 8 2;
#X connect 8 0 9 0;
#X connect 8 1 13 0;
#X connect 8 2 13 1;
#X connect 8 3 13 2;
#X connect 9 0 10 0;
#X connect 9 1 10 1;
#X connect 9 2 10 2;
#X connect 10 0 0 0;
#X connect 10 1 1 0;
#X connect 13 0 9 1;
#X connect 13 1 9 2;
#X connect 13 2 9 3;
#X restore 17 138 pd distortion_module________;
#X connect 1 0 4 0;
#X connect 3 0 4 1;
#X connect 3 1 4 2;
#X connect 3 2 4 3;
#X connect 4 0 2 0;
