#N canvas 286 118 836 659 10;
#X text 303 53 1 signal out port;
#X text 303 37 1 signal in port;
#X text 316 99 1.) parameter: "active" \, type: <bool> \, unit [-]
;
#X text 346 129 description: switches the module on and off from DSP
tree;
#X text 346 299 description: switches a bypass path in parallel;
#X text 356 313 to the processor on and off;
#X text 345 365 description: mutes the effect way of the processor
;
#X text 346 414 description: makes a mix of the effected signal (wet
= 1);
#X text 356 429 and the input signal (dry = 0);
#X text 346 182 description: multiplies the incoming signal with this
value;
#X text 356 197 before it is going further to effect input;
#X text 346 247 description: multiplies the signal from effect output
;
#X text 346 114 initial-value: 1 \, range: (0/1) \, class: module;
#X text 346 232 initial-value: 1 \, range: (0...4) \, class: processor
;
#X text 346 167 initial-value: 1 \, range: (0...4) \, class: processor
;
#X text 346 284 initial-value: 0 \, range: (0/1) \, class: processor
;
#X text 346 349 initial-value: 0 \, range: (0/1) \, class: processor
;
#X text 346 399 initial-value: 1 \, range: (0...1) \, class: processor
;
#X obj 18 129 cnv 10 125 10 empty empty empty 20 12 0 14 -261682 -66577
0;
#X text 303 15 divide: divides the signal by this value;
#X text 345 485 description: the signal will be divided by this operand
;
#X obj 17 91 inlet~;
#X obj 18 170 outlet~;
#X text 405 510 Thomas Musil \, 11.11.2009;
#X text 318 269 4.) parameter: "bypass" \, type: <bool> \, unit [-]
;
#X text 316 334 5.) parameter: "mute" \, type: <bool> \, unit [-];
#X text 316 384 6.) parameter: "mix" \, type: <float> \, unit [-];
#X text 316 454 7.) parameter: "operand" \, type: <float> \, unit [-]
;
#X text 316 152 2.) parameter: "inLevel" \, type: <float> \, unit [-]
;
#X text 317 218 3.) parameter: "outLevel" \, type: <float> \, unit
[-];
#X text 346 469 initial-value: 1 \, range: (-inf...+inf) \, class:
operator;
#X text 303 69 7 data in ports;
#N canvas 289 118 714 386 divide_module____________ 0;
#X obj 17 345 outlet~;
#X obj 108 148 cnv 10 164 10 empty empty empty 20 12 0 14 -261682 -66577
0;
#X obj 151 28 inlet;
#X obj 17 25 inlet~;
#X obj 321 30 inlet;
#X text 321 13 named parameter-messages;
#X text 151 11 init-bang;
#X obj 106 267 switch~;
#N canvas 366 293 797 509 divide_________________ 0;
#X obj 280 41 inlet;
#X obj 18 43 inlet~;
#X obj 18 413 outlet~;
#X obj 179 43 inlet;
#X obj 380 425 outlet;
#X text 173 27 init-bang;
#X text 280 25 route parameters;
#X text 376 444 rejected parameters;
#X text 16 27 from pre-processor;
#X text 17 439 to post-processor;
#X obj 254 424 outlet;
#X text 242 461 init-bang;
#X text 172 14 from prev;
#X text 248 447 to next;
#X obj 279 68 route operand;
#X obj 18 340 /~;
#X obj 108 243 pack 1 20;
#X obj 63 297 line~;
#X obj 116 267 unpack 0 0;
#X obj 63 232 f 1;
#X obj 179 79 t b b;
#X connect 0 0 14 0;
#X connect 1 0 15 0;
#X connect 3 0 20 0;
#X connect 14 0 16 0;
#X connect 14 1 4 0;
#X connect 15 0 2 0;
#X connect 16 0 17 0;
#X connect 16 0 18 0;
#X connect 17 0 15 1;
#X connect 18 0 19 1;
#X connect 19 0 17 0;
#X connect 20 0 10 0;
#X connect 20 1 19 0;
#X restore 107 145 pd divide_________________;
#X obj 17 100 handlers/mono_pre_processor \$0 __;
#X obj 17 189 handlers/mono_post_processor \$0 _;
#X obj 17 219 handlers/mono_module \$0 _________;
#X obj 230 29 inlet;
#X text 230 12 fini-bang;
#X connect 2 0 9 1;
#X connect 3 0 9 0;
#X connect 4 0 9 2;
#X connect 8 0 10 1;
#X connect 8 1 10 2;
#X connect 8 2 10 3;
#X connect 9 0 10 0;
#X connect 9 1 8 0;
#X connect 9 2 8 1;
#X connect 9 3 8 2;
#X connect 10 0 11 0;
#X connect 10 1 11 1;
#X connect 10 2 11 2;
#X connect 11 0 0 0;
#X connect 11 1 7 0;
#X restore 17 126 pd divide_module____________;
#X obj 110 93 handlers/ntg_receive \$1;
#X text 14 578 1.) initial argument: <float> unique id of the module
;
#X connect 21 0 32 0;
#X connect 32 0 22 0;
#X connect 33 0 32 1;
#X connect 33 1 32 2;
#X connect 33 2 32 3;
