#N canvas 394 226 324 395 10;
#X obj 21 99 handlers/ntg_receive \$1;
#X obj 21 266 outlet~;
#N canvas 685 96 599 412 Dx7_module 0;
#X obj 152 28 inlet;
#X obj 17 345 outlet~;
#X obj 402 26 inlet;
#X text 402 9 named parameter-messages;
#X text 152 11 init-bang;
#X obj 107 274 switch~;
#X obj 17 230 handlers/mono_module \$0 _________;
#X obj 244 29 inlet;
#X text 244 12 fini-bang;
#X obj 17 187 handlers/mono_generator \$0 ______;
#N canvas 379 94 771 523 DX7______ 0;
#X obj 515 378 outlet~;
#X obj 131 37 inlet;
#X obj 62 36 inlet;
#X text -1 36 initbang;
#X text 177 39 integra parameters;
#X obj 131 78 route reset portamentoTime programNumber portamentoOnOff
test loadSysEx;
#X obj 188 251 externals/pluginhost~/pluginhost~ dssi/hexter.so:hexter
;
#N canvas 570 174 1207 550 midi_in 0;
#X obj 219 153 notein;
#X msg 219 206 n 1 \$1 \$2;
#X msg 321 206 c 1 \$1 \$2;
#X msg 518 201 p 1 0 \$1;
#X msg 443 201 b 1 0 \$1;
#X msg 610 195 t 1 0 \$1;
#X obj 515 154 pgmin;
#X obj 442 154 bendin;
#X obj 610 151 touchin;
#X obj 322 151 ctlin;
#X obj 219 180 pack f f;
#X obj 321 178 pack f f;
#X obj 219 104 inlet;
#X obj 269 102 inlet;
#X obj 514 92 inlet;
#X obj 518 274 outlet;
#X obj 517 178 f;
#X obj 219 293 list;
#X obj 220 335 outlet;
#X connect 0 0 10 0;
#X connect 0 1 10 1;
#X connect 1 0 17 0;
#X connect 2 0 17 0;
#X connect 3 0 17 0;
#X connect 4 0 17 0;
#X connect 5 0 17 0;
#X connect 6 0 16 0;
#X connect 7 0 4 0;
#X connect 8 0 5 0;
#X connect 9 0 11 0;
#X connect 9 1 11 1;
#X connect 10 0 1 0;
#X connect 11 0 2 0;
#X connect 12 0 10 0;
#X connect 13 0 10 1;
#X connect 14 0 16 0;
#X connect 16 0 3 0;
#X connect 16 0 15 0;
#X connect 17 0 18 0;
#X restore 189 216 pd midi_in;
#X obj 189 180 makenote 80 2000;
#X msg 131 150 reset 1;
#N canvas 0 22 370 303 portamento 0;
#X obj 33 29 inlet;
#X obj 33 101 f;
#X obj 32 157 * 0;
#X obj 127 34 inlet;
#X obj 127 56 t b f;
#X obj 154 83 sel 0;
#X msg 154 105 0;
#X obj 195 82 t b;
#X msg 195 104 1;
#X obj 32 214 outlet;
#X msg 32 179 dssi configure portamento_time \$1 1;
#X connect 0 0 1 0;
#X connect 1 0 2 0;
#X connect 2 0 10 0;
#X connect 3 0 4 0;
#X connect 4 0 1 0;
#X connect 4 1 5 0;
#X connect 5 0 6 0;
#X connect 5 1 7 0;
#X connect 6 0 2 1;
#X connect 7 0 8 0;
#X connect 8 0 2 1;
#X connect 10 0 9 0;
#X restore 350 177 pd portamento;
#X obj 207 363 outlet;
#X msg 482 179 dssi load \$1 1;
#X msg 207 331 programNumber \$1;
#X obj 482 146 makefilename %s;
#X msg 189 148 60;
#X obj 446 127 symbol;
#X connect 1 0 5 0;
#X connect 5 0 9 0;
#X connect 5 1 10 0;
#X connect 5 2 7 2;
#X connect 5 3 10 1;
#X connect 5 4 15 0;
#X connect 5 5 16 0;
#X connect 6 1 0 0;
#X connect 7 0 6 0;
#X connect 7 1 13 0;
#X connect 8 0 7 0;
#X connect 8 1 7 1;
#X connect 9 0 6 0;
#X connect 10 0 6 0;
#X connect 12 0 6 0;
#X connect 13 0 11 0;
#X connect 14 0 12 0;
#X connect 15 0 8 0;
#X connect 16 0 14 0;
#X restore 83 143 pd DX7______;
#X obj 201 294 outlet;
#X connect 0 0 10 0;
#X connect 0 0 9 1;
#X connect 2 0 10 1;
#X connect 2 0 9 2;
#X connect 6 0 1 0;
#X connect 6 1 5 0;
#X connect 9 0 6 0;
#X connect 9 1 6 1;
#X connect 9 2 6 2;
#X connect 10 0 11 0;
#X connect 10 1 9 0;
#X restore 21 173 pd Dx7_module ____;
#X obj 126 265 handlers/ntg_send \$1;
#X connect 0 0 2 0;
#X connect 0 1 2 1;
#X connect 0 2 2 2;
#X connect 2 0 1 0;
#X connect 2 1 3 0;
