#N canvas 295 22 380 321 10;
#X obj 18 141 cnv 10 135 10 empty empty empty 20 12 0 14 -261682 -66577
0;
#X obj 18 57 inlet~;
#X obj 72 98 handlers/ntg_receive \$1;
#X obj 17 214 handlers/ntg_send \$1;
#N canvas 39 303 508 559 onset_detector_module 0;
#X obj 144 64 inlet;
#X obj 17 25 inlet~;
#X obj 271 160 inlet;
#X obj 82 430 switch~;
#X obj 17 406 handlers/mono_module \$0 _________;
#X obj 229 113 inlet;
#X text 16 5 incoming signal;
#X obj 272 480 outlet;
#X text 317 480 outgoing parameter messages;
#X obj 187 274 t b b;
#X obj 17 195 handlers/mono_pre_processor \$0 ____________;
#N canvas 573 110 811 608 envelope_follower 0;
#X obj 69 58 inlet~;
#X obj 413 69 inlet;
#X obj 188 64 inlet;
#X text 187 45 init-bang;
#X text 70 38 sig.in;
#X text 438 525 rejected parameter;
#X obj 472 498 outlet;
#X obj 691 495 outlet;
#X text 657 522 outgoing parameters;
#X text 412 46 incoming parameters;
#X obj 317 66 inlet;
#X text 316 47 fini-bang;
#X msg 193 413 list onset \$1;
#X obj 157 190 env~;
#X obj 157 274 max 0;
#X obj 157 327 line 0 1;
#X msg 157 307 \$1 50;
#X obj 157 211 dbtorms;
#X obj 157 253 min 1;
#X obj 388 120 route;
#X obj 157 233 * 10;
#X connect 0 0 13 0;
#X connect 1 0 19 0;
#X connect 12 0 7 0;
#X connect 13 0 17 0;
#X connect 14 0 16 0;
#X connect 15 0 12 0;
#X connect 16 0 15 0;
#X connect 17 0 20 0;
#X connect 18 0 14 0;
#X connect 19 1 6 0;
#X connect 20 0 18 0;
#X restore 155 315 pd envelope_follower;
#X obj 35 255 core/vu~;
#X obj 35 278 list prepend vu1;
#X obj 80 234 route active;
#X connect 0 0 10 1;
#X connect 1 0 10 0;
#X connect 2 0 10 2;
#X connect 2 0 14 0;
#X connect 4 1 3 0;
#X connect 5 0 11 2;
#X connect 9 0 4 1;
#X connect 9 1 11 1;
#X connect 10 0 4 0;
#X connect 10 1 11 0;
#X connect 10 1 12 0;
#X connect 10 2 9 0;
#X connect 10 3 11 3;
#X connect 11 0 4 2;
#X connect 11 1 7 0;
#X connect 12 0 13 0;
#X connect 13 0 7 0;
#X connect 14 0 12 1;
#X restore 17 138 pd onset_detector_module;
#X connect 1 0 4 0;
#X connect 2 0 4 1;
#X connect 2 1 4 2;
#X connect 2 2 4 3;
#X connect 4 0 3 0;
