#N canvas 109 37 819 739 10;
#X text 303 53 1 signal out port;
#X text 303 37 1 signal in port;
#X text 316 99 1.) parameter: "active" \, type: <bool> \, unit [-]
;
#X text 346 129 description: switches the module on and off from DSP
tree;
#X text 346 298 description: switches a bypass path in parallel;
#X text 356 312 to the processor on and off;
#X text 345 364 description: mutes the effect way of the processor
;
#X text 346 413 description: makes a mix of the effected signal (wet
= 1);
#X text 356 428 and the input signal (dry = 0);
#X text 346 181 description: multiplies the incoming signal with this
value;
#X text 356 196 before it is going further to effect input;
#X text 346 246 description: multiplies the signal from effect output
;
#X text 346 114 initial-value: 1 \, range: (0/1) \, class: module;
#X text 346 231 initial-value: 1 \, range: (0...4) \, class: processor
;
#X text 346 166 initial-value: 1 \, range: (0...4) \, class: processor
;
#X text 346 283 initial-value: 0 \, range: (0/1) \, class: processor
;
#X text 346 348 initial-value: 0 \, range: (0/1) \, class: processor
;
#X text 346 398 initial-value: 1 \, range: (0...1) \, class: processor
;
#X obj 18 141 cnv 10 135 10 empty empty empty 20 12 0 14 -261682 -66577
0;
#X obj 17 91 inlet~;
#X obj 17 170 outlet~;
#X text 303 69 8 data in ports;
#X text 316 382 6.) parameter: "mix" \, type: <float> \, unit [-];
#X text 316 333 5.) parameter: "mute" \, type: <bool> \, unit [-];
#X text 318 268 4.) parameter: "bypass" \, type: <bool> \, unit [-]
;
#X text 316 151 2.) parameter: "inLevel" \, type: <float> \, unit [-]
;
#X text 317 216 3.) parameter: "outLevel" \, type: <float> \, unit
[-];
#X obj 113 90 handlers/ntg_receive \$1;
#X text 315 533 8.) parameter: "modulationDepth" \, type: <float> \,
unit [-];
#X text 349 549 initial-value: 1 \, range: (0.0 ... 1.0) \,;
#X text 316 454 7.) parameter: "modulationFrequency" \, type: <float>
\,;
#X text 341 470 unit [Hz] \, initial-value: 0 Hz \, range: (0.001...100.0
Hz) \,;
#X text 339 501 description: frequency of the LFO.;
#X text 349 579 description: relative amplitude of the LFO.;
#N canvas 66 79 714 386 flanger_module_____________ 0;
#X obj 17 345 outlet~;
#X obj 108 148 cnv 10 164 10 empty empty empty 20 12 0 14 -261682 -66577
0;
#X obj 120 29 inlet;
#X obj 17 25 inlet~;
#X obj 303 29 inlet;
#X text 303 12 named parameter-messages;
#X text 120 12 init-bang;
#X obj 107 274 switch~;
#X obj 17 187 handlers/mono_post_processor \$0 _;
#X obj 17 230 handlers/mono_module \$0 _________;
#X obj 17 99 handlers/mono_pre_processor \$0 __;
#X obj 205 28 inlet;
#X text 205 11 fini-bang;
#N canvas 49 40 695 453 flanger__________________ 0;
#X obj 500 29 inlet;
#X obj 18 31 inlet~;
#X obj 24 338 outlet~;
#X obj 249 31 inlet;
#X obj 353 343 outlet;
#X text 243 15 init-bang;
#X text 500 13 route parameters;
#X text 349 362 rejected parameters;
#X text 16 15 from pre-processor;
#X text 23 364 to post-processor;
#X obj 227 342 outlet;
#X text 216 377 init-bang;
#X text 244 3 from prev.;
#X text 223 363 to next;
#X obj 272 83 t b b;
#X obj 175 169 core/flanger~;
#X connect 0 0 15 1;
#X connect 1 0 15 0;
#X connect 3 0 14 0;
#X connect 14 0 10 0;
#X connect 14 1 15 2;
#X connect 15 0 2 0;
#X connect 15 1 4 0;
#X restore 82 145 pd flanger__________________;
#X connect 2 0 10 1;
#X connect 3 0 10 0;
#X connect 4 0 10 2;
#X connect 8 0 9 0;
#X connect 8 1 9 1;
#X connect 8 2 9 2;
#X connect 9 0 0 0;
#X connect 9 1 7 0;
#X connect 10 0 8 0;
#X connect 10 1 13 0;
#X connect 10 2 13 1;
#X connect 10 3 13 2;
#X connect 13 0 8 1;
#X connect 13 1 8 2;
#X connect 13 2 8 3;
#X restore 17 138 pd flanger_module_____________;
#X text 303 14 flanger: produces peaks and troughs in frequency spectrum
;
#X text 340 485 class: flanger;
#X text 354 563 class: flanger;
#X text 405 639 Thomas Musil \, 22.04.2010;
#X text 14 608 1.) initial argument: <float> unique id of the module
;
#X connect 19 0 34 0;
#X connect 27 0 34 1;
#X connect 27 1 34 2;
#X connect 27 2 34 3;
#X connect 34 0 20 0;
