#N canvas 395 45 1068 876 10;
#X obj 90 79 inlet;
#X obj 260 68 inlet;
#X obj 164 142 mtof;
#X obj 164 105 unpack 0 0;
#X text 139 76 pitch / velocity;
#N canvas 212 105 1112 848 adsr 0;
#X obj 390 89 unpack 0 0 0 0;
#X obj 391 328 f;
#X text 404 347 attack;
#X obj 442 327 f;
#X obj 494 326 f;
#X obj 553 325 f;
#X text 455 346 decay;
#X text 507 345 sustain;
#X text 566 344 release;
#X obj 248 178 / 127;
#X obj 209 134 route 0;
#X obj 371 211 bng 15 250 50 0 empty empty empty 17 7 0 10 -262144
-1 -1;
#X obj 314 618 lop~;
#X obj 248 224 sig~;
#X obj 409 262 delay;
#X msg 197 194 stop;
#X obj 197 165 bng 15 250 50 0 empty empty empty 17 7 0 10 -262144
-1 -1;
#X obj 267 434 *~;
#X obj 290 380 sig~;
#X msg 320 330 1;
#X msg 283 330 0;
#X obj 401 556 expr 1000 / $f1;
#X text 180 30 velocity;
#X obj 131 30 inlet;
#X obj 346 40 inlet;
#X text 403 37 attack (ms) \, decay (ms) \, sustain (0-1) \, release
(ms);
#X obj 313 664 outlet~;
#X obj 588 287 delay;
#X obj 595 217 * 4;
#X obj 589 663 outlet;
#X text 607 696 bang when envelope becomes quiet;
#X msg 539 232 stop;
#X obj 385 131 clip 2 999999;
#X obj 474 129 clip 2 999999;
#X obj 421 156 clip 2 999999;
#X connect 0 0 32 0;
#X connect 0 1 34 0;
#X connect 0 2 4 1;
#X connect 0 3 33 0;
#X connect 1 0 21 0;
#X connect 3 0 21 0;
#X connect 4 0 18 0;
#X connect 5 0 21 0;
#X connect 9 0 13 0;
#X connect 10 0 16 0;
#X connect 10 1 9 0;
#X connect 10 1 11 0;
#X connect 11 0 1 0;
#X connect 11 0 14 0;
#X connect 11 0 19 0;
#X connect 11 0 31 0;
#X connect 12 0 26 0;
#X connect 13 0 17 0;
#X connect 14 0 3 0;
#X connect 14 0 4 0;
#X connect 15 0 14 0;
#X connect 16 0 15 0;
#X connect 16 0 5 0;
#X connect 16 0 20 0;
#X connect 16 0 27 0;
#X connect 17 0 12 0;
#X connect 18 0 17 1;
#X connect 19 0 18 0;
#X connect 20 0 18 0;
#X connect 21 0 12 1;
#X connect 23 0 10 0;
#X connect 24 0 0 0;
#X connect 27 0 29 0;
#X connect 28 0 27 1;
#X connect 31 0 27 0;
#X connect 32 0 14 1;
#X connect 32 0 1 1;
#X connect 33 0 28 0;
#X connect 33 0 5 1;
#X connect 34 0 3 1;
#X restore 222 147 pd adsr;
#X msg 171 179 1;
#X msg 260 174 0;
#X obj 212 224 switch~;
#N canvas 48 265 450 300 A 0;
#X obj 115 41 inlet~;
#X obj 116 236 outlet~;
#X obj 127 108 *~;
#X obj 153 138 *~;
#X obj 72 155 *~ 1;
#X obj 114 188 +~;
#X obj 218 167 *~ -0.333;
#X obj 210 71 inlet;
#X obj 227 111 * -1;
#X connect 0 0 2 0;
#X connect 0 0 2 1;
#X connect 0 0 3 1;
#X connect 0 0 4 0;
#X connect 2 0 3 0;
#X connect 3 0 6 0;
#X connect 4 0 5 0;
#X connect 5 0 1 0;
#X connect 6 0 5 1;
#X connect 7 0 8 0;
#X connect 8 0 6 1;
#X restore 537 451 pd A;
#N canvas 48 548 450 300 B 0;
#X obj 155 56 inlet~;
#X obj 178 107 lop~;
#X obj 178 188 clip~ -1 1;
#X obj 212 56 inlet;
#X obj 178 242 outlet~;
#X connect 0 0 1 0;
#X connect 1 0 2 0;
#X connect 2 0 4 0;
#X connect 3 0 1 1;
#X restore 529 691 pd B;
#X obj 509 212 noise~;
#X obj 432 327 *~;
#X obj 540 367 vd~ buf1;
#X obj 415 369 delwrite~ buf1 1000;
#X obj 526 558 +~;
#X obj 444 679 hip~ 10;
#X obj 521 744 delwrite~ buf2 1000;
#X obj 672 281 vd~ buf2;
#X msg 638 556 1000;
#X obj 877 376 block~ 8;
#X obj 448 764 outlet~;
#X obj 911 625 * 0.99;
#X floatatom 783 689 5 0 0 0 - - -;
#X obj 593 600 /;
#X obj 597 537 bang;
#X obj 607 453 f;
#X obj 469 289 *~ 0.01;
#X obj 356 322 *~ 2;
#X text 310 70 air;
#X floatatom 425 236 5 0 0 0 - - -;
#X obj 423 185 expr pow(10 \, $f1/10)/100;
#X obj 548 640 * 8;
#X obj 588 663 * 0.5;
#X obj 660 462 *~ 0.5;
#X obj 613 314 *~ 0.85;
#X obj 260 104 route adsr air clip bandwidth power feedback init;
#X obj 673 504 bng 15 250 50 0 empty empty empty 17 7 0 10 -262144
-1 -1;
#X connect 0 0 3 0;
#X connect 0 0 6 0;
#X connect 1 0 36 0;
#X connect 2 0 26 0;
#X connect 3 0 2 0;
#X connect 3 1 5 0;
#X connect 5 0 28 0;
#X connect 5 0 12 1;
#X connect 5 1 7 0;
#X connect 6 0 8 0;
#X connect 7 0 8 0;
#X connect 9 0 15 0;
#X connect 10 0 17 0;
#X connect 11 0 27 0;
#X connect 12 0 14 0;
#X connect 13 0 9 0;
#X connect 15 0 10 0;
#X connect 15 0 16 0;
#X connect 16 0 21 0;
#X connect 18 0 34 0;
#X connect 18 0 35 0;
#X connect 19 0 24 0;
#X connect 22 0 18 0;
#X connect 22 0 33 0;
#X connect 24 0 22 0;
#X connect 24 0 23 0;
#X connect 25 0 24 0;
#X connect 26 0 24 1;
#X connect 26 0 25 0;
#X connect 26 0 32 0;
#X connect 27 0 12 0;
#X connect 28 0 14 0;
#X connect 30 0 27 1;
#X connect 31 0 30 0;
#X connect 32 0 10 1;
#X connect 33 0 13 0;
#X connect 34 0 15 1;
#X connect 35 0 14 0;
#X connect 36 0 5 1;
#X connect 36 1 31 0;
#X connect 36 2 9 1;
#X connect 36 3 32 1;
#X connect 36 4 28 1;
#X connect 36 5 35 1;
#X connect 36 6 37 0;
#X connect 37 0 19 0;
