#N canvas 238 597 860 356 10;
#X obj 21 99 handlers/ntg_receive \$1;
#X obj 21 267 outlet~;
#X text 317 310 initial-value: 0.8;
#X text 317 297 parameter: "sustain" \, type: <float> \, unit: [-]
;
#X text 322 21 Flute synthesis module;
#X text 323 45 Midi input \, monophonic;
#X text 322 33 User can set several parameters;
#X text 317 95 parameter: "air" \, type: <float> \, unit: [-];
#X text 317 108 initial-value: 2;
#X text 317 121 description: Amount of breathing;
#X text 319 132 parameter: "clip" \, type: <float> \, unit: [-];
#X text 319 145 initial-value: 0.2;
#X text 319 158 description: Amplitude limitation;
#X text 317 170 parameter: "power" \, type: <float> \, unit: [-];
#X text 317 183 initial-value: 2;
#X text 317 196 description: Midi velocity multiplier;
#X text 316 208 parameter: "feedback" \, type: <float> \, unit: [-]
;
#X text 316 221 initial-value: 0.9;
#X text 316 234 description: Amount of sound which is fed back per
cycle;
#X text 318 248 parameter: "attack" \, type: <float> \, unit: s;
#X text 318 274 parameter: "decay" \, type: <float> \, unit: s;
#X text 316 322 parameter: "release" \, type: <float> \, unit: s;
#X text 316 335 initial-value: 0.2;
#X text 318 287 initial-value: 0.1;
#X text 318 261 initial-value: 0.005;
#N canvas 488 343 744 410 Flute_module 1;
#N canvas 791 35 647 405 Flute 1;
#X msg 346 166 adsr;
#X obj 402 192 pack s 0 0 0 0;
#X obj 90 243 notein;
#X obj 90 284 pack 0 0;
#X obj 90 348 outlet~;
#X obj 131 37 inlet;
#X obj 62 36 inlet;
#X text -1 36 initbang;
#X text 177 39 integra parameters;
#X obj 479 139 * 1000;
#X obj 433 148 * 1000;
#X obj 388 145 * 1000;
#X obj 90 315 Flute_mono;
#X msg 164 222 air 2 \, clip 0.2 \, bandwidth 2 \, adsr 5 100 0.8 200
\, power 2 \, feedback 0.9 \, init;
#X obj 262 272 route list;
#X obj 131 78 route attack decay sustain release;
#X connect 0 0 1 0;
#X connect 1 0 14 0;
#X connect 2 0 3 0;
#X connect 2 1 3 1;
#X connect 3 0 12 0;
#X connect 5 0 15 0;
#X connect 6 0 13 0;
#X connect 9 0 1 4;
#X connect 10 0 1 2;
#X connect 11 0 1 1;
#X connect 12 0 4 0;
#X connect 13 0 12 1;
#X connect 14 0 12 1;
#X connect 15 0 0 0;
#X connect 15 0 11 0;
#X connect 15 1 0 0;
#X connect 15 1 10 0;
#X connect 15 2 0 0;
#X connect 15 2 1 3;
#X connect 15 3 0 0;
#X connect 15 3 9 0;
#X connect 15 4 12 1;
#X restore 83 143 pd Flute;
#X obj 152 28 inlet;
#X obj 17 345 outlet~;
#X obj 402 26 inlet;
#X text 402 9 named parameter-messages;
#X text 152 11 init-bang;
#X obj 107 274 switch~;
#X obj 17 230 handlers/mono_module \$0 _________;
#X obj 244 29 inlet;
#X text 244 12 fini-bang;
#X obj 17 187 handlers/mono_generator \$0 ______;
#X connect 0 0 10 0;
#X connect 1 0 0 0;
#X connect 1 0 10 1;
#X connect 3 0 0 1;
#X connect 3 0 10 2;
#X connect 7 0 2 0;
#X connect 7 1 6 0;
#X connect 10 0 7 0;
#X connect 10 1 7 1;
#X connect 10 2 7 2;
#X restore 21 173 pd Flute_module _______;
#X connect 0 0 25 0;
#X connect 0 1 25 1;
#X connect 0 2 25 2;
#X connect 25 0 1 0;
