#N canvas 197 22 369 377 10;
#X obj 19 131 cnv 10 135 10 empty empty empty 20 12 0 14 -261682 -66577
0;
#X obj 18 56 inlet~;
#X obj 18 170 outlet~;
#X obj 120 84 handlers/ntg_receive \$1;
#X text 27 250 (based on Thomas Musil's modules);
#X obj 71 55 inlet~;
#X obj 120 55 inlet~;
#X obj 171 55 inlet~;
#N canvas 548 196 714 386 4x1Mixer_module______________________ 1;
#X obj 291 46 inlet;
#X obj 17 25 inlet~;
#X obj 17 345 outlet~;
#X obj 108 148 cnv 10 164 10 empty empty empty 20 12 0 14 -261682 -66577
0;
#X obj 541 44 inlet;
#X text 541 27 named parameter-messages;
#X text 291 29 init-bang;
#X obj 107 274 switch~;
#X obj 17 187 handlers/mono_post_processor \$0 _;
#X obj 17 230 handlers/mono_module \$0 _________;
#X obj 383 47 inlet;
#X text 383 30 fini-bang;
#X obj 62 25 inlet~;
#X obj 111 25 inlet~;
#X obj 162 25 inlet~;
#N canvas 68 36 1324 914 4x1Mixer___________________ 1;
#X obj 938 36 inlet;
#X obj 37 36 inlet~;
#X obj 213 657 outlet~;
#X obj 848 37 inlet;
#X obj 949 659 outlet;
#X text 843 20 init-bang;
#X text 938 17 route parameters;
#X text 949 680 rejected parameters;
#X text 213 678 to post-processor;
#X obj 850 655 outlet;
#X text 839 689 init-bang;
#X text 843 9 from prev.;
#X text 850 676 to next;
#X obj 848 67 t b b;
#X obj 213 36 inlet~;
#X obj 388 36 inlet~;
#X obj 564 36 inlet~;
#X obj 82 199 clip 0 4;
#X obj 258 199 clip 0 4;
#X obj 433 199 clip 0 4;
#X obj 609 199 clip 0 4;
#X obj 37 229 generics/line_mul~ 1 20;
#X obj 213 229 generics/line_mul~ 1 20;
#X obj 388 229 generics/line_mul~ 1 20;
#X obj 564 229 generics/line_mul~ 1 20;
#X obj 506 660 outlet;
#X text 500 683 output attribute;
#X obj 247 474 core/vu~;
#X obj 247 500 list prepend vu1;
#X obj 375 476 core/vu~;
#X obj 509 476 core/vu~;
#X obj 637 478 core/vu~;
#X obj 375 502 list prepend vu2;
#X obj 509 502 list prepend vu3;
#X obj 637 504 list prepend vu4;
#X obj 979 330 route active;
#X obj 213 341 *~ 1;
#X obj 37 341 *~ 1;
#X obj 388 341 *~ 1;
#X obj 564 341 *~ 1;
#X obj 938 139 route level1 level2 level3 level4 phaseInv1 phaseInv2
phaseInv3 phaseInv4;
#X obj 585 316 * -1;
#X obj 409 315 * -1;
#X obj 234 315 * -1;
#X obj 58 314 * -1;
#X connect 0 0 40 0;
#X connect 1 0 21 0;
#X connect 3 0 13 0;
#X connect 13 0 9 0;
#X connect 14 0 22 0;
#X connect 15 0 23 0;
#X connect 16 0 24 0;
#X connect 17 0 21 1;
#X connect 18 0 22 1;
#X connect 19 0 23 1;
#X connect 20 0 24 1;
#X connect 21 0 37 0;
#X connect 22 0 36 0;
#X connect 23 0 38 0;
#X connect 24 0 39 0;
#X connect 27 0 28 0;
#X connect 28 0 25 0;
#X connect 29 0 32 0;
#X connect 30 0 33 0;
#X connect 31 0 34 0;
#X connect 32 0 25 0;
#X connect 33 0 25 0;
#X connect 34 0 25 0;
#X connect 35 0 27 1;
#X connect 35 0 29 1;
#X connect 35 0 30 1;
#X connect 35 0 31 1;
#X connect 36 0 2 0;
#X connect 36 0 29 0;
#X connect 37 0 2 0;
#X connect 37 0 27 0;
#X connect 38 0 2 0;
#X connect 38 0 30 0;
#X connect 39 0 2 0;
#X connect 39 0 31 0;
#X connect 40 0 17 0;
#X connect 40 1 18 0;
#X connect 40 2 19 0;
#X connect 40 3 20 0;
#X connect 40 4 44 0;
#X connect 40 5 43 0;
#X connect 40 6 42 0;
#X connect 40 7 41 0;
#X connect 40 8 35 0;
#X connect 40 8 4 0;
#X connect 41 0 39 1;
#X connect 42 0 38 1;
#X connect 43 0 36 1;
#X connect 44 0 37 1;
#X restore 82 145 pd 4x1Mixer___________________;
#X obj 216 347 outlet;
#X obj 392 247 route active;
#X obj 347 283 core/vu~;
#X text 320 353 including dry and clean signal;
#X text 320 338 Level meter for total output \,;
#X obj 347 309 list prepend vuOut;
#X obj 112 316 route vu3;
#X floatatom 110 351 5 0 0 0 - - -;
#X connect 0 0 15 4;
#X connect 1 0 8 0;
#X connect 1 0 15 0;
#X connect 4 0 15 5;
#X connect 4 0 17 0;
#X connect 8 0 9 0;
#X connect 8 1 9 1;
#X connect 8 2 9 2;
#X connect 9 0 2 0;
#X connect 9 0 18 0;
#X connect 9 1 7 0;
#X connect 12 0 8 0;
#X connect 12 0 15 1;
#X connect 13 0 8 0;
#X connect 13 0 15 2;
#X connect 14 0 8 0;
#X connect 14 0 15 3;
#X connect 15 0 8 1;
#X connect 15 1 16 0;
#X connect 15 1 22 0;
#X connect 15 2 8 2;
#X connect 15 3 8 3;
#X connect 17 0 18 1;
#X connect 18 0 21 0;
#X connect 21 0 16 0;
#X connect 22 0 23 0;
#X restore 18 128 pd 4x1Mixer_module______________________;
#X obj 138 171 handlers/ntg_send \$1;
#X text 28 234 Dag Henning Kalvøy \, 31.01.2011;
#X connect 1 0 8 0;
#X connect 3 0 8 4;
#X connect 3 1 8 5;
#X connect 3 2 8 6;
#X connect 5 0 8 1;
#X connect 6 0 8 2;
#X connect 7 0 8 3;
#X connect 8 0 2 0;
#X connect 8 1 9 0;
