#N canvas 619 22 385 308 10;
#X obj 19 131 cnv 10 135 10 empty empty empty 20 12 0 14 -261682 -66577
0;
#X obj 17 91 inlet~;
#X obj 18 170 outlet~;
#N canvas 726 283 714 386 delay_module____________ 0;
#X obj 152 28 inlet;
#X obj 17 25 inlet~;
#X obj 17 345 outlet~;
#X obj 108 148 cnv 10 164 10 empty empty empty 20 12 0 14 -261682 -66577
0;
#X obj 402 26 inlet;
#X text 402 9 named parameter-messages;
#X text 152 11 init-bang;
#X obj 123 280 switch~;
#X obj 17 99 handlers/mono_pre_processor \$0 __;
#X obj 244 29 inlet;
#X text 244 12 fini-bang;
#N canvas 547 133 644 648 delay__________________ 0;
#X obj 394 30 inlet;
#X obj 29 36 inlet~;
#X obj 29 538 outlet~;
#X obj 225 32 inlet;
#X obj 441 549 outlet;
#X text 219 16 init-bang;
#X text 394 14 route parameters;
#X text 387 569 rejected parameters;
#X text 27 20 from pre-processor;
#X text 28 564 to post-processor;
#X obj 265 549 outlet;
#X text 254 584 init-bang;
#X text 220 4 from prev.;
#X text 261 570 to next;
#X obj 225 59 t b b;
#N canvas 0 22 450 300 sub_delwrite~ 0;
#X obj 75 41 inlet~;
#X obj 73 213 outlet~;
#X obj 76 92 delwrite~ \$0-del 36000;
#X connect 0 0 2 0;
#X restore 29 106 pd sub_delwrite~;
#X obj 108 539 outlet~;
#X obj 34 307 rj/e_graindelread dummy \$0-del;
#N canvas 581 250 610 582 integra2rj 0;
#X obj 479 273 outlet;
#X obj 138 516 outlet;
#X obj 138 12 inlet;
#X msg 200 354 pan-r \$1;
#X obj 138 432 * 1000;
#X obj 168 375 * 1000;
#X obj 231 306 * 1000;
#X obj 261 253 * 1000;
#X msg 168 404 delay-r \$1;
#X msg 138 460 delay \$1;
#X msg 261 282 size-r \$1;
#X msg 231 333 size \$1;
#X msg 292 233 vol-r \$1;
#X msg 322 207 vol \$1;
#X msg 384 159 bw \$1;
#X msg 353 181 phase \$1;
#X msg 446 114 grain-rate \$1;
#X obj 138 42 route delayTime delayVariation panVariation grainSize
sizeVariation levelVariation grainLevel grainPhase grainQ phaseVariation
grainRate;
#X msg 415 136 phase-r \$1;
#X connect 2 0 17 0;
#X connect 3 0 1 0;
#X connect 4 0 9 0;
#X connect 5 0 8 0;
#X connect 6 0 11 0;
#X connect 7 0 10 0;
#X connect 8 0 1 0;
#X connect 9 0 1 0;
#X connect 10 0 1 0;
#X connect 11 0 1 0;
#X connect 12 0 1 0;
#X connect 13 0 1 0;
#X connect 14 0 1 0;
#X connect 15 0 1 0;
#X connect 16 0 1 0;
#X connect 17 0 4 0;
#X connect 17 1 5 0;
#X connect 17 2 3 0;
#X connect 17 3 6 0;
#X connect 17 4 7 0;
#X connect 17 5 12 0;
#X connect 17 6 13 0;
#X connect 17 7 15 0;
#X connect 17 8 14 0;
#X connect 17 9 18 0;
#X connect 17 10 16 0;
#X connect 17 11 0 0;
#X connect 18 0 1 0;
#X restore 394 120 pd integra2rj;
#X connect 0 0 18 0;
#X connect 1 0 15 0;
#X connect 3 0 14 0;
#X connect 14 0 10 0;
#X connect 17 0 2 0;
#X connect 17 1 16 0;
#X connect 18 0 17 1;
#X connect 18 1 4 0;
#X restore 107 145 pd delay__________________;
#X obj 17 187 handlers/stereo_post_processor \$0 _;
#X obj 17 230 handlers/stereo_module \$0 _________;
#X obj 77 345 outlet~;
#X connect 0 0 8 1;
#X connect 1 0 8 0;
#X connect 1 0 12 1;
#X connect 4 0 8 2;
#X connect 8 0 12 0;
#X connect 8 1 11 0;
#X connect 8 2 11 1;
#X connect 8 3 11 2;
#X connect 11 0 12 2;
#X connect 11 1 12 3;
#X connect 11 2 12 4;
#X connect 11 3 12 5;
#X connect 12 0 13 0;
#X connect 12 1 13 1;
#X connect 12 2 13 2;
#X connect 12 3 13 3;
#X connect 13 0 2 0;
#X connect 13 1 14 0;
#X connect 13 2 7 0;
#X restore 18 128 pd delay_module____________;
#X obj 87 96 handlers/ntg_receive \$1;
#X obj 183 175 outlet~;
#X connect 1 0 3 0;
#X connect 3 0 2 0;
#X connect 3 1 5 0;
#X connect 4 0 3 1;
#X connect 4 1 3 2;
#X connect 4 2 3 3;
