#N canvas 301 138 823 665 10;
#X text 303 53 1 signal out port;
#X text 303 37 1 signal in port;
#X text 303 14 high-pass: high pass filter of first order;
#X text 316 99 1.) parameter: "active" \, type: <bool> \, unit [-]
;
#X text 346 129 description: switches the module on and off from DSP
tree;
#X text 346 301 description: switches a bypass path in parallel;
#X text 356 315 to the processor on and off;
#X text 345 367 description: mutes the effect way of the processor
;
#X text 346 416 description: makes a mix of the effected signal (wet
= 1);
#X text 356 431 and the input signal (dry = 0);
#X text 346 184 description: multiplies the incoming signal with this
value;
#X text 356 199 before it is going further to effect input;
#X text 346 249 description: multiplies the signal from effect output
;
#X text 346 114 initial-value: 1 \, range: (0/1) \, class: module;
#X text 346 234 initial-value: 1 \, range: (0...4) \, class: processor
;
#X text 346 169 initial-value: 1 \, range: (0...4) \, class: processor
;
#X text 346 286 initial-value: 0 \, range: (0/1) \, class: processor
;
#X text 346 351 initial-value: 0 \, range: (0/1) \, class: processor
;
#X text 346 401 initial-value: 1 \, range: (0...1) \, class: processor
;
#X text 345 487 description: cuts off the signal spectrum below this
;
#X text 356 502 frequency with 6 dB per octave;
#X obj 18 141 cnv 10 135 10 empty empty empty 20 12 0 14 -261682 -66577
0;
#X obj 17 91 inlet~;
#X obj 17 170 outlet~;
#X text 405 522 Thomas Musil \, 11.11.2009;
#X text 318 271 4.) parameter: "bypass" \, type: <bool> \, unit [-]
;
#X text 316 336 5.) parameter: "mute" \, type: <bool> \, unit [-];
#X text 316 386 6.) parameter: "mix" \, type: <float> \, unit [-];
#X text 316 456 7.) parameter: "frequency" \, type: <float> \, unit
[Hz];
#X text 316 154 2.) parameter: "inLevel" \, type: <float> \, unit [-]
;
#X text 317 219 3.) parameter: "outLevel" \, type: <float> \, unit
[-];
#X text 303 69 7 data in ports;
#X text 346 471 initial-value: 440 Hz \, range: (20...20000 Hz) \,
class: filter;
#N canvas 66 79 714 386 high_pass_module_________ 0;
#X obj 17 345 outlet~;
#X obj 109 148 cnv 10 164 10 empty empty empty 20 12 0 14 -261682 -66577
0;
#X obj 128 29 inlet;
#X obj 17 25 inlet~;
#X obj 299 31 inlet;
#X text 299 14 named parameter-messages;
#X text 128 12 init-bang;
#X obj 107 274 switch~;
#X obj 17 99 handlers/mono_pre_processor \$0 __;
#X obj 17 187 handlers/mono_post_processor \$0 _;
#X obj 17 230 handlers/mono_module \$0 _________;
#N canvas 366 293 797 509 high_pass______________ 0;
#X obj 280 29 inlet;
#X obj 18 31 inlet~;
#X obj 18 413 outlet~;
#X obj 18 340 +~;
#X obj 279 57 route frequency;
#X obj 179 31 inlet;
#X obj 380 425 outlet;
#X text 173 15 init-bang;
#X text 280 13 route parameters;
#X text 376 444 rejected parameters;
#X text 16 15 from pre-processor;
#X text 17 439 to post-processor;
#X obj 254 424 outlet;
#X text 243 459 init-bang;
#X text 174 3 from prev.;
#X text 250 445 to next;
#X obj 252 303 noise~;
#X obj 252 324 *~ 1e-14;
#X text 313 310 dithering-noise against denormal floatingpoint numbers
(SSE2-Register);
#X obj 82 193 pack 440 20;
#X obj 82 217 line 440 1.45125;
#X obj 82 170 clip 20 20000;
#X obj 18 363 core/high_pass_1p~ 440;
#X obj 210 163 t b b;
#X connect 0 0 4 0;
#X connect 1 0 3 0;
#X connect 3 0 22 0;
#X connect 4 0 21 0;
#X connect 4 1 6 0;
#X connect 5 0 23 0;
#X connect 16 0 17 0;
#X connect 17 0 3 1;
#X connect 19 0 20 0;
#X connect 20 0 22 1;
#X connect 21 0 19 0;
#X connect 22 0 2 0;
#X connect 23 0 12 0;
#X connect 23 1 22 2;
#X restore 107 145 pd high_pass______________;
#X obj 214 31 inlet;
#X text 214 14 fini-bang;
#X connect 2 0 8 1;
#X connect 3 0 8 0;
#X connect 4 0 8 2;
#X connect 8 0 9 0;
#X connect 8 1 11 0;
#X connect 8 2 11 1;
#X connect 8 3 11 2;
#X connect 9 0 10 0;
#X connect 9 1 10 1;
#X connect 9 2 10 2;
#X connect 10 0 0 0;
#X connect 10 1 7 0;
#X connect 11 0 9 1;
#X connect 11 1 9 2;
#X connect 11 2 9 3;
#X restore 17 138 pd high_pass_module_________;
#X obj 110 93 handlers/ntg_receive \$1;
#X text 14 578 1.) initial argument: <float> unique id of the module
;
#X connect 22 0 33 0;
#X connect 33 0 23 0;
#X connect 34 0 33 1;
#X connect 34 1 33 2;
#X connect 34 2 33 3;
