#N canvas 33 50 450 300 10;
#X obj 87 113 handlers/ntg_receive \$1;
#X obj 114 185 handlers/ntg_send \$1;
#N canvas 199 346 672 458 LipsEyesBang_controller 1;
#X obj 109 55 inlet;
#X obj 279 55 inlet;
#X text 279 38 named parameter-messages;
#X text 109 38 init-bang;
#X obj 192 53 inlet;
#X text 192 36 fini-bang;
#X obj 258 367 outlet;
#N canvas 643 197 1033 702 LEB-controller 1;
#X obj 508 36 inlet;
#X obj 225 32 inlet;
#X obj 774 602 outlet;
#X text 219 16 init-bang;
#X text 508 20 route parameters;
#X text 770 621 rejected parameters;
#X obj 17 444 outlet;
#X text 6 479 init-bang;
#X text 220 4 from prev.;
#X text 13 465 to next;
#X obj 225 59 t b b;
#X obj 356 30 inlet;
#X obj 318 634 outlet;
#X text 313 658 output parameters;
#X text 356 14 fini-bang;
#N canvas 0 22 502 550 midiIn_and_ChannelSelect 0;
#X obj 64 97 pack f f f;
#X msg 64 125 \$3 \$2 \$1;
#X obj 49 354 sel;
#X msg 63 193 \$1;
#X obj 86 385 list;
#X obj 240 128 moses 1;
#X obj 79 241 pack f f;
#X obj 240 150 t b;
#X msg 240 171 0;
#X obj 285 168 t f b;
#X msg 316 189 1;
#X text 144 167 omni channel;
#X text 346 190 selectable channel;
#X msg 78 266 \$2 \$1;
#X obj 78 287 route 0 1;
#X obj 80 309 t b b;
#X msg 120 334 -999;
#X obj 63 167 t a a;
#X obj 64 218 t a a;
#X obj 64 62 notein;
#X floatatom 263 93 5 0 0 0 - - -;
#X msg 86 412 \$3 \$2;
#X obj 240 47 inlet;
#X obj 86 462 outlet;
#X obj 214 431 stripnote;
#X obj 214 462 outlet;
#X connect 0 0 1 0;
#X connect 1 0 17 0;
#X connect 2 0 4 0;
#X connect 3 0 18 0;
#X connect 4 0 21 0;
#X connect 5 0 7 0;
#X connect 5 1 9 0;
#X connect 6 0 13 0;
#X connect 7 0 8 0;
#X connect 8 0 6 1;
#X connect 9 0 2 1;
#X connect 9 1 10 0;
#X connect 10 0 6 1;
#X connect 13 0 14 0;
#X connect 14 0 15 0;
#X connect 15 0 4 0;
#X connect 15 1 16 0;
#X connect 16 0 2 1;
#X connect 17 0 3 0;
#X connect 17 1 4 1;
#X connect 18 0 2 0;
#X connect 18 1 6 0;
#X connect 19 0 0 0;
#X connect 19 1 0 1;
#X connect 19 2 0 2;
#X connect 20 0 5 0;
#X connect 21 0 23 0;
#X connect 21 0 24 0;
#X connect 22 0 5 0;
#X connect 24 0 25 0;
#X restore 166 506 pd midiIn_and_ChannelSelect;
#X obj 204 593 packOSC;
#X obj 204 650 udpsend;
#X msg -6 611 disconnect;
#X msg 43 577 connect localhost 8883;
#X msg 166 533 send /MIDInoteSampler \$1 \$2;
#N canvas 0 22 502 550 midiIn_and_ChannelSelect 0;
#X obj 64 97 pack f f f;
#X msg 64 125 \$3 \$2 \$1;
#X obj 49 354 sel;
#X msg 63 193 \$1;
#X obj 86 385 list;
#X obj 240 128 moses 1;
#X obj 79 241 pack f f;
#X obj 240 150 t b;
#X msg 240 171 0;
#X obj 285 168 t f b;
#X msg 316 189 1;
#X text 144 167 omni channel;
#X text 346 190 selectable channel;
#X msg 78 266 \$2 \$1;
#X obj 78 287 route 0 1;
#X obj 80 309 t b b;
#X msg 120 334 -999;
#X obj 63 167 t a a;
#X obj 64 218 t a a;
#X obj 64 62 notein;
#X floatatom 263 93 5 0 0 0 - - -;
#X msg 86 412 \$3 \$2;
#X obj 240 47 inlet;
#X obj 86 462 outlet;
#X obj 215 431 stripnote;
#X obj 215 462 outlet;
#X connect 0 0 1 0;
#X connect 1 0 17 0;
#X connect 2 0 4 0;
#X connect 3 0 18 0;
#X connect 4 0 21 0;
#X connect 5 0 7 0;
#X connect 5 1 9 0;
#X connect 6 0 13 0;
#X connect 7 0 8 0;
#X connect 8 0 6 1;
#X connect 9 0 2 1;
#X connect 9 1 10 0;
#X connect 10 0 6 1;
#X connect 13 0 14 0;
#X connect 14 0 15 0;
#X connect 15 0 4 0;
#X connect 15 1 16 0;
#X connect 16 0 2 1;
#X connect 17 0 3 0;
#X connect 17 1 4 1;
#X connect 18 0 2 0;
#X connect 18 1 6 0;
#X connect 19 0 0 0;
#X connect 19 1 0 1;
#X connect 19 2 0 2;
#X connect 20 0 5 0;
#X connect 21 0 23 0;
#X connect 21 0 24 0;
#X connect 22 0 5 0;
#X connect 24 0 25 0;
#X restore 346 507 pd midiIn_and_ChannelSelect;
#X msg 541 395 send /brightness \$1;
#X msg 577 436 send /blueLevel \$1;
#X msg 346 534 send /MIDInoteVideo \$1 \$2;
#X msg 318 581 samplerMidiMonitor \$1;
#X msg 377 604 videoMidiMonitor \$1;
#X obj 219 357 spigot;
#X obj 252 119 del 500;
#X msg 252 142 1;
#X obj 398 117 route midiChSampler samplerMidiMonitor 01LipsSample
02LipsSample LA44Sample stopSamples midiChVideo videoMidiMonitor brightness
blueLevel;
#X floatatom 139 474 5 0 16 0 - - -;
#X floatatom 332 465 5 0 16 0 - - -;
#X text 128 452 channel for sampler;
#X text 321 443 channel for video;
#X obj 430 233 bng 15 250 50 0 empty empty empty 17 7 0 10 -262144
-1 -1;
#X obj 183 185 bng 15 250 50 0 empty empty empty 17 7 0 10 -262144
-1 -1;
#X obj 178 209 bng 15 250 50 0 empty empty empty 17 7 0 10 -262144
-1 -1;
#X obj 164 231 bng 15 250 50 0 empty empty empty 17 7 0 10 -262144
-1 -1;
#X floatatom 640 312 5 0 100 0 - - -;
#X obj 640 334 / 100;
#X floatatom 684 360 5 0 100 0 - - -;
#X obj 684 382 / 100;
#X msg 219 209 send /01LipsSample bang;
#X msg 231 233 send /02LipsSample bang;
#X msg 241 259 send /LA44Sample bang;
#X msg 441 266 send /stopSamples bang;
#X connect 0 0 30 0;
#X connect 1 0 10 0;
#X connect 10 0 6 0;
#X connect 10 1 28 0;
#X connect 15 0 20 0;
#X connect 15 1 25 0;
#X connect 16 0 17 0;
#X connect 18 0 17 0;
#X connect 19 0 17 0;
#X connect 20 0 16 0;
#X connect 21 0 24 0;
#X connect 21 0 26 0;
#X connect 22 0 16 0;
#X connect 23 0 16 0;
#X connect 24 0 16 0;
#X connect 25 0 12 0;
#X connect 26 0 12 0;
#X connect 27 0 16 0;
#X connect 28 0 29 0;
#X connect 28 0 19 0;
#X connect 29 0 27 1;
#X connect 30 0 15 0;
#X connect 30 2 43 0;
#X connect 30 3 44 0;
#X connect 30 4 45 0;
#X connect 30 5 46 0;
#X connect 30 6 21 0;
#X connect 30 8 22 0;
#X connect 30 9 23 0;
#X connect 30 10 2 0;
#X connect 31 0 15 0;
#X connect 32 0 21 0;
#X connect 35 0 46 0;
#X connect 36 0 43 0;
#X connect 37 0 44 0;
#X connect 38 0 45 0;
#X connect 39 0 40 0;
#X connect 40 0 22 0;
#X connect 41 0 42 0;
#X connect 42 0 23 0;
#X connect 43 0 27 0;
#X connect 44 0 27 0;
#X connect 45 0 27 0;
#X connect 46 0 16 0;
#X restore 85 153 pd LEB-controller;
#X connect 0 0 7 0;
#X connect 1 0 7 2;
#X connect 4 0 7 1;
#X connect 7 1 6 0;
#X restore 28 145 pd LipsEyesBang_controller;
#X connect 0 0 2 0;
#X connect 0 1 2 1;
#X connect 0 2 2 2;
#X connect 2 0 1 0;
