#N canvas 657 36 341 254 10;
#X obj 19 131 cnv 10 135 10 empty empty empty 20 12 0 14 -261682 -66577
0;
#X obj 17 91 inlet~;
#X obj 18 170 outlet~;
#X obj 111 93 handlers/ntg_receive \$1;
#N canvas 641 329 714 386 material_simulator_module________ 0;
#X obj 152 28 inlet;
#X obj 17 25 inlet~;
#X obj 17 345 outlet~;
#X obj 108 148 cnv 10 164 10 empty empty empty 20 12 0 14 -261682 -66577
0;
#X obj 402 26 inlet;
#X text 402 9 named parameter-messages;
#X text 152 11 init-bang;
#X obj 107 274 switch~;
#X obj 17 99 handlers/mono_pre_processor \$0 __;
#X obj 17 187 handlers/mono_post_processor \$0 _;
#X obj 17 230 handlers/mono_module \$0 _________;
#X obj 244 29 inlet;
#X text 244 12 fini-bang;
#N canvas 376 68 925 724 material_simulator______________ 0;
#X obj 394 30 inlet;
#X obj 29 538 outlet~;
#X obj 225 32 inlet;
#X obj 391 550 outlet;
#X text 219 16 init-bang;
#X text 394 14 route parameters;
#X text 387 569 rejected parameters;
#X text 27 20 from pre-processor;
#X text 28 564 to post-processor;
#X obj 265 549 outlet;
#X text 254 584 init-bang;
#X text 220 4 from prev.;
#X text 261 570 to next;
#X obj 225 59 t b b;
#X obj -83 444 bp~ 440 80;
#X obj -5 444 bp~ 440 80;
#X obj 72 444 bp~ 440 80;
#X obj 150 444 bp~ 440 80;
#X obj -12 337 unpack 1 2 3 4 5;
#X msg -11 146 3454 5645 6433 6999 600;
#X text -83 146 metal;
#X text -85 173 glass 2;
#X text -83 279 wood;
#X msg -11 308 109 230 352 413 10;
#X msg -11 227 1245 1503 2131 2575 100;
#X text -83 251 plastic;
#X text -84 225 china;
#X text -84 199 glass 1;
#X text -87 307 cardboard;
#X msg -11 254 627 781 972 1184 70;
#X text -29 112 Simple material formants;
#X msg -11 171 2312 2466 3200 5314 380;
#X msg -12 198 1679 1233 4251 4640 340;
#X msg -11 281 221 333 426 527 40;
#X obj 29 497 *~ 1;
#X obj 277 437 / 10;
#X obj 148 346 t f f;
#X obj 30 40 inlet~;
#X obj 395 58 route material;
#X obj 395 96 sel metal glass2 glass1 china plastic wood cardboard
;
#X obj 396 76 symbol;
#X connect 0 0 38 0;
#X connect 2 0 13 0;
#X connect 13 0 9 0;
#X connect 14 0 34 0;
#X connect 15 0 34 0;
#X connect 16 0 34 0;
#X connect 17 0 34 0;
#X connect 18 0 14 1;
#X connect 18 1 15 1;
#X connect 18 2 16 1;
#X connect 18 3 17 1;
#X connect 18 4 35 0;
#X connect 18 4 36 0;
#X connect 19 0 18 0;
#X connect 23 0 18 0;
#X connect 24 0 18 0;
#X connect 29 0 18 0;
#X connect 31 0 18 0;
#X connect 32 0 18 0;
#X connect 33 0 18 0;
#X connect 34 0 1 0;
#X connect 35 0 34 1;
#X connect 36 0 17 2;
#X connect 36 0 16 2;
#X connect 36 0 15 2;
#X connect 36 0 14 2;
#X connect 36 1 35 0;
#X connect 37 0 14 0;
#X connect 37 0 15 0;
#X connect 37 0 16 0;
#X connect 37 0 17 0;
#X connect 38 0 40 0;
#X connect 38 1 3 0;
#X connect 39 0 19 0;
#X connect 39 1 31 0;
#X connect 39 2 32 0;
#X connect 39 3 24 0;
#X connect 39 4 29 0;
#X connect 39 5 33 0;
#X connect 39 6 23 0;
#X connect 40 0 39 0;
#X restore 107 145 pd material_simulator______________;
#X connect 0 0 8 1;
#X connect 1 0 8 0;
#X connect 4 0 8 2;
#X connect 8 0 9 0;
#X connect 8 1 13 0;
#X connect 8 2 13 1;
#X connect 8 3 13 2;
#X connect 9 0 10 0;
#X connect 9 1 10 1;
#X connect 9 2 10 2;
#X connect 10 0 2 0;
#X connect 10 1 7 0;
#X connect 13 0 9 1;
#X connect 13 1 9 2;
#X connect 13 2 9 3;
#X restore 18 128 pd material_simulator_module________;
#X connect 1 0 4 0;
#X connect 3 0 4 1;
#X connect 3 1 4 2;
#X connect 3 2 4 3;
#X connect 4 0 2 0;
