#N canvas 107 181 450 300 10;
#X obj 111 78 handlers/ntg_receive \$1;
#X text 50 253 * initial argument '\$1' gives instance id;
#N canvas 439 22 836 767 midi_module________ 0;
#X obj 123 30 inlet;
#X obj 311 31 inlet;
#X text 311 14 named parameter-messages;
#X text 123 13 init-bang;
#X obj 217 33 inlet;
#X text 217 16 fini-bang;
#X obj 63 720 outlet;
#X obj 41 105 ctlin;
#X obj 41 140 pack f f f;
#X msg 41 168 \$3 \$2 \$1;
#X obj 393 167 moses 1;
#X text 110 167 reverse order;
#X msg 63 455 \$2 \$3;
#X obj 393 189 t b;
#X msg 393 210 0;
#X obj 438 207 t f b;
#X msg 469 228 1;
#X text 297 206 omni channel;
#X text 499 229 selectable channel;
#X text 410 78 MidiChannelNumber (1..16 \, 0...omni);
#X text 139 118 MidiChannelNumber (0..15);
#X text 117 105 ControlChangeNumber (0..127);
#X text 96 94 ControllerValue (0..127);
#X obj 312 74 route channel;
#X obj 63 481 unpack f f;
#X text 111 456 number value;
#X msg -1 56 \$1 67 3;
#X floatatom -4 23 5 0 0 0 - - -;
#X obj 63 516 makefilename cc%d;
#X obj 63 548 pack s f;
#X obj 63 671 list;
#N canvas 0 22 507 454 match_channel 0;
#X obj 65 41 inlet;
#X obj 280 47 inlet;
#X obj 101 354 outlet;
#X obj 61 283 sel;
#X msg 75 122 \$1;
#X obj 98 314 list;
#X obj 91 170 pack f f;
#X msg 90 195 \$2 \$1;
#X obj 91 217 route 0 1;
#X obj 92 238 t b b;
#X msg 132 263 -999;
#X obj 75 96 t a a;
#X obj 76 147 t a a;
#X obj 167 52 inlet;
#X connect 0 0 11 0;
#X connect 1 0 6 1;
#X connect 3 0 5 0;
#X connect 4 0 12 0;
#X connect 5 0 2 0;
#X connect 6 0 7 0;
#X connect 7 0 8 0;
#X connect 8 0 9 0;
#X connect 9 0 5 0;
#X connect 9 1 10 0;
#X connect 10 0 3 1;
#X connect 11 0 4 0;
#X connect 11 1 5 1;
#X connect 12 0 3 0;
#X connect 12 1 6 0;
#X connect 13 0 3 1;
#X restore 62 358 pd match_channel;
#N canvas 0 22 507 454 match_channel 0;
#X obj 65 41 inlet;
#X obj 280 47 inlet;
#X obj 101 354 outlet;
#X obj 61 283 sel;
#X msg 75 122 \$1;
#X obj 98 314 list;
#X obj 91 170 pack f f;
#X msg 90 195 \$2 \$1;
#X obj 91 217 route 0 1;
#X obj 92 238 t b b;
#X msg 132 263 -999;
#X obj 75 96 t a a;
#X obj 76 147 t a a;
#X obj 167 52 inlet;
#X connect 0 0 11 0;
#X connect 1 0 6 1;
#X connect 3 0 5 0;
#X connect 4 0 12 0;
#X connect 5 0 2 0;
#X connect 6 0 7 0;
#X connect 7 0 8 0;
#X connect 8 0 9 0;
#X connect 9 0 5 0;
#X connect 9 1 10 0;
#X connect 10 0 3 1;
#X connect 11 0 4 0;
#X connect 11 1 5 1;
#X connect 12 0 3 0;
#X connect 12 1 6 0;
#X connect 13 0 3 1;
#X restore 273 476 pd match_channel;
#X obj 269 325 notein;
#X obj 268 360 pack f f f;
#X obj 268 554 makefilename note%d;
#X msg 273 505 \$3;
#X msg 267 584 \$1 bang;
#X obj 268 410 route 0;
#X msg 268 387 \$2 \$1 \$3;
#X msg 273 439 \$3 \$1 \$2;
#X obj 279 665 list;
#X obj 280 691 outlet;
#X connect 0 0 13 0;
#X connect 1 0 23 0;
#X connect 7 0 8 0;
#X connect 7 1 8 1;
#X connect 7 2 8 2;
#X connect 8 0 9 0;
#X connect 9 0 31 0;
#X connect 10 0 13 0;
#X connect 10 1 15 0;
#X connect 12 0 24 0;
#X connect 13 0 14 0;
#X connect 14 0 31 2;
#X connect 14 0 32 2;
#X connect 15 0 31 1;
#X connect 15 0 32 1;
#X connect 15 1 16 0;
#X connect 16 0 31 2;
#X connect 16 0 32 2;
#X connect 23 0 10 0;
#X connect 24 0 28 0;
#X connect 24 1 29 1;
#X connect 26 0 9 0;
#X connect 27 0 26 0;
#X connect 28 0 29 0;
#X connect 29 0 30 0;
#X connect 30 0 6 0;
#X connect 31 0 12 0;
#X connect 32 0 36 0;
#X connect 33 0 34 0;
#X connect 33 1 34 1;
#X connect 33 2 34 2;
#X connect 34 0 39 0;
#X connect 35 0 37 0;
#X connect 36 0 35 0;
#X connect 37 0 41 0;
#X connect 38 1 40 0;
#X connect 39 0 38 0;
#X connect 40 0 32 0;
#X connect 41 0 42 0;
#X restore 111 121 pd midi_module________;
#X obj 111 184 handlers/ntg_send_int \$1;
#X obj 268 184 handlers/ntg_send \$1;
#X connect 0 0 2 0;
#X connect 0 1 2 1;
#X connect 0 2 2 2;
#X connect 2 0 3 0;
#X connect 2 1 4 0;
