#N canvas 90 159 618 344 10;
#X declare -path externals/cyclone;
#X obj 64 182 handlers/ntg_send \$1;
#X obj 64 76 handlers/ntg_receive \$1;
#X text 50 253 * initial argument '\$1' gives instance id;
#N canvas 173 106 1259 754 MIDI_to_value 1;
#X obj 109 30 inlet;
#X obj 297 31 inlet;
#X text 297 14 named parameter-messages;
#X text 109 13 init-bang;
#X obj 203 33 inlet;
#X text 203 16 fini-bang;
#X obj 648 682 outlet;
#X obj 297 150 NoteInAndChannelSelect;
#X obj 297 180 unpack f f;
#X msg 172 148 60;
#X floatatom 244 252 5 0 0 0 - - -;
#X floatatom 354 252 5 0 0 0 - - -;
#X msg 221 148 30;
#X obj 376 110 tgl 15 0 empty empty empty 17 7 0 10 -262144 -1 -1 0
1;
#X obj 455 139 tgl 15 0 empty empty empty 17 7 0 10 -262144 -1 -1 0
1;
#X obj 354 300 sel 0;
#X msg 352 324 0;
#X obj 381 324 expr if ($f2 == 0 \, 127 \, $f1);
#X obj 172 180 makenote 96 1300;
#X obj 244 311 spigot;
#X obj 277 286 +;
#X floatatom 381 354 5 0 0 0 - - -;
#X text 399 108 GUI: send note off;
#X text 478 137 GUI: velocity;
#X text 103 254 GUI: midi note monitor;
#X floatatom 244 350 5 0 0 0 - - -;
#X obj 297 66 route midiChannel sendNoteOff velocityOn;
#X obj 938 488 SingleNoteFix 3;
#X obj 821 488 SingleNoteFix 2;
#X obj 707 489 SingleNoteFix 1;
#X msg 132 349 noteMonitor \$1;
#X obj 596 34 declare -path externals/cyclone;
#X obj 1051 488 SingleNoteFix 4;
#X obj 684 526 SingleNoteFix 5;
#X obj 798 525 SingleNoteFix 6;
#X obj 915 525 SingleNoteFix 7;
#X obj 1028 525 SingleNoteFix 8;
#X obj 648 568 SingleNoteFix 9;
#X obj 762 567 SingleNoteFix 10;
#X obj 879 567 SingleNoteFix 11;
#X obj 992 567 SingleNoteFix 12;
#X obj 610 610 SingleNoteFix 13;
#X obj 724 609 SingleNoteFix 14;
#X obj 841 609 SingleNoteFix 15;
#X obj 954 609 SingleNoteFix 16;
#X connect 1 0 26 0;
#X connect 7 0 8 0;
#X connect 8 0 10 0;
#X connect 8 1 11 0;
#X connect 9 0 18 0;
#X connect 10 0 19 0;
#X connect 10 0 30 0;
#X connect 11 0 15 0;
#X connect 11 0 20 0;
#X connect 12 0 18 0;
#X connect 13 0 20 1;
#X connect 14 0 17 1;
#X connect 15 0 16 0;
#X connect 15 1 17 0;
#X connect 16 0 21 0;
#X connect 17 0 21 0;
#X connect 18 0 10 0;
#X connect 18 1 11 0;
#X connect 19 0 25 0;
#X connect 20 0 19 1;
#X connect 21 0 27 2;
#X connect 21 0 28 2;
#X connect 21 0 29 2;
#X connect 21 0 32 2;
#X connect 21 0 36 2;
#X connect 21 0 35 2;
#X connect 21 0 34 2;
#X connect 21 0 33 2;
#X connect 21 0 40 2;
#X connect 21 0 39 2;
#X connect 21 0 38 2;
#X connect 21 0 37 2;
#X connect 21 0 44 2;
#X connect 21 0 43 2;
#X connect 21 0 42 2;
#X connect 21 0 41 2;
#X connect 25 0 27 1;
#X connect 25 0 28 1;
#X connect 25 0 29 1;
#X connect 25 0 32 1;
#X connect 25 0 36 1;
#X connect 25 0 35 1;
#X connect 25 0 34 1;
#X connect 25 0 33 1;
#X connect 25 0 40 1;
#X connect 25 0 39 1;
#X connect 25 0 38 1;
#X connect 25 0 37 1;
#X connect 25 0 44 1;
#X connect 25 0 43 1;
#X connect 25 0 42 1;
#X connect 25 0 41 1;
#X connect 26 0 7 0;
#X connect 26 1 13 0;
#X connect 26 2 14 0;
#X connect 26 3 27 0;
#X connect 26 3 28 0;
#X connect 26 3 29 0;
#X connect 26 3 32 0;
#X connect 26 3 36 0;
#X connect 26 3 35 0;
#X connect 26 3 34 0;
#X connect 26 3 33 0;
#X connect 26 3 40 0;
#X connect 26 3 39 0;
#X connect 26 3 38 0;
#X connect 26 3 37 0;
#X connect 26 3 41 0;
#X connect 26 3 42 0;
#X connect 26 3 43 0;
#X connect 26 3 44 0;
#X connect 27 0 6 0;
#X connect 28 0 6 0;
#X connect 29 0 6 0;
#X connect 30 0 6 0;
#X connect 33 0 6 0;
#X connect 34 0 6 0;
#X connect 35 0 6 0;
#X connect 36 0 6 0;
#X connect 37 0 6 0;
#X connect 38 0 6 0;
#X connect 39 0 6 0;
#X connect 40 0 6 0;
#X connect 41 0 6 0;
#X connect 42 0 6 0;
#X connect 43 0 6 0;
#X connect 44 0 6 0;
#X restore 64 119 pd MIDI_to_value;
#X text 445 282 Dag Henning Kalvøy \, 2011;
#X text 231 120 Module for selecting MIDI notes and produce velocity
values from them. For routing purposes \, using the output values in
other modules.;
#X connect 1 0 3 0;
#X connect 1 1 3 1;
#X connect 1 2 3 2;
#X connect 3 0 0 0;
