#N canvas 677 60 450 300 10;
#X obj 111 184 handlers/ntg_send \$1;
#X obj 111 78 handlers/ntg_receive \$1;
#X text 50 253 * initial argument '\$1' gives instance id;
#N canvas 347 39 836 767 midi_control_in_module________ 0;
#X obj 123 30 inlet;
#X obj 311 31 inlet;
#X text 311 14 named parameter-messages;
#X text 123 13 init-bang;
#X obj 217 33 inlet;
#X text 217 16 fini-bang;
#X obj 348 681 outlet;
#X text 448 650 <- pass the attribute name and then value \, to identify
the attribute to libIntegra;
#X obj 41 105 ctlin;
#X msg 348 652 list value \$1;
#X obj 41 140 pack f f f;
#X obj 240 562 sel;
#X msg 239 530 \$1;
#X msg 258 616 \$2;
#X obj 312 74 route ccNumber chNumber;
#X msg 41 168 \$3 \$2 \$1;
#X obj 239 504 t l l;
#X obj 289 531 clip 0 127;
#X obj 258 593 list;
#X obj 26 397 sel;
#X msg 40 236 \$1;
#X obj 40 210 t l l;
#X obj 63 428 list;
#X obj 392 145 clip 0 16;
#X obj 393 167 moses 1;
#X text 110 167 reverse order;
#X msg 63 451 \$2 \$3;
#X obj 56 284 pack f f;
#X obj 393 189 t b;
#X msg 393 210 0;
#X obj 438 207 t f b;
#X msg 469 228 1;
#X text 297 206 omni channel;
#X text 499 229 selectable channel;
#X msg 55 309 \$2 \$1;
#X obj 56 331 route 0 1;
#X obj 41 261 t f f;
#X text 317 94 ControlChangeNumber (0..127);
#X text 398 120 MidiChannelNumber (1..16 \, 0...omni);
#X obj 57 352 t b b;
#X msg 97 377 -999;
#X text 139 118 MidiChannelNumber (0..15);
#X text 117 105 ControlChangeNumber (0..127);
#X text 96 94 ControllerValue (0..127);
#X msg 410 403 list ccIn \$1;
#X msg 419 432 list valueIn \$1;
#X msg 426 464 list chIn \$1;
#X text 551 435 Possibly temporary feedback... - jb;
#X connect 0 0 28 0;
#X connect 1 0 14 0;
#X connect 8 0 10 0;
#X connect 8 0 45 0;
#X connect 8 1 10 1;
#X connect 8 1 44 0;
#X connect 8 2 10 2;
#X connect 8 2 46 0;
#X connect 9 0 6 0;
#X connect 10 0 15 0;
#X connect 11 0 18 0;
#X connect 12 0 11 0;
#X connect 13 0 9 0;
#X connect 14 0 17 0;
#X connect 14 1 23 0;
#X connect 15 0 21 0;
#X connect 16 0 12 0;
#X connect 16 1 18 1;
#X connect 17 0 11 1;
#X connect 18 0 13 0;
#X connect 19 0 22 0;
#X connect 20 0 36 0;
#X connect 21 0 20 0;
#X connect 21 1 22 1;
#X connect 22 0 26 0;
#X connect 23 0 24 0;
#X connect 24 0 28 0;
#X connect 24 1 30 0;
#X connect 26 0 16 0;
#X connect 27 0 34 0;
#X connect 28 0 29 0;
#X connect 29 0 27 1;
#X connect 30 0 19 1;
#X connect 30 1 31 0;
#X connect 31 0 27 1;
#X connect 34 0 35 0;
#X connect 35 0 39 0;
#X connect 36 0 19 0;
#X connect 36 1 27 0;
#X connect 39 0 22 0;
#X connect 39 1 40 0;
#X connect 40 0 19 1;
#X connect 44 0 6 0;
#X connect 45 0 6 0;
#X connect 46 0 6 0;
#X restore 111 121 pd midi_control_in_module________;
#X connect 1 0 3 0;
#X connect 1 1 3 1;
#X connect 1 2 3 2;
#X connect 3 0 0 0;
