#N canvas 871 189 480 472 10;
#X obj 111 78 handlers/ntg_receive \$1;
#X text 50 253 * initial argument '\$1' gives instance id;
#X text 114 320 manage MIDI-setup of the Host;
#X text 113 340 (c) 2011 IOhannes m zmölnig \, IEM/KUG;
#N canvas 205 99 626 676 midi_settings_module________ 0;
#X obj 65 30 inlet;
#X obj 311 161 inlet;
#X text 311 144 named parameter-messages;
#X text 65 13 init-bang;
#X obj 159 33 inlet;
#X text 159 16 fini-bang;
#X obj 65 495 outlet;
#N canvas 697 189 557 255 midisettings 0;
#X obj 256 117 generics/queryhandler \$0-midisettings;
#X obj 15 117 mediasettings/midisettings;
#X connect 0 0 1 0;
#X connect 1 0 0 0;
#X restore 172 548 pd midisettings;
#X obj 65 436 t a a;
#N canvas 321 119 672 473 driver 0;
#X obj 311 99 t b s;
#X msg 338 122 driver \$1;
#X obj 311 39 inlet setDriver;
#X obj 79 410 outlet;
#X obj 79 142 inlet query;
#X obj 65 116 t b;
#N canvas 836 55 464 601 list_multiple_drivers 0;
#X obj 133 65 inlet;
#X obj 133 532 outlet;
#X obj 318 63 inlet;
#X msg 133 181 listdrivers;
#X obj 152 246 route driverlist;
#X obj 152 268 route float;
#X obj 133 201 t b a b;
#X obj 215 390 t l l;
#X obj 215 346 list split 1;
#X obj 133 407 list prepend;
#X obj 215 367 list append;
#X obj 133 161 t b;
#X obj 152 224 generics/query \$0-midisettings;
#X obj 133 440 list prepend availableDrivers;
#X obj 217 292 symbol;
#X obj 215 321 generics/prepend_symbollength;
#X connect 0 0 11 0;
#X connect 2 0 12 0;
#X connect 3 0 6 0;
#X connect 4 0 5 0;
#X connect 5 1 14 0;
#X connect 6 0 9 0;
#X connect 6 1 12 0;
#X connect 6 2 10 1;
#X connect 7 0 9 1;
#X connect 7 1 10 1;
#X connect 8 0 10 0;
#X connect 9 0 13 0;
#X connect 10 0 7 0;
#X connect 11 0 3 0;
#X connect 12 0 4 0;
#X connect 13 0 1 0;
#X connect 14 0 15 0;
#X connect 15 0 8 0;
#X restore 93 205 pd list_multiple_drivers;
#N canvas 130 273 487 601 list_first_driver 0;
#X obj 133 65 inlet;
#X obj 133 515 outlet;
#X obj 318 63 inlet;
#X msg 133 181 listdrivers;
#X obj 133 403 list prepend;
#X obj 133 161 t b;
#X obj 160 270 generics/query \$0-midisettings;
#X obj 133 477 list prepend availableDrivers;
#X obj 160 292 route driver;
#X obj 133 201 t b a;
#X obj 86 126 bng 15 250 50 0 empty empty empty 17 7 0 10 -262144 -1
-1;
#X obj 160 320 symbol;
#X obj 133 442 list-abs/list-l2s;
#X obj 161 360 generics/prepend_symbollength;
#X connect 0 0 5 0;
#X connect 2 0 6 0;
#X connect 3 0 9 0;
#X connect 4 0 12 0;
#X connect 5 0 3 0;
#X connect 6 0 8 0;
#X connect 7 0 1 0;
#X connect 8 0 11 0;
#X connect 9 0 4 0;
#X connect 9 1 6 0;
#X connect 10 0 5 0;
#X connect 11 0 13 0;
#X connect 12 0 7 0;
#X connect 13 0 4 1;
#X restore 80 287 pd list_first_driver;
#X text 223 290 <- due to what seems to be a bug in midisettings \,
we currently only support one driver;
#X text 221 324 switch to list_multiple_drivers when this is fixed
-jb;
#X connect 0 0 5 0;
#X connect 0 1 1 0;
#X connect 1 0 7 1;
#X connect 2 0 0 0;
#X connect 4 0 7 0;
#X connect 7 0 3 0;
#X restore 65 285 pd driver;
#X obj 311 225 symbol;
#X obj 311 247 t b s;
#N canvas 537 59 782 741 devices 0;
#X obj 47 56 inlet query;
#X obj 47 78 t b;
#X obj 397 37 inlet input;
#X obj 570 38 inlet output;
#X obj 74 177 generics/query \$0-midisettings;
#X obj 69 598 outlet;
#X msg 47 129 listdevices;
#X obj 138 358 t l l;
#X obj 138 275 list split 1;
#X obj 69 379 list prepend;
#X obj 75 201 route devicelist;
#X obj 47 151 t b a b;
#X obj 75 223 route in;
#X obj 75 245 route float;
#X obj 150 246 route float;
#X obj 150 224 route out;
#X obj 284 400 t l l;
#X obj 284 325 list split 1;
#X obj 210 453 list prepend;
#X obj 69 350 t b b;
#X obj 247 262 t b b;
#X obj 69 573 t a;
#X obj 138 335 list prepend;
#X obj 284 377 list prepend;
#X obj 396 93 list prepend device @input;
#X obj 396 181 list trim;
#X obj 396 203 t a;
#X obj 570 93 list prepend device @output;
#X obj 396 243 generics/query \$0-midisettings;
#X obj 396 150 list append;
#X obj 570 63 t b a;
#X obj 397 68 symbol;
#X obj 71 432 list prepend availableInputDevices;
#X obj 209 507 list prepend availableOutputDevices;
#X obj 68 402 list-abs/list-l2s;
#X obj 210 476 list-abs/list-l2s;
#X obj 284 350 generics/prepend_symbollength;
#X obj 137 305 generics/prepend_symbollength;
#X connect 0 0 1 0;
#X connect 1 0 6 0;
#X connect 2 0 31 0;
#X connect 3 0 30 0;
#X connect 4 0 10 0;
#X connect 6 0 11 0;
#X connect 7 0 9 1;
#X connect 7 1 22 1;
#X connect 8 0 37 0;
#X connect 9 0 34 0;
#X connect 10 0 12 0;
#X connect 11 0 19 0;
#X connect 11 1 4 0;
#X connect 11 2 20 0;
#X connect 12 0 13 0;
#X connect 12 1 15 0;
#X connect 13 1 8 0;
#X connect 14 1 17 0;
#X connect 15 0 14 0;
#X connect 16 0 18 1;
#X connect 16 1 23 1;
#X connect 17 0 36 0;
#X connect 18 0 35 0;
#X connect 19 0 9 0;
#X connect 19 1 18 0;
#X connect 20 0 22 1;
#X connect 20 1 23 1;
#X connect 21 0 5 0;
#X connect 22 0 7 0;
#X connect 23 0 16 0;
#X connect 24 0 29 0;
#X connect 25 0 26 0;
#X connect 26 0 28 0;
#X connect 27 0 29 1;
#X connect 29 0 25 0;
#X connect 30 0 31 0;
#X connect 30 1 27 0;
#X connect 31 0 24 0;
#X connect 32 0 21 0;
#X connect 33 0 21 0;
#X connect 34 0 32 0;
#X connect 35 0 33 0;
#X connect 36 0 23 0;
#X connect 37 0 22 0;
#X restore 311 340 pd devices;
#N canvas 5 50 450 300 TEST 0;
#X obj 110 220 t a;
#X msg 153 133 inputDevices ALSA-00 ALSA-01;
#X msg 174 160 outputDevices ALSA-03;
#X msg 110 100 driver ALSA-MIDI;
#X symbolatom 186 200 0 0 0 0 - - -;
#X text 40 29 be aware that deviceNames and driverNames could be symbols
containing spaces (which you cannot create using a msgbox \; use the
symbolbox to type such symbols);
#X obj 110 242 outlet;
#X msg 303 264 inputDevices \$1;
#X symbolatom 303 242 0 0 0 0 - - -;
#X msg 186 222 outputDevices \$1;
#X obj 303 222 bng 15 250 50 0 empty empty empty 17 7 0 10 -262144
-1 -1;
#X obj 186 180 bng 15 250 50 0 empty empty empty 17 7 0 10 -262144
-1 -1;
#X connect 0 0 6 0;
#X connect 1 0 0 0;
#X connect 2 0 0 0;
#X connect 3 0 0 0;
#X connect 4 0 9 0;
#X connect 7 0 0 0;
#X connect 8 0 7 0;
#X connect 9 0 0 0;
#X connect 10 0 8 0;
#X connect 11 0 4 0;
#X restore 411 89 pd TEST;
#X obj 311 183 route selectedDriver selectedInputDevice selectedOutputDevice
;
#X obj 25 28 bng 15 250 50 0 empty empty empty 17 7 0 10 -262144 -1
-1;
#X obj 150 490 print;
#X obj 65 77 t b b b;
#N canvas 656 333 557 478 currentSettings 0;
#X obj 91 46 inlet;
#X obj 91 105 generics/query \$0-midisettings;
#X obj 52 49 bng 15 250 50 0 empty empty empty 17 7 0 10 -262144 -1
-1;
#X obj 159 176 route driver device;
#X obj 160 222 list prepend selectedDriver;
#X obj 214 203 route in out;
#X obj 214 279 list prepend selectedInputDevice;
#X obj 229 356 outlet;
#X obj 214 251 symbol;
#X obj 264 251 symbol;
#X obj 250 313 list prepend selectedOutputDevice;
#X connect 0 0 1 0;
#X connect 1 0 3 0;
#X connect 2 0 1 0;
#X connect 3 0 4 0;
#X connect 3 1 5 0;
#X connect 4 0 7 0;
#X connect 5 0 8 0;
#X connect 5 1 9 0;
#X connect 6 0 7 0;
#X connect 8 0 6 0;
#X connect 9 0 10 0;
#X connect 10 0 7 0;
#X restore 25 169 pd currentSettings;
#X obj 48 123 delay 20;
#X connect 0 0 17 0;
#X connect 1 0 14 0;
#X connect 8 0 6 0;
#X connect 9 0 8 0;
#X connect 10 0 11 0;
#X connect 11 0 12 0;
#X connect 11 1 9 1;
#X connect 12 0 8 0;
#X connect 13 0 14 0;
#X connect 14 0 10 0;
#X connect 14 1 12 1;
#X connect 14 2 12 2;
#X connect 15 0 17 0;
#X connect 17 0 19 0;
#X connect 17 1 12 0;
#X connect 17 2 9 0;
#X connect 18 0 8 0;
#X connect 19 0 18 0;
#X restore 111 121 pd midi_settings_module________;
#X text 113 365 updated Oct 2012 - Jamie Bullock \, Integra Lab;
#X obj 111 184 handlers/ntg_send \$1;
#X connect 0 0 4 0;
#X connect 0 1 4 1;
#X connect 0 2 4 2;
#X connect 4 0 6 0;
