#N canvas 148 65 819 739 10;
#X text 303 53 1 signal out port;
#X text 303 37 1 signal in port;
#X text 316 99 1.) parameter: "active" \, type: <bool> \, unit [-]
;
#X text 346 129 description: switches the module on and off from DSP
tree;
#X text 346 298 description: switches a bypass path in parallel;
#X text 356 312 to the processor on and off;
#X text 345 364 description: mutes the effect way of the processor
;
#X text 346 413 description: makes a mix of the effected signal (wet
= 1);
#X text 356 428 and the input signal (dry = 0);
#X text 346 181 description: multiplies the incoming signal with this
value;
#X text 356 196 before it is going further to effect input;
#X text 346 246 description: multiplies the signal from effect output
;
#X text 346 114 initial-value: 1 \, range: (0/1) \, class: module;
#X text 346 231 initial-value: 1 \, range: (0...4) \, class: processor
;
#X text 346 166 initial-value: 1 \, range: (0...4) \, class: processor
;
#X text 346 283 initial-value: 0 \, range: (0/1) \, class: processor
;
#X text 346 348 initial-value: 0 \, range: (0/1) \, class: processor
;
#X text 346 398 initial-value: 1 \, range: (0...1) \, class: processor
;
#X obj 18 141 cnv 10 135 10 empty empty empty 20 12 0 14 -261682 -66577
0;
#X text 346 548 initial-value: 1 \, range: (0...+inf) \, class: band-pass
;
#X text 345 564 description: Q is ratio of bandwidth over center frequency.
;
#X text 355 580 Bandwidth is the difference between the frequencies
;
#X text 356 595 of upper -3 dB and lower -3 dB magnitude.;
#X text 303 14 notch: band stop filter of second order with Q;
#X text 355 499 in spectrum \, leftwards and rightwards of this frequency
;
#X text 345 484 description: is the center frequency of a stop band
;
#X text 355 514 the magnitude of spectrum increases with 6 dB per octave.
;
#X text 353 610 (related to magnitude level of 0 Hz and/or samplerate/2)
;
#X obj 17 91 inlet~;
#X obj 17 170 outlet~;
#X text 303 69 8 data in ports;
#X text 405 639 Thomas Musil \, 11.11.2009;
#X text 316 533 8.) parameter: "Q" \, type: <float> \, unit [-];
#X text 316 454 7.) parameter: "frequency" \, type: <float> \, unit
[Hz];
#X text 316 382 6.) parameter: "mix" \, type: <float> \, unit [-];
#X text 316 333 5.) parameter: "mute" \, type: <bool> \, unit [-];
#X text 318 268 4.) parameter: "bypass" \, type: <bool> \, unit [-]
;
#X text 316 151 2.) parameter: "inLevel" \, type: <float> \, unit [-]
;
#X text 317 216 3.) parameter: "outLevel" \, type: <float> \, unit
[-];
#X text 346 468 initial-value: 440 Hz \, range: (20...20000 Hz) \,
class: filter;
#N canvas 66 79 714 386 notch_module_____________ 0;
#X obj 17 345 outlet~;
#X obj 108 148 cnv 10 164 10 empty empty empty 20 12 0 14 -261682 -66577
0;
#X obj 120 29 inlet;
#X obj 17 25 inlet~;
#X obj 303 29 inlet;
#X text 303 12 named parameter-messages;
#X text 120 12 init-bang;
#X obj 107 274 switch~;
#N canvas 366 293 797 509 notch__________________ 0;
#X obj 280 29 inlet;
#X obj 18 31 inlet~;
#X obj 18 413 outlet~;
#X obj 18 340 +~;
#X obj 179 31 inlet;
#X obj 380 425 outlet;
#X text 173 15 init-bang;
#X text 280 13 route parameters;
#X text 376 444 rejected parameters;
#X text 16 15 from pre-processor;
#X text 17 439 to post-processor;
#X obj 254 424 outlet;
#X text 243 459 init-bang;
#X text 174 3 from prev.;
#X text 250 445 to next;
#X obj 279 57 route frequency Q;
#X obj 260 303 noise~;
#X obj 260 324 *~ 1e-14;
#X text 321 310 dithering-noise against denormal floatingpoint numbers
(SSE2-Register);
#X obj 68 161 pack 440 20;
#X obj 68 185 line 440 1.45125;
#X obj 114 226 clip 0.001 1000;
#X obj 114 249 pack 1 20;
#X obj 114 273 line 1 1.45125;
#X obj 68 138 clip 20 20000;
#X obj 18 375 core/band_stop_2p~ 440 1;
#X obj 227 164 t b b;
#X connect 0 0 15 0;
#X connect 1 0 3 0;
#X connect 3 0 25 0;
#X connect 4 0 26 0;
#X connect 15 0 24 0;
#X connect 15 1 21 0;
#X connect 15 2 5 0;
#X connect 16 0 17 0;
#X connect 17 0 3 1;
#X connect 19 0 20 0;
#X connect 20 0 25 1;
#X connect 21 0 22 0;
#X connect 22 0 23 0;
#X connect 23 0 25 2;
#X connect 24 0 19 0;
#X connect 25 0 2 0;
#X connect 26 0 11 0;
#X connect 26 1 25 3;
#X restore 107 145 pd notch__________________;
#X obj 17 187 handlers/mono_post_processor \$0 _;
#X obj 17 230 handlers/mono_module \$0 _________;
#X obj 17 99 handlers/mono_pre_processor \$0 __;
#X obj 205 28 inlet;
#X text 205 11 fini-bang;
#X connect 2 0 11 1;
#X connect 3 0 11 0;
#X connect 4 0 11 2;
#X connect 8 0 9 1;
#X connect 8 1 9 2;
#X connect 8 2 9 3;
#X connect 9 0 10 0;
#X connect 9 1 10 1;
#X connect 9 2 10 2;
#X connect 10 0 0 0;
#X connect 10 1 7 0;
#X connect 11 0 9 0;
#X connect 11 1 8 0;
#X connect 11 2 8 1;
#X connect 11 3 8 2;
#X restore 17 138 pd notch_module_____________;
#X obj 113 90 handlers/ntg_receive \$1;
#X text 14 658 1.) initial argument: <float> unique id of the module
;
#X connect 28 0 40 0;
#X connect 40 0 29 0;
#X connect 41 0 40 1;
#X connect 41 1 40 2;
#X connect 41 2 40 3;
