#N canvas 0 22 507 577 10;
#X obj 74 107 pack f f f;
#X msg 74 135 \$3 \$2 \$1;
#X obj 59 364 sel;
#X msg 73 203 \$1;
#X obj 96 395 list;
#X obj 250 138 moses 1;
#X obj 89 251 pack f f;
#X obj 250 160 t b;
#X msg 250 181 0;
#X obj 295 178 t f b;
#X msg 326 199 1;
#X text 154 177 omni channel;
#X text 356 200 selectable channel;
#X msg 88 276 \$2 \$1;
#X obj 88 297 route 0 1;
#X obj 90 319 t b b;
#X msg 130 344 -999;
#X obj 73 177 t a a;
#X obj 74 228 t a a;
#X obj 74 72 notein;
#X floatatom 273 103 5 0 0 0 - - -;
#X msg 96 422 \$3 \$2;
#X obj 250 57 inlet;
#X obj 96 472 outlet;
#X obj 224 441 stripnote;
#X obj 224 472 outlet;
#X connect 0 0 1 0;
#X connect 1 0 17 0;
#X connect 2 0 4 0;
#X connect 3 0 18 0;
#X connect 4 0 21 0;
#X connect 5 0 7 0;
#X connect 5 1 9 0;
#X connect 6 0 13 0;
#X connect 7 0 8 0;
#X connect 8 0 6 1;
#X connect 9 0 2 1;
#X connect 9 1 10 0;
#X connect 10 0 6 1;
#X connect 13 0 14 0;
#X connect 14 0 15 0;
#X connect 15 0 4 0;
#X connect 15 1 16 0;
#X connect 16 0 2 1;
#X connect 17 0 3 0;
#X connect 17 1 4 1;
#X connect 18 0 2 0;
#X connect 18 1 6 0;
#X connect 19 0 0 0;
#X connect 19 1 0 1;
#X connect 19 2 0 2;
#X connect 20 0 5 0;
#X connect 21 0 23 0;
#X connect 21 0 24 0;
#X connect 22 0 5 0;
#X connect 24 0 25 0;
