#N canvas 69 62 1234 560 10;
#X text 408 96 1.) parameter: "active" \, type: <bool> \, unit [-]
;
#X text 438 126 description: switches the module on and off from DSP
tree;
#X text 437 233 description: mutes the effect way of the processor
;
#X text 438 179 description: multiplies the signal from effect output
;
#X text 438 111 initial-value: 1 \, range: (0/1) \, class: module;
#X obj 18 133 cnv 10 125 10 empty empty empty 20 12 0 14 -261682 -66577
0;
#X text 438 164 initial-value: 1 \, range: (0...4) \, class: generator
;
#X text 438 217 initial-value: 0 \, range: (0/1) \, class: generator
;
#X obj 18 170 outlet~;
#X text 15 109 dummy;
#X text 409 149 2.) parameter: "outLevel" \, type: <float> \, unit
[-];
#X text 408 202 3.) parameter: "mute" \, type: <bool> \, unit [-];
#X obj 102 100 handlers/ntg_receive \$1;
#X text 434 281 initial-value: - \, range: - \, loads the soundfile
;
#X text 859 94 unit [-] \, initial-value: 0 \, range: (0/1) \, starts
the;
#X text 859 108 playback of a sound with 1 \, stops the sound with
0;
#X obj 238 174 handlers/ntg_send \$1;
#X text 20 348 1.) initial argument: <float> unique id of the module
;
#X text 820 171 *********************************************************
;
#X text 831 201 1.) out parameter: "pos" \, type: <float>;
#X text 404 266 4.) in parameter: "loadSound" \, type: <symbol> \,
unit [-];
#X text 829 79 5.) in parameter: "play" \, type: <int>;
#X text 859 122 and rewinds to zero position.;
#X text 434 296 into playback buffer and rewinds to position zero.
;
#X text 861 216 unit [sec] \, initial-value: - \, range: (0 ... inf)
\, displays the progress of absolute playpack position in seconds.
;
#X text 312 379 Thomas Musil \, 28.09.2010;
#X text 433 57 5 data in ports;
#X text 433 73 1 data out ports;
#X text 433 40 8 signal out ports;
#X text 408 16 octo-soundfile-player: plays up to a 8 channels soundfile
;
#N canvas 443 252 533 475 octo_soundfile_player_module______ 0;
#X obj 21 363 outlet~;
#X obj 22 165 cnv 10 164 10 empty empty empty 20 12 0 14 -261682 -66577
0;
#X obj 21 55 inlet;
#X text 24 37 dummy;
#X obj 109 55 inlet;
#X obj 279 55 inlet;
#X text 279 38 named parameter-messages;
#X text 109 38 init-bang;
#X obj 143 313 switch~;
#X obj 192 53 inlet;
#X text 192 36 fini-bang;
#X obj 285 413 outlet;
#N canvas 366 293 521 496 octo_soundfile_player____________________
0;
#X obj 280 41 inlet;
#X obj 138 41 inlet;
#X obj 245 358 outlet;
#X text 132 25 init-bang;
#X text 280 25 route parameters;
#X text 285 359 rejected parameters;
#X text 67 413 to post-processor;
#X obj 218 328 outlet;
#X text 262 334 init-bang;
#X text 131 12 from prev;
#X text 268 320 to next;
#X obj 18 43 inlet;
#X text 16 27 dummy;
#X obj 138 74 t b b;
#X obj 286 381 outlet;
#X text 329 381 output parameters;
#X obj 44 161 core/octo_soundfile_player~;
#X obj 30 328 outlet~;
#X obj 50 348 outlet~;
#X obj 70 368 outlet~;
#X obj 90 388 outlet~;
#X obj 110 328 outlet~;
#X obj 130 348 outlet~;
#X obj 150 368 outlet~;
#X obj 170 388 outlet~;
#X obj 207 41 inlet;
#X text 201 25 fini;
#X connect 0 0 16 3;
#X connect 1 0 13 0;
#X connect 11 0 16 0;
#X connect 13 0 7 0;
#X connect 13 1 16 1;
#X connect 16 0 17 0;
#X connect 16 1 18 0;
#X connect 16 2 19 0;
#X connect 16 3 20 0;
#X connect 16 4 21 0;
#X connect 16 5 22 0;
#X connect 16 6 23 0;
#X connect 16 7 24 0;
#X connect 16 8 2 0;
#X connect 16 9 14 0;
#X connect 25 0 16 2;
#X restore 21 162 pd octo_soundfile_player____________________;
#X obj 21 202 handlers/octo_generator \$0;
#X obj 21 283 handlers/octo_module \$0 __;
#X obj 31 383 outlet~;
#X obj 41 403 outlet~;
#X obj 51 423 outlet~;
#X obj 71 363 outlet~;
#X obj 81 383 outlet~;
#X obj 91 403 outlet~;
#X obj 101 423 outlet~;
#X connect 2 0 12 0;
#X connect 4 0 12 1;
#X connect 5 0 12 3;
#X connect 9 0 12 2;
#X connect 12 0 13 0;
#X connect 12 1 13 1;
#X connect 12 2 13 2;
#X connect 12 3 13 3;
#X connect 12 4 13 4;
#X connect 12 5 13 5;
#X connect 12 6 13 6;
#X connect 12 7 13 7;
#X connect 12 8 13 8;
#X connect 12 9 13 9;
#X connect 12 10 11 0;
#X connect 13 0 14 0;
#X connect 13 1 14 1;
#X connect 13 2 14 2;
#X connect 13 3 14 3;
#X connect 13 4 14 4;
#X connect 13 5 14 5;
#X connect 13 6 14 6;
#X connect 13 7 14 7;
#X connect 13 8 14 8;
#X connect 13 9 14 9;
#X connect 14 0 0 0;
#X connect 14 1 15 0;
#X connect 14 2 16 0;
#X connect 14 3 17 0;
#X connect 14 4 18 0;
#X connect 14 5 19 0;
#X connect 14 6 20 0;
#X connect 14 7 21 0;
#X connect 14 8 8 0;
#X restore 18 130 pd octo_soundfile_player_module______;
#X obj 48 190 outlet~;
#X obj 78 210 outlet~;
#X obj 108 230 outlet~;
#X obj 128 170 outlet~;
#X obj 158 190 outlet~;
#X obj 188 210 outlet~;
#X obj 218 230 outlet~;
#X connect 12 0 30 1;
#X connect 12 1 30 2;
#X connect 12 2 30 3;
#X connect 30 0 8 0;
#X connect 30 1 31 0;
#X connect 30 2 32 0;
#X connect 30 3 33 0;
#X connect 30 4 34 0;
#X connect 30 5 35 0;
#X connect 30 6 36 0;
#X connect 30 7 37 0;
#X connect 30 8 16 0;
