#N canvas 116 38 822 696 10;
#X text 336 99 1.) parameter: "active" \, type: <bool> \, unit [-]
;
#X text 366 129 description: switches the module on and off from DSP
tree;
#X text 366 299 description: switches a bypass path in parallel;
#X text 376 313 to the processor on and off;
#X text 365 365 description: mutes the effect way of the processor
;
#X text 366 414 description: makes a mix of the effected signal (wet
= 1);
#X text 376 429 and the input signal (dry = 0);
#X text 366 182 description: multiplies the incoming signal with this
value;
#X text 376 197 before it is going further to effect input;
#X text 366 247 description: multiplies the signal from effect output
;
#X text 366 114 initial-value: 1 \, range: (0/1) \, class: module;
#X text 366 232 initial-value: 1 \, range: (0...4) \, class: processor
;
#X text 366 167 initial-value: 1 \, range: (0...4) \, class: processor
;
#X text 366 284 initial-value: 0 \, range: (0/1) \, class: processor
;
#X text 366 349 initial-value: 0 \, range: (0/1) \, class: processor
;
#X text 366 399 initial-value: 1 \, range: (0...1) \, class: processor
;
#X obj 17 179 cnv 10 135 10 empty empty empty 20 12 0 14 -261682 -66577
0;
#X obj 41 258 outlet~;
#X obj 15 124 inlet~;
#X obj 16 232 outlet~;
#X text 336 152 2.) parameter: "inLevel" \, type: <float> \, unit [-]
;
#X text 337 217 3.) parameter: "outLevel" \, type: <float> \, unit
[-];
#X text 338 269 4.) parameter: "bypass" \, type: <bool> \, unit [-]
;
#X text 336 334 5.) parameter: "mute" \, type: <bool> \, unit [-];
#X text 336 384 6.) parameter: "mix" \, type: <float> \, unit [-];
#X obj 83 149 handlers/ntg_receive \$1;
#X text 373 614 Thomas Musil \, 16.04.2010;
#X text 323 69 7 data in ports;
#X text 323 37 1 signal in ports;
#N canvas 302 80 661 410 quad_panner_module________ 0;
#X obj 17 8 inlet~;
#X obj 17 345 outlet~;
#X obj 205 303 switch~;
#X obj 40 370 outlet~;
#X obj 119 20 inlet;
#X obj 266 23 inlet;
#X text 266 6 named parameter-messages;
#X text 119 3 init-bang;
#X obj 188 21 inlet;
#X text 188 4 fini-bang;
#X obj 17 104 handlers/mono_pre_processor \$0 __;
#X obj 71 345 outlet~;
#X obj 96 370 outlet~;
#X obj 474 343 outlet;
#N canvas 316 79 740 430 octo_panner_________ 0;
#X obj 301 83 inlet;
#X obj 18 31 inlet~;
#X obj 18 247 outlet~;
#X obj 97 62 inlet;
#X obj 302 302 outlet;
#X text 91 46 init-bang;
#X text 301 67 route parameters;
#X text 352 302 rejected parameters;
#X text 19 12 from pre-processor;
#X text 23 303 to post-processor;
#X obj 273 274 outlet;
#X text 316 280 init-bang;
#X text 92 34 from prev.;
#X text 320 267 to next;
#X obj 36 273 outlet~;
#X obj 97 117 t b b;
#X obj 71 246 outlet~;
#X obj 91 272 outlet~;
#X obj 196 73 inlet;
#X text 196 57 fini;
#X obj 331 331 outlet;
#X text 376 333 output parameters;
#X obj 128 246 outlet~;
#X obj 146 272 outlet~;
#X obj 181 245 outlet~;
#X obj 201 271 outlet~;
#X obj 17 186 core/octo_panner~ _______________________________;
#X connect 0 0 26 3;
#X connect 1 0 26 0;
#X connect 3 0 15 0;
#X connect 15 0 10 0;
#X connect 15 1 26 1;
#X connect 18 0 26 2;
#X connect 26 0 2 0;
#X connect 26 1 14 0;
#X connect 26 2 16 0;
#X connect 26 3 17 0;
#X connect 26 4 22 0;
#X connect 26 5 23 0;
#X connect 26 6 24 0;
#X connect 26 7 25 0;
#X connect 26 8 4 0;
#X connect 26 9 20 0;
#X restore 103 145 pd octo_panner_________;
#X obj 17 242 handlers/octo_module \$0 _________;
#X obj 126 345 outlet~;
#X obj 149 370 outlet~;
#X obj 180 345 outlet~;
#X obj 205 370 outlet~;
#X obj 17 195 handlers/octo_post_processor \$0 _;
#X connect 0 0 10 0;
#X connect 4 0 10 1;
#X connect 5 0 10 2;
#X connect 8 0 14 2;
#X connect 10 0 20 0;
#X connect 10 0 20 1;
#X connect 10 0 20 2;
#X connect 10 0 20 3;
#X connect 10 0 20 4;
#X connect 10 0 20 5;
#X connect 10 0 20 6;
#X connect 10 0 20 7;
#X connect 10 1 14 0;
#X connect 10 2 14 1;
#X connect 10 3 14 3;
#X connect 14 0 20 8;
#X connect 14 1 20 9;
#X connect 14 2 20 10;
#X connect 14 3 20 11;
#X connect 14 4 20 12;
#X connect 14 5 20 13;
#X connect 14 6 20 14;
#X connect 14 7 20 15;
#X connect 14 8 20 16;
#X connect 14 9 20 17;
#X connect 14 10 13 0;
#X connect 15 0 1 0;
#X connect 15 1 3 0;
#X connect 15 2 11 0;
#X connect 15 3 12 0;
#X connect 15 4 16 0;
#X connect 15 5 17 0;
#X connect 15 6 18 0;
#X connect 15 7 19 0;
#X connect 15 8 2 0;
#X connect 20 0 15 0;
#X connect 20 1 15 1;
#X connect 20 2 15 2;
#X connect 20 3 15 3;
#X connect 20 4 15 4;
#X connect 20 5 15 5;
#X connect 20 6 15 6;
#X connect 20 7 15 7;
#X connect 20 8 15 8;
#X connect 20 9 15 9;
#X restore 16 176 pd quad_panner_module________;
#X obj 93 309 outlet~;
#X obj 68 285 outlet~;
#X text 14 578 1.) initial argument: <float> unique id of the module
;
#X obj 216 239 handlers/ntg_send \$1;
#X text 322 14 OctoPanner: a 1 to 8 channel audio panner;
#X text 323 53 8 signal out ports;
#X text 337 456 7.) parameter: "panning" \, type: <float>;
#X text 377 482 value of spatial position of input signal.;
#X text 367 470 unit [degree] \, initial-value: 0 \, range: (-180...+180)
;
#X obj 146 260 outlet~;
#X obj 121 234 outlet~;
#X obj 195 305 outlet~;
#X obj 171 282 outlet~;
#X connect 18 0 29 0;
#X connect 25 0 29 1;
#X connect 25 1 29 2;
#X connect 25 2 29 3;
#X connect 29 0 19 0;
#X connect 29 1 17 0;
#X connect 29 2 31 0;
#X connect 29 3 30 0;
#X connect 29 4 40 0;
#X connect 29 5 39 0;
#X connect 29 6 42 0;
#X connect 29 7 41 0;
#X connect 29 8 33 0;
