#N canvas 116 38 822 696 10;
#X text 336 99 1.) parameter: "active" \, type: <bool> \, unit [-]
;
#X text 366 129 description: switches the module on and off from DSP
tree;
#X text 366 299 description: switches a bypass path in parallel;
#X text 376 313 to the processor on and off;
#X text 365 365 description: mutes the effect way of the processor
;
#X text 366 414 description: makes a mix of the effected signal (wet
= 1);
#X text 376 429 and the input signal (dry = 0);
#X text 366 182 description: multiplies the incoming signal with this
value;
#X text 376 197 before it is going further to effect input;
#X text 366 247 description: multiplies the signal from effect output
;
#X text 366 114 initial-value: 1 \, range: (0/1) \, class: module;
#X text 366 232 initial-value: 1 \, range: (0...4) \, class: processor
;
#X text 366 167 initial-value: 1 \, range: (0...4) \, class: processor
;
#X text 366 284 initial-value: 0 \, range: (0/1) \, class: processor
;
#X text 366 349 initial-value: 0 \, range: (0/1) \, class: processor
;
#X text 366 399 initial-value: 1 \, range: (0...1) \, class: processor
;
#X obj 17 179 cnv 10 135 10 empty empty empty 20 12 0 14 -261682 -66577
0;
#X obj 41 258 outlet~;
#X obj 15 124 inlet~;
#X obj 16 232 outlet~;
#X text 336 152 2.) parameter: "inLevel" \, type: <float> \, unit [-]
;
#X text 337 217 3.) parameter: "outLevel" \, type: <float> \, unit
[-];
#X text 338 269 4.) parameter: "bypass" \, type: <bool> \, unit [-]
;
#X text 336 334 5.) parameter: "mute" \, type: <bool> \, unit [-];
#X text 336 384 6.) parameter: "mix" \, type: <float> \, unit [-];
#X obj 78 123 handlers/ntg_receive \$1;
#X text 373 614 Thomas Musil \, 16.04.2010;
#X text 323 37 1 signal in ports;
#X obj 94 259 outlet~;
#X obj 68 234 outlet~;
#X text 14 578 1.) initial argument: <float> unique id of the module
;
#X obj 201 206 handlers/ntg_send \$1;
#X obj 146 260 outlet~;
#X obj 121 234 outlet~;
#N canvas 302 80 661 410 hexa_halaphon_module________ 0;
#X obj 17 8 inlet~;
#X obj 17 345 outlet~;
#X obj 205 303 switch~;
#X obj 40 370 outlet~;
#X obj 119 20 inlet;
#X obj 266 23 inlet;
#X text 266 6 named parameter-messages;
#X text 119 3 init-bang;
#X obj 188 21 inlet;
#X text 188 4 fini-bang;
#X obj 17 104 handlers/mono_pre_processor \$0 __;
#X obj 71 345 outlet~;
#X obj 96 370 outlet~;
#X obj 474 343 outlet;
#X obj 126 345 outlet~;
#X obj 149 370 outlet~;
#N canvas 316 79 740 430 hexa_halaphon_________ 0;
#X obj 445 81 inlet;
#X obj 18 31 inlet~;
#X obj 18 247 outlet~;
#X obj 97 62 inlet;
#X obj 392 275 outlet;
#X text 91 46 init-bang;
#X text 445 65 route parameters;
#X text 374 298 rejected parameters;
#X text 19 12 from pre-processor;
#X text 16 376 to post-processor;
#X obj 273 274 outlet;
#X text 268 310 init-bang;
#X text 92 34 from prev.;
#X text 272 297 to next;
#X obj 47 267 outlet~;
#X obj 97 117 t b b;
#X obj 78 290 outlet~;
#X obj 130 244 outlet~;
#X obj 315 72 inlet;
#X text 315 56 fini;
#X obj 548 278 outlet;
#X text 533 299 output parameters;
#X obj 161 264 outlet~;
#X obj 190 285 outlet~;
#X obj 17 186 core/omaggio_halaphon~ _______________________________
;
#X connect 0 0 24 3;
#X connect 1 0 24 0;
#X connect 3 0 15 0;
#X connect 15 0 10 0;
#X connect 15 1 24 1;
#X connect 18 0 24 2;
#X connect 24 0 2 0;
#X connect 24 1 14 0;
#X connect 24 2 16 0;
#X connect 24 3 17 0;
#X connect 24 4 22 0;
#X connect 24 5 23 0;
#X connect 24 6 4 0;
#X connect 24 7 20 0;
#X restore 103 145 pd hexa_halaphon_________;
#X obj 17 242 handlers/hexa_module \$0 _________;
#X obj 17 195 handlers/hexa_post_processor \$0 _;
#X connect 0 0 10 0;
#X connect 4 0 10 1;
#X connect 5 0 10 2;
#X connect 8 0 16 2;
#X connect 10 0 18 0;
#X connect 10 0 18 1;
#X connect 10 0 18 2;
#X connect 10 0 18 3;
#X connect 10 0 18 4;
#X connect 10 0 18 5;
#X connect 10 1 16 0;
#X connect 10 2 16 1;
#X connect 10 3 16 3;
#X connect 16 0 18 6;
#X connect 16 1 18 7;
#X connect 16 2 18 8;
#X connect 16 3 18 9;
#X connect 16 4 18 10;
#X connect 16 5 18 11;
#X connect 16 6 18 12;
#X connect 16 7 18 13;
#X connect 16 8 13 0;
#X connect 17 0 1 0;
#X connect 17 1 3 0;
#X connect 17 2 11 0;
#X connect 17 3 12 0;
#X connect 17 4 14 0;
#X connect 17 5 15 0;
#X connect 17 6 2 0;
#X connect 18 0 17 0;
#X connect 18 1 17 1;
#X connect 18 2 17 2;
#X connect 18 3 17 3;
#X connect 18 4 17 4;
#X connect 18 5 17 5;
#X connect 18 6 17 6;
#X connect 18 7 17 7;
#X restore 16 176 pd hexa_halaphon_module________;
#X text 322 14 Omaggio Halaphon: a sort of 6 channel audio panner;
#X text 322 51 6 signal out ports;
#X text 323 69 6 data in ports;
#X connect 18 0 34 0;
#X connect 25 0 34 1;
#X connect 25 1 34 2;
#X connect 25 2 34 3;
#X connect 34 0 19 0;
#X connect 34 1 17 0;
#X connect 34 2 29 0;
#X connect 34 3 28 0;
#X connect 34 4 33 0;
#X connect 34 5 32 0;
#X connect 34 6 31 0;
