#N canvas 490 43 380 321 10;
#X obj 18 141 cnv 10 135 10 empty empty empty 20 12 0 14 -261682 -66577
0;
#X obj 18 57 inlet~;
#X obj 96 98 handlers/ntg_receive \$1;
#X obj 17 214 handlers/ntg_send \$1;
#N canvas 50 125 798 626 percussive_onset_detector_module 1;
#X obj 144 64 inlet;
#X obj 17 25 inlet~;
#X obj 271 160 inlet;
#X obj 82 430 switch~;
#X obj 17 406 handlers/mono_module \$0 _________;
#X obj 229 113 inlet;
#X text 16 5 incoming signal;
#X obj 271 480 outlet;
#X text 316 480 outgoing parameter messages;
#X obj 147 275 t b b;
#X obj 17 195 handlers/mono_pre_processor \$0 ____________;
#N canvas 597 87 811 608 onset_detector 0;
#X obj 69 58 inlet~;
#X obj 413 69 inlet;
#X obj 188 64 inlet;
#X text 187 45 init-bang;
#X text 70 38 sig.in;
#X text 438 525 rejected parameter;
#X obj 472 498 outlet;
#X obj 691 495 outlet;
#X text 657 522 outgoing parameters;
#X text 412 46 incoming parameters;
#X obj 317 66 inlet;
#X text 316 47 fini-bang;
#X obj 68 233 bonk~;
#X msg 121 182 minlevel 50;
#X msg 193 413 list onset \$1;
#X obj 100 287 unpack f f f;
#X connect 0 0 12 0;
#X connect 1 0 6 0;
#X connect 2 0 13 0;
#X connect 12 1 15 0;
#X connect 13 0 12 0;
#X connect 14 0 7 0;
#X connect 15 1 14 0;
#X restore 115 316 pd onset_detector;
#X connect 0 0 10 1;
#X connect 1 0 10 0;
#X connect 2 0 10 2;
#X connect 4 1 3 0;
#X connect 5 0 11 2;
#X connect 9 0 4 1;
#X connect 9 1 11 1;
#X connect 10 0 4 0;
#X connect 10 1 11 0;
#X connect 10 2 9 0;
#X connect 10 3 11 3;
#X connect 11 0 4 2;
#X connect 11 1 7 0;
#X restore 17 138 pd percussive_onset_detector_module;
#X connect 1 0 4 0;
#X connect 2 0 4 1;
#X connect 2 1 4 2;
#X connect 2 2 4 3;
#X connect 4 0 3 0;
