#N canvas 175 133 1209 767 10;
#X obj 20 148 cnv 10 135 10 empty empty empty 20 12 0 14 -261682 -66577
0;
#X obj 17 200 outlet~;
#X obj 18 85 inlet~;
#X text 19 45 signal;
#X text 19 61 inlet;
#X text 763 167 the previously selected pd array (soundfile storage).
;
#X text 332 566 initial-value:- \, range:- \, class: stereo-granular-synthesizer
;
#X text 332 581 description: loads the soundfile content from harddisk
into the previously selected pd array.;
#X text 763 145 unit [sec] \, initial-value: 10 \, range: (0.1..90)
\, class: stereo-granular-synthesizer resizes;
#X text 332 517 selects the soundfile storage for editing like loading
\, resizing \, recording.;
#X text 377 42 1 signal in port;
#X text 332 152 description: switches the module on and off from DSP
tree;
#X text 332 325 description: switches a bypass path in parallel;
#X text 342 339 to the processor on and off;
#X text 331 391 description: mutes the effect way of the processor
;
#X text 332 440 description: makes a mix of the effected signal (wet
= 1);
#X text 342 455 and the input signal (dry = 0);
#X text 332 208 description: multiplies the incoming signal with this
value;
#X text 342 223 before it is going further to effect input;
#X text 332 273 description: multiplies the signal from effect output
;
#X text 332 137 initial-value: 1 \, range: (0/1) \, class: module;
#X text 332 258 initial-value: 1 \, range: (0...4) \, class: processor
;
#X text 332 193 initial-value: 1 \, range: (0...4) \, class: processor
;
#X text 332 310 initial-value: 0 \, range: (0/1) \, class: processor
;
#X text 332 375 initial-value: 0 \, range: (0/1) \, class: processor
;
#X text 332 425 initial-value: 1 \, range: (0...1) \, class: processor
;
#X text 302 410 6.) parameter: "mix" \, type: <float> \, unit [-];
#X text 302 178 2.) parameter: "inLevel" \, type: <float> \, unit [-]
;
#X text 303 243 3.) parameter: "outLevel" \, type: <float> \, unit
[-];
#X text 332 492 unit [-] \, initial-value: 1 \, range: (1..5) \, class:
stereo-granular-synthesizer \, description:;
#X text 253 14 mono-phase-vocoder:;
#X text 376 57 1 signal out ports;
#X text 640 694 Thomas Musil \, 18.03.2010;
#X obj 77 86 handlers/ntg_receive \$1;
#N canvas 341 238 634 486 phase_vocoder_module 0;
#X obj 17 385 outlet~;
#X obj 83 328 switch~;
#X obj 108 207 cnv 10 164 10 empty empty empty 20 12 0 14 -261682 -66577
0;
#X obj 130 29 inlet;
#X obj 310 31 inlet;
#X text 310 14 named parameter-messages;
#X text 130 12 init-bang;
#X obj 18 29 inlet~;
#X obj 219 32 inlet;
#X text 219 15 fini-bang;
#X obj 39 100 handlers/mono_pre_processor \$0 ________;
#X obj 18 273 handlers/mono_module \$0 ______________;
#X obj 17 245 handlers/mono_post_processor \$0 ______;
#X obj 300 390 outlet;
#N canvas 635 79 620 343 mono_phase_vocoder________ 0;
#X obj 426 29 inlet;
#X obj 18 247 outlet~;
#X obj 132 37 inlet;
#X obj 313 242 outlet;
#X text 126 21 init-bang;
#X text 426 13 route parameters;
#X text 309 261 rejected parameters;
#X text 26 271 to post-processor;
#X obj 210 242 outlet;
#X text 199 277 init-bang;
#X text 127 9 from prev.;
#X text 206 263 to next;
#X obj 132 67 t b b;
#X obj 17 31 inlet~;
#X obj 268 40 inlet;
#X text 264 21 fini-bang;
#X obj 17 156 core/phase_vocoder~;
#X obj 473 233 outlet;
#X text 468 258 outgoing parameter;
#X connect 0 0 16 3;
#X connect 2 0 12 0;
#X connect 12 0 8 0;
#X connect 12 1 16 1;
#X connect 13 0 16 0;
#X connect 14 0 16 2;
#X connect 16 0 1 0;
#X connect 16 1 3 0;
#X connect 16 2 17 0;
#X restore 108 205 pd mono_phase_vocoder________;
#N canvas 0 22 613 651 join_datadir 0;
#X obj 233 116 symbol;
#X obj 233 386 makefilename %s%s;
#X obj 232 340 symbol;
#X obj 232 298 unpack s s;
#X obj 232 270 generics/symbol_buddy;
#X obj 347 115 symbol;
#X msg 289 345 set \$1%s;
#X obj 235 25 inlet;
#X obj 234 59 route loadSound dataDirectory;
#X obj 233 429 list prepend loadSound;
#X obj 234 495 outlet;
#X obj 406 472 outlet;
#X obj 236 470 list trim;
#X connect 0 0 4 0;
#X connect 1 0 9 0;
#X connect 2 0 1 0;
#X connect 3 0 2 0;
#X connect 3 1 6 0;
#X connect 4 0 3 0;
#X connect 5 0 4 1;
#X connect 6 0 1 0;
#X connect 7 0 8 0;
#X connect 8 0 0 0;
#X connect 8 1 5 0;
#X connect 8 2 11 0;
#X connect 9 0 12 0;
#X connect 12 0 10 0;
#X restore 309 57 pd join_datadir;
#X connect 3 0 10 1;
#X connect 4 0 15 0;
#X connect 7 0 10 0;
#X connect 8 0 14 2;
#X connect 10 0 12 0;
#X connect 10 1 14 0;
#X connect 10 2 14 1;
#X connect 10 3 14 3;
#X connect 11 0 0 0;
#X connect 11 1 1 0;
#X connect 12 0 11 0;
#X connect 12 1 11 1;
#X connect 12 2 11 2;
#X connect 14 0 12 1;
#X connect 14 1 12 2;
#X connect 14 2 12 3;
#X connect 14 3 13 0;
#X connect 15 0 10 2;
#X connect 15 1 10 2;
#X restore 18 145 pd phase_vocoder_module;
#X text 765 501 unit [cents] \, initial-value: 0 \, range: (-2400 ...
+2400);
#X text 775 513 minimum value of pitch transposing of the sample grain.
;
#X text 766 380 the soundfile storage for playing back.;
#X text 766 306 from signal input to the previously selected pd array
(soundfile storage).;
#X text 766 367 unit [-] \, initial-value: 1 \, range: (1..5) \, selects
;
#X text 766 429 unit [-] \, initial-value: 0.1 \, range: (0 ... 1)
;
#X text 776 453 (0 .. begin of sample \, 1 .. end of sample).;
#X text 776 441 relative value of position in playback sample.;
#X text 735 486 14.) parameter: "pitchTransposition" \, type: <float>
;
#X text 736 414 13.) parameter: "relPosition" \, type: <float>;
#X text 736 352 12.) parameter: "selPlaybackSoundIndex" \, type: <float>
;
#X text 736 203 10.) parameter: "normSound" \, type: <void>;
#X text 766 218 unit [-] \, initial-value: - \, range: - \, normalizes
the;
#X text 766 232 previously selected pd array (soundfile storage).;
#X text 302 477 7.) parameter: "selEditSoundIndex" \, type: <float>
;
#X text 302 551 8.) parameter: "loadSound" \, type: <symbol> \, unit
[-];
#X text 376 73 14 data in ports;
#X text 736 278 11.) parameter: "recSound" \, type: <int>;
#X text 304 295 4.) parameter: "bypass" \, type: <int> \, unit [-]
;
#X text 302 360 5.) parameter: "mute" \, type: <int> \, unit [-];
#X text 302 122 1.) parameter: "active" \, type: <int> \, unit [-]
;
#X text 18 674 1.) initial argument: <float> unique id of the module
;
#X text 766 293 unit [-] \, initial-value: 0 \, range: (0/1) \, records
sound;
#X text 736 130 9.) parameter: "recLength" \, type: <float>;
#X obj 156 221 handlers/ntg_send \$1;
#X obj 113 180 route int other;
#X obj 113 249 handlers/ntg_send_int \$1;
#X connect 2 0 34 0;
#X connect 33 0 34 1;
#X connect 33 1 34 2;
#X connect 33 2 34 3;
#X connect 34 0 1 0;
#X connect 34 1 60 0;
#X connect 60 0 61 0;
#X connect 60 1 59 0;
