#N canvas 61 178 822 696 10;
#X text 336 99 1.) parameter: "active" \, type: <bool> \, unit [-]
;
#X text 366 129 description: switches the module on and off from DSP
tree;
#X text 366 299 description: switches a bypass path in parallel;
#X text 376 313 to the processor on and off;
#X text 365 365 description: mutes the effect way of the processor
;
#X text 366 414 description: makes a mix of the effected signal (wet
= 1);
#X text 376 429 and the input signal (dry = 0);
#X text 366 182 description: multiplies the incoming signal with this
value;
#X text 376 197 before it is going further to effect input;
#X text 366 247 description: multiplies the signal from effect output
;
#X text 366 114 initial-value: 1 \, range: (0/1) \, class: module;
#X text 366 232 initial-value: 1 \, range: (0...4) \, class: processor
;
#X text 366 167 initial-value: 1 \, range: (0...4) \, class: processor
;
#X text 366 284 initial-value: 0 \, range: (0/1) \, class: processor
;
#X text 366 349 initial-value: 0 \, range: (0/1) \, class: processor
;
#X text 366 399 initial-value: 1 \, range: (0...1) \, class: processor
;
#X obj 17 179 cnv 10 135 10 empty empty empty 20 12 0 14 -261682 -66577
0;
#X obj 78 234 outlet~;
#X obj 15 124 inlet~;
#X obj 16 232 outlet~;
#X text 336 152 2.) parameter: "inLevel" \, type: <float> \, unit [-]
;
#X text 337 217 3.) parameter: "outLevel" \, type: <float> \, unit
[-];
#X text 338 269 4.) parameter: "bypass" \, type: <bool> \, unit [-]
;
#X text 336 334 5.) parameter: "mute" \, type: <bool> \, unit [-];
#X text 336 384 6.) parameter: "mix" \, type: <float> \, unit [-];
#X obj 66 125 handlers/ntg_receive \$1;
#X text 373 614 Thomas Musil \, 16.04.2010;
#X text 323 69 7 data in ports;
#X text 323 37 1 signal in ports;
#X text 323 14 QuadPanner: a 1 to 4 channel audio panner;
#X text 323 53 4 signal out ports;
#N canvas 844 441 494 405 quad_panner_module________ 0;
#X obj 17 8 inlet~;
#X obj 17 345 outlet~;
#X obj 176 276 switch~;
#X obj 75 344 outlet~;
#X obj 119 20 inlet;
#X obj 266 23 inlet;
#X text 266 6 named parameter-messages;
#X text 119 3 init-bang;
#X obj 188 21 inlet;
#X text 188 4 fini-bang;
#X obj 17 104 handlers/mono_pre_processor \$0 __;
#N canvas 263 22 530 466 quad_panner_________ 0;
#X obj 284 31 inlet;
#X obj 18 31 inlet~;
#X obj 17 348 outlet~;
#X obj 103 62 inlet;
#X obj 315 401 outlet;
#X text 97 46 init-bang;
#X text 284 15 route parameters;
#X text 365 401 rejected parameters;
#X text 19 12 from pre-processor;
#X text 21 373 to post-processor;
#X obj 235 365 outlet;
#X text 278 371 init-bang;
#X text 98 34 from prev.;
#X text 282 358 to next;
#X obj 70 347 outlet~;
#X obj 103 133 t b b;
#X obj 122 348 outlet~;
#X obj 175 348 outlet~;
#X obj 177 84 inlet;
#X text 177 68 fini;
#X obj 344 430 outlet;
#X text 389 432 output parameters;
#X obj 17 186 core/stereo_panner~ _________________________;
#X obj 284 54 route xPosition yPosition;
#X obj 62 226 core/stereo_panner~ _________________________;
#X obj 17 272 core/stereo_panner~ _________________________;
#X msg 284 159 panning \$1;
#X msg 369 159 panning \$1;
#X obj 284 95 * 90;
#X obj 284 117 - 45;
#X obj 369 94 * 90;
#X obj 369 116 - 45;
#X connect 0 0 23 0;
#X connect 1 0 22 0;
#X connect 3 0 15 0;
#X connect 15 0 10 0;
#X connect 15 1 22 1;
#X connect 15 1 25 1;
#X connect 15 1 24 1;
#X connect 18 0 22 2;
#X connect 18 0 24 2;
#X connect 18 0 25 2;
#X connect 22 0 25 0;
#X connect 22 1 24 0;
#X connect 23 0 28 0;
#X connect 23 1 30 0;
#X connect 23 2 4 0;
#X connect 24 0 14 0;
#X connect 24 1 17 0;
#X connect 25 0 2 0;
#X connect 25 1 16 0;
#X connect 26 0 22 3;
#X connect 27 0 24 3;
#X connect 27 0 25 3;
#X connect 28 0 29 0;
#X connect 29 0 26 0;
#X connect 30 0 31 0;
#X connect 31 0 27 0;
#X restore 103 153 pd quad_panner_________;
#X obj 17 195 handlers/quad_post_processor \$0 _;
#X obj 17 242 handlers/quad_module \$0 _________;
#X obj 134 345 outlet~;
#X obj 192 345 outlet~;
#X obj 254 345 outlet;
#X obj 57 55 bng 15 250 50 0 empty empty empty 17 7 0 10 -262144 -1
-1;
#N canvas 665 22 655 704 XYZInput 0;
#X obj 22 -16 inlet;
#X text 22 -33 named parameter-messages;
#X obj 22 335 - 0;
#X obj 137 335 - 0;
#X obj 22 549 outlet;
#X obj 22 170 spigot;
#X obj 137 165 spigot;
#X obj 22 358 / 1;
#X obj 137 358 / 1;
#N canvas 156 23 528 386 switch 0;
#X obj 10 44 inlet;
#X obj 12 266 f;
#X obj 45 266 f;
#X obj 78 266 f;
#X obj 111 266 f;
#X obj 84 170 >= 0;
#X obj 116 170 <= 100;
#X obj 162 170 >= 0;
#X obj 194 170 <= 100;
#X msg 10 170 bang;
#X msg 45 170 bang;
#X obj 12 359 outlet;
#X text 208 11 switch;
#X obj 10 76 route xInput yInput xMin xMax yMin yMax;
#X obj 12 295 expr $f1+$f2+$f3+$f4;
#X obj 12 325 == 4;
#X text 148 265 When x and y values are both within their specified
ranges \, 'pd switch' opens 'spigot' and allows x \, y \, values to
pass through.;
#X connect 0 0 13 0;
#X connect 1 0 14 0;
#X connect 2 0 14 1;
#X connect 3 0 14 2;
#X connect 4 0 14 3;
#X connect 5 0 1 0;
#X connect 6 0 2 0;
#X connect 7 0 3 0;
#X connect 8 0 4 0;
#X connect 9 0 3 0;
#X connect 9 0 4 0;
#X connect 10 0 2 0;
#X connect 10 0 1 0;
#X connect 13 0 5 0;
#X connect 13 0 6 0;
#X connect 13 0 9 0;
#X connect 13 1 7 0;
#X connect 13 1 8 0;
#X connect 13 1 10 0;
#X connect 13 2 5 1;
#X connect 13 3 6 1;
#X connect 13 4 7 1;
#X connect 13 5 8 1;
#X connect 14 0 15 0;
#X connect 15 0 11 0;
#X restore -56 140 pd switch;
#X obj 22 141 clip 0 1;
#X obj 137 138 clip 0 1;
#X obj 176 336 / 1;
#X obj 60 335 / 1;
#X msg -56 442 0 10;
#X obj -56 419 sel 0;
#X obj -56 464 line 0 1;
#X obj 137 458 line 0 1;
#X msg 137 435 \$1 10;
#X obj 22 459 line 0 1;
#X msg 22 436 \$1 10;
#X msg 22 485 xPosition \$1;
#X msg 137 483 yPosition \$1;
#X obj 98 -117 cnv 15 100 60 empty empty empty 20 12 0 14 -233017 -66577
0;
#X text 206 546 J.R. Dooley 2011 \, Birmingham Conservatoire;
#X text 123 -94 XYZ_INPUT;
#X text 212 -115 Outputs x \, y \, z values that concurrently fall
within the specified values \; - x \, y \, z input must always fall
between 0 - 1 \; - min and max x \, y and z values all determine the
range within which the module will respond \; - output always falls
between 0 - 1 \; - when value is outside min/max then x \, y and z
return to zero over a period of 10ms.;
#X obj 60 312 -;
#X msg 60 292 \$1 \$2;
#X obj 60 272 pack 0 0;
#X obj 60 251 f;
#X obj 78 228 t b f;
#X obj 176 313 -;
#X msg 176 293 \$1 \$2;
#X obj 176 273 pack 0 0;
#X obj 176 252 f;
#X obj 194 229 t b f;
#X msg -56 486 outLevel \$1;
#N canvas 314 265 404 261 gui_switch 0;
#X msg 70 143 \$1 \$2;
#X obj 70 123 pack 0 0;
#X obj 70 102 f;
#X obj 88 79 t b f;
#X obj 70 165 +;
#X obj 70 57 <= 0;
#X obj 70 27 inlet;
#X obj 117 26 inlet;
#X obj 70 232 outlet;
#X text 42 7 switch mechanism to avoid creating a GUI feedback loop.
;
#X msg 99 208 0;
#X obj 70 186 sel 0 2;
#X msg 70 208 1;
#X connect 0 0 4 0;
#X connect 1 0 0 0;
#X connect 2 0 1 0;
#X connect 3 0 2 0;
#X connect 3 1 1 1;
#X connect 4 0 11 0;
#X connect 5 0 2 0;
#X connect 6 0 5 0;
#X connect 7 0 3 0;
#X connect 10 0 8 0;
#X connect 11 0 12 0;
#X connect 11 1 10 0;
#X connect 12 0 8 0;
#X restore 286 460 pd gui_switch;
#X obj 253 491 spigot;
#X obj -30 25 route outLevel;
#X obj -45 362 f;
#X msg -45 382 \$1 10;
#X obj -45 321 change;
#X obj -45 342 sel 1;
#X obj 22 52 route xInput xMax xMin yInput yMax yMin;
#X connect 0 0 9 0;
#X connect 0 0 40 0;
#X connect 0 0 45 0;
#X connect 2 0 7 0;
#X connect 3 0 8 0;
#X connect 5 0 2 0;
#X connect 6 0 3 0;
#X connect 7 0 20 0;
#X connect 7 0 38 0;
#X connect 8 0 18 0;
#X connect 8 0 38 0;
#X connect 9 0 6 1;
#X connect 9 0 15 0;
#X connect 9 0 5 1;
#X connect 9 0 38 1;
#X connect 9 0 43 0;
#X connect 10 0 5 0;
#X connect 11 0 6 0;
#X connect 12 0 8 1;
#X connect 13 0 7 1;
#X connect 14 0 16 0;
#X connect 15 0 14 0;
#X connect 16 0 37 0;
#X connect 17 0 22 0;
#X connect 18 0 17 0;
#X connect 19 0 21 0;
#X connect 20 0 19 0;
#X connect 21 0 4 0;
#X connect 22 0 4 0;
#X connect 27 0 13 0;
#X connect 28 0 27 0;
#X connect 29 0 28 0;
#X connect 30 0 29 0;
#X connect 31 0 30 0;
#X connect 31 1 29 1;
#X connect 32 0 12 0;
#X connect 33 0 32 0;
#X connect 34 0 33 0;
#X connect 35 0 34 0;
#X connect 36 0 35 0;
#X connect 36 1 34 1;
#X connect 37 0 4 0;
#X connect 38 0 39 1;
#X connect 39 0 4 0;
#X connect 40 0 41 1;
#X connect 41 0 42 0;
#X connect 42 0 16 0;
#X connect 43 0 44 0;
#X connect 44 0 41 0;
#X connect 45 0 10 0;
#X connect 45 1 30 0;
#X connect 45 1 10 2;
#X connect 45 2 31 0;
#X connect 45 2 10 1;
#X connect 45 2 2 1;
#X connect 45 3 11 0;
#X connect 45 4 11 2;
#X connect 45 4 35 0;
#X connect 45 5 11 1;
#X connect 45 5 36 0;
#X connect 45 5 3 1;
#X connect 45 6 39 0;
#X restore 212 128 pd XYZInput;
#X connect 0 0 10 0;
#X connect 4 0 10 1;
#X connect 5 0 10 2;
#X connect 8 0 11 2;
#X connect 10 0 12 0;
#X connect 10 0 12 1;
#X connect 10 0 12 2;
#X connect 10 0 12 3;
#X connect 10 1 11 0;
#X connect 10 2 11 1;
#X connect 10 3 18 0;
#X connect 11 0 12 4;
#X connect 11 1 12 5;
#X connect 11 2 12 6;
#X connect 11 3 12 7;
#X connect 11 4 12 8;
#X connect 11 5 12 9;
#X connect 11 6 16 0;
#X connect 12 0 13 0;
#X connect 12 1 13 1;
#X connect 12 2 13 2;
#X connect 12 3 13 3;
#X connect 12 4 13 4;
#X connect 12 5 13 5;
#X connect 13 0 1 0;
#X connect 13 1 3 0;
#X connect 13 2 14 0;
#X connect 13 3 15 0;
#X connect 13 4 2 0;
#X connect 17 0 10 1;
#X connect 18 0 11 3;
#X connect 18 0 16 0;
#X restore 16 176 pd quad_panner_module________;
#X obj 200 236 outlet~;
#X obj 138 234 outlet~;
#X text 14 578 1.) initial argument: <float> unique id of the module
;
#X obj 201 206 handlers/ntg_send \$1;
#X text 335 450 7.) parameter: "panning" \, type: <float>;
#X text 375 476 value of spatial position of input signal.;
#X text 365 464 unit [degree] \, initial-value: 0 \, range: (-180...+180)
;
#X connect 18 0 31 0;
#X connect 25 0 31 1;
#X connect 25 1 31 2;
#X connect 25 2 31 3;
#X connect 31 0 19 0;
#X connect 31 1 17 0;
#X connect 31 2 33 0;
#X connect 31 3 32 0;
#X connect 31 4 35 0;
