#N canvas 292 118 721 482 10;
#X text 236 47 1 signal out port;
#X text 258 96 1.) parameter: "active" \, type: <bool> \, unit [-]
;
#X text 288 126 description: switches the module on and off from DSP
tree;
#X text 287 233 description: mutes the effect way of the processor
;
#X text 288 179 description: multiplies the signal from effect output
;
#X text 288 111 initial-value: 1 \, range: (0/1) \, class: module;
#X obj 18 133 cnv 10 125 10 empty empty empty 20 12 0 14 -261682 -66577
0;
#X text 288 164 initial-value: 1 \, range: (0...4) \, class: generator
;
#X text 288 217 initial-value: 0 \, range: (0/1) \, class: generator
;
#X text 236 18 pink-noise: white-noise gained and filtered with a -3
dB per octave filter;
#X obj 18 170 outlet~;
#X text 15 109 dummy;
#X text 236 64 3 data in ports;
#X text 307 256 Thomas Musil \, 11.11.2009;
#X text 259 149 2.) parameter: "outLevel" \, type: <float> \, unit
[-];
#X text 258 202 3.) parameter: "mute" \, type: <bool> \, unit [-];
#N canvas 67 156 480 411 pink_noise_module______ 0;
#X obj 21 359 outlet~;
#X obj 22 165 cnv 10 164 10 empty empty empty 20 12 0 14 -261682 -66577
0;
#X obj 21 55 inlet;
#X text 24 37 dummy;
#X obj 109 55 inlet;
#X obj 279 55 inlet;
#X text 279 38 named parameter-messages;
#X text 109 38 init-bang;
#X obj 93 275 switch~;
#X obj 21 202 handlers/mono_generator \$0;
#X obj 21 237 handlers/mono_module \$0 __;
#N canvas 366 293 589 458 pink_noise___________________ 0;
#X obj 280 41 inlet;
#X obj 19 368 outlet~;
#X obj 138 41 inlet;
#X obj 362 367 outlet;
#X text 132 25 init-bang;
#X text 280 25 route parameters;
#X text 358 386 rejected parameters;
#X text 18 394 to post-processor;
#X obj 226 365 outlet;
#X text 214 402 init-bang;
#X text 131 12 from prev;
#X text 220 388 to next;
#X obj 18 43 inlet;
#X text 16 27 dummy;
#X obj 19 213 noise~;
#X obj 19 253 biquad~ 1.83221 -0.836851 0.271264 -0.456311 0.18969
;
#X obj 19 273 biquad~ 0.273097 0.087865 0.505803 0.171365 -0.03813
;
#X obj 19 233 biquad~ 1.98893 -0.988954 1.00554 -1.9889 0.983444;
#X text 99 297 (c) by Thomas Musil;
#X connect 0 0 3 0;
#X connect 2 0 8 0;
#X connect 14 0 17 0;
#X connect 15 0 16 0;
#X connect 16 0 1 0;
#X connect 17 0 15 0;
#X restore 21 162 pd pink_noise___________________;
#X obj 192 53 inlet;
#X text 192 36 fini-bang;
#X connect 2 0 11 0;
#X connect 4 0 11 1;
#X connect 5 0 11 2;
#X connect 9 0 10 0;
#X connect 9 1 10 1;
#X connect 9 2 10 2;
#X connect 10 0 0 0;
#X connect 10 1 8 0;
#X connect 11 0 9 0;
#X connect 11 1 9 1;
#X connect 11 2 9 2;
#X restore 18 130 pd pink_noise_module______;
#X obj 77 103 handlers/ntg_receive \$1;
#X text 14 288 1.) initial argument: <float> unique id of the module
;
#X connect 16 0 10 0;
#X connect 17 0 16 1;
#X connect 17 1 16 2;
#X connect 17 2 16 3;
