#N canvas 141 366 1154 548 10;
#X obj 523 122 pack 0 0 0;
#X obj 24 223 PluckedString_mono;
#X obj 559 334 +~;
#X obj 100 186 r \$0config;
#X obj 1099 188 r \$0config;
#X obj 1009 187 r \$0config;
#X obj 915 187 r \$0config;
#X obj 825 186 r \$0config;
#X obj 729 188 r \$0config;
#X obj 639 192 r \$0config;
#X obj 549 191 r \$0config;
#X obj 460 192 r \$0config;
#X obj 369 191 r \$0config;
#X obj 280 188 r \$0config;
#X obj 188 188 r \$0config;
#X obj 738 90 s \$0config;
#X obj 523 157 route 1 2 3 4 5 6 7 8 9 10 11 12;
#X obj 523 24 inlet;
#X obj 738 29 inlet;
#X obj 559 380 outlet~;
#X text 795 30 config (see mono patch);
#X text 376 24 pitch/velocity;
#X obj 523 56 unpack 0 0;
#X obj 294 221 PluckedString_mono;
#X obj 114 221 PluckedString_mono;
#X obj 206 220 PluckedString_mono;
#X obj 655 223 PluckedString_mono;
#X obj 385 225 PluckedString_mono;
#X obj 475 223 PluckedString_mono;
#X obj 567 222 PluckedString_mono;
#X obj 1025 220 PluckedString_mono;
#X obj 755 222 PluckedString_mono;
#X obj 845 220 PluckedString_mono;
#X obj 937 219 PluckedString_mono;
#X obj 523 91 poly 12 1;
#X connect 0 0 16 0;
#X connect 1 0 2 0;
#X connect 2 0 19 0;
#X connect 3 0 1 1;
#X connect 4 0 30 1;
#X connect 5 0 33 1;
#X connect 6 0 32 1;
#X connect 7 0 31 1;
#X connect 8 0 26 1;
#X connect 9 0 29 1;
#X connect 10 0 28 1;
#X connect 11 0 27 1;
#X connect 12 0 23 1;
#X connect 13 0 25 1;
#X connect 14 0 24 1;
#X connect 16 0 1 0;
#X connect 16 1 24 0;
#X connect 16 2 25 0;
#X connect 16 3 23 0;
#X connect 16 4 27 0;
#X connect 16 5 28 0;
#X connect 16 6 29 0;
#X connect 16 7 26 0;
#X connect 16 8 31 0;
#X connect 16 9 32 0;
#X connect 16 10 33 0;
#X connect 16 11 30 0;
#X connect 17 0 22 0;
#X connect 18 0 15 0;
#X connect 22 0 34 0;
#X connect 22 1 34 1;
#X connect 23 0 2 0;
#X connect 24 0 2 0;
#X connect 25 0 2 0;
#X connect 26 0 2 0;
#X connect 27 0 2 0;
#X connect 28 0 2 0;
#X connect 29 0 2 0;
#X connect 30 0 2 0;
#X connect 31 0 2 0;
#X connect 32 0 2 0;
#X connect 33 0 2 0;
#X connect 34 0 0 0;
#X connect 34 1 0 1;
#X connect 34 2 0 2;
