#N canvas 108 260 860 356 10;
#X obj 21 97 handlers/ntg_receive \$1;
#X obj 22 266 outlet~;
#N canvas 488 343 744 410 PluckedString_module 1;
#N canvas 0 22 647 405 PluckedString 1;
#X obj 100 146 bng 15 250 50 0 empty empty empty 17 7 0 10 -262144
-1 -1;
#X obj 90 315 PluckedString_poly;
#X obj 90 348 outlet~;
#X obj 131 37 inlet;
#X obj 62 36 inlet;
#X text -1 36 initbang;
#X text 177 39 integra parameters;
#X msg 252 216 decay;
#X msg 271 244 filter;
#X obj 279 288 pack s 0;
#X obj 323 155 * 1000;
#X msg 101 167 decay 500 \, filter 10000 \, init;
#X obj 285 321 route list;
#X msg 402 301 69 127;
#X msg 402 345 69 0;
#X obj 491 310 delay 500;
#X obj 187 114 route decay filter chNumber test;
#X obj 36 189 notein;
#X obj 21 275 route 1;
#X obj 18 251 pack 0 0 0;
#X obj 7 222 expr $i2==$i3 || $i3==0;
#X connect 0 0 11 0;
#X connect 1 0 2 0;
#X connect 3 0 16 0;
#X connect 4 0 0 0;
#X connect 7 0 9 0;
#X connect 8 0 9 0;
#X connect 9 0 12 0;
#X connect 10 0 9 1;
#X connect 11 0 1 1;
#X connect 12 0 1 1;
#X connect 13 0 1 0;
#X connect 14 0 1 0;
#X connect 15 0 14 0;
#X connect 16 0 7 0;
#X connect 16 0 10 0;
#X connect 16 1 9 1;
#X connect 16 1 8 0;
#X connect 16 2 20 2;
#X connect 16 3 13 0;
#X connect 16 3 15 0;
#X connect 17 0 19 1;
#X connect 17 0 20 0;
#X connect 17 1 19 2;
#X connect 17 2 20 1;
#X connect 18 0 1 0;
#X connect 19 0 18 0;
#X connect 20 0 19 0;
#X restore 83 143 pd PluckedString;
#X obj 152 28 inlet;
#X obj 17 345 outlet~;
#X obj 402 26 inlet;
#X text 402 9 named parameter-messages;
#X text 152 11 init-bang;
#X obj 107 274 switch~;
#X obj 17 230 handlers/mono_module \$0 _________;
#X obj 244 29 inlet;
#X text 244 12 fini-bang;
#X obj 17 187 handlers/mono_generator \$0 ______;
#X connect 0 0 10 0;
#X connect 1 0 0 0;
#X connect 1 0 10 1;
#X connect 3 0 0 1;
#X connect 3 0 10 2;
#X connect 7 0 2 0;
#X connect 7 1 6 0;
#X connect 10 0 7 0;
#X connect 10 1 7 1;
#X connect 10 2 7 2;
#X restore 21 173 pd PluckedString_module;
#X text 322 46 Midi input and 12 note polyphony;
#X text 322 21 Karplus-Strong string synthesis module;
#X text 322 107 description: sets the approximate decay time;
#X text 322 120 parameter: "filter" \, type: <float> \, unit: Hz;
#X text 322 133 initial-value: 10000;
#X text 322 146 description: sets the low-pass filter frequency;
#X text 322 33 User can set decay time and lowpass filter.;
#X text 322 94 initial-value: 0.5;
#X text 322 81 parameter: "decay" \, type: <float> \, unit: s;
#X connect 0 0 2 0;
#X connect 0 1 2 1;
#X connect 0 2 2 2;
#X connect 2 0 1 0;
