#N canvas 45 22 819 739 10;
#X text 393 53 1 signal out port;
#X text 393 37 1 signal in port;
#X text 436 169 description: switches the module on and off from DSP
tree;
#X text 436 338 description: switches a bypass path in parallel;
#X text 446 352 to the processor on and off;
#X text 435 404 description: mutes the effect way of the processor
;
#X text 436 453 description: makes a mix of the effected signal (wet
= 1);
#X text 446 468 and the input signal (dry = 0);
#X text 436 221 description: multiplies the incoming signal with this
value;
#X text 446 236 before it is going further to effect input;
#X text 436 286 description: multiplies the signal from effect output
;
#X text 436 154 initial-value: 1 \, range: (0/1) \, class: module;
#X text 436 271 initial-value: 1 \, range: (0...4) \, class: processor
;
#X text 436 206 initial-value: 1 \, range: (0...4) \, class: processor
;
#X text 436 323 initial-value: 0 \, range: (0/1) \, class: processor
;
#X text 436 388 initial-value: 0 \, range: (0/1) \, class: processor
;
#X text 436 438 initial-value: 1 \, range: (0...1) \, class: processor
;
#X obj 18 141 cnv 10 135 10 empty empty empty 20 12 0 14 -261682 -66577
0;
#X obj 18 57 inlet~;
#X obj 18 258 outlet~;
#X obj 103 103 handlers/ntg_receive \$1;
#N canvas 6 22 798 626 prototyp_mono_processor_child_module 0;
#X obj 17 505 outlet~;
#X obj 144 64 inlet;
#X obj 17 25 inlet~;
#X obj 271 160 inlet;
#X obj 82 430 switch~;
#X obj 17 363 handlers/mono_post_processor \$0 _;
#X obj 17 406 handlers/mono_module \$0 _________;
#X obj 229 113 inlet;
#X text 189 64 init-bang: it replaces the loadbang object;
#X text 276 114 fini-bang: opposite of loadbang;
#X text 393 410 controls the "active" state of module;
#X text 394 364 controls "mix" "mute" "bypass" "outLevel" of processor
module;
#X text 337 195 controls "inLevel" of processor module;
#X text 16 5 incoming signal;
#X obj 271 480 outlet;
#X text 324 480 outgoing parameter messages;
#X text 319 161 named parameter-messages;
#X obj 147 275 t b b;
#X obj 17 195 handlers/mono_pre_processor \$0 ____________;
#X text 16 529 processed outgoing signal;
#X text 180 32 This subpatch can be switched off from DSP-tree;
#N canvas 305 131 811 608 core/my_process~__________________________
0;
#X obj 65 515 outlet~;
#X obj 69 58 inlet~;
#X obj 413 69 inlet;
#X obj 188 64 inlet;
#X text 187 45 init-bang;
#X text 70 38 sig.in;
#X text 64 541 sig.out;
#X text 438 525 rejected parameter;
#X obj 472 498 outlet;
#X obj 691 495 outlet;
#X text 657 522 outgoing parameters;
#X text 412 46 incoming parameters;
#X obj 317 66 inlet;
#X text 316 47 fini-bang;
#X obj 68 266 *~ 1;
#X obj 414 127 route myGain;
#X obj 414 152 + 100;
#X obj 414 176 dbtorms;
#X obj 414 200 clip 0 4;
#X obj 215 311 metro 300;
#X obj 193 344 snapshot~;
#X msg 216 280 1;
#X msg 261 280 0;
#X obj 193 391 - 100;
#X obj 193 368 rmstodb;
#X msg 193 413 list myLevel \$1;
#X text 28 11 my_process~;
#X connect 1 0 14 0;
#X connect 2 0 15 0;
#X connect 3 0 21 0;
#X connect 12 0 22 0;
#X connect 14 0 0 0;
#X connect 14 0 20 0;
#X connect 15 0 16 0;
#X connect 15 1 8 0;
#X connect 16 0 17 0;
#X connect 17 0 18 0;
#X connect 18 0 14 1;
#X connect 19 0 20 0;
#X connect 20 0 24 0;
#X connect 21 0 19 0;
#X connect 22 0 19 0;
#X connect 23 0 25 0;
#X connect 24 0 23 0;
#X connect 25 0 9 0;
#X restore 82 319 pd core/my_process~__________________________;
#X text 415 313 here should be your pd-patch (as a subpatch or as a
abstraction like "core/my_process~");
#X connect 1 0 18 1;
#X connect 2 0 18 0;
#X connect 3 0 18 2;
#X connect 5 0 6 0;
#X connect 5 1 6 1;
#X connect 5 2 6 2;
#X connect 6 0 0 0;
#X connect 6 1 4 0;
#X connect 7 0 21 2;
#X connect 17 0 5 2;
#X connect 17 1 21 1;
#X connect 18 0 5 0;
#X connect 18 1 21 0;
#X connect 18 2 17 0;
#X connect 18 3 21 3;
#X connect 21 0 5 1;
#X connect 21 1 5 3;
#X connect 21 2 14 0;
#X restore 17 138 pd prototyp_mono_processor_child_module;
#X obj 186 197 handlers/ntg_send \$1;
#X text 431 510 unit [dB] \, initial-value: 0 dB \, range: (-100...12.0
dB) \,;
#X text 429 541 description: gain in dB.;
#X text 393 69 7 data in ports;
#X text 393 84 1 data out port;
#X text 382 563 **************************************************
;
#X text 437 605 initial-value: - range: (-100...12 dB) \,;
#X text 439 636 description: outlevel in dB;
#X text 406 191 2.) in parameter: "inLevel" \, type: <float> \, unit
[-];
#X text 407 256 3.) in parameter: "outLevel" \, type: <float> \, unit
[-];
#X text 406 421 6.) in parameter: "mix" \, type: <float> \, unit [-]
;
#X text 406 494 7.) in parameter: "myGain" \, type: <float> \,;
#X text 393 14 MyProcess: prototyp of mono processor child module;
#X text 21 347 1.) initial argument: <float> unique id of the module
;
#X text 429 525 class: MyProcess;
#X text 442 619 class: MyProcess;
#X text 402 589 1.) out parameter: "myLevel" \, type: <float> \, unit
[dB];
#X text 406 140 1.) in parameter: "active" \, type: <int> \, unit [-]
;
#X text 408 307 4.) in parameter: "bypass" \, type: <int> \, unit [-]
;
#X text 406 373 5.) in parameter: "mute" \, type: <int> \, unit [-]
;
#X connect 18 0 21 0;
#X connect 20 0 21 1;
#X connect 20 1 21 2;
#X connect 20 2 21 3;
#X connect 21 0 19 0;
#X connect 21 1 22 0;
