#N canvas 340 22 821 649 10;
#X text 436 169 description: switches the module on and off from DSP
tree;
#X text 436 226 description: multiplies the signal from effect output
;
#X text 436 154 initial-value: 1 \, range: (0/1) \, class: module;
#X obj 18 141 cnv 10 135 10 empty empty empty 20 12 0 14 -261682 -66577
0;
#X obj 17 187 outlet~;
#X obj 248 181 handlers/ntg_send \$1;
#X text 431 395 unit [dB] \, initial-value: 0 dB \, range: (-100...12.0
dB) \,;
#X text 429 426 description: gain in dB.;
#X text 382 448 **************************************************
;
#X text 437 490 initial-value: - range: (-100...12 dB) \,;
#X text 439 521 description: outlevel in dB;
#N canvas 87 26 810 643 prototyp_mono_generator_child_module 0;
#X obj 117 595 outlet~;
#X obj 109 49 inlet;
#X obj 346 110 inlet;
#X obj 220 481 switch~;
#X obj 245 80 inlet;
#X text 285 79 fini-bang: opposite of loadbang;
#X text 388 463 controls the "active" state of module;
#X obj 351 547 outlet;
#X text 396 547 outgoing parameter messages;
#X obj 17 29 inlet;
#X text 18 10 dummy;
#X text 388 108 named parameter-messages;
#X text 397 418 controls "mute" "outLevel" of generator module;
#X obj 109 209 t b b;
#X text 394 237 here should be your pd-patch (as a subpatch or as a
abstraction like "core/my_gen~");
#N canvas 389 76 811 608 core/my_gen~___________________ 0;
#X obj 65 515 outlet~;
#X obj 425 63 inlet;
#X obj 167 57 inlet;
#X text 166 38 init-bang;
#X text 357 528 rejected parameter;
#X obj 391 501 outlet;
#X obj 691 495 outlet;
#X text 657 522 outgoing parameters;
#X text 424 40 incoming parameters;
#X obj 261 67 inlet;
#X text 260 48 fini-bang;
#X obj 426 146 + 100;
#X obj 426 170 dbtorms;
#X obj 426 194 clip 0 4;
#X obj 240 186 metro 300;
#X obj 229 331 snapshot~;
#X msg 241 155 1;
#X msg 286 155 0;
#X obj 229 378 - 100;
#X obj 229 355 rmstodb;
#X text 27 26 my_gen~;
#X obj 68 216 noise~;
#X obj 68 260 *~ 1;
#X obj 122 260 *~ 1;
#X obj 351 330 snapshot~;
#X obj 351 377 - 100;
#X obj 351 354 rmstodb;
#X obj 425 121 route myGainA myGainB;
#X obj 486 146 + 100;
#X obj 486 170 dbtorms;
#X obj 486 194 clip 0 4;
#X obj 140 514 outlet~;
#X text 138 540 sig.out.B;
#X text 64 541 sig.out.A;
#X obj 245 265 t b b;
#X msg 230 409 list myLevelA \$1;
#X msg 352 407 list myLevelB \$1;
#X connect 1 0 27 0;
#X connect 2 0 16 0;
#X connect 9 0 17 0;
#X connect 11 0 12 0;
#X connect 12 0 13 0;
#X connect 13 0 22 1;
#X connect 14 0 34 0;
#X connect 15 0 19 0;
#X connect 16 0 14 0;
#X connect 17 0 14 0;
#X connect 18 0 35 0;
#X connect 19 0 18 0;
#X connect 21 0 22 0;
#X connect 21 0 23 0;
#X connect 22 0 0 0;
#X connect 22 0 15 0;
#X connect 23 0 31 0;
#X connect 23 0 24 0;
#X connect 24 0 26 0;
#X connect 25 0 36 0;
#X connect 26 0 25 0;
#X connect 27 0 11 0;
#X connect 27 1 28 0;
#X connect 27 2 5 0;
#X connect 28 0 29 0;
#X connect 29 0 30 0;
#X connect 30 0 23 1;
#X connect 34 0 15 0;
#X connect 34 1 24 0;
#X connect 35 0 6 0;
#X connect 36 0 6 0;
#X restore 145 243 pd core/my_gen~___________________;
#X text 147 48 init-bang: will replace the loadbang object;
#X text 170 22 This subpatch can be switched off from DSP-tree;
#X obj 60 29 inlet;
#X text 61 10 dummy;
#X obj 117 413 handlers/stereo_generator \$0 ______;
#X obj 117 456 handlers/stereo_module \$0 _________;
#X obj 168 570 outlet~;
#X text 172 599 left generated signal out;
#X text 220 570 right generated signal out;
#X connect 1 0 13 0;
#X connect 2 0 15 2;
#X connect 4 0 15 1;
#X connect 13 0 20 2;
#X connect 13 1 15 0;
#X connect 15 0 20 0;
#X connect 15 1 20 1;
#X connect 15 2 20 3;
#X connect 15 3 7 0;
#X connect 20 0 21 0;
#X connect 20 1 21 1;
#X connect 20 2 21 2;
#X connect 20 3 21 3;
#X connect 21 0 0 0;
#X connect 21 1 22 0;
#X connect 21 2 3 0;
#X restore 17 138 pd prototyp_mono_generator_child_module;
#X text 15 118 dummy;
#X text 442 504 class: MyGen;
#X text 430 410 class: MyGen;
#X text 16 221 signal;
#X text 16 233 output;
#X text 27 321 1.) initial argument: <float> unique id of the module
;
#X text 407 196 2.) in parameter: "outLevel" \, type: <float> \, unit
[-];
#X text 393 37 0 signal in port;
#X obj 103 53 handlers/ntg_receive \$1;
#X text 436 211 initial-value: 1 \, range: (0...4) \, class: generator
;
#X text 436 268 initial-value: 0 \, range: (0/1) \, class: generator
;
#X text 435 284 description: mutes the output way of the generator
;
#X text 393 14 MyGen: prototyp of stereo generator child module;
#X text 393 53 2 signal out port;
#X text 393 69 5 data in ports;
#X text 393 84 2 data out port;
#X text 437 560 initial-value: - range: (-100...12 dB) \,;
#X text 439 591 description: outlevel in dB;
#X text 442 574 class: MyGen;
#X text 402 544 2.) out parameter: "myLevelB" \, type: <float> \, unit
[dB];
#X text 402 474 1.) out parameter: "myLevelA" \, type: <float> \, unit
[dB];
#X text 431 325 unit [dB] \, initial-value: 0 dB \, range: (-100...12.0
dB) \,;
#X text 429 356 description: gain in dB.;
#X text 430 340 class: MyGen;
#X text 406 379 5.) in parameter: "myGainB" \, type: <float> \,;
#X text 406 309 4.) in parameter: "myGainA" \, type: <float> \,;
#X obj 97 187 outlet~;
#X text 96 221 signal;
#X text 96 233 output;
#X text 16 209 left;
#X text 96 209 right;
#X text 406 139 1.) in parameter: "active" \, type: <int> \, unit [-]
;
#X text 406 253 3.) in parameter: "mute" \, type: <int> \, unit [-]
;
#X connect 11 0 4 0;
#X connect 11 1 38 0;
#X connect 11 2 5 0;
#X connect 20 0 11 2;
#X connect 20 1 11 3;
#X connect 20 2 11 4;
