#N canvas 490 43 767 539 10;
#X text 393 37 1 signal in port;
#X text 436 169 description: switches the module on and off from DSP
tree;
#X text 436 221 description: multiplies the incoming signal with this
value;
#X text 446 236 before it is going further to effect input;
#X text 436 154 initial-value: 1 \, range: (0/1) \, class: module;
#X text 436 206 initial-value: 1 \, range: (0...4) \, class: processor
;
#X obj 18 141 cnv 10 135 10 empty empty empty 20 12 0 14 -261682 -66577
0;
#X obj 18 57 inlet~;
#X obj 103 103 handlers/ntg_receive \$1;
#X obj 186 197 handlers/ntg_send \$1;
#X text 406 191 2.) in parameter: "inLevel" \, type: <float> \, unit
[-];
#X text 21 347 1.) initial argument: <float> unique id of the module
;
#X text 406 140 1.) in parameter: "active" \, type: <int> \, unit [-]
;
#X text 393 14 MyAnalyser: prototyp of mono analyser child module;
#X text 393 53 0 signal out port;
#X text 393 69 2 data in ports;
#X text 393 84 0 data out port;
#N canvas 50 125 798 626 prototyp_mono_analyser_child_module 0;
#X obj 144 64 inlet;
#X obj 17 25 inlet~;
#X obj 271 160 inlet;
#X obj 82 430 switch~;
#X obj 17 406 handlers/mono_module \$0 _________;
#X obj 229 113 inlet;
#X text 16 5 incoming signal;
#X obj 271 480 outlet;
#X text 316 480 outgoing parameter messages;
#X obj 147 275 t b b;
#X obj 17 195 handlers/mono_pre_processor \$0 ____________;
#N canvas 597 87 811 608 core/my_analyse~__________________________
0;
#X obj 69 58 inlet~;
#X obj 413 69 inlet;
#X obj 188 64 inlet;
#X text 187 45 init-bang;
#X text 70 38 sig.in;
#X text 438 525 rejected parameter;
#X obj 472 498 outlet;
#X obj 691 495 outlet;
#X text 657 522 outgoing parameters;
#X text 412 46 incoming parameters;
#X obj 317 66 inlet;
#X text 316 47 fini-bang;
#X obj 68 266 *~ 1;
#X obj 414 127 route myGain;
#X obj 414 152 + 100;
#X obj 414 176 dbtorms;
#X obj 414 200 clip 0 4;
#X obj 215 311 metro 300;
#X obj 193 344 snapshot~;
#X msg 216 280 1;
#X msg 261 280 0;
#X obj 193 391 - 100;
#X obj 193 368 rmstodb;
#X msg 193 413 list myLevel \$1;
#X text 28 11 my_process~;
#X connect 0 0 12 0;
#X connect 1 0 13 0;
#X connect 2 0 19 0;
#X connect 10 0 20 0;
#X connect 12 0 18 0;
#X connect 13 0 14 0;
#X connect 13 1 6 0;
#X connect 14 0 15 0;
#X connect 15 0 16 0;
#X connect 16 0 12 1;
#X connect 17 0 18 0;
#X connect 18 0 22 0;
#X connect 19 0 17 0;
#X connect 20 0 17 0;
#X connect 21 0 23 0;
#X connect 22 0 21 0;
#X connect 23 0 7 0;
#X restore 82 319 pd core/my_analyse~__________________________;
#X connect 0 0 10 1;
#X connect 1 0 10 0;
#X connect 2 0 10 2;
#X connect 4 1 3 0;
#X connect 5 0 11 2;
#X connect 9 0 4 1;
#X connect 9 1 11 1;
#X connect 10 0 4 0;
#X connect 10 1 11 0;
#X connect 10 2 9 0;
#X connect 10 3 11 3;
#X connect 11 0 4 2;
#X connect 11 1 7 0;
#X restore 17 138 pd prototyp_mono_analyser_child_module;
#X connect 7 0 17 0;
#X connect 8 0 17 1;
#X connect 8 1 17 2;
#X connect 8 2 17 3;
#X connect 17 0 9 0;
