#N canvas 340 22 863 519 10;
#X text 393 53 1 signal out port;
#X text 436 169 description: switches the module on and off from DSP
tree;
#X text 436 226 description: multiplies the signal from effect output
;
#X text 436 154 initial-value: 1 \, range: (0/1) \, class: module;
#X obj 18 141 cnv 10 135 10 empty empty empty 20 12 0 14 -261682 -66577
0;
#X obj 17 187 outlet~;
#X obj 248 181 handlers/ntg_send \$1;
#X text 431 330 unit [dB] \, initial-value: 0 dB \, range: (-100...12.0
dB) \,;
#X text 429 361 description: gain in dB.;
#X text 393 84 1 data out port;
#X text 382 383 **************************************************
;
#X text 437 425 initial-value: - range: (-100...12 dB) \,;
#X text 439 456 description: outlevel in dB;
#X text 402 409 1.) out parameter: "myLevel" \, type: <float> \, unit
[dB];
#N canvas 87 26 810 643 prototyp_mono_generator_child_module 0;
#X obj 117 555 outlet~;
#X obj 109 49 inlet;
#X obj 346 110 inlet;
#X obj 182 480 switch~;
#X obj 117 456 handlers/mono_module \$0 _________;
#X obj 245 80 inlet;
#X text 285 79 fini-bang: opposite of loadbang;
#X text 388 463 controls the "active" state of module;
#X obj 346 529 outlet;
#X text 391 529 outgoing parameter messages;
#X obj 17 29 inlet;
#X text 18 10 dummy;
#X text 171 555 generated signal out;
#X text 388 108 named parameter-messages;
#X text 397 418 controls "mute" "outLevel" of generator module;
#X obj 109 209 t b b;
#X text 394 237 here should be your pd-patch (as a subpatch or as a
abstraction like "core/my_gen~");
#N canvas 389 76 811 608 core/my_gen~___________________ 0;
#X obj 65 515 outlet~;
#X obj 425 63 inlet;
#X obj 167 57 inlet;
#X text 166 38 init-bang;
#X text 64 541 sig.out;
#X text 357 528 rejected parameter;
#X obj 391 501 outlet;
#X obj 691 495 outlet;
#X text 657 522 outgoing parameters;
#X text 424 40 incoming parameters;
#X obj 261 67 inlet;
#X text 260 48 fini-bang;
#X obj 426 121 route myGain;
#X obj 426 146 + 100;
#X obj 426 170 dbtorms;
#X obj 426 194 clip 0 4;
#X obj 251 298 metro 300;
#X obj 229 331 snapshot~;
#X msg 252 267 1;
#X msg 297 267 0;
#X obj 229 378 - 100;
#X obj 229 355 rmstodb;
#X msg 230 409 list myLevel \$1;
#X text 27 26 my_gen~;
#X obj 68 216 noise~;
#X obj 68 260 *~ 1;
#X connect 1 0 12 0;
#X connect 2 0 18 0;
#X connect 10 0 19 0;
#X connect 12 0 13 0;
#X connect 12 1 6 0;
#X connect 13 0 14 0;
#X connect 14 0 15 0;
#X connect 15 0 25 1;
#X connect 16 0 17 0;
#X connect 17 0 21 0;
#X connect 18 0 16 0;
#X connect 19 0 16 0;
#X connect 20 0 22 0;
#X connect 21 0 20 0;
#X connect 22 0 7 0;
#X connect 24 0 25 0;
#X connect 25 0 0 0;
#X connect 25 0 17 0;
#X restore 145 243 pd core/my_gen~___________________;
#X obj 117 413 handlers/mono_generator \$0 ______;
#X text 147 48 init-bang: will replace the loadbang object;
#X text 170 22 This subpatch can be switched off from DSP-tree;
#X connect 1 0 15 0;
#X connect 2 0 17 2;
#X connect 4 0 0 0;
#X connect 4 1 3 0;
#X connect 5 0 17 1;
#X connect 15 0 18 1;
#X connect 15 1 17 0;
#X connect 17 0 18 0;
#X connect 17 1 18 2;
#X connect 17 2 8 0;
#X connect 18 0 4 0;
#X connect 18 1 4 1;
#X connect 18 2 4 2;
#X restore 17 138 pd prototyp_mono_generator_child_module;
#X text 15 118 dummy;
#X text 393 14 MyGen: prototyp of mono generator child module;
#X text 442 439 class: MyGen;
#X text 430 345 class: MyGen;
#X text 16 221 signal;
#X text 16 209 mono;
#X text 16 233 output;
#X text 27 321 1.) initial argument: <float> unique id of the module
;
#X text 407 196 2.) in parameter: "outLevel" \, type: <float> \, unit
[-];
#X text 406 314 4.) in parameter: "myGain" \, type: <float> \,;
#X text 393 37 0 signal in port;
#X text 393 69 4 data in ports;
#X obj 103 53 handlers/ntg_receive \$1;
#X text 436 211 initial-value: 1 \, range: (0...4) \, class: generator
;
#X text 436 268 initial-value: 0 \, range: (0/1) \, class: generator
;
#X text 435 284 description: mutes the output way of the generator
;
#X text 406 139 1.) in parameter: "active" \, type: <int> \, unit [-]
;
#X text 406 253 3.) in parameter: "mute" \, type: <int> \, unit [-]
;
#X connect 14 0 5 0;
#X connect 14 1 6 0;
#X connect 27 0 14 1;
#X connect 27 1 14 2;
#X connect 27 2 14 3;
