#N canvas 82 266 806 426 10;
#X obj 19 163 cnv 10 85 10 empty empty empty 20 12 0 14 -261682 -66577
0;
#X text 385 145 description: index selects the ADC (beginnig with 1)
;
#X text 14 140 dummy;
#X obj 15 206 outlet~;
#N canvas 612 238 567 306 audio_in_module______________ 0;
#X obj 22 145 cnv 10 164 10 empty empty empty 20 12 0 14 -261682 -66577
0;
#X obj 22 235 outlet~;
#X obj 21 55 inlet;
#X text 24 37 dummy;
#X obj 122 54 inlet;
#X obj 269 53 inlet;
#X text 269 36 named parameter-messages;
#X text 122 37 init-bang;
#N canvas 174 185 938 513 audio_in___________________ 0;
#X obj 280 41 inlet;
#X obj 138 41 inlet;
#X obj 640 426 outlet;
#X text 132 25 init-bang;
#X text 280 25 route parameters;
#X text 636 445 rejected parameters;
#X obj 504 424 outlet;
#X text 492 461 init-bang;
#X text 131 12 from prev;
#X text 498 447 to next;
#X obj 18 43 inlet;
#X text 16 27 dummy;
#X obj 25 429 outlet~;
#X text 24 455 to post-processor;
#X obj 338 132 clip 0 1;
#X obj 25 194 generics/line_mul~ 1 20;
#X obj 376 427 outlet;
#X text 370 450 output attribute;
#X obj 122 324 core/vu~;
#X obj 102 220 generics/line_mul~ 1 20;
#X obj 100 428 outlet~;
#X obj 138 78 t b b;
#X obj 279 66 route offset outLevel;
#N canvas 719 109 692 712 create 0;
#X msg 329 217 editmode 0;
#X msg 313 194 vis 0;
#X msg 509 526 editmode 1;
#X msg 521 548 vis 1;
#X msg 535 570 clear;
#X msg 95 254 editmode 0;
#X msg 78 229 vis 0;
#X msg 173 393 editmode 1;
#X msg 185 416 vis 1;
#X obj 79 356 del 0;
#X obj 372 52 inlet;
#X obj 393 597 s pd-\$0-IN;
#X msg 487 474 obj 30 50 outlet~;
#X msg 499 499 obj 30 20 adc~ \$1;
#X msg 623 498 3;
#X msg 398 311 connect 0 0 1 0;
#X obj 525 135 + 1;
#X msg 381 290 connect 2 0 3 0;
#X msg 474 453 obj 130 20 adc~ \$1;
#X msg 462 428 obj 130 50 outlet~;
#X obj 165 463 s \$0-st-audio-in;
#X msg 148 342 connect 25 1 19 0;
#X msg 162 367 connect 25 0 15 0;
#X msg 525 41 1;
#X obj 373 104 t b b b b b b b b f b f b f b f b b b;
#X obj 462 171 + 3;
#X obj 494 157 + 2;
#X msg 448 404 obj 230 20 adc~ \$1;
#X msg 423 358 obj 330 20 adc~ \$1;
#X msg 436 379 obj 230 50 outlet~;
#X msg 411 333 obj 330 50 outlet~;
#X msg 366 268 connect 4 0 5 0;
#X msg 354 245 connect 6 0 7 0;
#X msg 114 284 connect 25 3 37 0;
#X msg 131 314 connect 25 2 36 0;
#X obj 64 202 t b b b b b b b b b;
#X obj 373 78 clip 1 61;
#X connect 0 0 11 0;
#X connect 1 0 11 0;
#X connect 2 0 11 0;
#X connect 3 0 11 0;
#X connect 4 0 11 0;
#X connect 5 0 20 0;
#X connect 6 0 20 0;
#X connect 7 0 20 0;
#X connect 8 0 20 0;
#X connect 10 0 36 0;
#X connect 12 0 11 0;
#X connect 13 0 11 0;
#X connect 14 0 13 0;
#X connect 15 0 11 0;
#X connect 16 0 18 0;
#X connect 17 0 11 0;
#X connect 18 0 11 0;
#X connect 19 0 11 0;
#X connect 21 0 20 0;
#X connect 22 0 20 0;
#X connect 23 0 36 0;
#X connect 24 0 35 0;
#X connect 24 1 1 0;
#X connect 24 2 0 0;
#X connect 24 3 32 0;
#X connect 24 4 31 0;
#X connect 24 5 17 0;
#X connect 24 6 15 0;
#X connect 24 7 30 0;
#X connect 24 8 25 0;
#X connect 24 9 29 0;
#X connect 24 10 26 0;
#X connect 24 11 19 0;
#X connect 24 12 16 0;
#X connect 24 13 12 0;
#X connect 24 14 13 0;
#X connect 24 15 2 0;
#X connect 24 16 3 0;
#X connect 24 17 4 0;
#X connect 25 0 28 0;
#X connect 26 0 27 0;
#X connect 27 0 11 0;
#X connect 28 0 11 0;
#X connect 29 0 11 0;
#X connect 30 0 11 0;
#X connect 31 0 11 0;
#X connect 32 0 11 0;
#X connect 33 0 20 0;
#X connect 34 0 20 0;
#X connect 35 0 9 0;
#X connect 35 1 6 0;
#X connect 35 2 5 0;
#X connect 35 3 33 0;
#X connect 35 4 34 0;
#X connect 35 5 21 0;
#X connect 35 6 22 0;
#X connect 35 7 7 0;
#X connect 35 8 8 0;
#X connect 36 0 24 0;
#X restore 279 95 pd create adc~ n n+1;
#X obj 441 66 namecanvas \$0-st-audio-in;
#N canvas 0 22 450 300 \$0-IN 0;
#X obj 30 20 adc~ 1;
#X obj 30 50 outlet~;
#X obj 130 20 adc~ 2;
#X obj 130 50 outlet~;
#X obj 230 20 adc~ 3;
#X obj 230 50 outlet~;
#X obj 330 20 adc~ 4;
#X obj 330 50 outlet~;
#X connect 0 0 1 0;
#X connect 2 0 3 0;
#X connect 4 0 5 0;
#X connect 6 0 7 0;
#X restore 26 156 pd \$0-IN;
#X obj 546 196 route active;
#X obj 13 326 core/vu~;
#X obj 13 350 list prepend vu1;
#X obj 122 350 list prepend vu2;
#X obj 339 325 core/vu~;
#X obj 230 327 core/vu~;
#X obj 230 351 list prepend vu3;
#X obj 339 351 list prepend vu4;
#X obj 171 429 outlet~;
#X obj 246 428 outlet~;
#X obj 174 250 generics/line_mul~ 1 20;
#X obj 251 276 generics/line_mul~ 1 20;
#X connect 0 0 22 0;
#X connect 1 0 21 0;
#X connect 14 0 15 1;
#X connect 14 0 19 1;
#X connect 14 0 36 1;
#X connect 14 0 37 1;
#X connect 15 0 12 0;
#X connect 15 0 27 0;
#X connect 18 0 29 0;
#X connect 19 0 18 0;
#X connect 19 0 20 0;
#X connect 21 0 6 0;
#X connect 21 1 15 3;
#X connect 21 1 19 3;
#X connect 21 1 36 3;
#X connect 21 1 37 3;
#X connect 22 0 23 0;
#X connect 22 1 14 0;
#X connect 22 2 26 0;
#X connect 22 2 2 0;
#X connect 25 0 15 0;
#X connect 25 1 19 0;
#X connect 25 2 36 0;
#X connect 25 3 37 0;
#X connect 26 0 18 1;
#X connect 26 0 27 1;
#X connect 26 0 30 1;
#X connect 26 0 31 1;
#X connect 27 0 28 0;
#X connect 28 0 16 0;
#X connect 29 0 16 0;
#X connect 30 0 33 0;
#X connect 31 0 32 0;
#X connect 32 0 16 0;
#X connect 33 0 16 0;
#X connect 36 0 34 0;
#X connect 36 0 31 0;
#X connect 37 0 35 0;
#X connect 37 0 30 0;
#X restore 21 142 pd audio_in___________________;
#X obj 200 52 inlet;
#X text 200 35 fini-bang;
#X obj 255 236 outlet;
#X obj 81 235 outlet~;
#X obj 187 207 switch~;
#X obj 140 235 outlet~;
#X obj 198 235 outlet~;
#X obj 22 182 handlers/quad_module \$0 _________;
#X connect 2 0 8 0;
#X connect 4 0 8 1;
#X connect 5 0 8 2;
#X connect 8 0 16 0;
#X connect 8 1 16 1;
#X connect 8 2 16 2;
#X connect 8 3 16 3;
#X connect 8 4 11 0;
#X connect 8 5 16 4;
#X connect 8 6 16 5;
#X connect 16 0 1 0;
#X connect 16 1 12 0;
#X connect 16 2 14 0;
#X connect 16 3 15 0;
#X connect 16 4 13 0;
#X restore 16 160 pd audio_in_module______________;
#X obj 329 213 handlers/ntg_send \$1;
#X obj 69 206 outlet~;
#X obj 92 109 handlers/ntg_receive \$1;
#X text 356 114 1.) parameter: "offset" \, type: <int> \, unit [-]
;
#X text 387 69 2 data in port (outLevel \, offset);
#X text 406 180 Thomas Musil \, 2010-09-27;
#X text 49 259 1.) initial argument: <float> unique ID;
#X text 343 31 quad_audio_in: audio signal is coming from the ADC;
#X text 387 53 4 signal out port;
#X text 387 85 4 data out port (vu1 \, vu2 \, vu3 \, vu4);
#X text 386 128 initial-value: 1 \, range: (1 .. 61) \, class: audio-in
;
#X obj 124 206 outlet~;
#X obj 178 206 outlet~;
#X connect 4 0 3 0;
#X connect 4 1 6 0;
#X connect 4 2 16 0;
#X connect 4 3 17 0;
#X connect 4 4 5 0;
#X connect 7 0 4 1;
#X connect 7 1 4 2;
#X connect 7 2 4 3;
