#N canvas 55 28 714 420 10;
#X obj 23 133 cnv 10 85 10 empty empty empty 20 12 0 14 -261682 -66577
0;
#X text 364 18 audio-out: audio signal is going to the DAC;
#X text 392 167 description: index selects the DAC (beginnig with 1)
;
#X obj 67 73 inlet~;
#X obj 210 71 handlers/ntg_receive \$1;
#X obj 134 167 handlers/ntg_send \$1;
#X obj 21 74 inlet~;
#X text 363 136 1.) parameter: "offset" \, type: <int> \, unit [-]
;
#X text 14 205 1.) initial argument: <float> unique id of the module
;
#X text 400 42 4 signal in port;
#N canvas 73 33 572 405 audio_out_module__________________________________
0;
#X obj 17 201 outlet;
#X obj 254 37 inlet;
#X obj 63 35 inlet~;
#X obj 413 38 inlet;
#X text 413 21 named parameter-messages;
#X text 254 20 init-bang;
#N canvas 8 22 810 611 audio_out_____________________ 0;
#X obj 451 45 inlet;
#X obj 309 45 inlet;
#X obj 533 479 outlet;
#X text 303 29 init-bang;
#X text 451 29 route parameters;
#X text 529 498 rejected parameters;
#X obj 397 477 outlet;
#X text 385 514 init-bang;
#X text 302 16 from prev;
#X text 391 500 to next;
#X obj 30 516 outlet;
#X obj 508 136 clip 0 1;
#X text 32 538 attribute out;
#X obj 19 232 core/vu~;
#X obj 309 76 t b b;
#X obj 451 70 route offset inLevel;
#X obj 621 70 namecanvas \$0-st-audio-out;
#X obj 627 165 route active;
#X obj 66 278 core/vu~;
#X obj 117 327 core/vu~;
#X obj 165 372 core/vu~;
#X obj 19 256 list prepend vu1;
#X obj 66 303 list prepend vu2;
#X obj 117 350 list prepend vu3;
#X obj 165 393 list prepend vu4;
#X obj 21 33 inlet~;
#X obj 20 174 generics/line_mul~ 1 20;
#X obj 70 33 inlet~;
#X obj 70 197 generics/line_mul~ 1 20;
#X obj 117 34 inlet~;
#X obj 117 220 generics/line_mul~ 1 20;
#X obj 164 35 inlet~;
#X obj 164 242 generics/line_mul~ 1 20;
#N canvas 0 22 450 300 \$0-OUT 0;
#X obj 30 20 inlet~;
#X obj 30 50 dac~ 1;
#X obj 130 20 inlet~;
#X obj 130 50 dac~ 2;
#X obj 230 20 inlet~;
#X obj 230 50 dac~ 3;
#X obj 330 20 inlet~;
#X obj 330 50 dac~ 4;
#X connect 0 0 1 0;
#X connect 2 0 3 0;
#X connect 4 0 5 0;
#X connect 6 0 7 0;
#X restore 111 469 pd \$0-OUT;
#N canvas 671 51 729 779 create 0;
#X msg 378 181 editmode 0;
#X msg 363 158 vis 0;
#X obj 376 686 s pd-\$0-OUT;
#X msg 564 557 editmode 1;
#X msg 579 578 vis 1;
#X msg 594 599 clear;
#X msg 549 533 obj 30 20 inlet~;
#X msg 525 511 obj 30 50 dac~ \$1;
#X msg 139 328 editmode 0;
#X msg 122 303 vis 0;
#X msg 216 457 editmode 1;
#X msg 236 482 vis 1;
#X obj 46 449 del 0;
#X obj 348 78 inlet;
#X msg 427 281 connect 0 0 1 0;
#X msg 411 256 connect 2 0 3 0;
#X obj 497 442 + 1;
#X msg 510 489 obj 130 20 inlet~;
#X msg 497 464 obj 130 50 dac~ \$1;
#X obj 148 519 s \$0-st-audio-out;
#X obj 470 370 + 2;
#X obj 442 306 + 3;
#X msg 625 463 6;
#X msg 597 390 7;
#X msg 591 328 8;
#X obj 349 130 t b b b b b b b f b f b f b f b b b b;
#X msg 402 231 connect 4 0 5 0;
#X msg 389 206 connect 6 0 7 0;
#X obj 111 279 t b b b b b b b b b;
#X msg 203 433 connect 26 0 33 0;
#X msg 187 406 connect 28 0 33 1;
#X msg 175 382 connect 30 0 33 2;
#X msg 159 354 connect 32 0 33 3;
#X msg 481 416 obj 230 20 inlet~;
#X msg 453 349 obj 330 20 inlet~;
#X msg 470 391 obj 230 50 dac~ \$1;
#X msg 442 328 obj 330 50 dac~ \$1;
#X obj 349 103 clip 1 61;
#X msg 593 61 1;
#X connect 0 0 2 0;
#X connect 1 0 2 0;
#X connect 3 0 2 0;
#X connect 4 0 2 0;
#X connect 5 0 2 0;
#X connect 6 0 2 0;
#X connect 7 0 2 0;
#X connect 8 0 19 0;
#X connect 9 0 19 0;
#X connect 10 0 19 0;
#X connect 11 0 19 0;
#X connect 13 0 37 0;
#X connect 14 0 2 0;
#X connect 15 0 2 0;
#X connect 16 0 18 0;
#X connect 17 0 2 0;
#X connect 18 0 2 0;
#X connect 20 0 35 0;
#X connect 21 0 36 0;
#X connect 22 0 18 0;
#X connect 23 0 35 0;
#X connect 24 0 36 0;
#X connect 25 0 28 0;
#X connect 25 1 1 0;
#X connect 25 2 0 0;
#X connect 25 3 27 0;
#X connect 25 4 26 0;
#X connect 25 5 15 0;
#X connect 25 6 14 0;
#X connect 25 7 21 0;
#X connect 25 8 34 0;
#X connect 25 9 20 0;
#X connect 25 10 33 0;
#X connect 25 11 16 0;
#X connect 25 12 17 0;
#X connect 25 13 7 0;
#X connect 25 14 6 0;
#X connect 25 15 3 0;
#X connect 25 16 4 0;
#X connect 25 17 5 0;
#X connect 26 0 2 0;
#X connect 27 0 2 0;
#X connect 28 0 12 0;
#X connect 28 1 9 0;
#X connect 28 2 8 0;
#X connect 28 3 32 0;
#X connect 28 4 31 0;
#X connect 28 5 30 0;
#X connect 28 6 29 0;
#X connect 28 7 10 0;
#X connect 28 8 11 0;
#X connect 29 0 19 0;
#X connect 30 0 19 0;
#X connect 31 0 19 0;
#X connect 32 0 19 0;
#X connect 33 0 2 0;
#X connect 34 0 2 0;
#X connect 35 0 2 0;
#X connect 36 0 2 0;
#X connect 37 0 25 0;
#X connect 38 0 37 0;
#X restore 451 101 pd create dac~ n n+1;
#X connect 0 0 15 0;
#X connect 1 0 14 0;
#X connect 11 0 32 1;
#X connect 11 0 30 1;
#X connect 11 0 28 1;
#X connect 11 0 26 1;
#X connect 13 0 21 0;
#X connect 14 0 6 0;
#X connect 14 1 32 3;
#X connect 14 1 30 3;
#X connect 14 1 28 3;
#X connect 14 1 26 3;
#X connect 15 0 34 0;
#X connect 15 1 11 0;
#X connect 15 2 2 0;
#X connect 15 2 17 0;
#X connect 17 0 13 1;
#X connect 17 0 18 1;
#X connect 17 0 19 1;
#X connect 17 0 20 1;
#X connect 18 0 22 0;
#X connect 19 0 23 0;
#X connect 20 0 24 0;
#X connect 21 0 10 0;
#X connect 22 0 10 0;
#X connect 23 0 10 0;
#X connect 24 0 10 0;
#X connect 25 0 26 0;
#X connect 26 0 13 0;
#X connect 26 0 33 0;
#X connect 27 0 28 0;
#X connect 28 0 18 0;
#X connect 28 0 33 1;
#X connect 29 0 30 0;
#X connect 30 0 19 0;
#X connect 30 0 33 2;
#X connect 31 0 32 0;
#X connect 32 0 20 0;
#X connect 32 0 33 3;
#X restore 17 145 pd audio_out_____________________;
#X obj 342 41 inlet;
#X text 342 24 fini-bang;
#X obj 142 202 outlet;
#X text 141 224 attribute out;
#X text 16 223 dummy;
#X obj 17 35 inlet~;
#X obj 315 246 switch~;
#X obj 158 36 inlet~;
#X obj 111 35 inlet~;
#X obj 203 176 handlers/zero_module \$0 _________;
#X connect 1 0 6 4;
#X connect 2 0 6 1;
#X connect 3 0 6 5;
#X connect 6 0 9 0;
#X connect 6 1 16 0;
#X connect 6 2 16 1;
#X connect 12 0 6 0;
#X connect 14 0 6 3;
#X connect 15 0 6 2;
#X connect 16 0 13 0;
#X restore 20 129 pd audio_out_module__________________________________
;
#X obj 165 73 inlet~;
#X obj 112 72 inlet~;
#X text 412 206 Thomas Musil \, 2010-09-27;
#X text 393 151 initial-value: 1 \, range: (1 .. 61) \, class: audio-out
;
#X text 400 74 4 data out port (vu1 \, vu2 \, vu3 \, vu4);
#X text 400 58 2 data in port (inLevel \, offset);
#X connect 3 0 10 1;
#X connect 4 0 10 4;
#X connect 4 1 10 5;
#X connect 4 2 10 6;
#X connect 6 0 10 0;
#X connect 10 1 5 0;
#X connect 11 0 10 3;
#X connect 12 0 10 2;
