#N canvas 572 22 374 256 10;
#X obj 18 141 cnv 10 135 10 empty empty empty 20 12 0 14 -261682 -66577
0;
#X obj 17 91 inlet~;
#X obj 17 170 outlet~;
#X obj 110 93 handlers/ntg_receive \$1;
#N canvas 621 85 714 386 low_pass_module________ 0;
#X obj 17 345 outlet~;
#X obj 107 274 switch~;
#X obj 108 148 cnv 10 164 10 empty empty empty 20 12 0 14 -261682 -66577
0;
#X obj 128 28 inlet;
#X obj 17 25 inlet~;
#X obj 313 26 inlet;
#X text 313 9 named parameter-messages;
#X text 128 11 init-bang;
#X obj 17 99 handlers/mono_pre_processor \$0 __;
#X obj 17 187 handlers/mono_post_processor \$0 _;
#X obj 17 230 handlers/mono_module \$0 _________;
#N canvas 619 262 797 509 band_pass______________ 0;
#X obj 280 29 inlet;
#X obj 18 31 inlet~;
#X obj 18 413 outlet~;
#X obj 179 31 inlet;
#X obj 380 425 outlet;
#X text 173 15 init-bang;
#X text 280 13 route parameters;
#X text 376 444 rejected parameters;
#X text 16 15 from pre-processor;
#X text 17 439 to post-processor;
#X obj 254 424 outlet;
#X text 243 459 init-bang;
#X text 174 3 from prev.;
#X text 250 445 to next;
#X obj 280 69 route frequency q;
#X obj 84 203 rj/e_lop4 1000 2;
#X msg 55 79 \; pd-e_lop4.pd loadbang;
#X connect 0 0 14 0;
#X connect 1 0 15 0;
#X connect 3 0 10 0;
#X connect 3 0 16 0;
#X connect 14 0 15 1;
#X connect 14 1 15 2;
#X connect 14 2 4 0;
#X connect 15 0 2 0;
#X restore 107 145 pd band_pass______________;
#X obj 229 31 inlet;
#X text 229 14 fini-bang;
#X connect 3 0 8 1;
#X connect 4 0 8 0;
#X connect 5 0 8 2;
#X connect 8 0 9 0;
#X connect 8 1 11 0;
#X connect 8 2 11 1;
#X connect 8 3 11 2;
#X connect 9 0 10 0;
#X connect 9 1 10 1;
#X connect 9 2 10 2;
#X connect 10 0 0 0;
#X connect 10 1 1 0;
#X connect 11 0 9 1;
#X connect 11 1 9 2;
#X connect 11 2 9 3;
#X restore 17 138 pd low_pass_module________;
#X connect 1 0 4 0;
#X connect 3 0 4 1;
#X connect 3 1 4 2;
#X connect 3 2 4 3;
#X connect 4 0 2 0;
