#N canvas 50 45 1228 697 10;
#X text 306 99 1.) parameter: "active" \, type: <bool> \, unit [-]
;
#X text 336 129 description: switches the module on and off from DSP
tree;
#X text 336 299 description: switches a bypass path in parallel;
#X text 346 313 to the processor on and off;
#X text 335 365 description: mutes the effect way of the processor
;
#X text 336 414 description: makes a mix of the effected signal (wet
= 1);
#X text 346 429 and the input signal (dry = 0);
#X text 336 182 description: multiplies the incoming signal with this
value;
#X text 346 197 before it is going further to effect input;
#X text 336 247 description: multiplies the signal from effect output
;
#X text 336 114 initial-value: 1 \, range: (0/1) \, class: module;
#X text 336 232 initial-value: 1 \, range: (0...4) \, class: processor
;
#X text 336 167 initial-value: 1 \, range: (0...4) \, class: processor
;
#X text 336 284 initial-value: 0 \, range: (0/1) \, class: processor
;
#X text 336 349 initial-value: 0 \, range: (0/1) \, class: processor
;
#X text 336 399 initial-value: 1 \, range: (0...1) \, class: processor
;
#X obj 17 179 cnv 10 135 10 empty empty empty 20 12 0 14 -261682 -66577
0;
#X text 315 37 2 signal in ports;
#X text 315 53 2 signal out ports;
#X text 335 483 class: stereo-reverb \, description:;
#X text 335 559 class: stereo-reverb \, description:;
#X text 345 586 of the late diffuse reverberation signals.;
#X text 345 510 of the late diffuse reverberation signals.;
#X text 346 497 the low band (15..62 Hz) its T60 decay time;
#X text 344 572 the mid-low band (62..250 Hz) its T60 decay time of
the;
#X text 775 120 class: stereo-reverb \, description:;
#X text 785 147 of the late diffuse reverberation signals.;
#X text 784 133 the mid-low band (250..1000 Hz) its T60 decay time
of the;
#X text 775 194 class: stereo-reverb \, description:;
#X text 785 221 of the late diffuse reverberation signals.;
#X text 774 268 class: stereo-reverb \, description:;
#X text 785 295 of the late diffuse reverberation signals.;
#X text 784 207 the mid-low band (1..4 kHz) its T60 decay time of the
;
#X text 784 281 the mid-low band (4..16 kHz) its T60 decay time of
the;
#X text 793 357 does the balance between the early echoes and;
#X text 793 371 the late diffuse reverberation signals.;
#X text 784 328 unit [-] \, initial-value: 0.5 \, range: (0...1);
#X text 784 341 class: stereo-reverb \, description:;
#X text 785 402 unit [m^3] \, initial-value: 350 m^3 \, range: (8...100000)
;
#X text 785 416 class: stereo-reverb \, description:;
#X text 795 430 is the reverberation room volume in cubic meter.;
#X text 786 461 unit [-] \, initial-value: 0.5 \, range: (0...1);
#X text 786 530 unit [-] \, initial-value: 0.5 \, range: (0...1);
#X text 787 544 class: stereo-reverb \, description: describes the
distance;
#X text 798 559 of sound source and listener in the room.;
#X obj 15 124 inlet~;
#X obj 16 232 outlet~;
#X text 798 490 of the room. 0 is cubic \, 1 is more elongate.;
#X text 787 475 class: stereo-reverb \, description: describes the
shape;
#X text 867 644 Thomas Musil \, 11.11.2009;
#X text 306 152 2.) parameter: "inLevel" \, type: <float> \, unit [-]
;
#X text 307 217 3.) parameter: "outLevel" \, type: <float> \, unit
[-];
#X text 308 269 4.) parameter: "bypass" \, type: <bool> \, unit [-]
;
#X text 306 334 5.) parameter: "mute" \, type: <bool> \, unit [-];
#X text 306 384 6.) parameter: "mix" \, type: <float> \, unit [-];
#X text 306 454 7.) parameter: "decayTimeLow" \, type: <float>;
#X text 305 532 8.) parameter: "decayTimeMidLow" \, type: <float>;
#X text 746 91 9.) parameter: "decayTimeMid" \, type: <float>;
#X text 746 165 10.) parameter: "decayTimeMidHigh" \, type: <float>
;
#X text 746 239 11.) parameter: "decayTimeHigh" \, type: <float>;
#X text 749 313 12.) parameter: "earlyLateBalance" \, type: <float>
;
#X text 750 388 13.) parameter: "roomVolume" \, type: <float>;
#X text 750 447 14.) parameter: "roomShape" \, type: <float>;
#X text 750 516 15.) parameter: "sourceDistance" \, type: <float>;
#X obj 95 123 handlers/ntg_receive \$1;
#X text 315 14 mono-reverb: a feedback delay network reverb;
#X text 316 69 15 data in ports;
#X text 14 635 1.) initial argument: <float> unique id of the module
;
#X text 776 106 unit [sec] \, initial-value: 2.5 sec \, range: (0.1...1000)
;
#X text 776 180 unit [sec] \, initial-value: 2 sec \, range: (0.1...1000)
;
#X text 776 254 unit [sec] \, initial-value: 1.5 sec \, range: (0.1...1000)
;
#X text 336 545 unit [sec] \, initial-value: 3 sec \, range: (0.1...1000)
;
#X text 336 469 unit [sec] \, initial-value: 3.5 sec \, range: (0.1...1000)
;
#N canvas 580 67 494 405 mono_reverb_module________ 0;
#X obj 17 8 inlet~;
#X obj 17 345 outlet~;
#X obj 94 281 switch~;
#X obj 144 19 inlet;
#X obj 291 22 inlet;
#X text 291 5 named parameter-messages;
#X text 144 2 init-bang;
#X obj 213 20 inlet;
#X text 213 3 fini-bang;
#X obj 17 104 handlers/mono_pre_processor \$0 __;
#N canvas 541 97 600 345 mono_reverb_________ 0;
#X obj 366 26 inlet;
#X obj 18 31 inlet~;
#X obj 18 247 outlet~;
#X obj 180 34 inlet;
#X obj 314 247 outlet;
#X text 174 18 init-bang;
#X text 366 10 route parameters;
#X text 310 266 rejected parameters;
#X text 17 5 from pre-processor;
#X text 21 273 to post-processor;
#X obj 181 245 outlet;
#X text 170 280 init-bang;
#X text 175 6 from prev.;
#X text 177 266 to next;
#X obj 180 143 t b b;
#X obj 17 186 core/mono_reverb12~ _________________________;
#X obj 280 34 inlet;
#X text 274 18 fini-bang;
#X obj 479 244 outlet;
#X text 475 263 outgoing parameters;
#X connect 0 0 15 3;
#X connect 1 0 15 0;
#X connect 3 0 14 0;
#X connect 14 0 10 0;
#X connect 14 1 15 1;
#X connect 15 0 2 0;
#X connect 15 1 4 0;
#X connect 15 2 18 0;
#X connect 16 0 15 2;
#X restore 93 146 pd mono_reverb_________;
#X obj 17 195 handlers/mono_post_processor \$0 _;
#X obj 17 242 handlers/mono_module \$0 _________;
#X obj 294 351 outlet;
#X connect 0 0 9 0;
#X connect 3 0 9 1;
#X connect 4 0 9 2;
#X connect 7 0 10 2;
#X connect 9 0 11 0;
#X connect 9 1 10 0;
#X connect 9 2 10 1;
#X connect 9 3 10 3;
#X connect 10 0 11 1;
#X connect 10 1 11 2;
#X connect 10 2 11 3;
#X connect 10 3 13 0;
#X connect 11 0 12 0;
#X connect 11 1 12 1;
#X connect 11 2 12 2;
#X connect 12 0 1 0;
#X connect 12 1 2 0;
#X restore 16 176 pd mono_reverb_module________;
#X obj 91 231 handlers/ntg_send \$1;
#X connect 45 0 73 0;
#X connect 64 0 73 1;
#X connect 64 1 73 2;
#X connect 64 2 73 3;
#X connect 73 0 46 0;
#X connect 73 1 74 0;
