#N canvas 250 23 1190 760 10;
#X text 313 53 1 signal out port;
#X text 313 37 1 signal in port;
#X text 326 99 1.) parameter: "active" \, type: <bool> \, unit [-]
;
#X text 356 129 description: switches the module on and off from DSP
tree;
#X text 356 298 description: switches a bypass path in parallel;
#X text 366 312 to the processor on and off;
#X text 355 364 description: mutes the effect way of the processor
;
#X text 356 413 description: makes a mix of the effected signal (wet
= 1);
#X text 366 428 and the input signal (dry = 0);
#X text 356 181 description: multiplies the incoming signal with this
value;
#X text 366 196 before it is going further to effect input;
#X text 356 246 description: multiplies the signal from effect output
;
#X text 356 114 initial-value: 1 \, range: (0/1) \, class: module;
#X text 356 231 initial-value: 1 \, range: (0...4) \, class: processor
;
#X text 356 166 initial-value: 1 \, range: (0...4) \, class: processor
;
#X text 356 283 initial-value: 0 \, range: (0/1) \, class: processor
;
#X text 356 348 initial-value: 0 \, range: (0/1) \, class: processor
;
#X text 356 398 initial-value: 1 \, range: (0...1) \, class: processor
;
#X obj 30 150 cnv 10 135 10 empty empty empty 20 12 0 14 -261682 -66577
0;
#X obj 27 98 inlet~;
#X obj 27 177 outlet~;
#X text 326 382 6.) parameter: "mix" \, type: <float> \, unit [-];
#X text 326 333 5.) parameter: "mute" \, type: <bool> \, unit [-];
#X text 328 268 4.) parameter: "bypass" \, type: <bool> \, unit [-]
;
#X text 326 151 2.) parameter: "inLevel" \, type: <float> \, unit [-]
;
#X text 327 216 3.) parameter: "outLevel" \, type: <float> \, unit
[-];
#X obj 153 97 handlers/ntg_receive \$1;
#X text 314 14 ringmodulator: multiplies 2 signals and produces AM
;
#N canvas 66 79 714 386 ringmodulator_module_____________ 0;
#X obj 17 345 outlet~;
#X obj 108 148 cnv 10 164 10 empty empty empty 20 12 0 14 -261682 -66577
0;
#X obj 200 29 inlet;
#X obj 17 25 inlet~;
#X obj 383 29 inlet;
#X text 383 12 named parameter-messages;
#X text 200 12 init-bang;
#X obj 69 292 switch~;
#X obj 285 28 inlet;
#X text 285 11 fini-bang;
#X obj 107 25 inlet~;
#X obj 17 99 handlers/stereo_pre_processor \$0 __;
#N canvas 49 40 695 453 ringmodulator___________ 0;
#X obj 500 29 inlet;
#X obj 18 31 inlet~;
#X obj 24 338 outlet~;
#X obj 249 31 inlet;
#X obj 467 344 outlet;
#X text 243 15 init-bang;
#X text 500 13 route parameters;
#X text 463 363 rejected parameters;
#X text 16 15 from pre-processor;
#X text 23 364 to post-processor;
#X obj 237 346 outlet;
#X text 226 381 init-bang;
#X text 244 3 from prev.;
#X text 233 367 to next;
#X obj 98 32 inlet~;
#X obj 274 73 t b b;
#X obj 175 169 core/ring_modulator~;
#X connect 0 0 16 2;
#X connect 1 0 16 0;
#X connect 3 0 15 0;
#X connect 14 0 16 1;
#X connect 15 0 10 0;
#X connect 15 1 16 3;
#X connect 16 0 2 0;
#X connect 16 1 4 0;
#X restore 82 145 pd ringmodulator___________;
#X obj 17 187 handlers/mono_post_processor \$0 _;
#X obj 17 230 handlers/mono_module \$0 _________;
#X connect 2 0 11 2;
#X connect 3 0 11 0;
#X connect 4 0 11 3;
#X connect 10 0 11 1;
#X connect 11 0 13 0;
#X connect 11 2 12 0;
#X connect 11 3 12 1;
#X connect 11 4 12 2;
#X connect 11 5 12 3;
#X connect 12 0 13 1;
#X connect 12 1 13 2;
#X connect 12 2 13 3;
#X connect 13 0 14 0;
#X connect 13 1 14 1;
#X connect 13 2 14 2;
#X connect 14 0 0 0;
#X connect 14 1 7 0;
#X restore 27 145 pd ringmodulator_module_____________;
#X obj 77 98 inlet~;
#X text 313 69 10 data in ports;
#X text 326 454 7.) parameter: "lfoRate" \, type: <float> \, unit [Hz]
;
#X text 326 533 8.) parameter: "lfoAmount" \, type: <float> \, unit
[-];
#X text 778 204 class: ringmodulator;
#X text 778 122 class: ringmodulator;
#X text 368 563 class: ringmodulator;
#X text 368 482 class: ringmodulator;
#X text 736 173 10.) parameter: "modulationFrequency" \, type: <float>
\,;
#X text 355 497 description: LFO frequency in Hz to modulate;
#X text 365 509 carrier frequency oscillator.;
#X text 778 294 class: ringmodulator;
#X text 736 263 11.) parameter: "modulationDrive" \, type: <float>
\,;
#X text 371 589 carrier frequency oscillator.;
#X text 361 577 description: LFO amplitude (linear) to modulate;
#X text 768 135 description: LFO wave shape \,;
#X text 769 189 unit [Hz] \, initial-value: 3 Hz \, range: (0.1 ...
10000 Hz) \,;
#X text 769 219 description: mean frequency of carrier frequency;
#X text 778 233 oscillator in Hz.;
#X text 769 309 description: amplitude of carrier frequency oscillator.
;
#X text 415 639 Thomas Musil \, 15.04.2010;
#X text 769 279 unit [-] \, initial-value: 1 \, range: (0 ... 1) \,
;
#X text 359 549 initial-value: 0.5 \, range: (0.0 ... 1.0) \,;
#X text 357 468 initial-value: 0.2 Hz \, range: (0.001...100 Hz) \,
;
#X text 736 94 9.) parameter: "lfoShape" \, type: <symbol> \, unit
[-];
#X text 22 622 1.) initial argument: <float> unique id of the module
;
#X text 766 109 initial-value: "sine" \, legal value: (sine \, square)
\,;
#X text 777 147 0..sine \, 1..square.;
#X connect 19 0 28 0;
#X connect 26 0 28 2;
#X connect 26 1 28 3;
#X connect 26 2 28 4;
#X connect 28 0 20 0;
#X connect 29 0 28 1;
