#N canvas 725 22 574 500 10;
#X declare -path cyclone;
#X declare -path generics;
#X declare -path list-abs;
#X obj 18 133 cnv 10 125 10 empty empty empty 20 12 0 14 -261682 -66577
0;
#X obj 18 170 outlet~;
#X text 15 109 dummy;
#X obj 77 103 handlers/ntg_receive \$1;
#X obj 104 175 handlers/ntg_send \$1;
#X text 20 418 1.) initial argument: <float> unique id of the module
;
#X obj 74 209 outlet~;
#N canvas 440 333 480 411 sampler_______________________ 0;
#X obj 21 359 outlet~;
#X obj 22 165 cnv 10 164 10 empty empty empty 20 12 0 14 -261682 -66577
0;
#X obj 21 55 inlet;
#X text 24 37 dummy;
#X obj 109 55 inlet;
#X obj 279 55 inlet;
#X text 279 38 named parameter-messages;
#X text 109 38 init-bang;
#X obj 103 286 switch~;
#X obj 192 53 inlet;
#X text 192 36 fini-bang;
#X obj 251 363 outlet;
#X obj 21 202 handlers/stereo_generator \$0;
#X obj 21 237 handlers/stereo_module \$0 __;
#X obj 76 361 outlet~;
#N canvas 366 293 736 490 sampler____________________ 0;
#X obj 346 43 inlet;
#X obj 81 366 outlet~;
#X obj 138 41 inlet;
#X obj 362 367 outlet;
#X text 132 25 init-bang;
#X text 346 27 route parameters;
#X text 358 386 rejected parameters;
#X text 80 392 to post-processor;
#X obj 226 365 outlet;
#X text 214 402 init-bang;
#X text 131 12 from prev;
#X text 220 388 to next;
#X obj 18 43 inlet;
#X text 16 27 dummy;
#X obj 138 74 t b b;
#X obj 537 366 outlet;
#X text 533 385 output parameters;
#X obj 139 364 outlet~;
#X obj 268 99 declare -path cyclone;
#X obj 267 167 declare -path generics;
#X obj 268 144 declare -path list-abs;
#X obj 249 39 inlet;
#X text 236 13 fini bang;
#X obj 82 219 core/sampler~;
#X connect 0 0 23 0;
#X connect 2 0 14 0;
#X connect 14 0 8 0;
#X connect 21 0 23 1;
#X connect 23 0 1 0;
#X connect 23 1 17 0;
#X connect 23 2 3 0;
#X connect 23 3 15 0;
#X restore 21 162 pd sampler____________________;
#X connect 2 0 15 0;
#X connect 4 0 15 1;
#X connect 5 0 15 3;
#X connect 9 0 15 2;
#X connect 12 0 13 0;
#X connect 12 1 13 1;
#X connect 12 2 13 2;
#X connect 12 3 13 3;
#X connect 13 0 0 0;
#X connect 13 1 14 0;
#X connect 13 2 8 0;
#X connect 15 0 12 0;
#X connect 15 1 12 1;
#X connect 15 2 12 2;
#X connect 15 3 12 3;
#X connect 15 4 11 0;
#X restore 18 130 pd sampler_______________________;
#X text 257 293 Dag Henning Kalvøy \, 2011;
#X connect 3 0 7 1;
#X connect 3 1 7 2;
#X connect 3 2 7 3;
#X connect 7 0 1 0;
#X connect 7 1 6 0;
#X connect 7 2 4 0;
