#N canvas 7 31 1139 659 10;
#X obj 18 170 outlet~;
#X obj 77 103 handlers/ntg_receive \$1;
#X obj 104 175 handlers/ntg_send \$1;
#X text 20 518 1.) initial argument: <float> unique id of the module
;
#X text 728 415 unit [-] \, initial-value: - \, range: (0/1) \, displays
play state: 1 .. play \, 0 ... stop;
#X text 690 304 *********************************************************
;
#N canvas 39 36 672 458 simple_sampler_module______ 0;
#X obj 21 359 outlet~;
#X obj 109 55 inlet;
#X obj 279 55 inlet;
#X text 279 38 named parameter-messages;
#X text 109 38 init-bang;
#X obj 192 53 inlet;
#X text 192 36 fini-bang;
#X obj 258 367 outlet;
#X obj 110 284 switch~;
#X obj 20 109 handlers/mono_pre_processor \$0 __;
#X obj 20 197 handlers/mono_post_processor \$0 _;
#X obj 20 240 handlers/mono_module \$0 _________;
#X obj 21 55 inlet~;
#N canvas 265 93 644 648 simple_sampler_______________ 0;
#X obj 508 36 inlet;
#X obj 29 36 inlet~;
#X obj 29 538 outlet~;
#X obj 225 32 inlet;
#X obj 391 550 outlet;
#X text 219 16 init-bang;
#X text 508 20 route parameters;
#X text 387 569 rejected parameters;
#X text 27 20 from pre-processor;
#X text 28 564 to post-processor;
#X obj 265 549 outlet;
#X text 254 584 init-bang;
#X text 220 4 from prev.;
#X text 261 570 to next;
#X obj 225 59 t b b;
#X obj 356 30 inlet;
#X obj 555 544 outlet;
#X text 550 568 output parameters;
#X obj 35 286 core/simple_sampler~;
#X text 356 14 fini-bang;
#X connect 0 0 18 3;
#X connect 1 0 18 0;
#X connect 3 0 14 0;
#X connect 14 0 10 0;
#X connect 14 1 18 1;
#X connect 18 0 2 0;
#X connect 18 1 4 0;
#X connect 18 2 16 0;
#X restore 85 153 pd simple_sampler_______________;
#X connect 1 0 9 1;
#X connect 2 0 9 2;
#X connect 5 0 13 2;
#X connect 9 0 10 0;
#X connect 9 1 13 0;
#X connect 9 2 13 1;
#X connect 9 3 13 3;
#X connect 10 0 11 0;
#X connect 10 1 11 1;
#X connect 10 2 11 2;
#X connect 11 0 0 0;
#X connect 11 1 8 0;
#X connect 12 0 9 0;
#X connect 13 0 10 1;
#X connect 13 1 10 2;
#X connect 13 2 10 3;
#X connect 13 3 7 0;
#X restore 18 135 pd simple_sampler_module______;
#X text 724 31 unit [sec] \, initial-value: 600 \, range: (1..3600)
\, maximum;
#X text 724 44 record or play time of a table in seconds.;
#X text 724 98 initial-value: -0 \, range: (0/1) \, starts and stops
;
#X text 724 111 the recording of an input signal to the table.;
#X text 724 161 initial-value: -0 \, range: (0/1) \, starts and stops
;
#X text 724 174 the playing back of the table content to output.;
#X text 283 93 1 data out ports;
#X text 282 60 1 signal out port;
#X text 282 44 1 signal in port;
#X text 258 16 simple sample player: signal recording and playback
module with one table as sample storage.;
#X text 274 137 1.) parameter: "active" \, type: <bool> \, unit [-]
;
#X text 304 167 description: switches the module on and off from DSP
tree;
#X text 304 340 description: switches a bypass path in parallel;
#X text 314 354 to the processor on and off;
#X text 303 406 description: mutes the effect way of the processor
;
#X text 304 455 description: makes a mix of the effected signal (wet
= 1);
#X text 314 470 and the input signal (dry = 0);
#X text 304 223 description: multiplies the incoming signal with this
value;
#X text 314 238 before it is going further to effect input;
#X text 304 288 description: multiplies the signal from effect output
;
#X text 304 152 initial-value: 1 \, range: (0/1) \, class: module;
#X text 304 273 initial-value: 1 \, range: (0...4) \, class: processor
;
#X text 304 208 initial-value: 1 \, range: (0...4) \, class: processor
;
#X text 304 325 initial-value: 0 \, range: (0/1) \, class: processor
;
#X text 304 390 initial-value: 0 \, range: (0/1) \, class: processor
;
#X text 304 440 initial-value: 1 \, range: (0...1) \, class: processor
;
#X text 276 310 4.) parameter: "bypass" \, type: <bool> \, unit [-]
;
#X text 274 376 5.) parameter: "mute" \, type: <bool> \, unit [-];
#X text 274 425 6.) parameter: "mix" \, type: <float> \, unit [-];
#X text 275 258 3.) parameter: "outLevel" \, type: <float> \, unit
[-];
#X text 274 193 2.) parameter: "inLevel" \, type: <float> \, unit [-]
;
#X text 694 83 8.) in parameter: "rec" \, type: <int> \, unit [-];
#X text 694 146 9.) in parameter: "play" \, type: <int> \, unit [-]
;
#X obj 18 72 inlet~;
#X text 698 339 1.) out parameter: "rec" \, type: <int>;
#X text 698 399 2.) out parameter: "play" \, type: <int>;
#X text 312 549 Thomas Musil \, 22.09.2010;
#X text 728 355 unit [-] \, initial-value: - \, range: (0/1) \, displays
rec state: 1 .. rec \, 0 ... stop;
#X text 694 16 7.) in parameter: "recLength" \, type: <float>;
#X text 700 455 3.) out parameter: "pos" \, type: <float>;
#X text 730 471 unit [-] \, initial-value: - \, range: (0..1) \, displays
relativly playback position;
#X text 694 205 10.) in parameter: "loop" \, type: <int> \, unit [-]
;
#X text 724 233 the playback after reaching the end.;
#X text 724 220 initial-value: -0 \, range: (0/1) \, if loop = 1: restarts
;
#X text 283 77 10 data in ports;
#X connect 1 0 6 1;
#X connect 1 1 6 2;
#X connect 1 2 6 3;
#X connect 6 0 0 0;
#X connect 6 1 2 0;
#X connect 40 0 6 0;
