#N canvas 331 81 759 526 10;
#X text 253 41 1 signal out port;
#X text 266 87 1.) parameter: "active" \, type: <bool> \, unit [-]
;
#X text 296 117 description: switches the module on and off from DSP
tree;
#X text 296 102 initial-value: 1 \, range: (0/1) \, class: module;
#X obj 19 129 cnv 10 125 10 empty empty empty 20 12 0 14 -261682 -66577
0;
#X text 253 14 sine: sinus oscillator reading out a cosine lookup table
;
#X obj 18 170 outlet~;
#X text 288 225 description: mutes the effect way of the processor
;
#X text 289 171 description: multiplies the signal from effect output
;
#X text 289 156 initial-value: 1 \, range: (0...4) \, class: generator
;
#X text 289 209 initial-value: 0 \, range: (0/1) \, class: generator
;
#X text 289 265 initial-value: 0 rad \, range: (0...2*pi) \, class:
oscillator;
#X text 288 281 description: the read out vector of the lookup table
;
#X text 299 296 will be set at this time to this value (if zero is
the;
#X text 298 311 beginning and 2*pi is the end of the table);
#X text 309 469 value to the target value;
#X text 259 250 4.) parameter: "phase" \, type: <float> \, unit [rad]
;
#X text 259 194 3.) parameter: "mute" \, type: <bool> \, unit [-];
#X text 290 425 unit [sec] \, initial-value: 0.05 \, range: (0..10
sec);
#X text 290 440 class: oscillator \, description: defines the ramp
time;
#X text 305 454 (portamento time) of a signal value from the current
;
#X text 338 501 Thomas Musil \, 11.11.2009;
#X text 253 57 6 data in ports;
#X text 260 141 2.) parameter: "outLevel" \, type: <float> \, unit
[-];
#X text 260 410 6.) parameter: "portamentoTime" \, type: <float>;
#X text 259 340 5.) parameter: "frequency" \, type: <float> \, unit
[Hz];
#X text 289 355 initial-value: 440 Hz \, range: (20...20000 Hz);
#X text 288 371 class: oscillator \, description: is the value \, how
many;
#X text 299 386 times per second the lookup table will be read out
;
#N canvas 354 107 403 419 sine_module______________ 0;
#X obj 21 359 outlet~;
#X obj 88 292 switch~;
#X obj 22 165 cnv 10 164 10 empty empty empty 20 12 0 14 -261682 -66577
0;
#N canvas 349 294 589 458 sine______________________ 0;
#X obj 375 37 inlet;
#X obj 19 368 outlet~;
#X obj 233 37 inlet;
#X obj 362 367 outlet;
#X text 227 21 init-bang;
#X text 375 21 route parameters;
#X text 358 386 rejected parameters;
#X text 18 394 to post-processor;
#X obj 226 365 outlet;
#X text 214 402 init-bang;
#X text 226 8 from prev;
#X text 220 388 to next;
#X obj 18 43 inlet~;
#X obj 19 333 cos~;
#X obj 120 41 inlet;
#X text 123 21 dummy;
#X text 56 331 lookup table;
#X connect 0 0 3 0;
#X connect 2 0 8 0;
#X connect 12 0 13 0;
#X connect 13 0 1 0;
#X restore 21 162 pd sine______________________;
#X obj 92 27 inlet;
#X obj 253 30 inlet;
#X text 253 13 named parameter-messages;
#X text 92 10 init-bang;
#X text 19 7 dummy;
#X obj 20 25 inlet;
#X obj 21 204 handlers/mono_generator;
#X obj 21 247 handlers/mono_module __;
#X obj 174 28 inlet;
#X text 174 11 fini-bang;
#X obj 22 121 handlers/mono_oscillator;
#X connect 3 0 10 0;
#X connect 3 1 10 1;
#X connect 3 2 10 2;
#X connect 4 0 14 1;
#X connect 5 0 14 2;
#X connect 9 0 14 0;
#X connect 10 0 11 0;
#X connect 10 1 11 1;
#X connect 10 2 11 2;
#X connect 11 0 0 0;
#X connect 11 1 1 0;
#X connect 14 0 3 0;
#X connect 14 2 3 2;
#X connect 14 3 3 3;
#X restore 18 126 pd sine_module______________;
#X obj 110 93 handlers/ntg_receive;
#X text 14 487 1.) initial argument: <float> unique id of the module
;
#X connect 29 0 6 0;
#X connect 30 0 29 1;
#X connect 30 1 29 2;
#X connect 30 2 29 3;
