#N canvas 367 448 503 542 10;
#X obj 231 294 sel;
#X obj 160 248 f;
#X obj 160 116 tgl 15 0 empty empty empty 17 7 0 10 -262144 -1 -1 0
1;
#X floatatom 161 391 5 0 0 0 - - -;
#X floatatom 208 391 5 0 0 0 - - -;
#X obj 160 145 sel 1 0;
#X msg 111 250 -1;
#X obj 231 352 f;
#X text 104 115 GUI: fix;
#X text 61 390 GUI: fixed note;
#X text 247 391 GUI: velocity;
#X obj 263 61 inlet;
#X obj 320 61 inlet;
#X obj 160 60 inlet;
#X text 252 40 note#;
#X text 314 41 velosity;
#X text 155 41 fix;
#X obj 161 485 outlet;
#X obj 160 88 route fix\$1 fixNote\$1;
#X obj 111 221 del 300;
#X obj 208 448 cyclone/sprintf velOut\$1 %f;
#X obj 161 420 cyclone/sprintf fixNote\$1 %f;
#X connect 0 0 7 0;
#X connect 1 0 0 1;
#X connect 1 0 3 0;
#X connect 2 0 5 0;
#X connect 3 0 21 0;
#X connect 4 0 20 0;
#X connect 5 0 1 0;
#X connect 5 1 6 0;
#X connect 5 1 4 0;
#X connect 5 1 19 0;
#X connect 6 0 1 0;
#X connect 6 0 0 1;
#X connect 6 0 4 0;
#X connect 7 0 4 0;
#X connect 11 0 1 1;
#X connect 11 0 0 0;
#X connect 12 0 7 1;
#X connect 13 0 18 0;
#X connect 18 0 2 0;
#X connect 18 1 0 1;
#X connect 19 0 6 0;
#X connect 20 0 17 0;
#X connect 21 0 17 0;
