#N canvas 116 38 382 342 10;
#X obj 17 179 cnv 10 135 10 empty empty empty 20 12 0 14 -261682 -66577
0;
#X obj 15 124 inlet~;
#X obj 16 232 outlet~;
#X obj 90 127 handlers/ntg_receive \$1;
#X obj 157 208 handlers/ntg_send \$1;
#N canvas 494 74 494 405 slicer_module________ 0;
#X obj 17 8 inlet~;
#X obj 17 345 outlet~;
#X obj 82 292 switch~;
#X obj 96 25 inlet;
#X obj 243 28 inlet;
#X text 243 11 named parameter-messages;
#X text 96 8 init-bang;
#X obj 165 26 inlet;
#X text 165 9 fini-bang;
#X obj 17 104 handlers/mono_pre_processor \$0 __;
#X obj 320 309 outlet;
#N canvas 583 60 570 410 slicer_________ 0;
#X obj 351 33 inlet;
#X obj 18 31 inlet~;
#X obj 18 247 outlet~;
#X obj 167 39 inlet;
#X obj 238 243 outlet;
#X text 161 23 init-bang;
#X text 351 17 route parameters;
#X text 234 262 rejected parameters;
#X text 18 9 from pre-processor;
#X text 51 267 to post-processor;
#X obj 168 240 outlet;
#X text 157 275 init-bang;
#X text 162 11 from prev.;
#X text 164 261 to next;
#X obj 168 72 t b b;
#X obj 252 39 inlet;
#X text 246 23 fini-bang;
#X obj 361 243 outlet;
#X text 357 262 output parameters;
#X obj 17 186 core/slicer~ _________________________;
#X connect 0 0 19 3;
#X connect 1 0 19 0;
#X connect 3 0 14 0;
#X connect 14 0 10 0;
#X connect 14 1 19 1;
#X connect 15 0 19 2;
#X connect 19 0 2 0;
#X connect 19 1 4 0;
#X connect 19 2 17 0;
#X restore 89 150 pd slicer_________;
#X obj 17 195 handlers/mono_post_processor \$0 _;
#X obj 17 242 handlers/mono_module \$0 _________;
#X connect 0 0 9 0;
#X connect 3 0 9 1;
#X connect 4 0 9 2;
#X connect 7 0 11 2;
#X connect 9 0 12 0;
#X connect 9 1 11 0;
#X connect 9 2 11 1;
#X connect 9 3 11 3;
#X connect 11 0 12 1;
#X connect 11 1 12 2;
#X connect 11 2 12 3;
#X connect 11 3 10 0;
#X connect 12 0 13 0;
#X connect 12 1 13 1;
#X connect 12 2 13 2;
#X connect 13 0 1 0;
#X connect 13 1 2 0;
#X restore 16 176 pd slicer_module________;
#X connect 1 0 5 0;
#X connect 3 0 5 1;
#X connect 3 1 5 2;
#X connect 3 2 5 3;
#X connect 5 0 2 0;
#X connect 5 1 4 0;
