#N canvas 69 62 1114 536 10;
#X text 283 40 1 signal out port;
#X text 258 96 1.) parameter: "active" \, type: <bool> \, unit [-]
;
#X text 288 126 description: switches the module on and off from DSP
tree;
#X text 287 233 description: mutes the effect way of the processor
;
#X text 288 179 description: multiplies the signal from effect output
;
#X text 288 111 initial-value: 1 \, range: (0/1) \, class: module;
#X obj 18 133 cnv 10 125 10 empty empty empty 20 12 0 14 -261682 -66577
0;
#X text 288 164 initial-value: 1 \, range: (0...4) \, class: generator
;
#X text 288 217 initial-value: 0 \, range: (0/1) \, class: generator
;
#X obj 18 170 outlet~;
#X text 15 109 dummy;
#X text 259 149 2.) parameter: "outLevel" \, type: <float> \, unit
[-];
#X text 258 202 3.) parameter: "mute" \, type: <bool> \, unit [-];
#X obj 77 103 handlers/ntg_receive \$1;
#N canvas 443 252 480 411 soundfile_player_module______ 0;
#X obj 21 359 outlet~;
#X obj 22 165 cnv 10 164 10 empty empty empty 20 12 0 14 -261682 -66577
0;
#X obj 21 55 inlet;
#X text 24 37 dummy;
#X obj 109 55 inlet;
#X obj 279 55 inlet;
#X text 279 38 named parameter-messages;
#X text 109 38 init-bang;
#X obj 93 275 switch~;
#X obj 21 202 handlers/mono_generator \$0;
#X obj 21 237 handlers/mono_module \$0 __;
#X obj 192 53 inlet;
#X text 192 36 fini-bang;
#X obj 251 363 outlet;
#N canvas 366 293 736 490 soundfile_player____________________ 0;
#X obj 280 41 inlet;
#X obj 19 368 outlet~;
#X obj 138 41 inlet;
#X obj 362 367 outlet;
#X text 132 25 init-bang;
#X text 280 25 route parameters;
#X text 358 386 rejected parameters;
#X text 18 394 to post-processor;
#X obj 226 365 outlet;
#X text 214 402 init-bang;
#X text 131 12 from prev;
#X text 220 388 to next;
#X obj 18 43 inlet;
#X text 16 27 dummy;
#X obj 82 219 core/mono_soundfile_player~;
#X obj 138 74 t b b;
#X obj 537 366 outlet;
#X text 533 385 output parameters;
#X connect 0 0 14 0;
#X connect 2 0 15 0;
#X connect 14 0 1 0;
#X connect 14 1 3 0;
#X connect 14 2 16 0;
#X connect 15 0 8 0;
#X connect 15 1 14 1;
#X restore 21 162 pd soundfile_player____________________;
#X connect 2 0 14 0;
#X connect 4 0 14 1;
#X connect 5 0 14 2;
#X connect 9 0 10 0;
#X connect 9 1 10 1;
#X connect 9 2 10 2;
#X connect 10 0 0 0;
#X connect 10 1 8 0;
#X connect 14 0 9 0;
#X connect 14 1 9 1;
#X connect 14 2 9 2;
#X connect 14 3 13 0;
#X restore 18 130 pd soundfile_player_module______;
#X text 703 126 the soundfile storage for playing back.;
#X text 284 341 initial-value: - \, range: - \, loads the soundfile
;
#X text 284 354 content from harddisk into the previously selected
pd array.;
#X text 701 178 unit [-] \, initial-value: 0.1 \, range: (0 ... 1)
;
#X text 711 202 (0 .. begin of sample \, 1 .. end of sample).;
#X text 711 190 relative value of position in playback sample.;
#X text 284 274 unit [-] \, initial-value: 1 \, range: (1..20) \, selects
;
#X text 284 287 the soundfile storage for loading a sound.;
#X text 703 113 unit [-] \, initial-value: 1 \, range: (1..20) \, selects
;
#X text 312 469 Thomas Musil \, 16.04.2010;
#X text 258 16 soundfile-player: sound playback from a pool of 20 sounds
;
#X text 709 264 unit [-] \, initial-value: 0 \, range: (0/1) \, starts
the;
#X text 709 278 playback of a sound with 1 \, stops the sound with
0;
#X obj 104 175 handlers/ntg_send \$1;
#X text 20 418 1.) initial argument: <float> unique id of the module
;
#X text 723 385 (0 .. begin of sample \, 1 .. end of sample).;
#X text 681 341 1.) out parameter: "relPosition" \, type: <float>;
#X text 686 416 2.) out parameter: "play" \, type: <int>;
#X text 716 432 unit [-] \, initial-value: - \, range: (0/1) \, displays
play state: 1 .. play \, 0 ... stop;
#X text 711 356 unit [-] \, initial-value: - \, range: (0 ... 1) \,
displays the progress of relative position in playback sample.;
#X text 254 259 4.) in parameter: "selLoadSoundIndex" \, type: <float>
;
#X text 254 326 5.) in parameter: "loadSound" \, type: <symbol> \,
unit [-];
#X text 672 98 6.) in parameter: "selPlaybackSoundIndex" \, type: <float>
;
#X text 671 163 7.) in parameter: "relPosition" \, type: <float>;
#X text 679 249 8.) in parameter: "play" \, type: <int>;
#X text 283 57 8 data in ports;
#X text 283 73 2 data out ports;
#X text 670 311 *********************************************************
;
#X connect 13 0 14 1;
#X connect 13 1 14 2;
#X connect 13 2 14 3;
#X connect 14 0 9 0;
#X connect 14 1 28 0;
