#N canvas 247 107 365 284 10;
#X obj 18 141 cnv 10 135 10 empty empty empty 20 12 0 14 -261682 -66577
0;
#X obj 17 91 inlet~;
#X obj 17 170 outlet~;
#X obj 110 93 handlers/ntg_receive \$1;
#N canvas 621 85 714 386 spectral_freeze_module________ 0;
#X obj 17 345 outlet~;
#X obj 107 274 switch~;
#X obj 108 148 cnv 10 164 10 empty empty empty 20 12 0 14 -261682 -66577
0;
#X obj 128 28 inlet;
#X obj 17 25 inlet~;
#X obj 313 26 inlet;
#X text 313 9 named parameter-messages;
#X text 128 11 init-bang;
#X obj 17 99 handlers/mono_pre_processor \$0 __;
#X obj 17 187 handlers/mono_post_processor \$0 _;
#X obj 17 230 handlers/mono_module \$0 _________;
#X obj 229 31 inlet;
#X text 229 14 fini-bang;
#N canvas 366 291 797 509 spectral_freeze______________ 0;
#X obj 280 29 inlet;
#X obj 18 31 inlet~;
#X obj 18 413 outlet~;
#X obj 179 31 inlet;
#X obj 380 425 outlet;
#X text 173 15 init-bang;
#X text 280 13 route parameters;
#X text 376 444 rejected parameters;
#X text 16 15 from pre-processor;
#X text 17 439 to post-processor;
#X obj 254 424 outlet;
#X text 243 459 init-bang;
#X text 174 3 from prev.;
#X text 250 445 to next;
#X obj 18 372 core/spectral_freeze~ 4096;
#X obj 279 57 route freeze clear windowSize;
#X msg 336 103 0;
#X msg 279 104 1;
#X connect 0 0 15 0;
#X connect 1 0 14 0;
#X connect 3 0 10 0;
#X connect 3 0 14 1;
#X connect 3 0 16 0;
#X connect 14 0 2 0;
#X connect 15 0 17 0;
#X connect 15 1 16 0;
#X connect 15 3 4 0;
#X connect 16 0 14 2;
#X connect 17 0 14 2;
#X restore 107 145 pd spectral_freeze______________;
#X obj 179 59 bng 15 250 50 0 empty empty empty 17 7 0 10 -262144 -1
-1;
#X connect 3 0 8 1;
#X connect 4 0 8 0;
#X connect 5 0 8 2;
#X connect 8 0 9 0;
#X connect 8 1 13 0;
#X connect 8 2 13 1;
#X connect 8 3 13 2;
#X connect 9 0 10 0;
#X connect 9 1 10 1;
#X connect 9 2 10 2;
#X connect 10 0 0 0;
#X connect 10 1 1 0;
#X connect 13 0 9 1;
#X connect 13 1 9 2;
#X connect 13 2 9 3;
#X connect 14 0 8 1;
#X restore 17 138 pd spectral_freeze_module________;
#X connect 1 0 4 0;
#X connect 3 0 4 1;
#X connect 3 1 4 2;
#X connect 3 2 4 3;
#X connect 4 0 2 0;
