#N canvas 39 22 1193 693 10;
#X text 313 53 1 signal out port;
#X text 326 99 1.) parameter: "active" \, type: <bool> \, unit [-]
;
#X text 356 129 description: switches the module on and off from DSP
tree;
#X text 356 298 description: switches a bypass path in parallel;
#X text 366 312 to the processor on and off;
#X text 355 364 description: mutes the effect way of the processor
;
#X text 356 413 description: makes a mix of the effected signal (wet
= 1);
#X text 366 428 and the input signal (dry = 0);
#X text 356 181 description: multiplies the incoming signal with this
value;
#X text 366 196 before it is going further to effect input;
#X text 356 246 description: multiplies the signal from effect output
;
#X text 356 114 initial-value: 1 \, range: (0/1) \, class: module;
#X text 356 231 initial-value: 1 \, range: (0...4) \, class: processor
;
#X text 356 166 initial-value: 1 \, range: (0...4) \, class: processor
;
#X text 356 283 initial-value: 0 \, range: (0/1) \, class: processor
;
#X text 356 348 initial-value: 0 \, range: (0/1) \, class: processor
;
#X text 356 398 initial-value: 1 \, range: (0...1) \, class: processor
;
#X obj 30 150 cnv 10 135 10 empty empty empty 20 12 0 14 -261682 -66577
0;
#X obj 27 98 inlet~;
#X obj 27 177 outlet~;
#X text 326 382 6.) parameter: "mix" \, type: <float> \, unit [-];
#X text 326 333 5.) parameter: "mute" \, type: <bool> \, unit [-];
#X text 328 268 4.) parameter: "bypass" \, type: <bool> \, unit [-]
;
#X text 326 151 2.) parameter: "inLevel" \, type: <float> \, unit [-]
;
#X text 327 216 3.) parameter: "outLevel" \, type: <float> \, unit
[-];
#X obj 153 97 handlers/ntg_receive \$1;
#X text 314 14 ringmodulator: multiplies 2 signals and produces AM
;
#X obj 77 98 inlet~;
#X text 415 639 Thomas Musil \, 15.04.2010;
#N canvas 66 79 714 386 spectralvocoder_module_____________ 0;
#X obj 17 345 outlet~;
#X obj 108 148 cnv 10 164 10 empty empty empty 20 12 0 14 -261682 -66577
0;
#X obj 200 29 inlet;
#X obj 17 25 inlet~;
#X obj 383 29 inlet;
#X text 383 12 named parameter-messages;
#X text 200 12 init-bang;
#X obj 69 292 switch~;
#X obj 285 28 inlet;
#X text 285 11 fini-bang;
#X obj 107 25 inlet~;
#X obj 17 99 handlers/stereo_pre_processor \$0 __;
#X obj 17 187 handlers/mono_post_processor \$0 _;
#X obj 17 230 handlers/mono_module \$0 _________;
#N canvas 49 40 695 453 spectralvocoder___________ 0;
#X obj 500 29 inlet;
#X obj 18 31 inlet~;
#X obj 24 338 outlet~;
#X obj 229 31 inlet;
#X obj 350 343 outlet;
#X text 223 15 init-bang;
#X text 500 13 route parameters;
#X text 346 362 rejected parameters;
#X text 16 15 from pre-processor;
#X text 23 364 to post-processor;
#X obj 237 346 outlet;
#X text 226 381 init-bang;
#X text 224 3 from prev.;
#X text 233 367 to next;
#X obj 98 32 inlet~;
#X obj 229 57 t b b;
#X obj 175 169 core/spectral_vocoder~;
#X obj 521 337 outlet;
#X text 517 356 outgoing parameters;
#X obj 343 37 inlet;
#X text 337 21 fini-bang;
#X connect 0 0 16 4;
#X connect 1 0 16 0;
#X connect 3 0 15 0;
#X connect 14 0 16 1;
#X connect 15 0 10 0;
#X connect 15 1 16 2;
#X connect 16 0 2 0;
#X connect 16 1 4 0;
#X connect 16 2 17 0;
#X connect 19 0 16 3;
#X restore 83 145 pd spectralvocoder___________;
#X obj 314 341 outlet;
#N canvas 0 22 613 651 join_datadir 0;
#X obj 233 116 symbol;
#X obj 233 386 makefilename %s%s;
#X obj 232 340 symbol;
#X obj 232 298 unpack s s;
#X obj 232 270 generics/symbol_buddy;
#X obj 347 115 symbol;
#X msg 289 345 set \$1%s;
#X obj 235 25 inlet;
#X obj 234 59 route loadSound dataDirectory;
#X obj 233 429 list prepend loadSound;
#X obj 234 495 outlet;
#X obj 406 472 outlet;
#X obj 236 470 list trim;
#X connect 0 0 4 0;
#X connect 1 0 9 0;
#X connect 2 0 1 0;
#X connect 3 0 2 0;
#X connect 3 1 6 0;
#X connect 4 0 3 0;
#X connect 5 0 4 1;
#X connect 6 0 1 0;
#X connect 7 0 8 0;
#X connect 8 0 0 0;
#X connect 8 1 5 0;
#X connect 8 2 11 0;
#X connect 9 0 12 0;
#X connect 12 0 10 0;
#X restore 309 57 pd join_datadir;
#X connect 2 0 11 2;
#X connect 3 0 11 0;
#X connect 4 0 16 0;
#X connect 8 0 14 3;
#X connect 10 0 11 1;
#X connect 11 0 12 0;
#X connect 11 2 14 0;
#X connect 11 3 14 1;
#X connect 11 4 14 2;
#X connect 11 5 14 4;
#X connect 12 0 13 0;
#X connect 12 1 13 1;
#X connect 12 2 13 2;
#X connect 13 0 0 0;
#X connect 13 1 7 0;
#X connect 14 0 12 1;
#X connect 14 1 12 2;
#X connect 14 2 12 3;
#X connect 14 3 15 0;
#X connect 16 0 11 3;
#X connect 16 1 11 3;
#X restore 27 145 pd spectralvocoder_module_____________;
#X text 799 320 the soundfile storage for playing back.;
#X text 799 101 unit [sec] \, initial-value: 10 \, range: (0.1..90)
\, resizes;
#X text 353 532 initial-value: - \, range: - \, loads the soundfile
;
#X text 353 545 content from harddisk into the previously selected
pd array.;
#X text 799 114 the previously selected pd array (soundfile storage).
;
#X text 799 233 unit [-] \, initial-value: - \, range: - \, records
sound;
#X text 799 246 from signal input to the previously selected pd array
(soundfile storage).;
#X text 353 465 unit [-] \, initial-value: 1 \, range: (1..5) \, selects
;
#X text 799 307 unit [-] \, initial-value: 1 \, range: (1..5) \, selects
;
#X text 799 369 unit [-] \, initial-value: 0.1 \, range: (0 ... 1)
;
#X text 809 393 (0 .. begin of sample \, 1 .. end of sample).;
#X text 323 450 7.) parameter: "selEditSoundIndex" \, type: <float>
;
#X text 323 517 8.) parameter: "loadSound" \, type: <symbol> \, unit
[-];
#X text 769 86 9.) parameter: "resizeSound" \, type: <float>;
#X text 809 381 relative value of position in playback sample.;
#X text 769 354 13.) parameter: "relPosition" \, type: <float>;
#X text 769 292 12.) parameter: "selPlaybackSoundIndex" \, type: <float>
;
#X text 769 218 11.) parameter: "recSound" \, type: <void>;
#X text 353 478 the soundfile storage for editing like loading \, resizing
\, recording \, normalizing.;
#X text 769 143 10.) parameter: "normSound" \, type: <void>;
#X text 799 158 unit [-] \, initial-value: - \, range: - \, normalizes
the;
#X text 799 172 previously selected pd array (soundfile storage).;
#X text 768 426 14.) parameter: "squelchThreshold" \, type: <float>
;
#X text 798 441 unit [dB] \, initial-value: -40 \, range: (-100 ...
0);
#X text 808 453 clipping threshold;
#X text 312 69 14 data in ports;
#X text 313 37 2 signal in port;
#X text 14 578 1.) initial argument: <float> unique id of the module
;
#X obj 122 180 handlers/ntg_send \$1;
#X connect 18 0 29 0;
#X connect 25 0 29 2;
#X connect 25 1 29 3;
#X connect 25 2 29 4;
#X connect 27 0 29 1;
#X connect 29 0 19 0;
#X connect 29 1 58 0;
