#N canvas 81 269 501 413 10;
#X obj 58 173 cnv 10 125 10 empty empty empty 20 12 0 14 -261682 -66577
0;
#X obj 58 210 outlet~;
#X obj 155 143 handlers/ntg_receive \$1;
#N canvas 444 252 480 411 soundfile_player_module______ 0;
#X obj 21 359 outlet~;
#X obj 22 165 cnv 10 164 10 empty empty empty 20 12 0 14 -261682 -66577
0;
#X obj 133 60 inlet;
#X obj 279 55 inlet;
#X text 279 38 named parameter-messages;
#X text 133 43 init-bang;
#X obj 103 282 switch~;
#X obj 216 58 inlet;
#X text 216 41 fini-bang;
#X obj 251 363 outlet;
#N canvas 369 147 736 490 soundfile_player____________________ 0;
#X obj 280 41 inlet;
#X obj 19 368 outlet~;
#X obj 138 41 inlet;
#X obj 362 367 outlet;
#X text 132 25 init-bang;
#X text 280 25 route parameters;
#X text 358 386 rejected parameters;
#X text 18 394 to post-processor;
#X obj 226 365 outlet;
#X text 214 402 init-bang;
#X text 131 12 from prev;
#X text 220 388 to next;
#X obj 138 74 t b b;
#X obj 537 366 outlet;
#X text 533 385 output parameters;
#X obj 18 43 inlet~;
#N canvas 0 22 709 340 soundFilePlayerRecord_module 0;
#X obj 38 238 outlet~;
#X obj 38 30 inlet~;
#X obj 233 31 inlet parameters;
#X obj 375 27 inlet init;
#X obj 340 238 outlet output_parameters;
#X obj 515 240 outlet rejected_parameters;
#X obj 38 89 core/stereoSoundfilePlayerRecorder~ \$0 One;
#X obj 125 238 outlet~;
#X obj 120 30 inlet~;
#X obj 76 114 core/stereoSoundfilePlayerRecorder~ \$0 Two;
#X obj 114 140 core/stereoSoundfilePlayerRecorder~ \$0 Three;
#X obj 139 172 core/stereoSoundfilePlayerRecorder~ \$0 Four;
#X obj 168 200 core/stereoSoundfilePlayerRecorder~ \$0 Five;
#X connect 1 0 6 0;
#X connect 1 0 9 0;
#X connect 1 0 10 0;
#X connect 1 0 11 0;
#X connect 1 0 12 0;
#X connect 2 0 6 2;
#X connect 2 0 9 2;
#X connect 2 0 10 2;
#X connect 2 0 11 2;
#X connect 2 0 12 2;
#X connect 3 0 6 3;
#X connect 3 0 9 3;
#X connect 3 0 10 3;
#X connect 3 0 11 3;
#X connect 3 0 12 3;
#X connect 6 0 0 0;
#X connect 6 1 7 0;
#X connect 6 2 4 0;
#X connect 6 3 5 0;
#X connect 8 0 6 1;
#X connect 8 0 9 1;
#X connect 8 0 10 1;
#X connect 8 0 11 1;
#X connect 8 0 12 1;
#X connect 9 0 0 0;
#X connect 9 1 7 0;
#X connect 9 2 4 0;
#X connect 9 3 5 0;
#X connect 10 0 0 0;
#X connect 10 1 7 0;
#X connect 10 2 4 0;
#X connect 10 3 5 0;
#X connect 11 0 0 0;
#X connect 11 1 7 0;
#X connect 11 2 4 0;
#X connect 11 3 5 0;
#X connect 12 0 0 0;
#X connect 12 1 7 0;
#X connect 12 2 4 0;
#X connect 12 3 5 0;
#X restore 64 174 pd soundFilePlayerRecord_module;
#X obj 125 366 outlet~;
#X obj 81 43 inlet~;
#X connect 0 0 16 2;
#X connect 2 0 12 0;
#X connect 12 0 8 0;
#X connect 12 1 16 3;
#X connect 15 0 16 0;
#X connect 16 0 1 0;
#X connect 16 1 17 0;
#X connect 16 2 13 0;
#X connect 16 3 3 0;
#X connect 18 0 16 1;
#X restore 21 162 pd soundfile_player____________________;
#X obj 21 55 inlet~;
#X obj 21 237 handlers/stereo_module \$0 __;
#X obj 80 360 outlet~;
#X obj 76 56 inlet~;
#X connect 2 0 10 2;
#X connect 3 0 10 3;
#X connect 10 0 12 0;
#X connect 10 1 12 1;
#X connect 10 2 12 2;
#X connect 10 3 12 3;
#X connect 10 4 9 0;
#X connect 11 0 10 0;
#X connect 12 0 0 0;
#X connect 12 1 13 0;
#X connect 12 2 6 0;
#X connect 14 0 10 1;
#X restore 58 170 pd soundfile_player_module______;
#X obj 57 131 inlet~;
#X text 52 338 J.R. Dooley 2011 \, Birmingham Conservatoire;
#X obj 153 220 outlet~;
#X obj 105 131 inlet~;
#X obj 290 253 handlers/ntg_send \$1;
#X obj 247 212 route int other;
#X obj 247 281 handlers/ntg_send_int \$1;
#X connect 2 0 3 2;
#X connect 2 1 3 3;
#X connect 2 2 3 4;
#X connect 3 0 1 0;
#X connect 3 1 6 0;
#X connect 3 2 9 0;
#X connect 4 0 3 0;
#X connect 7 0 3 1;
#X connect 9 0 10 0;
#X connect 9 1 8 0;
