#N canvas 606 43 501 413 10;
#X obj 58 173 cnv 10 125 10 empty empty empty 20 12 0 14 -261682 -66577
0;
#X obj 58 210 outlet~;
#X obj 58 132 handlers/ntg_receive \$1;
#X obj 245 212 handlers/ntg_send \$1;
#X obj 152 211 outlet~;
#N canvas 842 256 480 411 soundfile_trigger_module______ 1;
#X obj 21 359 outlet~;
#X obj 22 165 cnv 10 164 10 empty empty empty 20 12 0 14 -261682 -66577
0;
#X obj 133 60 inlet;
#X obj 279 55 inlet;
#X text 279 38 named parameter-messages;
#X text 133 43 init-bang;
#X obj 103 282 switch~;
#X obj 216 58 inlet;
#X text 216 41 fini-bang;
#X obj 251 363 outlet;
#X obj 21 237 handlers/stereo_module \$0 __;
#X obj 80 360 outlet~;
#X obj 21 206 handlers/stereo_generator \$0 __;
#N canvas 388 305 736 490 soundfile_trigger____________________ 1;
#X obj 280 41 inlet;
#X obj 19 368 outlet~;
#X obj 138 41 inlet;
#X obj 362 367 outlet;
#X text 132 25 init-bang;
#X text 280 25 route parameters;
#X text 358 386 rejected parameters;
#X text 18 394 to post-processor;
#X obj 226 365 outlet;
#X text 214 402 init-bang;
#X text 131 12 from prev;
#X text 220 388 to next;
#X obj 138 74 t b b;
#X obj 537 366 outlet;
#X text 533 385 output parameters;
#X obj 125 366 outlet~;
#N canvas 727 140 750 668 soundFileTrigger_module 0;
#X obj 230 613 outlet~;
#X obj 233 31 inlet parameters;
#X obj 375 27 inlet init;
#X obj 436 263 outlet output_parameters;
#X obj 611 265 outlet rejected_parameters;
#X obj 285 612 outlet~;
#X msg 231 530 open \$1;
#X obj 317 170 symbol;
#X obj 290 120 t b b;
#X obj 231 559 readsf~ 2;
#X obj 233 116 symbol;
#X obj 233 79 route load play dataDirectory;
#X obj 233 386 makefilename %s%s;
#X obj 232 340 symbol;
#X obj 232 298 unpack s s;
#X obj 232 270 generics/symbol_buddy;
#X obj 347 115 symbol;
#X msg 289 345 set \$1%s;
#X msg 233 451 stop;
#X msg 290 145 start;
#X obj 233 423 t b a;
#X connect 1 0 11 0;
#X connect 6 0 9 0;
#X connect 7 0 6 0;
#X connect 8 0 19 0;
#X connect 8 1 7 0;
#X connect 9 0 0 0;
#X connect 9 1 5 0;
#X connect 10 0 15 0;
#X connect 11 0 10 0;
#X connect 11 1 8 0;
#X connect 11 2 16 0;
#X connect 11 3 4 0;
#X connect 12 0 20 0;
#X connect 13 0 12 0;
#X connect 14 0 13 0;
#X connect 14 1 17 0;
#X connect 15 0 14 0;
#X connect 16 0 15 1;
#X connect 17 0 12 0;
#X connect 18 0 9 0;
#X connect 19 0 9 0;
#X connect 20 0 18 0;
#X connect 20 1 7 1;
#X restore 64 174 pd soundFileTrigger_module;
#X connect 0 0 16 0;
#X connect 2 0 12 0;
#X connect 12 0 8 0;
#X connect 12 1 16 1;
#X connect 16 0 1 0;
#X connect 16 1 15 0;
#X connect 16 2 13 0;
#X connect 16 3 3 0;
#X restore 21 162 pd soundfile_trigger____________________;
#X connect 2 0 13 0;
#X connect 3 0 13 1;
#X connect 10 0 0 0;
#X connect 10 1 11 0;
#X connect 10 2 6 0;
#X connect 12 0 10 0;
#X connect 12 1 10 1;
#X connect 12 2 10 2;
#X connect 12 3 10 3;
#X connect 13 0 12 0;
#X connect 13 1 12 1;
#X connect 13 2 12 2;
#X connect 13 3 12 3;
#X connect 13 4 9 0;
#X restore 58 170 pd soundfile_trigger_module______;
#X connect 2 0 5 0;
#X connect 2 1 5 1;
#X connect 2 2 5 2;
#X connect 5 0 1 0;
#X connect 5 1 4 0;
#X connect 5 2 3 0;
