#N canvas 116 38 822 696 10;
#X text 266 99 1.) parameter: "active" \, type: <bool> \, unit [-]
;
#X text 296 129 description: switches the module on and off from DSP
tree;
#X text 296 299 description: switches a bypass path in parallel;
#X text 306 313 to the processor on and off;
#X text 295 365 description: mutes the effect way of the processor
;
#X text 296 414 description: makes a mix of the effected signal (wet
= 1);
#X text 306 429 and the input signal (dry = 0);
#X text 296 182 description: multiplies the incoming signal with this
value;
#X text 306 197 before it is going further to effect input;
#X text 296 247 description: multiplies the signal from effect output
;
#X text 296 114 initial-value: 1 \, range: (0/1) \, class: module;
#X text 296 232 initial-value: 1 \, range: (0...4) \, class: processor
;
#X text 296 167 initial-value: 1 \, range: (0...4) \, class: processor
;
#X text 296 284 initial-value: 0 \, range: (0/1) \, class: processor
;
#X text 296 349 initial-value: 0 \, range: (0/1) \, class: processor
;
#X text 296 399 initial-value: 1 \, range: (0...1) \, class: processor
;
#X obj 17 179 cnv 10 135 10 empty empty empty 20 12 0 14 -261682 -66577
0;
#X text 253 53 2 signal out ports;
#X obj 89 232 outlet~;
#X obj 15 124 inlet~;
#X obj 16 232 outlet~;
#X text 266 152 2.) parameter: "inLevel" \, type: <float> \, unit [-]
;
#X text 267 217 3.) parameter: "outLevel" \, type: <float> \, unit
[-];
#X text 268 269 4.) parameter: "bypass" \, type: <bool> \, unit [-]
;
#X text 266 334 5.) parameter: "mute" \, type: <bool> \, unit [-];
#X text 266 384 6.) parameter: "mix" \, type: <float> \, unit [-];
#X obj 90 127 handlers/ntg_receive \$1;
#N canvas 332 86 494 405 stereo_panner_module________ 0;
#X obj 17 8 inlet~;
#X obj 17 345 outlet~;
#X obj 140 287 switch~;
#X obj 88 344 outlet~;
#X obj 96 25 inlet;
#X obj 243 28 inlet;
#X text 243 11 named parameter-messages;
#X text 96 8 init-bang;
#X obj 17 195 handlers/stereo_post_processor \$0 _;
#X obj 17 242 handlers/stereo_module \$0 _________;
#X obj 165 26 inlet;
#X text 165 9 fini-bang;
#X obj 17 104 handlers/mono_pre_processor \$0 __;
#N canvas 583 60 570 410 stereo_panner_________ 0;
#X obj 351 33 inlet;
#X obj 18 31 inlet~;
#X obj 18 247 outlet~;
#X obj 167 39 inlet;
#X obj 251 280 outlet;
#X text 161 23 init-bang;
#X text 351 17 route parameters;
#X text 247 299 rejected parameters;
#X text 18 9 from pre-processor;
#X text 51 267 to post-processor;
#X obj 190 245 outlet;
#X text 179 280 init-bang;
#X text 162 11 from prev.;
#X text 186 266 to next;
#X obj 108 246 outlet~;
#X obj 168 72 t b b;
#X obj 17 186 core/stereo_panner~ _________________________;
#X obj 252 39 inlet;
#X text 246 23 fini-bang;
#X obj 310 318 outlet;
#X text 306 337 output parameters;
#X connect 0 0 16 3;
#X connect 1 0 16 0;
#X connect 3 0 15 0;
#X connect 15 0 10 0;
#X connect 15 1 16 1;
#X connect 16 0 2 0;
#X connect 16 1 14 0;
#X connect 16 2 4 0;
#X connect 16 3 19 0;
#X connect 17 0 16 2;
#X restore 89 150 pd stereo_panner_________;
#X obj 239 348 outlet;
#X connect 0 0 12 0;
#X connect 4 0 12 1;
#X connect 5 0 12 2;
#X connect 8 0 9 0;
#X connect 8 1 9 1;
#X connect 8 2 9 2;
#X connect 8 3 9 3;
#X connect 9 0 1 0;
#X connect 9 1 3 0;
#X connect 9 2 2 0;
#X connect 10 0 13 2;
#X connect 12 0 8 0;
#X connect 12 0 8 1;
#X connect 12 1 13 0;
#X connect 12 2 13 1;
#X connect 12 3 13 3;
#X connect 13 0 8 2;
#X connect 13 1 8 3;
#X connect 13 2 8 4;
#X connect 13 3 8 5;
#X connect 13 4 14 0;
#X restore 16 176 pd stereo_panner_module________;
#X text 373 614 Thomas Musil \, 16.04.2010;
#X text 253 69 7 data in ports;
#X text 253 37 1 signal in ports;
#X text 253 13 StereoPanner: a 1 to 2 channel audio panner;
#X obj 133 208 handlers/ntg_send \$1;
#X text 14 612 1.) initial argument: <float> unique ID;
#X text 265 453 7.) parameter: "panning" \, type: <float>;
#X text 305 479 value of spatial position of input signal.;
#X text 295 467 unit [degree] \, initial-value: 0 \, range: (-180...+180)
;
#X connect 19 0 27 0;
#X connect 26 0 27 1;
#X connect 26 1 27 2;
#X connect 26 2 27 3;
#X connect 27 0 20 0;
#X connect 27 1 18 0;
#X connect 27 2 32 0;
