#N canvas 556 117 714 420 10;
#X obj 23 133 cnv 10 85 10 empty empty empty 20 12 0 14 -261682 -66577
0;
#X text 284 18 audio-out: audio signal is going to the DAC;
#X text 313 133 description: index selects the DAC (beginnig with 1)
;
#X obj 74 75 inlet~;
#N canvas 728 60 465 462 audio_out_module_____________ 0;
#X obj 19 145 cnv 10 164 10 empty empty empty 20 12 0 14 -261682 -66577
0;
#X obj 17 201 outlet;
#X obj 111 29 inlet;
#X obj 59 31 inlet~;
#X obj 270 30 inlet;
#X text 270 13 named parameter-messages;
#X text 111 12 init-bang;
#N canvas 619 24 784 467 audio_out_____________________ 0;
#X obj 340 41 inlet;
#X obj 198 41 inlet;
#X obj 422 367 outlet;
#X text 192 25 init-bang;
#X text 340 25 route parameters;
#X text 418 386 rejected parameters;
#X obj 286 365 outlet;
#X text 274 402 init-bang;
#X text 191 12 from prev;
#X text 280 388 to next;
#X obj 86 46 inlet~;
#X obj 29 368 outlet;
#X obj 397 132 clip 0 1;
#X obj 85 224 generics/line_mul~ 1 20;
#X text 31 390 attribute out;
#X obj 12 289 core/vu~;
#X obj 12 341 list prepend vu1;
#X obj 17 43 inlet~;
#X obj 19 182 generics/line_mul~ 1 20;
#X obj 198 72 t b b;
#X obj 340 66 route offset inLevel;
#X obj 510 66 namecanvas \$0-st-audio-out;
#N canvas 719 109 692 712 create 0;
#X msg 378 181 editmode 0;
#X msg 363 158 vis 0;
#X obj 369 430 s pd-\$0-OUT;
#X msg 496 342 editmode 1;
#X msg 511 363 vis 1;
#X msg 526 384 clear;
#X msg 481 318 obj 30 20 inlet~;
#X msg 457 296 obj 30 50 dac~ \$1;
#X msg 163 400 editmode 0;
#X msg 146 375 vis 0;
#X msg 214 479 editmode 1;
#X msg 234 504 vis 1;
#X obj 70 521 del 0;
#X obj 348 78 inlet;
#X obj 349 104 clip 1 63;
#X obj 349 130 t b b b b b f b f b b b b;
#X msg 409 227 connect 0 0 1 0;
#X msg 393 204 connect 2 0 3 0;
#X msg 545 60 4;
#X obj 416 156 + 1;
#X msg 442 274 obj 130 20 inlet~;
#X msg 424 249 obj 130 50 dac~ \$1;
#X obj 135 351 t b b b b b b b;
#X obj 199 533 s \$0-st-audio-out;
#X msg 185 428 connect 13 0 23 1;
#X msg 201 455 connect 18 0 23 0;
#X msg 474 55 1;
#X connect 0 0 2 0;
#X connect 1 0 2 0;
#X connect 3 0 2 0;
#X connect 4 0 2 0;
#X connect 5 0 2 0;
#X connect 6 0 2 0;
#X connect 7 0 2 0;
#X connect 8 0 23 0;
#X connect 9 0 23 0;
#X connect 10 0 23 0;
#X connect 11 0 23 0;
#X connect 13 0 14 0;
#X connect 14 0 15 0;
#X connect 15 0 22 0;
#X connect 15 1 1 0;
#X connect 15 2 0 0;
#X connect 15 3 17 0;
#X connect 15 4 16 0;
#X connect 15 5 19 0;
#X connect 15 6 20 0;
#X connect 15 7 7 0;
#X connect 15 8 6 0;
#X connect 15 9 3 0;
#X connect 15 10 4 0;
#X connect 15 11 5 0;
#X connect 16 0 2 0;
#X connect 17 0 2 0;
#X connect 18 0 14 0;
#X connect 19 0 21 0;
#X connect 20 0 2 0;
#X connect 21 0 2 0;
#X connect 22 0 12 0;
#X connect 22 1 9 0;
#X connect 22 2 8 0;
#X connect 22 3 24 0;
#X connect 22 4 25 0;
#X connect 22 5 10 0;
#X connect 22 6 11 0;
#X connect 24 0 23 0;
#X connect 25 0 23 0;
#X connect 26 0 14 0;
#X restore 340 97 pd create dac~ n n+1;
#N canvas 0 22 450 300 \$0-OUT 0;
#X obj 30 20 inlet~;
#X obj 30 50 dac~ 1;
#X obj 130 20 inlet~;
#X obj 130 50 dac~ 2;
#X connect 0 0 1 0;
#X connect 2 0 3 0;
#X restore 25 263 pd \$0-OUT;
#X obj 516 161 route active;
#X obj 91 290 core/vu~;
#X obj 135 343 list prepend vu2;
#X connect 0 0 20 0;
#X connect 1 0 19 0;
#X connect 10 0 13 0;
#X connect 12 0 13 1;
#X connect 12 0 18 1;
#X connect 13 0 25 0;
#X connect 13 0 23 1;
#X connect 15 0 16 0;
#X connect 16 0 11 0;
#X connect 17 0 18 0;
#X connect 18 0 15 0;
#X connect 18 0 23 0;
#X connect 19 0 6 0;
#X connect 19 1 13 3;
#X connect 19 1 18 3;
#X connect 20 0 22 0;
#X connect 20 1 12 0;
#X connect 20 2 2 0;
#X connect 20 2 24 0;
#X connect 24 0 15 1;
#X connect 24 0 25 1;
#X connect 25 0 26 0;
#X connect 26 0 11 0;
#X restore 17 142 pd audio_out_____________________;
#X obj 199 33 inlet;
#X text 199 16 fini-bang;
#X obj 142 202 outlet;
#X text 141 224 attribute out;
#X text 16 223 dummy;
#X obj 7 30 inlet~;
#X obj 315 246 switch~;
#X obj 199 183 handlers/zero_module \$0 _________;
#X connect 2 0 7 2;
#X connect 3 0 7 1;
#X connect 4 0 7 3;
#X connect 7 0 10 0;
#X connect 7 1 15 0;
#X connect 7 2 15 1;
#X connect 13 0 7 0;
#X connect 15 0 14 0;
#X restore 21 130 pd audio_out_module_____________;
#X obj 126 75 handlers/ntg_receive \$1;
#X obj 134 167 handlers/ntg_send \$1;
#X obj 21 74 inlet~;
#X text 320 42 2 signal in port;
#X text 284 102 1.) parameter: "offset" \, type: <int> \, unit [-]
;
#X text 314 117 initial-value: 1 \, range: (1 .. 63) \, class: audio-out
;
#X text 14 205 1.) initial argument: <float> unique id of the module
;
#X text 320 58 2 data in port (inLevel \, offset);
#X text 320 74 2 data out port (vu1 \, vu2);
#X text 333 173 Thomas Musil \, 2010-09-27;
#X connect 3 0 4 1;
#X connect 4 1 6 0;
#X connect 5 0 4 2;
#X connect 5 1 4 3;
#X connect 5 2 4 4;
#X connect 7 0 4 0;
