#N canvas 50 45 1228 697 10;
#X text 266 99 1.) parameter: "active" \, type: <bool> \, unit [-]
;
#X text 296 129 description: switches the module on and off from DSP
tree;
#X text 296 299 description: switches a bypass path in parallel;
#X text 306 313 to the processor on and off;
#X text 295 365 description: mutes the effect way of the processor
;
#X text 296 414 description: makes a mix of the effected signal (wet
= 1);
#X text 306 429 and the input signal (dry = 0);
#X text 296 182 description: multiplies the incoming signal with this
value;
#X text 306 197 before it is going further to effect input;
#X text 296 247 description: multiplies the signal from effect output
;
#X text 296 114 initial-value: 1 \, range: (0/1) \, class: module;
#X text 296 232 initial-value: 1 \, range: (0...4) \, class: processor
;
#X text 296 167 initial-value: 1 \, range: (0...4) \, class: processor
;
#X text 296 284 initial-value: 0 \, range: (0/1) \, class: processor
;
#X text 296 349 initial-value: 0 \, range: (0/1) \, class: processor
;
#X text 296 399 initial-value: 1 \, range: (0...1) \, class: processor
;
#X obj 17 179 cnv 10 135 10 empty empty empty 20 12 0 14 -261682 -66577
0;
#X text 253 37 2 signal in ports;
#X text 253 53 2 signal out ports;
#X text 296 469 unit [sec] \, initial-value: 3.5 sec \, range: (0.1...100)
;
#X text 295 483 class: stereo-reverb \, description:;
#X text 295 559 class: stereo-reverb \, description:;
#X text 305 586 of the late diffuse reverberation signals.;
#X text 305 510 of the late diffuse reverberation signals.;
#X text 306 497 the low band (15..62 Hz) its T60 decay time;
#X text 304 572 the mid-low band (62..250 Hz) its T60 decay time of
the;
#X text 775 120 class: stereo-reverb \, description:;
#X text 785 147 of the late diffuse reverberation signals.;
#X text 296 545 unit [sec] \, initial-value: 3 sec \, range: (0.1...100)
;
#X text 776 106 unit [sec] \, initial-value: 2.5 sec \, range: (0.1...100)
;
#X text 784 133 the mid-low band (250..1000 Hz) its T60 decay time
of the;
#X text 775 194 class: stereo-reverb \, description:;
#X text 785 221 of the late diffuse reverberation signals.;
#X text 776 180 unit [sec] \, initial-value: 2 sec \, range: (0.1...100)
;
#X text 774 268 class: stereo-reverb \, description:;
#X text 785 295 of the late diffuse reverberation signals.;
#X text 776 254 unit [sec] \, initial-value: 1.5 sec \, range: (0.1...100)
;
#X text 784 207 the mid-low band (1..4 kHz) its T60 decay time of the
;
#X text 784 281 the mid-low band (4..16 kHz) its T60 decay time of
the;
#X text 793 357 does the balance between the early echoes and;
#X text 793 371 the late diffuse reverberation signals.;
#X text 784 328 unit [-] \, initial-value: 0.5 \, range: (0...1);
#X text 784 341 class: stereo-reverb \, description:;
#X text 785 402 unit [m^3] \, initial-value: 350 m^3 \, range: (8...100000)
;
#X text 785 416 class: stereo-reverb \, description:;
#X text 795 430 is the reverberation room volume in cubic meter.;
#X text 786 461 unit [-] \, initial-value: 0.5 \, range: (0...1);
#X text 786 530 unit [-] \, initial-value: 0.5 \, range: (0...1);
#X text 786 591 unit [-] \, initial-value: 0.5 \, range: (0...1);
#X text 787 544 class: stereo-reverb \, description: describes the
distance;
#X text 798 559 of sound source and listener in the room.;
#X text 253 14 stereo-reverb: a feedback delay network reverb;
#X obj 76 123 inlet~;
#X obj 89 232 outlet~;
#X obj 15 124 inlet~;
#X obj 16 232 outlet~;
#X text 798 490 of the room. 0 is cubic \, 1 is more elongate.;
#X text 787 475 class: stereo-reverb \, description: describes the
shape;
#X text 787 605 class: stereo-reverb \, description: renders a left
(0) to;
#X text 798 619 right (1) panning of the very first early reflections.
;
#X text 867 644 Thomas Musil \, 11.11.2009;
#X text 253 69 16 data in ports;
#X text 266 152 2.) parameter: "inLevel" \, type: <float> \, unit [-]
;
#X text 267 217 3.) parameter: "outLevel" \, type: <float> \, unit
[-];
#X text 268 269 4.) parameter: "bypass" \, type: <bool> \, unit [-]
;
#X text 266 334 5.) parameter: "mute" \, type: <bool> \, unit [-];
#X text 266 384 6.) parameter: "mix" \, type: <float> \, unit [-];
#X text 266 454 7.) parameter: "decayTimeLow" \, type: <float>;
#X text 265 532 8.) parameter: "decayTimeMidLow" \, type: <float>;
#X text 746 91 9.) parameter: "decayTimeMid" \, type: <float>;
#X text 746 165 10.) parameter: "decayTimeMidHigh" \, type: <float>
;
#X text 746 239 11.) parameter: "decayTimeHigh" \, type: <float>;
#X text 749 313 12.) parameter: "earlyLateBalance" \, type: <float>
;
#X text 750 388 13.) parameter: "roomVolume" \, type: <float>;
#X text 750 447 14.) parameter: "roomShape" \, type: <float>;
#X text 750 516 15.) parameter: "sourceDistance" \, type: <float>;
#X text 750 577 16.) param: "firstEchoPanning" \, type: <float>;
#N canvas 580 67 494 405 stereo_reverb_module________ 0;
#X obj 17 8 inlet~;
#X obj 17 345 outlet~;
#X obj 160 286 switch~;
#X obj 88 344 outlet~;
#X obj 111 8 inlet~;
#X obj 179 16 inlet;
#X obj 326 19 inlet;
#X text 326 2 named parameter-messages;
#X text 179 -1 init-bang;
#X obj 17 104 handlers/stereo_pre_processor \$0 __;
#X obj 17 195 handlers/stereo_post_processor \$0 _;
#X obj 17 242 handlers/stereo_module \$0 _________;
#N canvas 725 40 715 334 stereo_reverb_________ 0;
#X obj 366 26 inlet;
#X obj 18 31 inlet~;
#X obj 18 247 outlet~;
#X obj 211 34 inlet;
#X obj 337 247 outlet;
#X text 205 18 init-bang;
#X text 366 10 route parameters;
#X text 333 266 rejected parameters;
#X text 41 10 from pre-processor;
#X text 51 267 to post-processor;
#X obj 212 245 outlet;
#X text 201 280 init-bang;
#X text 206 6 from prev.;
#X text 208 266 to next;
#X obj 100 30 inlet~;
#X obj 127 246 outlet~;
#X obj 17 186 core/stereo_reverb12~ _________________________;
#X obj 211 143 t b b;
#X connect 0 0 16 4;
#X connect 1 0 16 0;
#X connect 3 0 17 0;
#X connect 14 0 16 1;
#X connect 16 0 2 0;
#X connect 16 1 15 0;
#X connect 16 2 4 0;
#X connect 17 0 10 0;
#X connect 17 1 16 2;
#X restore 127 151 pd stereo_reverb_________;
#X obj 248 17 inlet;
#X text 248 0 fini-bang;
#X connect 0 0 9 0;
#X connect 4 0 9 1;
#X connect 5 0 9 2;
#X connect 6 0 9 3;
#X connect 9 0 10 0;
#X connect 9 1 10 1;
#X connect 9 2 12 0;
#X connect 9 3 12 1;
#X connect 9 4 12 2;
#X connect 9 5 12 3;
#X connect 10 0 11 0;
#X connect 10 1 11 1;
#X connect 10 2 11 2;
#X connect 10 3 11 3;
#X connect 11 0 1 0;
#X connect 11 1 3 0;
#X connect 11 2 2 0;
#X connect 12 0 10 2;
#X connect 12 1 10 3;
#X connect 12 2 10 4;
#X connect 12 3 10 5;
#X restore 16 176 pd stereo_reverb_module________;
#X obj 132 123 handlers/ntg_receive \$1;
#X text 14 618 1.) initial argument: <float> unique id of the module
;
#X connect 52 0 77 1;
#X connect 54 0 77 0;
#X connect 77 0 55 0;
#X connect 77 1 53 0;
#X connect 78 0 77 2;
#X connect 78 1 77 3;
#X connect 78 2 77 4;
