#N canvas 707 84 440 507 10;
#X obj 17 179 cnv 10 135 10 empty empty empty 20 12 0 14 -261682 -66577
0;
#X obj 76 123 inlet~;
#X obj 89 232 outlet~;
#X obj 15 124 inlet~;
#X obj 16 232 outlet~;
#N canvas 695 63 494 405 stereo_reverb_module________ 0;
#X obj 17 8 inlet~;
#X obj 17 345 outlet~;
#X obj 160 286 switch~;
#X obj 88 344 outlet~;
#X obj 111 8 inlet~;
#X obj 179 16 inlet;
#X obj 326 19 inlet;
#X text 326 2 named parameter-messages;
#X text 179 -1 init-bang;
#X obj 17 104 handlers/stereo_pre_processor \$0 __;
#X obj 17 195 handlers/stereo_post_processor \$0 _;
#X obj 17 242 handlers/stereo_module \$0 _________;
#N canvas 725 40 715 334 stereo_reverb_________ 0;
#X obj 366 26 inlet;
#X obj 18 31 inlet~;
#X obj 18 247 outlet~;
#X obj 211 34 inlet;
#X obj 337 247 outlet;
#X text 205 18 init-bang;
#X text 366 10 route parameters;
#X text 333 266 rejected parameters;
#X text 41 10 from pre-processor;
#X text 51 267 to post-processor;
#X obj 212 245 outlet;
#X text 201 280 init-bang;
#X text 206 6 from prev.;
#X text 208 266 to next;
#X obj 100 30 inlet~;
#X obj 127 246 outlet~;
#X obj 211 143 t b b;
#N canvas 72 50 1010 605 freeverb 0;
#X obj 36 23 inlet~;
#X obj 828 30 inlet;
#X obj 178 544 outlet~;
#X obj 36 547 outlet~;
#X obj 149 22 inlet~;
#X text 44 41 left;
#X text 159 39 right;
#X text 39 567 left;
#X text 176 561 right;
#X obj 840 542 outlet;
#X obj 549 22 inlet;
#X text 549 8 init-bang;
#X text 807 11 incoming parameters;
#X text 789 561 rejected parameters;
#X obj 658 24 inlet;
#X text 654 8 fini-bang;
#X obj 635 177 route roomsize damping width freeze;
#X msg 234 63 roomsize \$1;
#X msg 235 87 damping \$1;
#X msg 235 109 width \$1;
#X msg 235 131 wet \$1;
#X msg 235 153 dry \$1;
#X msg 235 175 print;
#X msg 235 197 freeze \$1;
#X msg 235 219 bypass \$1;
#X obj 36 247 freeverb~/freeverb~;
#X connect 0 0 25 0;
#X connect 1 0 16 0;
#X connect 4 0 25 1;
#X connect 16 0 17 0;
#X connect 16 1 18 0;
#X connect 16 2 19 0;
#X connect 16 3 23 0;
#X connect 16 4 9 0;
#X connect 17 0 25 0;
#X connect 18 0 25 0;
#X connect 19 0 25 0;
#X connect 23 0 25 0;
#X connect 25 0 3 0;
#X connect 25 1 2 0;
#X restore 18 158 pd freeverb;
#X connect 0 0 17 4;
#X connect 1 0 17 0;
#X connect 3 0 16 0;
#X connect 14 0 17 1;
#X connect 16 0 10 0;
#X connect 16 1 17 2;
#X connect 17 0 2 0;
#X connect 17 1 15 0;
#X connect 17 2 4 0;
#X restore 127 151 pd stereo_reverb_________;
#X obj 248 17 inlet;
#X text 248 0 fini-bang;
#X connect 0 0 9 0;
#X connect 4 0 9 1;
#X connect 5 0 9 2;
#X connect 6 0 9 3;
#X connect 9 0 10 0;
#X connect 9 1 10 1;
#X connect 9 2 12 0;
#X connect 9 3 12 1;
#X connect 9 4 12 2;
#X connect 9 5 12 3;
#X connect 10 0 11 0;
#X connect 10 1 11 1;
#X connect 10 2 11 2;
#X connect 10 3 11 3;
#X connect 11 0 1 0;
#X connect 11 1 3 0;
#X connect 11 2 2 0;
#X connect 12 0 10 2;
#X connect 12 1 10 3;
#X connect 12 2 10 4;
#X connect 12 3 10 5;
#X restore 16 176 pd stereo_reverb_module________;
#X obj 132 123 handlers/ntg_receive \$1;
#X connect 1 0 5 1;
#X connect 3 0 5 0;
#X connect 5 0 4 0;
#X connect 5 1 2 0;
#X connect 6 0 5 2;
#X connect 6 1 5 3;
#X connect 6 2 5 4;
