#N canvas 744 95 366 385 10;
#X obj 17 179 cnv 10 135 10 empty empty empty 20 12 0 14 -261682 -66577
0;
#X obj 76 123 inlet~;
#X obj 89 232 outlet~;
#X obj 15 124 inlet~;
#X obj 16 232 outlet~;
#X obj 132 123 handlers/ntg_receive \$1;
#N canvas 64 390 494 405 stereo_convolution_module________ 0;
#X obj 17 8 inlet~;
#X obj 17 345 outlet~;
#X obj 160 286 switch~;
#X obj 88 344 outlet~;
#X obj 111 8 inlet~;
#X obj 179 16 inlet;
#X obj 326 19 inlet;
#X text 326 2 named parameter-messages;
#X text 179 -1 init-bang;
#X obj 17 104 handlers/stereo_pre_processor \$0 __;
#X obj 17 195 handlers/stereo_post_processor \$0 _;
#X obj 17 242 handlers/stereo_module \$0 _________;
#X obj 248 17 inlet;
#X text 248 0 fini-bang;
#N canvas 89 62 974 525 stereo_convolution_________ 0;
#X obj 563 7 inlet;
#X obj 18 31 inlet~;
#X obj 17 332 outlet~;
#X obj 211 34 inlet;
#X obj 662 335 outlet;
#X text 205 18 init-bang;
#X text 563 -9 route parameters;
#X text 658 354 rejected parameters;
#X text 41 10 from pre-processor;
#X text 50 352 to post-processor;
#X obj 210 331 outlet;
#X text 200 365 init-bang;
#X text 206 6 from prev.;
#X text 207 351 to next;
#X obj 100 30 inlet~;
#X obj 126 331 outlet~;
#X obj 563 37 route file1 file2;
#X obj 589 231 soundfiler;
#X obj 835 -19 table \$0-irL;
#X obj 834 6 table \$0-irR;
#X msg 590 174 read -resize \$1 \$2-irL;
#X msg 639 114 read -resize \$1 \$2-irR;
#X obj 590 146 pack s \$0;
#X obj 639 86 pack s \$0;
#X msg 42 182 set \$1-irL;
#X obj 42 162 f \$0;
#X obj 285 161 f \$0;
#X msg 285 181 set \$1-irR;
#X obj 563 62 t b a;
#X obj 612 62 t b a;
#X obj 17 207 bsaylor/partconv~ \$0-irL 1024;
#X obj 262 209 bsaylor/partconv~ \$0-irR 1024;
#X connect 0 0 16 0;
#X connect 1 0 30 0;
#X connect 3 0 10 0;
#X connect 14 0 31 0;
#X connect 16 0 28 0;
#X connect 16 1 29 0;
#X connect 16 2 4 0;
#X connect 20 0 17 0;
#X connect 21 0 17 0;
#X connect 22 0 20 0;
#X connect 23 0 21 0;
#X connect 24 0 30 0;
#X connect 25 0 24 0;
#X connect 26 0 27 0;
#X connect 27 0 31 0;
#X connect 28 0 25 0;
#X connect 28 1 22 0;
#X connect 29 0 26 0;
#X connect 29 1 23 0;
#X connect 30 0 2 0;
#X connect 31 0 15 0;
#X restore 127 151 pd stereo_convolution_________;
#N canvas 0 22 613 651 join_datadir_file1 0;
#X obj 233 116 symbol;
#X obj 233 386 makefilename %s%s;
#X obj 232 340 symbol;
#X obj 232 298 unpack s s;
#X obj 232 270 generics/symbol_buddy;
#X obj 347 115 symbol;
#X msg 289 345 set \$1%s;
#X obj 235 25 inlet;
#X obj 234 495 outlet;
#X obj 236 470 list trim;
#X obj 234 59 route file1 dataDirectory;
#X obj 233 429 list prepend file1;
#X connect 0 0 4 0;
#X connect 1 0 11 0;
#X connect 2 0 1 0;
#X connect 3 0 2 0;
#X connect 3 1 6 0;
#X connect 4 0 3 0;
#X connect 5 0 4 1;
#X connect 6 0 1 0;
#X connect 7 0 10 0;
#X connect 9 0 8 0;
#X connect 10 0 0 0;
#X connect 10 1 5 0;
#X connect 11 0 9 0;
#X restore 309 57 pd join_datadir_file1;
#N canvas 0 22 613 651 join_datadir_file1 0;
#X obj 233 116 symbol;
#X obj 233 386 makefilename %s%s;
#X obj 232 340 symbol;
#X obj 232 298 unpack s s;
#X obj 232 270 generics/symbol_buddy;
#X obj 347 115 symbol;
#X msg 289 345 set \$1%s;
#X obj 235 25 inlet;
#X obj 234 495 outlet;
#X obj 236 470 list trim;
#X obj 234 59 route file2 dataDirectory;
#X obj 233 429 list prepend file2;
#X obj 416 357 outlet;
#X connect 0 0 4 0;
#X connect 1 0 11 0;
#X connect 2 0 1 0;
#X connect 3 0 2 0;
#X connect 3 1 6 0;
#X connect 4 0 3 0;
#X connect 5 0 4 1;
#X connect 6 0 1 0;
#X connect 7 0 10 0;
#X connect 9 0 8 0;
#X connect 10 0 0 0;
#X connect 10 1 5 0;
#X connect 10 2 12 0;
#X connect 11 0 9 0;
#X restore 322 78 pd join_datadir_file1;
#X connect 0 0 9 0;
#X connect 4 0 9 1;
#X connect 5 0 9 2;
#X connect 6 0 15 0;
#X connect 6 0 16 0;
#X connect 9 0 10 0;
#X connect 9 1 10 1;
#X connect 9 2 14 0;
#X connect 9 3 14 1;
#X connect 9 4 14 2;
#X connect 9 5 14 3;
#X connect 10 0 11 0;
#X connect 10 1 11 1;
#X connect 10 2 11 2;
#X connect 10 3 11 3;
#X connect 11 0 1 0;
#X connect 11 1 3 0;
#X connect 11 2 2 0;
#X connect 14 0 10 2;
#X connect 14 1 10 3;
#X connect 14 2 10 4;
#X connect 14 3 10 5;
#X connect 15 0 9 3;
#X connect 16 0 9 3;
#X connect 16 1 9 3;
#X restore 16 176 pd stereo_convolution_module________;
#X connect 1 0 6 1;
#X connect 3 0 6 0;
#X connect 5 0 6 2;
#X connect 5 1 6 3;
#X connect 5 2 6 4;
#X connect 6 0 4 0;
#X connect 6 1 2 0;
