#N canvas 72 335 677 425 10;
#X obj 19 163 cnv 10 85 10 empty empty empty 20 12 0 14 -261682 -66577
0;
#X text 283 143 description: index selects the ADC (beginnig with 1)
;
#X text 14 140 dummy;
#X obj 15 206 outlet~;
#N canvas 612 237 452 306 audio_in_module______________ 0;
#X obj 22 145 cnv 10 164 10 empty empty empty 20 12 0 14 -261682 -66577
0;
#X obj 21 251 outlet~;
#X obj 21 55 inlet;
#X text 24 37 dummy;
#X obj 122 54 inlet;
#X obj 269 53 inlet;
#X text 269 36 named parameter-messages;
#X text 122 37 init-bang;
#N canvas 174 185 589 458 audio_in___________________ 0;
#X obj 280 41 inlet;
#X obj 138 41 inlet;
#X obj 450 366 outlet;
#X text 132 25 init-bang;
#X text 280 25 route parameters;
#X text 446 385 rejected parameters;
#X obj 314 364 outlet;
#X text 302 401 init-bang;
#X text 131 12 from prev;
#X text 308 387 to next;
#X obj 18 43 inlet;
#X text 16 27 dummy;
#X obj 25 369 outlet~;
#X text 24 395 to post-processor;
#X obj 338 132 clip 0 1;
#X obj 25 224 generics/line_mul~ 1 20;
#X obj 186 367 outlet;
#X text 180 390 output attribute;
#X obj 186 312 core/vu~;
#X obj 220 224 generics/line_mul~ 1 20;
#X obj 100 368 outlet~;
#X obj 138 78 t b b;
#X obj 279 66 route offset outLevel;
#N canvas 719 109 692 712 create 0;
#X msg 409 209 editmode 0;
#X msg 393 186 vis 0;
#X msg 509 376 editmode 1;
#X msg 521 398 vis 1;
#X msg 535 420 clear;
#X msg 133 270 editmode 0;
#X msg 116 245 vis 0;
#X msg 173 343 editmode 1;
#X msg 185 366 vis 1;
#X obj 79 356 del 0;
#X obj 378 108 inlet;
#X obj 393 447 s pd-\$0-IN;
#X msg 487 324 obj 30 50 outlet~;
#X msg 499 349 obj 30 20 adc~ \$1;
#X obj 102 218 t b b b b b b b;
#X obj 379 134 clip 1 63;
#X msg 623 348 3;
#X msg 441 253 connect 0 0 1 0;
#X obj 379 160 t b b b b b b f b f b b b;
#X obj 460 185 + 1;
#X msg 427 231 connect 2 0 3 0;
#X msg 474 303 obj 130 20 adc~ \$1;
#X msg 462 278 obj 130 50 outlet~;
#X obj 165 413 s \$0-st-audio-in;
#X msg 148 292 connect 25 1 19 0;
#X msg 162 317 connect 25 0 15 0;
#X msg 531 97 1;
#X connect 0 0 11 0;
#X connect 1 0 11 0;
#X connect 2 0 11 0;
#X connect 3 0 11 0;
#X connect 4 0 11 0;
#X connect 5 0 23 0;
#X connect 6 0 23 0;
#X connect 7 0 23 0;
#X connect 8 0 23 0;
#X connect 10 0 15 0;
#X connect 12 0 11 0;
#X connect 13 0 11 0;
#X connect 14 0 9 0;
#X connect 14 1 6 0;
#X connect 14 2 5 0;
#X connect 14 3 24 0;
#X connect 14 4 25 0;
#X connect 14 5 7 0;
#X connect 14 6 8 0;
#X connect 15 0 18 0;
#X connect 16 0 13 0;
#X connect 17 0 11 0;
#X connect 18 0 14 0;
#X connect 18 1 1 0;
#X connect 18 2 0 0;
#X connect 18 3 20 0;
#X connect 18 4 17 0;
#X connect 18 5 22 0;
#X connect 18 6 19 0;
#X connect 18 7 12 0;
#X connect 18 8 13 0;
#X connect 18 9 2 0;
#X connect 18 10 3 0;
#X connect 18 11 4 0;
#X connect 19 0 21 0;
#X connect 20 0 11 0;
#X connect 21 0 11 0;
#X connect 22 0 11 0;
#X connect 24 0 23 0;
#X connect 25 0 23 0;
#X connect 26 0 15 0;
#X restore 279 95 pd create adc~ n n+1;
#X obj 441 66 namecanvas \$0-st-audio-in;
#N canvas 0 22 450 300 \$0-IN 0;
#X obj 30 20 adc~ 1;
#X obj 30 50 outlet~;
#X obj 130 20 adc~ 2;
#X obj 130 50 outlet~;
#X connect 0 0 1 0;
#X connect 2 0 3 0;
#X restore 26 156 pd \$0-IN;
#X obj 497 175 route active;
#X obj 11 307 core/vu~;
#X obj 11 331 list prepend vu1;
#X obj 186 338 list prepend vu2;
#X connect 0 0 22 0;
#X connect 1 0 21 0;
#X connect 14 0 15 1;
#X connect 14 0 19 1;
#X connect 15 0 12 0;
#X connect 15 0 27 0;
#X connect 18 0 29 0;
#X connect 19 0 18 0;
#X connect 19 0 20 0;
#X connect 21 0 6 0;
#X connect 21 1 15 3;
#X connect 21 1 19 3;
#X connect 22 0 23 0;
#X connect 22 1 14 0;
#X connect 22 2 26 0;
#X connect 22 2 2 0;
#X connect 25 0 15 0;
#X connect 25 1 19 0;
#X connect 26 0 18 1;
#X connect 26 0 27 1;
#X connect 27 0 28 0;
#X connect 28 0 16 0;
#X connect 29 0 16 0;
#X restore 21 142 pd audio_in___________________;
#X obj 200 52 inlet;
#X text 200 35 fini-bang;
#X obj 181 251 outlet;
#X obj 78 251 outlet~;
#X obj 123 215 switch~;
#X obj 21 194 handlers/stereo_module \$0 _________;
#X connect 2 0 8 0;
#X connect 4 0 8 1;
#X connect 5 0 8 2;
#X connect 8 0 14 0;
#X connect 8 1 14 1;
#X connect 8 2 11 0;
#X connect 8 3 14 2;
#X connect 8 4 14 3;
#X connect 14 0 1 0;
#X connect 14 1 12 0;
#X connect 14 2 13 0;
#X restore 16 160 pd audio_in_module______________;
#X obj 237 208 handlers/ntg_send \$1;
#X obj 109 206 outlet~;
#X text 285 51 2 signal out port;
#X obj 92 109 handlers/ntg_receive \$1;
#X text 254 112 1.) parameter: "offset" \, type: <int> \, unit [-]
;
#X text 284 126 initial-value: 1 \, range: (1 .. 63) \, class: audio-in
;
#X text 241 29 stereo_audio_in: audio signal is coming from the ADC
;
#X text 285 67 2 data in port (outLevel \, offset);
#X text 285 83 2 data out port (vu1 \, vu2);
#X text 304 178 Thomas Musil \, 2010-09-27;
#X text 49 259 1.) initial argument: <float> unique ID;
#X connect 4 0 3 0;
#X connect 4 1 6 0;
#X connect 4 2 5 0;
#X connect 8 0 4 1;
#X connect 8 1 4 2;
#X connect 8 2 4 3;
