#N canvas 760 397 509 301 10;
#N canvas 228 146 698 644 stillPoint--- 0;
#N canvas 105 111 928 730 interface 0;
#X obj 102 102 cnv 15 496 496 empty empty empty 20 12 0 14 -261682
-66577 0;
#N canvas 50 61 181 169 ck_display2 0;
#X obj 89 33 inlet;
#X obj 89 120 outlet;
#X obj 16 120 outlet;
#X obj 89 92 * 0.001;
#X obj 16 91 change;
#X obj 16 67 / 60000;
#X obj 89 67 % 60000;
#X connect 0 0 5 0;
#X connect 0 0 6 0;
#X connect 3 0 1 0;
#X connect 4 0 2 0;
#X connect 5 0 4 0;
#X connect 6 0 3 0;
#X restore 665 216 pd ck_display2;
#N canvas 50 61 181 169 ck_display2 0;
#X obj 89 33 inlet;
#X obj 89 120 outlet;
#X obj 16 120 outlet;
#X obj 89 92 * 0.001;
#X obj 16 91 change;
#X obj 16 67 / 60000;
#X obj 89 67 % 60000;
#X connect 0 0 5 0;
#X connect 0 0 6 0;
#X connect 3 0 1 0;
#X connect 4 0 2 0;
#X connect 5 0 4 0;
#X connect 6 0 3 0;
#X restore 639 194 pd ck_display2;
#N canvas 50 61 181 169 ck_display2 0;
#X obj 89 33 inlet;
#X obj 89 120 outlet;
#X obj 16 120 outlet;
#X obj 89 92 * 0.001;
#X obj 16 91 change;
#X obj 16 67 / 60000;
#X obj 89 67 % 60000;
#X connect 0 0 5 0;
#X connect 0 0 6 0;
#X connect 3 0 1 0;
#X connect 4 0 2 0;
#X connect 5 0 4 0;
#X connect 6 0 3 0;
#X restore 614 172 pd ck_display2;
#X floatatom 176 281 0 0 0 0 - - -;
#X floatatom 135 281 0 0 0 0 - - -;
#N canvas 50 61 181 169 ck_display1 0;
#X obj 89 138 outlet;
#X obj 18 139 outlet;
#X obj 89 40 r clock;
#X obj 89 92 * 0.001;
#X obj 16 91 change;
#X obj 16 67 / 60000;
#X obj 89 67 % 60000;
#X obj 89 116 i;
#X obj 18 116 i;
#X connect 2 0 5 0;
#X connect 2 0 6 0;
#X connect 3 0 7 0;
#X connect 4 0 8 0;
#X connect 5 0 4 0;
#X connect 6 0 3 0;
#X connect 7 0 0 0;
#X connect 8 0 1 0;
#X restore 667 237 pd ck_display1;
#N canvas 50 61 465 394 History 0;
#X text -205 83 This work was composed by Edwin Roxburgh in 1979 for
the West Square Ensemble. The delays were realised on Barry Anderson's
analogue delay table \, built for performances of Stockhausen's "Solo".
Ring modulation and filtering were implemented on an analogue synthesiser
(most probably an EMS VCS3). In 1993 \, in preparation for performances
at the Colourscape Music Festival and the Royal College of Music \,
Lawrence Casserley made a version implemented entirely on an IRCAM
Signal Processing Workstation \, then the state of the art in real
time digital signal processing. This included not only all the delays
and treatments \, but also sequenced all the control changes \, which
had hitherto been made manually. Work on the patch was carried out
between January and September \, 1993 Further improvements were made
for subsequent performances in 1995 \, 96 and 97 In December \, 2000
a quick port to MAX/msp on MacIntosh was made. In 2003 the composer
asked Casserley to tidy up the patch and make a final version for publication.
This work was completed in April \, 2003 \, with minor revisions later
the same year.;
#X text -206 29 A Brief History of Implementations of Edwin Roxburgh's
"At the Still Point of the Turning World....";
#X restore 227 59 pd History;
#N canvas 114 143 509 589 README 0;
#X text 39 4 Notes on the current implementation - April \, 2003;
#X text 38 183 A final version for publication was made in April \,
2003 most of the ISPWisms were removed \, with the exception of the
'qlist' objects (see 'patcher qlists'). It was felt that these were
working correctly \, and the time involved in designing 'coll's and
altering all the data was not worthwhile. Current versions of Max now
include 'qlist'.;
#X text 39 36 The original patch was made on the IRCAM Signal Processing
Workstation in 1993 for a performance by the composer and Lawrence
Casserley at the Colourscape Music Festival. The patch implements a
digital version of the West Square analogue delay table devised by
Barry Anderson. Further additions and improvements occurred until 1997
;
#X text 39 130 A first rough port to MAX/msp on MacIntosh was made
in December \, 2000 \, but this still retained a number of "ISPWisms".
;
#X text 39 278 Major improvements are: 1) Separation of outputs \,
and 2) Implementation of an internal Q Track - also some improvements
to the user interface have been made.;
#X text 42 333 The ouptuts are now on eight channels: 1 to 6 are the
six delays \, from shortest to longest \; 7 carries the treatment outputs
- modulation and filtering \; and 8 is the Q track. Meters showing
the levels of the input and all outputs have been provided. Resetting
\, and setting to intermediate starting points for rehearsal are now
handled by a pull-down menu.;
#X text 43 443 Lawrence Casserley - April \, 2003;
#X text 42 475 Pure Data port by J.R. Dooley - January 2012;
#X restore 227 37 pd README;
#N canvas 393 22 396 538 metronome 0;
#X msg 195 191 44000;
#X obj 195 169 delay 1000;
#X msg 152 169 43000;
#X obj 195 140 r upbeats;
#X obj 33 72 change;
#X obj 305 355 bng 15 250 50 0 empty empty empty 17 7 0 10 -262144
-1 -1;
#X obj 223 308 bng 15 250 50 0 empty empty empty 17 7 0 10 -262144
-1 -1;
#X obj 261 329 delay 800;
#X msg 261 355 0 10;
#X msg 223 355 1 10;
#X obj 223 383 line~;
#X obj 83 416 *~;
#X obj 34 7 r clock;
#X obj 83 282 sig~;
#X obj 83 262 tgl 15 0 empty empty empty 17 7 0 10 -262144 -1 -1 1
1;
#X obj 113 282 sig~ 1;
#X obj 83 309 *~;
#X obj 83 345 rpole~ 1;
#X msg 32 325 set \$1;
#X obj 83 235 r run;
#X obj 33 226 * 44.1;
#X floatatom 33 93 5 0 0 0 - - -;
#X obj 34 52 i;
#X obj 33 248 t b f;
#X obj 34 31 / 2000;
#X obj 33 113 * 2;
#X obj 60 153 >= 1;
#X obj 33 174 spigot;
#X obj 33 133 t f f;
#X obj 84 440 outlet~ op8;
#X text 37 464 Creates the timing signal from sampled voice counts.
All the voice counts and handclap are loaded in one sample buffer -
coll "click_track" provides offsets into this buffer for the sounds
required at each count.;
#X obj 33 198 tabread \$0coll;
#X obj 83 367 tabread4~ \$0clickTrack;
#X obj 33 154 / 2;
#X connect 0 0 20 0;
#X connect 0 0 6 0;
#X connect 1 0 0 0;
#X connect 2 0 6 0;
#X connect 2 0 20 0;
#X connect 3 0 2 0;
#X connect 3 0 1 0;
#X connect 3 0 14 0;
#X connect 4 0 21 0;
#X connect 6 0 9 0;
#X connect 6 0 7 0;
#X connect 7 0 8 0;
#X connect 7 0 5 0;
#X connect 8 0 10 0;
#X connect 9 0 10 0;
#X connect 10 0 11 1;
#X connect 11 0 29 0;
#X connect 12 0 24 0;
#X connect 13 0 16 0;
#X connect 14 0 13 0;
#X connect 15 0 16 1;
#X connect 16 0 17 0;
#X connect 17 0 32 0;
#X connect 18 0 17 0;
#X connect 19 0 14 0;
#X connect 20 0 23 0;
#X connect 21 0 25 0;
#X connect 22 0 4 0;
#X connect 23 0 6 0;
#X connect 23 1 18 0;
#X connect 24 0 22 0;
#X connect 25 0 28 0;
#X connect 26 0 27 1;
#X connect 27 0 31 0;
#X connect 28 0 33 0;
#X connect 28 1 26 0;
#X connect 31 0 20 0;
#X connect 32 0 11 0;
#X connect 33 0 27 0;
#X restore 368 636 pd metronome;
#N canvas 349 413 846 710 qlists 0;
#X obj 100 36 inlet;
#X obj 594 170 outlet;
#X obj 419 168 outlet;
#X obj 267 168 outlet;
#X obj 61 36 inlet;
#X obj 19 36 inlet;
#N canvas 932 22 506 398 setclock 0;
#X obj 59 78 s upbeats;
#X obj 369 70 s reinit;
#X obj 243 47 t b f b;
#X msg 233 111 0;
#X msg 447 111 720;
#X msg 410 111 552;
#X msg 262 111 62;
#X msg 291 111 166;
#X msg 328 111 250;
#X msg 367 111 450;
#X obj 232 72 select 0 1 2 3 4 5 6;
#X obj 243 26 inlet;
#X obj 166 166 * 1000;
#X obj 117 295 outlet;
#X obj 46 56 inlet;
#X obj 166 55 inlet;
#X msg 46 162 \; run 1;
#X obj 117 220 metro 1;
#X obj 117 197 tgl 15 0 empty empty empty 17 7 0 10 -262144 -1 -1 1
1;
#X obj 117 251 f;
#X obj 142 251 + 1;
#X obj 117 175 r run;
#X obj 46 138 delay 2000;
#X text 154 21 start val;
#X text 37 37 run;
#X obj 304 31 r reinit;
#X connect 2 1 10 0;
#X connect 2 2 1 0;
#X connect 3 0 12 0;
#X connect 4 0 12 0;
#X connect 5 0 12 0;
#X connect 6 0 12 0;
#X connect 7 0 12 0;
#X connect 8 0 12 0;
#X connect 9 0 12 0;
#X connect 10 0 3 0;
#X connect 10 1 6 0;
#X connect 10 2 7 0;
#X connect 10 3 8 0;
#X connect 10 4 9 0;
#X connect 10 5 5 0;
#X connect 10 6 4 0;
#X connect 11 0 2 0;
#X connect 12 0 19 1;
#X connect 14 0 0 0;
#X connect 14 0 22 0;
#X connect 15 0 12 0;
#X connect 17 0 19 0;
#X connect 18 0 17 0;
#X connect 19 0 20 0;
#X connect 19 0 13 0;
#X connect 20 0 19 1;
#X connect 21 0 18 0;
#X connect 22 0 16 0;
#X connect 25 0 3 0;
#X restore 19 66 pd setclock;
#X obj 571 146 qlist;
#X obj 20 130 r clock;
#X obj 20 267 select 1;
#X obj 181 267 select 1;
#X obj 20 238 == 900000;
#X obj 343 266 select 1;
#X obj 521 266 select 1;
#X obj 571 67 r nexttr;
#X msg 643 94 rewind \, next;
#X obj 643 65 r reset;
#X msg 571 97 next;
#X obj 466 65 r reset;
#X msg 466 94 rewind \, next;
#X obj 393 67 r nextfb;
#X msg 393 97 next;
#X obj 393 143 qlist;
#X msg 303 95 rewind \, next;
#X obj 303 67 r reset;
#X msg 231 98 next;
#X obj 231 68 r nextdl;
#X obj 255 237 <;
#X obj 255 262 select 1;
#X obj 430 234 <;
#X obj 430 260 select 1;
#X obj 601 237 <;
#X obj 601 262 select 1;
#X obj 181 237 ==;
#X obj 343 236 ==;
#X obj 521 236 ==;
#X msg 181 320 \; nextdl bang;
#X obj 255 289 delay 50;
#X msg 343 321 \; nextfb bang;
#X obj 430 289 delay 50;
#X obj 601 291 delay 50;
#X msg 521 324 \; nexttr bang;
#X obj 19 94 s clock;
#X obj 231 144 qlist;
#X text 257 49 Delay Events;
#X text 409 49 Feedback Events;
#X text 577 54 Treatment Events;
#X obj 150 6 inlet qlist;
#X msg 193 121 read \$1;
#X msg 351 124 read \$1;
#X msg 544 123 read \$1;
#X obj 151 28 route delayEvents feedbackEvents treatmentEvents;
#X text 29 430 The clock can be set from the front panel - a number
of useful starting pointsare listed in the "Select Starting Point"
menu - click and drag on this menu to the desired starting point -
the sytem will run through all the qlist instructions quickly \, so
ensuring that all settings are correct at that point - when this is
done the "Ready" sign will show an "X" - then click the start button
to go from that point.;
#X text 415 441 A note on qlist syntax. 'qlist' was a standard object
in IRCAM Max on the ISPW \, but not implemented in MAX/msp from Cycling74
- as they work well here I have not translated them into colls. A qlist
is really like a succession of message boxes concatenated. One message
per line terminated by a semicolon. Lines beginning with a symbol will
send the rest of the line to a receive of that name. Lines with only
a number will be sent out the outlet. When qlist does this it stops
outputting data until a next symbol is received at the inlet. double
clicking a qlist will open a text window with the data. Look at the
first qlist - the first line is 19650 \; (the time in milliseconds
of the first event - qlist then waits until the clock equals that value
\, which sends a bang to nextdl \, thus sending a next symbol to the
qlist \, which sends the list 63 50 to level20 (output level of the
20 second delay) \, outputs 19700 and waits for a next symbol............etc..........
;
#X obj 697 253 outlet rejected;
#X msg 20 297 \; ready 0 \; run 0;
#X obj 152 73 symbol;
#X obj 298 117 symbol;
#X obj 490 118 symbol;
#X connect 0 0 6 2;
#X connect 4 0 6 1;
#X connect 5 0 6 0;
#X connect 6 0 42 0;
#X connect 7 0 35 1;
#X connect 7 0 1 0;
#X connect 7 0 31 0;
#X connect 8 0 11 0;
#X connect 8 0 33 0;
#X connect 8 0 27 1;
#X connect 8 0 34 0;
#X connect 8 0 29 1;
#X connect 8 0 35 0;
#X connect 8 0 31 1;
#X connect 9 0 55 0;
#X connect 10 0 36 0;
#X connect 11 0 9 0;
#X connect 12 0 38 0;
#X connect 13 0 41 0;
#X connect 14 0 17 0;
#X connect 15 0 7 0;
#X connect 16 0 15 0;
#X connect 17 0 7 0;
#X connect 18 0 19 0;
#X connect 19 0 22 0;
#X connect 20 0 21 0;
#X connect 21 0 22 0;
#X connect 22 0 34 1;
#X connect 22 0 2 0;
#X connect 22 0 29 0;
#X connect 23 0 43 0;
#X connect 24 0 23 0;
#X connect 25 0 43 0;
#X connect 26 0 25 0;
#X connect 27 0 28 0;
#X connect 28 0 37 0;
#X connect 29 0 30 0;
#X connect 30 0 39 0;
#X connect 31 0 32 0;
#X connect 32 0 40 0;
#X connect 33 0 10 0;
#X connect 34 0 12 0;
#X connect 35 0 13 0;
#X connect 37 0 36 0;
#X connect 39 0 38 0;
#X connect 40 0 41 0;
#X connect 43 0 33 1;
#X connect 43 0 27 0;
#X connect 43 0 3 0;
#X connect 47 0 51 0;
#X connect 48 0 43 0;
#X connect 49 0 22 0;
#X connect 50 0 7 0;
#X connect 51 0 56 0;
#X connect 51 1 57 0;
#X connect 51 2 58 0;
#X connect 51 3 54 0;
#X connect 56 0 48 0;
#X connect 57 0 49 0;
#X connect 58 0 50 0;
#X restore 614 148 pd qlists;
#X obj 296 203 tgl 15 0 empty ready Ready 17 7 0 10 -262144 -1 -1 1
1;
#X obj 296 234 tgl 15 0 empty run Run 17 7 0 10 -262144 -1 -1 1 1;
#X text 133 260 Current Time;
#X text 242 260 Next Output Event;
#X text 368 261 Next Feedback;
#X text 475 261 Next Treatment;
#X text 253 331 SYSTEM CONTROLS;
#N canvas 125 169 305 406 start 0;
#X obj 178 350 outlet;
#X msg 71 286 0;
#X msg 99 286 62;
#X msg 127 286 166;
#X msg 155 286 250;
#X msg 183 286 450;
#X msg 211 286 552;
#X msg 239 286 720;
#X obj 104 103 vradio 15 1 0 7 empty empty empty 0 -8 0 10 -262144
-1 -1 0;
#X obj 115 238 sel 0 1 2 3 4 5 6;
#X text 123 102 0:00;
#X text 122 116 1:02;
#X text 122 131 2:46;
#X text 123 147 4:10;
#X text 122 163 7:30;
#X text 123 179 9:12;
#X text 122 193 12:00;
#X connect 1 0 0 0;
#X connect 2 0 0 0;
#X connect 3 0 0 0;
#X connect 4 0 0 0;
#X connect 5 0 0 0;
#X connect 6 0 0 0;
#X connect 7 0 0 0;
#X connect 8 0 9 0;
#X connect 9 0 1 0;
#X connect 9 1 2 0;
#X connect 9 2 3 0;
#X connect 9 3 4 0;
#X connect 9 4 5 0;
#X connect 9 5 6 0;
#X connect 9 6 7 0;
#X coords 0 -1 1 1 60 110 2 100 100;
#X restore 121 147 pd start;
#X msg 606 401 \; ready 0 \; run 0;
#X obj 132 475 cnv 15 350 30 empty empty empty 20 12 0 14 -262144 -66577
0;
#X obj 131 431 cnv 15 350 30 empty empty empty 20 12 0 14 -262144 -66577
0;
#X obj 132 388 cnv 15 350 30 empty empty empty 20 12 0 14 -262144 -66577
0;
#X floatatom 142 394 5 0 0 0 - ind4 -;
#X floatatom 196 394 5 0 0 0 - ind8 -;
#X floatatom 253 394 5 0 0 0 - ind15 -;
#X floatatom 311 394 5 0 0 0 - ind20 -;
#X floatatom 371 394 5 0 0 0 - ind42 -;
#X floatatom 428 394 5 0 0 0 - ind60 -;
#X floatatom 254 437 5 0 0 0 - ifb15 -;
#X floatatom 312 437 5 0 0 0 - ifb20 -;
#X floatatom 143 437 5 0 0 0 - ifb4 -;
#X floatatom 195 437 5 0 0 0 - ifb8 -;
#X floatatom 370 437 5 0 0 0 - ifb42 -;
#X floatatom 429 437 5 0 0 0 - ifb60 -;
#X text 492 393 Delay Outputs;
#X text 490 436 Delay Feedbacks;
#X text 140 368 4.2sec;
#X text 191 368 8.75sec;
#X text 252 368 15sec;
#X text 311 368 20sec;
#X text 372 368 42sec;
#X text 430 368 60sec;
#X floatatom 142 488 5 0 0 2 Direct idirlev -;
#X floatatom 194 488 5 0 0 2 RMod irmlev -;
#X floatatom 255 488 5 0 0 2 RM_Freq irmfreq -;
#X floatatom 313 488 5 0 0 2 Filter iflev -;
#X floatatom 371 488 5 0 0 2 Filt_Freq iffreq -;
#X floatatom 433 488 5 0 0 2 Filt_Q ifq -;
#X text 488 488 Treatment Controls;
#X text 151 108 At the Still Point of the Turning World.... Edwin Roxburgh
;
#X text 116 133 Starting Point;
#X obj 618 98 soundfiler;
#X floatatom 291 280 5 0 0 0 - - -;
#X floatatom 256 280 5 0 0 0 - - -;
#X floatatom 411 279 5 0 0 0 - - -;
#X floatatom 376 279 5 0 0 0 - - -;
#X floatatom 518 279 5 0 0 0 - - -;
#X floatatom 483 279 5 0 0 0 - - -;
#X obj 387 208 bng 20 250 50 0 reinit empty Reset 22 10 0 10 -262144
-1 -1;
#X obj 49 613 inlet~;
#N canvas 749 209 472 505 gubbins----- 0;
#X obj 60 130 inlet~;
#X obj 102 432 outlet~;
#X obj 49 432 outlet~;
#X obj 211 431 outlet~;
#X obj 158 432 outlet~;
#X obj 320 430 outlet~;
#X obj 267 431 outlet~;
#X obj 376 430 outlet~;
#N canvas 279 166 1005 673 delaysAndTreatments 0;
#X obj 541 128 r level20;
#X obj 700 127 r level42;
#X obj 849 127 r level60;
#X obj 383 131 r level15;
#X obj 229 129 r level8;
#X obj 85 123 r level4;
#X obj 72 202 r fb4;
#X obj 222 195 r fb8;
#X obj 389 204 r fb15;
#X obj 541 194 r fb20;
#X obj 72 251 s ifb4;
#X obj 228 242 s ifb8;
#X obj 402 252 s ifb15;
#X obj 556 243 s ifb20;
#X obj 389 525 r master;
#X obj 532 567 s level60;
#X obj 461 567 s level42;
#X obj 392 566 s level20;
#X obj 321 566 s level15;
#X obj 251 566 s level8;
#X obj 180 566 s level4;
#X floatatom 833 313 0 0 0 0 - - -;
#X obj 789 337 line~;
#X floatatom 789 316 0 0 0 0 - - -;
#X obj 789 289 unpack 0 0;
#X obj 789 263 r ofreq;
#X obj 244 173 s ind8;
#X obj 553 172 s ind20;
#X obj 705 177 s ind42;
#X obj 857 171 s ind60;
#X obj 85 173 s ind4;
#X obj 392 179 s ind15;
#X obj 457 377 *~;
#X obj 457 400 +~;
#X obj 442 421 *~;
#X obj 457 256 r olev20;
#X obj 471 306 s ind20;
#X obj 693 252 s ifb42;
#X obj 694 201 r fb42;
#X obj 457 351 line~;
#X obj 848 243 s ifb60;
#X obj 846 197 r fb60;
#X obj 635 479 *~;
#X obj 650 457 +~;
#X obj 650 435 *~;
#X obj 650 412 line~;
#X obj 650 317 r olev42;
#X obj 668 368 s ind42;
#N canvas 1044 22 330 421 fadmod 0;
#X obj 117 70 inlet;
#X obj 117 96 unpack 0 0;
#X obj 117 152 line 0 10;
#X obj 135 180 change;
#X obj 117 242 line~;
#X obj 102 269 *~;
#X obj 102 301 outlet~;
#X obj 41 202 inlet~;
#X obj 187 304 outlet;
#X obj 117 211 generics/linedrive 127 1 1.06 10;
#X obj 117 125 tabread \$0fadmod;
#X floatatom 198 244 5 0 0 0 - - -;
#X connect 0 0 1 0;
#X connect 1 0 10 0;
#X connect 1 1 2 1;
#X connect 2 0 3 0;
#X connect 2 0 9 0;
#X connect 3 0 8 0;
#X connect 4 0 5 1;
#X connect 5 0 6 0;
#X connect 7 0 5 0;
#X connect 9 0 4 0;
#X connect 9 0 11 0;
#X connect 10 0 2 0;
#X restore 10 147 pd fadmod 4;
#N canvas 371 22 336 309 fb 0;
#X obj 130 24 inlet;
#X obj 130 106 line 0 10;
#X obj 148 134 change;
#X obj 130 196 line~;
#X obj 115 223 *~;
#X obj 115 255 outlet~;
#X obj 54 156 inlet~;
#X obj 200 258 outlet;
#X obj 130 164 generics/linedrive 127 0.75 1.06 10;
#X connect 0 0 1 0;
#X connect 1 0 2 0;
#X connect 1 0 8 0;
#X connect 2 0 7 0;
#X connect 3 0 4 1;
#X connect 4 0 5 0;
#X connect 6 0 4 0;
#X connect 8 0 3 0;
#X restore 33 227 pd fb 4;
#X obj 789 363 osc~;
#N canvas 505 22 330 421 fadmod 0;
#X obj 117 70 inlet;
#X obj 117 96 unpack 0 0;
#X obj 117 152 line 0 10;
#X obj 135 180 change;
#X obj 117 242 line~;
#X obj 102 269 *~;
#X obj 102 301 outlet~;
#X obj 41 202 inlet~;
#X obj 187 304 outlet;
#X obj 117 125 tabread \$0fadmod;
#X obj 117 210 generics/linedrive 127 1 1.06 10;
#X connect 0 0 1 0;
#X connect 1 0 9 0;
#X connect 1 1 2 1;
#X connect 2 0 3 0;
#X connect 2 0 10 0;
#X connect 3 0 8 0;
#X connect 4 0 5 1;
#X connect 5 0 6 0;
#X connect 7 0 5 0;
#X connect 9 0 2 0;
#X connect 10 0 4 0;
#X restore 167 151 pd fadmod 8;
#N canvas 505 22 330 421 fadmod 0;
#X obj 117 70 inlet;
#X obj 117 96 unpack 0 0;
#X obj 117 152 line 0 10;
#X obj 135 180 change;
#X obj 117 242 line~;
#X obj 102 269 *~;
#X obj 102 301 outlet~;
#X obj 41 202 inlet~;
#X obj 187 304 outlet;
#X obj 117 125 tabread \$0fadmod;
#X obj 117 210 generics/linedrive 127 1 1.06 10;
#X connect 0 0 1 0;
#X connect 1 0 9 0;
#X connect 1 1 2 1;
#X connect 2 0 3 0;
#X connect 2 0 10 0;
#X connect 3 0 8 0;
#X connect 4 0 5 1;
#X connect 5 0 6 0;
#X connect 7 0 5 0;
#X connect 9 0 2 0;
#X connect 10 0 4 0;
#X restore 320 152 pd fadmod 15;
#N canvas 505 22 330 421 fadmod 0;
#X obj 117 70 inlet;
#X obj 117 96 unpack 0 0;
#X obj 117 152 line 0 10;
#X obj 135 180 change;
#X obj 117 242 line~;
#X obj 102 269 *~;
#X obj 102 301 outlet~;
#X obj 41 202 inlet~;
#X obj 187 304 outlet;
#X obj 117 125 tabread \$0fadmod;
#X obj 117 208 generics/linedrive 127 1 1.06 10;
#X connect 0 0 1 0;
#X connect 1 0 9 0;
#X connect 1 1 2 1;
#X connect 2 0 3 0;
#X connect 2 0 10 0;
#X connect 3 0 8 0;
#X connect 4 0 5 1;
#X connect 5 0 6 0;
#X connect 7 0 5 0;
#X connect 9 0 2 0;
#X connect 10 0 4 0;
#X restore 478 150 pd fadmod 20;
#N canvas 505 22 330 421 fadmod 0;
#X obj 117 70 inlet;
#X obj 117 96 unpack 0 0;
#X obj 117 152 line 0 10;
#X obj 135 180 change;
#X obj 117 242 line~;
#X obj 102 269 *~;
#X obj 102 301 outlet~;
#X obj 41 202 inlet~;
#X obj 187 304 outlet;
#X obj 117 125 tabread \$0fadmod;
#X obj 117 210 generics/linedrive 127 1 1.06 10;
#X connect 0 0 1 0;
#X connect 1 0 9 0;
#X connect 1 1 2 1;
#X connect 2 0 3 0;
#X connect 2 0 10 0;
#X connect 3 0 8 0;
#X connect 4 0 5 1;
#X connect 5 0 6 0;
#X connect 7 0 5 0;
#X connect 9 0 2 0;
#X connect 10 0 4 0;
#X restore 631 149 pd fadmod 42;
#N canvas 505 22 330 421 fadmod 0;
#X obj 117 70 inlet;
#X obj 117 96 unpack 0 0;
#X obj 117 152 line 0 10;
#X obj 135 180 change;
#X obj 117 242 line~;
#X obj 102 269 *~;
#X obj 102 301 outlet~;
#X obj 41 202 inlet~;
#X obj 187 304 outlet;
#X obj 117 124 tabread \$0fadmod;
#X obj 117 210 generics/linedrive 127 1 1.06 10;
#X connect 0 0 1 0;
#X connect 1 0 9 0;
#X connect 1 1 2 1;
#X connect 2 0 3 0;
#X connect 2 0 10 0;
#X connect 3 0 8 0;
#X connect 4 0 5 1;
#X connect 5 0 6 0;
#X connect 7 0 5 0;
#X connect 9 0 2 0;
#X connect 10 0 4 0;
#X restore 780 149 pd fadmod 60;
#N canvas 503 22 336 309 fb 0;
#X obj 130 24 inlet;
#X obj 130 106 line 0 10;
#X obj 148 134 change;
#X obj 130 196 line~;
#X obj 115 223 *~;
#X obj 115 255 outlet~;
#X obj 54 156 inlet~;
#X obj 200 258 outlet;
#X obj 130 164 generics/linedrive 127 0.75 1.06 10;
#X connect 0 0 1 0;
#X connect 1 0 2 0;
#X connect 1 0 8 0;
#X connect 2 0 7 0;
#X connect 3 0 4 1;
#X connect 4 0 5 0;
#X connect 6 0 4 0;
#X connect 8 0 3 0;
#X restore 182 217 pd fb 8;
#N canvas 503 22 336 309 fb 0;
#X obj 130 24 inlet;
#X obj 130 106 line 0 10;
#X obj 148 134 change;
#X obj 130 196 line~;
#X obj 115 223 *~;
#X obj 115 255 outlet~;
#X obj 54 156 inlet~;
#X obj 200 258 outlet;
#X obj 130 164 generics/linedrive 127 0.75 1.06 10;
#X connect 0 0 1 0;
#X connect 1 0 2 0;
#X connect 1 0 8 0;
#X connect 2 0 7 0;
#X connect 3 0 4 1;
#X connect 4 0 5 0;
#X connect 6 0 4 0;
#X connect 8 0 3 0;
#X restore 344 229 pd fb 15;
#N canvas 503 22 336 309 fb 0;
#X obj 130 24 inlet;
#X obj 130 106 line 0 10;
#X obj 148 134 change;
#X obj 130 196 line~;
#X obj 115 223 *~;
#X obj 115 255 outlet~;
#X obj 54 156 inlet~;
#X obj 200 258 outlet;
#X obj 130 163 generics/linedrive 127 0.75 1.06 10;
#X connect 0 0 1 0;
#X connect 1 0 2 0;
#X connect 1 0 8 0;
#X connect 2 0 7 0;
#X connect 3 0 4 1;
#X connect 4 0 5 0;
#X connect 6 0 4 0;
#X connect 8 0 3 0;
#X restore 496 218 pd fb 20;
#N canvas 503 22 336 309 fb 0;
#X obj 130 24 inlet;
#X obj 130 106 line 0 10;
#X obj 148 134 change;
#X obj 130 196 line~;
#X obj 115 223 *~;
#X obj 115 255 outlet~;
#X obj 54 156 inlet~;
#X obj 200 258 outlet;
#X obj 129 164 generics/linedrive 127 0.75 1.06 10;
#X connect 0 0 1 0;
#X connect 1 0 2 0;
#X connect 1 0 8 0;
#X connect 2 0 7 0;
#X connect 3 0 4 1;
#X connect 4 0 5 0;
#X connect 6 0 4 0;
#X connect 8 0 3 0;
#X restore 649 224 pd fb 42;
#N canvas 503 22 336 309 fb 0;
#X obj 130 24 inlet;
#X obj 130 106 line 0 10;
#X obj 148 134 change;
#X obj 130 196 line~;
#X obj 115 223 *~;
#X obj 115 255 outlet~;
#X obj 54 156 inlet~;
#X obj 200 258 outlet;
#X obj 130 164 generics/linedrive 127 0.75 1.06 10;
#X connect 0 0 1 0;
#X connect 1 0 2 0;
#X connect 1 0 8 0;
#X connect 2 0 7 0;
#X connect 3 0 4 1;
#X connect 4 0 5 0;
#X connect 6 0 4 0;
#X connect 8 0 3 0;
#X restore 802 219 pd fb 60;
#X obj 650 340 line 0 10;
#X obj 457 279 line 0 10;
#X text 248 602 This patcher contains the delay system with controls
for output levels and feedback.;
#X obj -13 -2 inlet~;
#X obj -8 570 outlet~;
#X obj 10 172 outlet~ op1;
#X obj 167 176 outlet~ op2;
#X obj 320 178 outlet~ op3;
#X obj 478 174 outlet~ op4;
#X obj 631 177 outlet~ op5;
#X obj 780 172 outlet~ op6;
#X obj 21 531 delwrite~ turning 60000;
#X obj 221 -38 block~ 16;
#N canvas 881 74 469 351 treatments 0;
#X obj 214 110 change;
#X obj 304 160 change;
#X obj 376 207 change;
#X obj 294 63 unpack 0 0;
#X obj 294 136 mtof;
#X obj 294 112 + 57;
#X obj 304 185 s iffreq;
#X obj 294 87 / 2;
#N canvas 611 53 373 336 filter 0;
#X obj 35 68 change;
#X obj 230 61 inlet;
#X msg 269 89 \$1 100;
#X obj 269 112 line~;
#X obj 20 202 *~;
#X obj 20 154 line~;
#X obj 35 90 s iflev;
#X obj 20 47 line 0 10;
#X obj 20 25 r flev;
#X obj 269 62 inlet;
#X obj 191 61 inlet;
#X obj 20 251 *~;
#X obj 20 282 outlet~;
#X text 102 13 inputs: signal \, frequency \, slew rate \, q;
#X text 77 287 signal to delays;
#X obj 191 203 line;
#X obj 289 174 line;
#X floatatom 235 230 5 0 0 0 - - -;
#X obj 111 62 inlet~;
#N canvas 52 182 1036 641 e_resonzq 0;
#X obj 89 376 cpole~;
#X obj 89 446 cpole~;
#X obj 223 199 t a a;
#X obj 223 305 * 0;
#X obj 255 304 * 0;
#X obj 255 353 * -1;
#X obj 223 227 cos;
#X obj 255 227 sin;
#X obj 355 202 t b a b a a;
#X obj 429 348 *;
#X obj 429 322 t a a;
#X msg 429 373 1 \$1;
#X obj 429 398 -;
#X obj 474 497 sqrt;
#N canvas 441 218 450 300 demux 0;
#X obj 110 46 inlet;
#X obj 110 181 outlet;
#X obj 185 180 outlet;
#X obj 238 43 inlet;
#X obj 110 153 spigot 1;
#X obj 185 150 spigot 0;
#X obj 163 108 == 0;
#X connect 0 0 4 0;
#X connect 0 0 5 0;
#X connect 3 0 6 0;
#X connect 3 0 5 1;
#X connect 4 0 1 0;
#X connect 5 0 2 0;
#X connect 6 0 4 1;
#X restore 429 473 pd demux;
#X obj 429 443 * 0.5;
#X text 659 245 Variance gain: Variance gain is the gain achieved by
feeding white noise. To normalize variance gain \, multiply by the
square root of the peak gain normalization.;
#X text 657 313 This then will normalize the resonator such that the
output signal power equals the input signal power when the input signal
is white noise.;
#X text 659 131 The peak gain of a resonator normalized with zeroes
at -1 and 1 is: 2/(1-R^2). So we divide by that to get a peak gain
of 1 \, that is we multiply by (1-R^2)/2;
#X text 661 191 Peak gain means: If we send sine waves into the filter
\, then the peak gain is the maximum gain achieved at the peak gain
frequency.;
#N canvas 0 22 784 558 2piT 0;
#X obj 342 189 atan;
#X msg 342 165 1;
#X obj 342 282 / 44100;
#X obj 418 249 samplerate~;
#X msg 417 227 bang;
#X obj 342 143 t b b;
#X msg 357 115 bang;
#X obj 342 77 loadbang;
#X obj 206 203 inlet;
#X obj 206 335 outlet;
#X obj 206 299 *;
#X obj 342 218 * 8;
#X text 92 34 calculates input times 2*pi*T to get normalized radians
frequency;
#X connect 0 0 11 0;
#X connect 1 0 0 0;
#X connect 2 0 10 1;
#X connect 3 0 2 1;
#X connect 4 0 3 0;
#X connect 5 0 1 0;
#X connect 5 1 3 0;
#X connect 6 0 5 0;
#X connect 7 0 5 0;
#X connect 8 0 10 0;
#X connect 10 0 9 0;
#X connect 11 0 2 0;
#X restore 223 173 pd 2piT;
#X obj 223 47 inlet;
#X obj 89 47 inlet~;
#X obj 89 68 rzero~ -1;
#X obj 89 87 rzero~ 1;
#N canvas 0 22 784 558 exp(-piBT) 0;
#X obj 206 203 inlet;
#X obj 206 385 outlet;
#X obj 206 299 *;
#X obj 277 189 atan;
#X msg 277 165 1;
#X floatatom 295 250 5 0 0 0 - - -;
#X obj 277 282 / 44100;
#X obj 353 249 samplerate~;
#X msg 352 227 bang;
#X obj 277 143 t b b;
#X obj 277 218 * -4;
#X msg 292 113 bang;
#X obj 277 83 loadbang;
#X obj 206 323 exp;
#X text 92 34 calculates exp of input times -pi*T to get normalized
radians frequency;
#X connect 0 0 2 0;
#X connect 2 0 13 0;
#X connect 3 0 10 0;
#X connect 4 0 3 0;
#X connect 6 0 2 1;
#X connect 7 0 6 1;
#X connect 8 0 7 0;
#X connect 9 0 4 0;
#X connect 9 1 7 0;
#X connect 10 0 5 0;
#X connect 10 0 6 0;
#X connect 11 0 9 0;
#X connect 12 0 9 0;
#X connect 13 0 1 0;
#X restore 355 165 pd exp(-piBT);
#X obj 355 49 inlet;
#X text 229 25 fc (Hz);
#X text 374 186 R = exp(-PI*B*T);
#X obj 544 46 inlet;
#X text 649 93 Peak gain normalized resonator (Csound's "resonz" opcode)
;
#X obj 88 596 outlet~;
#X text 340 444 (1-R^2)/2;
#X obj 589 307 t b a;
#X obj 429 292 spigot;
#X obj 544 256 select 0;
#X msg 544 281 1;
#X obj 474 443 - 1;
#X text 541 26 scaling;
#X text 430 120 BW=fc/Q;
#X text 354 25 Q;
#X obj 355 142 /;
#X obj 355 115 t b a;
#X obj 223 144 t a a;
#N canvas 0 22 267 205 s 0;
#X obj 65 98 line~;
#X obj 65 77 pack 0 10;
#X obj 65 53 inlet;
#X obj 65 122 outlet~;
#X connect 0 0 3 0;
#X connect 1 0 0 0;
#X connect 2 0 1 0;
#X restore 116 347 pd s;
#N canvas 0 22 267 205 s 0;
#X obj 65 98 line~;
#X obj 65 77 pack 0 10;
#X obj 65 53 inlet;
#X obj 65 122 outlet~;
#X connect 0 0 3 0;
#X connect 1 0 0 0;
#X connect 2 0 1 0;
#X restore 156 348 pd s;
#N canvas 0 22 267 205 s 0;
#X obj 65 98 line~;
#X obj 65 77 pack 0 10;
#X obj 65 53 inlet;
#X obj 65 122 outlet~;
#X connect 0 0 3 0;
#X connect 1 0 0 0;
#X connect 2 0 1 0;
#X restore 124 416 pd s;
#N canvas 0 22 267 205 s 0;
#X obj 65 98 line~;
#X obj 65 77 pack 0 10;
#X obj 65 53 inlet;
#X obj 65 122 outlet~;
#X connect 0 0 3 0;
#X connect 1 0 0 0;
#X connect 2 0 1 0;
#X restore 164 417 pd s;
#N canvas 0 22 267 205 s 0;
#X obj 65 98 line~;
#X obj 65 77 pack 0 10;
#X obj 65 53 inlet;
#X obj 65 122 outlet~;
#X connect 0 0 3 0;
#X connect 1 0 0 0;
#X connect 2 0 1 0;
#X restore 107 543 pd s;
#X obj 88 566 *~;
#N canvas 228 198 627 317 LICENSE-BSD 0;
#X text 121 56 This software is copyrighted by Miller Puckette \, Reality
Jockey Ltd. and others. The terms (the "Standard Improved BSD License")
apply to all files associated with the software unless explicitly disclaimed
in individual files.;
#X text 123 148 See the file LICENSE.txt for the full license text.
;
#X restore 783 30 pd LICENSE-BSD;
#X obj 223 89 f;
#X obj 355 90 f;
#X obj 544 90 f 1;
#X obj 561 66 r stillInit;
#X connect 0 0 1 0;
#X connect 0 1 1 1;
#X connect 1 0 49 0;
#X connect 2 0 6 0;
#X connect 2 1 7 0;
#X connect 3 0 44 0;
#X connect 3 0 46 0;
#X connect 4 0 5 0;
#X connect 4 0 45 0;
#X connect 5 0 47 0;
#X connect 6 0 3 0;
#X connect 7 0 4 0;
#X connect 8 0 3 0;
#X connect 8 1 3 1;
#X connect 8 2 4 0;
#X connect 8 3 4 1;
#X connect 8 4 34 0;
#X connect 9 0 11 0;
#X connect 10 0 9 0;
#X connect 10 1 9 1;
#X connect 11 0 12 0;
#X connect 12 0 15 0;
#X connect 13 0 48 0;
#X connect 14 0 48 0;
#X connect 14 1 13 0;
#X connect 15 0 14 0;
#X connect 20 0 2 0;
#X connect 21 0 51 0;
#X connect 22 0 23 0;
#X connect 23 0 24 0;
#X connect 24 0 0 0;
#X connect 25 0 8 0;
#X connect 26 0 52 0;
#X connect 29 0 53 0;
#X connect 33 0 15 0;
#X connect 33 1 37 0;
#X connect 34 0 10 0;
#X connect 35 0 36 0;
#X connect 35 1 33 0;
#X connect 36 0 48 0;
#X connect 37 0 14 1;
#X connect 41 0 25 0;
#X connect 42 0 41 0;
#X connect 42 1 41 1;
#X connect 43 0 20 0;
#X connect 43 1 41 0;
#X connect 44 0 0 2;
#X connect 45 0 0 3;
#X connect 46 0 1 2;
#X connect 47 0 1 3;
#X connect 48 0 49 1;
#X connect 49 0 31 0;
#X connect 51 0 43 0;
#X connect 52 0 42 0;
#X connect 53 0 35 0;
#X connect 53 0 34 1;
#X connect 54 0 53 0;
#X restore 151 231 pd e_resonzq;
#X obj 64 151 print flev;
#X obj 20 111 generics/linedrive 127 0.5 1.06 10;
#X connect 0 0 6 0;
#X connect 1 0 15 1;
#X connect 2 0 3 0;
#X connect 2 0 16 0;
#X connect 3 0 4 1;
#X connect 4 0 11 0;
#X connect 5 0 4 0;
#X connect 7 0 0 0;
#X connect 7 0 21 0;
#X connect 8 0 7 0;
#X connect 8 0 20 0;
#X connect 9 0 2 0;
#X connect 10 0 15 0;
#X connect 11 0 12 0;
#X connect 15 0 19 1;
#X connect 16 0 19 2;
#X connect 17 0 19 3;
#X connect 18 0 19 0;
#X connect 19 0 11 1;
#X connect 21 0 5 0;
#X restore 248 228 pd filter;
#X obj 248 191 +~;
#X obj 158 108 *~;
#X obj 200 88 r modfreq;
#X obj 214 133 s irmfreq;
#X obj 173 37 r stof;
#X obj 173 64 line~;
#X obj 376 230 s ifq;
#X obj 294 39 r ffreq;
#X obj 33 69 r dirlev;
#X obj 33 196 line~;
#X obj 33 225 *~;
#X obj 33 97 line 0 10;
#X obj 45 145 s idirlev;
#X obj 376 134 r fq;
#X obj 376 157 + 1;
#X obj 376 180 / 2;
#N canvas 708 418 269 343 ringmod 0;
#X obj 39 130 change;
#X obj 134 189 r rmtof;
#X obj 134 244 *~;
#X obj 134 216 line~;
#X obj 26 245 *~;
#X obj 26 217 line~;
#X obj 115 140 *~;
#X obj 165 108 osc~;
#X obj 165 77 sig~;
#X obj 165 46 inlet;
#X obj 26 81 r modlev;
#X obj 26 108 line 0 10;
#X obj 39 153 s irmlev;
#X obj 26 276 outlet~;
#X obj 134 277 outlet~;
#X obj 115 45 inlet~;
#X obj 96 311 print modlev;
#X obj 186 266 print rmtof;
#X obj 26 174 generics/linedrive 127 0.75 1.06 10;
#X connect 0 0 12 0;
#X connect 1 0 3 0;
#X connect 1 0 17 0;
#X connect 2 0 14 0;
#X connect 3 0 2 0;
#X connect 4 0 13 0;
#X connect 5 0 4 0;
#X connect 6 0 4 1;
#X connect 6 0 2 1;
#X connect 7 0 6 1;
#X connect 8 0 7 0;
#X connect 9 0 8 0;
#X connect 10 0 11 0;
#X connect 10 0 16 0;
#X connect 11 0 0 0;
#X connect 11 0 18 0;
#X connect 15 0 6 0;
#X connect 18 0 5 0;
#X restore 143 143 pd ringmod;
#X obj 45 122 change;
#X obj 123 72 inlet~;
#X obj 149 299 outlet~;
#X obj 248 298 outlet~ op7;
#X obj 5 290 print dirlev;
#X obj 89 233 print stof;
#X obj 158 233 print modfreq;
#X obj 291 256 print ffreq;
#X obj 371 274 print fq;
#X obj 33 171 generics/linedrive 127 1 1.06 10;
#X connect 0 0 12 0;
#X connect 1 0 6 0;
#X connect 2 0 15 0;
#X connect 3 0 7 0;
#X connect 3 1 8 2;
#X connect 4 0 8 1;
#X connect 4 0 1 0;
#X connect 5 0 4 0;
#X connect 7 0 5 0;
#X connect 8 0 28 0;
#X connect 8 0 29 0;
#X connect 9 0 8 0;
#X connect 10 0 9 1;
#X connect 11 0 25 1;
#X connect 11 0 0 0;
#X connect 11 0 32 0;
#X connect 13 0 14 0;
#X connect 13 0 31 0;
#X connect 14 0 10 1;
#X connect 16 0 3 0;
#X connect 16 0 33 0;
#X connect 17 0 20 0;
#X connect 17 0 30 0;
#X connect 18 0 19 0;
#X connect 19 0 28 0;
#X connect 20 0 26 0;
#X connect 20 0 35 0;
#X connect 22 0 23 0;
#X connect 22 0 34 0;
#X connect 23 0 24 0;
#X connect 24 0 8 3;
#X connect 24 0 2 0;
#X connect 25 0 28 0;
#X connect 25 0 29 0;
#X connect 25 1 9 0;
#X connect 26 0 21 0;
#X connect 27 0 19 1;
#X connect 27 0 10 0;
#X connect 27 0 25 0;
#X connect 35 0 18 0;
#X restore 21 485 pd treatments;
#X msg 76 16 4200;
#X msg 234 9 8750;
#X msg 389 11 15000;
#X msg 565 9 20000;
#X msg 700 8 42000;
#X msg 815 10 60000;
#X obj 700 30 vd~ turning;
#X obj 815 33 vd~ turning;
#X obj 565 35 vd~ turning;
#X obj 389 36 vd~ turning;
#X obj 235 33 vd~ turning;
#X obj 73 43 vd~ turning;
#X obj 457 329 generics/linedrive 127 1 1.06 10;
#X obj 650 391 generics/linedrive 127 1 1.06 10;
#X obj 84 -26 r stillInit;
#X connect 0 0 53 1;
#X connect 1 0 54 1;
#X connect 2 0 55 1;
#X connect 3 0 52 1;
#X connect 4 0 51 1;
#X connect 5 0 48 1;
#X connect 6 0 49 1;
#X connect 7 0 56 1;
#X connect 8 0 57 1;
#X connect 9 0 58 1;
#X connect 14 0 20 0;
#X connect 14 0 19 0;
#X connect 14 0 18 0;
#X connect 14 0 17 0;
#X connect 14 0 16 0;
#X connect 14 0 15 0;
#X connect 21 0 22 1;
#X connect 22 0 50 0;
#X connect 23 0 22 0;
#X connect 24 0 23 0;
#X connect 24 1 21 0;
#X connect 25 0 24 0;
#X connect 32 0 33 0;
#X connect 33 0 34 1;
#X connect 34 0 69 0;
#X connect 35 0 62 0;
#X connect 38 0 59 1;
#X connect 39 0 32 0;
#X connect 39 0 33 1;
#X connect 41 0 60 1;
#X connect 42 0 70 0;
#X connect 43 0 42 1;
#X connect 44 0 43 0;
#X connect 45 0 44 0;
#X connect 45 0 43 1;
#X connect 46 0 61 0;
#X connect 48 0 66 0;
#X connect 48 1 30 0;
#X connect 49 0 74 0;
#X connect 49 1 10 0;
#X connect 50 0 32 1;
#X connect 50 0 44 1;
#X connect 51 0 67 0;
#X connect 51 1 26 0;
#X connect 52 0 68 0;
#X connect 52 1 31 0;
#X connect 53 0 69 0;
#X connect 53 1 27 0;
#X connect 54 0 42 0;
#X connect 54 0 70 0;
#X connect 54 1 28 0;
#X connect 55 0 71 0;
#X connect 55 1 29 0;
#X connect 56 0 74 0;
#X connect 56 1 11 0;
#X connect 57 0 74 0;
#X connect 57 1 12 0;
#X connect 58 0 74 0;
#X connect 58 1 13 0;
#X connect 59 0 74 0;
#X connect 59 1 37 0;
#X connect 60 0 74 0;
#X connect 60 1 40 0;
#X connect 61 0 47 0;
#X connect 61 0 88 0;
#X connect 62 0 36 0;
#X connect 62 0 87 0;
#X connect 64 0 74 0;
#X connect 74 0 72 0;
#X connect 74 1 65 0;
#X connect 75 0 86 0;
#X connect 76 0 85 0;
#X connect 77 0 84 0;
#X connect 78 0 83 0;
#X connect 79 0 81 0;
#X connect 80 0 82 0;
#X connect 81 0 54 0;
#X connect 81 0 59 0;
#X connect 82 0 55 0;
#X connect 82 0 60 0;
#X connect 83 0 53 0;
#X connect 83 0 58 0;
#X connect 83 0 34 0;
#X connect 84 0 52 0;
#X connect 84 0 57 0;
#X connect 85 0 51 0;
#X connect 85 0 56 0;
#X connect 86 0 48 0;
#X connect 86 0 49 0;
#X connect 87 0 39 0;
#X connect 88 0 45 0;
#X connect 89 0 75 0;
#X connect 89 0 76 0;
#X connect 89 0 77 0;
#X connect 89 0 78 0;
#X connect 89 0 79 0;
#X connect 89 0 80 0;
#X restore 60 207 pd delaysAndTreatments;
#X connect 0 0 8 0;
#X connect 8 0 7 0;
#X connect 8 1 2 0;
#X connect 8 2 1 0;
#X connect 8 3 4 0;
#X connect 8 4 3 0;
#X connect 8 5 6 0;
#X connect 8 6 5 0;
#X restore 69 638 pd gubbins-----;
#X obj 35 688 outlet~;
#X obj 89 688 outlet~;
#X obj 141 689 outlet~;
#X obj 195 689 outlet~;
#X obj 249 688 outlet~;
#X obj 303 688 outlet~;
#X obj 355 689 outlet~;
#X obj 409 689 outlet~;
#X obj 485 5 inlet;
#X obj 793 670 outlet rejected;
#X obj 618 307 r reinit;
#X msg 623 627 ready \$1;
#X obj 485 27 route start stop reset clickTrack coll fadmod;
#X msg 698 125 read \$1;
#X msg 757 124 read \$1;
#X obj 109 35 table \$0clickTrack;
#X obj 699 146 s \$0coll;
#X obj 757 146 s \$0fadmod;
#X obj 108 77 table \$0fadmod 128;
#X obj 618 52 pack s \$0;
#X msg 618 76 read -resize \$1 \$2clickTrack;
#X obj 609 123 sel 0 1;
#X obj 698 104 symbol;
#X obj 757 102 symbol;
#X obj 295 173 tgl 15 0 empty empty Start/Stop 17 7 0 10 -262144 -1
-1 1 1;
#X msg 520 72 0;
#X obj 520 48 del 10;
#X msg 510 652 minutes \$1;
#X msg 591 650 seconds \$1;
#X msg 697 343 \; run 0 \; level4 0 \; level8 0 \; level15 0 \; level20
0 \; level42 0 \; level60 0 \; olev20 0 \; olev42 0 \; ofreq 0 \; fb4
0 \; fb8 0 \; fb15 0 \; fb20 0 \; fb42 0 \; fb60 0 \; modlev 0 \; flev
0 \; clock 0 \; reset bang \; ready 1 \;;
#X obj 108 56 table \$0coll 323;
#X connect 1 0 58 0;
#X connect 1 1 57 0;
#X connect 2 0 56 0;
#X connect 2 1 55 0;
#X connect 3 0 54 0;
#X connect 3 1 53 0;
#X connect 4 0 90 0;
#X connect 5 0 89 0;
#X connect 6 0 5 0;
#X connect 6 1 4 0;
#X connect 9 0 69 0;
#X connect 10 0 3 0;
#X connect 10 1 2 0;
#X connect 10 2 1 0;
#X connect 10 3 71 0;
#X connect 11 0 73 0;
#X connect 18 0 10 2;
#X connect 60 0 61 0;
#X connect 61 0 62 0;
#X connect 61 1 63 0;
#X connect 61 2 64 0;
#X connect 61 3 65 0;
#X connect 61 4 66 0;
#X connect 61 5 67 0;
#X connect 61 6 68 0;
#X connect 70 0 74 0;
#X connect 72 0 91 0;
#X connect 73 0 71 0;
#X connect 74 0 86 0;
#X connect 74 1 88 0;
#X connect 74 2 59 0;
#X connect 74 3 81 0;
#X connect 74 4 84 0;
#X connect 74 5 85 0;
#X connect 74 6 10 3;
#X connect 75 0 78 0;
#X connect 76 0 79 0;
#X connect 81 0 82 0;
#X connect 82 0 52 0;
#X connect 83 0 19 0;
#X connect 83 1 10 0;
#X connect 84 0 75 0;
#X connect 85 0 76 0;
#X connect 86 0 83 0;
#X connect 87 0 86 0;
#X connect 88 0 87 0;
#X connect 89 0 71 0;
#X connect 90 0 71 0;
#X coords 0 -1 1 1 500 500 1 100 100;
#X restore 93 79 pd interface;
#X obj 93 46 inlet~;
#X obj 93 595 outlet~;
#X obj 163 595 outlet~;
#X obj 231 597 outlet~;
#X obj 301 597 outlet~;
#X obj 354 598 outlet~;
#X obj 404 596 outlet~;
#X obj 459 594 outlet~;
#X obj 518 594 outlet~;
#X obj 561 52 inlet;
#X obj 579 597 outlet rejected;
#N canvas 575 22 746 328 manualLoad 1;
#X obj 198 225 outlet;
#X msg 52 153 coll \$1;
#X msg 135 151 fadmod \$1;
#X obj 52 131 openpanel;
#X obj 52 112 bng 15 250 50 0 empty empty empty 17 7 0 10 -262144 -1
-1;
#X obj 135 128 openpanel;
#X obj 135 109 bng 15 250 50 0 empty empty empty 17 7 0 10 -262144
-1 -1;
#X obj 217 125 openpanel;
#X obj 217 106 bng 15 250 50 0 empty empty empty 17 7 0 10 -262144
-1 -1;
#X msg 217 148 clickTrack \$1;
#X obj 324 123 openpanel;
#X obj 324 104 bng 15 250 50 0 empty empty empty 17 7 0 10 -262144
-1 -1;
#X msg 323 146 delayEvents \$1;
#X obj 438 123 openpanel;
#X obj 438 104 bng 15 250 50 0 empty empty empty 17 7 0 10 -262144
-1 -1;
#X msg 437 146 feedbackEvents \$1;
#X obj 573 122 openpanel;
#X obj 573 103 bng 15 250 50 0 empty empty empty 17 7 0 10 -262144
-1 -1;
#X msg 572 145 treatmentEvents \$1;
#X connect 1 0 0 0;
#X connect 2 0 0 0;
#X connect 3 0 1 0;
#X connect 4 0 3 0;
#X connect 5 0 2 0;
#X connect 6 0 5 0;
#X connect 7 0 9 0;
#X connect 8 0 7 0;
#X connect 9 0 0 0;
#X connect 10 0 12 0;
#X connect 11 0 10 0;
#X connect 12 0 0 0;
#X connect 13 0 15 0;
#X connect 14 0 13 0;
#X connect 15 0 0 0;
#X connect 16 0 18 0;
#X connect 17 0 16 0;
#X connect 18 0 0 0;
#X restore 460 41 pd manualLoad;
#X obj 341 31 inlet init;
#X obj 342 50 s stillInit;
#X connect 0 0 2 0;
#X connect 0 1 3 0;
#X connect 0 2 4 0;
#X connect 0 3 5 0;
#X connect 0 4 6 0;
#X connect 0 5 7 0;
#X connect 0 6 8 0;
#X connect 0 7 9 0;
#X connect 0 8 11 0;
#X connect 1 0 0 0;
#X connect 10 0 0 1;
#X connect 12 0 0 1;
#X connect 13 0 14 0;
#X restore 111 127 pd stillPoint---;
#X obj 58 37 inlet~;
#X obj 69 243 outlet~;
#X obj 20 244 outlet~;
#X obj 168 240 outlet~;
#X obj 119 241 outlet~;
#X obj 267 238 outlet~;
#X obj 218 239 outlet~;
#X obj 317 236 outlet~;
#X obj 58 85 handlers/mono_pre_processor;
#X obj 132 37 handlers/ntg_receive \$1;
#X obj 301 189 handlers/ntg_send \$1;
#N canvas 0 22 717 253 octoPostProcessor 0;
#X obj 102 74 inlet~;
#X obj 102 116 *~;
#X obj 102 138 outlet~;
#X obj 156 75 inlet~;
#X obj 156 117 *~;
#X obj 156 139 outlet~;
#X obj 210 77 inlet~;
#X obj 210 119 *~;
#X obj 210 141 outlet~;
#X obj 264 78 inlet~;
#X obj 264 120 *~;
#X obj 264 142 outlet~;
#X obj 318 78 inlet~;
#X obj 318 120 *~;
#X obj 318 142 outlet~;
#X obj 372 79 inlet~;
#X obj 372 121 *~;
#X obj 372 143 outlet~;
#X obj 426 81 inlet~;
#X obj 426 123 *~;
#X obj 426 145 outlet~;
#X obj 480 82 inlet~;
#X obj 480 124 *~;
#X obj 480 146 outlet~;
#X obj 36 73 inlet~;
#X obj 36 115 *~;
#X obj 36 137 outlet~;
#X obj 568 102 line~;
#X msg 568 79 \$1 20;
#X obj 568 20 inlet;
#X obj 568 48 route mix;
#X obj 623 143 line~;
#X msg 623 120 \$1 20;
#X obj 623 98 -;
#X msg 623 77 1 \$1;
#X obj 669 197 outlet;
#X msg 505 36 1;
#X connect 0 0 1 0;
#X connect 1 0 2 0;
#X connect 3 0 4 0;
#X connect 4 0 5 0;
#X connect 6 0 7 0;
#X connect 7 0 8 0;
#X connect 9 0 10 0;
#X connect 10 0 11 0;
#X connect 12 0 13 0;
#X connect 13 0 14 0;
#X connect 15 0 16 0;
#X connect 16 0 17 0;
#X connect 18 0 19 0;
#X connect 19 0 20 0;
#X connect 21 0 22 0;
#X connect 22 0 23 0;
#X connect 24 0 25 0;
#X connect 25 0 26 0;
#X connect 27 0 22 1;
#X connect 27 0 19 1;
#X connect 27 0 16 1;
#X connect 27 0 13 1;
#X connect 27 0 10 1;
#X connect 27 0 7 1;
#X connect 27 0 4 1;
#X connect 27 0 1 1;
#X connect 28 0 27 0;
#X connect 29 0 30 0;
#X connect 30 0 28 0;
#X connect 30 0 34 0;
#X connect 30 1 35 0;
#X connect 31 0 25 1;
#X connect 32 0 31 0;
#X connect 33 0 32 0;
#X connect 34 0 33 0;
#X connect 36 0 28 0;
#X restore 63 161 pd octoPostProcessor;
#X obj 379 237 outlet~ clickTrack;
#X connect 0 0 12 1;
#X connect 0 1 12 2;
#X connect 0 2 12 3;
#X connect 0 3 12 4;
#X connect 0 4 12 5;
#X connect 0 5 12 6;
#X connect 0 6 12 7;
#X connect 0 7 12 8;
#X connect 0 8 12 9;
#X connect 1 0 9 0;
#X connect 9 0 12 0;
#X connect 9 1 0 0;
#X connect 9 2 0 1;
#X connect 9 3 0 2;
#X connect 10 0 9 1;
#X connect 10 2 9 2;
#X connect 12 0 3 0;
#X connect 12 0 2 0;
#X connect 12 0 5 0;
#X connect 12 0 4 0;
#X connect 12 0 7 0;
#X connect 12 0 6 0;
#X connect 12 0 8 0;
#X connect 12 1 3 0;
#X connect 12 2 2 0;
#X connect 12 3 5 0;
#X connect 12 4 4 0;
#X connect 12 5 7 0;
#X connect 12 6 6 0;
#X connect 12 7 8 0;
#X connect 12 8 13 0;
#X connect 12 9 11 0;
