#N canvas 69 274 696 442 10;
#X text 129 32 waveform i \, adsr a d s r \, formant number frequency
q \, lp freq ampfactor;
#X obj 233 204 snapshot~;
#N canvas 336 77 1092 641 tone_generator 0;
#X obj 606 723 outlet~;
#X obj 205 127 f;
#X obj 181 160 phasor~;
#X obj 455 299 cos~;
#X obj 417 156 == 0;
#X obj 637 169 == 1;
#X obj 811 156 == 2;
#X obj 434 386 *~;
#X obj 637 286 clip~ -1 1;
#X obj 627 323 *~;
#X obj 807 184 -~ 0.5;
#X obj 791 333 *~;
#X obj 807 247 abs~;
#X obj 812 214 *~ 2;
#X obj 651 233 /;
#X obj 243 167 bng 15 250 50 0 empty empty empty 17 7 0 10 -262144
-1 -1;
#X obj 637 260 *~;
#X obj 804 275 -~ 0.5;
#X msg 650 209 10000;
#X obj 600 596 bp~;
#X obj 555 593 bp~;
#X obj 486 488 route 1 2;
#X obj 452 544 unpack 0 0;
#X obj 571 510 *~ 0.2;
#X obj 573 668 lop~;
#X obj 464 34 inlet;
#X obj 487 450 inlet;
#X obj 594 639 inlet;
#X obj 205 47 inlet;
#X text 200 74 Freq / Hz;
#X text 633 639 lp freq;
#X text 407 45 sine;
#X text 628 130 square;
#X text 809 108 triangle;
#X obj 892 336 *~;
#X obj 912 159 == 3;
#X text 910 111 sawtooth;
#X text 455 10 waveform: 0=sine \, 1=square \, 2=triangle \, 3=sawtooth
;
#X text 366 462 formant n freq Q;
#X obj 537 547 unpack 0 0;
#X connect 1 0 2 0;
#X connect 1 0 14 1;
#X connect 1 0 15 0;
#X connect 2 0 3 0;
#X connect 2 0 10 0;
#X connect 3 0 7 1;
#X connect 4 0 7 0;
#X connect 5 0 9 0;
#X connect 6 0 11 0;
#X connect 7 0 23 0;
#X connect 8 0 9 1;
#X connect 9 0 23 0;
#X connect 10 0 13 0;
#X connect 11 0 23 0;
#X connect 12 0 17 0;
#X connect 13 0 12 0;
#X connect 13 0 34 1;
#X connect 14 0 16 1;
#X connect 15 0 18 0;
#X connect 16 0 8 0;
#X connect 17 0 16 0;
#X connect 17 0 11 1;
#X connect 18 0 14 0;
#X connect 19 0 24 0;
#X connect 20 0 24 0;
#X connect 21 0 22 0;
#X connect 21 1 39 0;
#X connect 22 0 20 1;
#X connect 22 1 20 2;
#X connect 23 0 20 0;
#X connect 23 0 19 0;
#X connect 24 0 0 0;
#X connect 25 0 4 0;
#X connect 25 0 5 0;
#X connect 25 0 6 0;
#X connect 25 0 35 0;
#X connect 26 0 21 0;
#X connect 27 0 24 1;
#X connect 28 0 1 0;
#X connect 34 0 23 0;
#X connect 35 0 34 0;
#X connect 39 0 19 1;
#X connect 39 1 19 2;
#X restore -39 331 pd tone_generator;
#X obj -113 42 inlet;
#X obj 57 31 inlet;
#X obj -39 441 outlet~;
#X obj -39 105 mtof;
#X obj -39 68 unpack 0 0;
#X text -64 39 pitch / velocity;
#X obj -39 380 *~;
#N canvas 330 68 1112 848 adsr 1;
#X obj 390 89 unpack 0 0 0 0;
#X obj 391 328 f;
#X text 404 347 attack;
#X obj 442 327 f;
#X obj 494 326 f;
#X obj 553 325 f;
#X text 455 346 decay;
#X text 507 345 sustain;
#X text 566 344 release;
#X obj 248 178 / 127;
#X obj 209 134 route 0;
#X obj 371 211 bng 15 250 50 0 empty empty empty 17 7 0 10 -262144
-1 -1;
#X obj 314 618 lop~;
#X obj 248 224 sig~;
#X obj 409 262 delay;
#X msg 197 194 stop;
#X obj 197 165 bng 15 250 50 0 empty empty empty 17 7 0 10 -262144
-1 -1;
#X obj 267 434 *~;
#X obj 290 380 sig~;
#X msg 320 330 1;
#X msg 283 330 0;
#X obj 401 556 expr 1000 / $f1;
#X text 180 30 velocity;
#X obj 131 30 inlet;
#X obj 346 40 inlet;
#X text 403 37 attack (ms) \, decay (ms) \, sustain (0-1) \, release
(ms);
#X obj 313 664 outlet~;
#X obj 588 287 delay;
#X obj 595 217 * 4;
#X obj 589 663 outlet;
#X text 607 696 bang when envelope becomes quiet;
#X msg 539 232 stop;
#X obj 385 131 clip 2 999999;
#X obj 474 129 clip 2 999999;
#X obj 421 156 clip 2 999999;
#X connect 0 0 32 0;
#X connect 0 1 34 0;
#X connect 0 2 4 1;
#X connect 0 3 33 0;
#X connect 1 0 21 0;
#X connect 3 0 21 0;
#X connect 4 0 18 0;
#X connect 5 0 21 0;
#X connect 9 0 13 0;
#X connect 10 0 16 0;
#X connect 10 1 9 0;
#X connect 10 1 11 0;
#X connect 11 0 1 0;
#X connect 11 0 14 0;
#X connect 11 0 19 0;
#X connect 11 0 31 0;
#X connect 12 0 26 0;
#X connect 13 0 17 0;
#X connect 14 0 3 0;
#X connect 14 0 4 0;
#X connect 15 0 14 0;
#X connect 16 0 15 0;
#X connect 16 0 5 0;
#X connect 16 0 20 0;
#X connect 16 0 27 0;
#X connect 17 0 12 0;
#X connect 18 0 17 1;
#X connect 19 0 18 0;
#X connect 20 0 18 0;
#X connect 21 0 12 1;
#X connect 23 0 10 0;
#X connect 24 0 0 0;
#X connect 27 0 29 0;
#X connect 28 0 27 1;
#X connect 31 0 27 0;
#X connect 32 0 14 1;
#X connect 32 0 1 1;
#X connect 33 0 28 0;
#X connect 33 0 5 1;
#X connect 34 0 3 1;
#X restore 18 102 pd adsr;
#X msg -32 142 1;
#X msg 57 137 0;
#X obj 9 187 switch~;
#X obj 232 236 *;
#X obj 217 287 +;
#X obj 198 260 bng 15 250 50 0 empty empty empty 17 7 0 10 -262144
-1 -1;
#X obj 234 165 metro 1;
#X obj 211 134 bng 15 250 50 0 empty empty empty 17 7 0 10 -262144
-1 -1;
#X obj 57 67 route adsr waveform formant lp lpmod init;
#X connect 1 0 14 0;
#X connect 2 0 9 0;
#X connect 3 0 7 0;
#X connect 3 0 11 0;
#X connect 4 0 19 0;
#X connect 6 0 2 0;
#X connect 7 0 6 0;
#X connect 7 1 10 0;
#X connect 9 0 5 0;
#X connect 10 0 9 1;
#X connect 10 0 1 0;
#X connect 10 1 12 0;
#X connect 11 0 13 0;
#X connect 12 0 13 0;
#X connect 14 0 15 1;
#X connect 14 0 16 0;
#X connect 15 0 2 3;
#X connect 16 0 15 0;
#X connect 17 0 1 0;
#X connect 18 0 17 0;
#X connect 19 0 10 1;
#X connect 19 1 2 1;
#X connect 19 2 2 2;
#X connect 19 3 15 0;
#X connect 19 4 14 1;
#X connect 19 5 18 0;
