#N canvas 665 270 867 488 10;
#X obj 21 99 handlers/ntg_receive \$1;
#X obj 21 266 outlet~;
#X text 321 191 initial-value: 0.8;
#X text 321 178 parameter: "sustain" \, type: <float> \, unit: [-]
;
#X text 322 69 Midi input and 12 note polyphony;
#X text 322 21 Subtractive synthesis module;
#X text 322 33 User can choose waveform (sine \, square \, triangle
\, sawtooth) \,;
#X text 322 44 attack \, decay \, sustain and release parameters \,
;
#X text 320 56 two formants and one amplitude-dependent lowpass filter
;
#X text 322 89 parameter: "waveform" \, type: <int> \, unit [-];
#X text 320 115 initial-value: 1;
#X text 322 241 initial-value: 200;
#X text 322 228 parameter: "formant1freq" \, type: <float> \, unit:
Hz;
#X text 323 251 parameter: "formant1Q" \, type: <float> \, unit: [-]
;
#X text 323 264 initial-value: 0.5;
#X text 322 274 parameter: "formant2freq" \, type: <float> \, unit:
Hz;
#X text 323 297 parameter: "formant2Q" \, type: <float> \, unit: [-]
;
#X text 323 310 initial-value: 0.1;
#X text 322 287 initial-value: 800;
#X text 322 321 parameter: "lp" \, type: <float> \, unit: Hz;
#X text 322 101 description: 0=sine \, 1=square \, 2=triangle \, 3=sawtooth
;
#X text 321 348 initial-value: 0;
#X text 321 335 description: Cut-off frequency for low-pass filter
;
#X text 323 360 parameter: "lpmod" \, type: <float> \, unit: Hz;
#X text 322 374 description: Amplitude multiplier for cut-off frequency
;
#X text 322 387 initial-value: 5000;
#X text 322 128 parameter: "attack" \, type: <float> \, unit: s;
#X text 322 155 parameter: "decay" \, type: <float> \, unit: s;
#X text 320 203 parameter: "release" \, type: <float> \, unit: s;
#X text 322 168 initial-value: 0.1;
#X text 322 142 initial-value: 0.005;
#X text 320 216 initial-value: 0.2;
#N canvas 480 152 744 410 SubSynth_module 1;
#N canvas 0 22 647 405 SubSynth 1;
#X msg 202 149 adsr;
#X obj 203 242 pack s 0 0 0 0;
#X obj 89 368 SubSynth_poly;
#X obj 89 401 outlet~;
#X obj 131 37 inlet;
#X obj 62 36 inlet;
#X text -1 36 initbang;
#X text 177 39 integra parameters;
#X msg 302 145 formant;
#X obj 304 175 pack s 0 0 0;
#X msg 368 146 1;
#X msg 407 145 formant;
#X obj 409 175 pack s 0 0 0;
#X msg 473 146 2;
#X obj 223 173 * 1000;
#X obj 195 191 * 1000;
#X obj 266 200 * 1000;
#X obj 268 330 route list;
#X msg 66 169 waveform 1 \, adsr 5 100 0.8 200 \, formant 1 200 0.5
\, formant 2 800 0.1 \, lp 0 \, lpmod 5000 \, init;
#X obj 131 78 route attack decay sustain release formant1freq formant1Q
formant2freq formant2Q chNumber test;
#X obj 39 236 notein;
#X obj 24 322 route 1;
#X obj 21 298 pack 0 0 0;
#X obj 10 269 expr $i2==$i3 || $i3==0;
#X msg 404 252 69 127;
#X msg 404 296 69 0;
#X obj 493 261 delay 500;
#X connect 0 0 1 0;
#X connect 1 0 17 0;
#X connect 2 0 3 0;
#X connect 4 0 19 0;
#X connect 5 0 18 0;
#X connect 8 0 9 0;
#X connect 9 0 17 0;
#X connect 10 0 9 1;
#X connect 11 0 12 0;
#X connect 12 0 17 0;
#X connect 13 0 12 1;
#X connect 14 0 1 2;
#X connect 15 0 1 1;
#X connect 16 0 1 4;
#X connect 17 0 2 1;
#X connect 18 0 2 1;
#X connect 19 0 15 0;
#X connect 19 0 0 0;
#X connect 19 1 14 0;
#X connect 19 1 0 0;
#X connect 19 2 1 3;
#X connect 19 2 0 0;
#X connect 19 3 16 0;
#X connect 19 3 0 0;
#X connect 19 4 9 2;
#X connect 19 4 8 0;
#X connect 19 4 10 0;
#X connect 19 5 9 3;
#X connect 19 5 8 0;
#X connect 19 5 10 0;
#X connect 19 6 12 2;
#X connect 19 6 11 0;
#X connect 19 6 13 0;
#X connect 19 7 12 3;
#X connect 19 7 13 0;
#X connect 19 7 11 0;
#X connect 19 8 23 2;
#X connect 19 9 24 0;
#X connect 19 9 26 0;
#X connect 19 10 2 1;
#X connect 20 0 22 1;
#X connect 20 0 23 0;
#X connect 20 1 22 2;
#X connect 20 2 23 1;
#X connect 21 0 2 0;
#X connect 22 0 21 0;
#X connect 23 0 22 0;
#X connect 24 0 2 0;
#X connect 25 0 2 0;
#X connect 26 0 25 0;
#X restore 83 143 pd SubSynth;
#X obj 152 28 inlet;
#X obj 17 345 outlet~;
#X obj 402 26 inlet;
#X text 402 9 named parameter-messages;
#X text 152 11 init-bang;
#X obj 107 274 switch~;
#X obj 17 230 handlers/mono_module \$0 _________;
#X obj 244 29 inlet;
#X text 244 12 fini-bang;
#X obj 17 187 handlers/mono_generator \$0 ______;
#X connect 0 0 10 0;
#X connect 1 0 0 0;
#X connect 1 0 10 1;
#X connect 3 0 0 1;
#X connect 3 0 10 2;
#X connect 7 0 2 0;
#X connect 7 1 6 0;
#X connect 10 0 7 0;
#X connect 10 1 7 1;
#X connect 10 2 7 2;
#X restore 21 173 pd SubSynth_module ____;
#X connect 0 0 32 0;
#X connect 0 1 32 1;
#X connect 0 2 32 2;
#X connect 32 0 1 0;
