#N canvas 116 22 720 702 10;
#X text 281 61 1 signal out port;
#X text 281 45 1 signal in port;
#X text 294 107 1.) parameter: "active" \, type: <bool> \, unit [-]
;
#X text 324 137 description: switches the module on and off from DSP
tree;
#X text 324 310 description: switches a bypass path in parallel;
#X text 334 324 to the processor on and off;
#X text 323 376 description: mutes the effect way of the processor
;
#X text 324 425 description: makes a mix of the effected signal (wet
= 1);
#X text 334 440 and the input signal (dry = 0);
#X text 324 193 description: multiplies the incoming signal with this
value;
#X text 334 208 before it is going further to effect input;
#X text 324 258 description: multiplies the signal from effect output
;
#X text 324 122 initial-value: 1 \, range: (0/1) \, class: module;
#X text 324 243 initial-value: 1 \, range: (0...4) \, class: processor
;
#X text 324 178 initial-value: 1 \, range: (0...4) \, class: processor
;
#X text 324 295 initial-value: 0 \, range: (0/1) \, class: processor
;
#X text 324 360 initial-value: 0 \, range: (0/1) \, class: processor
;
#X text 324 410 initial-value: 1 \, range: (0...1) \, class: processor
;
#X obj 19 131 cnv 10 135 10 empty empty empty 20 12 0 14 -261682 -66577
0;
#X text 281 22 tap-delay: feedback delay;
#X text 323 496 description: is he delay time of the delay tap;
#X text 323 556 description: the delay tap signal will be multipied
;
#X text 342 572 with this value and added to the input of the delay.
;
#X text 324 540 initial-value: 0.3 \, range: (0...1) \, class: tap-delay
;
#X obj 17 91 inlet~;
#X obj 18 170 outlet~;
#X text 281 77 8 data in ports;
#X text 296 280 4.) parameter: "bypass" \, type: <bool> \, unit [-]
;
#X text 294 346 5.) parameter: "mute" \, type: <bool> \, unit [-];
#X text 294 395 6.) parameter: "mix" \, type: <float> \, unit [-];
#X text 294 525 8.) parameter: "feedback" \, type: <float> \, unit
[-];
#X text 295 228 3.) parameter: "outLevel" \, type: <float> \, unit
[-];
#X text 294 163 2.) parameter: "inLevel" \, type: <float> \, unit [-]
;
#X text 383 595 Thomas Musil \, 11.11.2009;
#X text 295 465 7.) parameter: "delayTime" \, type: <float> \, unit
[sec];
#X text 324 481 initial-value: 2 sec \, range: (0...20sec) \, class:
delay;
#N canvas 197 218 714 386 tap_delay_module________ 0;
#X obj 152 28 inlet;
#X obj 17 25 inlet~;
#X obj 17 345 outlet~;
#X obj 108 148 cnv 10 164 10 empty empty empty 20 12 0 14 -261682 -66577
0;
#X obj 402 26 inlet;
#X text 402 9 named parameter-messages;
#X text 152 11 init-bang;
#X obj 107 274 switch~;
#X obj 17 99 handlers/mono_pre_processor \$0 __;
#N canvas 547 133 644 648 tap_delay______________ 0;
#X obj 394 30 inlet;
#X obj 29 36 inlet~;
#X obj 29 538 outlet~;
#X obj 225 32 inlet;
#X obj 472 534 outlet;
#X text 219 16 init-bang;
#X text 394 14 route parameters;
#X text 468 553 rejected parameters;
#X text 27 20 from pre-processor;
#X text 28 564 to post-processor;
#X obj 245 533 outlet;
#X text 234 568 init-bang;
#X text 220 4 from prev.;
#X text 241 554 to next;
#X obj 225 59 t b b;
#X msg 255 194 \; pd-e_fbdelay.pd loadbang;
#N canvas 0 22 479 307 convert2rj 0;
#X obj 96 105 * 1000;
#X msg 96 157 delay \$1;
#X msg 252 158 lpfreq \$1;
#X obj 96 59 route delayTime feedback frequency;
#X msg 163 158 feedback \$1;
#X obj 97 25 inlet;
#X obj 96 241 outlet;
#X obj 356 171 outlet;
#X connect 0 0 1 0;
#X connect 1 0 6 0;
#X connect 2 0 6 0;
#X connect 3 0 0 0;
#X connect 3 1 4 0;
#X connect 3 2 2 0;
#X connect 3 3 7 0;
#X connect 4 0 6 0;
#X connect 5 0 3 0;
#X restore 394 65 pd convert2rj;
#X msg 166 168 dry 0;
#X obj 29 227 rj/e_fbdelay mydelay 360000;
#X connect 0 0 16 0;
#X connect 1 0 18 0;
#X connect 3 0 14 0;
#X connect 14 0 10 0;
#X connect 14 0 17 0;
#X connect 14 1 15 0;
#X connect 16 0 18 2;
#X connect 16 1 4 0;
#X connect 17 0 18 2;
#X connect 18 0 2 0;
#X restore 107 145 pd tap_delay______________;
#X obj 17 187 handlers/mono_post_processor \$0 _;
#X obj 17 230 handlers/mono_module \$0 _________;
#X obj 244 29 inlet;
#X text 244 12 fini-bang;
#X connect 0 0 8 1;
#X connect 1 0 8 0;
#X connect 4 0 8 2;
#X connect 8 0 10 0;
#X connect 8 1 9 0;
#X connect 8 2 9 1;
#X connect 8 3 9 2;
#X connect 9 0 10 1;
#X connect 9 1 10 2;
#X connect 9 2 10 3;
#X connect 10 0 11 0;
#X connect 10 1 11 1;
#X connect 10 2 11 2;
#X connect 11 0 2 0;
#X connect 11 1 7 0;
#X restore 18 128 pd tap_delay_module________;
#X obj 111 93 handlers/ntg_receive \$1;
#X text 7 639 1.) initial argument: <float> unique id of the module
;
#X connect 24 0 36 0;
#X connect 36 0 25 0;
#X connect 37 0 36 1;
#X connect 37 1 36 2;
#X connect 37 2 36 3;
