#N canvas 561 394 648 561 10;
#X obj 111 184 handlers/ntg_send \$1;
#X obj 111 78 handlers/ntg_receive \$1;
#X text 50 253 * initial argument '\$1' gives instance id;
#N canvas 290 278 727 599 temp_dir_module________ 0;
#X obj 123 30 inlet;
#X obj 311 31 inlet;
#X text 311 14 named parameter-messages;
#X text 123 13 init-bang;
#X obj 217 33 inlet;
#X text 217 16 fini-bang;
#X obj 13 382 outlet;
#X obj 13 354 t a;
#X obj 13 83 route path;
#X obj 13 105 route bang;
#X obj 13 127 t b;
#X obj 13 177 t s s;
#X obj 343 301 integra/generics/queryhandler tempdir;
#X obj 343 323 t b;
#X obj 13 155 symbol;
#X obj 205 212 symbol /tmp;
#X text 283 208 this defaults to something useful \, in order to allow
module development outside of a running IntegraLive instance;
#X connect 1 0 8 0;
#X connect 7 0 6 0;
#X connect 8 0 9 0;
#X connect 9 0 10 0;
#X connect 9 1 14 0;
#X connect 10 0 14 0;
#X connect 11 0 7 0;
#X connect 11 1 15 1;
#X connect 12 0 13 0;
#X connect 13 0 15 0;
#X connect 14 0 11 0;
#X connect 15 0 12 0;
#X restore 111 121 pd temp_dir_module________;
#X connect 1 0 3 0;
#X connect 1 1 3 1;
#X connect 1 2 3 2;
#X connect 3 0 0 0;
