#N canvas 385 453 336 192 10;
#X obj 17 81 cnv 10 135 10 empty empty empty 20 12 0 14 -261682 -66577
0;
#X obj 72 25 inlet~;
#X obj 241 130 outlet~;
#X obj 16 26 inlet~;
#X obj 16 134 outlet~;
#X obj 128 25 handlers/ntg_receive \$1;
#N canvas 580 67 494 405 template_module____________________ 0;
#X obj 17 8 inlet~;
#X obj 17 345 outlet~;
#X obj 160 286 switch~;
#X obj 88 344 outlet~;
#X obj 111 8 inlet~;
#X obj 179 16 inlet;
#X obj 326 19 inlet;
#X text 326 2 named parameter-messages;
#X text 179 -1 init-bang;
#X obj 17 104 handlers/stereo_pre_processor \$0 __;
#X obj 17 195 handlers/stereo_post_processor \$0 _;
#X obj 17 242 handlers/stereo_module \$0 _________;
#X obj 248 17 inlet;
#X text 248 0 fini-bang;
#N canvas 725 40 715 334 stereo_template_________ 0;
#X obj 366 26 inlet;
#X obj 18 31 inlet~;
#X obj 18 247 outlet~;
#X obj 211 34 inlet;
#X obj 337 247 outlet;
#X text 205 18 init-bang;
#X text 366 10 route parameters;
#X text 333 266 rejected parameters;
#X text 41 10 from pre-processor;
#X text 51 267 to post-processor;
#X obj 212 245 outlet;
#X text 201 280 init-bang;
#X text 206 6 from prev.;
#X text 208 266 to next;
#X obj 100 30 inlet~;
#X obj 127 246 outlet~;
#X obj 211 143 t b b;
#N canvas 56 70 1344 644 implementation 0;
#X obj 36 23 inlet~;
#X obj 828 30 inlet;
#X obj 178 544 outlet~;
#X obj 36 547 outlet~;
#X obj 149 22 inlet~;
#X text 39 567 left;
#X text 176 561 right;
#X obj 943 515 outlet;
#X obj 549 22 inlet;
#X text 549 8 init-bang;
#X text 807 11 incoming parameters;
#X text 892 534 rejected parameters;
#X obj 658 24 inlet;
#X text 654 8 fini-bang;
#X obj 380 148 route controlOne controlTwo controlThree controlFour
;
#X obj 689 175 route toggleOne toggleTwo bangOne bangTwo;
#X obj 932 203 route xyScratchX xyScratchY numberOne numberTwo;
#X text 185 289 <- processing here;
#X floatatom 379 205 5 0 0 0 - - -;
#X floatatom 456 206 5 0 0 0 - - -;
#X floatatom 533 204 5 0 0 0 - - -;
#X floatatom 610 205 5 0 0 0 - - -;
#X obj 688 207 tgl 15 0 empty empty empty 17 7 0 10 -262144 -1 -1 0
1;
#X obj 751 207 tgl 15 0 empty empty empty 17 7 0 10 -262144 -1 -1 0
1;
#X obj 810 209 bng 15 250 50 0 empty empty empty 17 7 0 10 -262144
-1 -1;
#X obj 871 209 bng 15 250 50 0 empty empty empty 17 7 0 10 -262144
-1 -1;
#X floatatom 935 236 5 0 0 0 - - -;
#X floatatom 1012 237 5 0 0 0 - - -;
#X floatatom 1089 235 5 0 0 0 - - -;
#X floatatom 1166 236 5 0 0 0 - - -;
#X obj 1162 511 outlet;
#X text 1111 530 outgoing parameters;
#X connect 0 0 3 0;
#X connect 1 0 14 0;
#X connect 4 0 2 0;
#X connect 14 0 18 0;
#X connect 14 1 19 0;
#X connect 14 2 20 0;
#X connect 14 3 21 0;
#X connect 14 4 15 0;
#X connect 15 0 22 0;
#X connect 15 1 23 0;
#X connect 15 2 24 0;
#X connect 15 3 25 0;
#X connect 15 4 16 0;
#X connect 16 0 26 0;
#X connect 16 1 27 0;
#X connect 16 2 28 0;
#X connect 16 3 29 0;
#X connect 16 4 7 0;
#X restore 19 171 pd implementation;
#X connect 0 0 17 4;
#X connect 1 0 17 0;
#X connect 3 0 16 0;
#X connect 14 0 17 1;
#X connect 16 0 10 0;
#X connect 16 1 17 2;
#X connect 17 0 2 0;
#X connect 17 1 15 0;
#X connect 17 2 4 0;
#X restore 127 151 pd stereo_template_________;
#X connect 0 0 9 0;
#X connect 4 0 9 1;
#X connect 5 0 9 2;
#X connect 6 0 9 3;
#X connect 9 0 10 0;
#X connect 9 1 10 1;
#X connect 9 2 14 0;
#X connect 9 3 14 1;
#X connect 9 4 14 2;
#X connect 9 5 14 3;
#X connect 10 0 11 0;
#X connect 10 1 11 1;
#X connect 10 2 11 2;
#X connect 10 3 11 3;
#X connect 11 0 1 0;
#X connect 11 1 3 0;
#X connect 11 2 2 0;
#X connect 14 0 10 2;
#X connect 14 1 10 3;
#X connect 14 2 10 4;
#X connect 14 3 10 5;
#X restore 16 78 pd template_module____________________;
#X connect 1 0 6 1;
#X connect 3 0 6 0;
#X connect 5 0 6 2;
#X connect 5 1 6 3;
#X connect 5 2 6 4;
#X connect 6 0 4 0;
#X connect 6 1 2 0;
