#N canvas 650 171 450 300 10;
#X obj 111 184 handlers/ntg_send \$1;
#X obj 111 78 handlers/ntg_receive \$1;
#X text 50 253 * initial argument '\$1' gives instance id;
#N canvas 74 298 562 374 test_module________ 0;
#X obj 123 30 inlet;
#X obj 311 31 inlet;
#X text 311 14 named parameter-messages;
#X text 123 13 init-bang;
#X obj 217 33 inlet;
#X text 217 16 fini-bang;
#X obj 105 348 outlet;
#X obj 311 96 route testFileLoadDialog;
#X obj 311 177 print;
#X connect 1 0 7 0;
#X connect 7 0 8 0;
#X restore 111 121 pd test_module________;
#X connect 1 0 3 0;
#X connect 1 1 3 1;
#X connect 1 2 3 2;
#X connect 3 0 0 0;
