#N canvas 234 185 340 287 10;
#X obj 19 129 cnv 10 125 10 empty empty empty 20 12 0 14 -261682 -66577
0;
#X obj 18 170 outlet~;
#N canvas 354 107 403 419 test_source_module 0;
#X obj 21 359 outlet~;
#X obj 88 292 switch~;
#X obj 22 165 cnv 10 164 10 empty empty empty 20 12 0 14 -261682 -66577
0;
#X obj 92 27 inlet;
#X obj 253 30 inlet;
#X text 253 13 named parameter-messages;
#X text 92 10 init-bang;
#X text 19 7 dummy;
#X obj 20 25 inlet;
#X obj 21 204 handlers/mono_generator;
#X obj 21 247 handlers/mono_module __;
#X obj 174 28 inlet;
#X text 174 11 fini-bang;
#N canvas 93 378 589 458 osc______________________ 0;
#X obj 375 37 inlet;
#X obj 19 368 outlet~;
#X obj 233 37 inlet;
#X obj 362 367 outlet;
#X text 227 21 init-bang;
#X text 375 21 route parameters;
#X text 358 386 rejected parameters;
#X text 18 394 to post-processor;
#X obj 226 365 outlet;
#X text 214 402 init-bang;
#X text 226 8 from prev;
#X text 220 388 to next;
#X obj 18 43 inlet~;
#X obj 17 180 cos~;
#X text 54 178 lookup table;
#X obj 375 74 route source;
#X obj 375 98 symbol;
#X obj 375 131 sel sine noise burst;
#X obj 145 177 noise~;
#X obj 145 262 *~;
#X obj 17 263 *~;
#X msg 33 237 0;
#X msg 59 237 1;
#X msg 161 239 0;
#X msg 187 239 1;
#X obj 145 297 *~;
#X msg 181 273 1;
#X msg 280 230 0;
#X obj 280 254 tgl 15 0 empty empty empty 17 7 0 10 -262144 -1 -1 0
1;
#X obj 280 276 metro 1000;
#X msg 315 231 1;
#X obj 281 307 f;
#X obj 312 307 == 0;
#X connect 0 0 15 0;
#X connect 2 0 8 0;
#X connect 12 0 13 0;
#X connect 13 0 20 0;
#X connect 15 0 16 0;
#X connect 15 1 3 0;
#X connect 16 0 17 0;
#X connect 17 0 22 0;
#X connect 17 0 23 0;
#X connect 17 0 27 0;
#X connect 17 1 21 0;
#X connect 17 1 24 0;
#X connect 17 1 26 0;
#X connect 17 1 27 0;
#X connect 17 2 30 0;
#X connect 17 2 24 0;
#X connect 17 2 21 0;
#X connect 18 0 19 0;
#X connect 19 0 25 0;
#X connect 20 0 1 0;
#X connect 21 0 20 1;
#X connect 22 0 20 1;
#X connect 23 0 19 1;
#X connect 24 0 19 1;
#X connect 25 0 1 0;
#X connect 26 0 25 1;
#X connect 27 0 28 0;
#X connect 28 0 29 0;
#X connect 29 0 31 0;
#X connect 30 0 28 0;
#X connect 31 0 32 0;
#X connect 31 0 25 1;
#X connect 32 0 31 1;
#X restore 21 162 pd osc______________________;
#X obj 21 120 handlers/mono_oscillator;
#X connect 3 0 14 1;
#X connect 4 0 14 2;
#X connect 8 0 14 0;
#X connect 9 0 10 0;
#X connect 9 1 10 1;
#X connect 9 2 10 2;
#X connect 10 0 0 0;
#X connect 10 1 1 0;
#X connect 13 0 9 0;
#X connect 13 1 9 1;
#X connect 13 2 9 2;
#X connect 14 0 13 0;
#X connect 14 2 13 1;
#X connect 14 3 13 2;
#X restore 18 126 pd test_source_module;
#X obj 59 79 handlers/ntg_receive \$1;
#X connect 2 0 1 0;
#X connect 3 0 2 1;
#X connect 3 1 2 2;
#X connect 3 2 2 3;
