#N canvas 65 494 450 300 10;
#X declare -path ..;
#X obj 111 184 handlers/ntg_send \$1;
#X obj 111 78 handlers/ntg_receive \$1;
#X text 50 253 * initial argument '\$1' gives instance id;
#N canvas 508 22 1127 614 tuio_module________ 0;
#X obj 123 30 inlet;
#X obj 311 31 inlet;
#X text 311 14 named parameter-messages;
#X text 123 13 init-bang;
#X obj 217 33 inlet;
#X text 217 16 fini-bang;
#X obj 222 627 outlet;
#X obj 222 598 list;
#X msg 222 553 xPosition \$1;
#X msg 316 552 yPosition \$1;
#X obj 312 106 route element port;
#X msg 226 145 port \$1;
#X obj 223 387 route set alive;
#X obj 223 421 generics/settable_route;
#X obj 222 507 unpack f f;
#X obj 49 118 declare -path ..;
#X msg 387 69 port 5000;
#X obj 223 336 route /tuio/2Dcur;
#X obj 222 475 generics/choose;
#X obj 460 375 sel -1;
#X msg 460 422 0;
#X msg 496 391 1;
#N canvas 0 22 450 300 repack 0;
#X obj 170 81 unpack f f f;
#X obj 204 128 pack f f;
#X obj 170 53 inlet;
#X obj 204 178 outlet;
#X connect 0 1 1 0;
#X connect 0 2 1 1;
#X connect 1 0 3 0;
#X connect 2 0 0 0;
#X restore 388 422 pd repack;
#X text 522 374 -1 means 'any';
#X msg 561 61 element -1;
#X msg 103 520 message \$1;
#X obj 49 304 generics/list-l2s;
#X msg 56 183 32;
#X obj 57 208 makefilename %c;
#X obj 223 233 r TUIO2dcur;
#X obj 225 198 s TUIO2dcur;
#X obj 226 175 mrpeach/udpreceive;
#X obj 223 259 mrpeach/unpackOSC;
#X obj 223 301 mrpeach/pipelist;
#X connect 0 0 27 0;
#X connect 1 0 10 0;
#X connect 7 0 6 0;
#X connect 8 0 7 0;
#X connect 9 0 7 0;
#X connect 10 0 13 1;
#X connect 10 0 19 0;
#X connect 10 1 11 0;
#X connect 11 0 31 0;
#X connect 12 0 13 0;
#X connect 12 0 22 0;
#X connect 13 0 18 0;
#X connect 14 0 8 0;
#X connect 14 1 9 0;
#X connect 16 0 10 0;
#X connect 17 0 12 0;
#X connect 18 0 14 0;
#X connect 19 0 21 0;
#X connect 19 1 20 0;
#X connect 20 0 18 2;
#X connect 21 0 18 2;
#X connect 22 0 18 1;
#X connect 24 0 10 0;
#X connect 25 0 7 0;
#X connect 26 0 25 0;
#X connect 27 0 28 0;
#X connect 28 0 26 1;
#X connect 29 0 32 0;
#X connect 31 0 30 0;
#X connect 32 0 33 0;
#X connect 32 1 33 1;
#X connect 33 0 17 0;
#X connect 33 0 26 0;
#X restore 111 121 pd tuio_module________;
#X connect 1 0 3 0;
#X connect 1 1 3 1;
#X connect 1 2 3 2;
#X connect 3 0 0 0;
