#N canvas 636 84 884 618 10;
#N canvas 4 30 450 439 integra-canvas 0;
#X restore 116 27 pd integra-canvas;
#X obj 122 509 s pd-integra-canvas;
#N canvas 106 525 450 300 OSC_receive 0;
#X obj 147 175 outlet;
#X obj 147 123 mrpeach/pipelist;
#X obj 147 89 mrpeach/unpackOSCstream;
#X obj 147 40 mrpeach/tcpreceive 7773;
#X connect 1 0 0 0;
#X connect 2 0 1 0;
#X connect 2 1 1 1;
#X connect 3 0 2 0;
#X restore 122 131 pd OSC_receive;
#X obj 439 505 s integra-broadcast-receive;
#N canvas 456 22 590 380 remove 0;
#X obj 87 59 inlet;
#X obj 133 122 list append fini;
#X obj 86 284 outlet;
#X obj 109 171 t b a;
#X msg 108 216 cut;
#X msg 142 198 find +\$1 1;
#X obj 132 145 outlet;
#X msg 85 145 vis 0;
#X obj 85 98 t b a a b;
#N canvas 0 22 450 300 decrement_nobjects 0;
#X obj 131 77 v nobjects;
#X obj 131 42 inlet;
#X obj 102 77 - 1;
#X connect 0 0 2 0;
#X connect 1 0 0 0;
#X connect 2 0 0 0;
#X restore 259 120 pd decrement_nobjects;
#X obj 257 180 s \$0-del_element;
#X connect 0 0 8 0;
#X connect 1 0 6 0;
#X connect 3 0 4 0;
#X connect 3 1 5 0;
#X connect 3 1 10 0;
#X connect 4 0 2 0;
#X connect 5 0 2 0;
#X connect 7 0 2 0;
#X connect 8 0 7 0;
#X connect 8 1 3 0;
#X connect 8 2 1 0;
#X connect 8 3 9 0;
#X restore 186 446 pd remove;
#N canvas 752 374 558 400 load 0;
#X msg 196 271 obj 10 \$1 \$2 \$3;
#X obj 122 27 inlet;
#X obj 196 241 list prepend;
#X obj 271 89 f;
#X obj 195 295 outlet;
#X msg 122 141 \$1 init;
#X obj 279 297 outlet;
#N canvas 0 22 450 300 increment_nobjects 0;
#X obj 131 77 v nobjects;
#X obj 131 102 + 1;
#X obj 130 42 inlet;
#X obj 131 149 outlet;
#X connect 0 0 1 0;
#X connect 0 0 3 0;
#X connect 1 0 0 0;
#X connect 2 0 0 0;
#X restore 5 216 pd increment_nobjects;
#X obj 251 147 t a a;
#X obj 121 55 t b a a b;
#X obj 172 117 unpack s f;
#X obj 202 217 pack s f;
#X obj 347 143 s \$0-add_element;
#X obj 317 89 + 50;
#X connect 0 0 4 0;
#X connect 1 0 9 0;
#X connect 2 0 0 0;
#X connect 3 0 2 1;
#X connect 3 0 13 0;
#X connect 5 0 6 0;
#X connect 8 0 11 1;
#X connect 8 1 12 0;
#X connect 9 0 7 0;
#X connect 9 1 5 0;
#X connect 9 2 10 0;
#X connect 9 3 3 0;
#X connect 10 0 11 0;
#X connect 10 1 8 0;
#X connect 11 0 2 0;
#X connect 13 0 3 1;
#X restore 122 476 pd load;
#N canvas 0 22 450 300 send 0;
#X obj 155 113 route bang;
#X obj 155 75 inlet;
#X obj 212 135 outlet;
#X connect 0 1 2 0;
#X connect 1 0 0 0;
#X restore 439 330 pd send;
#N canvas 350 22 457 400 connect 0;
#X obj 176 22 inlet;
#X obj 175 232 list prepend connect;
#X obj 175 286 outlet;
#X obj 175 260 list trim;
#N canvas 0 22 450 300 convert_to_port 0;
#N canvas 161 322 450 300 get_object 0;
#X obj 169 91 inlet;
#X obj 170 136 tabread id_to_object;
#X obj 170 182 outlet;
#X connect 0 0 1 0;
#X connect 1 0 2 0;
#X restore 175 152 pd get_object;
#N canvas 161 322 450 300 get_object 0;
#X obj 169 91 inlet;
#X obj 170 136 tabread id_to_object;
#X obj 170 182 outlet;
#X connect 0 0 1 0;
#X connect 1 0 2 0;
#X restore 239 97 pd get_object;
#N canvas 0 22 852 637 get_in_port 0;
#X obj 124 30 inlet;
#X obj 122 59 sel in1 in2 in3 in4 in5 in6 in7 in8 in9 in10 in11 in12
in13 in14 in15 in16;
#X msg 123 449 0;
#X msg 148 427 1;
#X msg 174 403 2;
#X msg 199 381 3;
#X msg 225 360 4;
#X msg 250 338 5;
#X msg 276 314 6;
#X msg 301 292 7;
#X msg 328 263 8;
#X msg 353 241 9;
#X msg 379 217 10;
#X msg 404 195 11;
#X msg 430 174 12;
#X msg 455 152 13;
#X msg 481 128 14;
#X msg 506 106 15;
#X obj 123 523 outlet;
#X connect 0 0 1 0;
#X connect 1 0 2 0;
#X connect 1 1 3 0;
#X connect 1 2 4 0;
#X connect 1 3 5 0;
#X connect 1 4 6 0;
#X connect 1 5 7 0;
#X connect 1 6 8 0;
#X connect 1 7 9 0;
#X connect 1 8 10 0;
#X connect 1 9 11 0;
#X connect 1 10 12 0;
#X connect 1 11 13 0;
#X connect 1 12 14 0;
#X connect 1 13 15 0;
#X connect 1 14 16 0;
#X connect 1 15 17 0;
#X connect 2 0 18 0;
#X connect 3 0 18 0;
#X connect 4 0 18 0;
#X connect 5 0 18 0;
#X connect 6 0 18 0;
#X connect 7 0 18 0;
#X connect 8 0 18 0;
#X connect 9 0 18 0;
#X connect 10 0 18 0;
#X connect 11 0 18 0;
#X connect 12 0 18 0;
#X connect 13 0 18 0;
#X connect 14 0 18 0;
#X connect 15 0 18 0;
#X connect 16 0 18 0;
#X connect 17 0 18 0;
#X restore 270 75 pd get_in_port;
#N canvas 0 22 852 637 get_out_port 0;
#X obj 124 30 inlet;
#X msg 123 449 0;
#X msg 148 427 1;
#X msg 174 403 2;
#X msg 199 381 3;
#X msg 225 360 4;
#X msg 250 338 5;
#X msg 276 314 6;
#X msg 301 292 7;
#X msg 328 263 8;
#X msg 353 241 9;
#X msg 379 217 10;
#X msg 404 195 11;
#X msg 430 174 12;
#X msg 455 152 13;
#X msg 481 128 14;
#X msg 506 106 15;
#X obj 123 523 outlet;
#X obj 122 59 sel out1 out2 out3 out4 out5 out6 out7 out8 out9 out10
out11 out12 out13 out14 out15 out16;
#X connect 0 0 18 0;
#X connect 1 0 17 0;
#X connect 2 0 17 0;
#X connect 3 0 17 0;
#X connect 4 0 17 0;
#X connect 5 0 17 0;
#X connect 6 0 17 0;
#X connect 7 0 17 0;
#X connect 8 0 17 0;
#X connect 9 0 17 0;
#X connect 10 0 17 0;
#X connect 11 0 17 0;
#X connect 12 0 17 0;
#X connect 13 0 17 0;
#X connect 14 0 17 0;
#X connect 15 0 17 0;
#X connect 16 0 17 0;
#X connect 18 0 1 0;
#X connect 18 1 2 0;
#X connect 18 2 3 0;
#X connect 18 3 4 0;
#X connect 18 4 5 0;
#X connect 18 5 6 0;
#X connect 18 6 7 0;
#X connect 18 7 8 0;
#X connect 18 8 9 0;
#X connect 18 9 10 0;
#X connect 18 10 11 0;
#X connect 18 11 12 0;
#X connect 18 12 13 0;
#X connect 18 13 14 0;
#X connect 18 14 15 0;
#X connect 18 15 16 0;
#X restore 206 119 pd get_out_port;
#X obj 176 18 inlet;
#X obj 177 238 outlet;
#X obj 175 55 unpack f s f s;
#X obj 177 192 pack f f f f;
#X connect 0 0 7 0;
#X connect 1 0 7 2;
#X connect 2 0 7 3;
#X connect 3 0 7 1;
#X connect 4 0 6 0;
#X connect 6 0 0 0;
#X connect 6 1 3 0;
#X connect 6 2 1 0;
#X connect 6 3 2 0;
#X connect 7 0 5 0;
#X restore 175 156 pd convert_to_port;
#X connect 0 0 4 0;
#X connect 1 0 3 0;
#X connect 3 0 2 0;
#X connect 4 0 1 0;
#X restore 250 423 pd connect;
#N canvas 5 45 450 300 disconnect 0;
#X obj 175 66 inlet;
#X obj 175 214 outlet;
#X obj 175 161 list prepend disconnect;
#X obj 175 187 list trim;
#N canvas 0 22 450 300 convert_to_port 0;
#N canvas 161 322 450 300 get_object 0;
#X obj 169 91 inlet;
#X obj 170 136 tabread id_to_object;
#X obj 170 182 outlet;
#X connect 0 0 1 0;
#X connect 1 0 2 0;
#X restore 175 152 pd get_object;
#N canvas 161 322 450 300 get_object 0;
#X obj 169 91 inlet;
#X obj 170 136 tabread id_to_object;
#X obj 170 182 outlet;
#X connect 0 0 1 0;
#X connect 1 0 2 0;
#X restore 240 103 pd get_object;
#N canvas 0 22 852 637 get_in_port 0;
#X obj 124 30 inlet;
#X obj 122 59 sel in1 in2 in3 in4 in5 in6 in7 in8 in9 in10 in11 in12
in13 in14 in15 in16;
#X msg 123 449 0;
#X msg 148 427 1;
#X msg 174 403 2;
#X msg 199 381 3;
#X msg 225 360 4;
#X msg 250 338 5;
#X msg 276 314 6;
#X msg 301 292 7;
#X msg 328 263 8;
#X msg 353 241 9;
#X msg 379 217 10;
#X msg 404 195 11;
#X msg 430 174 12;
#X msg 455 152 13;
#X msg 481 128 14;
#X msg 506 106 15;
#X obj 123 523 outlet;
#X connect 0 0 1 0;
#X connect 1 0 2 0;
#X connect 1 1 3 0;
#X connect 1 2 4 0;
#X connect 1 3 5 0;
#X connect 1 4 6 0;
#X connect 1 5 7 0;
#X connect 1 6 8 0;
#X connect 1 7 9 0;
#X connect 1 8 10 0;
#X connect 1 9 11 0;
#X connect 1 10 12 0;
#X connect 1 11 13 0;
#X connect 1 12 14 0;
#X connect 1 13 15 0;
#X connect 1 14 16 0;
#X connect 1 15 17 0;
#X connect 2 0 18 0;
#X connect 3 0 18 0;
#X connect 4 0 18 0;
#X connect 5 0 18 0;
#X connect 6 0 18 0;
#X connect 7 0 18 0;
#X connect 8 0 18 0;
#X connect 9 0 18 0;
#X connect 10 0 18 0;
#X connect 11 0 18 0;
#X connect 12 0 18 0;
#X connect 13 0 18 0;
#X connect 14 0 18 0;
#X connect 15 0 18 0;
#X connect 16 0 18 0;
#X connect 17 0 18 0;
#X restore 206 126 pd get_in_port;
#N canvas 0 22 852 637 get_out_port 0;
#X obj 124 30 inlet;
#X msg 123 449 0;
#X msg 148 427 1;
#X msg 174 403 2;
#X msg 199 381 3;
#X msg 225 360 4;
#X msg 250 338 5;
#X msg 276 314 6;
#X msg 301 292 7;
#X msg 328 263 8;
#X msg 353 241 9;
#X msg 379 217 10;
#X msg 404 195 11;
#X msg 430 174 12;
#X msg 455 152 13;
#X msg 481 128 14;
#X msg 506 106 15;
#X obj 123 523 outlet;
#X obj 122 59 sel out1 out2 out3 out4 out5 out6 out7 out8 out9 out10
out11 out12 out13 out14 out15 out16;
#X connect 0 0 18 0;
#X connect 1 0 17 0;
#X connect 2 0 17 0;
#X connect 3 0 17 0;
#X connect 4 0 17 0;
#X connect 5 0 17 0;
#X connect 6 0 17 0;
#X connect 7 0 17 0;
#X connect 8 0 17 0;
#X connect 9 0 17 0;
#X connect 10 0 17 0;
#X connect 11 0 17 0;
#X connect 12 0 17 0;
#X connect 13 0 17 0;
#X connect 14 0 17 0;
#X connect 15 0 17 0;
#X connect 16 0 17 0;
#X connect 18 0 1 0;
#X connect 18 1 2 0;
#X connect 18 2 3 0;
#X connect 18 3 4 0;
#X connect 18 4 5 0;
#X connect 18 5 6 0;
#X connect 18 6 7 0;
#X connect 18 7 8 0;
#X connect 18 8 9 0;
#X connect 18 9 10 0;
#X connect 18 10 11 0;
#X connect 18 11 12 0;
#X connect 18 12 13 0;
#X connect 18 13 14 0;
#X connect 18 14 15 0;
#X connect 18 15 16 0;
#X restore 270 74 pd get_out_port;
#X obj 176 18 inlet;
#X obj 177 238 outlet;
#X obj 176 50 unpack f s f s;
#X obj 178 192 pack f f f f;
#X connect 0 0 7 0;
#X connect 1 0 7 2;
#X connect 2 0 7 1;
#X connect 3 0 7 3;
#X connect 4 0 6 0;
#X connect 6 0 0 0;
#X connect 6 1 2 0;
#X connect 6 2 1 0;
#X connect 6 3 3 0;
#X connect 7 0 5 0;
#X restore 256 78 pd convert_to_port;
#N canvas 0 22 450 300 convert_to_port 0;
#N canvas 161 322 450 300 get_object 0;
#X obj 169 91 inlet;
#X obj 170 136 tabread id_to_object;
#X obj 170 182 outlet;
#X connect 0 0 1 0;
#X connect 1 0 2 0;
#X restore 175 152 pd get_object;
#N canvas 161 322 450 300 get_object 0;
#X obj 169 91 inlet;
#X obj 170 136 tabread id_to_object;
#X obj 170 182 outlet;
#X connect 0 0 1 0;
#X connect 1 0 2 0;
#X restore 239 97 pd get_object;
#N canvas 0 22 852 637 get_in_port 0;
#X obj 124 30 inlet;
#X obj 122 59 sel in1 in2 in3 in4 in5 in6 in7 in8 in9 in10 in11 in12
in13 in14 in15 in16;
#X msg 123 449 0;
#X msg 148 427 1;
#X msg 174 403 2;
#X msg 199 381 3;
#X msg 225 360 4;
#X msg 250 338 5;
#X msg 276 314 6;
#X msg 301 292 7;
#X msg 328 263 8;
#X msg 353 241 9;
#X msg 379 217 10;
#X msg 404 195 11;
#X msg 430 174 12;
#X msg 455 152 13;
#X msg 481 128 14;
#X msg 506 106 15;
#X obj 123 523 outlet;
#X connect 0 0 1 0;
#X connect 1 0 2 0;
#X connect 1 1 3 0;
#X connect 1 2 4 0;
#X connect 1 3 5 0;
#X connect 1 4 6 0;
#X connect 1 5 7 0;
#X connect 1 6 8 0;
#X connect 1 7 9 0;
#X connect 1 8 10 0;
#X connect 1 9 11 0;
#X connect 1 10 12 0;
#X connect 1 11 13 0;
#X connect 1 12 14 0;
#X connect 1 13 15 0;
#X connect 1 14 16 0;
#X connect 1 15 17 0;
#X connect 2 0 18 0;
#X connect 3 0 18 0;
#X connect 4 0 18 0;
#X connect 5 0 18 0;
#X connect 6 0 18 0;
#X connect 7 0 18 0;
#X connect 8 0 18 0;
#X connect 9 0 18 0;
#X connect 10 0 18 0;
#X connect 11 0 18 0;
#X connect 12 0 18 0;
#X connect 13 0 18 0;
#X connect 14 0 18 0;
#X connect 15 0 18 0;
#X connect 16 0 18 0;
#X connect 17 0 18 0;
#X restore 270 75 pd get_in_port;
#N canvas 0 22 852 637 get_out_port 0;
#X obj 124 30 inlet;
#X msg 123 449 0;
#X msg 148 427 1;
#X msg 174 403 2;
#X msg 199 381 3;
#X msg 225 360 4;
#X msg 250 338 5;
#X msg 276 314 6;
#X msg 301 292 7;
#X msg 328 263 8;
#X msg 353 241 9;
#X msg 379 217 10;
#X msg 404 195 11;
#X msg 430 174 12;
#X msg 455 152 13;
#X msg 481 128 14;
#X msg 506 106 15;
#X obj 123 523 outlet;
#X obj 122 59 sel out1 out2 out3 out4 out5 out6 out7 out8 out9 out10
out11 out12 out13 out14 out15 out16;
#X connect 0 0 18 0;
#X connect 1 0 17 0;
#X connect 2 0 17 0;
#X connect 3 0 17 0;
#X connect 4 0 17 0;
#X connect 5 0 17 0;
#X connect 6 0 17 0;
#X connect 7 0 17 0;
#X connect 8 0 17 0;
#X connect 9 0 17 0;
#X connect 10 0 17 0;
#X connect 11 0 17 0;
#X connect 12 0 17 0;
#X connect 13 0 17 0;
#X connect 14 0 17 0;
#X connect 15 0 17 0;
#X connect 16 0 17 0;
#X connect 18 0 1 0;
#X connect 18 1 2 0;
#X connect 18 2 3 0;
#X connect 18 3 4 0;
#X connect 18 4 5 0;
#X connect 18 5 6 0;
#X connect 18 6 7 0;
#X connect 18 7 8 0;
#X connect 18 8 9 0;
#X connect 18 9 10 0;
#X connect 18 10 11 0;
#X connect 18 11 12 0;
#X connect 18 12 13 0;
#X connect 18 13 14 0;
#X connect 18 14 15 0;
#X connect 18 15 16 0;
#X restore 206 119 pd get_out_port;
#X obj 176 18 inlet;
#X obj 177 238 outlet;
#X obj 175 55 unpack f s f s;
#X obj 177 192 pack f f f f;
#X connect 0 0 7 0;
#X connect 1 0 7 2;
#X connect 2 0 7 3;
#X connect 3 0 7 1;
#X connect 4 0 6 0;
#X connect 6 0 0 0;
#X connect 6 1 3 0;
#X connect 6 2 1 0;
#X connect 6 3 2 0;
#X connect 7 0 5 0;
#X restore 175 131 pd convert_to_port;
#X connect 0 0 5 0;
#X connect 2 0 3 0;
#X connect 3 0 1 0;
#X connect 5 0 2 0;
#X restore 314 397 pd disconnect;
#N canvas 0 22 450 300 post 0;
#X obj 171 141 inlet;
#X obj 171 178 print;
#X connect 0 0 1 0;
#X restore 376 374 pd post;
#N canvas 162 445 450 300 unhandled 0;
#X obj 121 39 inlet;
#X obj 121 99 list trim;
#X obj 121 161 print error;
#X obj 121 78 list prepend unhandled message:;
#X connect 0 0 3 0;
#X connect 1 0 2 0;
#X connect 3 0 1 0;
#X restore 570 330 pd unhandled;
#X obj 432 120 r integra;
#N canvas 449 129 610 412 OSC_send 0;
#X obj 130 28 loadbang;
#X obj 400 37 inlet;
#X obj 205 251 list trim;
#X msg 130 67 connect 127.0.0.1 7772;
#X obj 205 280 mrpeach/packOSC;
#X obj 205 315 mrpeach/udpsend;
#X obj 382 303 outlet;
#X obj 205 222 list prepend send /integra;
#N canvas 898 294 450 300 handle_bang 0;
#X obj 163 166 list;
#X obj 163 57 t a a;
#X obj 163 110 sel bang;
#X obj 210 140 t b;
#X obj 210 165 list;
#X obj 163 28 inlet;
#X obj 245 236 outlet;
#X obj 164 239 outlet;
#X msg 163 86 symbol \$4;
#X connect 0 0 7 0;
#X connect 1 0 8 0;
#X connect 1 1 0 1;
#X connect 1 1 4 1;
#X connect 2 0 0 0;
#X connect 2 1 3 0;
#X connect 3 0 4 0;
#X connect 4 0 6 0;
#X connect 5 0 1 0;
#X connect 8 0 2 0;
#X restore 384 107 pd handle_bang;
#X msg 380 221 list sendtyped /integra isN \$1 \$2;
#X connect 0 0 3 0;
#X connect 1 0 8 0;
#X connect 2 0 4 0;
#X connect 2 0 6 0;
#X connect 3 0 5 0;
#X connect 4 0 5 0;
#X connect 7 0 2 0;
#X connect 8 0 9 0;
#X connect 8 1 7 0;
#X connect 9 0 2 0;
#X restore 432 141 pd OSC_send;
#X obj 431 37 loadbang;
#X msg 431 78 \; pd dsp 1;
#X obj 115 88 v nobjects;
#N canvas 801 32 615 497 add_to_list 0;
#X obj 158 117 list;
#X obj 158 67 inlet;
#X obj 156 216 sel;
#X obj 156 173 list;
#X text 218 68 add elements;
#X text 429 73 reset list;
#X obj 359 77 t b a b;
#X text 239 196 remove elements;
#X obj 71 246 s id_to_object;
#X msg 71 226 const 0;
#X obj 359 40 inlet;
#X text 409 39 delete element;
#X obj 32 429 tabwrite id_to_object;
#X obj 32 204 t a b b;
#X obj 32 404 f;
#X obj 64 405 + 1;
#X msg 77 382 0;
#X obj 32 383 t b a;
#N canvas 0 22 450 300 list-drip 0;
#X obj 41 91 inlet list;
#X obj 60 227 list split 1;
#X obj 60 144 until;
#X obj 60 182 list append;
#X obj 190 227 bang;
#X obj 41 116 t b b l;
#X obj 60 248 outlet elements;
#X obj 311 246 outlet done;
#X connect 0 0 5 0;
#X connect 1 0 6 0;
#X connect 1 1 3 1;
#X connect 1 2 4 0;
#X connect 2 0 3 0;
#X connect 3 0 1 0;
#X connect 4 0 2 1;
#X connect 5 0 7 0;
#X connect 5 1 2 0;
#X connect 5 2 3 1;
#X restore 156 196 pd list-drip;
#N canvas 0 22 450 300 list-drip 0;
#X obj 41 91 inlet list;
#X obj 60 227 list split 1;
#X obj 60 144 until;
#X obj 60 182 list append;
#X obj 190 227 bang;
#X obj 41 116 t b b l;
#X obj 60 248 outlet elements;
#X obj 311 246 outlet done;
#X connect 0 0 5 0;
#X connect 1 0 6 0;
#X connect 1 1 3 1;
#X connect 1 2 4 0;
#X connect 2 0 3 0;
#X connect 3 0 1 0;
#X connect 4 0 2 1;
#X connect 5 0 7 0;
#X connect 5 1 2 0;
#X connect 5 2 3 1;
#X restore 32 321 pd list-drip;
#N canvas 0 22 547 498 sort 0;
#X obj 137 396 outlet sorted;
#X obj 137 52 inlet unsorted;
#X obj 137 73 t b a b;
#N canvas 0 22 450 300 repack 0;
#X obj 96 201 list split 1;
#X obj 96 118 until;
#X obj 96 156 list append;
#X obj 122 85 t b l;
#X obj 226 201 bang;
#X obj 96 222 outlet;
#X obj 122 62 inlet;
#X connect 0 0 5 0;
#X connect 0 1 2 1;
#X connect 0 2 4 0;
#X connect 1 0 2 0;
#X connect 2 0 0 0;
#X connect 3 0 1 0;
#X connect 3 1 2 1;
#X connect 4 0 1 1;
#X connect 6 0 3 0;
#X restore 156 122 pd repack;
#X obj 156 99 t a f;
#X obj 156 202 list append;
#X obj 321 202 list prepend;
#X obj 137 373 list;
#X obj 351 176 t l l l;
#X obj 156 329 t l l;
#N canvas 0 22 450 528 insert 0;
#X obj 45 66 inlet value;
#X obj 45 476 outlet newlist;
#X obj 45 109 list;
#X obj 66 377 list prepend;
#X obj 66 398 t l l;
#X obj 45 421 list;
#N canvas 0 22 450 300 repack 0;
#X obj 96 201 list split 1;
#X obj 96 118 until;
#X obj 96 156 list append;
#X obj 122 85 t b l;
#X obj 226 201 bang;
#X obj 96 222 outlet;
#X obj 122 62 inlet;
#X connect 0 0 5 0;
#X connect 0 1 2 1;
#X connect 0 2 4 0;
#X connect 1 0 2 0;
#X connect 2 0 0 0;
#X connect 3 0 1 0;
#X connect 3 1 2 1;
#X connect 4 0 1 1;
#X connect 6 0 3 0;
#X restore 66 166 pd repack;
#X obj 66 187 t f f;
#X obj 93 252 >;
#X obj 93 273 select 1;
#X obj 93 294 f;
#X obj 93 211 spigot 0;
#X obj 108 232 t f f b;
#X text 62 31 insert an element into a sorted list;
#X obj 281 69 inlet sorted list;
#X obj 45 87 t b f;
#X obj 93 315 t f b;
#X obj 138 189 f 1;
#X obj 168 189 f 0;
#X obj 45 143 t b l b;
#X connect 0 0 15 0;
#X connect 2 0 19 0;
#X connect 3 0 4 0;
#X connect 4 0 5 1;
#X connect 4 1 3 1;
#X connect 5 0 1 0;
#X connect 6 0 7 0;
#X connect 7 0 3 0;
#X connect 7 1 11 0;
#X connect 8 0 9 0;
#X connect 9 0 10 0;
#X connect 10 0 16 0;
#X connect 11 0 8 0;
#X connect 12 0 8 1;
#X connect 12 1 10 1;
#X connect 12 2 17 0;
#X connect 14 0 2 1;
#X connect 15 0 2 0;
#X connect 15 1 12 0;
#X connect 16 0 3 0;
#X connect 16 1 18 0;
#X connect 17 0 11 1;
#X connect 18 0 11 1;
#X connect 19 0 5 0;
#X connect 19 1 6 0;
#X connect 19 2 3 1;
#X restore 238 202 pd insert;
#N canvas 0 22 450 426 minimum 0;
#X obj 156 194 moses;
#X obj 183 214 moses;
#X obj 183 171 t f f;
#X obj 156 95 inlet;
#X obj 335 100 inlet;
#X obj 183 295 outlet inbetween;
#X obj 294 278 t f f;
#X obj 294 299 outlet newmax;
#X obj 46 267 t f f;
#X obj 46 288 outlet newmin;
#X connect 0 0 8 0;
#X connect 0 1 1 0;
#X connect 1 0 5 0;
#X connect 1 1 6 0;
#X connect 2 0 0 1;
#X connect 2 1 1 1;
#X connect 3 0 0 0;
#X connect 4 0 2 0;
#X connect 6 0 7 0;
#X connect 6 1 1 1;
#X connect 8 0 9 0;
#X connect 8 1 0 1;
#X restore 156 175 pd minimum inbetween maximum;
#X obj 156 143 route float;
#X obj 156 308 list;
#X connect 1 0 2 0;
#X connect 2 0 7 0;
#X connect 2 1 4 0;
#X connect 2 2 13 0;
#X connect 3 0 12 0;
#X connect 4 0 3 0;
#X connect 4 1 11 1;
#X connect 5 0 13 0;
#X connect 6 0 13 0;
#X connect 7 0 0 0;
#X connect 8 0 5 1;
#X connect 8 1 10 1;
#X connect 8 2 6 1;
#X connect 9 0 7 1;
#X connect 9 1 8 0;
#X connect 10 0 13 0;
#X connect 11 0 5 0;
#X connect 11 1 10 0;
#X connect 11 2 6 0;
#X connect 12 0 11 0;
#X connect 13 0 9 0;
#X restore 32 178 pd sort;
#X obj 158 143 t a a a;
#X connect 0 0 21 0;
#X connect 1 0 0 0;
#X connect 2 1 0 0;
#X connect 3 0 18 0;
#X connect 6 0 3 0;
#X connect 6 1 2 1;
#X connect 6 2 0 1;
#X connect 9 0 8 0;
#X connect 10 0 6 0;
#X connect 13 0 19 0;
#X connect 13 1 16 0;
#X connect 13 2 9 0;
#X connect 14 0 15 0;
#X connect 14 0 12 0;
#X connect 15 0 14 1;
#X connect 16 0 14 1;
#X connect 17 0 14 0;
#X connect 17 1 12 1;
#X connect 18 0 2 0;
#X connect 19 0 17 0;
#X connect 20 0 13 0;
#X connect 21 0 20 0;
#X connect 21 1 3 1;
#X connect 21 2 0 1;
#X restore 279 568 pd add_to_list;
#X obj 279 525 r \$0-add_element;
#X obj 360 545 r \$0-del_element;
#X obj 116 58 table id_to_object 10000;
#X obj 431 59 t b b;
#X obj 507 103 s pd-integra-canvas;
#X msg 507 81 clear;
#X msg 496 361 \; pd dsp \$1;
#X obj 496 333 moses 2;
#X obj 122 209 mrpeach/routeOSC /load /remove /connect /disconnect
/post /send /dsp;
#X obj 122 156 t a a;
#X obj 204 183 print received;
#X obj 623 239 print sent;
#X obj 560 200 route 17 18;
#X obj 560 151 route send;
#X obj 560 176 route /integra;
#X connect 2 0 26 0;
#X connect 4 0 1 0;
#X connect 4 1 3 0;
#X connect 5 0 1 0;
#X connect 5 1 3 0;
#X connect 6 0 3 0;
#X connect 7 0 1 0;
#X connect 8 0 1 0;
#X connect 11 0 12 0;
#X connect 13 0 20 0;
#X connect 17 0 16 0;
#X connect 18 0 16 1;
#X connect 20 0 14 0;
#X connect 20 1 22 0;
#X connect 22 0 21 0;
#X connect 24 0 23 0;
#X connect 25 0 5 0;
#X connect 25 1 4 0;
#X connect 25 2 7 0;
#X connect 25 3 8 0;
#X connect 25 4 9 0;
#X connect 25 5 6 0;
#X connect 25 6 24 0;
#X connect 25 7 10 0;
#X connect 26 0 25 0;
#X connect 29 2 28 0;
#X connect 30 0 31 0;
#X connect 31 0 29 0;
