#N canvas 163 188 869 710 10;
#X obj 150 525 outlet ->audiosettings;
#X obj 150 106 inlet _HostAudioDevices->;
#X obj 577 200 outlet ->integra(DeviceList);
#N canvas 13 50 688 542 devices 0;
#X obj 378 125 unpack 0 s;
#X obj 326 66 inlet id name;
#X obj 97 317 outlet <id> <device>;
#X obj 326 110 t b;
#X obj 326 88 route bang list;
#X obj 377 174 t l l b;
#X obj 97 241 list split 1;
#X obj 97 263 + 1;
#X obj 97 285 list append;
#X obj 97 56 inlet <device>;
#X obj 377 310 outlet <device>;
#X text 334 48 add;
#X text 112 35 query;
#X text 107 342 query-result;
#X text 386 337 device-list;
#X obj 97 219 ../generics/list-find;
#X obj 377 152 ../generics/list-accumulate;
#X obj 377 199 ../generics/list-drip;
#X connect 0 1 16 0;
#X connect 1 0 4 0;
#X connect 3 0 16 0;
#X connect 4 0 3 0;
#X connect 4 1 0 0;
#X connect 5 0 17 0;
#X connect 5 1 15 1;
#X connect 6 0 7 0;
#X connect 6 1 8 1;
#X connect 7 0 8 0;
#X connect 8 0 2 0;
#X connect 9 0 15 0;
#X connect 15 0 6 0;
#X connect 16 0 5 0;
#X connect 17 0 10 0;
#X restore 150 183 pd devices;
#X obj 577 99 inlet buildDeviceList;
#X obj 577 122 route bang \$1;
#X obj 577 144 t b;
#X obj 577 166 t a;
#X text 137 20 this is a help-abstraction for the HostAudioDevices
module;
#X text 164 46 i don't think it is of any use outside this very module
;
#X obj 224 248 route params;
#X obj 150 332 t b f;
#X obj 224 316 unpack;
#X obj 224 226 r _HostAudioSettings_set;
#X obj 224 290 route list;
#X obj 181 360 - 1;
#X obj 150 434 pack s 0 16;
#X obj 150 385 symbol @\$1put;
#X msg 150 476 params \$1 \$2 \$3;
#X obj 224 270 route \$1;
#X obj 415 367 t b f;
#X obj 150 128 route \$1 \$1Channels;
#X connect 1 0 21 0;
#X connect 3 0 11 0;
#X connect 3 1 2 0;
#X connect 4 0 5 0;
#X connect 5 0 6 0;
#X connect 5 1 7 0;
#X connect 6 0 7 0;
#X connect 7 0 3 1;
#X connect 10 0 19 0;
#X connect 11 0 17 0;
#X connect 11 1 15 0;
#X connect 12 0 16 1;
#X connect 12 1 16 2;
#X connect 13 0 10 0;
#X connect 14 0 12 0;
#X connect 15 0 16 1;
#X connect 16 0 18 0;
#X connect 17 0 16 0;
#X connect 18 0 0 0;
#X connect 19 0 14 0;
#X connect 20 0 17 0;
#X connect 20 1 16 2;
#X connect 21 0 3 0;
#X connect 21 1 20 0;
